<?xml version="1.0" encoding="UTF-8" standalone="no"?>
<svg
   width="1871.4923"
   height="385.39667"
   viewBox="0 0 1871.4923 385.39667"
   version="1.1"
   id="svg126"
   sodipodi:docname="11.svg"
   xmlns:inkscape="http://www.inkscape.org/namespaces/inkscape"
   xmlns:sodipodi="http://sodipodi.sourceforge.net/DTD/sodipodi-0.dtd"
   xmlns:xlink="http://www.w3.org/1999/xlink"
   xmlns="http://www.w3.org/2000/svg"
   xmlns:svg="http://www.w3.org/2000/svg">
  <sodipodi:namedview
     id="namedview126"
     pagecolor="#ffffff"
     bordercolor="#666666"
     borderopacity="1.0"
     inkscape:showpageshadow="2"
     inkscape:pageopacity="0.0"
     inkscape:pagecheckerboard="0"
     inkscape:deskcolor="#d1d1d1" />
  <use
     xlink:href="#source-5"
     transform="rotate(90,1148.2745,723.72549)"
     id="use1" />
  <path
     fill-rule="nonzero"
     fill="#FFFFFF"
     fill-opacity="1"
     d="m 1148.8008,348.61505 c -3.4883,-14.30078 -6.3985,-31.0664 -8.9024,-48.16406 -3.9296,-9.57031 -6.7421,-16.21094 -11.0859,-24.25391 -2.457,-3.4375 -4.9141,-6.8789 -7.3711,-10.3164 -4.5664,-6.27344 -14.6211,-13.33203 -19.2969,-15.88282 -4.6757,-1.96093 -10.957,-2.8789 -15.7226,-3.28906 -5.0391,-0.4375 -10.5625,-0.4375 -15.6016,0 -6.9375,1.48438 -13.9765,2.33985 -20.9648,5.91016 -7.0078,4.40234 -14.8633,10.23047 -18.8672,15.55469 -5.8164,7.74609 -14.9844,20.18359 -18.918,29.23828 -1.6406,3.78125 -4.3555,9.89453 -6.793,15.13281 -1.2812,9.53516 -6.62105,18.03125 -7.45699,31.31641 0.70313,9.87109 1.41016,19.74218 2.11328,29.61328 0.52731,1.40234 2.09371,2.10937 3.32811,1.14843 1.9219,-6.77343 1.6524,-18.47265 -0.1797,-25.30078 -0.2383,-5.85156 1.7735,-18.84765 3.5938,-25.0625 1.5351,-5.22656 4.9844,-13.47656 6.8789,-17.41015 3.7734,-7.83985 11.8594,-19.82813 19.3125,-31.16407 2,-3.03906 5.3828,-6.76953 9.25,-10.40625 3.4766,-3.26953 8.1016,-7.28906 11.8984,-8.71093 5.5977,-2.09375 12.6485,-4.17578 17.1524,-4.88672 6.2187,-0.98047 13.8906,-0.63281 20.1914,1.57812 4.4062,1.55078 9.4375,3.62891 13.5976,6.0625 3.3086,1.94141 7.1993,5.2461 9.4727,7.78125 4.5039,7.87891 9.0078,15.75782 13.5117,23.63672 1.8906,3.75 5.2266,11.71875 5.7891,15.44922 2.5195,20.29297 8.7695,37.01563 9,58.65234 0.5468,1.39844 2.1133,2.13282 3.9258,1.76563 1.2851,-0.25781 1.75,-0.76172 2.1015,-1.83594 1.4805,-4.5039 0.6641,-13.22265 0.043,-16.15625"
     id="path75" />
  <path
     fill-rule="nonzero"
     fill="#FFFFFF"
     fill-opacity="1"
     d="m 1136.1641,374.88849 c -1.3633,-1.13672 -5.5899,-2.21484 -7.9493,-2.37109 -29.9179,-3.51172 -51.8085,-4.5625 -81.5625,-6.56641 -10.1679,0.0469 -23.7734,-0.41797 -32.9961,1.61328 -1.4843,0.32813 -5.4843,2.07422 -6.1757,3.89453 -0.5664,1.49219 0.9414,2.07422 2.7265,2.23438 8.0899,0.72265 16.25,-1.15625 21.5625,-1.69922 13.3594,-0.7461 28.9297,1.05078 42.3008,1.85547 19.6445,2.66406 39.1016,3.89453 59.2969,6.67968 2.4453,0.2461 3.625,-1.16015 3.5508,-3.3125 0.01,-0.94921 -0.2461,-1.90234 -0.7539,-2.32812"
     id="path76" />
  <path
     fill-rule="nonzero"
     fill="#FFFFFF"
     fill-opacity="1"
     d="m 1115.8516,185.12286 c -3.7149,-4.91406 -9.0977,-9.6875 -13.586,-12.43359 -4.1797,-2.55859 -7.4179,-4.20703 -12.3203,-5 -6.1367,-0.99609 -13.3515,-0.61719 -19.5234,-0.19531 -4.586,0.3125 -11.0781,3.91015 -15.4922,7.375 -5.0039,3.92578 -9.1016,9.60156 -13.8359,14.14062 -2.043,1.95703 -5.5118,8.1836 -6.6563,11.60938 -0.9102,2.72656 -0.6562,6.09765 -0.4102,8.88281 0.4532,5.09766 2.9532,11.19531 5.6719,15.21094 2.7852,4.11719 9.543,10.5625 13.3477,12.8125 4.1679,2.45703 11.5234,5.80859 17.7109,6.80469 6.0156,0.96484 13.0899,0.74218 19.1289,0.21484 8.4063,-0.14453 9.4063,-4.89844 15.8086,-5.85156 6.1602,-4.1836 11.3906,-9.71875 14.586,-14.22657 1.7421,-2.43359 2.6406,-7.70703 2.9687,-11.46093 0.4063,-4.66016 0.5156,-9.48438 -0.016,-12.65235 -0.7774,-4.64062 -4.6406,-11.59765 -7.3828,-15.23047 m -1.5469,37.51172 c -2.3125,3.36328 -8.75,9.89063 -11.4336,11.23438 -4.8008,2.40625 -10.2734,3.86719 -16.5781,5.19531 -3.5742,0.75391 -8.0508,0.89453 -11.3047,0.40625 -3.5352,-0.53125 -7.6602,-1.92969 -12.2344,-3.69531 -4.6758,-1.80469 -11.6875,-6.05469 -16.3945,-11.11719 -2.7813,-2.99219 -4.8828,-7.34375 -6.3125,-11.96875 -1.1367,-3.67969 -1.6992,-8.03906 -0.9688,-11.56641 0.6133,-2.95703 5.4727,-8.12109 9.793,-11.47656 3.5391,-2.74609 7.5352,-5.10547 11.8945,-6.5 2.1094,-0.67578 4.4453,-0.67578 6.5547,-0.36719 2.7774,1.16797 5.5547,2.33594 8.332,3.50391 0.3868,-1.39844 -2.121,-3.72656 -4.1953,-4.38672 -4.7304,-1.50781 -15.4101,-2.07812 -15.0312,-2.32422 2.418,-1.54687 6.0273,-3.32812 8.2578,-3.85156 6.8867,-1.45703 15.5547,-2.30859 22.7266,-1.67187 3.0859,0.60546 7.4843,2.9414 12.3046,6.17578 2.6368,1.76953 5.9454,4.34765 8.1954,7.22656 2.8046,3.58594 6.6757,10.94531 8.2109,15.04687 1.1133,2.96094 0.9258,9.04688 0.1797,13.67969 -0.3399,2.14063 -0.7891,4.70313 -1.9961,6.45703"
     id="path77" />
  <path
     fill-rule="nonzero"
     fill="#FFFFFF"
     fill-opacity="1"
     d="m 1041.0234,268.59943 h 2.875 l -2.875,-2.875 v 2.875"
     id="path78" />
  <path
     fill-rule="nonzero"
     fill="#FFFFFF"
     fill-opacity="1"
     d="m 1066.0586,323.22833 c -3.3164,-9.92578 -7.0703,-21.32422 -10.332,-31 -1.3946,-4.14062 -6.4141,-14.59375 -9.8594,-20.875 -1.1719,-2.13281 -3.4336,-5.39843 -4.0625,-4.52734 5.4375,13.82812 10.6484,31.5625 16.2344,43.03906 4.4843,20.94141 5.5664,43.06641 9.5664,62.05078 -0.211,1.71485 2.8593,3.63282 4.5586,2.91016 0.9414,-13.59766 -6.0586,-36.39063 -6.1055,-51.59766"
     id="path79" />
  <path
     fill-rule="nonzero"
     fill="#FFFFFF"
     fill-opacity="1"
     d="m 1093.1211,277.98224 c -2.2148,3.54297 -4.4258,7.08594 -6.6367,10.62891 -2.3516,3.6914 -5.1953,13.34375 -5.9063,16.9414 -2.1797,13.56641 -6.8398,27.58203 -8.7265,43.22656 -0.3477,6.36329 0.5664,13.08594 1.8828,19.38282 0.3242,1.54297 1.1406,3.29687 2.6211,3.96093 1.539,0.69532 2.7461,-0.44921 3.0586,-2.27734 -0.8672,-6.33203 -1.7305,-12.66406 -2.5938,-18.99219 0.3399,-10.30859 1.7617,-19.80078 3.4375,-28.64843 1.3164,-6.95704 5.9297,-20.78125 9.9297,-29.77344 2.2188,-4.99219 4.9414,-11.14453 7.6836,-15.26953 1.9805,-1.72266 3.957,-3.44532 5.9336,-5.16797 0.3555,-0.9961 -0.3555,-2.50781 -1.9219,-2.44141 -1.3086,0.0508 -6.6445,5.64844 -8.7617,8.42969"
     id="path80" />
  <path
     fill-rule="nonzero"
     fill="#FFFFFF"
     fill-opacity="1"
     d="m 1032.4102,285.8299 h 2.875 l -2.875,-2.875 v 2.875"
     id="path81" />
  <path
     fill-rule="nonzero"
     fill="#FFFFFF"
     fill-opacity="1"
     d="m 1022.8867,369.34552 c 8.0352,-0.83594 16.0742,-1.66797 24.1094,-2.50391 2.1133,-1.22265 4.2305,-2.44531 6.3477,-3.66796 2.6093,0.5664 -0.01,7.0664 2.3046,10.125 0.9141,1.01953 2.0039,1.29296 3.2032,0.87109 1.3398,-0.47266 1.8164,-1.32422 2.1875,-2.6875 1.5273,-5.61719 0.9257,-21.92969 -0.082,-26.40234 -3.2304,-13.09766 -6.4609,-26.19532 -9.6914,-39.29297 -0.7695,-8.16407 -0.6875,-15.58203 -3.1718,-24.375 -1.3086,-2.36719 -2.6133,-4.73047 -3.9219,-7.09766 -0.3828,-3.07422 -0.6406,-7.32422 -2.0274,-10.15234 -0.5,-1.01172 -0.9843,-1.48438 -2.2968,-1.72657 -1.8594,-0.34375 -3.2344,0.37891 -3.7618,1.7461 -0.9218,5.01562 -1.8437,10.02734 -2.7656,15.04297 -3.1367,2.44922 -6.2734,4.89453 -9.4101,7.34375 -4.7657,7.75 -9.5977,16.47656 -14.8594,26.16406 -0.75,2.84766 -0.8203,9.48047 -0.5821,10.90234 0.7461,1.14453 1.4883,2.29297 2.2344,3.44141 -0.8164,1.89844 -2.9961,5.48437 -2.3047,8.19141 1.1719,0.71875 2.3438,1.4414 3.5118,2.16015 -1.1836,4.91406 -5.9571,8.96094 -9.7305,14.80469 -0.8867,2.47656 1.668,3.53906 2.7461,4.26562 -0.9844,1.59375 -1.9688,3.1836 -2.9531,4.77735 0.8828,1.3164 1.7656,2.6289 2.6484,3.94531 -0.062,2.35547 -0.7344,5.71875 0.9961,8.18359 0.7656,1.09375 1.793,1.67579 3.1015,1.95313 6.4571,0.89453 9.3438,-5.58984 14.168,-6.01172 m -16.7109,-14.86719 0.9687,-0.3125 -0.3125,0.96875 -0.6562,-0.65625 m 1.5469,-0.89062 -0.5782,-1.14453 0.9688,1.41015 -0.3906,-0.26562 m 0.6367,18.57422 0.5078,-0.10157 0.6367,0.0273 0.2539,0.15625 -0.2539,0.16406 -0.6367,0.0352 -0.5078,-0.0937 v -0.1875 m 2.5429,0.20312 v -1.9414 l 0.2657,0.42968 0.332,0.53907 -0.5977,0.97265 m 1.9883,-30.83594 -0.5781,-1.14453 0.9687,1.41016 -0.3906,-0.26563 m 0,-17.22656 -0.5781,-1.14844 0.9687,1.41016 -0.3906,-0.26172 m 0,-8.61719 -0.5781,-1.14453 0.9687,1.41016 -0.3906,-0.26563 m 1.1446,25.60547 -0.9063,-0.90625 0.9063,-0.91015 0.9101,0.91015 -0.9101,0.90625 m -0.3243,-17.82422 h 1.293 l -0.9687,0.59766 -0.9688,-0.59766 h 0.6445 m 0.4336,-12.76953 -0.3281,-0.0586 -0.4375,-0.16406 -0.168,-0.125 0.3282,0.0586 0.4375,0.16406 0.1679,0.125 m 0.7266,22.71485 h 0.2266 l -0.1719,0.59375 -0.461,0.77343 -0.3906,0.41016 -0.07,-0.35156 0.3945,-0.74219 0.4727,-0.68359 m -2.8281,32.44531 c -2.1368,0.89062 -3.8203,1.1875 -4.1328,-0.17578 -0.3204,-1.39063 0.4765,-4.15235 1.1445,-4.13281 0.8242,2.20312 6.5156,1.12109 6.9414,0.88281 0.1055,0.71094 -2.0742,2.64453 -3.9531,3.42578 m 4.0273,-33.11719 -0.3125,-0.97265 0.9727,0.3125 -0.6602,0.66015 m 2.1641,25.1836 0.9687,-0.3125 -0.3125,0.96875 -0.6562,-0.65625 m 1.2812,-35.52344 v -1.9375 l 0.2656,0.42969 0.3321,0.53906 -0.5977,0.96875 m 3.4453,27.5664 -0.3125,-0.96875 0.9727,0.3125 -0.6602,0.65625 m 0,-8.61328 v -1.9414 l 0.2657,0.43359 0.332,0.53906 -0.5977,0.96875 m 0.4414,14.22266 0.9688,-1.41016 -0.5742,1.14453 -0.3946,0.26563 m 0,-16.60547 0.9688,-0.30859 -0.3086,0.96875 -0.6602,-0.66016 m 1.2813,16.16406 -0.3125,-0.96875 0.9727,0.3125 -0.6602,0.65625 m 0.2656,-8.4375 -0.5781,-1.14453 0.9727,1.41016 -0.3946,-0.26563 m 1.1446,13.54297 -0.9063,-0.90625 0.9063,-0.90625 0.4062,0.40235 0.5039,0.5039 -0.9101,0.90625 m 0,-13.78125 -0.9063,-0.90625 0.9063,-0.91015 0.9101,0.91015 -0.9101,0.90625 m 1.7226,12.0586 -0.9062,-0.90625 0.9062,-0.90625 0.4063,0.40234 0.5039,0.50391 -0.9102,0.90625 m -1.6289,-22.71094 0.4141,-0.41016 0.7812,-0.42969 0.5547,-0.0898 v 0.24609 l -0.6641,0.45313 -0.7422,0.28125 -0.3398,-0.0508 m 2.4453,-2.31641 0.5977,-0.96875 v 1.94141 l -0.5977,-0.97266 m -1.9883,19.69531 -0.3359,-0.125 0.5859,-0.77734 1.0547,-0.92969 1.1289,-0.7539 0.5742,-0.0508 -0.07,0.55468 -0.7929,0.88282 -1.1563,0.82812 -0.9883,0.37109 m 3.2071,-20.44531 -0.3086,-0.97265 0.9687,0.3125 -0.6601,0.66015 m 0.2656,-13.60547 -0.5742,-1.14843 0.9687,1.41015 -0.3945,-0.26172 m 0.2383,29.86328 0.5976,-0.97265 v 1.9414 l -0.5976,-0.96875 m -0.062,-17.53906 0.9726,-1.41406 -0.5781,1.14844 -0.3945,0.26562 m 0.062,-13.47265 0.5976,-0.96875 v 1.9375 l -0.5976,-0.96875 m 1.2187,-0.75391 -0.3086,-0.96875 0.9688,0.3125 -0.6602,0.65625 m -8.5,-16.98828 c -2.2383,3.66797 -7.1875,9.28125 -7.582,8.77734 -0.2656,-0.33594 5.1211,-12.24609 7.5195,-16.34765 2.1211,-3.63672 8.3125,-9.2461 8.4571,-9.09375 1.4492,2.82031 -5.5313,11.35937 -8.3946,16.66406 m 10.6641,26.66797 0.9726,-0.3125 -0.3125,0.97265 -0.6601,-0.66015 m 0.4922,-31.51953 c 0.098,0.004 0.4258,5.54687 -0.3789,8.6289 -0.4649,1.77344 -2.5977,4.62891 -3.4414,4.89844 1.9531,-2.875 2.4804,-13.98047 3.8203,-13.52734 m -0.9492,19.96484 -0.5,-0.15625 0.098,-0.56641 0.543,-0.57031 0.7656,-0.38672 0.6172,-0.0469 0.2812,0.26953 -0.2695,0.54297 -0.7109,0.61328 -0.8242,0.30078 m 2.914,28.53906 0.2344,-0.35547 0.3906,-0.28906 0.2266,0.0703 -0.2344,0.35547 -0.3906,0.28906 -0.2266,-0.0703 m 0.9883,-2.10156 0.9727,-1.41016 -0.5782,1.14453 -0.3945,0.26563 m 1.2773,-65.40625 0.01,-0.39063 0.121,-0.82031 0.1758,-0.84765 0.1563,-0.30079 0.039,0.23438 -0.1328,0.82031 -0.2187,0.83985 -0.1485,0.46484 m 0.8594,64.43359 0.074,-0.48437 0.5039,-0.6211 0.4336,-0.0273 -0.074,0.48828 -0.5039,0.6211 -0.4336,0.0234 M 1040,331.66974 c -4.4805,5.76953 -11.6758,11.47656 -12.1992,11.875 2.7148,-3.87109 5.4297,-7.73828 8.1406,-11.60547 2.2344,-3.88281 -0.6758,-7.07031 1.7149,-6.88281 1.3671,0.6289 3.4804,3.80078 2.3437,6.61328 m 0.6328,6.67969 0.9688,-1.41407 -0.5782,1.14844 -0.3906,0.26563 m -0.8711,-32.08594 0.4922,-0.51953 0.5664,-0.28906 0.2695,0.21484 -0.07,0.47266 -0.4179,0.53906 -0.5625,0.21484 -0.3946,-0.11719 0.1172,-0.51562 m 1.2735,-6.60938 -0.059,0.86719 -0.3633,0.50781 -0.582,-0.14062 -0.4883,-0.6875 -0.1367,-1.11719 0.2304,-0.98828 0.4024,-0.53125 0.4375,0.26953 0.3437,0.78125 0.2149,1.03906 m 0.8789,38.25391 v -1.94141 l 0.2617,0.4336 0.332,0.53515 -0.5937,0.97266 m 0.4414,24.55859 0.9687,-1.41015 -0.5781,1.14844 -0.3906,0.26171 m -4.9688,-2.82421 c -2.082,1.41796 -6.8398,1.96484 -7.1445,0.93359 -0.3047,-1.03906 12.7812,-7.51172 12.4219,-8.19531 0.2382,0.44922 -3.086,5.77343 -5.2774,7.26172 m 4.9688,-74.07813 0.9687,-0.3125 -0.3125,0.97266 -0.6562,-0.66016 m 2.1133,33.57031 h -0.5704 l -0.5742,-1.14843 1.1446,0.57812 v 0.57031 m -1.7344,27.91797 -1.4805,1.52344 -1.4805,1.25391 -1.0664,0.6289 -0.2812,-0.33203 0.6797,-1.08203 1.2304,-1.49609 1.3282,-1.56641 1.1015,-1.38281 0.8985,-1.00391 0.8047,-0.52344 0.6093,-0.0742 0.25,0.33985 -0.3711,0.89453 -0.914,1.28906 -1.3086,1.53125 m 2.9922,-54.14062 -0.1289,0.1875 -0.5508,0.0625 -0.5508,-0.0625 -0.1289,-0.1875 0.3828,-0.12891 h 0.5938 l 0.3828,0.12891 m -0.1055,5.54687 v -0.57031 l 1.1484,-0.57422 -0.5781,1.14453 h -0.5703 m 3.2773,58.7461 c -0.7109,0.90234 -4.2968,3.71875 -4.6992,3.66796 -1.332,-0.16406 3.8555,-7.5664 4.5547,-7.91406 0.6406,-0.3125 0.8906,3.30078 0.1445,4.2461"
     id="path82" />
  <path
     fill-rule="nonzero"
     fill="#FFFFFF"
     fill-opacity="1"
     d="m 1142.5156,374.04083 c -1.4375,-2.02734 -4.9804,-1.375 -6.3593,-1.73828 1.6718,-0.42578 3.3437,-0.84765 5.0156,-1.27344 1.2969,-1.8164 -3.7891,-3.01953 -4.4336,-3.17187 0.2695,0.008 3.9648,0.73437 4.1406,-2.83594 1.4024,-4.70703 2.6719,-13.94922 2.3359,-17.48437 -2.9882,-18.1875 -10.7812,-38.70313 -14.5585,-59.19141 -1.2032,-3.20703 -5.9883,-9.20703 -9.629,-13.40625 -1.0078,-1.16406 -7.8359,-6.15625 -8.8437,-6.60937 -0.8477,-0.37891 -2.0898,-0.17969 -3.1641,0.29296 -1.9453,2.38672 -3.8906,4.77344 -5.832,7.16407 -1.3828,1.09375 -3.3164,-1.6875 -6.0781,1.83593 -5.2813,6.98829 -9.1328,10.66016 -14,19.40625 -1.25,6.44922 -2.5039,12.90235 -3.7578,19.35157 0.3125,2.47656 2.1953,4.12109 3.8047,5.63672 -0.1485,2.1875 -0.293,4.37109 -0.4415,6.55859 0.3086,1.49219 1.1993,2.27344 1.8711,2.60937 0.1368,0.99219 -4.4218,14.19922 -6.2343,17.13282 -1.875,1.97265 -3.75,3.94531 -5.6211,5.91406 -0.8086,3.18359 2.0508,7.38281 3.3633,8.01172 0.1367,1.52734 -5.0821,5.83984 -3.7305,9.23437 0.3555,1.19532 1.0508,1.8086 2.2695,1.90625 3.6211,-0.51172 6.5235,-0.35937 8.4063,-0.24609 2.4453,-1.17188 4.8867,-2.34375 7.3281,-3.51172 5.0039,-0.45312 12.3125,-0.008 17.125,-1.38281 2.6719,-1.6836 5.3398,-3.36719 8.0117,-5.05078 -0.3086,-0.0586 6.9024,7.34375 6.8555,5.88281 -1.4414,0.32422 -2.8828,0.64844 -4.3203,0.96875 -1.2383,0.75781 -2.3164,2 -1.7305,2.78125 0.2227,0.30078 7.168,4.21094 9.7148,5.43359 5.8164,1.4375 12.336,0.46875 17.8516,0.32422 2.0391,-0.30078 1.7656,-2.89844 0.6406,-4.54297 m -66.457,-7 0.2617,0.42969 0.707,0.16406 h -1.9414 l 0.9727,-0.59375 m 5.7422,-28.95703 -0.5742,-1.14844 0.9687,1.41407 -0.3945,-0.26563 m 1.1484,-2.05469 0.2656,0.42969 0.7032,0.16797 h -1.9375 l 0.9687,-0.59766 m 0.7539,-1.125 0.9688,-1.41406 -0.5781,1.14844 -0.3907,0.26562 m 1.543,30.7461 -0.5742,-1.14844 0.9687,1.41016 -0.3945,-0.26172 m -0.2617,-31.1875 v -1.94141 l 0.2656,0.42969 0.3281,0.53906 -0.5937,0.97266 m 0.2617,-4.99219 -0.5742,-1.14844 0.9687,1.41016 -0.3945,-0.26172 m 0.2383,35.03125 0.5976,-0.96875 v 1.9375 l -0.5976,-0.96875 m -0.059,-32.42187 0.9687,-0.3125 -0.3125,0.97265 -0.6562,-0.66015 m 0,-5.16797 0.9687,-0.3125 -0.3125,0.97265 -0.6562,-0.66015 m 0,-25.84375 0.9687,-0.3086 -0.3125,0.96875 -0.6562,-0.66015 m 1.2812,-1.0625 -0.3125,-0.96875 0.9688,0.30859 -0.6563,0.66016 m 2.1641,67.6289 0.9687,-1.41015 -0.5742,1.14843 -0.3945,0.26172 m 1.2812,-41.78515 -0.3125,-0.97266 0.9688,0.3125 -0.6563,0.66016 m 0,-18.95313 -0.3125,-0.96875 0.9688,0.3125 -0.6563,0.65625 m 0.4415,9.05469 0.9687,-1.41016 -0.5742,1.14453 -0.3945,0.26563 m 1.2812,-2.16406 -0.3125,-0.96875 0.9688,0.3125 -0.6563,0.65625 m 0.4414,-1.28125 0.9688,-1.41016 -0.5743,1.14453 -0.3945,0.26563 m 2.3672,23.01953 h 1.293 l -0.9688,0.59765 -0.9687,-0.59765 h 0.6445 m 0,-36.17969 h 1.293 l -0.9688,0.59766 -0.9687,-0.59766 h 0.6445 m 1.0781,35.55859 0.9688,-1.41406 -0.5742,1.14844 -0.3946,0.26562 m 0,-8.61718 0.9688,-1.41016 -0.5742,1.14844 -0.3946,0.26172 m 0,-6.89063 0.9688,-1.41015 -0.5742,1.14843 -0.3946,0.26172 m 0,-20.67187 0.9688,-1.41016 -0.5742,1.14453 -0.3946,0.26563 m 1.2813,35.73828 v -1.94141 l 0.2656,0.42969 0.332,0.53906 -0.5976,0.97266 m 0.2656,-53.23047 v -0.57031 l 1.1445,-0.57813 -0.5742,1.14844 h -0.5703 m 0.4922,36.23828 0.3281,-0.72656 0.4453,-0.66797 0.2071,-0.0352 -0.1407,0.55469 -0.4609,0.75781 -0.3711,0.44532 -0.01,-0.32813 m 1.1445,-39.32812 0.086,0.0976 0.1015,0.44531 0.1055,0.39844 -0.086,-0.0976 -0.1015,-0.44532 -0.1055,-0.39843 m 0.2617,82.60156 0.9688,-1.41016 -0.5742,1.14844 -0.3946,0.26172 m 1.2813,-0.44141 v -1.9375 l 0.2656,0.42969 0.332,0.53906 -0.5976,0.96875 m 0,-39.625 -0.3125,-0.96875 0.9726,0.3125 -0.6601,0.65625 m -0.6797,-6.60937 0.1328,-0.71875 0.3203,-0.65625 0.293,-0.0117 0.07,0.55859 -0.2695,0.75391 -0.3203,0.40625 -0.2266,-0.33203 m 1.7695,-2.66016 h 1.293 l -0.9727,0.59375 -0.9687,-0.59375 h 0.6484 m -3.375,-6.14844 c -0.3359,-0.72265 0.3516,-2.59765 1.1563,-3.55468 1.082,-1.28125 3.0195,-1.875 3.3633,-1.30469 0.6015,0.99609 -3.7813,6.45312 -4.5196,4.85937 m 5.9961,12.15235 -0.5781,-1.14844 0.9727,1.41016 -0.3946,-0.26172 m 0.1758,-0.83594 0.9688,-0.3125 -0.3086,0.96875 -0.6602,-0.65625 m 0,-17.23047 0.9688,-0.30859 -0.3086,0.96875 -0.6602,-0.66016 m 3.5,62.58203 -0.1523,0.12891 -0.4454,0.10547 -0.3398,0.0547 0.1523,-0.13281 0.4454,-0.10156 0.3398,-0.0547 m -2.7734,-38.34765 0.1484,-0.69532 0.625,-0.8789 0.793,-0.65625 0.6015,0.0351 0.25,0.52735 -0.2187,0.75 -0.75,0.66406 -0.875,0.34766 -0.5742,-0.0937 m 1.9648,-37.51172 0.2656,0.42968 0.7071,0.16407 h -1.9414 l 0.9687,-0.59375 m 0.7539,74.67578 0.9688,-1.41016 -0.5743,1.14844 -0.3945,0.26172 m 0,-40.72266 0.9688,-0.3125 -0.3086,0.96875 -0.6602,-0.65625 m 0,-34.45703 0.9688,-0.3125 -0.3086,0.97266 -0.6602,-0.66016 m 1.2813,-1.06641 v -1.9375 l 0.2656,0.42969 0.332,0.53906 -0.5976,0.96875 m 0.8203,9.27735 0.016,0.14062 -0.07,-0.32031 -0.066,-0.42969 -0.016,-0.14062 0.066,0.32031 0.07,0.42969 m -0.3789,-12.28125 0.9726,-1.41016 -0.5781,1.14844 -0.3945,0.26172 m 1.4336,31.07812 c -0.625,1.99219 -1.9688,3.31641 -3.3907,2.90235 -0.6875,-2.52344 -1.375,-5.04297 -2.0664,-7.56641 0.336,-1.66797 4.2149,-2.97656 5.125,-2.75781 1.4493,0.35156 1.2149,4.58984 0.3321,7.42187 m -0.1524,-31.51953 v -1.9375 l 0.2656,0.42969 0.3321,0.53906 -0.5977,0.96875 m -0.078,48.34375 c -12.0117,9.28516 -22.8672,27.04297 -32.6797,36.48047 0.4805,-0.19141 7.6602,-12.28125 11,-16.57812 6.9727,-7.7461 13.9414,-15.49219 20.9141,-23.23829 0.5078,-1.75 1.0117,-3.49609 1.5156,-5.24609 0.01,0 0.8203,6.28125 -0.75,8.58203 m 0.8984,-51.125 0.016,0.14063 -0.07,-0.32032 -0.066,-0.42968 -0.016,-0.14453 0.07,0.32031 0.066,0.43359 m -0.3632,62.57813 c -4.8516,5.44531 -22.2618,22.79687 -23.3633,21.94922 3.0781,-8.55079 18.9414,-23.27735 23.5078,-27.4336 1.3711,1.07031 0.7265,4.50391 -0.1445,5.48438 m -1.1641,9.91406 -1.418,1.41406 -1.3008,1.51172 -1.2382,1.49219 -1.3008,1.33203 -1.3399,0.91406 -1.0859,0.36328 -0.4727,-0.29687 0.3516,-0.75 0.9336,-1.11328 1.2812,-1.33203 1.418,-1.51172 1.5391,-1.57032 1.5976,-1.51171 1.6172,-1.33204 1.4805,-0.96875 1.2266,-0.49218 0.6093,0.0859 -0.09,0.52344 -0.9141,0.88672 -1.3594,1.08594 -1.5351,1.26953 m 4.5234,-63.02344 -0.1289,0.19141 -0.5508,0.0625 -0.5546,-0.0625 -0.125,-0.19141 0.3789,-0.125 h 0.5976 l 0.3828,0.125 m 2.1875,40.72656 v 4.73829 l -0.062,1.40234 -0.125,0.875 h -0.1914 l -0.1289,-0.875 -0.062,-1.40234 v -6.31641 l 0.027,-1.40234 0.094,-1.05469 0.1524,-0.35156 0.164,0.35156 0.098,1.05469 0.035,1.40234 v 1.57812 m 3.1133,15.36329 0.5977,-0.97266 v 1.94141 l -0.5977,-0.96875 m 1.8516,-53.41016 c 0.1679,1.16016 0.8515,11.42187 0.2148,11.69922 -0.707,-5.03125 -1.418,-10.0625 -2.1289,-15.09375 0.207,-0.67578 1.6758,1.77734 1.9141,3.39453 m 3.7148,83.46484 0.5117,-0.10156 0.6368,0.0312 0.2539,0.15234 -0.2539,0.16407 -0.6368,0.0351 -0.5117,-0.0937 v -0.1875 m 2.8555,-17.94531 c -1.2383,1.12109 -2.4805,2.24219 -3.7188,3.36328 0.2032,1.0625 0.4063,2.125 0.6094,3.1875 -1.3516,0.51172 -3.9375,1.01953 -5.2656,-0.0586 -1.8399,-0.39453 1.3789,-6.05078 -2.5938,-6.85156 -3.4101,-0.61719 -6.832,4.47265 -7.2265,3.83593 -0.1133,-0.55859 5.6992,-8.30078 6.8476,-8.1914 1.1641,1.74609 3.7071,4.94922 7.2305,4.89843 2.8984,0.4336 2.668,-6.66796 3.3164,-4.60546 0.2578,1.01953 1.0195,3.54296 0.8008,4.42187 m 1.414,-12.86328 -0.3125,-0.96875 0.9688,0.30859 -0.6563,0.66016 m 1.086,30.35156 h 1.293 l -0.9688,0.59766 -0.9687,-0.59766 h 0.6445 m 6.3945,-28.99609 c 0.1328,3.34375 -1.4414,13.05859 -1.7773,13.21875 -1.0977,0.51562 -3.3125,-1.86719 -3.4688,-3.6836 1.1172,-2.66406 2.2344,-5.32812 3.3477,-7.99218 -0.5196,-5.95313 -1.0391,-11.90235 -1.5586,-17.85547 1.1523,5.4375 2.3047,10.875 3.457,16.3125"
     id="path83" />
  <path
     fill-rule="nonzero"
     fill="#FFFFFF"
     fill-opacity="1"
     d="m 1069.2383,257.80646 c -2.3555,1.04297 -5.4414,4.48828 -6.3945,6.38281 -1.1602,2.30078 -2.4024,5.0625 -2.6055,7.02734 -0.211,2.01172 0.9219,7.38282 2.3203,8.67188 1.3086,1.21094 5.9727,1.25391 8.5,0.71875 2.457,-0.51953 5.1328,-2.66797 6.8828,-5.29688 1.9297,-2.88671 2.4922,-6.39453 2.0781,-8.71875 -0.7461,-2.21484 -1.8711,-6.53125 -5.4453,-8.30078 -1.7539,-0.875 -3.7578,-1.18359 -5.3359,-0.48437 m 1.7578,11.54297 -0.3281,-0.0586 -0.4375,-0.16406 -0.1641,-0.125 0.3242,0.0586 0.4375,0.16407 0.168,0.125"
     id="path84" />
  <path
     fill-rule="nonzero"
     fill="#FFFFFF"
     fill-opacity="1"
     d="m 1063.8945,276.61115 c 0.3047,-0.58594 2.3907,-12.65625 2,-13.38672 -1.2851,-2.94532 -6.3359,2.07422 -7.625,0.23828 -2,-3.76953 -7.8203,-13.22656 -13.2422,-18.19922 -1.4179,-1.30078 -3.4726,-2.25781 -5.1406,-1.90234 -1.6836,0.35546 -2.332,2.03125 -2.2265,3.89453 1.0351,1.93359 2.0742,3.86328 3.1093,5.79687 1.0352,9.71875 2.3868,20.92969 2.1758,30.84375 0.5899,1.84375 2.7852,2.34375 5.5586,1.90625 3.8906,-0.61719 13.9024,-6.34765 15.3906,-9.1914 m -15.4687,-17.58594 0.3633,0.38281 0.07,0.30859 -0.3047,-0.0547 -0.3633,-0.38282 -0.07,-0.30859 0.3047,0.0547 m 0.8203,1.79687 0.9687,-1.41015 -0.5742,1.14453 -0.3945,0.26562 m -0.6992,7.91797 c 0.9414,-1.65234 2.7383,-1.51953 4.4375,-0.77734 1.1367,0.5 1.3515,1.03125 0.4765,2.28125 -3.0625,4.36719 -6.4336,6.41797 -5.9336,8.41015 -0.3789,-1.51562 -0.4492,-7.34375 1.0196,-9.91406"
     id="path85" />
  <path
     fill-rule="nonzero"
     fill="#FFFFFF"
     fill-opacity="1"
     d="m 1099.0195,248.47833 c -2.6992,2.53907 -31.9257,30.05078 -31.1367,31.10547 1.2422,-0.39844 2.4883,-0.80078 3.7305,-1.19922 0.4726,0.91016 4.7305,5.9961 7.8398,8.01563 2.4297,1.57422 5.2657,1.8125 7.0664,2.37109 2,0.6211 6.0743,0.44922 8.7266,-1.73437 1.7266,-1.42188 2.1641,-3.14844 2.2266,-5.00391 -0.2852,-4.19922 -1.1407,-8.03516 -0.1993,-12.16797 1.168,-6.58203 6.0196,-14.16015 6.4141,-22.25 -0.7461,-1.41015 -2.9922,-0.71484 -4.668,0.86328 m -20.0781,25.85157 -1.3633,0.95703 -1.082,0.36718 -0.5469,-0.17187 0.25,-0.83203 0.8477,-1.05078 1.1992,-1.01953 1.2227,-0.65625 1.1054,-0.49219 0.7696,-0.2461 0.2578,0.0508 -0.4141,0.70312 -0.957,1.15234 -1.2891,1.23829 m 4.0078,4.9414 -0.9101,-0.91015 0.9101,-0.90625 0.9063,0.90625 -0.9063,0.91015 m 0,-10.43359 0.2656,0.43359 0.7032,0.16406 h -1.9375 l 0.9687,-0.59765 m 5.7813,7.625 c 0.098,-1.7461 1.2031,-4.48047 2.0898,-4.5586 0.2344,-0.0234 1.168,5.17969 0.8399,5.87891 -0.2579,0.54688 -0.9961,0.98047 -1.6133,1.01953 -1.0899,0.0703 -1.3985,-0.83203 -1.3164,-2.33984 m 2.5508,-7.11719 c -0.6485,-0.63281 -0.879,-2.91797 -0.2305,-4.47266 0.9336,-2.23437 3.4297,-4.20312 4.125,-3.82421 0.8594,0.46875 -3.5156,8.66796 -3.8945,8.29687 m 5.1718,-11.71484 0.066,0.0351 -0.027,0.59766 -0.098,0.74219 -0.078,0.36718 -0.055,-0.375 0.1016,-0.73046 0.09,-0.63672"
     id="path86" />
  <path
     fill-rule="nonzero"
     fill="#FFFFFF"
     fill-opacity="1"
     d="m 689.82812,361.68927 c -9.28906,-0.48828 -18.15625,1.83203 -26.93359,1.79297 -4.71875,-0.57422 -9.4375,-1.14844 -14.15625,-1.72266 -23.85547,-0.69531 -48.71094,-1.35156 -72.52734,0.10157 -6.73828,2.52343 -20.51563,1.91406 -29.05078,6.23046 -1.02735,1.92579 4.22265,3.48047 6.42968,3.16797 1.96485,-0.86718 3.92578,-1.73437 5.88672,-2.60156 5.75391,-0.88672 13.53516,-1.30469 19.19922,-1.35547 46.16406,3.70703 92.51172,-1.46484 139.49219,2.71094 2.375,-0.48828 4.01562,-3.49219 3.50781,-5.29688 -0.28125,-1 -26.00781,-2.71875 -31.84766,-3.02734"
     id="path87" />
  <path
     fill-rule="nonzero"
     fill="#FFFFFF"
     fill-opacity="1"
     d="m 720.17969,353.86896 c -0.4961,-2.28125 -2.22266,-8.95703 -3.76563,-12.52735 -0.70703,-1.64062 -2.89062,-3.60156 -3.58203,-3.10546 -1.13281,0.8125 1.87109,16.1914 3.08594,19.27734 0.42187,1.06641 0.96875,1.65625 2.07031,1.60937 2.14453,0.0898 2.74219,-3.32421 2.19141,-5.2539"
     id="path88" />
  <path
     fill-rule="nonzero"
     fill="#FFFFFF"
     fill-opacity="1"
     d="m 713.02734,337.61505 c -0.73437,-3.96094 -2.05078,-11.23047 -3.39453,-14.28125 -0.40234,-0.90625 -1.05859,-1.46875 -1.85547,-1.01172 -1.55468,0.88672 -1.12109,5.64844 -1.05859,8.10157 0.16406,6.49609 1.25391,15.69921 3.63281,21.82421 0.67969,1.75 2.1211,3.13282 3.48828,2.78907 3.13282,-3.90625 -0.38281,-10.66797 -0.8125,-17.42188"
     id="path89" />
  <path
     fill-rule="nonzero"
     fill="#FFFFFF"
     fill-opacity="1"
     d="m 712.92578,300.50177 c -1.42187,-4.28516 -4.01562,-9.28516 -7.46094,-14.32031 -3.68359,-5.38672 -9.375,-14.08594 -13.58203,-16.6875 -5.73828,-3.54297 -10.47656,-6.72266 -14.52734,-8.3125 -4.89063,-1.91797 -11.89453,-4.08985 -17.53516,-5.03125 -9.3125,-1.55078 -22.92187,-1.71485 -32.04297,-0.20703 -11.9414,5.17187 -28.42968,6.3164 -38.91406,11.77343 -6.76562,3.67969 -11.26172,6.67579 -15.72266,10.00782 -5.3125,3.96484 -12.96093,9.98047 -19.8164,17.17578 -5.37891,5.64453 -6.91406,9.39453 -9.9961,14.55469 -1.38671,2.3164 -1.84765,6.52343 -2.23828,8.51562 -2.30078,11.73047 -2.22656,28.01563 -2.24609,41.21094 -0.23438,2.46094 0.55078,5.45703 2.30859,4.65625 1.41797,-0.64453 2.02735,-4.02344 2.36719,-6.10938 1.38281,-14.22265 1.54297,-28.55468 4.77734,-42.70312 0.84375,-2.73828 1.89844,-6.09375 3.35157,-8.16016 2.73828,-3.88281 4.32422,-6.77344 8.36328,-10.61719 7.27734,-6.92968 16.35156,-14.41796 21.19531,-17.20703 3.39063,-1.95312 10.79297,-6.34765 13.87109,-7.39062 6.57422,-2.23438 15.08985,-5.46875 22.51172,-6.91797 7.88282,-1.53906 16.92188,-3.40625 24.70313,-3.83984 3.92187,-0.21875 8.15625,-0.17188 11.96875,0.65234 8.51562,1.83203 18.39844,5.00391 27.52734,9.51562 3.88281,1.91797 13.69141,14.09375 16.49219,18.05469 3.24219,4.58594 6.41016,10.28906 7.66016,15.36719 3.08984,17.09375 5.89062,30.96875 8.48828,49.47656 0.63281,1.9375 1.61718,3.33203 3.63672,3.23438 1.96875,-0.0977 3.46484,-1.57813 3.77734,-2.91797 -2.32422,-17.44141 -6.54297,-34.91016 -8.91797,-53.77344"
     id="path90" />
  <path
     fill-rule="nonzero"
     fill="#FFFFFF"
     fill-opacity="1"
     d="m 681.40234,185.51349 c -4.63281,-4.35938 -9.71093,-6.88281 -12.85937,-8.30469 -2.6836,-1.21484 -7.88672,-3.78515 -10.38672,-4.19922 -9.0625,-0.0312 -19.26953,-0.16406 -28.26953,-1.16015 -4.26953,1.34765 -11.84375,3.49218 -18.23828,7.46093 -4.72657,2.9336 -12.9375,11.71875 -15.40625,15.57032 -1.57422,2.45703 -2.16016,8.88281 -2.4336,12.27734 -0.52343,6.46484 -1.10937,15.48438 0.21875,21.53516 2.53516,5.13672 3.32813,9.60156 8.71485,16.0664 4.07422,4.46875 9.64062,8.72266 14.13281,10.9336 6.48828,3.19531 14.92187,5.3164 21.38672,6.59765 6.03906,1.19532 13.73828,0.1875 20.13672,-1.26953 5.85937,-1.33594 11.64453,-4.97656 17.57031,-8.80078 3.97656,-2.56641 9.89453,-7.51953 13.58984,-12.83594 4.36328,-6.27343 6.85547,-13.82812 7.62891,-17.78515 0.97266,-4.96485 0.83984,-13.3711 0.21875,-16.64063 -2.43359,-5.64062 -9.375,-11.89062 -16.00391,-19.44531 m 5.84766,42.16406 c -1.96875,4.53906 -8.875,11.55469 -12.75781,15.97656 -3.26172,3.71485 -9.41016,7.19141 -12.05469,8.34375 -3.48828,1.51954 -9.91797,3.30469 -12.21094,3.76563 -5.26562,1.05859 -12.55078,-0.99609 -18.48828,-2.375 -3.55469,-0.82422 -6.82031,-1.73047 -10.41016,-4.01172 -5.74218,-3.64844 -10.07031,-6.11719 -15.42968,-12.70703 -2.97657,-3.65625 -4.91016,-10.39844 -5.36328,-12.55859 -0.75391,-8.08204 0.29687,-17.02735 2.22265,-25.39844 4.47266,-7.3086 12.2461,-14.60156 18.38672,-18.50391 4.70313,-1.66406 21.41016,-0.78515 29.375,-0.57031 3.73047,0.10156 8.55469,0.80469 11.51563,2.25 5.45312,2.65625 14.43359,8.88672 19.71875,13.91016 4.22656,4.01171 8.28125,10.83203 8.90234,13.78125 0.86719,5.1289 -0.66406,11.34765 -3.40625,18.09765"
     id="path91" />
  <path
     fill-rule="nonzero"
     fill="#FFFFFF"
     fill-opacity="1"
     d="m 634.78125,277.80255 c -2.76563,1.32031 -7.39063,5.22656 -8.52734,7.09375 -0.85547,1.40625 -1.02735,3.5625 -0.59766,5.35156 0.32812,1.3711 0.75781,2.17969 1.94141,3.26172 2.07812,1.90625 5.10546,2.92969 7.54296,2.48828 2.9375,-0.53125 6.76563,-4.08203 9.17579,-7.26562 1.53906,-2.03125 2.10156,-3.83203 1.63281,-5.49609 -0.48828,-1.75 -2.89063,-4.24219 -5.36328,-5.42188 -1.92188,-0.91406 -3.86719,-0.9375 -5.80469,-0.0117 m -2.70313,11.71875 -0.58984,-1.17187 0.99219,1.44531 -0.40235,-0.27344 m 5.29297,-3.52734 v -0.58594 l 1.17578,-0.58984 -0.58984,1.17578 h -0.58594 m 1.4961,-0.17969 -0.32032,-0.99609 0.99219,0.32031 -0.67187,0.67578"
     id="path92" />
  <path
     fill-rule="nonzero"
     fill="#FFFFFF"
     fill-opacity="1"
     d="m 627.58984,306.0838 c -0.004,7.44141 -6.38672,17.99219 -9.19531,26.32031 -0.70703,4.82813 3.77344,5.48438 3.87109,8.82422 -0.90625,1.29688 -1.80859,2.58985 -2.71484,3.88672 -0.37109,1.07031 -0.0781,1.75781 0.89063,2.69531 3.25781,3.16016 14.26171,8.875 17.09765,9.14063 0.98828,0.0937 1.82031,-0.20313 2.5586,-1.28516 0.42187,-2.25781 0.83984,-4.51562 1.25781,-6.77343 0.72265,0.30078 2.55469,1.29296 4.375,0.59375 1.21484,-0.46875 1.76562,-1.36329 2.01562,-2.48829 -0.42968,-3.625 -0.85937,-7.25 -1.29297,-10.875 0.9961,-9.44921 6.08985,-12.3164 5.08594,-23.125 -0.20312,-1.7539 -0.8125,-3.08203 -2.32422,-4.29296 -1.875,-1.4961 -12.02734,-10.10157 -14.16797,-10.13672 -3.99218,0.63281 -5.83203,5.3789 -7.45703,7.51562 m -0.89062,24.58985 -0.59375,1.02734 -0.52344,0.66016 -0.34766,0.0547 0.004,-0.76562 0.30078,-1.29297 0.45703,-1.54688 0.39844,-1.55468 0.42578,-1.44532 0.55469,-1.27734 0.73437,-0.85937 0.64454,-0.37891 0.33984,0.28906 0.043,0.79688 -0.1875,1.1914 -0.35938,1.33985 -0.58593,1.34765 -0.66016,1.26953 -0.64453,1.14454 m 3.79687,5.63671 0.99219,-0.3164 -0.32031,0.99219 -0.67188,-0.67579 m -0.69922,11.16407 -0.96093,-0.85157 -0.71094,-0.80859 -0.18359,-0.75 0.5,-0.44531 0.85546,0.0117 0.88282,0.54687 0.69531,0.78125 0.55859,0.81641 0.34375,0.76562 0.0469,0.60547 -0.39844,0.27735 -0.70312,-0.28907 -0.92579,-0.66015 m 2.01172,-29.89844 -0.32031,-0.99609 0.99219,0.32031 -0.67188,0.67578 m 5.82813,23.32031 -0.1211,-1.51172 0.0117,-1.61328 0.0937,-1.57422 0.1875,-1.21093 0.32422,-0.52735 0.35547,0.37891 0.38672,0.93359 0.36328,1.1875 0.30469,1.23047 0.1914,1.28516 0.0742,1.28515 0.0156,1.21094 -0.12891,0.90625 -0.38672,0.44531 -0.64843,-0.26562 -0.64454,-0.83594 -0.3789,-1.32422 m 6.57031,-20.85547 -0.10156,-1.13281 0.25781,-0.42969 0.46875,0.5586 0.40625,1.1875 0.10156,1.15234 -0.25781,0.41016 -0.46875,-0.5586 -0.40625,-1.1875"
     id="path93" />
  <path
     fill-rule="nonzero"
     fill="#FFFFFF"
     fill-opacity="1"
     d="m 638.55469,277.44708 c -2.97657,0.125 -6.4961,2.38282 -9.37891,4.46485 -1.91406,1.38281 -3.07422,2.60156 -3.51953,4.49218 -0.69141,2.92579 -0.34375,6.57813 1.24219,8.57422 1.5664,1.96875 3.69922,2.83594 6.22265,2.99219 3.32422,0.19922 10.25782,0.97656 12.31641,-0.94922 1.63281,-1.52344 2.49219,-6.37109 2.5,-8.44922 0.004,-2.10937 -0.65234,-5.20703 -2.375,-7.5039 -1.60156,-2.125 -4.51563,-3.72657 -7.00781,-3.6211 m -8.0586,12.34766 0.99219,-1.44531 -0.58984,1.17187 -0.40235,0.27344 m 1.58203,1.49219 -0.58984,-1.17578 0.99219,1.44531 -0.40235,-0.26953 m 6.41016,-8.20313 0.34766,0.35156 0.41015,0.76954 0.15235,0.64453 -0.17578,0.0703 -0.44141,-0.64063 -0.34766,-0.78515 0.0547,-0.41016 m 2.41406,2.91016 -0.58984,-1.17578 0.99219,1.44531 -0.40235,-0.26953 m -2.57422,4.69922 c -1.4414,-0.14063 -3.69531,-2.05078 -3.3125,-3.5586 0.77735,-1.5039 7.96094,1.60157 7.5,1.625 0.13282,0.91797 -2.28906,2.11719 -4.1875,1.9336"
     id="path94" />
  <path
     fill-rule="nonzero"
     fill="#FFFFFF"
     fill-opacity="1"
     d="m 669.59766,345.1424 c 0.84375,-0.20313 2.93359,-0.60547 3.9375,-1.83985 1.00781,-1.23828 0.36718,-2.66797 -0.4961,-4.27734 -8.47656,-11.19531 -16.95312,-22.38672 -25.42969,-33.58203 -3.1875,-3.26953 -6.4375,-8.88282 -9.20312,-7.73828 -2.56641,2.8125 -1.66406,7.88671 -1.62891,11.95703 0.14063,2.46484 1.66016,7.83593 1.82422,7.86718 1.05078,-0.19531 1.63672,-9.46875 3.44141,-8.09765 3.25,4.85547 6.5,9.71094 9.7539,14.5664 0.28907,1.59766 0.32422,4.57032 -0.57812,5.41797 -1.81641,0.5625 -3.63672,1.125 -5.45703,1.69141 -0.5625,0.6875 -0.65235,1.91406 -0.33203,2.875 1.97656,3.99609 11.20703,8.99219 14.59375,11.85547 0.3125,1.41797 0.64453,3.14062 1.76172,4.0664 1.10937,0.91407 3.47265,0.95313 4.96875,0.10547 0.94921,-1.62109 1.89843,-3.24609 2.84375,-4.86718 m -12.1836,-11.5625 -0.2539,-1.26954 -0.10547,-1.41796 0.0625,-1.24219 0.23828,-0.73438 0.55859,0.11719 0.60938,0.77344 0.42187,1.23047 0.22656,1.28906 0.27735,1.24609 0.30859,1.14063 0.13281,0.82812 -0.35546,0.32813 -0.71875,-0.36719 -0.8125,-0.82422 -0.58985,-1.09765 m 3.07813,4.49609 0.99218,-0.32031 -0.3164,0.99609 -0.67578,-0.67578 m 5.29297,-0.63672 0.99609,-1.44531 -0.58984,1.17187 -0.40625,0.27344"
     id="path95" />
  <path
     fill-rule="nonzero"
     fill="#FFFFFF"
     fill-opacity="1"
     d="m 604.76953,203.84161 c -1.53125,3.9961 -0.59766,9.28516 -0.70703,13.60938 0.29297,1.66797 1.53906,3.8125 3.66406,4.03125 1.61719,0.16797 2.76953,-0.97266 2.96094,-2.53516 -0.48047,-4.61718 0.0234,-10.8789 0.12109,-13.92578 0.0352,-1.16015 -0.47265,-2.32031 -1.91015,-2.66015 -1.42188,-0.33594 -3.22266,0.26953 -4.12891,1.48046"
     id="path96" />
  <path
     fill-rule="nonzero"
     fill="#FFFFFF"
     fill-opacity="1"
     d="m 636.88281,203.7088 c -3.90234,-0.90234 -7.80859,-1.80469 -11.71094,-2.71094 -3.95703,1.15625 -11.77343,-2.21093 -15.70312,0.375 -0.39453,1.12891 0.79297,2.51563 1.93359,3.19922 2.19141,1.3125 5.96875,2.16016 9.38672,2.71875 3.55469,0.57813 9.45703,1.8125 13.60547,1.21875 1.74609,-0.25 2.92969,-1.49218 3.17188,-2.97656 0.16406,-1.01562 -0.16016,-1.52734 -0.6836,-1.82422"
     id="path97" />
  <path
     fill-rule="nonzero"
     fill="#FFFFFF"
     fill-opacity="1"
     d="m 635.87891,215.41193 c -2.35547,0.43359 -4.70704,0.87109 -7.0625,1.30468 -5.19532,-0.88671 -10.39454,-1.77343 -15.58985,-2.66015 -1.625,-0.15235 -2.67578,0.18359 -3.00781,1.80078 -0.33203,1.59375 0.3125,2.85937 1.51953,3.30078 3.93359,1.42578 6.71875,3.16406 10.50781,3.28906 3.32032,0.10547 7.49219,0.66797 10.8125,-0.46093 2.23438,-0.76172 4.32422,-2.57813 4.55078,-4.6211 0.17579,-1.54687 -0.66796,-1.97265 -1.73046,-1.95312"
     id="path98" />
  <path
     fill-rule="nonzero"
     fill="#FFFFFF"
     fill-opacity="1"
     d="m 641.71094,212.81036 c -1.21875,-2.19921 -5.31641,-5.90625 -6.125,-5.46484 -0.60938,0.32813 -1.15625,1.27344 -1.33985,2.33984 -0.29687,1.73047 0.38282,3.34766 1.19141,4.96875 0.80078,1.59766 1.67578,3.13282 3.23437,3.92969 0.98438,0.50391 1.97266,0.57813 2.66407,0.14453 1.33203,-0.83593 1.24218,-4.35547 0.375,-5.91797"
     id="path99" />
  <path
     fill-rule="nonzero"
     fill="#FFFFFF"
     fill-opacity="1"
     d="m 653.30469,205.20099 c -0.94922,2.67969 -1.89063,7.8125 -1.75782,10.91406 0.0703,1.6211 0.46485,2.67578 2.07422,3.00781 1.59375,0.33204 2.85157,-0.30078 3.27344,-1.47656 0.95703,-2.6875 2.50781,-13.78515 2.10547,-13.97265 -1.44531,-0.35547 -5.34375,-0.66016 -5.69531,1.52734"
     id="path100" />
  <path
     fill-rule="nonzero"
     fill="#FFFFFF"
     fill-opacity="1"
     d="m 677.68359,202.06427 c -5.47265,-1.04297 -12.62109,-1.78906 -17.01172,-1.58594 -1.49218,0.0703 -2.76171,0.51172 -2.78515,2.03516 -0.0156,1.01953 0.4375,1.75781 1.3789,2.52734 1.60157,1.3086 4.26563,1.9336 6.15625,2.23438 3.94922,0.6289 8.44922,0.41406 12.40235,0.12109 1.58594,-0.11719 2.64844,-0.42187 2.84375,-1.70312 0.27734,-1.80469 -1.12891,-3.27344 -2.98438,-3.62891"
     id="path101" />
  <path
     fill-rule="nonzero"
     fill="#FFFFFF"
     fill-opacity="1"
     d="m 676.92969,218.56818 c -3.69141,-0.40235 -11.29688,-2.55469 -16.11719,-1.47657 -0.83203,0.3086 -1.14063,0.71485 -1.03125,1.82813 0.19922,2.11328 1.94922,3.62109 3.98437,3.45703 3.51563,0.24609 7.46875,0.33203 10.98047,0.0273 1.60547,-0.13671 2.66407,-0.64843 2.89453,-2.07031 0.14454,-0.91406 -0.15625,-1.45703 -0.71093,-1.76562"
     id="path102" />
  <path
     fill-rule="nonzero"
     fill="#FFFFFF"
     fill-opacity="1"
     d="m 676.91797,206.61896 c 0.6875,3.4414 0.59765,9.17578 3.38281,11.54297 1.07031,0.14062 2.51953,-1.1875 3.12109,-2.39453 0.75391,-1.51172 0.73047,-4.19532 0.48829,-5.98047 -0.85547,-2.4336 -2.5625,-4.75391 -5.04688,-5.96485 -1.4375,0.0312 -1.96484,1.33203 -1.94531,2.79688"
     id="path103" />
  <path
     fill-rule="nonzero"
     fill="#FFFFFF"
     fill-opacity="1"
     d="m 638.64062,212.5799 c -1.33203,0.41015 -2.01953,1.65625 -1.68359,3.23046 0.23828,1.11329 0.69922,1.51563 1.68359,1.82032 1.16016,0.35547 3.51954,0.32812 4.67969,0.0195 1.71875,-0.45313 2.26953,-2.33985 1.6836,-3.90235 -0.5,-1.33984 -3.91797,-1.91796 -6.36329,-1.16796"
     id="path104" />
  <path
     fill-rule="nonzero"
     fill="#FFFFFF"
     fill-opacity="1"
     d="m 646.39453,208.04083 c -3.21484,0.004 -7.63672,-0.89062 -10.70312,0.60157 -0.75391,0.6289 -1.17579,1.77734 -0.90235,2.71484 0.33594,1.14844 1.2461,1.65625 2.26953,1.96484 2.34766,0.71094 5.60157,0.47657 7.94141,0.28516 2.23437,-0.18359 3.16406,-1.11719 3.16406,-3.14844 0,-1.41015 -0.4414,-2.11719 -1.76953,-2.41797"
     id="path105" />
  <path
     fill-rule="nonzero"
     fill="#FFFFFF"
     fill-opacity="1"
     d="m 1001.75,152.65021 c -3.80859,-2.05469 -7.61719,-4.11328 -11.42969,-6.16797 -5.74219,-4.60156 -11.48828,-9.20313 -17.23047,-13.80078 -16.64062,-10.1836 -27.63281,-12.22656 -36.60937,-18.14844 -13.91797,-2.65625 -32.82031,-9.79687 -44.21094,-12.76953 -12.87891,-2.500001 -25.72266,-5.085941 -38.43359,-6.769531 -11.58985,2.1289 -23.17969,4.25781 -34.77344,6.386721 -11.39844,3.37109 -21.04688,7.03515 -32.8125,13.64453 -8.67188,4.875 -18.19922,11.33984 -25.85156,18.375 -5.0625,4.65234 -12.07813,12.54297 -16.75391,18.74219 -2.57812,3.41796 -7.16016,8.5 -7.61328,12.5664 -0.14063,1.25391 0.0937,2.38672 0.86719,3.09766 1.1289,1.03906 3.35547,1.03906 4.82031,0.1914 5.89453,-8.79296 12.14844,-16.67578 21.33984,-26.83984 9.34375,-8.80859 18.40625,-15.13672 26.12891,-19.83594 10.19922,-3.86718 22.65234,-10.6914 33.81641,-13.35547 9.92578,-2.95312 19.30468,-4.9414 30.8125,-6.08203 5.14062,0.0117 12.05078,0.8711 17.01562,1.8711 24.02344,5.78515 38.91797,11.41015 61.88281,17.47265 10.16016,3.90235 19.01563,7.66016 27.14844,11.79297 3.4375,1.75 8.10156,4.44531 12.13672,7.125 3.08594,3.09375 6.17187,6.1875 9.25781,9.28125 3.73438,1.48828 7.47266,2.97656 11.21094,4.46485 4.0625,2.79296 10.32425,7.33593 15.30855,10.1914 0.8946,0.51172 1.6993,0.79688 2.4766,0.10938 0.582,-0.51563 0.8555,-1.79297 0.6445,-2.75 -0.6211,-2.8125 -6.5976,-6.82032 -9.1484,-8.79297"
     id="path106" />
  <path
     fill-rule="nonzero"
     fill="#FFFFFF"
     fill-opacity="1"
     d="m 733.45312,147.36115 c -3.09765,3.3789 -8.35546,17.375 -10.55468,22.58593 -1.01953,2.00782 -0.57813,6.79297 1.65625,8.0586 2.1875,1.15625 7.60937,-0.98438 10.41406,-1.83985 5.01172,-2.03906 11.625,-2.71093 15.375,-6.29687 1.15625,-1.70703 0.90625,-4.54688 0.74219,-6.19531 -0.19922,-1.98829 -0.67969,-5.21094 -2.32422,-7.96485 -1.98047,-3.30859 -8.03125,-9.01953 -10.50781,-9.75781 -1.67579,-0.5 -3.71875,0.22656 -4.80079,1.41016 m 8.75391,11.39843 c 1.45313,1.6211 2.01172,5.61719 1.66406,6.58594 -0.95703,2.63672 -9.99609,4.60547 -13.46484,6.17578 -0.0352,-1.97656 3.9375,-14.45703 5.91016,-16.67969 0.5039,-0.0156 4.97656,2.89454 5.89062,3.91797"
     id="path107" />
  <path
     fill-rule="nonzero"
     fill="#FFFFFF"
     fill-opacity="1"
     d="m 911.10547,67.458799 c -0.44531,-1.30078 -1.85938,-2.59375 -3.73047,-2.66015 -4.91406,-0.17579 -11.82031,4.27343 -16.19922,4.5 -16.78516,-1.44141 -34.62109,4.26562 -50.54687,0.40234 -2.9375,-1.95313 -1.13282,-7.91406 -1.57032,-11.94531 1.11328,-8.02735 2.22657,-16.05078 3.33594,-24.07813 -0.25,-3.17578 -1.47266,-9.83203 -3.41797,-12.41015 -0.92578,-1.23047 -2.65234,-1.22657 -3.71875,0.26953 0.20703,7.37109 0.41406,14.74218 0.6211,22.11718 -1.08204,2.34375 -2.16797,4.6875 -3.25,7.03125 -1.24219,5.01172 -0.44532,12.30079 -0.25391,17.625 -0.15234,2.73829 1.3125,6.65625 4.02344,8.37891 19.39843,3.0625 39.58593,-1.61328 59.29297,-1.04687 3.21093,-0.19532 12.96875,-2.17579 14.85546,-4.2461 0.76954,-0.84375 0.9961,-2.65234 0.5586,-3.9375"
     id="path108" />
  <path
     fill-rule="nonzero"
     fill="#FFFFFF"
     fill-opacity="1"
     d="m 916.49219,50.822079 c -2.2461,-10.78906 -3.30078,-21.66797 -3.59766,-34.70703 -0.32812,-1.22265 -0.80859,-2.14062 -1.96875,-2.91406 -18.94531,-2.08594 -38.10937,-0.84375 -57.14453,-0.89453 -3.625,0.33203 -9.09766,0.79687 -11.83203,2.87109 -0.94141,1.31641 -0.21875,2.9375 1.33203,3.34766 5.80078,-0.42188 11.59766,-0.83985 17.39844,-1.26172 14.62109,3.30078 30.09375,0.47266 44.17187,2.32812 2.80469,16.57813 4.83594,31.41407 5.44922,49.02735 0.37891,0.94922 0.90625,1.40234 2.19531,1.30078 1.07032,-0.0859 2.33203,-0.71094 3.06641,-1.625 1.95703,-5.14063 0.65234,-11.9375 0.92969,-17.47266"
     id="path109" />
  <path
     fill-rule="nonzero"
     fill="#FFFFFF"
     fill-opacity="1"
     d="m 893.21875,32.044739 c -13.62891,1.48828 -29.65625,2.67187 -42.06641,4.96094 0.0625,0.91797 14.91407,2.78515 18.10938,2.49609 6.79297,-0.62109 16.87109,-0.20703 22.80469,-1.97266 1.46484,-0.4375 1.98437,-1.55078 1.98046,-3.1914 -0.004,-0.95313 -0.27734,-1.89844 -0.82812,-2.29297"
     id="path110" />
  <path
     fill-rule="nonzero"
     fill="#FFFFFF"
     fill-opacity="1"
     d="m 877.89062,102.8924 1.30079,-0.64063 0.33984,-0.95703 -0.60156,-0.64063 -1.32422,-0.32031 -1.50781,0.32031 -1.04297,0.64063 0.0273,0.95703 1.17188,0.64063 h 1.63671"
     id="path111" />
  <path
     fill-rule="nonzero"
     fill="#FFFFFF"
     fill-opacity="1"
     d="m 922.48047,68.380679 c -0.10938,-0.42969 -1.78906,-0.0625 -3.40235,1.53125 -1.55078,1.53515 -2.33203,3.80859 -1.36718,4.03515 1.42187,0.32813 4.87109,-5.15625 4.76953,-5.5664"
     id="path112" />
  <path
     fill-rule="nonzero"
     fill="#FFFFFF"
     fill-opacity="1"
     d="m 933.32031,44.017399 c 0.5,-1.72266 -0.14844,-3.51172 -1.0664,-3.51172 -1.23829,0 -2.01172,3.59375 -0.53125,4.67968 0.72656,0.53125 1.29687,-0.14062 1.59765,-1.16796"
     id="path113" />
  <path
     fill-rule="nonzero"
     fill="#FFFFFF"
     fill-opacity="1"
     d="m 882.62109,8.4822388 c 3.31641,0.35156 17.37891,3.2460902 18.84375,1.6796902 1.1875,-1.2656302 -8.16406,-3.5625002 -13.19531,-4.4687502 -2.53125,-0.45313 -7.14453,-0.97266 -8.16406,0.72656 -0.73047,1.21094 0.82031,1.88281 2.51562,2.0625"
     id="path114" />
  <path
     fill-rule="nonzero"
     fill="#FFFFFF"
     fill-opacity="1"
     d="m 881.36328,52.575989 c -1.72656,1.16797 -3.45312,2.33594 -5.17969,3.50391 -1.73437,-0.66407 -3.46875,-1.32813 -5.20312,-1.99219 -1.60938,0.28906 -2.28125,2.04297 -1.5625,3.39062 2.22656,2.20703 6.02734,3.4336 10.4375,2.16797 1.88672,-0.71094 3.9414,-2.08984 4.84765,-3.67969 0.58594,-1.02343 0.65625,-2.19921 0.27735,-2.91015 -0.59766,-1.13672 -2.17969,-1.13281 -3.61719,-0.48047"
     id="path115" />
  <path
     fill-rule="nonzero"
     fill="#FFFFFF"
     fill-opacity="1"
     d="m 822.85156,89.263489 c -2.16797,0.45312 -4.05469,1.94922 -3.33203,2.71094 1.37891,0.60547 7.03125,-1.49219 9.42188,-2.59766 0.71093,-1.05078 -3.97657,-0.8125 -6.08985,-0.11328"
     id="path116" />
  <path
     fill-rule="nonzero"
     fill="#FFFFFF"
     fill-opacity="1"
     d="m 1035.3086,271.7088 c -1.4414,1.83203 -3.1094,3.8711 -4.3203,5.82813 -0.9492,2.36328 -1.8985,4.73047 -2.8438,7.09765 -2.5156,2.08203 -5.0625,4.37891 -6.207,6.42969 -4.1211,8.85156 -8.2422,17.70313 -12.3672,26.55469 -1.4219,2.08203 -2.8476,4.16406 -4.2734,6.24219 -1.1407,7.0625 -3.4258,20.03906 -3.0196,24.69921 0.3555,1.20313 1.2188,1.48438 2.0313,1.11329 0.8867,-0.91016 1.7695,-1.81641 2.6562,-2.72266 0.1446,1.80078 0.293,3.60547 0.4375,5.41016 0.375,1.93359 0.6836,2.30859 1.5899,2.64062 0.6015,0.21875 2.6367,-25.71875 4.2617,-33.01172 0.5273,-2.36719 2.5195,-6.59375 3.793,-8.10156 1.6093,-1.89844 6.3437,-4.05859 8.3554,-4.91016 0.629,-0.26562 0.7735,-0.2539 0.793,0.5625 -1.5937,10.83594 -3.1836,21.67188 -4.7773,32.50782 -0.1797,2.39453 -0.1993,4.53125 0.4687,5.78515 l 1.2266,0.8711 c 1.043,0.21484 1.8008,-0.6211 2.3828,-1.46875 2.5742,-6.59766 5.1484,-13.19532 7.7227,-19.79688 1.4882,-3.14453 4.4296,-5.51172 5.7539,-8.58203 1.1406,-3.68359 2.0429,-9.30859 1.9726,-15.39453 -0.1367,-2.49219 -0.4883,-4.07813 -1.3281,-5.44922 -1.5938,-1.42188 -2.6875,-1.84375 -3.3867,-4.05469 -0.3946,-1.25 -0.461,-3.10937 -0.3477,-4.71094 1.1914,-8.16796 3.4063,-7.4375 4.7656,-14.34765 0.086,-1.32813 -0.1718,-3.23828 -1.0312,-4.11328 l -1.668,-0.69532 c -1.0781,-0.082 -1.9648,0.76172 -2.6406,1.61719 m -27.375,72.66406 -0.1406,-0.19531 0.098,-0.3789 0.1758,-0.26954 0.1406,0.19532 -0.098,0.3789 -0.1758,0.26953 m 1.5937,-4.92187 -0.5273,0.52734 -0.5273,-0.52734 0.5273,-0.52734 0.5273,0.52734 m 1,-5 -0.5273,0.52734 -0.5273,-0.52734 0.5273,-0.52734 0.5273,0.52734 m 17,-29 -0.5273,0.52734 -0.5273,-0.52734 0.5273,-0.52734 0.5273,0.52734"
     id="path118" />
  <path
     fill-rule="nonzero"
     fill="#FFFFFF"
     fill-opacity="1"
     d="m 1056.7891,360.02911 c -0.3711,-3.27343 -1.6758,-5.85937 -2.6016,-8.30078 -1.3086,-3.45312 -7.6914,-12.24218 -8.0391,-12.73047 -1.7382,-4.70312 -4.1367,-13.25 -8.8398,-21.55468 0.4297,-0.3086 -2.1094,-0.17969 -1.9688,1.30078 -1.5078,6.30078 -2.0781,17.38281 -3.8007,17.0664 -0.6563,0.85547 -1.6211,2 -2.7735,2.16407 -1.582,0.004 -4.8984,-1.17188 -6.1133,0.22265 -1.3554,1.70313 -2.707,3.41016 -4.0625,5.11328 -0.6445,0.21485 -1.3398,-0.0625 -1.8398,-0.6289 -1.582,-2.76953 -3.1641,-5.53906 -4.75,-8.3086 0.3047,-3.82812 0.6094,-7.65234 0.9141,-11.48046 0.039,-2.21094 -0.1446,-3.09375 -0.7774,-4.0625 -0.5508,-0.84375 -1.3359,-1.17188 -2.1289,-1.1875 -0.75,-0.0156 -1.6211,0.27343 -2.3633,1.11718 -0.8008,0.91016 -1.3437,2.13282 -1.4101,3.48438 0.6172,1.9414 1.2343,3.88672 1.8515,5.82812 -1.457,8.625 -4.039,17.22657 -5.7304,32.875 -0.3321,5.34766 0.1757,11.58985 1.1015,13.03907 l 1.1328,0.53515 c 1.0313,-1.28906 2.0664,-2.57812 3.0977,-3.86328 0.3281,-1.02344 1.3359,2.62109 3.5117,1.69141 0.9336,-1.1836 1.8633,-2.3711 2.7969,-3.5586 3.0312,1.04297 4.7422,-0.23828 8.4453,0.32422 3.6641,-0.95703 6.5039,-3.16797 7.4883,-3.29297 0.5976,0.21094 1.6992,0.89063 3.418,0.35938 0.8906,-0.61719 1.7812,-1.23438 2.6718,-1.84766 0.4844,0.58985 1.5508,3.14063 3.1875,2.47656 0.9766,-0.89453 2.1524,-2.5625 2.5899,-1.85156 0.3594,0.94531 1.2383,3.09766 2.6094,3.84766 1.9296,1.17187 4.1054,-1.25 4.4335,-1.69531 0.2852,0.55078 1.1797,1.46093 3.1172,1.94921 1.0743,0.27344 2.5469,0.27735 3.4336,-0.76171 1.3477,-1.61719 1.7461,-5.62891 1.3985,-8.26954 m -47.2618,-34.57812 -0.5273,0.52734 -0.5273,-0.52734 0.5273,-0.52734 0.5273,0.52734 m 9,34 -0.5273,0.52734 -0.5273,-0.52734 0.5273,-0.52734 0.5273,0.52734 m 1,-4 -0.5273,0.52734 -0.5273,-0.52734 0.5273,-0.52734 0.5273,0.52734 m 5.3086,-10.12109 -0.4687,1.05859 -0.5274,1.10937 -0.4921,0.98047 -0.4063,0.16797 -0.031,-1.13672 0.4414,-2.02343 0.875,-1.60547 0.6562,-0.32813 0.2422,0.71094 -0.2891,1.06641 m 24.9102,7.15625 -0.418,0.46484 -0.3437,-0.35156 -0.043,-0.82813 0.2539,-0.73828 0.4063,-0.0117 0.2226,0.63672 -0.078,0.82813 m 2.1719,7.61328 -0.1211,-0.21485 0.1172,-0.61328 0.1679,-0.46875 0.1211,0.21485 -0.1172,0.61328 -0.1679,0.46875"
     id="path119" />
  <path
     fill-rule="nonzero"
     fill="#FFFFFF"
     fill-opacity="1"
     d="m 1045.582,273.47833 c 0.3555,-0.53906 0.4532,-1.35547 0.043,-1.57812 -0.582,-0.31641 -1.6289,0.98437 -1.2422,1.83594 0.2383,0.52343 0.8555,0.2539 1.1992,-0.25782"
     id="path120" />
  <path
     fill-rule="nonzero"
     fill="#FFFFFF"
     fill-opacity="1"
     d="m 1049.2969,264.32599 c -3.0313,5.45312 -4.8633,6.08203 -5.0586,9.64453 -0.01,0.82813 0.2344,1.1875 0.8789,0.99219 0.6719,-0.60547 1.3437,-1.20703 2.0156,-1.8125 0.7031,1.88281 1.4063,3.76953 2.1094,5.65234 0.7031,1.04688 1.5703,1.4336 2.3555,1.40235 1.0156,-0.0391 2.3203,-1.07032 3.2343,-2.07032 1.3711,-1.48828 4.25,-4.47265 4.6875,-6.89843 l -0.016,-2.3711 c -0.3086,-1.54297 -1.3398,-3.16015 -2.3516,-4.04687 -1.2421,-1.09766 -3.6289,-1.91407 -5.0117,-1.96094 -1.0742,-0.0352 -2.0195,0.375 -2.8437,1.46875"
     id="path121" />
  <path
     fill-rule="nonzero"
     fill="#FFFFFF"
     fill-opacity="1"
     d="m 1091.918,259.43927 c -1.8672,2.08203 -3.7344,4.16406 -5.6016,6.24609 -2.6289,1.45313 -5.2578,2.91016 -7.8906,4.36329 -0.9805,0.71484 -2.793,2.5039 -3.3164,3.58984 -0.6406,1.33594 -0.4102,2.31641 0.7109,3.38672 4.5742,4.37109 6.5352,5.4375 9.9727,7.60937 -0.6563,0.2461 3.0312,0.32032 2.9179,-1.0039 1.5625,-1.94922 2.5977,-4.57813 3.2657,-6.08985 2.3203,-6.92187 3.9492,-11.11718 6.6992,-17.41797 0.039,-1.38281 -0.418,-1.99609 -1.6445,-2.28906 -1.754,-0.41797 -3.8555,0.57813 -5.1133,1.60547"
     id="path122" />
  <path
     fill-rule="nonzero"
     fill="#FFFFFF"
     fill-opacity="1"
     d="m 1100.6328,292.99786 c -1.0898,1.46485 -1.2969,2.33204 -1.1719,3.19141 0.098,0.66797 0.6446,1.29297 0.8477,1.40234 -0.957,0.85157 -1.9141,1.69922 -2.875,2.55079 -0.9375,1.86328 -1.875,3.72265 -2.8125,5.58593 -1.0625,-0.24218 -2.125,-0.48437 -3.1875,-0.72656 -1.5586,1.30078 -2.0313,4.89453 -4.6602,5.72266 0.4063,0.1914 -2.2304,0.30468 -1.8007,-0.76563 0.1093,-1.6875 0.1093,-7.26562 -0.6836,-9.70312 l -0.9219,-0.9375 c -2.8867,8.71875 -4.1094,18.16797 -5.9141,23.83203 -0.625,4.29297 -1.1172,7.55078 -1.3476,11.58984 0.2226,1.94141 0.4414,3.88281 0.664,5.82422 -0.3437,2.44922 -2.082,8.77344 -1.6328,12.67578 0.1602,1.40625 0.543,2.11328 1.3594,2.66016 1.1055,0.73828 2.9375,0.57031 3.9531,-0.0352 1.1524,-1.79687 2.3086,-3.59765 3.4649,-5.39453 0.5312,0.37891 1.6953,1.88281 3.2851,1.50781 1.7696,-0.34375 2.6953,-3.78125 2.8516,-4.73437 0.7422,0.66406 1.4844,1.32422 2.2305,1.98828 0.9218,0.25781 3.4453,-0.67578 4.539,-1.80469 1.0625,-2.90234 2.125,-5.80469 3.1875,-8.70312 -0.207,0.97265 4.2305,9.01562 4.9141,9.78125 0.5586,0.6289 1.4883,1.53906 2.3359,1.60547 0.8789,0.0664 1.836,-0.44532 2.5195,-1.96485 1.7032,-6.72265 3.1133,-16.94922 3.1055,-28.88281 -0.2383,-5.09766 -0.1562,-9.79688 -1.4844,-14.94922 -0.4336,-1.68359 -1.25,-3.10937 -1.8711,-3.57422 -0.9062,-0.6875 -1.4804,-0.30078 -2.2773,0.38672 -2.0312,1.77734 -4.7656,4.59375 -5.3867,4.6875 -0.2891,0.043 -0.6016,-0.46484 -0.7656,-1.16797 -0.1289,-4.32031 3.3046,-6.77344 4.5117,-11.6289 0.1679,-0.89844 0.1953,-2.22266 -0.4141,-2.67579 -0.9531,-0.8789 -3.0625,0.66407 -4.5625,2.65625 m -15.6992,54.375 -0.1406,-0.19531 0.098,-0.3789 0.1758,-0.26954 0.1406,0.19532 -0.098,0.3789 -0.1758,0.26953 m 1.5937,-6.92183 -0.5273,0.52734 -0.5273,-0.52734 0.5273,-0.52734 0.5273,0.52734 m 4.3907,3.64844 -0.1211,-0.21485 0.1172,-0.61328 0.1679,-0.46875 0.1211,0.21485 -0.1172,0.61328 -0.1679,0.46875 m 5,-14 -0.1211,-0.21485 0.1172,-0.61328 0.1679,-0.46875 0.1211,0.21485 -0.1172,0.61328 -0.1679,0.46875 m 0.9804,-6.54297 -0.1015,-0.25 0.1367,-1.08203 0.168,-0.87891 0.1015,0.25 -0.1367,1.08203 -0.168,0.87891 m 1.1016,-6.08203 -0.25,-0.67188 v -1.70312 l 0.25,-0.67188 0.25,0.67188 v 1.70312 l -0.25,0.67188 m 0.8984,-5.91797 -0.1015,-0.25 0.1367,-1.08203 0.168,-0.87891 0.1015,0.25 -0.1367,1.08203 -0.168,0.87891 m 2,23 -0.1015,-0.25 0.1367,-1.08203 0.168,-0.87891 0.1015,0.25 -0.1367,1.08203 -0.168,0.87891"
     id="path123" />
  <path
     fill-rule="nonzero"
     fill="#FFFFFF"
     fill-opacity="1"
     d="m 1109.3477,280.06427 c 0,0.32422 0.2851,5.30469 -0.027,5.07422 0.3789,0.42969 2.461,-1.02344 2.4688,-3.49609 -0.035,-1.53125 -0.5899,-2.12891 -1.3399,-2.38282 -0.8633,-0.29297 -1.1094,0.28516 -1.1015,0.80469"
     id="path124" />
  <path
     fill-rule="nonzero"
     fill="#FFFFFF"
     fill-opacity="1"
     d="m 1144.0586,374.47052 c 0.6953,-2.16797 1.1719,-7.94922 0.4922,-12.16016 -0.8516,-5.90234 -3.582,-5.86718 -4.3594,-8.92578 -1.2305,-6.98828 -2.4648,-13.97656 -3.6953,-20.96484 -1.0625,-1.12891 -2.125,-2.26172 -3.1836,-3.39453 -0.2773,-0.82813 -0.793,-6.23047 -0.332,-8.2461 0.8125,-0.89062 1.625,-1.78515 2.4375,-2.67578 0.8711,-2.60156 -0.3985,-13.42187 -1.2969,-16.64062 -1.1445,-3.35938 -3.3164,-2.50781 -4.4375,-4.83985 -0.7031,-1.92578 -0.9102,-4.15234 -2.4766,-5.37109 -1.8007,-1.40234 -5.082,-1.68359 -6.1054,-3.27734 -0.9024,-1.40625 -2.5703,-5.47266 -2.2383,-7.92578 0.8789,-1.29297 1.7578,-2.58985 2.6367,-3.88672 0.4375,-1.75391 0.457,-4.28907 -0.5117,-6.35547 -0.6563,-1.40235 -1.8477,-2.77735 -3.1016,-3.71875 -2.3008,-0.94531 -3.6953,-1.60547 -4.1601,-2.36719 0.035,-0.99609 0.7031,-4.17969 -1.0547,-3.57812 -5.9531,6.6914 -7.7461,7.10937 -14.1094,15.89453 -0.4766,1.23828 -0.4844,2.25 -0.1133,2.67187 0.9727,0.0742 1.9453,0.14453 2.9219,0.21875 0.543,0.33203 0.7812,1.25 0.7305,2.09766 -3.293,7.73047 -7.1953,13.26172 -9.8477,23.6914 -0.2656,1.20313 -0.3242,1.79688 -0.031,2.57422 0.7421,0.76172 1.4062,1.53907 1.6718,2.6211 0.293,1.20703 0.2539,4.15625 0.1133,6.41406 -0.1875,3.06641 -1.6406,12.83594 -2.2187,15.16016 -2.0157,4.41015 -9.6016,11.27343 -14.4883,19.46093 -1.1211,2.80469 -2.3047,6.58203 -2.8867,12.90625 -0.1953,2.08985 -0.2227,3.90625 0.3515,5.10938 3.8282,1.47656 3.3242,4.41797 7.7422,5.34375 1.2891,0.0234 2.832,-0.3086 3.8164,-0.76172 1.0703,-1.04297 2.1406,-2.08984 3.2149,-3.13672 2.5976,-0.86719 9.082,0.39844 12.8906,0.53125 1.9883,-1.12109 2.7266,7.24609 6.4258,8.05078 l 1.8789,-0.16015 c 1.8359,-1.40235 3.6719,-2.80469 5.5078,-4.20704 3.625,-1.08593 14.7187,-1.47656 16.0781,-1.05468 1.6524,1.27734 3.3047,2.55078 4.957,3.82812 1.3477,0.8086 2.5977,1.12891 3.7579,0.64453 0.9882,-0.41406 2.289,-1.27734 3.0234,-3.57031 m -62.1602,-8.91406 -0.1015,-0.25 0.1367,-1.08203 0.168,-0.87891 0.1015,0.25 -0.1367,1.08203 -0.168,0.87891 m 2.0196,-17.45703 -0.1211,-0.21485 0.1172,-0.61328 0.1679,-0.46875 0.1211,0.21485 -0.1172,0.61328 -0.1679,0.46875 m 7.0156,-7.72657 -0.1406,-0.19531 0.098,-0.3789 0.1758,-0.26954 0.1406,0.19532 -0.098,0.3789 -0.1758,0.26953 m 3.5935,-14.92187 -0.5273,0.52734 -0.5273,-0.52734 0.5273,-0.52734 0.5273,0.52734 m 1,-17 -0.5273,0.52734 -0.5273,-0.52734 0.5273,-0.52734 0.5273,0.52734 m 1,49 -0.5273,0.52734 -0.5273,-0.52734 0.5273,-0.52734 0.5273,0.52734 m 0.3711,-4.89453 -0.1015,-0.25 0.1367,-1.08203 0.168,-0.87891 0.1015,0.25 -0.1367,1.08203 -0.168,0.87891 m 3.6289,-58.10547 -0.5273,0.52734 -0.5273,-0.52734 0.5273,-0.52734 0.5273,0.52734 m 8,-9 -0.5273,0.52734 -0.5273,-0.52734 0.5273,-0.52734 0.5273,0.52734 m 3,8 -0.5273,0.52734 -0.5273,-0.52734 0.5273,-0.52734 0.5273,0.52734 m -0.6093,-25.35156 -0.1211,-0.21485 0.1172,-0.61328 0.1679,-0.46875 0.1211,0.21485 -0.1172,0.61328 -0.1679,0.46875 m 1.6093,-2.64844 -0.5273,0.52734 -0.5273,-0.52734 0.5273,-0.52734 0.5273,0.52734 m 1.3907,5.64844 -0.1211,-0.21485 0.1172,-0.61328 0.1679,-0.46875 0.1211,0.21485 -0.1172,0.61328 -0.1679,0.46875 m -5.0078,12.14453 c 0.023,-0.9336 0.7382,-2.48438 1.7539,-3.91016 1.0781,-1.51562 4.2695,-4.48047 4.8437,-4.34765 0.7969,0.043 0.9063,2.98828 0.078,9.02734 -0.5117,2.88281 -1.6992,6.16016 -2.3828,7.07031 l -0.9843,0.19531 c -1.1055,-2.67968 -2.2071,-5.35546 -3.3086,-8.03515 m 9.9961,18.58594 -0.1094,-0.23829 0.1289,-0.84375 0.168,-0.67578 0.1093,0.23828 -0.1289,0.84375 -0.1679,0.67579 m 1.0937,44.19921 -0.25,-0.89453 v -2.36718 l 0.25,-0.89454 0.25,0.89454 v 2.36718 l -0.25,0.89453 m -24.0664,-6.39843 c -2.2148,-1.66407 -4.0898,-1.78516 -3.6211,-3.73047 1.4805,-3.27735 2.9609,-6.55469 4.4453,-9.83203 0.082,-2.41797 -2.707,-2.9375 -1.539,-5.57422 0.7695,-3.31641 2.3125,-8.8711 3.4375,-11.71485 0.5546,-1.40625 9.6875,-19.94921 10.207,-19.58593 0.4492,0.3164 0.3515,2.05078 -0.047,3.51172 -1.8359,4.625 -3.6719,9.2539 -5.5078,13.8789 0.1836,0.90235 1.3281,0.82422 2.418,-0.22265 2.6172,-4.03125 5.2343,-8.0625 7.8554,-12.09375 1.2149,-1.66407 2.3516,-2.83594 2.5196,-1.69532 -0.2774,6.98047 -4.0508,8.99219 -4.9063,14.26172 -0.1055,1.33985 0.9102,1.41797 1.707,0.75391 1.4219,-0.72266 1.9063,-5.91797 3.1211,-4.82031 0.6602,1.03515 0.8399,13.71093 2.6914,15.83984 l 1.4454,0.68359 c 0.707,-1.21093 0.8789,-1.61718 1.8671,-1.11328 0.5,5.81641 4.379,11.45703 4.0508,17.69922 -0.1875,1.19531 -0.6797,1.62891 -1.4218,1.66797 -0.6797,0.0352 -1.8868,-0.4375 -2.6055,-1.09375 -2.293,-1.83594 -2.2578,-7.48828 -3.625,-8.86719 -0.8672,-1.0664 -1.7656,-2.85547 -3.1367,-2.13281 -1.1289,0.59766 -2.4063,3.15625 -2.7227,4.17187 -1.4805,-0.0664 -2.9609,-0.13281 -4.4414,-0.19921 -1.3555,0.7539 -3.9141,2.9375 -4.6328,3.75781 -0.418,0.48437 -6.1328,11.98437 -5.5117,12.9375 -0.016,-0.46485 -1.1446,-5.10156 -2.0469,-6.48828 M 1128,326.02911 l -0.25,-0.89453 v -2.36718 l 0.25,-0.89454 0.25,0.89454 v 2.36718 l -0.25,0.89453"
     id="path125" />
  <path
     fill-rule="nonzero"
     fill="#FFFFFF"
     fill-opacity="1"
     d="m 1116.1367,331.59552 c -4.164,5.77734 -6.0429,11.37891 -7.2969,14.76953 -0.6875,1.35938 -2.2343,5.3086 -1.5078,7.17969 0.3516,0.66797 0.8321,0.12109 1.2344,-0.60547 2.2149,-6.78516 3.0352,-9.21484 7.3555,-16.86719 0.8437,-1.49218 1.7734,-3.08203 2.5781,-3.82812 0.5586,-0.51563 1.1602,-0.76563 1.6836,-0.23828 0.5977,0.60547 0.8594,1.59375 0.7031,3.05078 -2.2031,7.27344 -4.039,11.20703 -5.4961,19.07422 -0.207,1.60156 -0.3203,3.71875 0.031,4.74609 -0.3985,-0.008 1.5547,1.37109 1.7304,0.12109 3.6446,-7.85546 4.6563,-15.67968 7.6485,-26.83593 0.914,-2.22266 2.7461,-4.61719 3.6094,-4.01953 0.4843,0.92968 0.75,3.55468 0.8007,7.72265 -0.2812,9.66016 -0.5664,19.32422 -0.8515,28.98438 0.3633,1.74609 1.2578,2.38672 2.0781,2.26953 1.0781,-0.15235 1.4883,-1.02344 2.043,-2.69141 1.2187,-4.75781 2.6015,-5.72656 2.5,-12.18359 -0.2266,-7.96875 -1.9414,-15.54297 -2.8203,-19.69531 -0.4688,-2.22266 -0.9454,-4.01172 -1.5938,-5.19141 -0.4726,-0.85547 -1.0273,-1.52344 -2.0039,-1.61719 -1.6484,-0.15234 -10.8203,4.1875 -12.4258,5.85547"
     id="path126" />
  <rect
     style="fill:none;stroke-width:13.474"
     id="rect126"
     width="1866.9193"
     height="496.60272"
     x="4.5730205"
     y="0" />
  <rect
     style="fill:none;stroke-width:13.474"
     id="rect127"
     width="32.675701"
     height="130.7028"
     x="1838.8167"
     y="365.8999" />
  <rect
     style="fill:none;stroke-width:13.474"
     id="rect128"
     width="1871.4923"
     height="385.39664"
     x="0"
     y="0" />
</svg>
