<?xml version="1.0" encoding="UTF-8" standalone="no"?>
<svg
   viewBox="0 0 1873.54 385.83594"
   width="1873.54"
   height="385.83594"
   version="1.1"
   id="svg39003"
   sodipodi:docname="slides.svg"
   inkscape:version="1.3.2 (091e20ef0f, 2023-11-25)"
   xmlns:inkscape="http://www.inkscape.org/namespaces/inkscape"
   xmlns:sodipodi="http://sodipodi.sourceforge.net/DTD/sodipodi-0.dtd"
   xmlns="http://www.w3.org/2000/svg"
   xmlns:svg="http://www.w3.org/2000/svg">
  <defs
     id="defs39003" />
  <sodipodi:namedview
     id="namedview39003"
     pagecolor="#ffffff"
     bordercolor="#666666"
     borderopacity="1.0"
     inkscape:showpageshadow="2"
     inkscape:pageopacity="0.0"
     inkscape:pagecheckerboard="0"
     inkscape:deskcolor="#d1d1d1"
     inkscape:zoom="0.28988424"
     inkscape:cx="903.80904"
     inkscape:cy="64180.791"
     inkscape:window-width="1680"
     inkscape:window-height="1050"
     inkscape:window-x="1920"
     inkscape:window-y="0"
     inkscape:window-maximized="1"
     inkscape:current-layer="svg39003" />
  <path
     fill-rule="nonzero"
     fill="#000000"
     fill-opacity="1"
     d="m 382.17155,145.37925 c -2.23828,-0.02 -5.4414,0.976 -7.97265,1.691 -5.35157,1.508 -10.42188,4.426 -15.8125,7.602 -4.77344,2.812 -10.1836,7.058 -14.6211,11.492 -3.71875,3.719 -7.01172,7.898 -9.72265,11.937 -2.10547,3.141 -3.39454,5.356 -4.3125,8.055 -1.89063,5.562 -3.88672,12.652 -4.48829,19.867 0.17969,12.977 -0.84375,27.434 0.72266,39.457 0.76172,0.68 2.41797,0.774 3.92188,0.03 1.5664,-0.774 2.49609,-2.208 2.83203,-3.583 0.0586,-11.757 0.12109,-23.511 0.17968,-35.269 0.65235,-3.344 1.84766,-10.016 3.11329,-14.875 0.83984,-3.211 2.51562,-7.492 4.01953,-10.281 1.82031,-3.379 8.3789,-10.664 11.66015,-14.321 2.1836,-2.429 6.96485,-6.543 8.90625,-7.527 4.86719,-2.473 9.14453,-5.047 16.73047,-7.773 4.3086,-1.551 9.1836,-1.157 12.07422,-0.95 1.57813,-0.05 1.64844,-4.199 0.5,-4.41 -1.125,-0.582 -6.16016,-1.125 -7.73047,-1.14"
     id="path24536" />
  <path
     fill-rule="nonzero"
     fill="#000000"
     fill-opacity="1"
     d="m 411.69108,246.53925 c -22.66015,-1.219 -47.0039,-2.336 -71.36328,-2.887 -4.0664,-0.887 -8.13672,-1.769 -12.20312,-2.656 -1.44922,0.08 -2.46875,0.543 -2.41407,2.004 0.0508,1.433 1.11329,2.57 2.3125,3.14 4.62891,2.2 9.53125,3.453 14.73438,3.911 22.41016,-0.02 44.3125,3.816 67.48437,4.046 1.36719,-0.08 2.82422,-0.406 4.06641,-1.664 0.82813,-0.836 1.17969,-1.597 1.11719,-2.441 -0.11719,-1.617 -2.07031,-3.082 -3.73438,-3.453"
     id="path24537" />
  <path
     fill-rule="nonzero"
     fill="#000000"
     fill-opacity="1"
     d="m 432.74577,240.08625 c -2.59766,-12.793 -4.125,-27.168 -7.625,-40.754 -2.27344,-6.969 -5.07422,-14.391 -8.26562,-21.324 -1.8711,-4.067 -3.44532,-7.504 -6.26954,-11.774 -2.09765,-3.172 -4.89843,-6.609 -8.1289,-9.047 -3.10156,-2.34 -7.8086,-4.594 -11.98828,-6.469 -1.90235,-0.851 -3.8086,-0.578 -5.73047,0.469 -1.42188,0.77 -2.91797,1.977 -3.6211,3.344 -0.71484,1.402 -0.70312,3.062 0.22266,3.859 3.14063,2.137 3.57422,-4.496 6.24219,-2.648 3.52734,1.473 8.51172,4.684 10.4414,6.851 8.9336,11.602 12.33985,23.274 18.83985,34.93 2.10937,3.68 3.46094,11.61 4.26562,16.567 0.16797,3.961 0.33594,7.925 0.50391,11.886 1.19141,3.516 2.38281,7.032 3.57812,10.543 0.54297,4.414 -1.55078,9.344 -0.86718,12.059 0.10937,1.66 3.71093,1.82 5.51562,0.851 2.5586,-2.566 2.59766,-6.82 2.88672,-9.343"
     id="path24538" />
  <path
     fill-rule="nonzero"
     fill="#000000"
     fill-opacity="1"
     d="m 404.76921,101.65225 c -2.4375,-2.976 -6.59766,-5.945 -9.16406,-7.785 -1.4961,-1.074 -3.47266,-1.473 -5.25391,-1.629 -3.79297,-0.332 -8.30469,-0.547 -12.07422,0 -2.65234,1.238 -5.30078,2.48 -7.95312,3.719 -4.41016,0.09 -8.81641,0.179 -13.22266,0.269 -1.79688,0.489 -4.60156,2.332 -6.59375,4.047 -3.19141,2.75 -6.66406,8.516 -7.84766,12.055 -0.82422,2.465 -0.55859,5.66 -0.33203,8.164 0.35547,3.871 1.9375,7.199 4.17578,10.758 3.20703,5.086 6.125,8.48 11.82813,13.082 3.24219,2.613 6,5.14 9.27344,6.625 4.07421,1.851 9.6289,3.035 13.77343,2.883 2.96485,-0.106 10.14844,-1.793 12.50391,-3.563 3.70312,-2.781 8.80078,-8.891 12.4375,-13.738 3.26562,-4.469 2.89062,-8.938 4.08594,-13.438 0.50781,-3.289 0.5625,-7.679 0.0234,-10.234 -0.58203,-2.77 -2.6289,-7.512 -5.66015,-11.215 m -22.26953,-4.75 0.16015,-0.04 0.50391,0.02 0.5,0.07 0.14453,0.05 -0.37891,0.04 -0.54687,-0.08 -0.38281,-0.07 m 19.87109,29.832 c -1.13672,3.113 -1.87109,6.719 -4.88281,10.457 -1.33594,1.66 -3.17969,3.606 -4.88281,4.715 -3.125,2.039 -7.36719,4.168 -10.375,4.285 -3.5625,0.137 -8.01954,0.617 -11.52344,-0.152 -3.06641,-0.672 -7.5586,-4.758 -10.36719,-6.875 -3.55469,-2.684 -6.69531,-6.434 -8.82812,-9.824 -2.04688,-3.262 -4.14063,-8.637 -4.21875,-10.465 -0.0625,-1.512 -0.15625,-3.317 0.66406,-4.86 1.54687,-2.91 3.875,-7.121 5.11719,-8.761 0.89453,-1.188 2.91015,-2.086 4.53906,-2.946 3.51953,-1.851 9.125,-3.343 12.96094,-3.652 4.67187,-0.375 8.05078,2.906 11.76171,2.324 1.04688,-0.883 2.09375,-1.769 3.14454,-2.652 1.43359,-0.317 8.76171,3.449 10.75,5.496 4.26171,6.437 7.46093,9.227 7.94531,14 0,2.773 -0.80469,6.168 -1.80469,8.91"
     id="path24539" />
  <path
     fill-rule="nonzero"
     fill="#000000"
     fill-opacity="1"
     d="m 420.21061,250.84725 c -0.73828,-0.418 -4.21484,-0.652 -6.27734,-0.937 -1.27344,-0.172 -2.69141,0.08 -3.03125,1.219 -0.20703,0.691 0.13281,1.582 0.69922,2.273 0.95312,1.16 2.14844,1.434 3.35156,1.477 1.42578,0.05 3.47656,-0.133 4.66016,-0.922 0.71484,-0.481 1.02344,-0.992 1.1289,-1.739 0.10547,-0.73 -0.125,-1.136 -0.53125,-1.371"
     id="path24540" />
  <path
     fill-rule="nonzero"
     fill="#000000"
     fill-opacity="1"
     d="m 627.37858,253.31225 c -4.88281,-1.371 -11.21875,-2.277 -16.04297,-2.426 -31.05859,-0.964 -62.6914,-2.031 -94.10156,-1.113 -2.8789,0.77 -4.92187,1.461 -8.39453,1.231 -15.47266,-1.036 -39.54297,-2.02 -59.92578,-2.977 -7.36719,-0.348 -15.49219,1.047 -20.47656,1.527 -6.69141,0.356 -12.33985,-0.312 -19.70313,-1.589 -1.95703,0.539 -3.91797,1.074 -5.8789,1.613 -5.375,0.34 -9.41016,-0.797 -13.51954,-1.426 -29.76171,0 -59.52343,0 -89.28125,0 -17.18359,1 -35.54296,2.996 -53.99609,4.149 -17.17187,1.277 -32.90234,-1.809 -47.86328,-0.657 -0.33594,0.508 2.64844,3.028 5.10547,4.117 4.12109,1.829 11.3125,3.157 14.09765,3.336 10.88282,0.692 22.51954,0.68 33.41407,0.121 7.62109,-0.945 15.24218,-1.89 22.86328,-2.839 26,0.398 52.6289,-0.168 77.95703,-1.426 2.35156,0.476 4.70312,0.953 7.05859,1.426 76.62891,-1.075 149.35938,1.75 225.23828,1.425 13.8125,3.575 29.3086,-0.839 41.54688,2.668 1.63672,-0.1 3.29687,-0.664 4.13281,-1.742 0.48438,-0.629 0.71485,-1.711 0.71875,-2.445 0.0117,-1.82 -0.88672,-2.395 -2.94922,-2.973"
     id="path24796" />
  <path
     fill-rule="nonzero"
     fill="#000000"
     fill-opacity="1"
     d="m 451.72624,254.30125 c -9.60547,-1.157 -20.38281,-0.458 -30.45313,-0.454 -6.05078,0.36 -14.70703,2.266 -22.63281,2.711 -7.77344,0.434 -16.23437,0.563 -23.99219,-0.09 -5.1875,-0.438 -8.86328,-2.043 -12.88281,-3.989 -1.53515,-0.23 -2.88281,0.481 -3.01953,1.809 -0.0273,2.18 2.36719,4.398 4.30078,4.789 7.6211,1.762 16.83203,3.859 24.02735,4.316 6.95703,0.446 16.60546,-0.414 23.42578,-1.484 5.40234,-0.848 10.85156,-2.605 14.36718,-2.82 6.19141,-0.383 13.31641,0.457 18.04297,1.008 3.375,-0.497 9.6836,-0.137 10.4336,-2.715 0.17968,-1.145 -0.55078,-2.5 -1.61719,-3.078"
     id="path24797" />
  <path
     fill-rule="nonzero"
     fill="#000000"
     fill-opacity="1"
     d="m 480.35515,249.42625 c -17.69922,-0.735 -36.82813,-0.02 -54.45704,1.519 -8.99609,0.789 -20.4375,3.934 -27.46875,4.32 -12.88281,0.715 -24.93359,-0.871 -38.16406,-1.492 -3.77344,-0.121 -11.19922,0.535 -14.4375,1.547 -1.32031,0.41 -2.57422,1.711 -2.04687,3.211 0.375,1.07 1.24218,1.344 2.2539,1.406 4.00391,-0.754 7.5586,-0.918 11.32032,-0.703 2.35937,0.473 4.71484,0.945 7.07031,1.418 23.98828,1.051 47.97265,-2.117 71.95703,-1.566 5.96875,-0.36 14.625,-2.25 22.62891,-2.715 7.60546,-0.02 15.35546,0.199 22.86718,-0.246 1.73828,-0.496 3.10157,-2.5 2.66407,-4.461 -0.39844,-1.797 -2.30079,-2.156 -4.1875,-2.238"
     id="path24798" />
  <path
     fill-rule="nonzero"
     fill="#000000"
     fill-opacity="1"
     d="m 529.92546,121.11725 c -0.63672,0.195 -0.85547,0.426 -1.03516,1.059 0.40625,4.335 0.82031,8.671 1.22656,13.003 0.20704,3.5 -0.50781,11.207 -1.6914,14.161 -3.01563,7.531 -4.92188,13.812 -9.14453,21.507 -2.78516,5.079 -7.72266,12.145 -11.17969,18.735 -2.28906,4.363 -3.16406,8.523 -3.93359,11.746 -1.8125,8.848 -0.71485,17.137 -0.875,25.769 0.21093,3.895 2.125,22.727 2.4414,22.727 0.59375,0 1.45703,-0.484 2.0586,-1.106 1.0039,-1.035 1.1875,-2.089 1.24609,-3.05 -1.08203,-8.711 -0.58984,-18.504 -2.87891,-28.442 -0.21875,-2.539 -0.25,-5.316 0.3125,-7.843 1.29688,-5.852 2.375,-10.926 4.1836,-15.317 3.79687,-8.289 8.23437,-13.07 12.16015,-20.711 4.09766,-8.199 6.83985,-15.933 9.39844,-22.543 1.51953,-3.929 2.18359,-10.597 2.20313,-15.601 -0.1875,-3.157 -0.37891,-6.317 -0.56641,-9.477 0.46875,-0.801 2.05469,-1.617 2.77734,-1.328 0.66407,0.262 1.3711,1.93 1.45313,2.398 0.53906,3.047 0.52734,10.817 0.39844,15.039 -0.4961,3.645 -0.9961,7.293 -1.49219,10.942 0.91797,5.801 1.83203,11.605 2.75,17.406 2.8125,5.07 6.02344,13.508 9.05859,19.758 0.64063,0.738 1.85547,1.273 2.8125,1.098 0.70313,-0.129 0.98047,-0.473 1.20313,-1.164 -0.40625,-3.321 -4.28516,-10.993 -6.6211,-15.024 -1.8125,-5.055 -3.76172,-12.566 -4.89062,-17.707 0.4375,-9.562 0.72265,-20.652 0.8789,-30.836 -0.0898,-1.383 -0.375,-2.879 -1.0039,-4.242 -0.5,-1.09 -1.10547,-1.734 -2.11719,-1.981 -2.36719,-0.578 -6.72656,0.286 -9.13281,1.024"
     id="path24799" />
  <path
     fill-rule="nonzero"
     fill="#000000"
     fill-opacity="1"
     d="m 554.83952,241.84025 c -1.67187,-14.02 -0.79297,-30.137 -1.81641,-45.368 -0.11718,-2.171 -0.53515,-5.898 -1.41406,-7.851 -2.58594,-4.035 -3.28906,-10.317 -6.8164,-12.59 -0.98829,0.05 -1.32813,0.98 -0.96094,2.09 1.26953,3.875 3.24219,6.898 4.17187,10.832 0.61328,2.598 1.22657,5.187 1.33594,7.027 -0.0352,11 -0.0664,22 -0.10156,33 0.26953,5.067 0.66797,10 1.0664,14.883 0.0781,0.965 0.33985,1.785 1.31641,1.785 1.48047,0.07 3.07031,-2.492 3.21875,-3.808"
     id="path24800" />
  <path
     fill-rule="nonzero"
     fill="#000000"
     fill-opacity="1"
     d="m 551.6989,245.28125 c -3.70313,-0.656 -8.14063,-0.449 -11.83985,-0.133 -8.5,1.836 -17.04687,2.547 -25.62109,3.012 -1.29688,0.121 -2.87891,1.949 -2.49219,2.871 6.55469,1.328 15.67578,0.605 23.25,0.633 6.35938,-1.321 13.81641,-0.496 19.45313,-1.43 0.76953,-0.805 0.625,-3.187 -0.0234,-3.859 -0.5625,-0.582 -1.71485,-0.914 -2.72656,-1.094"
     id="path24801" />
  <path
     fill-rule="nonzero"
     fill="#000000"
     fill-opacity="1"
     d="m 545.79655,181.62925 c -1.74609,0.324 -3.48828,0.648 -5.23437,0.972 -5.13282,0.239 -10.33203,-1.32 -15.51563,-1.054 -2.76562,0.14 -7.1875,0.359 -9.80469,1.269 -1.07421,0.371 -2.25781,1.203 -2.19921,2.129 0.0586,0.992 1.28906,1.281 2.30078,1.359 5.82422,-0.351 11.64453,-0.707 17.46875,-1.058 2.19922,0.113 4.57422,1.086 7.99609,1.019 2.56641,-0.05 4.375,-0.04 5.96484,-0.265 0.94532,-0.129 1.86719,-0.887 1.87891,-1.867 0.0117,-1.215 -1.46094,-2.215 -2.85547,-2.504"
     id="path24802" />
  <path
     fill-rule="nonzero"
     fill="#000000"
     fill-opacity="1"
     d="m 490.21061,208.53525 c -0.30468,-0.766 -1.02343,-1.395 -2.08984,-1.348 -2.06641,-0.02 -3.29687,3.41 -4.99609,3.793 -1.32422,0.641 -2.95703,1.344 -4.86719,1.66 -3.15625,0.563 -6.34766,-1.054 -9.54297,-2.109 -1.85547,-0.781 -4.01953,-2.082 -5.59375,-3.648 -2.91797,-3.645 -5.83594,-7.29 -8.75391,-10.934 -0.64453,-0.504 -2.03125,-0.32 -2.36718,0.789 0.57812,4.984 4.1875,8.398 5.48828,12.832 2.32422,2.957 6.17969,5.828 8.91406,6.75 4.64063,0.5 9.25,1.91 13.89063,1.109 1.96484,-0.336 4.07812,-0.828 6.07031,-1.937 1.32812,-0.738 2.97265,-1.82 3.65625,-3.121 0.63281,-1.211 0.55859,-2.906 0.1914,-3.836"
     id="path24803" />
  <path
     fill-rule="nonzero"
     fill="#000000"
     fill-opacity="1"
     d="m 493.11686,189.35925 c -12.35156,-0.484 -26.2539,-0.141 -38.4375,0.934 -1.05078,0.09 -1.8789,0.429 -1.91796,1.468 -0.0352,1.024 0.76562,1.661 1.70703,2.036 2.23437,0.886 5.18359,2.296 7.20312,2.14 12.65625,-1.492 22.95703,-0.98 34.13672,-2.422 0.69531,-0.789 0.49219,-2.66 -0.19141,-3.39 -0.58203,-0.629 -1.50781,-0.727 -2.5,-0.766"
     id="path24804" />
  <path
     fill-rule="nonzero"
     fill="#000000"
     fill-opacity="1"
     d="m 494.12468,194.39425 c -2.22266,2.469 -3.10938,5.121 -4.52344,7.965 -0.94141,1.313 -0.75,3.266 0.28516,3.801 0.79296,0.437 3.21875,-0.738 3.97265,-1.742 0.95703,-1.274 2.625,-5.075 3.19141,-6.774 0.53906,-1.625 0.41797,-3.843 -0.60547,-4.172 -0.69922,-0.222 -1.62109,0.149 -2.32031,0.922"
     id="path24805" />
  <path
     fill-rule="nonzero"
     fill="#000000"
     fill-opacity="1"
     d="m 478.18327,244.52325 c 0.94922,-1.215 0.57813,-4.308 0.51953,-6.031 -0.10937,-3.055 -2.21484,-8.953 -3.48437,-14.606 0.11328,-1.304 0.23047,-2.613 0.34765,-3.918 -0.125,-0.613 -0.42968,-0.832 -1.1289,-0.882 -1.48047,-0.114 -2.89453,0.718 -3.22657,1.812 -0.57812,1.914 -0.20703,4.887 -0.15234,6.985 0.11328,4.503 0.86719,12.863 2.16406,16.863 0.28125,0.867 0.92969,1.097 2.10547,0.98 1.10938,-0.109 2.3086,-0.5 2.85547,-1.203"
     id="path24806" />
  <path
     fill-rule="nonzero"
     fill="#000000"
     fill-opacity="1"
     d="m 489.22233,245.22225 c -3.74218,-0.949 -9.07031,-0.281 -12.96484,-0.148 -1.97266,0.625 -3.94141,1.254 -5.91016,1.879 -3.26562,0.164 -6.52734,0.328 -9.78906,0.492 -1.03906,0.344 -1.94531,0.895 -1.94922,2.02 0,0.707 0.33594,1.332 0.98047,1.804 0.55078,0.399 1.27734,0.492 1.93359,0.485 2.28125,-0.309 4.5625,-0.614 6.84375,-0.918 7.30079,1.886 15.33594,-1.735 21.67579,0.773 1.46484,-0.152 2.28515,-1.797 2.14062,-2.969 -0.11328,-1.257 -1.44141,-3.031 -2.96094,-3.418"
     id="path24807" />
  <path
     fill-rule="nonzero"
     fill="#000000"
     fill-opacity="1"
     d="m 457.55436,205.61325 c 1.49219,0.566 4.85547,0.855 6.02344,0.891 6.48828,0.191 14.46094,0.234 20.67969,-0.84 1.42969,-0.246 2.82812,-0.821 3.03516,-2.172 0.15234,-0.981 -0.41407,-1.258 -1.11719,-1.328 -9.23828,0.332 -18.47656,0.66 -27.71485,0.992 -0.98437,0.07 -1.77343,0.371 -1.77734,1.301 -0.004,0.605 0.28906,0.937 0.87109,1.156"
     id="path24808" />
  <path
     fill-rule="nonzero"
     fill="#000000"
     fill-opacity="1"
     d="m 553.05436,225.10525 0.35938,0.543 0.93359,0.05 0.37891,-0.57 -0.36328,-0.543 -0.92969,-0.05 -0.37891,0.57"
     id="path24809" />
  <path
     fill-rule="nonzero"
     fill="#000000"
     fill-opacity="1"
     d="m 127.98405,41.17925 c -1.23828,0.657 -2.80078,1.938 -3.91015,3.297 -1.08203,1.325 -1.31641,2.645 -1.53125,3.965 -0.20703,1.301 -0.21875,2.66 0.004,3.961 0.20703,1.203 0.625,2.891 1.72266,3.984 0.71094,0.707 1.57031,0.981 2.30859,0.528 0.71875,-0.442 0.98047,-1.406 0.96485,-2.192 -0.35157,-1.293 -0.70313,-2.586 -1.05469,-3.875 -0.0898,-0.925 0.18359,-2.015 0.71484,-2.91 0.58203,-0.972 1.73828,-1.976 2.71094,-2.648 1.47656,-1.016 3.01953,-1.61 4.49219,-2.059 1.54297,-0.472 2.91406,-0.652 4.44531,-0.109 1.57812,0.605 3.8125,1.476 4.58984,3.25 0.32422,0.699 0.41797,1.445 0.35157,2.164 -0.14454,1.637 -0.97266,3.586 -1.60547,5.258 -1.82032,4.769 -4.71485,9.062 -7.55469,13.91 -0.75781,1.508 -1.25781,3.109 -1.39453,4.668 0.15625,2.89 -0.64453,5.765 0.55859,8.672 0.82031,1.5 2.28906,3.519 3.51172,4.601 1.04297,0.926 2.69141,1.817 4.01172,1.535 0.52344,-0.113 1.11328,-0.461 1.39453,-0.894 0.28516,-0.442 0.28516,-0.992 0.0703,-1.422 -0.86328,-1.711 -3.93359,-3.77 -4.87109,-5.641 -0.98438,-1.964 -1.125,-3.988 -0.87891,-5.968 2.7461,-7.133 8.38672,-14.25 10.52344,-21.567 0.50391,-1.636 0.35547,-3.941 0.19922,-5.535 -0.0977,-0.98 -0.41016,-1.527 -1.14844,-2.508 -0.85937,-1.136 -2.32422,-2.898 -3.63672,-3.593 -2.91015,-1.012 -5.78906,-1.395 -8.68359,-0.989 -2.01172,0.34 -4.375,1.09 -6.30469,2.117"
     id="path24810" />
  <path
     fill-rule="nonzero"
     fill="#000000"
     fill-opacity="1"
     d="m 140.39421,103.40225 c 0.53515,0.125 1.20312,0.09 1.74609,-0.176 0.54297,-0.265 1.08985,-0.812 1.38281,-1.359 0.46094,-0.859 0.42969,-1.832 0.17188,-2.402 -0.39063,-0.868 -1.85156,-1.356 -3.3125,-0.762 -1.17188,0.558 -1.93359,2.039 -1.67188,3.09 0.16016,0.816 0.82032,1.402 1.6836,1.609"
     id="path24811" />
  <path
     fill-rule="nonzero"
     fill="#000000"
     fill-opacity="1"
     d="m 163.36686,36.71125 c 0.26563,4.414 0.29297,8.89 -0.10937,13.3 -0.75391,5.418 -1.51172,10.84 -2.26953,16.258 -0.0586,1.903 -0.4375,4.418 0.10156,6.301 0.23438,0.813 0.83594,1.461 1.80078,1.426 0.96094,-0.04 1.4961,-0.688 1.57031,-1.414 -0.15234,-1.836 -0.30859,-3.668 -0.46484,-5.504 0.75781,-5.414 1.51563,-10.828 2.26953,-16.242 0.14063,-4.453 0.58985,-9.629 -0.0312,-13.977 -0.0117,-0.945 -0.8164,-1.742 -1.83203,-1.629 -0.78516,0.1 -0.97656,0.684 -1.03516,1.481"
     id="path24812" />
  <path
     fill-rule="nonzero"
     fill="#000000"
     fill-opacity="1"
     d="m 165.2028,99.20725 c 0.56641,-0.305 0.78906,-0.696 0.94922,-1.258 0.375,-1.336 0.10938,-3.121 -0.52734,-3.34 -0.57422,-0.195 -2.08594,0.125 -2.67578,0.953 -0.4336,0.614 -0.44141,1.59 -0.19141,2.43 0.16016,0.551 0.43359,1.066 0.89453,1.297 0.46094,0.234 1.07031,0.176 1.55078,-0.08"
     id="path24813" />
  <path
     fill-rule="nonzero"
     fill="#000000"
     fill-opacity="1"
     d="m 178.33561,10.30125 c -2.51171,-1.848 -5.68359,-3.461 -8.42578,-4.223 -2.99609,-0.832 -6.33593,-1.754 -9.35547,-1.848 -3.59375,-0.113 -7.28515,0.336 -10.86718,0.91 -1.78516,0.286 -3.70703,0.559 -5.44141,1.266 -4.06641,1.379 -8.44531,4.523 -12.02734,5.859 -1.15625,-0.636 -0.59766,-3.144 -0.73047,-4.765 -0.23828,-1.059 -1.21094,-2.953 -1.87109,-3.836 -0.39844,-0.531 -0.73047,-0.723 -1.33594,-0.883 -1.45313,-0.383 -3.33203,-0.188 -4.78125,-0.06 -5.50391,1.036 -10.8711,3.622 -16.32422,5.7 -2.76953,1.179 -5.95703,3.433 -8.542973,5.445 -2.808594,2.176 -6.550781,6.703 -8.683594,9.82 -1.382812,1.84 -1.476562,3.801 -1.433594,5.7 0.04297,0.511 0.132813,1.007 0.472657,1.285 0.3125,0.25 0.839843,0.261 1.191406,0.04 0.855469,-1.711 1.710937,-3.422 2.570313,-5.137 1.691406,-2.527 4.335937,-5.387 6.417968,-7.644 2.476567,-2.684 4.957037,-4.243 7.519537,-5.844 5.89844,-2.297 11.87109,-5.129 17.57812,-6.211 1.16407,-0.16 2.54297,0.141 3.03907,1.297 0.40625,2.785 0.8125,5.574 1.21875,8.359 0.22656,1.074 0.78906,2.305 1.91406,2.278 4.55468,-3.051 10.28125,-6.911 15.55078,-8.723 4.84375,-1.195 9.6914,-1.621 14.53515,-1.684 2.71485,0.219 5.75,0.969 8.39844,1.867 2,0.68 4.16797,1.766 6.08594,3.043 1.72656,1.153 3.64453,3.008 5.28906,4.809 1.39453,1.977 2.78516,3.949 4.17969,5.926 0.66016,0.39 1.64844,0.394 2.30859,-0.06 0.88672,-0.609 1.11719,-2.058 0.96485,-2.887 -1.07032,-2.648 -6.10938,-6.656 -9.41407,-9.796"
     id="path24814" />
  <path
     fill-rule="nonzero"
     fill="#000000"
     fill-opacity="1"
     d="m 197.53093,18.22225 c -1.8086,0.309 -3.83985,0.762 -5.61328,1.629 -0.83594,0.41 -1.30469,0.797 -1.46875,1.629 -0.13282,0.676 -0.0781,1.887 0.0625,2.449 0.11328,0.465 0.23437,0.602 0.60156,0.446 0.66015,-0.711 2.23047,-2.125 3.48437,-2.446 1.46094,-0.375 3.75,-1.003 5.20703,-0.597 2.4336,0.683 5.24219,2.691 7.50782,4.597 1.6914,1.422 3.48828,3.856 4.30078,5.774 1.44531,4.758 4.0039,9.797 4.05859,14.441 -0.20703,1.453 -1.26562,3.043 -2.32031,4.504 -1.23438,2.84 -5.10547,4.473 -5.91797,7.137 0.004,0.879 0.64063,1.578 1.39844,2.152 2.03906,1.344 4.33984,2.332 6.05859,4.27 1.23047,1.39 1.89844,3.031 2.40625,4.476 1.17578,2.957 0.64063,6.086 0.7461,9.129 -0.0664,2.176 -0.53516,4.766 -1.0586,6.891 -1.61719,6.129 -3.9414,12.312 -6.48828,18.41 -0.95703,2.543 -3.41797,3.898 -5.18359,5.465 -0.28125,0.969 -0.49219,1.976 -1.26172,2.734 -5.53906,2.789 -11.07422,5.578 -16.60938,8.364 -2.48828,0.753 -6.61328,0.855 -9.29687,0.992 -2.32031,-0.223 -4.64063,-0.446 -6.96485,-0.668 -0.96484,0.152 -1.74609,1.558 -1.28125,2.508 0.41407,0.89 1.91016,1.363 2.89454,1.628 2.28906,0.622 4.76953,0.395 7.03515,0.329 2.85547,-0.08 6.60156,-0.375 9.33985,-1.094 6.125,-2.809 12.6289,-5.426 18.5039,-9.36 1.56641,-1.347 5.24219,-5.773 6.51172,-8.234 2.48047,-6.508 4.76953,-12.941 6.54297,-19.394 0.44922,-1.805 0.97656,-4.153 1.08594,-6.125 0.19531,-3.528 0.48047,-8.438 -0.14844,-11.446 -0.35938,-1.711 -1.35547,-4.23 -2.84766,-6.594 -1.58593,-1.757 -3.17187,-3.515 -4.76172,-5.269 1.58204,-2.258 3.16407,-4.516 4.74219,-6.77 0.90625,-2.875 0.95313,-5.769 0.40235,-8.648 -1.56641,-4.426 -2.50782,-8.836 -4.71094,-13.262 -1.33594,-2.015 -3.8711,-4.465 -5.89063,-6.109 -2.01562,-1.645 -4.25781,-3.09 -6.3125,-3.731 -1.52734,-0.476 -3.21484,-0.472 -4.7539,-0.207"
     id="path24815" />
  <path
     fill-rule="nonzero"
     fill="#000000"
     fill-opacity="1"
     d="m 165.92155,126.57025 c 0.40235,-0.793 1.67578,-4.008 1.54688,-4.543 -0.0742,-0.316 -0.46485,-0.457 -0.86719,-0.402 -1.61328,0.191 -2.54688,2.961 -3.44141,4.308 -1.42578,1.422 -5.25781,3.246 -7.38281,4.16 -4.62109,1.985 -11.01562,4.45 -16.11719,5.711 -1.73437,0.43 -3.55468,0.43 -5.28515,0 -2.71094,-0.671 -5.75,-1.699 -8.38281,-3.183 -3.60157,-2.313 -7.22266,-5.16 -10.83204,-7.762 -2.33203,-0.211 -4.66406,-0.422 -6.99218,-0.633 -3.53516,-0.832 -7.30079,-2.179 -10.714851,-3.91 -3.339843,-1.691 -6.777343,-4.242 -9.949218,-6.789 -1.898438,-1.523 -3.527344,-3.726 -5.210938,-5.824 -2.34375,-2.922 -4.601562,-6.731 -5.972656,-9.953 -0.839844,-1.973 -1.800781,-4.121 -2.285156,-6.102 -0.367188,-1.5 -0.339844,-3.039 -0.289063,-4.539 0.05859,-1.75 0.890625,-3.562 1.734375,-5.332 2.210938,-4.898 4.90625,-9.5 8.207032,-14.773 0.07812,-0.563 -0.01953,-1.071 -0.328126,-1.391 -0.8125,-0.856 -3,-0.418 -4.191406,-1.481 -1.269531,-1.132 -2.214844,-3.289 -2.796875,-4.925 -0.59375,-1.672 -1.082031,-3.598 -1.082031,-5.305 0,-2.148 0.605469,-4.727 1.257812,-6.828 0.617188,-2.012 1.621094,-4.094 2.832032,-6.113 1.511718,-2.524 3.054687,-5.176 5.199218,-7.629 0.851563,-0.977 1.863282,-1.828 2.914063,-2.344 1.28125,-0.438 2.566406,-0.871 3.851563,-1.309 0.453124,-0.324 0.691406,-0.695 0.664062,-1.207 -0.0039,-1.027 -1.304688,-1.175 -2.410156,-0.957 -1.90625,0.274 -3.871094,0.907 -5.625,2.356 -1.828125,1.504 -4.089844,4.121 -5.183594,6.16 -1.703125,3.176 -4.078125,6.789 -4.808594,10.07 -0.550781,3.637 -1.683594,7.258 -1.558594,10.922 0.359376,2.324 1.148438,4.742 2.253907,7.102 1.207031,1.5 2.417969,3 3.625,4.504 -2.160157,4.578 -4.324219,9.156 -6.484375,13.734 -0.621094,1.574 -1.019532,3.098 -1.066406,4.684 -0.05469,1.789 -0.160157,3.703 0.136718,5.484 0.296875,1.793 1.019532,3.703 1.710938,5.453 1.714844,4.344 4.648437,9.059 7.777344,13.211 1.511718,2.008 3.910156,4.406 5.914062,5.914 2.917969,2.199 6.207031,4.543 9.320312,6.117 4.308594,2.184 8.863281,3.414 13.230471,4.699 1.52735,0.08 3.05469,0.164 4.58594,0.243 3.57422,2.656 7.13672,5.343 10.72266,7.5 2.71484,1.578 5.78906,2.5 8.5664,3.14 1.47656,0.34 3.16797,0.793 4.6875,0.797 1.03516,0 2.14063,-0.308 3.16406,-0.605 7.26563,-3.848 14.3711,-4.407 21.71875,-8.766 1.21485,-0.91 2.97657,-2.367 3.63672,-3.668"
     id="path24816" />
  <path
     fill-rule="nonzero"
     fill="#000000"
     fill-opacity="1"
     d="m 248.52702,72.13325 c -1.26562,-0.188 -2.75,-0.102 -4.01172,0.253 -0.82812,0.235 -1.5625,0.625 -2.39453,1.332 -2.53906,2.797 -5.73828,4.629 -6.40625,7.075 -0.32422,1.031 -0.63281,2.187 -0.49219,3.234 0.23047,1.734 1.0625,3.981 2.35547,5.555 0.9961,1.207 2.52344,2.105 3.82422,2.703 0.84375,0.387 1.59766,0.551 2.44922,0.504 2.4375,-0.192 4.85937,-1.711 7.11328,-3.43 1.18359,-1.004 2.11328,-2.32 2.89063,-3.656 0.76953,-1.317 1.27343,-2.637 1.60937,-3.973 0.5625,-2.269 0.21094,-3.625 -0.80469,-5.519 -1.14453,-1.547 -4.40625,-3.821 -6.13281,-4.078 m 0.42578,13.156 c -1.46094,1.554 -3.66015,3.472 -5.14062,3.691 -0.94922,0.141 -1.83203,-0.387 -2.78907,-1.39 -1.33984,-1.395 -2.19531,-2.957 -2.5039,-4.372 -0.48828,-1.421 1.125,-2.972 2.5039,-4.359 1.63282,-1.516 3.5,-2.496 5.15625,-2.766 0.94532,-0.156 1.94141,0.09 2.85547,0.715 1.37891,0.95 2.54688,2.637 2.57032,3.496 0.0352,1.352 -1.1836,3.418 -2.65235,4.985"
     id="path24817" />
  <path
     fill-rule="nonzero"
     fill="#000000"
     fill-opacity="1"
     d="m 280.22233,83.90625 c -1.16406,-0.414 -2.89843,-0.418 -4.07812,-0.156 -0.65625,0.144 -0.98047,0.304 -1.62891,0.808 -1.04297,0.809 -2.39062,2.137 -2.89844,3.196 -0.41015,0.863 -0.41406,1.812 0.1211,2.285 0.32812,0.289 0.85547,0.308 1.29297,0.113 1.1289,-1.066 2.36718,-2.492 4.01172,-2.676 0.86718,-0.1 2.01171,0.328 2.18359,1.239 0.17578,0.945 -0.83203,2.519 -1.72656,3.285 -1.07422,0.922 -2.38672,1.472 -3.54688,1.199 -1.5664,-0.488 -3.78125,-1.488 -4.54687,-3.18 -0.875,-1.273 0.73047,-3.086 1.23047,-4.535 0.12109,-0.676 -0.375,-1.019 -1.32032,-0.902 -1.18359,0.144 -2.48047,1.183 -3.07422,2.351 -0.61328,1.211 -0.51953,2.899 -0.15625,4.098 0.48047,1.57 1.66797,3.539 3.03907,4.258 2.08203,0.824 4.29687,1.703 6.42187,1.097 2.25,-0.707 5.125,-1.457 6.85938,-3.738 0.91015,-1.98 1.45703,-4.637 0.76172,-6.09 -0.42579,-0.855 -1.60547,-2.179 -2.94532,-2.652"
     id="path24818" />
  <path
     fill-rule="nonzero"
     fill="#000000"
     fill-opacity="1"
     d="m 303.18718,93.12925 c -1.58985,0.484 -4.32813,1.086 -5.50782,2.289 -1.24218,1.238 -0.91015,2.73 -0.95703,4.05 0.0508,0.829 0.21875,1.676 0.96094,2.415 1.23438,1.21 2.74609,1.003 4.07031,0.886 1.08985,-0.203 2.19532,-0.98 3.20313,-1.855 0.96875,-0.836 1.85547,-1.817 2.23828,-2.93 0.50391,-1.465 0.40625,-3.773 -0.33203,-4.406 -0.67188,-0.582 -2.41797,-0.832 -3.67578,-0.449 m -0.86328,5.8 c -0.72657,0.504 -1.29297,0.641 -1.80469,0.176 -0.5,-0.449 -0.47656,-1.035 0.0508,-1.347 1.16406,-0.465 2.32812,-0.93 3.48828,-1.395 0.48828,0.262 -0.48828,1.695 -1.73437,2.566"
     id="path24819" />
  <path
     fill-rule="nonzero"
     fill="#000000"
     fill-opacity="1"
     d="m 327.83561,96.29725 c -1.27734,0.355 -2.87109,1.418 -4,2.953 -0.46875,0.64 -0.71875,1.136 -0.6914,1.695 0.0273,0.551 0.3125,0.785 0.78906,0.797 1.28516,-0.574 2.57422,-1.149 3.85938,-1.719 0.48437,-0.07 0.8164,0.06 0.9375,0.395 0.0859,1.34 -1.82032,4.05 -3.28907,5.289 -0.40625,0.215 -0.83593,0.215 -1.2539,-0.03 -0.89844,-1 -1.80078,-2 -2.69922,-2.996 -0.39844,-0.113 -0.83203,0.04 -1.13672,0.543 -0.52734,0.864 -0.125,2.282 0.24219,3.258 0.30078,0.797 0.8789,1.738 1.73047,2.395 1.13281,0.925 2.26953,0.804 3.3789,0.32 1.52735,-0.668 3.48047,-2.617 4.73828,-4.176 1.33203,-1.648 1.79688,-3.84 2.17969,-5.617 0.24219,-1.105 0.10156,-1.898 -0.83594,-2.641 -1.1289,-0.961 -2.61718,-0.808 -3.94922,-0.468"
     id="path24820" />
  <path
     fill-rule="nonzero"
     fill="#000000"
     fill-opacity="1"
     d="m 226.03483,242.35125 c -0.51172,-1.562 -2.30078,-3.234 -4.38281,-4.789 -11.71484,-6.504 -19.05078,-11.277 -30.51562,-20.523 -1.98047,-1.071 -4.89454,-0.508 -5.91797,1.156 -0.98047,1.719 0.44531,4.266 2.29687,5.555 8.08203,5.426 16.16406,10.851 24.2461,16.281 2.67578,2.711 5.34765,5.422 8.02343,8.137 1.73828,0.769 4.67969,0.01 5.78516,-1.485 0.86328,-1.172 0.88281,-3.054 0.46484,-4.332"
     id="path24821" />
  <path
     fill-rule="nonzero"
     fill="#000000"
     fill-opacity="1"
     d="m 305.92155,207.52325 c -1.05859,-0.469 -2.05078,-0.523 -3.16797,-0.41 -8.53125,0.855 -18.40234,4.051 -24.66406,4.402 -22.58203,1.258 -46.26953,1.946 -70.60937,4.106 -5.60938,-0.895 -11.22266,-1.785 -16.83204,-2.68 -0.96875,0.04 -2.00781,0.192 -2.76562,0.774 -1.14453,0.871 -1.91797,2.839 -1.74609,4.308 0.1289,1.09 0.5625,1.488 1.46093,1.793 7.11719,2.41 17.625,2.981 25.84375,3.438 6.4375,0.355 13.44141,0.472 19.8711,-0.09 6.5664,-0.957 13.13281,-1.914 19.69922,-2.871 9.63281,-0.867 19.41015,-0.676 29.0625,-0.211 5.85546,-0.367 12.89843,-1.613 19.49609,-3.078 2.78516,-0.614 7.37891,-4.469 7.23828,-6.344 -0.0781,-1.059 -1.36719,-2.465 -2.88672,-3.137"
     id="path24822" />
  <path
     fill-rule="nonzero"
     fill="#000000"
     fill-opacity="1"
     d="m 314.5778,213.36325 c -7.93359,4.762 -19.20703,13.512 -25.46484,19.355 -2.89063,2.704 -8.8086,7.7 -10.51172,10.895 -0.99609,1.863 -1.00391,4.824 0.15625,5.914 1.6875,1.207 5.30469,1.199 7.65234,-0.805 3.23828,-2.504 5.02735,-6.226 6.91797,-8.718 2.92188,-3.52 13.08985,-10.801 19.06641,-17.078 3.00781,-3.161 9.10547,-10.661 7.90234,-11.094 -0.89062,-0.317 -3.73828,0.344 -5.71875,1.531"
     id="path24823" />
  <path
     fill-rule="nonzero"
     fill="#000000"
     fill-opacity="1"
     d="m 278.58561,185.75025 c -3.66406,-0.895 -9.5664,-0.539 -13.41406,0.07 -18.11719,3.297 -34.80469,9.559 -54.17187,13.133 -0.82422,0.359 -1.23828,0.836 -1.23438,1.672 0,1.273 1.10156,1.715 2.42969,1.781 4.80469,0.242 11.52734,-0.715 16.22656,-1.469 12.98828,-4.218 27.3711,-7.57 38.15235,-10.035 3.50781,-0.531 9.99609,2.403 13.01562,1.418 1.19531,-0.39 1.72656,-2.058 1.67969,-3.258 -0.0625,-1.617 -1.10156,-2.922 -2.6836,-3.308"
     id="path24824" />
  <path
     fill-rule="nonzero"
     fill="#000000"
     fill-opacity="1"
     d="m 224.42936,214.85125 c -3.28906,-2.758 -7.73828,-6.265 -11.17187,-8.144 -0.9375,-0.516 -1.64453,-0.719 -2.86328,-0.215 -1.00781,0.414 -2.07031,1.348 -2.53516,2.414 -0.71875,1.641 -0.0742,3.426 1.10156,4.398 1.88672,1.551 7.85938,4.797 10.77344,6.258 1.82031,0.914 4.82031,0.235 5.79297,-1.301 0.73047,-1.156 0.0703,-2.429 -1.09766,-3.41"
     id="path24825" />
  <path
     fill-rule="nonzero"
     fill="#000000"
     fill-opacity="1"
     d="m 271.27311,194.10125 c -1.55859,1.492 -11.16015,15.563 -12.57031,19.676 -0.625,1.606 -0.0859,4.617 1.75391,5.563 1.4375,0.714 3.25781,0.07 4.35937,-1.075 2.37891,-2.464 5.8086,-9.398 6.89063,-12.043 0.66406,-3.964 3.89844,-11.164 1.6289,-12.605 -0.57031,-0.18 -1.52343,-0.03 -2.0625,0.484"
     id="path24826" />
  <path
     fill-rule="nonzero"
     fill="#000000"
     fill-opacity="1"
     d="m 239.30046,174.53925 c -0.42188,-0.492 -1.23828,-0.93 -1.64844,-0.692 -0.0937,1.075 -0.18359,2.153 -0.27734,3.227 -1,3.578 -2.625,7.336 -3.98828,10.957 -0.64844,1.719 -2.5,3.812 -3.89844,5.426 -1.5625,1.801 -3.55469,2.992 -5.32422,3.918 -2.01563,1.058 -4.08203,2 -6.12109,2.176 -3.20704,0.273 -7.07032,0.425 -10.25782,-0.09 -5.26172,-1.008 -10.51562,-2.633 -15.78906,-4.547 -3.8125,-2.121 -7.625,-4.242 -11.4375,-6.367 -0.84766,-0.758 -1.70312,-1.68 -2.36719,-2.676 -1.19531,-2.254 -2.39062,-4.504 -3.58593,-6.754 -0.35938,-0.328 -0.89063,-0.582 -1.29688,-0.586 -0.5,0 -0.69531,0.211 -0.75781,0.664 0.77344,3.098 2.26953,6.137 3.95312,9.016 1.51563,1.644 2.97657,2.867 4.86328,4.242 2.22657,1.617 4.65625,2.941 6.9336,4.082 3.47265,1.734 6.84375,2.762 10.40234,3.859 2.40235,0.742 5.13281,1.328 7.62891,1.731 3.86328,0.621 8.61719,0.422 12.50781,0.09 2.54688,-0.27 5.12109,-1.555 7.6875,-3.024 2.41016,-1.355 5.51172,-4.379 7.42188,-6.168 1.35937,-2.09 2.84765,-5.14 3.625,-7.527 0.78906,-3.262 1.61328,-6.606 2.16015,-9.817 -0.0312,-0.453 -0.14453,-0.8 -0.43359,-1.14"
     id="path24827" />
  <path
     fill-rule="nonzero"
     fill="#000000"
     fill-opacity="1"
     d="m 236.09733,165.87525 c -2.28125,0.422 -4.5625,0.84 -6.84375,1.258 -3.44922,-0.446 -6.90234,-0.895 -10.35156,-1.344 -8.58203,0.371 -17.16797,-0.449 -25.75,-0.699 -4.05469,0.23 -8.48828,0.183 -12.36328,0.824 -2.46875,0.41 -6.84766,1.16 -9.03906,2.078 -0.35157,0.148 -0.57813,0.394 -0.39453,0.699 0.88281,0.742 3.11718,0.301 4.61718,0.434 2.51563,-0.43 5.03516,-0.856 7.55078,-1.282 1.51172,-0.07 4.22657,0.583 6.79297,0.579 2.55078,-0.219 5.09766,-0.438 7.64844,-0.657 1.14844,0.231 2.30078,0.465 3.44922,0.696 5.28906,0 10.57812,0 15.86719,0 3.90625,0.215 7.90234,1.484 11.85156,1.382 1.85937,-0.05 4.57031,-0.562 6.37891,-1.386 0.67578,-0.309 1.19921,-0.891 1.32421,-1.617 0.12891,-0.747 -0.22656,-0.93 -0.73828,-0.965"
     id="path24828" />
  <path
     fill-rule="nonzero"
     fill="#000000"
     fill-opacity="1"
     d="m 235.44108,170.24225 c -0.10937,0.598 1.14453,2.816 1.95703,2.809 0.44532,0 0.67188,-0.231 0.82813,-0.684 0.19531,-0.563 0.125,-1.52 0.10547,-2.215 0.0312,-1.023 -0.23438,-1.664 -1.03125,-1.496 -0.69141,0.113 -1.73438,0.93 -1.85938,1.586"
     id="path24829" />
  <path
     fill-rule="nonzero"
     fill="#000000"
     fill-opacity="1"
     d="m 174.17936,178.03525 c -0.1289,-1.477 -0.74609,-3.336 -1.51562,-5.098 0.23437,-0.902 0.47266,-1.808 0.70703,-2.711 -0.0781,-0.425 -0.34766,-0.664 -0.8125,-0.523 -1.10937,0.48 -1.82031,2.211 -1.56641,3.269 0.21094,1.844 0.4336,3.985 1.00391,5.743 0.22656,0.695 0.58594,1.273 1.25781,1.253 0.89844,0.02 1.03907,-1.136 0.92578,-1.933"
     id="path24830" />
  <path
     fill-rule="nonzero"
     fill="#000000"
     fill-opacity="1"
     d="m 201.98405,206.82025 v 1.672 h 1.67188 v -1.672 h -1.67188"
     id="path24831" />
  <path
     fill-rule="nonzero"
     fill="#000000"
     fill-opacity="1"
     d="m 202.74577,211.95325 c 0.78906,0.348 1.23438,-1.594 0.98047,-4.543 0.39844,0.695 -1.28125,-4.93 -1.61719,-2.988 -0.91797,1.226 -0.39844,7.273 0.63672,7.531"
     id="path24832" />
  <path
     fill-rule="nonzero"
     fill="#000000"
     fill-opacity="1"
     d="m 203.50749,239.59025 c 0.0391,5.386 -0.77344,11.336 0.86719,12.105 0.5625,0.125 1.34765,-0.82 1.66015,-3.23 l 0.1836,-4.532 c -0.0937,-3.519 -0.63282,-6.402 -1.28907,-7.293 0.29688,-0.66 -1.80078,0.762 -1.42187,2.95"
     id="path24833" />
  <path
     fill-rule="nonzero"
     fill="#000000"
     fill-opacity="1"
     d="m 206.48015,251.23825 c -10.92579,0.281 -19.6875,1.438 -24.14063,2.469 -2.32422,0.66 -3.19531,1.105 -3.23828,2.308 -0.0312,0.856 1.08984,1.641 2.19922,1.848 9.17187,-0.969 18.34375,-1.941 27.51172,-2.91 -1.08985,0.613 7.35156,-2.481 4.6875,-2.524 -0.58594,-0.878 -3.13282,-1.175 -7.01953,-1.191"
     id="path24834" />
  <path
     fill-rule="nonzero"
     fill="#000000"
     fill-opacity="1"
     d="m 519.21061,205.52325 -0.0234,-0.144 -0.10157,-0.05 -0.13281,0.07 -0.0937,0.141 0.004,0.14 0.12109,0.05 0.14844,-0.06 0.0781,-0.156"
     id="path24835" />
  <path
     fill-rule="nonzero"
     fill="#000000"
     fill-opacity="1"
     d="m 513.03874,209.34725 c -0.24609,0.05 -0.44141,0.18 -0.61719,0.356 -0.28125,0.285 -0.51172,0.582 -0.65625,0.918 -0.1289,0.293 -0.33984,0.851 -0.16015,1.027 0.13281,0.129 0.36328,0.05 0.55078,-0.105 0.46093,-0.379 0.92968,-0.907 1.38281,-1.387 0.21875,-0.23 0.27344,-0.504 0.082,-0.707 -0.12891,-0.137 -0.33984,-0.16 -0.58203,-0.102"
     id="path24836" />
  <path
     fill-rule="nonzero"
     fill="#000000"
     fill-opacity="1"
     d="m 515.5153,207.30125 h 0.35156 c 0,0 -0.35156,-0.356 -0.35156,-0.356 v 0.356"
     id="path24837" />
  <path
     fill-rule="nonzero"
     fill="#000000"
     fill-opacity="1"
     d="m 517.10124,206.03925 c -0.4375,0.164 -0.94141,0.441 -1.34375,0.66 -0.28906,0.102 -0.51172,0.492 -0.35156,0.687 0.11328,0.137 0.38672,0.11 0.61718,0.05 0.48047,-0.132 0.82813,-0.402 1.16016,-0.605 0.32031,-0.129 0.48438,-0.5 0.375,-0.754 -0.0703,-0.141 -0.22266,-0.121 -0.45703,-0.04"
     id="path24838" />
  <path
     fill-rule="nonzero"
     fill="#000000"
     fill-opacity="1"
     d="m 521.12858,203.80825 c -0.39453,0.145 -1.11328,0.356 -1.53515,0.629 -0.29297,0.293 -0.8711,0.461 -0.76563,0.887 0.0586,0.144 0.19141,0.211 0.34375,0.23 0.86328,-0.289 1.72656,-0.578 2.58985,-0.871 0.25,-0.136 0.45312,-0.457 0.41406,-0.625 -0.0508,-0.246 -0.69531,-0.363 -1.04688,-0.25"
     id="path24839" />
  <path
     fill-rule="nonzero"
     fill="#000000"
     fill-opacity="1"
     d="m 530.4528,202.27725 c -0.67187,0.03 -1.58594,-0.121 -2.11328,0.117 -0.0742,0.09 -0.10156,0.25 -0.0781,0.375 0.0469,0.231 0.19531,0.305 0.42187,0.371 0.65234,0.149 1.39063,0.246 1.97266,0.03 0.17187,-0.125 0.26562,-0.383 0.22265,-0.582 -0.043,-0.196 -0.21484,-0.278 -0.42578,-0.313"
     id="path24840" />
  <path
     fill-rule="nonzero"
     fill="#000000"
     fill-opacity="1"
     d="m 535.33952,203.60925 c -0.90234,-0.324 -1.47266,-0.539 -2.36328,-0.687 -0.24609,0.01 -0.51563,0.109 -0.57422,0.281 -0.082,0.234 0.24609,0.523 0.51953,0.66 0.60938,0.309 1.15625,0.422 1.72656,0.578 0.23829,0.06 0.50391,0.07 0.69922,-0.05 0.14063,-0.08 0.20703,-0.179 0.22657,-0.308 0.0273,-0.188 -0.082,-0.371 -0.23438,-0.477"
     id="path24841" />
  <path
     fill-rule="nonzero"
     fill="#000000"
     fill-opacity="1"
     d="m 539.50358,205.60525 c -0.47656,-0.406 -1.37109,-0.801 -2.08203,-0.957 -0.24219,-0.02 -0.49219,0.04 -0.57812,0.25 -0.0977,0.242 0.125,0.668 0.35547,0.824 0.36718,0.25 1.29687,0.653 1.72265,0.696 0.23438,0.02 0.47656,-0.05 0.60547,-0.25 0.12891,-0.196 0.082,-0.422 -0.0234,-0.563"
     id="path24842" />
  <path
     fill-rule="nonzero"
     fill="#000000"
     fill-opacity="1"
     d="m 545.55046,212.65625 c -0.0273,-0.18 -0.42969,-1.004 -0.78125,-1.449 -0.14453,-0.246 -0.51172,-0.301 -0.76563,-0.133 -0.1875,0.133 -0.27343,0.391 -0.1875,0.598 0.13282,0.336 0.63282,1.062 0.87891,1.343 0.15625,0.176 0.37109,0.25 0.59766,0.129 0.23828,-0.129 0.27734,-0.351 0.25781,-0.488"
     id="path24843" />
  <path
     fill-rule="nonzero"
     fill="#000000"
     fill-opacity="1"
     d="m 547.05827,217.26525 c -0.004,-0.23 -0.10937,-0.882 -0.25781,-1.339 -0.10156,-0.235 -0.32031,-0.672 -0.67578,-0.575 -0.22266,0.08 -0.29297,0.332 -0.28907,0.559 0,0.441 0.11719,1.144 0.23438,1.543 0.0391,0.14 0.10156,0.254 0.25,0.328 0.13672,0.07 0.3125,0.08 0.45312,0.02 0.23047,-0.11 0.28907,-0.36 0.28516,-0.532"
     id="path24844" />
  <path
     fill-rule="nonzero"
     fill="#000000"
     fill-opacity="1"
     d="m 546.46843,220.12925 c -0.0312,0.453 -0.10547,1.105 0.0234,1.558 0.043,0.145 0.11329,0.27 0.27735,0.321 0.23437,0.07 0.41797,-0.114 0.47656,-0.305 0.14453,-0.465 0.22266,-1.102 0.23047,-1.516 0.004,-0.211 -0.0312,-0.437 -0.14844,-0.558 -0.0859,-0.09 -0.1914,-0.129 -0.35937,-0.11 -0.32422,0.04 -0.51563,0.321 -0.5,0.61"
     id="path24845" />
  <path
     fill-rule="nonzero"
     fill="#000000"
     fill-opacity="1"
     d="m 542.30046,233.75025 c -0.30078,0.09 -0.64063,0.383 -0.86719,0.605 -0.23437,0.231 -0.5,0.547 -0.62109,0.852 -0.0937,0.238 -0.0977,0.488 0.043,0.621 0.1914,0.172 0.58203,0.117 0.78906,-0.11 0.39844,-0.355 0.80859,-0.808 1.14062,-1.343 0.14453,-0.235 0.20313,-0.399 0.0937,-0.52 -0.10547,-0.117 -0.35156,-0.172 -0.57812,-0.105"
     id="path24846" />
  <path
     fill-rule="nonzero"
     fill="#000000"
     fill-opacity="1"
     d="m 532.3278,239.88625 c -0.40234,0.137 -1.0625,0.485 -1.32031,0.704 -0.21484,0.183 -0.22656,0.523 -0.0586,0.812 0.14062,0.285 0.48437,0.285 0.68359,0.133 0.40234,-0.234 0.99609,-0.609 1.29687,-0.887 0.21485,-0.195 0.33594,-0.492 0.19922,-0.644 -0.13672,-0.145 -0.50781,-0.219 -0.80078,-0.118"
     id="path24847" />
  <path
     fill-rule="nonzero"
     fill="#000000"
     fill-opacity="1"
     d="m 528.75749,240.45325 c -0.32422,-0.05 -0.75391,-0.03 -1.03516,0.02 -0.34375,0.06 -1.09375,0.07 -1.55859,0.352 -0.19141,0.117 -0.28906,0.305 -0.24609,0.558 0.0469,0.344 0.3789,0.524 0.67578,0.512 0.61718,0.04 1.35547,-0.08 1.96875,-0.242 0.22656,-0.06 0.46093,-0.203 0.58593,-0.457 0.0742,-0.149 0.0859,-0.324 0.0469,-0.441 -0.0625,-0.196 -0.23438,-0.274 -0.4375,-0.305"
     id="path24848" />
  <path
     fill-rule="nonzero"
     fill="#000000"
     fill-opacity="1"
     d="m 523.4489,240.51125 c -0.42188,-0.269 -1.34766,-0.695 -1.73829,-0.808 -0.17578,-0.06 -0.4414,-0.01 -0.57812,0.195 -0.12891,0.195 -0.0547,0.453 0.12891,0.668 0.375,0.438 1.07812,0.715 1.34375,0.836 0.15625,0.07 0.41406,0.08 0.65625,-0.04 0.15234,-0.08 0.29687,-0.219 0.35937,-0.351 0.0977,-0.219 0,-0.383 -0.17187,-0.497"
     id="path24849" />
  <path
     fill-rule="nonzero"
     fill="#000000"
     fill-opacity="1"
     d="m 515.22624,235.67925 c 0.0156,-0.156 -0.043,-0.382 -0.14453,-0.523 -0.27735,-0.191 -1.14453,-0.906 -1.60938,-0.93 -0.18359,0.07 -0.26953,0.34 -0.21093,0.578 0.0859,0.356 0.48046,0.829 0.67187,1.114 0.13281,0.195 0.25391,0.324 0.4375,0.383 0.19141,0.07 0.33203,0.02 0.47266,-0.09 0.17578,-0.133 0.36328,-0.321 0.38281,-0.536"
     id="path24850" />
  <path
     fill-rule="nonzero"
     fill="#000000"
     fill-opacity="1"
     d="m 512.03093,232.13325 c -0.082,-0.344 -0.62891,-1.231 -1.09766,-1.594 -0.19531,-0.156 -0.45312,-0.242 -0.64062,-0.149 -0.24219,0.125 -0.32032,0.555 -0.27344,0.817 0.19531,0.441 0.64453,1.222 1.12109,1.683 0.22266,0.133 0.65235,0.137 0.8125,-0.02 0.15625,-0.156 0.1211,-0.535 0.0781,-0.734"
     id="path24851" />
  <path
     fill-rule="nonzero"
     fill="#000000"
     fill-opacity="1"
     d="m 509.6989,222.17225 c -0.0274,-0.254 -0.11719,-0.875 -0.25,-1.161 -0.0977,-0.207 -0.39063,-0.46 -0.66407,-0.371 -0.29687,0.102 -0.47656,0.512 -0.3789,0.821 0.0781,0.367 0.24218,0.828 0.42187,1.062 0.125,0.164 0.39453,0.254 0.61328,0.153 0.23438,-0.106 0.27735,-0.333 0.25782,-0.504"
     id="path24852" />
  <path
     fill-rule="nonzero"
     fill="#000000"
     fill-opacity="1"
     d="m 508.92546,217.37925 c -0.10156,0.605 -0.25391,0.988 -0.21485,1.73 0.0156,0.234 0.0625,0.492 0.30079,0.567 0.23046,0.07 0.4414,-0.11 0.55078,-0.309 0.17187,-0.32 0.22656,-0.746 0.30468,-1.094 0.0937,-0.418 0.13282,-0.906 0.0703,-1.305 -0.0312,-0.207 -0.11719,-0.382 -0.30469,-0.394 -0.36328,0.05 -0.65234,0.488 -0.70703,0.805"
     id="path24853" />
  <path
     fill-rule="nonzero"
     fill="#000000"
     fill-opacity="1"
     d="m 541.00749,235.73825 c -0.15234,0.08 -0.28516,0.215 -0.39453,0.352 -0.16797,0.214 -0.46485,0.515 -0.53125,0.761 -0.0312,0.121 0.008,0.246 0.10547,0.293 0.0937,0.04 0.22265,0 0.33593,-0.07 0.11329,-0.07 0.21875,-0.184 0.3086,-0.289 0.27734,-0.328 0.5,-0.656 0.60937,-0.887 0.0469,-0.1 0.0312,-0.187 -0.0351,-0.219 -0.082,-0.04 -0.25782,-0.01 -0.39844,0.06"
     id="path24854" />
  <path
     fill-rule="nonzero"
     fill="#000000"
     fill-opacity="1"
     d="m 543.5778,232.84025 c -0.29687,0.347 -0.69531,0.773 -0.91406,1.105 -0.0625,0.09 -0.0625,0.199 0.0391,0.301 0.0977,0.1 0.20703,0.1 0.32813,0.04 0.22265,-0.1 0.46875,-0.348 0.60547,-0.555 0.13671,-0.207 0.21093,-0.433 0.25,-0.656 0.0273,-0.16 0.0234,-0.305 -0.0742,-0.336 -0.0742,-0.02 -0.16407,0.02 -0.23438,0.1"
     id="path24855" />
  <path
     fill-rule="nonzero"
     fill="#000000"
     fill-opacity="1"
     d="m 545.10515,229.91025 c -0.15625,0.04 -0.33594,0.1 -0.42579,0.211 -0.10156,0.125 -0.33203,0.656 -0.36718,0.89 -0.0195,0.149 0.0351,0.372 0.15234,0.411 0.0898,0.03 0.20313,-0.05 0.30469,-0.153 0.32812,-0.332 0.58984,-0.761 0.76172,-1.152 0.0508,-0.121 0.0508,-0.195 -0.0117,-0.227 -0.0703,-0.04 -0.26172,-0.01 -0.41406,0.02"
     id="path24856" />
  <path
     fill-rule="nonzero"
     fill="#000000"
     fill-opacity="1"
     d="m 511.99968,211.41025 c 0.6875,0.08 1.41015,-0.211 2.04297,-0.613 2.48828,-1.59 5.3164,-3.133 6.96484,-4.661 0.51953,-0.48 0.72656,-1.113 0.51953,-1.566 -0.84766,-0.879 -3.87109,0.496 -5.85547,1.121 -1.33984,0.781 -3.5625,2.938 -4.3789,3.961 -0.28516,0.359 -0.44532,0.758 -0.30079,1.109 0.16407,0.415 0.55469,0.598 1.00782,0.649"
     id="path24857" />
  <path
     fill-rule="nonzero"
     fill="#000000"
     fill-opacity="1"
     d="m 538.49577,205.04325 c -1.46484,-0.946 -4.45703,-2.047 -6.3125,-2.504 -1.00391,-0.25 -2.25391,-0.453 -3.28906,-0.168 -0.67969,0.187 -1.20703,0.672 -1.3086,1.426 -0.0937,0.73 0.22657,1.464 0.71094,1.816 1.25,0.211 2.50391,0.418 3.75391,0.625 1.49219,0.695 2.98047,1.387 4.47265,2.082 0.65625,0.176 1.42579,0.133 2,-0.25 0.42188,-0.281 0.59375,-0.586 0.69532,-1.031 0.1914,-0.821 -0.1211,-1.61 -0.72266,-1.996"
     id="path24858" />
  <path
     fill-rule="nonzero"
     fill="#000000"
     fill-opacity="1"
     d="m 547.96452,219.69125 c -0.0195,-1.269 -0.72266,-4.117 -1.41016,-5.941 -0.35937,-0.949 -1.38281,-3.106 -1.96093,-3.571 -0.28516,-0.226 -0.72266,-0.32 -1.16797,-0.242 -0.48047,0.09 -0.82422,0.297 -1.07813,0.703 -0.24218,0.383 -0.30078,0.844 -0.23047,1.313 0.40625,2.656 1.64844,6.039 2.39844,8.344 0.19141,0.593 0.63281,1.046 1.38281,1.214 0.45704,0.102 0.94141,0.06 1.28907,-0.168 0.5664,-0.367 0.78515,-1.117 0.77734,-1.652"
     id="path24859" />
  <path
     fill-rule="nonzero"
     fill="#000000"
     fill-opacity="1"
     d="m 545.23015,226.46125 c -2.21485,2.578 -3.66016,5.773 -6.16797,8.73 -0.22657,0.715 0.0195,1.465 0.60547,1.742 0.55468,0.262 1.33203,0 2.01171,-0.422 1.33985,-0.839 2.74219,-2.464 3.64454,-3.66 0.76171,-1.008 1.63671,-2.152 1.98437,-3.242 0.32422,-1.035 0.29688,-2.359 -0.25,-2.918 -0.38281,-0.39 -1.07422,-0.574 -1.82812,-0.23"
     id="path24860" />
  <path
     fill-rule="nonzero"
     fill="#000000"
     fill-opacity="1"
     d="m 521.30436,243.45325 c 2.10938,0.715 5.38672,0.984 7.73829,1.164 0.65625,0.05 1.375,-0.125 1.96093,-0.676 0.40625,-0.387 0.59766,-0.773 0.64453,-1.187 0.0547,-0.43 -0.0898,-0.645 -0.32421,-0.77 -1.03125,-0.543 -6.66407,-1.183 -8.70313,-1.348 -0.4375,-0.03 -0.83984,0 -1.1875,0.262 -0.48828,0.367 -0.80469,1.219 -0.73828,1.813 0.0508,0.453 0.22266,0.609 0.60937,0.742"
     id="path24861" />
  <path
     fill-rule="nonzero"
     fill="#000000"
     fill-opacity="1"
     d="m 515.92155,237.25025 c -0.94922,-0.758 -1.89453,-1.52 -2.84375,-2.278 -0.97656,-1.304 -1.58203,-3.015 -2.03515,-4.347 -0.23829,-0.387 -0.40625,-0.528 -0.88282,-0.645 -0.60937,-0.144 -1.46875,-0.07 -1.76562,0.278 -0.41406,0.476 -0.0117,1.566 0.26172,2.382 0.47265,1.414 1.13281,3.352 2.08984,4.528 0.54688,0.672 1.63281,1.531 2.50391,1.8 0.66406,0.208 1.46484,0.106 2.02343,-0.246 0.58204,-0.375 0.80079,-0.996 0.64844,-1.472"
     id="path24862" />
  <path
     fill-rule="nonzero"
     fill="#000000"
     fill-opacity="1"
     d="m 508.75358,219.48025 c -0.0664,2.125 -0.47265,4.317 0.23438,6.391 0.30469,0.398 0.6914,0.582 1.19922,0.562 0.77734,-0.03 1.23047,-0.566 1.39453,-1.164 0.3125,-1.14 0.0937,-2.703 0.0898,-3.898 -0.008,-1.379 -0.0976,-2.66 -0.71094,-3.875 -0.1914,-0.379 -0.39062,-0.578 -0.80078,-0.574 -0.98437,-0.02 -1.19531,1.558 -1.40625,2.558"
     id="path24863" />
  <path
     fill-rule="nonzero"
     fill="#000000"
     fill-opacity="1"
     d="m 1008.0309,50.43725 0.5547,-1.14 -0.1601,-1.43 -0.8711,-0.574 -0.9141,0.574 -0.1992,1.43 0.5156,1.14 h 1.0742"
     id="path24864" />
  <path
     fill-rule="nonzero"
     fill="#000000"
     fill-opacity="1"
     d="m 952.2653,84.07025 c -2.08203,0.981 -4.1875,3.086 -6.14453,5.133 -2.77344,2.914 -4.08594,5.293 -4.92969,8.187 -0.75781,2.582 -1.76953,6.039 0.0352,7.516 1.44141,1.18 3.51562,0.477 5.20703,-1.086 3.48047,-3.219 9.15625,-9.203 12.53516,-13.727 1.53906,-2.058 1.875,-3.691 0.75,-5.105 -1.40625,-1.762 -4.6875,-2.223 -7.45313,-0.918"
     id="path24865" />
  <path
     fill-rule="nonzero"
     fill="#000000"
     fill-opacity="1"
     d="m 976.95671,65.36725 h 3.21875 c 0,0 -3.21875,-3.219 -3.21875,-3.219 v 3.219"
     id="path24866" />
  <path
     fill-rule="nonzero"
     fill="#000000"
     fill-opacity="1"
     d="m 991.30436,53.51525 c -2.35546,0.524 -7.29296,2.657 -10.40234,4.254 -3.42578,1.762 -7.91797,7.305 -6.67187,8.719 1.97656,1.469 7.96875,0.441 11.44531,-1.547 5.05859,-2.848 9.66015,-6.508 9.38672,-9.73 -0.47266,-1.293 -2.19532,-2.043 -3.75782,-1.696"
     id="path24867" />
  <path
     fill-rule="nonzero"
     fill="#000000"
     fill-opacity="1"
     d="m 1031.8278,32.13325 c -7.5742,2.238 -15.2461,5.859 -23.8789,10.214 -1.5508,1.172 -2.418,3.086 -1.9414,5.043 0.4961,2.039 1.957,2.223 4.082,1.914 4.8321,-0.707 9.7344,-2.015 14.1289,-4.078 3.0274,-1.422 7.0821,-2.847 9.7188,-5.527 1.7187,-1.746 2.4258,-3.941 1.7812,-5.656 -0.664,-1.758 -2.3828,-2.239 -3.8906,-1.91"
     id="path24868" />
  <path
     fill-rule="nonzero"
     fill="#000000"
     fill-opacity="1"
     d="m 1072.2927,19.50825 c -6.8711,-0.29 -11.5704,0.66 -17.8985,2.203 -2.0547,0.504 -4.1758,1.836 -5.3633,4.14 -0.7421,1.442 -0.9336,3.121 -0.7109,4.227 0.2695,1.34 0.9258,1.801 1.8555,1.937 4.0781,0.594 17.8945,-1.742 24.2656,-3.496 2.4219,-0.664 4.2539,-3.324 3.6367,-5.98 -0.5625,-2.426 -3.1601,-2.922 -5.7851,-3.031"
     id="path24869" />
  <path
     fill-rule="nonzero"
     fill="#000000"
     fill-opacity="1"
     d="m 1112.738,18.09025 c -4.4375,0.07 -14.2032,0.281 -17.8828,1.753 -1.1954,0.481 -1.7891,1.176 -1.8164,2.454 0,3.125 4.2851,4.105 6.0859,5.691 2.4844,1.207 8.3086,1.281 11.625,0.746 1.8711,-0.305 3.375,-1.16 4.6641,-2.801 1.2812,-1.636 1.9531,-3.652 1.3632,-5.414 -0.5898,-1.773 -2.1172,-2.457 -4.039,-2.429"
     id="path24870" />
  <path
     fill-rule="nonzero"
     fill="#000000"
     fill-opacity="1"
     d="m 1149.527,27.48025 c -6.7617,-0.695 -14.0156,-2.902 -17.5273,-0.808 -1.2969,1.57 0.4805,5.058 3.2539,6.484 4.7187,1.543 9.4375,3.082 14.1523,4.625 1.586,0.562 3.5704,0.809 5.9219,0.156 2.2422,-0.625 3.7656,-1.812 3.6797,-3.199 -0.1289,-2.086 -5.8477,-6.426 -9.4805,-7.258"
     id="path24871" />
  <path
     fill-rule="nonzero"
     fill="#000000"
     fill-opacity="1"
     d="m 1195.7848,47.27325 c -3.4375,-2.336 -10.746,-4.484 -13.9023,-5.695 -2.2773,-1.051 -7.5273,-0.727 -9.1719,2.012 -0.9218,1.738 -0.1133,4.128 1.375,5.394 2.8828,2.449 12.1602,5.559 13.9453,6.356 1.3946,0.625 3.7696,0.687 5.8829,0.07 2.2031,-0.645 3.6992,-1.926 3.9726,-3.758 0.2656,-1.789 -0.7031,-3.426 -2.1016,-4.379"
     id="path24872" />
  <path
     fill-rule="nonzero"
     fill="#000000"
     fill-opacity="1"
     d="m 1228.0622,77.34725 c -1.3399,-1.906 -6.1524,-7.609 -10.9492,-11.234 -2.1914,-1.656 -4.3203,-2.336 -6.1563,-1.184 -1.1523,0.723 -1.9258,2.161 -2.0429,3.497 -0.1446,1.632 0.375,2.714 1.4609,4.246 2.8516,4.031 7.0039,9.066 10.1719,11.867 1.8672,1.648 3.9726,2.332 5.8086,1.203 2.8281,-2.008 3.164,-6.953 1.707,-8.395"
     id="path24873" />
  <path
     fill-rule="nonzero"
     fill="#000000"
     fill-opacity="1"
     d="m 1251.8356,113.41825 c -0.1172,-2.2 -2.0937,-5.422 -3.6289,-8.582 -0.9609,-1.985 -2.2383,-4.282 -4.3554,-5.282 -1.3125,-0.617 -2.8321,-0.593 -3.9571,0.102 -1.8711,1.164 -2.4219,3.512 -1.7929,5.684 1.2343,4.246 3.5234,8.269 4.7539,10.41 0.8125,1.992 4.1445,4.039 6.5507,2.711 1.7813,-0.957 2.5157,-3.407 2.4297,-5.043"
     id="path24874" />
  <path
     fill-rule="nonzero"
     fill="#000000"
     fill-opacity="1"
     d="m 1265.5153,155.97225 c 0.8008,-2.293 0.7422,-6 0.07,-8.609 -1.6562,-2.91 -2.0703,-8.906 -6.4375,-9.645 -1.9765,0.06 -3.5429,1.805 -4.0781,3.77 -0.8672,3.172 0.7617,8.465 1.5,12.23 0.3438,1.766 1.207,3.317 2.9219,4.344 1.0859,0.649 2.5078,1.016 3.625,0.621 1.3398,-0.468 2,-1.582 2.3984,-2.711"
     id="path24875" />
  <path
     fill-rule="nonzero"
     fill="#000000"
     fill-opacity="1"
     d="m 1262.4098,180.08625 c -1.1171,2.929 -1.7851,6.949 -2.0546,10.031 -0.2032,2.344 -0.6094,5.797 0.9804,7.906 0.9375,1.242 2.125,1.805 3.6758,1.75 1.5156,-0.05 2.7344,-0.765 3.5352,-1.836 2.0117,-5.191 0.7226,-12.031 0.957,-17.676 -0.2656,-1.875 -0.9727,-3.468 -2.9141,-3.543 -1.9961,-0.08 -3.4609,1.469 -4.1797,3.368"
     id="path24876" />
  <path
     fill-rule="nonzero"
     fill="#000000"
     fill-opacity="1"
     d="m 1259.9528,224.25025 c -2.7695,4.679 -6.1875,13.593 -7.1445,17.73 -0.3203,3.094 -0.8828,7.567 2.3672,9.145 1.3437,0.672 2.6406,0.73 4.25,0.101 1.4258,-0.554 2.6328,-1.64 3.3789,-2.918 3.0547,-5.195 3.4062,-13.675 4.375,-20.015 0.4492,-2.93 0.8515,-6.715 -0.7578,-7.348 -1.918,-0.75 -5.1016,1 -6.4688,3.305"
     id="path24877" />
  <path
     fill-rule="nonzero"
     fill="#000000"
     fill-opacity="1"
     d="m 1222.3942,305.73425 c -2.1015,0.731 -4.2851,2.473 -6.0937,4.016 -2.8282,2.414 -6.0235,5.816 -7.4102,9.324 -0.8555,2.168 -0.8906,4.457 0.3789,5.66 1.6875,1.539 5.3555,1.133 7.4922,-1.125 3.8086,-3.476 8.5781,-9.25 11.8594,-12.863 1.4961,-1.645 2.0117,-2.938 1.043,-3.953 -1.1875,-1.246 -4.5782,-2 -7.2696,-1.059"
     id="path24878" />
  <path
     fill-rule="nonzero"
     fill="#000000"
     fill-opacity="1"
     d="m 1182.1208,338.63625 c -7.4375,3.7 -11.5742,5.438 -17.7852,9.774 -1.8476,1.293 -2.3672,3.375 -2.5273,5.625 -0.1445,2.098 0,4.41 1.1211,5.461 1.4726,1.375 5.1875,1.312 7.7148,0.363 3.3672,-1.262 7.0821,-4.152 9.2071,-5.703 2.5117,-1.832 8.0078,-6.125 9.8515,-9.914 0.9297,-1.914 0.5664,-3.797 -0.5937,-4.84 -1.461,-1.312 -4.8008,-1.855 -6.9883,-0.766"
     id="path24879" />
  <path
     fill-rule="nonzero"
     fill="#000000"
     fill-opacity="1"
     d="m 1131.8708,361.41825 c -5.3164,2.543 -11.7852,3.937 -15.0352,7.855 -0.6054,1.238 -0.6992,2.832 -0.051,4.063 1.0977,2.086 3.3165,2.312 5.4297,1.953 5.6875,-0.965 12.2149,-4.09 15.793,-7.903 1.5625,-1.66 1.9766,-3.531 1.0234,-4.675 -1.1562,-1.387 -4.5586,-1.938 -7.1601,-1.293"
     id="path24880" />
  <path
     fill-rule="nonzero"
     fill="#000000"
     fill-opacity="1"
     d="m 1095.402,366.61725 c -6.6992,-0.274 -12.0078,0.484 -17.9336,2.242 -2.5,0.442 -4.1836,3.418 -3.6367,6.457 0.5196,3.117 3.0899,4.656 5.7383,4.551 4.9961,0.301 11.4648,-1.078 16.0195,-2.211 1.8946,-0.473 4.2344,-1.406 5.25,-2.816 0.8868,-1.235 1.1446,-3.477 0.4805,-5.286 -0.8672,-2.371 -3.1602,-2.824 -5.918,-2.937"
     id="path24881" />
  <path
     fill-rule="nonzero"
     fill="#000000"
     fill-opacity="1"
     d="m 1050.3981,366.57025 c -1.2695,-1.738 -15.1953,-6.75 -18.9726,-6.668 -1.3047,0.03 -2.7305,0.672 -3.4453,1.813 -1.1719,1.863 -0.4375,4.074 1.2343,5.886 1.6133,1.754 3.961,2.903 5.875,3.645 3.4727,1.34 7.1836,3.121 10.3125,2.558 1.9297,-0.347 4.293,-1.91 5.2227,-3.918 0.6055,-1.308 0.4062,-2.449 -0.2266,-3.316"
     id="path24882" />
  <path
     fill-rule="nonzero"
     fill="#000000"
     fill-opacity="1"
     d="m 1004.488,347.98025 c -2.9649,-2.941 -7.10551,-6.168 -11.25785,-8.465 -1.51563,-0.836 -2.62891,-1.312 -4.23829,-1.121 -1.35937,0.16 -2.71875,0.907 -3.44921,2.098 -1.14454,1.867 -0.40235,3.859 1.16406,5.387 4.64062,4.527 7.80078,6.406 13.79689,10.203 2.0312,1.289 3.9922,2.328 6.3008,1.992 1.4375,-0.211 2.6992,-0.922 3.3476,-1.848 1.668,-2.699 -3.0078,-4.886 -5.664,-8.246"
     id="path24883" />
  <path
     fill-rule="nonzero"
     fill="#000000"
     fill-opacity="1"
     d="m 971.39811,318.25425 c -1.58203,-1.836 -9.03906,-8.102 -11.4375,-8.879 -1.10937,-0.364 -2.48828,-0.274 -3.5625,0.472 -1.7539,1.215 -2.5039,3.582 -1.77734,5.59 1.05469,2.918 6.92188,9.965 9.19141,11.891 1.33203,1.129 2.58984,1.551 4.25781,1.41 1.42578,-0.121 2.75,-0.844 3.50391,-1.824 1.84375,-2.395 1.07812,-7.207 -0.17579,-8.66"
     id="path24884" />
  <path
     fill-rule="nonzero"
     fill="#000000"
     fill-opacity="1"
     d="m 945.01921,294.03125 c 0.72265,-1.777 0.42969,-3.484 -0.55469,-4.973 -1.91797,-2.89 -8.67969,-12.48 -11.23828,-14.027 -1.67969,-1.012 -4.16406,-1.016 -5.80859,0.09 -1.64844,1.109 -2.35938,3.297 -2.5625,5.437 -0.21094,2.2 0.21484,3.743 1.3164,5.246 2.46875,3.372 9.1875,11.7 11.25,12.497 1.59375,0.617 3.57031,0.05 5.2461,-1.274 1,-0.785 1.90625,-1.89 2.35156,-2.992"
     id="path24885" />
  <path
     fill-rule="nonzero"
     fill="#000000"
     fill-opacity="1"
     d="m 926.24968,254.22225 c 0.41406,-5.195 -0.57032,-8.699 -2.09766,-14.336 -0.58594,-2.16 -3.14062,-9.632 -4.68359,-11.429 -0.79297,-0.922 -2.19532,-1.528 -3.67188,-1.172 -2.46875,0.598 -3.59765,2.891 -3.65234,5.004 -0.10938,4.094 0.4414,10.551 1.25781,14.07 0.66016,2.844 2.19922,7.859 3.73438,10.129 0.99218,1.469 3.8125,2.332 6.58593,1.563 1.97657,-0.551 2.36719,-1.821 2.52735,-3.829"
     id="path24886" />
  <path
     fill-rule="nonzero"
     fill="#000000"
     fill-opacity="1"
     d="m 922.17155,200.55825 c -0.25781,-2.277 -1.0664,-7.953 -2.29297,-10.539 -0.875,-1.91 -3.58593,-4.07 -6.02734,-3.238 -1.98828,0.781 -2.58594,3.039 -2.5625,5.141 0.0273,3.027 0.98828,7.336 2.03516,10.105 0.48046,1.262 1.04687,2.309 2.40625,3 1.23046,0.621 2.83203,0.727 4.09765,0.149 2.13281,-0.969 2.51953,-3.028 2.34375,-4.618"
     id="path24887" />
  <path
     fill-rule="nonzero"
     fill="#000000"
     fill-opacity="1"
     d="m 916.99968,153.00825 c -1.84375,3.96 -2.81641,9.539 -3.51172,13.875 -0.39844,2.476 -0.83594,5.523 -0.082,8.066 0.38672,1.297 1.03906,2.477 2.51562,2.914 2.09375,0.621 4.01563,-0.957 5,-2.711 2.03906,-3.641 2.58594,-8.996 3.14063,-11.801 0.53515,-2.707 0.61718,-7.113 0.23437,-10.027 -0.2539,-1.93 -0.95312,-3.523 -2.89062,-3.609 -1.96094,-0.09 -3.54688,1.445 -4.40625,3.293"
     id="path24888" />
  <path
     fill-rule="nonzero"
     fill="#000000"
     fill-opacity="1"
     d="m 933.48796,112.75025 c -2.11719,0.937 -4.10547,4.504 -5.7461,7.371 -2.1875,3.824 -4.26171,7.972 -4.49609,12.078 -0.10547,1.859 0.55859,4.43 2.30859,5.547 1.10547,0.707 2.58985,0.715 3.92969,0.168 2.67578,-1.098 5.10156,-4.113 5.92188,-5.754 1.30078,-2.594 5.66797,-9.535 6.26562,-13.379 0.40235,-2.582 -0.33984,-4.961 -2.53906,-5.949 -1.6875,-0.758 -4.15625,-0.742 -5.64453,-0.08"
     id="path24889" />
  <path
     fill-rule="nonzero"
     fill="#000000"
     fill-opacity="1"
     d="m 1046.82,24.83225 c 1.4375,0.398 4.2383,0.363 5.6875,0.01 1.2188,-0.289 5.2109,-1.859 6.375,-2.988 0.9531,-0.922 1.3359,-2.664 0.9297,-3.433 -0.3516,-0.672 -1.5156,-0.543 -2.7617,-0.364 -3.3321,0.485 -7.4649,1.762 -10.293,2.614 -0.6328,0.187 -1.0586,0.449 -1.3594,1.117 -0.2968,0.664 -0.2851,1.297 0.027,1.949 0.3203,0.668 0.7383,0.906 1.3945,1.09"
     id="path24890" />
  <path
     fill-rule="nonzero"
     fill="#000000"
     fill-opacity="1"
     d="m 1209.6833,323.27725 c -3.0547,2.484 -5.5625,6.27 -7.4649,9.484 -0.4101,1.325 0.027,3.215 0.9727,3.629 0.8945,0.387 2.0391,-0.773 3.0547,-1.66 2.4062,-2.097 5.957,-5.359 7.4336,-7.601 1.039,-1.575 1.3906,-4.719 0.6094,-4.961 -0.6446,-0.2 -3.2383,0.332 -4.6055,1.109"
     id="path24891" />
  <path
     fill-rule="nonzero"
     fill="#000000"
     fill-opacity="1"
     d="m 1235.6364,296.64025 c -2.957,4.496 -7.5859,6.75 -10.3008,10.536 -0.098,0.632 0.2032,1.375 0.7227,1.91 0.8867,0.914 1.8711,0.879 2.9648,0.41 1.9766,-0.84 4.3711,-2.719 5.9102,-4.246 1.168,-1.164 1.582,-2.453 2.0117,-3.852 0.4727,-1.535 1.1992,-3.769 0.6445,-4.652 -0.3203,-0.516 -1.1836,-0.578 -1.9531,-0.106"
     id="path24892" />
  <path
     fill-rule="nonzero"
     fill="#000000"
     fill-opacity="1"
     d="m 1247.5153,270.62925 c -1.3867,0.293 -2.4375,0.929 -3.0469,1.656 -0.9843,1.172 -2.2539,4.285 -2.6015,7.137 -0.1797,1.461 0.066,2.992 0.7695,3.433 0.7734,0.485 1.8516,-0.176 2.9453,-1.234 0.9219,-0.891 2.4063,-2.895 3.2539,-4.211 1.6172,-2.418 2.8789,-5.141 2.043,-6.289 -0.5391,-0.738 -2.1445,-0.75 -3.3633,-0.492"
     id="path24893" />
  <path
     fill-rule="nonzero"
     fill="#000000"
     fill-opacity="1"
     d="m 536.00358,196.44125 c -5.4414,1.301 -9.52734,3.277 -15.85937,6.938 -1.61328,0.925 -2.88281,2.382 -2.04688,3.562 0.48047,0.567 1.75391,0.496 2.94532,0.199 9.27734,-3.164 11.91015,-5.289 17.66406,-7.871 1.0039,-0.519 1.83984,-1.172 1.14844,-2.117 -0.73438,-0.906 -2.39844,-1.059 -3.85157,-0.711"
     id="path24894" />
  <path
     fill-rule="nonzero"
     fill="#000000"
     fill-opacity="1"
     d="m 607.17936,174.48025 c -2.28125,-0.172 -4.60156,0.594 -5.76953,1.028 -2.97656,1.101 -6.15234,2.398 -8.38281,4.089 -0.89062,0.676 -1.81641,1.985 -1.39062,3.246 0.39453,1.133 1.79296,1.336 3.19921,0.516 4.45313,-3.492 11.57813,-4.109 14.94532,-7.59 -0.15625,-0.816 -0.90625,-1.164 -2.60157,-1.289"
     id="path24895" />
  <path
     fill-rule="nonzero"
     fill="#000000"
     fill-opacity="1"
     d="m 673.43718,149.55825 c -4.3086,0.981 -7.07422,3.063 -11.09766,4.899 -1.08594,0.636 -2.02344,1.633 -1.94531,2.59 0.0547,0.664 0.42578,0.941 1.60156,0.937 1.63672,0 4.20313,-0.816 5.82031,-1.594 2.7461,-1.32 5.75,-2.183 8.14063,-4.422 0.71094,-0.667 1.16406,-1.46 0.5,-2.074 -0.53125,-0.488 -1.89844,-0.511 -3.01953,-0.336"
     id="path24896" />
  <path
     fill-rule="nonzero"
     fill="#000000"
     fill-opacity="1"
     d="m 747.30046,123.47225 c -3.33985,-0.187 -6.17969,0.618 -7.42188,1.039 -3.75,1.274 -9.07031,4.602 -12.49609,6.489 -1.26953,0.683 -2.21875,1.82 -1.66406,3.117 0.32422,0.621 1.22656,0.769 2.26562,0.625 1.58203,-0.219 3.5,-0.941 5.11328,-1.496 8.38282,-3.863 12.69922,-4.949 17.95313,-8.442 -0.17578,-0.836 -1.26953,-1.191 -3.75,-1.332"
     id="path24897" />
  <path
     fill-rule="nonzero"
     fill="#000000"
     fill-opacity="1"
     d="m 799.77702,102.38325 c -3.55469,1.535 -7.60547,2.578 -9.53516,4.312 -0.60156,0.543 -0.96875,1.211 -0.66796,2.113 0.23437,0.696 1,1.215 1.80859,1.274 4.96094,-1.289 10.44922,-3.895 16.78516,-7.188 0.66796,-0.679 0.94531,-1.593 0.41015,-2.066 -1.62109,-1.125 -6.38672,0.512 -8.80078,1.555"
     id="path24898" />
  <path
     fill-rule="nonzero"
     fill="#000000"
     fill-opacity="1"
     d="m 873.73015,79.47625 c -1.94922,-0.133 -3.32422,0.141 -5.08594,0.52 -6.50391,1.39 -10.44922,3.121 -14.28516,5.012 -0.85156,0.418 -1.60156,0.925 -1.49219,1.539 0.14844,0.816 0.89454,1.168 2.4961,1.296 1.58203,0.129 2.63281,-0.156 3.94531,-0.523 4.41797,-1.277 10.03125,-2.234 16.63281,-6.441 0.50391,0.3 -0.78125,-1.973 -2.21093,-1.403"
     id="path24899" />
  <path
     fill-rule="nonzero"
     fill="#000000"
     fill-opacity="1"
     d="m 927.69108,57.48425 c -3.17968,-0.187 -6.07812,0.602 -7.28125,1.031 -1.32812,0.477 -2.55859,1.141 -3.57422,2.172 -1.03906,1.055 -1.69921,2.395 -0.99218,3.492 0.43359,0.68 1.16406,0.969 2.16015,0.731 -0.38281,0.09 13.0625,-5.906 13.06641,-6.094 0.0312,-0.836 -1.10547,-1.199 -3.37891,-1.332"
     id="path24900" />
  <path
     fill-rule="nonzero"
     fill="#000000"
     fill-opacity="1"
     d="m 990.60124,37.48825 c -3.97266,1.797 -16.38281,5.789 -16.80469,7.734 0.33203,0.664 2.59766,1.008 5.66797,0.563 9.01563,-2.324 10.74219,-3.84 16.03516,-5.856 1.03906,-0.562 2.05468,-1.316 2.21093,-2.015 l -0.30859,-1.016 c -1.38672,-1.035 -5.19141,-0.02 -6.80078,0.59"
     id="path24901" />
  <path
     fill-rule="nonzero"
     fill="#000000"
     fill-opacity="1"
     d="m 552.23796,249.62125 c -2.57422,-1.258 -16.76172,-3.36 -20.75391,-3.301 -1.35547,0.02 -2.3164,0.492 -2.59375,1.18 -0.38281,0.929 0.0977,1.574 1.30078,2.148 2.57032,1.223 9.9336,2.266 17.65235,2.32 3.44922,0.03 4.77734,-0.191 5.48437,-0.726 0.66797,-0.508 -0.0234,-1.102 -1.08984,-1.621"
     id="path24902" />
  <path
     fill-rule="nonzero"
     fill="#000000"
     fill-opacity="1"
     d="m 620.48405,268.03125 c -2.5625,-0.613 -6.14062,-1.246 -9.28515,-1.418 -2.11719,-0.117 -4.03907,0.145 -4.22266,0.957 l 0.83984,1.582 c 1.23047,0.918 4.55469,1.805 6.89844,2.211 2.52344,0.438 5.42578,0.566 6.94531,0.367 -0.5625,0.449 3.91797,-1.297 2.46094,-1.855 -0.29297,-0.758 -1.875,-1.422 -3.63672,-1.844"
     id="path24903" />
  <path
     fill-rule="nonzero"
     fill="#000000"
     fill-opacity="1"
     d="m 688.84343,283.92625 c -5.39844,-0.801 -10.44532,-0.75 -11.3086,0.25 -0.51562,0.597 -0.1289,1.292 1.42578,1.992 1.51172,0.679 3.96094,1.312 6.98438,1.597 2.78125,0.266 5.55078,0.145 6.84375,-0.339 l 1.02344,-1 c 0.64453,-1.09 -1.8125,-2.051 -4.96875,-2.5"
     id="path24904" />
  <path
     fill-rule="nonzero"
     fill="#000000"
     fill-opacity="1"
     d="m 767.9528,302.17625 c -1.53906,-0.653 -4.39062,-1.45 -7.77344,-2.067 -8.24609,-1.5 -8.65625,-1.23 -13.44921,-1.68 -1.14454,-0.105 -2.28125,0.04 -2.71094,0.711 -0.55469,0.864 -0.0352,1.739 0.65234,2.348 1.13281,1.004 2.875,1.34 5.11328,1.82 3.92578,0.844 10.73828,1.989 15.52344,2.422 2.88281,0.285 5.57031,0 5.51172,-1.187 0.21094,-0.891 -1.42188,-1.754 -2.86719,-2.367"
     id="path24905" />
  <path
     fill-rule="nonzero"
     fill="#000000"
     fill-opacity="1"
     d="m 828.11686,315.01125 c -2.6875,-0.726 -7.25,-1.679 -11.45703,-1.769 -3.99609,-0.145 -5.89453,0.812 -5.71875,1.707 1.45313,1.324 5.21875,1.969 11.5,2.801 3.66797,0.293 8.03516,-0.04 7.96485,-1.215 0.24218,-0.582 -0.82032,-1.129 -2.28907,-1.524"
     id="path24906" />
  <path
     fill-rule="nonzero"
     fill="#000000"
     fill-opacity="1"
     d="m 897.45671,334.06625 c -2.42969,-1.09 -6.08594,-2.09 -10.22656,-3.062 -2.59766,-0.614 -6.3086,-1.754 -9.15235,-1.516 -1.45312,0.121 -2.24609,0.504 -2.01953,1.426 0.16797,0.691 1.3125,1.457 2.63672,2.023 6.16016,2.617 12.78906,3.992 18.20312,4.797 1.85547,0.309 3.35547,0 3.1211,-1.289 -0.10156,-1.086 -1.44922,-1.879 -2.5625,-2.379"
     id="path24907" />
  <path
     fill-rule="nonzero"
     fill="#000000"
     fill-opacity="1"
     d="m 955.35124,344.84725 c -1.02344,-0.519 -2.87891,-1.027 -4.89844,-1.293 -2.27734,-0.304 -4.45312,-0.457 -6.50781,0.137 -1.72656,0.5 -2.46875,1.492 -2.11328,2.367 3.3164,1.102 14.16406,3.035 15.89062,2.301 0.60157,-0.984 -0.58984,-2.586 -2.37109,-3.512"
     id="path24908" />
  <path
     fill-rule="nonzero"
     fill="#000000"
     fill-opacity="1"
     d="m 1020.8317,364.01925 c -4.8828,-1.254 -12.4961,-2.691 -17.5078,-3.566 -2.0039,-0.352 -3.3203,-0.223 -3.75391,0.707 -0.44141,0.949 0.59371,1.582 1.82811,2.113 3.3867,1.492 12.1016,3.809 18.8281,4.695 1.8829,0.141 4.004,-0.09 4.3946,-1.222 0.539,-1.25 -1.4766,-2.145 -3.7891,-2.727"
     id="path24909" />
  <path
     fill-rule="nonzero"
     fill="#000000"
     fill-opacity="1"
     d="m 951.84733,212.67625 c 1.03907,-0.317 1.54297,-1.235 2.05469,-2.442 1.84375,-5.836 3.6875,-11.672 5.53125,-17.512 1.02734,-2.644 2.17188,-7.543 4.09766,-8.867 0.78515,0.03 1.55468,1.567 2.125,2.848 2.92187,8.277 4.95703,13.992 8.34765,21.133 0.59375,1.035 1.47266,2.281 2.44532,2.539 1.14453,0.301 1.91015,-0.395 2.41796,-1.614 0.57422,-1.371 0.40625,-2.464 0.16407,-3.472 -1.0625,-4.469 -6.0586,-15.321 -8.07032,-20.113 -1.55078,-3.696 -2.70312,-7.043 -5.33984,-10.516 -0.57812,-0.762 -1.48437,-1.742 -2.44141,-1.996 l -1.44921,0.07 c -0.91407,0.387 -1.44532,1.438 -1.92188,2.695 -3.57031,13.872 -6.82422,15.832 -10.10937,31.153 -0.41016,2.304 -0.41407,5.304 0.88671,5.969 l 1.26172,0.125"
     id="path24910" />
  <path
     fill-rule="nonzero"
     fill="#000000"
     fill-opacity="1"
     d="m 965.84343,195.55425 c -1.96485,-0.449 -5.13282,-0.433 -8.16407,0.05 l -4.11328,0.985 c 0.58594,-0.727 -4.26953,3.008 -2.57422,3.074 l 1.59766,1.074 c 3.1875,0.82 9.75,-0.328 12.60938,-0.984 1.5039,-0.446 2.60156,-1.074 2.82812,-1.953 0.50391,0.496 -0.79687,-2.539 -2.18359,-2.243"
     id="path24911" />
  <path
     fill-rule="nonzero"
     fill="#000000"
     fill-opacity="1"
     d="m 1012.4958,209.66825 -1.8125,-0.996 c -5.0156,-1.082 -12.92581,1.125 -14.20706,0.488 -0.69141,-0.434 -2.36328,-27.145 -2.94531,-29.93 -0.32032,-1.535 -0.76172,-2.996 -1.45703,-3.789 -0.67188,-0.773 -1.69532,-1.043 -2.38282,-0.469 -0.73828,0.61 -1.03906,1.914 -1.07422,3.536 1.16797,4.398 1.08594,21.156 2.72657,32.285 l 2.28125,2.328 3.59765,0.805 c 5.47657,-0.02 11.53907,-0.743 14.15627,-1.825 -0.2422,0.575 2.5156,-2.308 1.1172,-2.433"
     id="path24912" />
  <path
     fill-rule="nonzero"
     fill="#000000"
     fill-opacity="1"
     d="m 1030.2263,174.52725 c -1.5313,0.625 -3.3672,1.809 -5.3633,3.356 -1.9375,1.503 -3.5,3.253 -4.8985,5.281 -1.3984,2.031 -2.2304,3.277 -2.8359,6.222 -0.4844,2.368 -0.9727,6.704 -0.8203,9.946 0.09,1.996 0.457,3.191 0.8984,4.109 0.8477,1.77 3.7305,5.641 6.8399,8.344 1.8281,1.59 3.4257,2.453 5.3047,2.875 3.2304,0.691 6.8593,0.199 9.1914,-1.168 0.9609,-0.559 1.9492,-1.352 2.6171,-2.348 0.6954,-1.031 1.1094,-2.234 0.9766,-3.234 -0.1445,-1.059 -0.7148,-1.492 -1.8008,-1.442 -3,0.309 -3.6093,3.094 -7.6484,2.536 -2.2227,-0.414 -3.625,-1.11 -6.0117,-3.012 -3.086,-2.441 -4.5274,-4.887 -5.0899,-6.82 -0.6054,-2.036 -0.4453,-4.477 -0.082,-6.028 0.6914,-2.984 1.7187,-4.804 3.4062,-7.062 1.2383,-1.656 3.6055,-3.887 5.8282,-5.414 2.1289,-1.465 3.8203,-2.45 6.039,-2.621 2.1641,0.191 4.3243,0.379 6.4883,0.57 0.035,0.644 1.0781,-2.113 -0.074,-2.875 -1.1914,-1.391 -2.9727,-2.098 -5.6992,-2.344 -3.5938,-0.324 -6.3164,0.742 -7.2656,1.129"
     id="path24913" />
  <path
     fill-rule="nonzero"
     fill="#000000"
     fill-opacity="1"
     d="m 1054.8747,210.25825 c -1.0859,0 -2.3477,0.425 -2.7344,1.394 -0.3789,0.949 0.1016,2.117 1.5469,2.695 l 2.0625,0.192 c 1.5156,-0.219 2.1523,-1.043 2.1914,-2.02 -0.01,-1.242 -1.4805,-2.25 -3.0664,-2.261"
     id="path24914" />
  <path
     fill-rule="nonzero"
     fill="#000000"
     fill-opacity="1"
     d="m 1111.9138,206.65225 c 0.8125,-5.969 -1.1055,-15.789 -1.9454,-24.976 -0.5078,-2.922 -1.0703,-5.094 -2.0976,-5.672 0.4805,-0.723 -2.5625,1.277 -2.2344,3.168 -0.6445,12.55 2.6602,26.023 1.8086,27.175 0.1563,0.637 0.7148,1.883 1.8906,2.207 -0.5742,0.45 2.9414,-0.57 2.5782,-1.902"
     id="path24915" />
  <path
     fill-rule="nonzero"
     fill="#000000"
     fill-opacity="1"
     d="m 1162.6169,203.89425 -2.3399,-0.484 c -6.6211,-0.03 -18.457,3.09 -20.3828,1.32 -0.5429,-0.676 8.5039,-15.75 8.586,-15.996 0.6132,-1.824 1.5859,-5.141 1.7773,-8.594 0.1055,-1.941 0,-3.066 -0.5469,-4.55 -0.7031,-1.911 -1.9062,-3.454 -3.4922,-4.063 -1.2226,-0.465 -2.5586,-0.531 -4.6328,-0.387 -1.8125,0.125 -3.6679,0.403 -5.2304,1.114 -1.6446,0.75 -3.1758,1.91 -4.7852,3.757 -1.7891,2.051 -2.5781,3.493 -2.9297,5.282 -0.3906,2.179 0.7852,3.218 1.7149,3.597 1.0703,0.418 2.6875,0.164 3.4414,-0.914 0.2734,-1.218 0.5429,-2.437 0.8164,-3.66 0.8242,-1.562 3.5664,-3.043 5.2383,-3.742 1.25,-0.52 2.4726,-0.797 3.2695,-0.266 0.5625,0.379 1.0469,1.137 1.2187,2.571 0.3789,3.222 -0.6718,7.449 -1.1836,8.871 -1.2421,3.754 -4.4101,7.871 -10.8086,16.726 -0.012,-0.984 -1.1875,4.332 -0.019,4.305 l 2.2539,1.531 c 2.1641,0.789 4.9414,0.68 7.711,0.477 5.3437,-0.399 10.0195,-0.949 15.5703,-1.93 3.0312,-0.535 4.5976,-0.922 5.5976,-2.141 0.211,0.641 0.4766,-3.066 -0.8437,-2.824 m -23.7701,2.262 -0.5273,0.527 -0.5273,-0.527 0.5273,-0.527 0.5273,0.527"
     id="path24916" />
  <path
     fill-rule="nonzero"
     fill="#000000"
     fill-opacity="1"
     d="m 1197.7536,168.93725 c -6.1211,12.899 -15.082,23.977 -21.4688,34.93 -0.7968,1.371 -2,2.801 -1.9101,4.785 0.051,1.066 0.5078,2.285 1.3555,2.703 l 1.4531,0.09 c 0.9726,-0.305 1.8515,-1.484 2.4414,-2.406 5.4922,-8.571 10.1836,-16.535 18.668,-28.625 1.8554,-3.067 3.1562,-5.614 3.7304,-7.969 0.5313,-1.426 0.2422,-3.844 -1.1914,-4.488 -1.0586,-0.485 -2.0976,-0.03 -3.0781,0.98"
     id="path24917" />
  <path
     fill-rule="nonzero"
     fill="#000000"
     fill-opacity="1"
     d="m 1183.9333,159.54725 c -5.5313,1.785 -5.4492,3.074 -12.8399,4.953 -0.9492,0.797 -1.4531,1.937 -1.6718,3.383 -0.336,2.234 0.1093,4.726 1.2109,6.308 0.7227,1.039 1.8828,1.852 3.0352,2.34 1.3398,0.566 2.3632,0.664 3.7851,0.566 2.5899,-0.171 4.4649,-0.707 6.7305,-2.668 1.8633,-1.468 4.6094,-4.703 5.3359,-8.328 0.3633,1.321 -0.3281,-6.711 -1.4844,-5.761 -1.3281,-1.235 -2.8867,-1 -4.1015,-0.793 m -3.6797,10.953 c -1.1406,0.504 -2.5625,0.832 -3.9492,0.215 l -1.3985,-1.231 c -0.7265,-1.086 -0.3945,-2.101 0.02,-2.363 0.7734,0.265 1.5508,0.535 2.3242,0.801 1.6836,-1.137 3.3672,-2.274 5.0508,-3.411 1.1758,-0.488 2.4492,-0.609 2.5781,0.34 -0.1406,1.637 -2.1914,4.34 -4.625,5.649"
     id="path24918" />
  <path
     fill-rule="nonzero"
     fill="#000000"
     fill-opacity="1"
     d="m 1207.4997,201.51125 c -1.9336,-1.312 -3.3672,-0.64 -4.8516,-0.847 -2.0664,-0.07 -1.8437,-2.789 -4.3476,-2.434 -1.3477,0.301 -3.418,1.871 -5.0196,4.621 -1.4023,2.407 -1.6523,4.899 -1.414,6.188 1.0508,2.504 2.6992,3.254 4.3203,4.203 1.6445,0.734 4.0312,1.035 6.3047,0.457 1.6015,-0.531 3.6211,-1.023 5.4648,-3.742 -0.2656,1.449 2.5196,-5.938 1.2422,-6.332 l -1.6992,-2.114 m -4.2578,6.176 c -1.1641,0.399 -2.5196,0.656 -3.9414,0.05 -1.3008,-0.558 -1.8672,-1.586 -1.7969,-2.683 0.066,-1.067 0.9336,-1.348 1.3594,-1.192 0.6211,0.227 6.1133,3.485 5.9453,2.582 0.055,0.289 -0.457,0.867 -1.5664,1.246"
     id="path24919" />
  <path
     fill-rule="nonzero"
     fill="#000000"
     fill-opacity="1"
     d="m 514.12077,225.66825 c -0.52344,-1.02 -1.12109,-2.496 -1.50781,-3.7 -0.27344,-0.625 -0.55078,-1.339 -0.98828,-1.921 -0.082,-0.11 -0.19532,-0.235 -0.31641,-0.289 -0.12109,-0.06 -0.25391,-0.05 -0.34766,0 -0.69531,1.964 -1.6289,4.16 -2.1289,6.222 -0.0352,0.215 -0.082,0.52 0.0625,0.715 0.0859,0.113 0.1914,0.164 0.32812,0.16 0.21485,0 0.33203,-0.148 0.39063,-0.304 0.32031,-1.047 0.64062,-2.09 0.96094,-3.137 0.11328,-0.348 0.57031,-1.699 0.75,-1.703 0.80859,1.129 1.13281,3.031 1.91796,4.492 0.0703,0.109 0.17579,0.23 0.29688,0.289 0.11719,0.06 0.25391,0.06 0.35547,0 0.2539,-0.168 0.26562,-0.594 0.22656,-0.816"
     id="path24920" />
  <path
     fill-rule="nonzero"
     fill="#000000"
     fill-opacity="1"
     d="m 511.66374,223.65225 c -0.625,0 -1.74219,0.03 -2.3125,0.199 -0.21484,0.04 -0.37109,0.305 -0.34375,0.575 0.0195,0.136 0.0742,0.238 0.1875,0.32 0.0977,0.07 0.23437,0.09 0.35156,0.1 0.56641,0.02 1.39063,-0.1 1.94531,-0.211 0.16797,-0.04 0.38672,-0.106 0.53516,-0.235 0.15625,-0.136 0.21484,-0.316 0.16406,-0.48 -0.0664,-0.215 -0.29297,-0.262 -0.52734,-0.266"
     id="path24921" />
  <path
     fill-rule="nonzero"
     fill="#000000"
     fill-opacity="1"
     d="m 519.98796,226.19525 c -0.0469,-0.156 -0.17969,-0.238 -0.34766,-0.269 -0.93359,-0.157 -2.21094,0.433 -2.76953,0.164 0.12891,-1.239 0.0234,-2.875 -0.16406,-4.274 -0.0703,-0.437 -0.1211,-1.008 -0.3125,-1.422 -0.0703,-0.222 -0.3711,-0.394 -0.58594,-0.281 -0.15625,0.08 -0.21875,0.285 -0.22656,0.469 0.16015,1.051 0.32031,2.105 0.48047,3.156 0.18359,0.992 -0.28907,1.965 -0.0781,2.977 0.0664,0.113 0.17969,0.23 0.29688,0.293 0.23437,0.128 0.49218,0.09 0.71484,0.09 0.9375,-0.179 1.89063,-0.14 2.81641,-0.441 0.16406,-0.117 0.21875,-0.301 0.17578,-0.457"
     id="path24922" />
  <path
     fill-rule="nonzero"
     fill="#000000"
     fill-opacity="1"
     d="m 523.5778,219.87925 c -0.40234,0.08 -0.85156,0.316 -1.23828,0.574 -0.44531,0.289 -0.77734,0.59 -1.08203,0.984 -0.32422,0.418 -0.54688,0.813 -0.66406,1.231 -0.0977,0.351 -0.1875,0.707 -0.19922,1.058 -0.0156,0.403 -0.0664,0.836 0.12109,1.239 0.23828,0.511 0.66406,1.117 1.13281,1.582 0.39063,0.386 0.82032,0.55 1.23829,0.652 0.24609,0.06 0.47265,0.06 0.71875,0 0.28906,-0.07 0.60546,-0.168 0.89453,-0.371 0.1875,-0.133 0.3164,-0.289 0.39453,-0.481 0.0664,-0.164 0.14062,-0.406 0.11328,-0.55 -0.0312,-0.168 -0.17578,-0.231 -0.38281,-0.168 -0.35157,0.187 -0.69922,0.379 -1.05078,0.57 -0.2461,0.08 -0.57813,0.09 -0.81641,-0.02 -0.51563,-0.348 -0.99609,-0.973 -1.30469,-1.442 -0.21094,-0.367 -0.25781,-0.797 -0.16406,-1.168 0.12109,-0.48 0.39062,-1.062 0.71094,-1.519 0.26172,-0.375 0.72265,-0.7 1.10937,-0.946 0.3086,-0.199 0.6836,-0.379 1.01563,-0.39 0.39062,0.07 0.78125,0.133 1.17187,0.199 0.10938,-0.08 0.11719,-0.453 0.0547,-0.633 -0.0664,-0.203 -0.28125,-0.363 -0.52344,-0.414 -0.37109,-0.08 -0.8789,-0.05 -1.25,0.02"
     id="path24923" />
  <path
     fill-rule="nonzero"
     fill="#000000"
     fill-opacity="1"
     d="m 527.5778,226.46825 c -0.13672,-0.1 -0.34375,-0.191 -0.53125,-0.195 -0.13281,0 -0.25781,0.02 -0.36328,0.09 -0.11328,0.08 -0.17578,0.164 -0.17578,0.305 -0.0117,0.265 0.28516,0.55 0.53906,0.578 0.17969,0.04 0.41016,0 0.55469,-0.1 0.11328,-0.08 0.16406,-0.172 0.18359,-0.293 0.0234,-0.18 -0.0664,-0.293 -0.20703,-0.391"
     id="path24924" />
  <path
     fill-rule="nonzero"
     fill="#000000"
     fill-opacity="1"
     d="m 530.91374,225.14425 c 0.0742,-0.273 0.0391,-0.64 0.0156,-0.867 -0.33203,-1.211 -0.36328,-2.961 -0.53515,-4.398 -0.0469,-0.161 -0.17969,-0.301 -0.39063,-0.309 -0.21484,0 -0.35156,0.137 -0.40234,0.32 -0.10547,0.375 -0.0469,0.883 -0.0273,1.262 0.21484,1.371 0.33203,2.582 0.45312,3.988 0.0781,0.192 0.28516,0.352 0.49219,0.348 0.21484,0 0.34765,-0.164 0.39453,-0.344"
     id="path24925" />
  <path
     fill-rule="nonzero"
     fill="#000000"
     fill-opacity="1"
     d="m 539.90202,224.62525 c -0.0586,-0.149 -0.16797,-0.223 -0.34375,-0.223 -1.07031,0 -2.12891,0.363 -3.15625,0.453 -0.28906,0 -0.78125,0.09 -0.84766,-0.133 0.34766,-0.55 0.69532,-1.101 1.04297,-1.652 0.27344,-0.519 0.54297,-1.047 0.67578,-1.57 0.10938,-0.426 0.27344,-0.985 0.23829,-1.418 -0.0312,-0.324 -0.22266,-0.785 -0.55079,-1.047 -0.23437,-0.188 -0.48828,-0.227 -0.72656,-0.234 -0.35547,-0.01 -0.71484,0.05 -1.07031,0.16 -0.42969,0.132 -1.02344,0.582 -1.41016,1.09 -0.1875,0.253 -0.23047,0.5 -0.14062,0.761 0.0898,0.262 0.29297,0.477 0.53906,0.489 0.17969,0 0.41406,-0.08 0.49219,-0.188 0.043,-0.258 0.082,-0.516 0.12109,-0.777 0.19531,-0.231 0.55469,-0.407 0.79688,-0.508 0.22265,-0.09 0.42578,-0.156 0.63672,-0.06 0.22265,0.106 0.29296,0.289 0.30468,0.516 0.0117,0.273 0,0.562 -0.0703,0.836 -0.0977,0.386 -0.27734,0.789 -0.48828,1.187 -0.60547,0.871 -1.21094,1.739 -1.81641,2.61 -0.0781,0.242 -0.0547,0.523 0.16407,0.746 0.33984,0.324 0.71484,0.195 1.05859,0.207 1.41797,-0.149 2.78125,-0.535 4.20312,-0.539 0.125,-0.04 0.21875,-0.09 0.30079,-0.207 0.10156,-0.161 0.0976,-0.371 0.0469,-0.504 m -4.53516,0.406 -0.0937,-0.09 0.0937,-0.09 0.0898,0.09 -0.0898,0.09"
     id="path24926" />
  <path
     fill-rule="nonzero"
     fill="#000000"
     fill-opacity="1"
     d="m 545.58561,218.48825 c -0.33593,0.504 -0.47656,1.164 -0.83203,1.746 -1.14453,1.684 -2.27734,3.309 -3.18359,5.051 -0.0703,0.238 -0.0156,0.543 0.19922,0.676 0.10156,0.06 0.24219,0.06 0.35937,0 1.14063,-1.731 2.26172,-3.684 3.63282,-5.5 0.27343,-0.465 0.60156,-1.078 0.72656,-1.582 0.0664,-0.297 0.0547,-0.598 -0.21094,-0.711 -0.22656,-0.08 -0.52734,0.06 -0.69141,0.312"
     id="path24927" />
  <path
     fill-rule="nonzero"
     fill="#000000"
     fill-opacity="1"
     d="m 543.49577,216.76125 c -0.55469,0.106 -1.15234,0.508 -1.45703,0.719 -0.26953,0 -0.53906,0.02 -0.8125,0.02 -0.28516,0.16 -0.51953,0.57 -0.55859,0.847 -0.0508,0.328 -0.004,0.778 0.22265,1.082 0.24219,0.317 0.72656,0.535 1.05078,0.547 0.36719,0.01 0.90625,-0.156 1.25782,-0.39 0.4375,-0.293 0.96875,-0.938 1.17187,-1.375 0.15625,-0.34 0.12891,-0.969 -0.0469,-1.2 -0.17188,-0.234 -0.53125,-0.332 -0.82813,-0.254 m -1.05469,2.153 c -0.15625,0.07 -0.32812,0.08 -0.48047,0.05 -0.16015,-0.04 -0.30859,-0.129 -0.39062,-0.285 -0.14063,-0.223 0,-0.59 0.16406,-0.606 0.0547,0.106 0.17969,0.359 0.37891,0.262 0.22265,-0.25 0.67969,-0.578 1.03515,-0.699 0.17188,-0.06 0.36329,-0.01 0.36719,0.113 -0.10547,0.367 -0.61719,0.937 -1.07422,1.168"
     id="path24928" />
  <path
     fill-rule="nonzero"
     fill="#000000"
     fill-opacity="1"
     d="m 547.1403,223.82825 c -0.32422,0 -0.67578,0.223 -0.8164,0.355 -0.0859,-0.218 -0.16797,-0.433 -0.25391,-0.652 -0.10156,-0.133 -0.30078,-0.203 -0.5,-0.133 -0.31641,0.113 -0.875,0.695 -1.02344,0.992 -0.13281,0.266 -0.11719,0.657 -0.0273,0.922 0.1289,0.379 0.5,0.696 0.85547,0.864 0.39453,0.199 0.69922,0.226 1.08984,0.105 0.40625,-0.113 0.85938,-0.336 1.24219,-0.781 0.3164,-0.407 0.19531,-0.891 0.15625,-1.246 -0.0937,-0.25 -0.40235,-0.426 -0.72266,-0.426 m -1.19531,1.539 c -0.12109,-0.03 -0.19922,-0.06 -0.29297,-0.149 -0.125,-0.125 -0.17578,-0.289 -0.15234,-0.433 0.0312,-0.176 0.23047,-0.395 0.3789,-0.34 0.0899,0.16 0.17578,0.32 0.26563,0.481 0.26953,0.07 0.84375,-0.153 0.79687,0.06 -0.0976,0.219 -0.70312,0.438 -0.99609,0.379"
     id="path24929" />
  <rect
     style="fill:none;stroke:none;stroke-width:2.62833"
     id="rect40562"
     width="1873.54"
     height="385.8382"
     x="0"
     y="0"
     ry="0"
     inkscape:export-filename="09.svg"
     inkscape:export-xdpi="96"
     inkscape:export-ydpi="96" />
</svg>
