<?xml version="1.0" encoding="UTF-8" standalone="no"?>
<svg
   width="1871.7876"
   height="493.57217"
   viewBox="0 0 1871.7876 493.57217"
   version="1.1"
   id="svg189"
   sodipodi:docname="10.svg"
   inkscape:export-filename="../09.svg"
   inkscape:export-xdpi="96"
   inkscape:export-ydpi="96"
   xmlns:inkscape="http://www.inkscape.org/namespaces/inkscape"
   xmlns:sodipodi="http://sodipodi.sourceforge.net/DTD/sodipodi-0.dtd"
   xmlns:xlink="http://www.w3.org/1999/xlink"
   xmlns="http://www.w3.org/2000/svg"
   xmlns:svg="http://www.w3.org/2000/svg">
  <sodipodi:namedview
     id="namedview189"
     pagecolor="#ffffff"
     bordercolor="#666666"
     borderopacity="1.0"
     inkscape:showpageshadow="2"
     inkscape:pageopacity="0.0"
     inkscape:pagecheckerboard="0"
     inkscape:deskcolor="#d1d1d1" />
  <use
     xlink:href="#source-5"
     transform="rotate(90,1092.4304,779.48581)"
     id="use1" />
  <path
     fill-rule="nonzero"
     fill="#FFFFFF"
     fill-opacity="1"
     d="m 1148.717,460.21951 c -3.4883,-14.30078 -6.3985,-31.0664 -8.9024,-48.16406 -3.9296,-9.57031 -6.7421,-16.21094 -11.0859,-24.25391 -2.457,-3.4375 -4.9141,-6.8789 -7.3711,-10.3164 -4.5664,-6.27344 -14.6211,-13.33203 -19.2969,-15.88282 -4.6757,-1.96093 -10.957,-2.8789 -15.7226,-3.28906 -5.0391,-0.4375 -10.5625,-0.4375 -15.6016,0 -6.9375,1.48438 -13.9765,2.33985 -20.9648,5.91016 -7.0078,4.40234 -14.8633,10.23047 -18.8672,15.55469 -5.8164,7.74609 -14.9844,20.18359 -18.918,29.23828 -1.6406,3.78125 -4.3555,9.89453 -6.793,15.13281 -1.2812,9.53516 -6.62107,18.03125 -7.45701,31.31641 0.70313,9.87109 1.41016,19.74218 2.11328,29.61328 0.52733,1.40234 2.09373,2.10937 3.32813,1.14843 1.9219,-6.77343 1.6524,-18.47265 -0.1797,-25.30078 -0.2383,-5.85156 1.7735,-18.84765 3.5938,-25.0625 1.5351,-5.22656 4.9844,-13.47656 6.8789,-17.41015 3.7734,-7.83985 11.8594,-19.82813 19.3125,-31.16407 2,-3.03906 5.3828,-6.76953 9.25,-10.40625 3.4766,-3.26953 8.1016,-7.28906 11.8984,-8.71093 5.5977,-2.09375 12.6485,-4.17578 17.1524,-4.88672 6.2187,-0.98047 13.8906,-0.63281 20.1914,1.57812 4.4062,1.55078 9.4375,3.62891 13.5976,6.0625 3.3086,1.94141 7.1993,5.2461 9.4727,7.78125 4.5039,7.87891 9.0078,15.75782 13.5117,23.63672 1.8906,3.75 5.2266,11.71875 5.7891,15.44922 2.5195,20.29297 8.7695,37.01563 9,58.65234 0.5468,1.39844 2.1133,2.13282 3.9258,1.76563 1.2851,-0.25781 1.75,-0.76172 2.1015,-1.83594 1.4805,-4.5039 0.6641,-13.22265 0.043,-16.15625"
     id="path75" />
  <path
     fill-rule="nonzero"
     fill="#FFFFFF"
     fill-opacity="1"
     d="m 1136.0803,486.49295 c -1.3633,-1.13672 -5.5899,-2.21484 -7.9493,-2.37109 -29.9179,-3.51172 -51.8085,-4.5625 -81.5625,-6.56641 -10.1679,0.0469 -23.7734,-0.41797 -32.9961,1.61328 -1.4843,0.32813 -5.4843,2.07422 -6.1757,3.89453 -0.5664,1.49219 0.9414,2.07422 2.7265,2.23438 8.0899,0.72265 16.25,-1.15625 21.5625,-1.69922 13.3594,-0.7461 28.9297,1.05078 42.3008,1.85547 19.6445,2.66406 39.1016,3.89453 59.2969,6.67968 2.4453,0.2461 3.625,-1.16015 3.5508,-3.3125 0.01,-0.94921 -0.2461,-1.90234 -0.7539,-2.32812"
     id="path76" />
  <path
     fill-rule="nonzero"
     fill="#FFFFFF"
     fill-opacity="1"
     d="m 1115.7678,296.72732 c -3.7149,-4.91406 -9.0977,-9.6875 -13.586,-12.43359 -4.1797,-2.55859 -7.4179,-4.20703 -12.3203,-5 -6.1367,-0.99609 -13.3515,-0.61719 -19.5234,-0.19531 -4.586,0.3125 -11.0781,3.91015 -15.4922,7.375 -5.0039,3.92578 -9.1016,9.60156 -13.8359,14.14062 -2.043,1.95703 -5.5118,8.1836 -6.6563,11.60938 -0.9102,2.72656 -0.6562,6.09765 -0.4102,8.88281 0.4532,5.09766 2.9532,11.19531 5.6719,15.21094 2.7852,4.11719 9.543,10.5625 13.3477,12.8125 4.1679,2.45703 11.5234,5.80859 17.7109,6.80469 6.0156,0.96484 13.0899,0.74218 19.1289,0.21484 8.4063,-0.14453 9.4063,-4.89844 15.8086,-5.85156 6.1602,-4.1836 11.3906,-9.71875 14.586,-14.22657 1.7421,-2.43359 2.6406,-7.70703 2.9687,-11.46093 0.4063,-4.66016 0.5156,-9.48438 -0.016,-12.65235 -0.7774,-4.64062 -4.6406,-11.59765 -7.3828,-15.23047 m -1.5469,37.51172 c -2.3125,3.36328 -8.75,9.89063 -11.4336,11.23438 -4.8008,2.40625 -10.2734,3.86719 -16.5781,5.19531 -3.5742,0.75391 -8.0508,0.89453 -11.3047,0.40625 -3.5352,-0.53125 -7.6602,-1.92969 -12.2344,-3.69531 -4.6758,-1.80469 -11.6875,-6.05469 -16.3945,-11.11719 -2.7813,-2.99219 -4.8828,-7.34375 -6.3125,-11.96875 -1.1367,-3.67969 -1.6992,-8.03906 -0.9688,-11.56641 0.6133,-2.95703 5.4727,-8.12109 9.793,-11.47656 3.5391,-2.74609 7.5352,-5.10547 11.8945,-6.5 2.1094,-0.67578 4.4453,-0.67578 6.5547,-0.36719 2.7774,1.16797 5.5547,2.33594 8.332,3.50391 0.3868,-1.39844 -2.121,-3.72656 -4.1953,-4.38672 -4.7304,-1.50781 -15.4101,-2.07812 -15.0312,-2.32422 2.418,-1.54687 6.0273,-3.32812 8.2578,-3.85156 6.8867,-1.45703 15.5547,-2.30859 22.7266,-1.67187 3.0859,0.60546 7.4843,2.9414 12.3046,6.17578 2.6368,1.76953 5.9454,4.34765 8.1954,7.22656 2.8046,3.58594 6.6757,10.94531 8.2109,15.04687 1.1133,2.96094 0.9258,9.04688 0.1797,13.67969 -0.3399,2.14063 -0.7891,4.70313 -1.9961,6.45703"
     id="path77" />
  <path
     fill-rule="nonzero"
     fill="#FFFFFF"
     fill-opacity="1"
     d="m 1520.2326,330.73514 c -5.0234,1.45312 -12.0039,5.30859 -15.7656,7.3789 -5.4649,3.00391 -10.6719,7.79688 -15.1992,12 -7.4532,8.75391 -10.6719,9.59375 -18,20.51172 -2.6485,4.55469 -4.8164,8.28906 -6.1836,12.2461 -3.3789,9.7539 -4.4532,20.88281 -5.2266,31.21875 2.9063,18.8164 0.4453,27.96875 4.043,44.58984 1.1406,0.91797 3.4648,0.89844 4.5234,-0.008 0.707,-0.60157 0.8672,-1.66407 0.9531,-2.78907 1.0704,-14.0625 -2.1367,-31.65234 -2.3632,-42.37109 1.3945,-9.45312 2.5351,-17.80469 4.8632,-26.75391 0.8594,-3.3125 2.5782,-7.02343 4.1797,-10.0039 3.418,-6.35547 10.9219,-15.42578 19.3985,-23.83985 3.0351,-2.41406 6.0703,-4.82812 9.1054,-7.24609 4.5118,-3.61719 16.8946,-9.92578 24.7539,-12.84375 3.4766,-0.30859 6.9493,-0.62109 10.4258,-0.93359 1.5078,-0.64844 1.7266,-1.96094 0.8555,-2.50391 -4.8945,-0.875 -13.8281,-0.57031 -20.3633,1.34766"
     id="path78" />
  <path
     fill-rule="nonzero"
     fill="#FFFFFF"
     fill-opacity="1"
     d="m 1575.7404,460.0242 c -14.789,0 -29.5781,0 -44.3672,0 -2.3007,-0.57031 -4.6015,-1.14063 -6.9023,-1.71094 -13.4453,-0.35937 -22.5469,2.02344 -36.1797,1.67969 -5.7148,-0.14453 -15.3672,-4.32031 -21.3047,-4.95313 -1.8086,-0.1914 -3.3906,0.36719 -3.3633,2.21485 0.023,1.83984 1.4766,3.25781 2.9805,3.86328 8.8438,1.67578 17.6875,3.35156 26.5313,5.02734 18.3945,-0.55859 51.2968,0.6836 79.289,0.37891 2.3047,0.21094 5.1289,-1.58203 5.2891,-4.08984 0.2656,-1.91407 -0.7539,-2.29297 -1.9727,-2.41016"
     id="path79" />
  <path
     fill-rule="nonzero"
     fill="#FFFFFF"
     fill-opacity="1"
     d="m 1599.8732,446.98123 c -1.5,-5.04687 -4.9257,-19.46484 -7.5,-26.47656 -0.2851,-9.84766 -2.5429,-16.03125 -4.2734,-25.79297 -3.4609,-10.36328 -13.4766,-30.11328 -19.4141,-39.28906 -2.0781,-3.21094 -4.2578,-7.19532 -8.0664,-10.6836 -8.7812,-4.59375 -11.664,-7.74609 -19.3359,-10.17968 -2.3672,-0.4336 -5.3359,0.45703 -7.4805,1.41015 -1.4414,0.64063 -2.6562,1.8711 -3.0937,3.94922 -0.2617,1.24219 -0.047,2.53516 0.4375,3.00781 2.7812,1.23438 2.5703,-5.36328 6.5781,-3.73828 6.9258,2.80469 11.043,6.20703 16.6484,9.45703 6.543,7.06641 8.1211,14.28125 13.2227,19.6875 5.8437,11.50391 10.9531,20.45313 14.25,30.99219 4.6641,14.90625 7.707,33.80859 10.2109,46.54297 0.1407,4.46484 0.2774,8.92969 0.418,13.39844 0.2617,1.90625 3.6211,2.34375 5.125,1.11328 1.6016,-1.41016 2.3711,-13.0625 2.2734,-13.39844"
     id="path80" />
  <path
     fill-rule="nonzero"
     fill="#FFFFFF"
     fill-opacity="1"
     d="m 1562.4084,277.37967 c -1.418,-2.60156 -3.7852,-5.36719 -6.9844,-8.29297 -4.1406,-3.78516 -7.6836,-6.6875 -11.1367,-8.25781 -3.1953,-1.45313 -8.0508,-4.12891 -13.6523,-4.24219 -5.1485,2.02734 -10.2969,4.05859 -15.4454,6.08984 -3.6015,-0.17578 -6.4687,-0.8125 -10.2734,0.42188 -4.168,1.34765 -8.8164,2.6289 -14.2227,6.38281 -4.746,3.29297 -8.7773,9.09375 -10.2187,12.00391 -1.8789,3.79297 -2.3203,9.35547 -2.1602,13.78906 0.9727,6.43359 4.1993,13.05469 8.2227,19.28125 3.7734,4.96875 9.4102,8.26953 14.4961,11.76562 5.0469,3.46875 10.5742,6.90625 15.7851,8.53125 5.8633,1.83204 13.3672,1.06641 19.3438,0.8086 3.5977,-0.15625 5.2539,-1.79297 8.8164,-4.34375 4.5039,-3.22656 10.2617,-7.19922 13.25,-11.52344 2.5508,-3.69141 4.1094,-8.32422 5.2852,-12.3125 1.5859,-5.39062 2.8945,-12.26562 2.3906,-17.17578 -0.3711,-3.61328 -1.6875,-9.59766 -3.4961,-12.92578 m -16.7188,44.67969 c -3.1132,2.92187 -6.6054,4.53125 -9.9765,5.91406 -2.6875,1.10156 -5.711,1.97265 -8.418,1.96484 -3.582,-0.0117 -8.2695,-0.7539 -11.7617,-1.78125 -4.9883,-1.47265 -10.3945,-5.42969 -15.2774,-8.85937 -2.8867,-2.02344 -5.3164,-4.42969 -7.3203,-7.31641 -3.1445,-4.52344 -7.3125,-11.39453 -7.9023,-13.96094 -0.6797,-2.96875 -0.6797,-9.63281 0.3867,-12.02734 0.7852,-1.75391 3.1953,-8.15625 5.2305,-10.35547 1.6875,-1.82031 5.4687,-4.44922 6.6914,-5.12109 2.9844,-1.64063 11.6562,-4.94532 14.7305,-5.42188 4.6484,-0.72656 10.5156,3.63672 15.3789,2.78906 0.9375,-0.16015 1.3554,-0.54296 1.0937,-1.21093 -0.1601,-0.40235 -2.1445,-2.23047 -3.0195,-2.6875 -1.1953,-0.25391 -2.3906,-0.50782 -3.5899,-0.76172 2.336,-0.69531 11.711,-0.78516 14.6524,0.40625 2.8437,1.14453 8.3086,5.42969 14.2929,11.45312 2.7891,2.8086 4.9922,5.58985 5.9375,8.38672 1.2149,3.60938 1.8399,7.13672 1.8633,10.14453 0.047,6.17969 -1.6289,11.85157 -2.9297,16.78516 -1.6132,4.78125 -6.3711,7.8125 -10.0625,11.66016"
     id="path81" />
  <path
     fill-rule="nonzero"
     fill="#FFFFFF"
     fill-opacity="1"
     d="m 1040.9396,380.20389 h 2.875 l -2.875,-2.875 v 2.875"
     id="path82" />
  <path
     fill-rule="nonzero"
     fill="#FFFFFF"
     fill-opacity="1"
     d="m 1065.9748,434.83279 c -3.3164,-9.92578 -7.0703,-21.32422 -10.332,-31 -1.3946,-4.14062 -6.4141,-14.59375 -9.8594,-20.875 -1.1719,-2.13281 -3.4336,-5.39843 -4.0625,-4.52734 5.4375,13.82812 10.6484,31.5625 16.2344,43.03906 4.4843,20.94141 5.5664,43.06641 9.5664,62.05078 -0.211,1.71485 2.8593,3.63282 4.5586,2.91016 0.9414,-13.59766 -6.0586,-36.39063 -6.1055,-51.59766"
     id="path83" />
  <path
     fill-rule="nonzero"
     fill="#FFFFFF"
     fill-opacity="1"
     d="m 1093.0373,389.5867 c -2.2148,3.54297 -4.4258,7.08594 -6.6367,10.62891 -2.3516,3.6914 -5.1953,13.34375 -5.9063,16.9414 -2.1797,13.56641 -6.8398,27.58203 -8.7265,43.22656 -0.3477,6.36329 0.5664,13.08594 1.8828,19.38282 0.3242,1.54297 1.1406,3.29687 2.6211,3.96093 1.539,0.69532 2.7461,-0.44921 3.0586,-2.27734 -0.8672,-6.33203 -1.7305,-12.66406 -2.5938,-18.99219 0.3399,-10.30859 1.7617,-19.80078 3.4375,-28.64843 1.3164,-6.95704 5.9297,-20.78125 9.9297,-29.77344 2.2188,-4.99219 4.9414,-11.14453 7.6836,-15.26953 1.9805,-1.72266 3.957,-3.44532 5.9336,-5.16797 0.3555,-0.9961 -0.3555,-2.50781 -1.9219,-2.44141 -1.3086,0.0508 -6.6445,5.64844 -8.7617,8.42969"
     id="path84" />
  <path
     fill-rule="nonzero"
     fill="#FFFFFF"
     fill-opacity="1"
     d="m 1032.3264,397.43436 h 2.875 l -2.875,-2.875 v 2.875"
     id="path85" />
  <path
     fill-rule="nonzero"
     fill="#FFFFFF"
     fill-opacity="1"
     d="m 1022.8029,480.94998 c 8.0352,-0.83594 16.0742,-1.66797 24.1094,-2.50391 2.1133,-1.22265 4.2305,-2.44531 6.3477,-3.66796 2.6093,0.5664 -0.01,7.0664 2.3046,10.125 0.9141,1.01953 2.0039,1.29296 3.2032,0.87109 1.3398,-0.47266 1.8164,-1.32422 2.1875,-2.6875 1.5273,-5.61719 0.9257,-21.92969 -0.082,-26.40234 -3.2304,-13.09766 -6.4609,-26.19532 -9.6914,-39.29297 -0.7695,-8.16407 -0.6875,-15.58203 -3.1718,-24.375 -1.3086,-2.36719 -2.6133,-4.73047 -3.9219,-7.09766 -0.3828,-3.07422 -0.6406,-7.32422 -2.0274,-10.15234 -0.5,-1.01172 -0.9843,-1.48438 -2.2968,-1.72657 -1.8594,-0.34375 -3.2344,0.37891 -3.7618,1.7461 -0.9218,5.01562 -1.8437,10.02734 -2.7656,15.04297 -3.1367,2.44922 -6.2734,4.89453 -9.4101,7.34375 -4.7657,7.75 -9.5977,16.47656 -14.8594,26.16406 -0.75,2.84766 -0.8203,9.48047 -0.5821,10.90234 0.7461,1.14453 1.4883,2.29297 2.2344,3.44141 -0.8164,1.89844 -2.9961,5.48437 -2.3047,8.19141 1.1719,0.71875 2.3438,1.4414 3.5118,2.16015 -1.1836,4.91406 -5.9571,8.96094 -9.7305,14.80469 -0.8867,2.47656 1.668,3.53906 2.7461,4.26562 -0.9844,1.59375 -1.9688,3.1836 -2.9531,4.77735 0.8828,1.3164 1.7656,2.6289 2.6484,3.94531 -0.062,2.35547 -0.7344,5.71875 0.9961,8.18359 0.7656,1.09375 1.793,1.67579 3.1015,1.95313 6.4571,0.89453 9.3438,-5.58984 14.168,-6.01172 m -16.7109,-14.86719 0.9687,-0.3125 -0.3125,0.96875 -0.6562,-0.65625 m 1.5469,-0.89062 -0.5782,-1.14453 0.9688,1.41015 -0.3906,-0.26562 m 0.6367,18.57422 0.5078,-0.10157 0.6367,0.0273 0.2539,0.15625 -0.2539,0.16406 -0.6367,0.0352 -0.5078,-0.0937 v -0.1875 m 2.5429,0.20312 v -1.9414 l 0.2657,0.42968 0.332,0.53907 -0.5977,0.97265 m 1.9883,-30.83594 -0.5781,-1.14453 0.9687,1.41016 -0.3906,-0.26563 m 0,-17.22656 -0.5781,-1.14844 0.9687,1.41016 -0.3906,-0.26172 m 0,-8.61719 -0.5781,-1.14453 0.9687,1.41016 -0.3906,-0.26563 m 1.1446,25.60547 -0.9063,-0.90625 0.9063,-0.91015 0.9101,0.91015 -0.9101,0.90625 m -0.3243,-17.82422 h 1.293 l -0.9687,0.59766 -0.9688,-0.59766 h 0.6445 m 0.4336,-12.76953 -0.3281,-0.0586 -0.4375,-0.16406 -0.168,-0.125 0.3282,0.0586 0.4375,0.16406 0.1679,0.125 m 0.7266,22.71485 h 0.2266 l -0.1719,0.59375 -0.461,0.77343 -0.3906,0.41016 -0.07,-0.35156 0.3945,-0.74219 0.4727,-0.68359 m -2.8281,32.44531 c -2.1368,0.89062 -3.8203,1.1875 -4.1328,-0.17578 -0.3204,-1.39063 0.4765,-4.15235 1.1445,-4.13281 0.8242,2.20312 6.5156,1.12109 6.9414,0.88281 0.1055,0.71094 -2.0742,2.64453 -3.9531,3.42578 m 4.0273,-33.11719 -0.3125,-0.97265 0.9727,0.3125 -0.6602,0.66015 m 2.1641,25.1836 0.9687,-0.3125 -0.3125,0.96875 -0.6562,-0.65625 m 1.2812,-35.52344 v -1.9375 l 0.2656,0.42969 0.3321,0.53906 -0.5977,0.96875 m 3.4453,27.5664 -0.3125,-0.96875 0.9727,0.3125 -0.6602,0.65625 m 0,-8.61328 v -1.9414 l 0.2657,0.43359 0.332,0.53906 -0.5977,0.96875 m 0.4414,14.22266 0.9688,-1.41016 -0.5742,1.14453 -0.3946,0.26563 m 0,-16.60547 0.9688,-0.30859 -0.3086,0.96875 -0.6602,-0.66016 m 1.2813,16.16406 -0.3125,-0.96875 0.9727,0.3125 -0.6602,0.65625 m 0.2656,-8.4375 -0.5781,-1.14453 0.9727,1.41016 -0.3946,-0.26563 m 1.1446,13.54297 -0.9063,-0.90625 0.9063,-0.90625 0.4062,0.40235 0.5039,0.5039 -0.9101,0.90625 m 0,-13.78125 -0.9063,-0.90625 0.9063,-0.91015 0.9101,0.91015 -0.9101,0.90625 m 1.7226,12.0586 -0.9062,-0.90625 0.9062,-0.90625 0.4063,0.40234 0.5039,0.50391 -0.9102,0.90625 m -1.6289,-22.71094 0.4141,-0.41016 0.7812,-0.42969 0.5547,-0.0898 v 0.24609 l -0.6641,0.45313 -0.7422,0.28125 -0.3398,-0.0508 m 2.4453,-2.31641 0.5977,-0.96875 v 1.94141 l -0.5977,-0.97266 m -1.9883,19.69531 -0.3359,-0.125 0.5859,-0.77734 1.0547,-0.92969 1.1289,-0.7539 0.5742,-0.0508 -0.07,0.55468 -0.7929,0.88282 -1.1563,0.82812 -0.9883,0.37109 m 3.2071,-20.44531 -0.3086,-0.97265 0.9687,0.3125 -0.6601,0.66015 m 0.2656,-13.60547 -0.5742,-1.14843 0.9687,1.41015 -0.3945,-0.26172 m 0.2383,29.86328 0.5976,-0.97265 v 1.9414 l -0.5976,-0.96875 m -0.062,-17.53906 0.9726,-1.41406 -0.5781,1.14844 -0.3945,0.26562 m 0.062,-13.47265 0.5976,-0.96875 v 1.9375 l -0.5976,-0.96875 m 1.2187,-0.75391 -0.3086,-0.96875 0.9688,0.3125 -0.6602,0.65625 m -8.5,-16.98828 c -2.2383,3.66797 -7.1875,9.28125 -7.582,8.77734 -0.2656,-0.33594 5.1211,-12.24609 7.5195,-16.34765 2.1211,-3.63672 8.3125,-9.2461 8.4571,-9.09375 1.4492,2.82031 -5.5313,11.35937 -8.3946,16.66406 m 10.6641,26.66797 0.9726,-0.3125 -0.3125,0.97265 -0.6601,-0.66015 m 0.4922,-31.51953 c 0.098,0.004 0.4258,5.54687 -0.3789,8.6289 -0.4649,1.77344 -2.5977,4.62891 -3.4414,4.89844 1.9531,-2.875 2.4804,-13.98047 3.8203,-13.52734 m -0.9492,19.96484 -0.5,-0.15625 0.098,-0.56641 0.543,-0.57031 0.7656,-0.38672 0.6172,-0.0469 0.2812,0.26953 -0.2695,0.54297 -0.7109,0.61328 -0.8242,0.30078 m 2.914,28.53906 0.2344,-0.35547 0.3906,-0.28906 0.2266,0.0703 -0.2344,0.35547 -0.3906,0.28906 -0.2266,-0.0703 m 0.9883,-2.10156 0.9727,-1.41016 -0.5782,1.14453 -0.3945,0.26563 m 1.2773,-65.40625 0.01,-0.39063 0.121,-0.82031 0.1758,-0.84765 0.1563,-0.30079 0.039,0.23438 -0.1328,0.82031 -0.2187,0.83985 -0.1485,0.46484 m 0.8594,64.43359 0.074,-0.48437 0.5039,-0.6211 0.4336,-0.0273 -0.074,0.48828 -0.5039,0.6211 -0.4336,0.0234 m 0.6726,-9.15236 c -4.4805,5.76953 -11.6758,11.47656 -12.1992,11.875 2.7148,-3.87109 5.4297,-7.73828 8.1406,-11.60547 2.2344,-3.88281 -0.6758,-7.07031 1.7149,-6.88281 1.3671,0.6289 3.4804,3.80078 2.3437,6.61328 m 0.6328,6.67969 0.9688,-1.41407 -0.5782,1.14844 -0.3906,0.26563 m -0.8711,-32.08594 0.4922,-0.51953 0.5664,-0.28906 0.2695,0.21484 -0.07,0.47266 -0.4179,0.53906 -0.5625,0.21484 -0.3946,-0.11719 0.1172,-0.51562 m 1.2735,-6.60938 -0.059,0.86719 -0.3633,0.50781 -0.582,-0.14062 -0.4883,-0.6875 -0.1367,-1.11719 0.2304,-0.98828 0.4024,-0.53125 0.4375,0.26953 0.3437,0.78125 0.2149,1.03906 m 0.8789,38.25391 v -1.94141 l 0.2617,0.4336 0.332,0.53515 -0.5937,0.97266 m 0.4414,24.55859 0.9687,-1.41015 -0.5781,1.14844 -0.3906,0.26171 m -4.9688,-2.82421 c -2.082,1.41796 -6.8398,1.96484 -7.1445,0.93359 -0.3047,-1.03906 12.7812,-7.51172 12.4219,-8.19531 0.2382,0.44922 -3.086,5.77343 -5.2774,7.26172 m 4.9688,-74.07813 0.9687,-0.3125 -0.3125,0.97266 -0.6562,-0.66016 m 2.1133,33.57031 h -0.5704 l -0.5742,-1.14843 1.1446,0.57812 v 0.57031 m -1.7344,27.91797 -1.4805,1.52344 -1.4805,1.25391 -1.0664,0.6289 -0.2812,-0.33203 0.6797,-1.08203 1.2304,-1.49609 1.3282,-1.56641 1.1015,-1.38281 0.8985,-1.00391 0.8047,-0.52344 0.6093,-0.0742 0.25,0.33985 -0.3711,0.89453 -0.914,1.28906 -1.3086,1.53125 m 2.9922,-54.14062 -0.1289,0.1875 -0.5508,0.0625 -0.5508,-0.0625 -0.1289,-0.1875 0.3828,-0.12891 h 0.5938 l 0.3828,0.12891 m -0.1055,5.54687 v -0.57031 l 1.1484,-0.57422 -0.5781,1.14453 h -0.5703 m 3.2773,58.7461 c -0.7109,0.90234 -4.2968,3.71875 -4.6992,3.66796 -1.332,-0.16406 3.8555,-7.5664 4.5547,-7.91406 0.6406,-0.3125 0.8906,3.30078 0.1445,4.2461"
     id="path86" />
  <path
     fill-rule="nonzero"
     fill="#FFFFFF"
     fill-opacity="1"
     d="m 1142.4318,485.64529 c -1.4375,-2.02734 -4.9804,-1.375 -6.3593,-1.73828 1.6718,-0.42578 3.3437,-0.84765 5.0156,-1.27344 1.2969,-1.8164 -3.7891,-3.01953 -4.4336,-3.17187 0.2695,0.008 3.9648,0.73437 4.1406,-2.83594 1.4024,-4.70703 2.6719,-13.94922 2.3359,-17.48437 -2.9882,-18.1875 -10.7812,-38.70313 -14.5585,-59.19141 -1.2032,-3.20703 -5.9883,-9.20703 -9.629,-13.40625 -1.0078,-1.16406 -7.8359,-6.15625 -8.8437,-6.60937 -0.8477,-0.37891 -2.0898,-0.17969 -3.1641,0.29296 -1.9453,2.38672 -3.8906,4.77344 -5.832,7.16407 -1.3828,1.09375 -3.3164,-1.6875 -6.0781,1.83593 -5.2813,6.98829 -9.1328,10.66016 -14,19.40625 -1.25,6.44922 -2.5039,12.90235 -3.7578,19.35157 0.3125,2.47656 2.1953,4.12109 3.8047,5.63672 -0.1485,2.1875 -0.293,4.37109 -0.4415,6.55859 0.3086,1.49219 1.1993,2.27344 1.8711,2.60937 0.1368,0.99219 -4.4218,14.19922 -6.2343,17.13282 -1.875,1.97265 -3.75,3.94531 -5.6211,5.91406 -0.8086,3.18359 2.0508,7.38281 3.3633,8.01172 0.1367,1.52734 -5.0821,5.83984 -3.7305,9.23437 0.3555,1.19532 1.0508,1.8086 2.2695,1.90625 3.6211,-0.51172 6.5235,-0.35937 8.4063,-0.24609 2.4453,-1.17188 4.8867,-2.34375 7.3281,-3.51172 5.0039,-0.45312 12.3125,-0.008 17.125,-1.38281 2.6719,-1.6836 5.3398,-3.36719 8.0117,-5.05078 -0.3086,-0.0586 6.9024,7.34375 6.8555,5.88281 -1.4414,0.32422 -2.8828,0.64844 -4.3203,0.96875 -1.2383,0.75781 -2.3164,2 -1.7305,2.78125 0.2227,0.30078 7.168,4.21094 9.7148,5.43359 5.8164,1.4375 12.336,0.46875 17.8516,0.32422 2.0391,-0.30078 1.7656,-2.89844 0.6406,-4.54297 m -66.457,-7 0.2617,0.42969 0.707,0.16406 h -1.9414 l 0.9727,-0.59375 m 5.7422,-28.95703 -0.5742,-1.14844 0.9687,1.41407 -0.3945,-0.26563 m 1.1484,-2.05469 0.2656,0.42969 0.7032,0.16797 h -1.9375 l 0.9687,-0.59766 m 0.7539,-1.125 0.9688,-1.41406 -0.5781,1.14844 -0.3907,0.26562 m 1.543,30.7461 -0.5742,-1.14844 0.9687,1.41016 -0.3945,-0.26172 m -0.2617,-31.1875 v -1.94141 l 0.2656,0.42969 0.3281,0.53906 -0.5937,0.97266 m 0.2617,-4.99219 -0.5742,-1.14844 0.9687,1.41016 -0.3945,-0.26172 m 0.2383,35.03125 0.5976,-0.96875 v 1.9375 l -0.5976,-0.96875 m -0.059,-32.42187 0.9687,-0.3125 -0.3125,0.97265 -0.6562,-0.66015 m 0,-5.16797 0.9687,-0.3125 -0.3125,0.97265 -0.6562,-0.66015 m 0,-25.84375 0.9687,-0.3086 -0.3125,0.96875 -0.6562,-0.66015 m 1.2812,-1.0625 -0.3125,-0.96875 0.9688,0.30859 -0.6563,0.66016 m 2.1641,67.6289 0.9687,-1.41015 -0.5742,1.14843 -0.3945,0.26172 m 1.2812,-41.78515 -0.3125,-0.97266 0.9688,0.3125 -0.6563,0.66016 m 0,-18.95313 -0.3125,-0.96875 0.9688,0.3125 -0.6563,0.65625 m 0.4415,9.05469 0.9687,-1.41016 -0.5742,1.14453 -0.3945,0.26563 m 1.2812,-2.16406 -0.3125,-0.96875 0.9688,0.3125 -0.6563,0.65625 m 0.4414,-1.28125 0.9688,-1.41016 -0.5743,1.14453 -0.3945,0.26563 m 2.3672,23.01953 h 1.293 l -0.9688,0.59765 -0.9687,-0.59765 h 0.6445 m 0,-36.17969 h 1.293 l -0.9688,0.59766 -0.9687,-0.59766 h 0.6445 m 1.0781,35.55859 0.9688,-1.41406 -0.5742,1.14844 -0.3946,0.26562 m 0,-8.61718 0.9688,-1.41016 -0.5742,1.14844 -0.3946,0.26172 m 0,-6.89063 0.9688,-1.41015 -0.5742,1.14843 -0.3946,0.26172 m 0,-20.67187 0.9688,-1.41016 -0.5742,1.14453 -0.3946,0.26563 m 1.2813,35.73828 v -1.94141 l 0.2656,0.42969 0.332,0.53906 -0.5976,0.97266 m 0.2656,-53.23047 v -0.57031 l 1.1445,-0.57813 -0.5742,1.14844 h -0.5703 m 0.4922,36.23828 0.3281,-0.72656 0.4453,-0.66797 0.2071,-0.0352 -0.1407,0.55469 -0.4609,0.75781 -0.3711,0.44532 -0.01,-0.32813 m 1.1445,-39.32812 0.086,0.0976 0.1015,0.44531 0.1055,0.39844 -0.086,-0.0976 -0.1015,-0.44532 -0.1055,-0.39843 m 0.2617,82.60156 0.9688,-1.41016 -0.5742,1.14844 -0.3946,0.26172 m 1.2813,-0.44141 v -1.9375 l 0.2656,0.42969 0.332,0.53906 -0.5976,0.96875 m 0,-39.625 -0.3125,-0.96875 0.9726,0.3125 -0.6601,0.65625 m -0.6797,-6.60937 0.1328,-0.71875 0.3203,-0.65625 0.293,-0.0117 0.07,0.55859 -0.2695,0.75391 -0.3203,0.40625 -0.2266,-0.33203 m 1.7695,-2.66016 h 1.293 l -0.9727,0.59375 -0.9687,-0.59375 h 0.6484 m -3.375,-6.14844 c -0.3359,-0.72265 0.3516,-2.59765 1.1563,-3.55468 1.082,-1.28125 3.0195,-1.875 3.3633,-1.30469 0.6015,0.99609 -3.7813,6.45312 -4.5196,4.85937 m 5.9961,12.15235 -0.5781,-1.14844 0.9727,1.41016 -0.3946,-0.26172 m 0.1758,-0.83594 0.9688,-0.3125 -0.3086,0.96875 -0.6602,-0.65625 m 0,-17.23047 0.9688,-0.30859 -0.3086,0.96875 -0.6602,-0.66016 m 3.5,62.58203 -0.1523,0.12891 -0.4454,0.10547 -0.3398,0.0547 0.1523,-0.13281 0.4454,-0.10156 0.3398,-0.0547 m -2.7734,-38.34765 0.1484,-0.69532 0.625,-0.8789 0.793,-0.65625 0.6015,0.0351 0.25,0.52735 -0.2187,0.75 -0.75,0.66406 -0.875,0.34766 -0.5742,-0.0937 m 1.9648,-37.51172 0.2656,0.42968 0.7071,0.16407 h -1.9414 l 0.9687,-0.59375 m 0.7539,74.67578 0.9688,-1.41016 -0.5743,1.14844 -0.3945,0.26172 m 0,-40.72266 0.9688,-0.3125 -0.3086,0.96875 -0.6602,-0.65625 m 0,-34.45703 0.9688,-0.3125 -0.3086,0.97266 -0.6602,-0.66016 m 1.2813,-1.06641 v -1.9375 l 0.2656,0.42969 0.332,0.53906 -0.5976,0.96875 m 0.8203,9.27735 0.016,0.14062 -0.07,-0.32031 -0.066,-0.42969 -0.016,-0.14062 0.066,0.32031 0.07,0.42969 m -0.3789,-12.28125 0.9726,-1.41016 -0.5781,1.14844 -0.3945,0.26172 m 1.4336,31.07812 c -0.625,1.99219 -1.9688,3.31641 -3.3907,2.90235 -0.6875,-2.52344 -1.375,-5.04297 -2.0664,-7.56641 0.336,-1.66797 4.2149,-2.97656 5.125,-2.75781 1.4493,0.35156 1.2149,4.58984 0.3321,7.42187 m -0.1524,-31.51953 v -1.9375 l 0.2656,0.42969 0.3321,0.53906 -0.5977,0.96875 m -0.078,48.34375 c -12.0117,9.28516 -22.8672,27.04297 -32.6797,36.48047 0.4805,-0.19141 7.6602,-12.28125 11,-16.57812 6.9727,-7.7461 13.9414,-15.49219 20.9141,-23.23829 0.5078,-1.75 1.0117,-3.49609 1.5156,-5.24609 0.01,0 0.8203,6.28125 -0.75,8.58203 m 0.8984,-51.125 0.016,0.14063 -0.07,-0.32032 -0.066,-0.42968 -0.016,-0.14453 0.07,0.32031 0.066,0.43359 m -0.3632,62.57813 c -4.8516,5.44531 -22.2618,22.79687 -23.3633,21.94922 3.0781,-8.55079 18.9414,-23.27735 23.5078,-27.4336 1.3711,1.07031 0.7265,4.50391 -0.1445,5.48438 m -1.1641,9.91406 -1.418,1.41406 -1.3008,1.51172 -1.2382,1.49219 -1.3008,1.33203 -1.3399,0.91406 -1.0859,0.36328 -0.4727,-0.29687 0.3516,-0.75 0.9336,-1.11328 1.2812,-1.33203 1.418,-1.51172 1.5391,-1.57032 1.5976,-1.51171 1.6172,-1.33204 1.4805,-0.96875 1.2266,-0.49218 0.6093,0.0859 -0.09,0.52344 -0.9141,0.88672 -1.3594,1.08594 -1.5351,1.26953 m 4.5234,-63.02344 -0.1289,0.19141 -0.5508,0.0625 -0.5546,-0.0625 -0.125,-0.19141 0.3789,-0.125 h 0.5976 l 0.3828,0.125 m 2.1875,40.72656 v 4.73829 l -0.062,1.40234 -0.125,0.875 h -0.1914 l -0.1289,-0.875 -0.062,-1.40234 v -6.31641 l 0.027,-1.40234 0.094,-1.05469 0.1524,-0.35156 0.164,0.35156 0.098,1.05469 0.035,1.40234 v 1.57812 m 3.1133,15.36329 0.5977,-0.97266 v 1.94141 l -0.5977,-0.96875 m 1.8516,-53.41016 c 0.1679,1.16016 0.8515,11.42187 0.2148,11.69922 -0.707,-5.03125 -1.418,-10.0625 -2.1289,-15.09375 0.207,-0.67578 1.6758,1.77734 1.9141,3.39453 m 3.7148,83.46484 0.5117,-0.10156 0.6368,0.0312 0.2539,0.15234 -0.2539,0.16407 -0.6368,0.0351 -0.5117,-0.0937 v -0.1875 m 2.8555,-17.94531 c -1.2383,1.12109 -2.4805,2.24219 -3.7188,3.36328 0.2032,1.0625 0.4063,2.125 0.6094,3.1875 -1.3516,0.51172 -3.9375,1.01953 -5.2656,-0.0586 -1.8399,-0.39453 1.3789,-6.05078 -2.5938,-6.85156 -3.4101,-0.61719 -6.832,4.47265 -7.2265,3.83593 -0.1133,-0.55859 5.6992,-8.30078 6.8476,-8.1914 1.1641,1.74609 3.7071,4.94922 7.2305,4.89843 2.8984,0.4336 2.668,-6.66796 3.3164,-4.60546 0.2578,1.01953 1.0195,3.54296 0.8008,4.42187 m 1.414,-12.86328 -0.3125,-0.96875 0.9688,0.30859 -0.6563,0.66016 m 1.086,30.35156 h 1.293 l -0.9688,0.59766 -0.9687,-0.59766 h 0.6445 m 6.3945,-28.99609 c 0.1328,3.34375 -1.4414,13.05859 -1.7773,13.21875 -1.0977,0.51562 -3.3125,-1.86719 -3.4688,-3.6836 1.1172,-2.66406 2.2344,-5.32812 3.3477,-7.99218 -0.5196,-5.95313 -1.0391,-11.90235 -1.5586,-17.85547 1.1523,5.4375 2.3047,10.875 3.457,16.3125"
     id="path87" />
  <path
     fill-rule="nonzero"
     fill="#FFFFFF"
     fill-opacity="1"
     d="m 1069.1545,369.41092 c -2.3555,1.04297 -5.4414,4.48828 -6.3945,6.38281 -1.1602,2.30078 -2.4024,5.0625 -2.6055,7.02734 -0.211,2.01172 0.9219,7.38282 2.3203,8.67188 1.3086,1.21094 5.9727,1.25391 8.5,0.71875 2.457,-0.51953 5.1328,-2.66797 6.8828,-5.29688 1.9297,-2.88671 2.4922,-6.39453 2.0781,-8.71875 -0.7461,-2.21484 -1.8711,-6.53125 -5.4453,-8.30078 -1.7539,-0.875 -3.7578,-1.18359 -5.3359,-0.48437 m 1.7578,11.54297 -0.3281,-0.0586 -0.4375,-0.16406 -0.1641,-0.125 0.3242,0.0586 0.4375,0.16407 0.168,0.125"
     id="path88" />
  <path
     fill-rule="nonzero"
     fill="#FFFFFF"
     fill-opacity="1"
     d="m 1063.8107,388.21561 c 0.3047,-0.58594 2.3907,-12.65625 2,-13.38672 -1.2851,-2.94532 -6.3359,2.07422 -7.625,0.23828 -2,-3.76953 -7.8203,-13.22656 -13.2422,-18.19922 -1.4179,-1.30078 -3.4726,-2.25781 -5.1406,-1.90234 -1.6836,0.35546 -2.332,2.03125 -2.2265,3.89453 1.0351,1.93359 2.0742,3.86328 3.1093,5.79687 1.0352,9.71875 2.3868,20.92969 2.1758,30.84375 0.5899,1.84375 2.7852,2.34375 5.5586,1.90625 3.8906,-0.61719 13.9024,-6.34765 15.3906,-9.1914 m -15.4687,-17.58594 0.3633,0.38281 0.07,0.30859 -0.3047,-0.0547 -0.3633,-0.38282 -0.07,-0.30859 0.3047,0.0547 m 0.8203,1.79687 0.9687,-1.41015 -0.5742,1.14453 -0.3945,0.26562 m -0.6992,7.91797 c 0.9414,-1.65234 2.7383,-1.51953 4.4375,-0.77734 1.1367,0.5 1.3515,1.03125 0.4765,2.28125 -3.0625,4.36719 -6.4336,6.41797 -5.9336,8.41015 -0.3789,-1.51562 -0.4492,-7.34375 1.0196,-9.91406"
     id="path89" />
  <path
     fill-rule="nonzero"
     fill="#FFFFFF"
     fill-opacity="1"
     d="m 1098.9357,360.08279 c -2.6992,2.53907 -31.9257,30.05078 -31.1367,31.10547 1.2422,-0.39844 2.4883,-0.80078 3.7305,-1.19922 0.4726,0.91016 4.7305,5.9961 7.8398,8.01563 2.4297,1.57422 5.2657,1.8125 7.0664,2.37109 2,0.6211 6.0743,0.44922 8.7266,-1.73437 1.7266,-1.42188 2.1641,-3.14844 2.2266,-5.00391 -0.2852,-4.19922 -1.1407,-8.03516 -0.1993,-12.16797 1.168,-6.58203 6.0196,-14.16015 6.4141,-22.25 -0.7461,-1.41015 -2.9922,-0.71484 -4.668,0.86328 m -20.0781,25.85157 -1.3633,0.95703 -1.082,0.36718 -0.5469,-0.17187 0.25,-0.83203 0.8477,-1.05078 1.1992,-1.01953 1.2227,-0.65625 1.1054,-0.49219 0.7696,-0.2461 0.2578,0.0508 -0.4141,0.70312 -0.957,1.15234 -1.2891,1.23829 m 4.0078,4.9414 -0.9101,-0.91015 0.9101,-0.90625 0.9063,0.90625 -0.9063,0.91015 m 0,-10.43359 0.2656,0.43359 0.7032,0.16406 h -1.9375 l 0.9687,-0.59765 m 5.7813,7.625 c 0.098,-1.7461 1.2031,-4.48047 2.0898,-4.5586 0.2344,-0.0234 1.168,5.17969 0.8399,5.87891 -0.2579,0.54688 -0.9961,0.98047 -1.6133,1.01953 -1.0899,0.0703 -1.3985,-0.83203 -1.3164,-2.33984 m 2.5508,-7.11719 c -0.6485,-0.63281 -0.879,-2.91797 -0.2305,-4.47266 0.9336,-2.23437 3.4297,-4.20312 4.125,-3.82421 0.8594,0.46875 -3.5156,8.66796 -3.8945,8.29687 m 5.1718,-11.71484 0.066,0.0351 -0.027,0.59766 -0.098,0.74219 -0.078,0.36718 -0.055,-0.375 0.1016,-0.73046 0.09,-0.63672"
     id="path90" />
  <path
     fill-rule="nonzero"
     fill="#FFFFFF"
     fill-opacity="1"
     d="m 1793.0685,475.55545 c -8.8125,-2.10938 -20.3437,-3.46484 -27.9687,-3.46875 -3.9375,0.57422 -7.875,1.14844 -11.8125,1.72266 -2.1875,-0.57813 -4.3789,-1.15235 -6.5664,-1.72657 -48.8984,-0.0586 -97.7969,-0.11328 -146.6914,-0.17187 -2.875,-0.57422 -5.7461,-1.14844 -8.6211,-1.72656 -29.2891,0 -58.5742,0 -87.8633,0 -2.8789,-0.57422 -5.7617,-1.14844 -8.6406,-1.72266 -24.3672,-1.34375 -50.2891,-1.34375 -74.6524,0 -29.5156,1.62891 -57.8906,3.76953 -84.7031,5.33984 -20.0469,1.42188 -42.6055,-2.10156 -61.0625,-0.76562 -0.5508,0.94531 19.3047,5.51172 23.6406,5.53906 27.5196,0.17188 55.6094,1.52344 83.0782,0.008 14.5507,-0.80468 28.6054,-2.59765 43.0312,-3.45703 16.1445,-0.96484 35.5195,-0.082 49.3438,1.27735 6.2539,-0.47266 12.5078,-0.94922 18.7617,-1.42188 2.293,0.57031 4.5859,1.13672 6.8789,1.70703 29.3711,0.0547 58.7383,0.10938 88.1094,0.16406 2.8711,0.57422 5.7461,1.15235 8.6172,1.72657 48.7304,-0.0547 97.457,-0.11328 146.1875,-0.16797 16.371,0.94531 31.5664,3.99609 48.8671,3.5664 1.8516,-0.0469 3.5235,-0.26171 4.5586,-1.30468 0.6875,-0.69141 0.9414,-1.46094 0.7188,-2.44141 -0.3242,-1.43359 -1.5977,-2.28906 -3.211,-2.67578"
     id="path91" />
  <path
     fill-rule="nonzero"
     fill="#FFFFFF"
     fill-opacity="1"
     d="m 1579.5139,473.78982 c -8.125,-0.42187 -16.6836,-0.53906 -24.8086,-0.14062 -13.1524,1.71484 -26.3008,3.42578 -39.4493,5.14062 -7.8789,0.24219 -16.1875,0.58985 -24.0429,-0.0859 -6.4414,-0.55469 -12.086,-4.6211 -17.3867,-4.97266 -1.8008,-0.12109 -3.4219,0.72656 -3.4766,2.34766 -0.062,1.76562 6.9805,5.04687 10.1953,5.7539 6.9453,1.52735 17.5234,3.01563 24.082,2.98828 9.875,-0.0391 27.8672,-4.14062 36.918,-4.6914 8.1836,-0.5 17.0039,1.86719 23.2383,1.64062 3.7773,-0.13672 11.5664,-0.55078 16.2773,-1.8789 1.5118,-0.42578 2.0274,-1.51953 2.0274,-3.15625 0.082,-2.13282 -1.125,-2.97657 -3.5742,-2.94532"
     id="path92" />
  <path
     fill-rule="nonzero"
     fill="#FFFFFF"
     fill-opacity="1"
     d="m 1615.717,470.35232 c -17.4805,-0.82812 -36.961,0.74219 -54.4258,1.74219 -15.0195,0.85938 -39.7578,4.30469 -55.1484,5.125 -9.1172,-0.61719 -18.2305,-1.23437 -27.3477,-1.85547 -7.6953,0.39453 -16.6836,0.65235 -24.1406,1.85157 -1.6719,0.26953 -3.8242,1.18359 -4.3203,2.51171 -0.3789,1.01563 0.2656,1.45313 1.1718,1.58594 7.6563,-1.66797 21.7735,-1.17578 31.4883,-1.08594 8.668,0.082 17.0313,2.25782 25.7227,1.79297 2.875,-0.57422 5.75,-1.14843 8.6289,-1.72656 27.4844,-1.57812 55.4414,-0.22656 82.9375,-1.88672 3.5351,-0.21484 12.3242,-0.51172 17.0391,-1.93359 1.4257,-0.42969 1.9218,-1.53516 1.9179,-3.17578 0.082,-2.14453 -1.0976,-2.98828 -3.5234,-2.94532"
     id="path93" />
  <path
     fill-rule="nonzero"
     fill="#FFFFFF"
     fill-opacity="1"
     d="m 1670.26,460.42264 c -1.2774,-1.67578 -5.504,-4.71485 -7.3243,-6.10938 -4.3984,-3.375 -23.0703,-16.32812 -30.7422,-19.09765 -1.5898,-0.57032 -3.6992,-0.27344 -4.4335,1.26171 -0.5079,1.06641 9.4023,9.46875 13.0546,12.08204 6.0899,4.35937 14.5782,7.29687 19.9532,11.58984 1.5703,2.42578 3.1406,4.84766 4.707,7.27344 1.2812,0.875 3.4453,0.85156 4.5469,-0.14844 1.6054,-1.45703 1.2383,-5.54297 0.2383,-6.85156"
     id="path94" />
  <path
     fill-rule="nonzero"
     fill="#FFFFFF"
     fill-opacity="1"
     d="m 1759.8928,425.76639 c -5.2618,1.02343 -10.5235,2.05078 -15.7891,3.07812 -16.5508,0.92188 -33.4258,0.80469 -49.9609,1.72266 -10.0196,0.55469 -22.0586,3.17969 -29.4727,3.5625 -10.1797,0.53515 -18.8555,-3.30469 -27.2422,-3.59375 -2.1328,0.043 -4.8828,0.36719 -7.289,1.82031 -1.1368,0.6875 -2.0274,1.61719 -1.9571,2.53906 0.1172,1.64844 2.2266,2.19532 3.9492,2.33985 7.9024,0.65234 16.0196,1.27734 24.1758,1.72265 10.8555,0.59375 22.3946,0.59766 33.2461,0 20.1641,-2.55468 40.6563,-2.97265 60.4258,-3.8164 4.1133,-0.82813 8.8438,-1.69922 13.7852,-3.66407 1.7421,-0.6914 3.1484,-2.13671 3.0742,-3.38281 -0.1094,-1.78125 -4.2071,-2.68359 -6.9453,-2.32812"
     id="path95" />
  <path
     fill-rule="nonzero"
     fill="#FFFFFF"
     fill-opacity="1"
     d="m 1775.3029,430.52811 c -3.1679,1.24218 -9.3125,6.32421 -11.7773,8.54296 -6.3555,5.72266 -13.8242,11.4961 -19.3516,17.6875 -2.3906,3.76954 -8.582,8.33985 -7.832,12.42579 0.4883,1.17187 1.625,1.60937 2.8945,1.59375 1.3477,-0.0156 2.4414,-0.57813 3.4414,-1.37891 10.5196,-8.43359 39.5117,-39.69141 39.5703,-39.43359 -0.2812,-1.29688 -4.2226,-0.50391 -6.9453,0.5625"
     id="path96" />
  <path
     fill-rule="nonzero"
     fill="#FFFFFF"
     fill-opacity="1"
     d="m 1676.4084,427.10623 c -2.4922,-1.69141 -4.9844,-3.38281 -7.4766,-5.07422 -1.6562,-1.49219 -7.3711,-9.47265 -9.3359,-12.14844 -0.8867,-1.10156 -2.1758,-1.91796 -2.9961,-1.26171 -0.8125,0.64843 -0.8828,3.32031 -0.1523,4.99218 0.7265,1.65235 2.1953,3.71485 6.3281,8.08985 2.4765,2.625 6.1679,6.3125 9.1523,8.41015 -1.2851,-0.38281 6.9297,3.46485 5.4844,1.70703 0.8945,-1.3164 0.2539,-3.30468 -1.0039,-4.71484"
     id="path97" />
  <path
     fill-rule="nonzero"
     fill="#FFFFFF"
     fill-opacity="1"
     d="m 1742.7092,388.28201 c -2.6524,-0.20312 -5.4375,0.1875 -7.6563,0.61328 2.2617,-0.43359 -75.332,17.51172 -75.2929,17.72657 0.3125,1.05468 5.7382,1.6289 10.3242,1.33984 7.1445,-0.28125 14.6093,-1.49609 18.1484,-2.23438 18.9531,-4.63671 37.9024,-9.27734 56.8555,-13.91796 1.1015,-0.67579 1.6211,-1.66407 1.1562,-2.34766 -0.4843,-0.71484 -1.914,-1.05859 -3.5351,-1.17969"
     id="path98" />
  <path
     fill-rule="nonzero"
     fill="#FFFFFF"
     fill-opacity="1"
     d="m 1743.9982,394.34061 c -1.7461,5.30078 -3.4882,10.60546 -5.2343,15.90625 -1.8438,3.93359 -3.6875,7.86718 -5.5313,11.80078 -0.07,1.04687 0.457,2.10937 1.3828,2.51953 1.7539,0.6914 3.2149,-0.30078 4.1719,-1.55469 1.582,-1.96484 2.5117,-4.08203 3.2773,-6.36328 2.0196,-6.01953 3.5625,-13.01172 4.9414,-19.72266 0.4688,-2.28906 1.0274,-4.96484 0.2344,-5.90234 -0.6367,-0.73828 -2.3281,0.59375 -3.2422,3.31641"
     id="path99" />
  <path
     fill-rule="nonzero"
     fill="#FFFFFF"
     fill-opacity="1"
     d="m 1631.3537,465.03592 c 0.2617,-3.47266 0.4219,-7.66406 0.027,-11.04297 -0.4453,-0.98438 -0.8867,-1.96484 -1.3281,-2.94922 0.5469,-8.06641 -1.3047,-16.10547 -1.5117,-24.41797 -0.4531,-1.17187 -0.9023,-2.34375 -1.3555,-3.51562 0.2852,-0.89453 0.5664,-1.78907 0.8516,-2.6836 -0.1914,-0.22265 -0.7773,-0.33593 -1.2031,-0.27343 -0.8008,0.12109 -0.9532,0.59765 -1.0078,1.34765 -0.418,5.5 0.3906,12.08985 0.6836,17.61328 0.4804,1.20703 0.957,2.41797 1.4375,3.625 -0.2422,7.71875 0.6406,16.26953 1.1562,23.46094 0.293,0.23828 0.8438,0.32031 1.2695,0.23438 0.7735,-0.15235 0.9258,-0.64063 0.9805,-1.39844"
     id="path100" />
  <path
     fill-rule="nonzero"
     fill="#FFFFFF"
     fill-opacity="1"
     d="m 1664.9396,468.90701 c -15.0351,-0.10937 -30.332,0.19141 -45.4492,-0.0703 -1.5234,0.082 -4.4414,0.375 -5.7695,1.03906 -0.7266,0.50781 -1.4492,1.01172 -2.1758,1.51953 -1.6836,0.33985 -3.3672,0.67578 -5.0508,1.01563 -0.4258,0.26953 -0.6523,0.57422 -0.625,1.03906 0.039,0.66797 0.7266,1.02734 1.5039,0.92188 0.793,-0.41797 1.5821,-0.83985 2.375,-1.26172 3.1797,-0.8125 8.4649,-1.375 12.0157,-1.48438 4.1406,-0.125 7.8867,0.44141 12.1054,0.71094 10.4492,-1.23047 21.75,-0.26953 31.6602,-1.18359 0.2383,-0.28516 0.3164,-0.85157 0.289,-1.26954 -0.051,-0.77734 -0.3281,-0.92578 -0.8789,-0.97656"
     id="path101" />
  <path
     fill-rule="nonzero"
     fill="#FFFFFF"
     fill-opacity="1"
     d="m 1606.4201,404.98123 c -0.2226,-0.66406 -0.582,-1.34766 -1.0469,-1.02734 -0.3984,0.28125 -0.4765,1.25 -0.1601,1.99609 0.3281,0.77734 1.0078,1.32031 1.3359,1.19141 0.3945,-0.15235 0.1328,-1.375 -0.1289,-2.16016"
     id="path102" />
  <path
     fill-rule="nonzero"
     fill="#FFFFFF"
     fill-opacity="1"
     d="m 1660.3068,392.08279 c -0.4609,-0.17578 -2.0703,-0.18359 -2.3593,0.27344 0.207,0.88281 0.414,1.76953 0.621,2.65625 0.027,1.72266 -1.6796,5.53516 -2.2148,7.16797 -1.0625,3.25 -2.9375,6.20703 -4.7695,8.58594 -1.1367,1.47265 -3.3164,3.83593 -4.8008,4.5664 -1.8359,0.90235 -5.1797,2.73828 -7.1055,3.0586 -4.2187,0.69531 -10.0703,0.67578 -14.2969,-0.004 -4.0781,-0.65234 -8.7109,-2.15625 -12.7343,-3.48828 -1.7735,-0.58594 -5.168,-1.89063 -7.2852,-3.10547 -2.5859,-1.48437 -5.4375,-3.71094 -7.8281,-5.68359 -2.0352,-2.60938 -4.8203,-5.08594 -6.0859,-7.31641 -0.9141,-0.25781 -0.9688,1.62891 -0.8477,2.81641 0.4102,2.2539 2.5117,4.57031 4.0469,6.51562 1.5195,1.67188 3.8476,3.46094 6.1172,5.17969 3.6132,1.59375 7.2265,3.18359 10.8359,4.77734 4.0078,1.36719 7.9492,2.78907 12.3047,3.17188 6.0195,0.0273 12.0351,0.19922 18.0547,-0.0664 2.1601,-0.35937 5.2031,-1.84765 7.2656,-3.05469 2.2812,-1.33984 5.5703,-4.89843 6.9961,-7.02343 1.3281,-1.97657 2.5937,-4.85547 3.1601,-6.52735 0.7149,-3.80468 1.7344,-8.01562 1.4141,-11.75 -0.078,-0.45703 -0.1601,-0.62109 -0.4883,-0.75"
     id="path103" />
  <path
     fill-rule="nonzero"
     fill="#FFFFFF"
     fill-opacity="1"
     d="m 1656.2365,382.62186 c -2.4922,0.72265 -4.2851,2.27343 -7.1445,2.10156 -11.1836,0.33984 -23.1133,-0.78516 -34.5508,-0.71485 -4.7461,0.0273 -9.7461,0.45704 -14.457,0.71875 -1.668,0.0937 -3.4414,1.8711 -5.0196,2.40235 -1.9336,0.19531 -3.8632,0.39062 -5.7929,0.58594 -0.4375,0.18359 -0.6602,0.46093 -0.6563,0.91406 0.01,0.46484 0.2344,0.70312 0.6875,0.87109 1.1094,0.40235 3.2149,0.19531 4.5078,0.13672 2.3946,-0.11328 5.0391,-1.55859 7.9571,-2.03906 3.5937,-0.0508 7.1914,-0.10156 10.789,-0.15625 0.9649,-0.46094 1.9297,-0.92578 2.8946,-1.38672 7.8554,-0.45703 16.2656,-0.45313 24.1211,0 0.9726,0.45312 1.9492,0.90625 2.9218,1.35937 2.4844,0.61329 6.2032,0.23438 8.8282,0.0977 1.3359,-0.0703 4.8437,-1.34766 5.832,-2.01562 0.5976,-0.40235 0.8359,-1.13672 0.7695,-1.87891 -0.07,-1.01172 -0.6719,-1 -1.6875,-0.99609"
     id="path104" />
  <path
     fill-rule="nonzero"
     fill="#FFFFFF"
     fill-opacity="1"
     d="m 1657.967,389.38748 c 0.1055,-1.14844 -0.027,-2.24219 -0.6641,-2.17187 -0.5351,0.0547 -1.0547,0.67187 -1.1015,1.42187 -0.039,0.73438 0.3593,1.73047 0.8437,1.96094 0.5859,0.28125 0.8516,-0.40235 0.9219,-1.21094"
     id="path105" />
  <path
     fill-rule="nonzero"
     fill="#FFFFFF"
     fill-opacity="1"
     d="m 1590.3654,389.57889 c -0.4726,0.14062 -1.3125,0.72265 -1.6367,1.24218 -0.4492,0.71485 -0.3945,1.94922 -0.3398,2.91797 0.098,1.69532 1.2578,4.0625 1.8945,5.92969 0.2422,0.71484 0.6406,1.28516 1.1328,1.02344 0.2773,-1.91016 -0.8789,-9.53906 -1.0508,-11.11328"
     id="path106" />
  <path
     fill-rule="nonzero"
     fill="#FFFFFF"
     fill-opacity="1"
     d="m 1334.3576,324.16482 c -1.2344,0.082 -1.9883,0.3086 -2.1836,1.34766 1.2149,8.06641 2.5586,15.98828 2.0742,23.52734 -0.1836,3.53516 -1.9023,10.69922 -3.5039,15.82813 -2.6562,8.48828 -4.582,13.77734 -8.3867,21.44531 -2.6601,4.50781 -5.3242,9.01563 -7.9883,13.52735 -2.3281,5.47265 -4.2851,11.39453 -5.664,17.0039 -1.4102,5.71485 -1.961,10.5586 -1.5938,17.13672 2.9883,13.13672 2.2188,26.53516 6.2266,38.97656 0.6367,0.3086 1.0508,-0.0547 1.4219,-0.68359 0.6992,-1.1875 1.1367,-3.5 1.0078,-4.72656 -0.8672,-13.57422 -3.3594,-26.55078 -4.0821,-41.56641 1.0586,-6.58203 1.6289,-11.87891 3.6563,-17.89062 4.75,-8.78125 8.6406,-16.37891 12.5586,-23.66407 3.6875,-8.76562 6.3086,-16.85156 9.1875,-25.92187 0.7695,-2.42578 1.2812,-6.30078 1.4336,-8.95313 0.2929,-6.5664 -0.1875,-13.80859 -0.6836,-19.9375 0.5234,-0.96093 2.3203,-1.88672 3.4531,-1.58984 0.9922,0.26172 1.5586,1.27734 1.7734,2.40625 0.375,11.17578 1.7657,22.42578 1.2852,33.62891 0.3203,3.57031 0.8945,7.89453 2.1016,11.40234 2.3281,6.77344 4.7773,11.52734 7.5,16.93359 1.7695,3.51563 3.4765,6.01172 5.9101,9.2461 0.5391,0.72265 1.1289,1.35156 1.9141,1.49609 1.1992,0.22656 2.1914,-0.73047 2.4219,-1.6875 -3.4805,-8.6875 -8.4336,-16.38281 -13.1602,-26.32812 -0.8477,-4.48047 -1.9102,-9.82813 -2.3359,-14.58594 -0.9922,-11.20313 -0.5704,-22.8086 -1.293,-34.07422 -0.078,-1.20313 -0.2813,-1.85938 -1.3242,-2.14844 -3.0782,-0.85156 -8.336,-0.375 -11.7266,-0.14844"
     id="path107" />
  <path
     fill-rule="nonzero"
     fill="#FFFFFF"
     fill-opacity="1"
     d="m 1368.6037,464.53592 c -0.5078,-16.08203 -2.6836,-35.375 -3.2812,-53.29297 -0.6368,-4.04688 -1.3047,-8.625 -2.9727,-12.49609 -2.1953,-3.75782 -5.1055,-9.48438 -8.543,-12.38282 -1.0039,0.0781 -0.9414,1.0586 -0.4804,2.23047 1.7382,3.14063 3.4765,6.28125 5.2109,9.42188 0.8867,2.08593 1.5273,4.41015 1.875,6.59375 0.7461,17.5664 1.7812,34.63281 3.1523,51.96093 0.3477,2.10157 0.5586,4.89844 1.1407,6.79688 0.3242,1.05469 1.3007,2.00391 2.4922,2.08203 0.8437,0.0547 1.1718,-0.28125 1.4062,-0.91406"
     id="path108" />
  <path
     fill-rule="nonzero"
     fill="#FFFFFF"
     fill-opacity="1"
     d="m 1368.5256,466.14529 c -3.1367,-0.30859 -7.7344,-0.32031 -11.3321,-0.0469 -12.2343,2.10156 -23.9765,4.13672 -36.2773,5.71484 -0.6953,0.28125 -1.0469,0.69531 -1.0469,1.45703 0,0.76953 0.3555,1.26953 1.0703,1.73828 0.9258,0.60547 2.3477,0.78907 3.4883,0.89844 5.4805,0.51953 12.043,-0.65625 17.0508,-1.10156 8.543,-1.60156 17.2734,-3.67969 26.0938,-3.46094 1.4453,-0.4375 2.375,-2.03515 2.3554,-3.69922 -0.016,-1.17578 -0.5195,-1.41015 -1.4023,-1.5"
     id="path109" />
  <path
     fill-rule="nonzero"
     fill="#FFFFFF"
     fill-opacity="1"
     d="m 1427.1232,420.51248 c -0.2929,-0.45312 -0.7929,-0.61719 -1.4726,-0.51562 -4.1172,2 -8.2578,5.74609 -11.8086,5.95312 -2.0078,0.37109 -7.7813,-0.83203 -11.4727,-2.07812 -2.1523,-0.72266 -4.6133,-1.26954 -6.5195,-2.97266 -3.5547,-4.29688 -7.1055,-8.59766 -10.6563,-12.89844 -1.0351,-0.58594 -2,-0.0898 -2.1601,0.96875 0.2578,4.6211 2.3281,6.54297 4.2187,10.46094 3.918,3.42969 8.375,7.81641 12.5079,10.04297 4.9335,0.74219 9.0351,2.44531 14.914,2.1875 2.3125,-0.4375 4.7774,-1.04688 6.5235,-2.19922 1.3789,-0.90625 4.6093,-3.14453 5.789,-5.62109 0.5938,-1.24219 0.582,-2.64844 0.1367,-3.32813"
     id="path110" />
  <path
     fill-rule="nonzero"
     fill="#FFFFFF"
     fill-opacity="1"
     d="m 1431.5568,398.52811 c -3.5312,-0.34766 -8.5508,-0.28125 -12.5586,-0.0899 -11.4101,0.53906 -19.8437,3.72266 -29.2461,4.20703 -1.9101,-0.20703 -3.8164,-0.41797 -5.7265,-0.625 -0.6172,0.21094 -0.9571,0.65625 -0.6992,1.40625 0.8125,1.85157 3.582,2.8711 5.2617,2.75782 13.6601,-1.02735 27.3984,-1.35938 40.8906,-2.41407 1.6016,-0.39062 3.2344,-1.91797 3.4336,-3.67578 0.1367,-1.22656 -0.5195,-1.48437 -1.3555,-1.5664"
     id="path111" />
  <path
     fill-rule="nonzero"
     fill="#FFFFFF"
     fill-opacity="1"
     d="m 1430.9357,403.12186 c -1.5117,2.28906 -4.457,9.53515 -4.7539,11.74218 -0.09,0.66797 0.1992,1.4336 0.8789,1.82032 0.6993,0.40234 1.5821,0.3125 2.2696,-0.043 2.0547,-3.10938 3.625,-9.39844 5.4882,-12.08203 0.25,-0.75782 0.02,-1.75 -1.1093,-2.27344 -1.0938,-0.50391 -2.1563,-0.0977 -2.7735,0.83594"
     id="path112" />
  <path
     fill-rule="nonzero"
     fill="#FFFFFF"
     fill-opacity="1"
     d="m 1414.9396,461.05545 c 0.6172,-2.0625 0.2539,-5.12109 -0.047,-6.57813 -1.0391,-5.0625 -2.1602,-13.96484 -4.4375,-19.73828 -0.2735,-0.69922 -0.6368,-1.0664 -1.5196,-1.05468 -1.2617,0.0156 -2.2265,1.04687 -2.5468,2.23828 -0.1329,8.69531 4.164,16.70703 4.5468,25.1914 0.3243,1.0625 1.2774,2.01563 2.5313,1.64063 0.8633,-0.25781 1.2461,-0.9375 1.4726,-1.69922"
     id="path113" />
  <path
     fill-rule="nonzero"
     fill="#FFFFFF"
     fill-opacity="1"
     d="m 1429.4553,463.96951 c -4.211,-0.94531 -10.6016,-0.36719 -15.125,-0.10547 -2.5586,0.64844 -5.1172,1.30078 -7.6797,1.94922 -3.4102,0.0977 -6.8242,0.19922 -10.2383,0.29688 -1.0195,0.19531 -1.9063,0.70703 -2.5352,1.72265 -0.3671,0.59375 -0.6289,1.38672 -0.3242,1.9961 0.2891,0.58593 1.0899,0.9414 1.9063,0.99218 11.4258,-0.85937 20.8164,-3.30859 33.0234,-2.80468 1.6094,-0.11328 2.2813,-0.6875 2.2774,-2.23047 0,-1.06641 -0.3243,-1.59766 -1.3047,-1.81641"
     id="path114" />
  <path
     fill-rule="nonzero"
     fill="#FFFFFF"
     fill-opacity="1"
     d="m 1399.9709,418.31717 c 6.043,-0.82031 12.082,-1.64063 18.125,-2.46094 1.8281,-0.41406 4.6211,-0.74219 4.3984,-2.05078 -0.1445,-1.10938 -10.5312,-0.89063 -13.4961,-0.65625 -6.0234,0.48047 -12.2656,1.33203 -18.2461,2.26562 -1.4843,0.23047 -3.4336,1.36719 -2.9453,2.34375 2.7422,1.08204 8.2657,0.64844 12.1641,0.5586"
     id="path115" />
  <path
     fill-rule="nonzero"
     fill="#FFFFFF"
     fill-opacity="1"
     d="m 1355.006,393.97342 c -9.7148,0.4375 -18.9648,0.875 -28.4414,1.07031 -2.0117,0.11328 -6.2421,0.58594 -7.9062,1.27734 -0.6875,0.28907 -1.0352,0.72266 -1.0352,1.44922 0,0.75782 0.3477,1.16407 1.0586,1.57032 1.1875,0.6875 3.2188,0.99218 4.6367,0.90234 3.7969,-0.63281 7.5938,-1.26953 11.3946,-1.90234 7.1523,-0.19922 14.3047,-0.39844 21.4609,-0.59766 1.0899,-0.11719 2.043,-0.77344 2.0352,-1.98828 -0.02,-1.44141 -1.6992,-1.89453 -3.2032,-1.78125"
     id="path116" />
  <path
     fill-rule="nonzero"
     fill="#FFFFFF"
     fill-opacity="1"
     d="m 1393.3967,208.86014 c -12.0782,-5.17578 -21.5196,-8.92188 -29.7617,-13.76563 -12.961,-1.74609 -33.0977,-10.20312 -44.1875,-12.73828 -12.879,-2.49609 -25.7227,-5.08594 -38.4336,-6.76562 -14.4493,1.57421 -22.5,4.03515 -34.7735,6.38281 -11.4336,4.45312 -22.8672,8.90234 -34.3008,13.35547 -7.0703,4.38672 -15.832,10.82422 -24.4023,18.69922 -8.5313,10.09765 -19.8906,22.22656 -25.9805,31.26953 -0.3008,1.98437 0.4922,3.28125 2.1446,3.78125 1.5859,0.47656 3.9218,0.30078 5.2304,-0.48438 6.1407,-9.23047 12.9024,-17.76172 22.9532,-28.59375 8.3632,-8.15625 17.2578,-13.69531 24.4804,-18.08594 8.3321,-5.0664 22.2227,-9.77343 33.8125,-13.35546 9.9297,-2.95313 19.3047,-4.94141 30.8164,-6.08204 9.5235,0.0195 23.5625,2.90625 31.5938,5.45313 15.582,4.66406 31.1601,9.32812 46.7383,13.99219 9.4336,3.72656 15.5976,5.72265 26.4765,11.71484 8.7149,4.80078 16.8867,11.92188 22.6133,16.29297 6.543,5 18.8516,10.33984 26.5352,14.74609 0.8945,0.51172 1.6992,0.79688 2.4765,0.10938 0.5821,-0.51172 0.8555,-1.79297 0.6367,-2.75781 -10.6523,-10.76172 -29.3515,-20.63282 -44.6679,-33.16797"
     id="path126" />
  <path
     fill-rule="nonzero"
     fill="#FFFFFF"
     fill-opacity="1"
     d="m 1160.342,227.96561 c -0.7305,2.69921 -1.461,5.39453 -2.1914,8.08984 -2.6758,4.21875 -5.3477,8.4375 -8.0196,12.65234 -0.9414,1.69532 -1.1757,4.73438 -0.5625,7.07813 0.3321,1.26953 0.8399,2.24219 2.0391,2.83203 5.8047,0.71875 11.8008,-2.44141 17.6797,-4.08984 2.7578,-1 6.6367,-2.62891 8.2852,-5.57032 1.5703,-4.19531 0.75,-6.63281 -1.3555,-10.95312 -2.4336,-4.16797 -7.1367,-10.13281 -10.6211,-11.64063 -1.9688,-0.84765 -4.3359,0.125 -5.2539,1.60157 m 10.207,18.91015 c -0.832,1.01953 -12.7226,6.57031 -14.0664,5.63281 0.582,0.40625 4.5664,-13.875 5.2578,-15.01171 1.0899,-2.08594 4.4649,-0.57422 6.5547,0.85156 2.0938,3.35156 3.8789,6.59375 2.2539,8.52734"
     id="path127" />
  <path
     fill-rule="nonzero"
     fill="#FFFFFF"
     fill-opacity="1"
     d="m 1337.3381,147.97732 c -1.0156,-1.4414 -2.8789,-2.5 -4.3867,-2.23437 -4.9532,0.87891 -10.2969,3.92969 -14.5899,4.17187 -16.7305,-0.98437 -34.3437,3.625 -50.5234,0.9336 -2.7188,-2.08203 -1.1914,-7.28125 -1.5938,-10.94141 0.062,-10.41406 2.5196,-20.40234 1.6094,-30.85156 -0.168,-1.92969 -0.5195,-5.35156 -1.6797,-7.03516 -0.9375,-1.34765 -2.6601,-1.3789 -3.7344,0.11328 0.2032,7.3711 0.4102,14.74219 0.6133,22.11329 -1.082,2.34375 -2.164,4.6875 -3.2461,7.03125 -1.2461,5.01171 -0.4453,12.30078 -0.2578,17.625 -0.1523,2.73828 1.3164,6.66015 4.0195,8.38281 18.6719,2.95312 38.1133,-1.13281 57.0821,-0.98828 3.1914,-0.27344 7.6328,-1.05078 10.625,-1.85547 1.6758,-0.45313 5.5156,-2.125 6.4492,-3.85547 0.4258,-0.79297 0.2422,-1.72266 -0.3867,-2.60938"
     id="path128" />
  <path
     fill-rule="nonzero"
     fill="#FFFFFF"
     fill-opacity="1"
     d="m 1341.8537,117.30154 c -0.25,-4.65625 -0.1602,-14.41797 -1.793,-20.60156 -0.3203,-1.21094 -0.7968,-2.125 -1.9609,-2.90234 -19.5273,-2.09375 -39.2695,-0.84766 -58.8867,-0.89844 -3.1172,0.22266 -7.793,0.49609 -10.0821,2.78906 -0.9335,1.37891 -0.2226,2.97266 1.5547,3.44531 4.0586,1.08204 11.9336,-1.58984 17.5547,-1.39843 14.4883,3.32031 29.8281,0.5625 43.7891,2.4414 3.5351,5.71094 0.3086,16.58203 3.5039,21.59375 -0.019,8.55078 -0.3438,17.2461 0.1562,25.70313 0.2383,2.16015 3.5704,3.90625 5.1172,2.82812 2.211,-11.05859 0.9492,-21.57422 1.0469,-33"
     id="path129" />
  <path
     fill-rule="nonzero"
     fill="#FFFFFF"
     fill-opacity="1"
     d="m 1320.3889,112.63357 c -12.1368,0.0781 -27.2188,3.40235 -39.6602,2.78907 -1.6328,0.29687 -3.1133,1.20703 -2.7187,2.01953 5.0703,0.87109 10.7343,3.5039 18.2695,2.53125 6.8437,-0.58594 16.9648,-0.125 22.9492,-1.86328 1.4727,-0.42578 1.9922,-1.53125 1.9883,-3.17578 0,-0.94532 -0.2774,-1.89844 -0.8281,-2.30079"
     id="path130" />
  <path
     fill-rule="nonzero"
     fill="#FFFFFF"
     fill-opacity="1"
     d="m 1304.549,182.84451 0.3711,-0.95703 -0.6562,-0.64062 h -1.1914 l -0.879,0.64062 0.1407,0.95703 1.0508,0.32031 1.164,-0.32031"
     id="path131" />
  <path
     fill-rule="nonzero"
     fill="#FFFFFF"
     fill-opacity="1"
     d="m 1345.8771,153.8992 1.0704,-1.59375 0.746,-1.76172 0.1368,-1.07422 -0.6836,0.0469 -1.1758,1 -1.125,1.69531 -0.3867,1.55078 0.4336,0.76172 0.9843,-0.625"
     id="path132" />
  <path
     fill-rule="nonzero"
     fill="#FFFFFF"
     fill-opacity="1"
     d="m 1360.4943,124.61014 c 0.5,-1.71875 -0.1484,-3.51172 -1.0625,-3.51172 -1.2422,0 -2.0156,3.59765 -0.5351,4.68359 0.7265,0.53125 1.3008,-0.14453 1.5976,-1.17187"
     id="path133" />
  <path
     fill-rule="nonzero"
     fill="#FFFFFF"
     fill-opacity="1"
     d="m 1309.7951,89.07498 c 3.2539,0.34375 17.4805,3.21484 18.8359,1.66016 0.7383,-0.84766 -10.5234,-3.90235 -13.0078,-4.36719 -2.207,-0.41016 -7.3711,-0.58203 -8.3242,0.76172 -0.7773,1.09765 0.8164,1.76953 2.4961,1.94531"
     id="path134" />
  <path
     fill-rule="nonzero"
     fill="#FFFFFF"
     fill-opacity="1"
     d="m 1299.6037,140.12576 c 1.7227,0.5625 3.8633,0.88672 5.6172,0.54688 1.3789,-0.26172 2.4844,-0.73047 3.6484,-1.94532 1.6758,-1.75 2.1094,-4.03515 1.5664,-5.07421 -1.289,-1.97657 -3.957,2.80468 -7.1992,3.0664 -1.6289,0.0977 -3.7265,-0.73437 -5.0742,-1.44531 -1.1172,-0.0781 -1.707,0.39062 -1.7656,1.46875 -0.086,1.66406 1.3867,2.78906 3.207,3.38281"
     id="path135" />
  <path
     fill-rule="nonzero"
     fill="#FFFFFF"
     fill-opacity="1"
     d="m 366.83415,259.68436 c 0.70703,-10.1211 -1.71875,-25.07422 -1.64063,-36.96094 3.12891,-20.73047 1.20703,-41.46094 1.73438,-62.19141 -0.7461,-13.40625 -2.70313,-26.26562 -3.44141,-39.62109 0.57422,-9.76172 1.14844,-19.52344 1.72266,-29.28516 -0.46875,-8.40625 -0.73047,-17.6289 -2.04688,-25.64453 -1.10547,-4.74609 -2.20703,-9.49219 -3.30859,-14.23828 -0.62109,-11.25781 -0.10938,-22.74219 -1.89063,-34.04688 -0.52734,-3.33984 -1.375,-7.33203 -2.50781,-10.7148396 -0.58984,-1.75781 -1.46484,-3.23047 -3.04687,-2.53125 -1.50782,0.66406 -2.13672,2.80078 -2.01172,4.64063 2.05469,29.9726496 6.5039,57.9960896 8.30859,84.6640596 0.46485,6.88281 -2.39844,20.375 -1.8789,31.10547 0.77734,16.00781 2.79296,33.20703 3.59375,46.8789 1.15234,29.28907 -2.875,53.40235 -1.72266,82.69532 0.16797,2.66015 1.70312,5.84765 3.1875,7.41406 0.65234,0.6875 1.46875,1.07812 2.57422,0.9375 1.69531,-0.21094 2.26953,-1.55078 2.375,-3.10156"
     id="path136" />
  <path
     fill-rule="nonzero"
     fill="#FFFFFF"
     fill-opacity="1"
     d="m 833.43571,15.56717 c -13.44141,0.59765 -22.375,-2.50391 -36.94141,-1.75391 -15.6289,0.8711 -32.78906,5.66406 -49.78515,6.73828 -7.06641,0.44532 -14.64844,0.51953 -21.71875,0.13282 -9.35156,-0.50782 -24.19922,-2.94141 -36.33594,-3.59766 -26.33203,1.81641 -52.66797,2.16016 -79.00391,1.88281 -24.5,-1.38672 -47.07812,-5.53515 -74.33593,-7.05469 -37.32813,0.10547 -74.65625,-0.77343 -111.98438,1.72266 -2.87109,-0.57422 -5.74219,-1.14844 -8.61328,-1.72266 -17.78906,0.91016 -35.82031,1.35157 -53.57812,-0.11328 -3.5625,-0.77343 -7.125,-1.54687 -10.6875,-2.3203096 -1.05079,0.0312 -1.52344,0.34766 -1.48438,1.5624996 0.0781,2.50781 2.37109,4.01563 4.04297,4.64063 3.44141,1.28515 10.04297,2.72265 14.76953,2.87109 14.26172,0.44141 28.64063,0.80859 42.88281,0.0312 2.86719,0.57422 5.73438,1.14844 8.60157,1.72266 36.67187,-1.77344 74.70312,-2.19141 113.45703,-1.88672 8.51172,0.48828 21.89843,3.03515 32.95703,3.59375 7.97265,-0.0469 15.9414,-0.0937 23.91406,-0.13672 5.17188,1.14453 10.34766,2.28906 15.51953,3.43359 21.03906,1.27344 43.4961,1.26563 64.54688,0.16016 5.51172,-0.28906 9.92187,-2.01563 15.07812,-1.71485 12.50781,0.72657 24.94922,2.74219 37.8086,3.44532 9.16406,0.5 18.90234,0.5 28.0664,0 18.57031,-1.01563 32.69141,-5.89453 49.86719,-6.89063 9.54687,-0.55469 20.42187,2.4961 31.07031,1.72266 2.35547,0.0898 5.26563,-1.4961 4.9961,-3.66406 -0.0937,-1.63282 -1.54297,-2.48047 -3.10938,-2.80469"
     id="path137" />
  <path
     fill-rule="nonzero"
     fill="#FFFFFF"
     fill-opacity="1"
     d="m 775.65837,260.15311 c -2.16016,0.55078 -4.32032,1.10546 -6.48047,1.66015 -3.77735,-0.10156 -13.01563,-1.07422 -16.37891,-2.21484 -1.88672,-0.97656 -3.77344,-1.94922 -5.66015,-2.92578 -7.04297,-0.90235 -14.82813,-0.3711 -22.07813,0.0391 -6.91016,-1.14063 -13.82031,-2.28516 -20.73047,-3.42578 -12.66406,-0.72656 -26.20703,-0.72656 -38.875,0 -17.67187,1.01562 -35.3789,6.53906 -56.48047,8.34765 -18.6914,1.60547 -41.09375,4.48047 -57.3164,5.4375 -38.83594,2.28125 -64.98828,1.80079 -106.53907,1.53907 -11.58593,-0.0703 -25.72265,-2.4961 -39.625,-1.72266 -9.1914,0.51172 -20.55078,0.125 -29.30078,1.90234 -2.13672,0.4336 -4.95312,2.48438 -4.35547,3.78516 18.16016,1.72266 39.79688,0.61719 59.24219,0.82813 2.30078,0.57031 4.60156,1.14453 6.90235,1.71875 38.99218,-0.50782 75.86718,-1.3711 116.26953,-1.5625 20.4375,-1.09766 40.49609,-3.63672 58.42187,-5.25391 18.85938,-4.72266 37.90625,-5.95313 56.98828,-8.51953 23.7461,-2.0625 48.08985,4.19531 71.57032,3.28125 8.10546,1.73437 16.20703,3.46875 24.3125,5.20703 6.53906,-0.54297 13.07812,-1.08594 19.62109,-1.62891 10.50781,0.0195 20.67578,2.26563 31.20703,1.60157 4.90234,-0.3086 13.91797,-0.58594 20.44922,-1.76563 2.24609,-0.40625 5.16797,-3.18359 4.89062,-5.23828 -0.12109,-0.89453 -60.05859,-1.46875 -66.05468,-1.08984"
     id="path138" />
  <path
     fill-rule="nonzero"
     fill="#FFFFFF"
     fill-opacity="1"
     d="m 854.11149,252.32889 c 0.45703,-1.36719 0.36719,-3.85547 0.26953,-5.36719 -1.11718,-2.97266 -2.23047,-5.94531 -3.34765,-8.92188 -0.92578,-36.05078 -1.05078,-72.61718 -3.14844,-108.33984 -0.68359,-7.02734 2.55469,-19.76172 2.97656,-26.92187 1.30078,-22.21875 1.28516,-46.01954 0,-68.23438 -0.16015,-2.75781 -0.71094,-6.94531 -2.38281,-10.20703 -1.55859,-2.66016 -5.60938,-7.00781 -8.47266,-6.75391 -1.26562,0.13282 -1.83593,1.00782 -1.84765,1.85157 -0.0274,2.34375 6.14453,12.08203 6.38281,16.15234 1.18359,20.40234 1.21875,42.30078 0,62.70312 -0.44531,7.44922 -3.12891,19.42579 -3.62891,29.52344 2.64453,37.5 2.17188,75 3.42969,112.5 0.12109,3.36328 2.38672,9 3.67969,12.08594 0.60156,1.42969 2.07422,2.21484 3.94531,1.82812 1.29688,-0.26562 1.76953,-0.78906 2.14453,-1.89843"
     id="path139" />
  <path
     fill-rule="nonzero"
     fill="#FFFFFF"
     fill-opacity="1"
     d="m 700.60759,156.99686 c -7.76172,-1.32813 -17.89844,-1.56641 -23.8086,-1.91016 -21.65625,-1.25781 -44.84765,-1.25391 -66.50781,0 -4.46094,0.25781 -7.46875,2.07422 -12.97266,1.72266 -6.51562,-0.41797 -18.0664,-3.10157 -27.59375,-3.6211 -11.41797,-0.6289 -23.55859,-0.6289 -34.97656,0 -22.71484,1.24219 -44.41797,6.125 -66.92578,6.89063 -16.48438,-0.13672 -35.24219,1.69922 -50.03516,-1.17578 -1.69531,0.17968 -3.35547,1.70703 -2.92187,3.39453 1.8789,3.29687 7.84765,2.86328 11.51953,4.11718 5.57422,0.9336 11.95312,0.64454 17.55078,0.33985 35.5625,-1.9336 67.5625,-5.3711 98.44141,-7.05078 7.6289,-0.41407 15.80468,-0.33985 23.42968,0.13672 9.41797,0.58984 20.09766,2.875 27.20704,3.29687 26.41796,-2.07812 52.83203,-1.875 79.25,-1.72266 8.19531,0.48047 22.5039,3.48438 31.50781,3.4961 2.57812,0.22656 5.21875,-1.58203 5.1875,-3.65625 -0.14453,-2.50391 -5.15625,-3.39844 -8.35156,-4.25781"
     id="path140" />
  <path
     fill-rule="nonzero"
     fill="#FFFFFF"
     fill-opacity="1"
     d="m 477.04509,116.92654 c -0.74219,-2.48047 -5.46094,-7.09765 -8.77735,-9.30859 -5.74609,-2.58984 -11.48828,-5.18359 -17.23437,-7.77734 -0.45313,-2.56641 3.67578,-6.04688 3.78515,-9.61719 0.0977,-3.23047 -0.44922,-5.96875 -2.92187,-7.96485 -3.95703,-2.5 -10.17969,-1.5 -15.30078,-0.76562 -3.86719,0.99609 -11.02735,4.05469 -13.98438,7.42969 -0.89062,1.01562 -1.17969,1.89453 -0.64844,3.08203 0.51954,1.16406 1.55079,1.8164 2.70313,1.88672 2.53906,0.15625 4.28906,-4.42188 7.25391,-5.07422 5.17578,-1.27735 11.16406,-2.21485 16.09765,-0.34766 1.30469,0.6211 1.33203,1.3125 0.92188,2.38672 -1.63672,2.60156 -3.27735,5.20313 -4.91407,7.80078 -0.46875,1.97266 -0.40625,3.56641 0.61329,5.06641 5.875,4.60156 14,4.80859 22.55859,10.40625 1.67187,1.02734 2.83594,2.29297 3.14453,3.83594 0.66797,3.3789 -2.96094,7.58984 -5.4375,11.17187 -2.78906,3.26172 -7.83984,5.05469 -10.46484,5.78516 -1.3086,0.36718 -5.44922,-0.64844 -8.50782,-2.76953 -1.4414,-1.84375 -2.88281,-3.6875 -4.32421,-5.53125 -0.75391,-0.51563 -1.90625,-0.57422 -2.64063,0.0195 -1.36719,1.10547 -1.18359,4.46875 -1.07812,6.74218 0.0976,2.02735 0.4414,3.25 1.94921,4.25782 4.74219,1.79687 8.3086,4.59375 14.25,4.54297 4.69141,-0.48047 9.77344,-3.38282 12.70704,-4.96094 1.86328,-1 4.6289,-2.85156 6.65625,-5.25391 3.83593,-5.20703 3.98437,-11.33203 3.59375,-15.04297"
     id="path141" />
  <path
     fill-rule="nonzero"
     fill="#FFFFFF"
     fill-opacity="1"
     d="m 536.87321,86.81326 c -3.81641,-2.6289 -9.72266,-4.40625 -13.92578,-4.15625 -2.57422,0.15235 -4.89453,0.71875 -7.39063,2.3711 -2.09765,1.39453 -5.08593,4.32421 -6.67578,6.77343 -1.26172,1.94532 -1.40234,3.64844 0.125,4.57032 3.92969,1.18359 9.11328,-7.15235 13.83594,-6.32032 2.72656,-0.53906 4.25,0.32422 8.07422,2.11328 2.99219,1.40235 5.98828,3.27344 7.04687,5.26563 1.83985,3.47266 5.64063,12.44531 4.47266,14.37109 -1.33984,2.21485 -2.42578,6.19922 -5.71875,10.72657 -1.91406,2.63671 -4.50391,6.02343 -7.26953,7.67187 -2.00391,1.19531 -4.40234,1.72266 -6.50391,1.87891 -2.9414,0.21875 -7.17968,-0.71485 -9.90625,-1.73828 -2.85156,-1.07032 -5.55859,-3.36329 -8.15625,-6.34375 -2.11328,-2.4336 -3.97656,-5.45704 -4.78906,-8.12891 -1.12109,-3.66797 -0.14453,-7.91406 1.01563,-11.60547 1.46875,-2.44922 2.9414,-4.90234 4.41406,-7.35156 0.21875,-1.47656 -1.32031,-2.19531 -3.37891,-1.57422 -3.37109,1.01953 -6.72265,4.31641 -7.29297,6.65625 0.1875,7.51172 -1.54297,15.4375 1.09766,22.91016 1.48047,2.60546 3.76562,5.20312 6.19531,7.23046 3.10938,2.59375 6.64063,4.78907 10.1875,5.57813 4.27735,0.94922 8.45703,1.91797 12.70703,1.57812 3.29297,-0.26171 8.37891,-2.61328 12.11719,-4.88671 2.63281,-1.60157 6.67578,-7.45704 8.3125,-11.15625 1.20313,-2.71485 1.60547,-4.74219 2.02344,-6.92188 0.79297,-4.16797 0.48828,-9.73437 0.1875,-12.58203 -0.27735,-2.58984 -1.07031,-7.23047 -2.94922,-9.63281 -1.89453,-2.42578 -5.17969,-5.44922 -7.85547,-7.29688"
     id="path142" />
  <path
     fill-rule="nonzero"
     fill="#FFFFFF"
     fill-opacity="1"
     d="m 715.93962,221.80936 c -1.41407,-3.64454 -7.17578,-12.4336 -12.03125,-16.67579 -1.66407,-1.45312 -3.55078,-2.04296 -5.17188,-1.13281 -2.51172,2.42578 -4.49219,8.69531 -8.70312,8.55469 -1.53516,-0.0391 -3.04297,-1.23438 -3.94532,-2.48828 -1.77343,-3.41016 -3.54687,-6.82031 -5.3164,-10.23047 -1.13281,-1.23828 -2.86719,-1.9375 -4.09375,-0.8125 -1.15235,1.0625 -1.1211,3.33203 -0.55078,4.66016 0.6289,1.48437 3.94531,9.82421 6.86718,12.36328 2.35157,2.03906 6.99219,3.63281 9.13672,3.71093 3.86719,0.67188 6.92188,-5.58593 9.91407,-5.29296 1.79296,0.37109 4.80078,4.51562 6.14453,6.74218 0.72656,1.19922 0.96093,1.81641 0.61328,2.83985 -0.39844,1.15625 -2.13281,2.61718 -3.39844,3.36718 -2.70312,1.31641 -7.05078,-0.97656 -10.09375,2.59766 -0.8125,1.25781 -0.85156,3.47266 0.13281,4.56641 1.48438,1.64843 7.56641,1.40234 10.32422,0.58984 2.78125,-0.81641 6.72266,-2.94141 8.55078,-5.24609 2.07422,-2.60547 2.35157,-6.22657 1.6211,-8.11328"
     id="path143" />
  <path
     fill-rule="nonzero"
     fill="#FFFFFF"
     fill-opacity="1"
     d="m 738.44743,191.08279 c -2.78516,-0.15234 -6.44141,-0.29687 -8.63281,0.41797 -1.34375,0.4336 -2.54297,1.35547 -3.84375,2.39453 -2.02344,1.85157 -5.28907,3.75782 -5.25782,6.61328 0.0742,1.94141 3.06641,7.20313 4.26563,8.99219 1.52344,2.47266 5.28516,2.03906 8.21484,1.90625 3.44922,-0.44531 6.4961,-2.53906 9.25782,-4.48047 1.70312,-1.19531 2.84765,-2.59375 3.27343,-4.51953 0.63282,-2.86328 0.42188,-6.57422 -0.98047,-8.42578 -1.45703,-1.91797 -3.84765,-2.76172 -6.29687,-2.89844 m -2.83984,13.38672 c -2.65625,1.12891 -7.34766,1.78516 -7.21485,0.81641 0.21094,-1.52735 -0.14062,-5.03906 0.40235,-5.33203 1.21093,-0.65625 4.41796,-2.30078 5.99218,-2.55078 1.6875,-0.26954 3.57813,1.23828 3.76953,2.08984 0.30469,1.375 -1.4414,4.33594 -2.94921,4.97656"
     id="path144" />
  <path
     fill-rule="nonzero"
     fill="#FFFFFF"
     fill-opacity="1"
     d="m 783.02946,204.72732 c -0.59375,-1.39843 -1.67187,-3.28906 -3.32031,-4.14843 -5.42188,-1.97657 -8.60547,6.58593 -13.57031,4.09765 -3.44532,-0.63281 -5.75,-6.78125 -8.03907,-9.88281 -1.15234,-1.32422 -2.35547,-1.34766 -2.89453,0.26953 -0.76953,2.28906 0.25,6.52735 1.21875,9.00391 0.97656,2.5039 3.92969,5.64844 6.09375,6.77734 1.84375,0.96094 4.8125,0.83985 6.60156,0.33594 2.45704,-1.26953 4.91407,-2.53516 7.3711,-3.80469 1.7539,-0.34765 4.49609,4.39844 6.40625,1.73828 1.02734,-1.21875 0.70703,-3.03515 0.13281,-4.38672"
     id="path145" />
  <path
     fill-rule="nonzero"
     fill="#FFFFFF"
     fill-opacity="1"
     d="m 785.04509,212.8367 c -0.27344,-1.30469 -4.30469,-9.46484 -7.04297,-12.89844 -1.38672,-1.73828 -3.39453,-3.10156 -4.65625,-2.51172 -1.33203,0.6211 -1.36719,4.46094 -1.13282,6.45313 0.29297,2.47656 2.41797,7.80469 4.10157,10.76953 0.61328,1.07812 1.85937,2.36719 3.09765,2.92578 1.29688,0.57813 2.6836,0.53125 3.67969,-0.0937 1.58984,-1.00391 2.23047,-3.32812 1.95313,-4.64453"
     id="path146" />
  <path
     fill-rule="nonzero"
     fill="#FFFFFF"
     fill-opacity="1"
     d="m 538.90446,95.57107 c -2.82031,0.34766 -5.62891,1.8125 -6.99609,2.33204 -9.94141,3.78515 -19.06641,11.1914 -27.13282,12.99218 -15.16406,4.36328 -38.58203,8.53907 -52.28125,12.9961 -8.43359,2.57031 -18.67968,5.86328 -27.82421,9.57422 -1.16797,0.55078 -2.04297,1.08984 -2.01563,1.96484 0.0234,0.86328 0.79297,1.26172 2.51172,1.37109 1.44531,0.0899 3.07812,-0.26953 4.375,-0.58593 13.13281,-3.8711 26.26953,-7.7461 39.40625,-11.61719 14.11719,-3.10547 29.00391,-5.9336 40.23828,-9.38281 8.75,-2.8711 22.0625,-12.40235 31.34375,-14.63672 1,-0.60547 1.75,-1.27344 1.88672,-2.46875 l -0.27734,-1.53516 c -0.57422,-0.875 -1.85547,-1.17578 -3.23438,-1.00391"
     id="path147" />
  <path
     fill-rule="nonzero"
     fill="#FFFFFF"
     fill-opacity="1"
     d="m 465.78727,68.56326 0.16797,-7.58594 -1.10547,-5.29296 -1.82031,-2.38282 c -5.78125,0.61328 -10.40234,4.57422 -15.57422,5.47266 -1.13281,0.21875 -2.32031,0.35937 -3.17969,-0.17969 l -1.01562,-1.1914 c -0.71094,-1.57032 -0.0977,-3.79688 0.33594,-5.01172 2.30859,-5.00391 4.62109,-10.00391 6.93359,-15.00782 0.19141,-1.10156 0.28906,-2.54687 -0.37109,-3.6289 -0.59375,-0.97266 -1.78125,-1.41797 -2.71875,-1.08985 -4.01563,5.72657 -5.66016,10.375 -8.17969,15.98047 -0.38281,1.13282 -1.50391,3.94922 -0.98828,7.69141 l 0.99609,3.62891 2.41016,2.64062 3.30469,1.10156 c 2.05078,0.33985 4.66796,-0.22656 5.76562,-0.46875 3.82813,-0.33593 7.70313,-4.23828 10.59375,-3.35937 1.66406,1.95312 -0.25391,13.42187 -0.29297,14.6914 -0.375,-0.40234 0.80078,2.52735 1.58985,1.8125 -0.6875,1.76172 3.34765,-5.07031 3.14843,-7.82031"
     id="path148" />
  <path
     fill-rule="nonzero"
     fill="#FFFFFF"
     fill-opacity="1"
     d="m 503.31852,74.99295 c 1.7461,-1.26172 3.39844,-2.60156 4.34375,-3.67578 0.77735,-0.875 1.76563,-2.17578 1.88282,-3.85938 0.53125,1.14844 -0.61329,-4.71484 -2.25391,-5.10937 l -4.03516,-2.53516 c -7.5625,-2.73047 -11.36718,-0.87109 -11.22656,-2.96094 -0.90625,-3.73828 2.62109,-9.83203 1.48047,-19.75 0.60937,0.55079 -2.17578,-3.95312 -2.5625,-2.41796 -1.17188,0.34375 -1.71094,1.78906 -1.92188,2.8789 -1.09765,5.61719 -2,11.10547 -2.71875,18.50781 -0.1875,1.94532 -0.28125,4.23438 0.39063,5.66797 0.67578,1.4336 1.96094,1.90625 3.5625,2.02735 3.93359,-0.66407 9.82422,-1.39453 12.15625,-0.55469 0.99609,0.35937 1.48437,0.8125 1.13672,2.21094 -0.49219,1.96484 -3.15235,4.9375 -5.42188,6.47265 -3.54687,1.42578 -7.09375,2.84766 -10.64062,4.27344 0.15234,-0.67187 -1.96094,2.65625 -0.74219,2.91797 0.74609,1.17187 2.01172,1.72266 3.94531,1.80859 6.1875,-1.26172 7.97657,-3.15234 12.625,-5.90234"
     id="path149" />
  <path
     fill-rule="nonzero"
     fill="#FFFFFF"
     fill-opacity="1"
     d="m 530.0529,31.16092 c -5.01563,0.16797 -22.97266,0.98828 -31.45703,1.67578 -4.26172,0.34766 -6.78516,0.77734 -8.46875,1.66406 -1.4961,0.78906 -1.92969,2.13672 -1.66407,3.02344 0.27735,0.9375 1.40235,1.39844 2.52735,1.45703 11.03125,-1.61328 19.82812,-2.08203 37.36719,-2.72266 3.14062,-0.3164 5.73046,-0.70703 7.34765,-1.43359 1.47656,-0.66406 1.91016,-1.68359 1.44141,-2.36719 -1.42578,-1.13672 -2.27735,-1.46875 -7.09375,-1.29687"
     id="path150" />
  <path
     fill-rule="nonzero"
     fill="#FFFFFF"
     fill-opacity="1"
     d="m 552.41227,136.26639 c -2.70703,-0.17188 -5.41406,-0.33985 -8.11718,-0.51172 -3.46875,-0.44531 -5.34766,-1.17969 -7.25782,-2.03906 -20.77343,-10.46875 -45.14453,-21.41016 -64.92968,-32.74219 -9.98047,-4.89063 -26.27344,-12.08203 -37.1211,-16.57813 -0.93359,-0.38672 -3.16406,-1.22265 -5.49219,-1.08984 -1.85156,0.10547 -2.58984,0.48828 -2.8789,1.34375 -0.38281,1.20703 1.15234,2.10547 1.97656,2.53906 9.95313,5.25391 29.80469,12.89844 41.14844,18.57031 18.63281,10.78516 44.58203,22.41016 65.22265,33.07813 2.25,1.12109 8.51954,2.45312 14.39454,2.10547 l 2.55468,-0.53516 c 1.4375,-0.54687 2.28907,-1.54297 2.42578,-2.39062 0.17579,-1.08985 -0.39843,-1.46485 -1.92578,-1.75"
     id="path151" />
  <path
     fill-rule="nonzero"
     fill="#FFFFFF"
     fill-opacity="1"
     d="m 1172.8342,192.52029 c -1.1289,0.55469 -1.9805,2.16016 -1.3789,2.72657 0.4375,0.41406 1.3086,0.17187 2.1054,-0.45313 0.8203,-0.64844 1.2149,-1.39062 0.9649,-2.01172 -0.1836,-0.45703 -1,-0.60156 -1.6914,-0.26172"
     id="path152" />
  <path
     fill-rule="nonzero"
     fill="#FFFFFF"
     fill-opacity="1"
     d="m 877.34196,251.91482 c -1.39062,0.4375 -2.98828,1.3086 -2.88672,2.47266 -0.26562,1.18359 2.32422,1.37891 4.65625,0.55859 l 2.125,-1.03906 c 1.0586,-0.75 1.35156,-1.6914 0.82422,-2.17578 -0.83203,-0.76953 -3.25,-0.27734 -4.71875,0.18359"
     id="path153" />
  <path
     fill-rule="nonzero"
     fill="#FFFFFF"
     fill-opacity="1"
     d="m 909.83024,246.98904 c 0.41016,-0.75 -2.125,-1.05859 -4.53906,-0.5664 -2.47656,0.48437 -3.33594,1.64453 -2.77344,2.14843 0.80469,0.66797 6.26172,-0.66406 7.3125,-1.58203"
     id="path154" />
  <path
     fill-rule="nonzero"
     fill="#FFFFFF"
     fill-opacity="1"
     d="m 939.53337,241.98904 c 0.57812,-0.76953 -2.34375,-1.05859 -4.9961,-0.57031 -2.72265,0.48828 -3.57031,1.64844 -3.02734,2.14844 0.66016,0.66406 6.56641,-0.66016 8.02344,-1.57813"
     id="path155" />
  <path
     fill-rule="nonzero"
     fill="#FFFFFF"
     fill-opacity="1"
     d="m 980.52165,230.34451 c -2.21485,0.875 -4.9336,1.46094 -5.23828,3.09375 -0.16407,1.19141 1.72656,1.52735 3.24609,1.23047 2.01172,-0.72266 8.74219,-1.67969 8.375,-3.50391 -0.9375,-1.07812 -4.73047,-1.47656 -6.38281,-0.82031"
     id="path156" />
  <path
     fill-rule="nonzero"
     fill="#FFFFFF"
     fill-opacity="1"
     d="m 1015.799,225.55936 c -1.9375,0.59765 -5.4297,3.16406 -5.375,3.88671 0.059,0.83204 2.8906,0.40235 5.0899,-0.22656 1.7812,-0.75781 7.2109,-1.54297 6.4101,-3.05469 -0.9258,-1.03515 -4.6094,-1.22656 -6.125,-0.60546"
     id="path157" />
  <path
     fill-rule="nonzero"
     fill="#FFFFFF"
     fill-opacity="1"
     d="m 1057.4123,217.29373 c -1.8867,0.0117 -4.918,0.52344 -6.5586,1.18359 -1.9062,0.76954 -2.7656,2.11329 -2.6367,2.91797 -0.5313,0.38672 8.1289,-2.12109 10.9023,-3.34375 0.3672,-0.55859 -0.3906,-0.76562 -1.707,-0.75781"
     id="path158" />
  <path
     fill-rule="nonzero"
     fill="#FFFFFF"
     fill-opacity="1"
     d="m 1088.3615,207.93436 c -2.4844,0.57812 -4.1133,1.49218 -3.9609,2.40625 0.2969,1.14062 7.7148,-1.15235 11.1172,-2.29688 1.1953,-1.10156 -3.9766,-0.80859 -7.1563,-0.10937"
     id="path159" />
  <path
     fill-rule="nonzero"
     fill="#FFFFFF"
     fill-opacity="1"
     d="m 1123.5295,203.05545 c 0.543,-0.15234 8.4805,-2.5625 8.5351,-3.01563 0.7071,-0.66796 -4.6328,-1.375 -7.7304,-0.22265 0.6445,-0.64453 -4.418,2.47265 -2.8203,2.70703 0.09,0.75781 1.1914,0.76172 2.0156,0.53125"
     id="path160" />
  <path
     fill-rule="nonzero"
     fill="#FFFFFF"
     fill-opacity="1"
     d="m 1158.6232,191.5242 c -3.2109,0.5625 -4.4492,2.17969 -4.4062,2.87109 -0.9453,0.77735 6.5039,-1.5 9.4726,-2.34375 0.8594,-0.76953 -2.0898,-1.14062 -5.0664,-0.52734"
     id="path161" />
  <path
     fill-rule="nonzero"
     fill="#FFFFFF"
     fill-opacity="1"
     d="m 1185.1037,186.86404 c -3.3242,0.69532 -4.1523,2.35938 -3.8242,2.82813 0.1601,0.32812 9.4844,-1.29297 12.4375,-2.64453 1.2851,-1.07032 -5.0703,-1.03907 -8.6133,-0.1836"
     id="path162" />
  <path
     fill-rule="nonzero"
     fill="#FFFFFF"
     fill-opacity="1"
     d="m 1221.1584,176.85232 c -1.7305,0.64454 -2.3008,1.85938 -2.0742,3.13282 -1.5899,2.02343 8.1015,-2.85938 9.2148,-3.57032 -0.918,-0.41015 -5.6406,-0.0664 -7.1406,0.4375"
     id="path163" />
  <path
     fill-rule="nonzero"
     fill="#FFFFFF"
     fill-opacity="1"
     d="m 1249.7717,169.86795 c -2.1719,0.45312 -4.0586,1.94922 -3.336,2.71094 1.3828,0.60547 7.0313,-1.49219 9.4219,-2.59766 0.7109,-1.05078 -3.9766,-0.8125 -6.0859,-0.11328"
     id="path164" />
  <path
     fill-rule="nonzero"
     fill="#FFFFFF"
     fill-opacity="1"
     d="m 863.23649,21.48514 c -1.46094,-0.44922 -6.14844,0.28125 -6.01953,1.55859 0.36328,0.58984 10.45313,2.98438 10.24219,2.17188 -0.80078,-1.10938 -1.45313,-2.72657 -4.22266,-3.73047"
     id="path165" />
  <path
     fill-rule="nonzero"
     fill="#FFFFFF"
     fill-opacity="1"
     d="m 904.8693,28.19998 -3.76953,0.29297 c -1.95312,0.35937 -3.10937,1.23047 -2.83593,1.76953 -0.3711,0.91016 17.15234,1.05078 15.94921,-0.16797 -0.0703,-0.80078 -3.70312,-1.72265 -9.34375,-1.89453"
     id="path166" />
  <path
     fill-rule="nonzero"
     fill="#FFFFFF"
     fill-opacity="1"
     d="m 960.64665,39.68436 c 1.4375,-0.59766 -2.29297,-1.42579 -5.78125,-1.4961 -3.65625,-0.11328 -4.81641,0.8711 -4.36328,1.42969 0.23828,0.64062 6.94531,0.54297 10.14453,0.0664"
     id="path167" />
  <path
     fill-rule="nonzero"
     fill="#FFFFFF"
     fill-opacity="1"
     d="m 1005.4318,42.19217 c -3.5,-0.11328 -5.4219,0.86328 -4.6914,1.41797 0.9492,0.73047 8.5235,0.71093 9.3399,0.11328 0.7968,-0.58203 -1.3438,-1.45313 -4.6485,-1.53125"
     id="path168" />
  <path
     fill-rule="nonzero"
     fill="#FFFFFF"
     fill-opacity="1"
     d="m 1070.3576,55.35623 c -5.168,0.0234 -8.0547,1.11328 -6.9492,1.375 2.8047,0.65625 12.5664,0.28125 11.9258,-0.47266 -0.418,-0.49218 -2.3086,-0.91796 -4.9766,-0.90234"
     id="path169" />
  <path
     fill-rule="nonzero"
     fill="#FFFFFF"
     fill-opacity="1"
     d="m 1117.2951,62.51639 c -4.3867,-0.47657 -9.6211,-0.37891 -10.4609,0.55468 0.3476,-0.38671 17.4218,3.1211 20.0898,3.59766 1.8477,0.32813 3.6758,0.26172 3.3047,-0.55469 -2.0898,-1.43359 -5.6523,-2.55078 -12.9336,-3.59765"
     id="path170" />
  <path
     fill-rule="nonzero"
     fill="#FFFFFF"
     fill-opacity="1"
     d="m 1162.7795,71.51248 c -1.7422,-0.90625 -2.8516,-1.30859 -4.7891,-1.38672 -1.4883,-0.0625 -2.4922,0.35156 -3.332,0.74219 -0.9531,0.44531 -2.4492,1.4375 -2.4102,2.12109 0.7813,1.29297 16.5547,1.98828 14.2461,1.44141 -0.2031,-0.42578 -1.5468,-1.79688 -3.7148,-2.91797"
     id="path171" />
  <path
     fill-rule="nonzero"
     fill="#FFFFFF"
     fill-opacity="1"
     d="m 1193.8068,78.10232 c -1.1523,-0.15234 -2.5742,-0.0625 -3.8359,0.34375 -1.375,0.44141 -2.5664,1.15625 -2.9649,1.9336 -0.4531,0.88672 0.059,1.22656 1.629,1.46875 6.5859,1 14.3007,1.23437 13.914,0.27344 -0.3476,-0.87891 -5.9687,-3.64844 -8.7422,-4.01954"
     id="path172" />
  <path
     fill-rule="nonzero"
     fill="#FFFFFF"
     fill-opacity="1"
     d="m 1251.8693,92.04373 c -1.1484,-1.07422 -4.4922,-1.98437 -7.8906,-2.53906 -2.7422,-0.44922 -4.918,-0.23828 -6.7969,0.37109 -1.8047,0.50391 -3.2148,1.69141 -3.1875,3.03125 0.031,0.61328 0.4414,0.98438 1.1602,1.02344 1.7422,-0.30078 6.4805,-1.20313 10.2383,-0.58203 3.789,0.32422 8.1289,4.30859 8.2422,2.67187 0.09,-0.86328 -0.9571,-3.21875 -1.7657,-3.97656"
     id="path173" />
  <path
     fill-rule="nonzero"
     fill="#FFFFFF"
     fill-opacity="1"
     d="m 506.15837,74.12576 c -0.40625,-1.125 -1.64063,-2.10547 -3.11328,-2.95703 -24.84375,-10.90625 -35.65235,-14.34375 -54.84766,-23.73437 -6.06641,-3.95704 -12.13281,-7.91407 -18.20313,-11.8711 -2.33593,-0.86719 -4.03125,-0.47656 -4.6289,0.44141 -0.73438,1.03515 -0.39063,2.10937 1.03906,3.23047 10.14063,7.5039 16.46875,12.24609 19.30078,12.94922 17.53516,8.66015 38.83594,16.91796 57.71875,24.82421 1.05078,-0.0508 2.3086,-0.50781 2.69531,-1.36328 l 0.0391,-1.51953"
     id="path174" />
  <path
     fill-rule="nonzero"
     fill="#FFFFFF"
     fill-opacity="1"
     d="m 521.41227,26.69217 c -1.14843,-0.57422 -2.51172,-0.28516 -3.75,0.125 -5.17187,2.5039 -7.30468,4.0625 -13.80859,8.26172 -3.73047,1.63281 -7.46484,3.26953 -11.19531,4.90234 -16.51172,10.29297 -38.67969,21.90625 -55.75391,32.10547 -0.94531,0.71094 -1.94141,1.75391 -2.40234,2.57422 -0.5,0.88672 -0.59766,1.6875 -0.15235,2.3164 0.41407,0.58594 1.42578,0.96485 2.27344,0.98829 0.85547,0.0234 1.72656,-0.35157 2.41016,-0.69922 8.64843,-5.16407 17.29687,-10.33203 25.9414,-15.4961 2.19532,-0.88672 4.38672,-1.77343 6.57813,-2.66015 16.21094,-9.76953 32.41797,-19.54297 48.625,-29.3125 1.16406,-0.75391 1.96875,-1.16797 1.88281,-2.16797 l -0.64844,-0.9375"
     id="path175" />
  <path
     fill-rule="nonzero"
     fill="#FFFFFF"
     fill-opacity="1"
     d="m 608.94743,64.75857 c 0.96484,1.0586 -3.31641,-5.59375 -4.14844,-4.67968 -2.51562,-1.11328 -6.625,-1.07032 -9.51562,-0.50782 -2.30469,0.44532 -3.61719,1.0586 -4.82813,2.28125 -1.02344,1.03125 -1.48047,2.34375 -1.375,3.60547 0.0977,1.21094 0.80469,2.41016 1.78125,2.6836 2.40625,0.48437 5.15235,-4.71094 8.86328,-4.19532 1.26563,-0.125 2.4336,0.0156 3.2461,0.29297 1.28125,0.4336 2.09765,1.29297 2.01562,2.38282 -0.10937,1.48046 -1.91797,3.3164 -4.76172,4.73828 -2.66015,1.33203 -5.25781,1.94922 -7.65625,2.22265 -1.76953,0.19922 -3.74609,0.17969 -5.625,-0.2539 -1.28125,-0.29688 -2.72656,-0.82422 -4.10156,-1.82422 -2.96094,-2.3086 -5.16016,-5.48047 -5.69922,-7.26953 -0.49219,-1.50782 -0.39844,-3.30469 0.0469,-5.02344 0.57812,-2.25391 1.55078,-4.03516 3.75,-6.69141 2.62109,-3.16015 8.01172,-8.03125 11.51172,-10.34765 2.13671,-1.41407 3.7539,-2.36328 5.42968,-2.875 1.60547,-0.49219 3.52344,-0.57813 4.29688,-0.48438 0.80859,-0.29297 -0.33594,-1.65234 -2.40235,-2.35547 -1.58593,-0.53906 -4.09375,-0.57031 -5.625,-0.16406 -2.85546,0.75391 -3.87109,1.47656 -8.02734,4.49219 -2.30078,1.66797 -3.22266,2.35156 -6.42187,5.51562 -5.0586,5.01563 -6.57422,7.55078 -7.02344,8.59766 -0.51172,1.19531 -0.94922,3.33203 -0.76172,7.36719 0.10937,2.39062 0.39844,4.73047 0.91406,6.32812 0.5,1.55469 1.31641,2.63281 2.34375,3.78125 1.54297,1.72656 3.60156,3.53516 5.53516,4.54297 2.47656,1.28906 5.69922,1.79688 8.89062,1.9375 2.48438,0.10938 4.71094,-0.19141 6.99219,-0.64453 3.80078,-0.76172 6.89453,-1.625 8.49609,-2.60547 0.92969,-0.56641 2.45313,-1.34766 3.46485,-4.06641 0.66015,-1.77343 1.17187,-4.16406 0.39453,-6.78125"
     id="path176" />
  <path
     fill-rule="nonzero"
     fill="#FFFFFF"
     fill-opacity="1"
     d="m 663.9279,37.73514 c -2.28906,-0.53125 -5.125,-0.77344 -9.60547,-0.66016 -4.00391,0.0977 -7.70703,0.50391 -10.32422,1.14453 -3.77734,1.73438 -7.55859,3.46875 -11.33594,5.20313 -2.42968,3.25781 -1.97265,4.34375 -5.52734,13.80859 -0.42578,5.69922 0.41797,11.81641 1.38281,13.05469 0.81641,1.61328 2.69922,3.26562 4.11719,3.89062 1.40625,0.61719 4.05859,1.03125 9.40234,0.81641 6.81641,-0.27344 10.2461,-1.10547 12.66797,-1.71484 4.30469,-1.08204 8.54297,-2.99219 11.49219,-4.62891 1.74609,-0.96875 3.46484,-2.40625 4.80469,-4.07031 2.14453,-2.66016 3.0039,-4.76563 3.5,-7.64063 0.3164,-1.83984 0.33984,-4.23437 -0.20703,-6.80078 -0.54297,-2.55078 -1.50782,-5.03125 -2.78907,-6.90625 -2.0664,-2.46875 -3.53515,-4.39453 -7.57812,-5.49609 m 5.91797,15.98047 c 0.13281,2.39062 -1.17188,4.77343 -2.00391,6.55078 -0.73047,2.125 -3.09766,3.30859 -5.88281,4.53515 -3.22656,1.44141 -7.65625,3.10157 -11.52735,4.07032 -1.79296,0.44921 -4.85546,1.09765 -8.34765,1.25 -2.67969,0.11718 -4.15625,0.0156 -5.59766,-0.44922 -1.72656,-0.5625 -2.91406,-1.69922 -3.72265,-3.6836 -0.64454,-1.58593 -0.92969,-3.13672 -0.89454,-5.83203 0.0312,-2.33203 0.38282,-4.62109 1.01954,-6.36328 0.92187,-2.51562 2.67578,-4.27344 4.30078,-5.75781 2.14062,-1.96485 3.8164,-3.02344 6.13672,-3.94922 1.80468,-0.71484 4.13671,-1.35156 7.55468,-1.71875 3.25,-0.34766 7.28516,-0.57813 10.03516,0.11328 2.13281,0.53125 3.28516,1.26953 4.79687,2.83203 1.23047,1.26953 2.33204,3.10156 3,4.50781 0.66797,1.40235 1.07032,2.83204 1.13282,3.89454"
     id="path177" />
  <path
     fill-rule="nonzero"
     fill="#FFFFFF"
     fill-opacity="1"
     d="m 581.97477,70.99295 c 0.5,-0.49609 0.64844,-1.26172 0.14453,-1.42969 -0.95312,-0.3164 -2.58984,1.01172 -2.58203,1.83594 0.004,0.71094 1.58985,0.43359 2.4375,-0.40625"
     id="path178" />
  <path
     fill-rule="nonzero"
     fill="#FFFFFF"
     fill-opacity="1"
     d="m 587.75212,61.17264 c -1.86719,0.0703 -3.3125,0.51172 -4.55078,1.19531 -1.8086,1 -4.52735,3.27344 -5.53907,5.53125 -0.55859,1.25 -0.79687,2.64453 -0.26172,4.09375 0.41797,1.13672 1.41407,1.65625 2.10547,1.32812 1.26172,-1.83203 2.52735,-3.66796 3.78907,-5.5039 2.35156,-2.1875 9.39062,-5.1875 8.65234,-5.86719 -0.54688,-0.50391 -1.83203,-0.86719 -4.19531,-0.77734"
     id="path179" />
  <path
     fill-rule="nonzero"
     fill="#FFFFFF"
     fill-opacity="1"
     d="m 1146.7795,484.00857 c 0.5508,-2.21875 0.9648,-5.03125 0.5117,-8.84765 -3.5234,-11.37891 -4.8164,-7.63281 -6.2109,-15.05469 -3.3243,-13.15234 -5.3438,-32.75 -8.9571,-47.21875 -0.3515,-1.41406 -0.75,-2.6875 -1.5195,-3.46484 -3.0039,-1.96094 -6.9258,-2.08594 -7.2969,-4.10547 -0.7578,-1.75781 -2.1797,-6.72656 -2.0156,-8.50781 0.5039,-2.4375 1.0078,-4.875 1.5117,-7.3125 -0.2226,-4.04297 -1.9492,-8.1875 -3.2383,-10.49219 -0.8164,-1.45703 -3.0507,-2.44141 -5.0703,-3.76953 -0.9297,-0.60938 -1.7539,-1.09766 -3.2851,-0.83203 -1.2578,0.21875 -2.5703,1.04687 -3.8711,2.17968 -1.875,1.63282 -4.7344,4.64844 -6.4961,8.04297 -3.0313,9.35547 -3.2344,11.77735 -5.8672,17.5625 -1.4766,2.53516 -2.9531,5.06641 -4.4297,7.60156 -1.6914,3.25391 0.7813,5.32032 0.09,6.83594 -0.168,0.66016 -0.7422,1.88281 -1.1329,2.37891 -0.4804,1.86328 -2.7968,-3.10156 -5.5234,-0.82031 -1.4805,1.01562 -2.5117,3.03906 -3.3164,4.89062 -2.9375,8.04688 -4.5703,22.52344 -6.4805,33.96875 -1.4726,9.35938 -2.2422,17.51172 -2.0351,19.89844 -0.086,1.42578 1.5664,2.96484 3.0117,2.88672 1.5781,-0.22657 3.1601,-0.45313 4.7383,-0.67969 4.3828,0.63281 8.7656,1.26562 13.1484,1.89844 3.6211,0.20703 4.2188,-0.0703 4.9883,-0.49219 0.3828,0.375 4.8633,3.73828 7.3398,4.38281 3.2266,0.0469 6.4532,0.0937 9.6797,0.14063 1.0352,0.52734 2.0664,1.05859 3.1016,1.58593 6.2422,1.36719 11.4726,-2.8789 15.3711,-1.25 0.4765,0.0664 2.414,0.37891 2.664,0.5 1.0977,1.07813 2.1954,2.15235 3.2891,3.23047 1.1563,0.67188 2.3555,0.85938 3.6563,0.28907 1.5781,-1.24219 2.6914,-1.71485 3.6445,-5.42579 m -41.8516,-81.41796 c -0.6367,0.24609 -1.4726,-1.82422 -1.0195,-3.39844 0.5234,-1.80469 2.5625,-3.98828 3.0391,-3.48438 0.6171,0.64063 -1.2305,6.57422 -2.0196,6.88282 m 7.9375,38.07031 -0.3945,1.02344 -0.4375,0.28906 -0.1719,-0.89063 0.1563,-1.35156 0.5,-1.04687 0.4179,-0.0312 0.1641,0.74609 -0.2344,1.26172 m 1.578,-3.60552 -0.5273,0.52734 -0.5273,-0.52734 0.5273,-0.52734 0.5273,0.52734 m 5.1602,-44.93359 -0.4609,-0.0859 -0.3125,-0.51563 0.1172,-0.60547 0.3789,-0.25781 0.4648,0.39063 0.078,0.59765 -0.2656,0.47657 m 4.2461,18.85546 -0.1406,-0.19531 0.098,-0.3789 0.1758,-0.26954 0.1406,0.19532 -0.098,0.3789 -0.1758,0.26953 m -5.9414,42.3125 c 2.4922,-9.86328 6.1289,-26.14453 9.1484,-32.88671 0.6914,-0.27735 1.2266,1.13281 1.8086,3.60937 1.3985,5.94922 2.4531,12.32031 3.3867,17.96094 0.5625,3.40234 0.8789,7.02734 0.3321,9.51953 -0.2696,1.22266 -0.6875,2.16797 -1.5274,2.73437 -4.582,0.97657 -10.0078,3.51172 -9.9375,3.45704 -0.7812,-0.44532 -3.2109,-3.03516 -3.2109,-4.39454"
     id="path180" />
  <path
     fill-rule="nonzero"
     fill="#FFFFFF"
     fill-opacity="1"
     d="m 1059.6193,479.05154 c 1.086,-1.17968 1.0352,-2.1289 0.8946,-3.09765 -0.2227,-1.53907 -0.8946,-3.07813 -1.4961,-3.92578 -1.543,-2.17579 -5.4649,-6.50782 -6.9453,-9.59766 -0.5508,-3.45703 -1.0977,-6.91016 -1.6446,-10.36719 -0.6054,-1.11719 -2.0469,-0.95312 -2.9648,-1.19922 -0.8008,-0.44922 -2.9102,-2.64062 -3.2031,-3.40625 0.1601,-1.92578 0.3203,-3.85547 0.4804,-5.78125 -0.4414,-2.5 -0.8828,-5.0039 -1.3242,-7.50781 -1.4766,-1.59766 -2.9531,-3.19531 -4.4297,-4.79297 -0.125,-1.66015 2.5469,-8.30859 1.4336,-15.07031 -1.8516,-3.42578 -4.1367,-2.08984 -4.9844,-5.02734 -0.023,-2.19141 -0.047,-4.38282 -0.066,-6.57813 -0.9687,-0.78906 -3.6367,-0.99219 -3.1289,-3.0625 0.2852,-2.02734 2.2696,-5.58203 1.1524,-8.83594 -0.4649,-1.00781 -1.4571,-1.45312 -2.5352,-1.0664 -2.8516,1.39453 -5.7109,6.1914 -6.875,7.91015 -2.9375,4.84375 -6.3516,13.42578 -9.1289,19.89453 -2.5898,2.69141 -7.5469,11.46094 -11.0977,18.24219 -0.664,1.65235 -1.4414,3.57031 -1.6406,6.70313 -0.2578,5.69922 -0.5117,11.39453 -0.7695,17.09375 0.3984,1.92968 1.625,6.75 2.5976,7.44531 l 1.25,0.0898 c 1.2422,-0.68359 1.8594,-3.8164 2.7969,-6.01172 1.3399,-1.60937 2.6836,-3.21484 4.0235,-4.82421 1.8437,-3.85547 5.0742,-14.45704 6.4335,-19.58204 0.629,-1.59375 1.629,-2.79687 2.461,-2.3164 0.8242,0.47265 1.4844,1.53515 1.7734,4.00781 0.793,12.69141 5.0821,24.79688 4.6914,30.04688 1.1133,1.30859 2.7578,4.10937 4.9258,7.80078 0.8477,1.4414 2.25,2.9414 3.3242,3.35156 2.2422,-0.22266 4.4844,-0.44531 6.7227,-0.66797 1.4375,0.95703 2.875,1.91797 4.3125,2.875 1.3867,0.43359 4.3984,1.26953 6.4805,0.875 1.5312,-0.28516 5.0781,-2.10156 6.4804,-3.61719"
     id="path181" />
  <path
     fill-rule="nonzero"
     fill="#FFFFFF"
     fill-opacity="1"
     d="m 1019.9865,458.18436 c -5.0781,1.77734 -5.6562,6.9375 -8.6758,6.64062 -2.1562,-2.03516 -4.3164,-4.07031 -6.4765,-6.10547 0.4101,-0.10547 -1.9141,-0.70312 -1.8086,0.38672 -1.7617,9.83594 -0.7891,26.95703 -2.0235,26.27734 0.1055,1.1875 0.5235,2.40625 1.2774,2.96094 0.6953,0.50781 1.6875,0.27344 2.3437,-0.15234 2.125,-1.38672 4.5977,-6.23438 6.0547,-8.44531 -0.2265,0.28906 4.832,-3.88282 4.3906,-3.95313 0.5,0.69922 2.2149,3.24219 4.625,3.1875 2.9375,-0.0391 6.711,0.75781 7.7891,-0.98047 1.0352,-1.23437 2.2774,-3.74609 2.957,-5.94531 0.3868,-1.25 0.5821,-2.41406 0.3399,-3.57422 -0.2774,-1.28516 -1.1875,-0.69141 -1.7656,-0.82031 -0.6602,-2.08203 -1.3204,-4.16016 -1.9844,-6.24219 -0.7266,-1.56641 -2.1641,-2.92578 -3.3985,-3.69141 -1.2265,-0.76171 -2.0351,-0.50781 -3.6445,0.45704 m -6.543,10.87109 -0.5273,0.52734 -0.5273,-0.52734 0.5273,-0.52734 0.5273,0.52734 m 6,7 -0.5273,0.52734 -0.5273,-0.52734 0.5273,-0.52734 0.5273,0.52734 m 0,-13 -0.5273,0.52734 -0.5273,-0.52734 0.5273,-0.52734 0.5273,0.52734 m 7,2 -0.5273,0.52734 -0.5273,-0.52734 0.5273,-0.52734 0.5273,0.52734"
     id="path182" />
  <path
     fill-rule="nonzero"
     fill="#FFFFFF"
     fill-opacity="1"
     d="m 1048.5803,379.71951 v 3.67188 h 1.6718 v -3.67188 h -1.6718"
     id="path183" />
  <path
     fill-rule="nonzero"
     fill="#FFFFFF"
     fill-opacity="1"
     d="m 1045.1623,366.7117 c 1.5352,2.38672 3.0703,4.77734 4.6055,7.16406 0.4882,1.28906 -1.2305,0.875 -2.7969,1.875 -0.793,0.73828 -1.2813,1.64063 -1.668,4.42188 -0.3164,2.26953 -0.4062,5.66406 -0.074,7.7539 0.3477,2.21094 1.0391,2.78125 1.832,2.87891 1.4727,0.17578 4.8399,-2.09766 5.8438,-2.81641 1.9219,-1.3789 3.707,-2.7539 5.8164,-5.41015 1.1523,-1.44922 2.1289,-3.92578 1.8906,-6.71094 -0.4336,-3.30078 -1.9648,-5 -2.8984,-6.07031 -0.2031,-0.28907 -6.8203,-3.69532 -10.8711,-4.71094 0.375,-0.39063 -2.6914,0.88672 -1.6797,1.625"
     id="path184" />
  <path
     fill-rule="nonzero"
     fill="#FFFFFF"
     fill-opacity="1"
     d="m 1090.256,373.28592 c -0.8789,-0.16016 -3.3203,-1.8711 -5.121,-0.32031 -2.3321,1.45312 -5.6641,5.88281 -6.7422,8.8789 -0.3672,1.02344 -0.3985,1.86719 0.2734,2.40625 2.1133,0.82813 4.1992,-0.1914 5.5195,1.5625 1.3203,1.23047 0.2071,5.08594 2.6133,5.80469 0.8438,0.39453 1.793,0.44922 2.6914,0.0859 1.4297,-0.57813 2.0469,-1.98047 2.5821,-3.5586 1.4843,-4.85547 2.9648,-9.71093 4.4492,-14.5625 0.1367,-1.41406 0,-3.28125 -0.6211,-4.23437 l -1.1992,-0.82031 c -2.25,-0.23438 -2.4961,4.44921 -4.4454,4.75781 m -5.8125,4.76957 -0.5273,0.52734 -0.5273,-0.52734 0.5273,-0.52734 0.5273,0.52734 m 1,-1 -0.5273,0.52734 -0.5273,-0.52734 0.5273,-0.52734 0.5273,0.52734 m 3.4063,-1.07813 -0.1406,-0.19531 0.098,-0.3789 0.1758,-0.26954 0.1406,0.19532 -0.098,0.3789 -0.1758,0.26953"
     id="path185" />
  <path
     fill-rule="nonzero"
     fill="#FFFFFF"
     fill-opacity="1"
     d="m 591.28337,100.20389 c -4.38672,0.0117 -8.42969,0.70703 -10.16016,1.07812 -2.11719,0.45313 -3.33984,0.95703 -4.5,1.63281 -1.49219,0.8711 -2.97656,2.23438 -4.08203,3.77735 -0.80078,1.11328 -1.49219,2.23047 -1.62891,3.8125 -0.1875,2.22656 0.51563,4.83594 1.69532,6.84765 4.53125,5.42579 9.0664,10.84766 13.60156,16.27344 1.71094,2.3086 1.95703,3.1211 1.46875,4.06641 -0.57422,1.10937 -2.91016,1.71875 -6.05078,2.125 -2,0.25781 -4.84766,0.44922 -6.85547,0.21484 -5.01953,-0.125 -6.14844,-5.28515 -8.4375,-4.11328 -0.65625,0.35938 -1.23828,1.625 -1.12891,2.79688 0.0937,1.04687 0.82813,2.68359 2.02735,3.69921 1.35937,1.15235 3.23046,2.00782 6.15234,2.375 2.82031,0.35157 6.88281,0.125 9.47656,-0.10156 4.55469,-0.40234 5.97656,-0.96094 7.22656,-1.45703 1.40625,-0.55859 3.1836,-1.05078 4.09766,-2.61719 0.79297,-1.36328 0.8125,-3.57422 0.0625,-5.04297 -5.50781,-6.04687 -11.01172,-12.09375 -16.51953,-18.14453 -1.01953,-1.46484 -1.875,-3.22656 -1.77734,-5.45703 0.0742,-1.6875 0.46875,-2.71094 1.39453,-3.94531 0.82812,-1.10156 1.80078,-1.66797 2.67968,-2.16797 2.625,-1.49609 18.57422,-4.48437 17.69532,-4.85547 -1.25782,-0.52734 -2.84375,-0.80469 -6.4375,-0.79687"
     id="path186" />
  <path
     fill-rule="nonzero"
     fill="#FFFFFF"
     fill-opacity="1"
     d="m 584.76384,91.82498 c -1.22657,2.54297 -2.32422,5.82031 -3.51172,11.6875 -2.13282,10.53516 -4.8125,22.00781 -5.96094,33.53516 -0.40625,3.45703 -0.41016,8.22265 0.89844,9.14062 l 1.27734,0.0899 c 1.07031,-0.65625 1.54297,-2.20704 2.09375,-4.4961 2.24219,-13.8125 6.71484,-33.1875 6.23828,-40.70703 0.91797,-2.79687 1.83985,-5.59375 2.75781,-8.39453 0.38672,-1.47266 0.0156,-3.33594 -1.23828,-3.09766 -1.24609,-0.0117 -2.07812,1.25391 -2.55468,2.24219"
     id="path187" />
  <path
     fill-rule="nonzero"
     fill="#FFFFFF"
     fill-opacity="1"
     d="m 595.54899,96.15701 c -0.70703,0.58203 -1.97656,2.72656 -2.55078,4.50391 -0.75391,3.85156 -1.50781,7.70312 -2.25781,11.55469 -2,5.96484 -4,11.92968 -6,17.89453 -0.55078,2.38672 -1.6836,7.41015 -1.6875,16 -0.004,4.375 0.24219,7.29687 1.14062,8.63672 l 1.27344,0.0859 1.24609,-2.8125 c 0.95704,-6.57422 1.91407,-13.15234 2.8711,-19.72656 2.15234,-6.70703 4.30078,-13.41797 6.44922,-20.12891 1.125,-5.16406 1.25,-10.66015 1.62109,-14.39453 0.10547,-1.08203 -0.0547,-1.98828 -0.70312,-2.05468 l -1.40235,0.4414"
     id="path188" />
  <path
     fill-rule="nonzero"
     fill="#FFFFFF"
     fill-opacity="1"
     d="m 601.63884,102.55936 c -2.48438,-1.65235 -6.29297,-3.03907 -8.40625,-3.10547 -1.67969,-0.0547 -2.4375,0.40625 -2.72657,1.15625 0.69532,1.72265 2.08985,2.57031 5.78516,4.64843 0.59766,0.22657 4.51953,1.28516 4.84375,1.32032 1.33203,0.14453 2.31641,-0.20703 2.41797,-1.07032 0.10547,-0.90234 -0.70313,-2.14453 -1.91406,-2.94921"
     id="path189" />
  <rect
     style="fill:none;stroke-width:13.474"
     id="rect189"
     width="1872"
     height="488.18134"
     x="-0.083822846"
     y="9.4812317" />
  <rect
     style="fill:none;stroke-width:13.474"
     id="rect190"
     width="1869.8389"
     height="497.55368"
     x="0.35344341"
     y="-4.4429932"
     inkscape:export-filename="../10.svg"
     inkscape:export-xdpi="96"
     inkscape:export-ydpi="96" />
  <rect
     style="fill:none;stroke-width:13.474"
     id="rect191"
     width="1928.775"
     height="558.73352"
     x="-55.5312"
     y="-68.27124" />
  <rect
     style="fill:none;stroke-width:13.474"
     id="rect192"
     width="1871.7876"
     height="493.57217"
     x="0"
     y="0" />
</svg>
