<?xml version="1.0" encoding="UTF-8" standalone="no"?>
<svg
   viewBox="0 0 1873.6722 329.1875"
   width="1873.6722"
   height="329.1875"
   version="1.1"
   id="svg39003"
   sodipodi:docname="slides.svg"
   xmlns:inkscape="http://www.inkscape.org/namespaces/inkscape"
   xmlns:sodipodi="http://sodipodi.sourceforge.net/DTD/sodipodi-0.dtd"
   xmlns="http://www.w3.org/2000/svg"
   xmlns:svg="http://www.w3.org/2000/svg">
  <defs
     id="defs39003" />
  <sodipodi:namedview
     id="namedview39003"
     pagecolor="#ffffff"
     bordercolor="#666666"
     borderopacity="1.0"
     inkscape:showpageshadow="2"
     inkscape:pageopacity="0.0"
     inkscape:pagecheckerboard="0"
     inkscape:deskcolor="#d1d1d1" />
  <path
     fill-rule="nonzero"
     fill="#000000"
     fill-opacity="1"
     d="m 381.69703,90.940563 c -2.23828,-0.02 -5.4414,0.976 -7.97265,1.691 -5.35157,1.508 -10.42188,4.426 -15.8125,7.601997 -4.77344,2.812 -10.1836,7.058 -14.6211,11.492 -3.71875,3.719 -7.01172,7.898 -9.72265,11.937 -2.10547,3.141 -3.39454,5.356 -4.3125,8.055 -1.89063,5.562 -3.88672,12.652 -4.48829,19.867 0.17969,12.977 -0.84375,27.434 0.72266,39.457 0.76172,0.68 2.41797,0.774 3.92188,0.03 1.5664,-0.774 2.49609,-2.208 2.83203,-3.583 0.0586,-11.757 0.12109,-23.511 0.17968,-35.269 0.65235,-3.344 1.84766,-10.016 3.11329,-14.875 0.83984,-3.211 2.51562,-7.492 4.01953,-10.281 1.82031,-3.379 8.3789,-10.664 11.66015,-14.321 2.1836,-2.429 6.96485,-6.543 8.90625,-7.527 4.86719,-2.473 9.14453,-5.047 16.73047,-7.772997 4.3086,-1.551001 9.1836,-1.157001 12.07422,-0.95 1.57813,-0.05 1.64844,-4.199 0.5,-4.410001 -1.125,-0.581999 -6.16016,-1.125 -7.73047,-1.139999"
     id="path20845" />
  <path
     fill-rule="nonzero"
     fill="#000000"
     fill-opacity="1"
     d="m 411.21656,192.10056 c -22.66015,-1.219 -47.0039,-2.336 -71.36328,-2.887 -4.0664,-0.887 -8.13672,-1.769 -12.20312,-2.656 -1.44922,0.08 -2.46875,0.543 -2.41407,2.004 0.0508,1.433 1.11329,2.57 2.3125,3.14 4.62891,2.2 9.53125,3.453 14.73438,3.911 22.41016,-0.02 44.3125,3.816 67.48437,4.046 1.36719,-0.08 2.82422,-0.406 4.06641,-1.664 0.82813,-0.836 1.17969,-1.597 1.11719,-2.441 -0.11719,-1.617 -2.07031,-3.082 -3.73438,-3.453"
     id="path20846" />
  <path
     fill-rule="nonzero"
     fill="#000000"
     fill-opacity="1"
     d="m 432.27125,185.64756 c -2.59766,-12.793 -4.125,-27.168 -7.625,-40.754 -2.27344,-6.969 -5.07422,-14.391 -8.26562,-21.324 -1.8711,-4.067 -3.44532,-7.504 -6.26954,-11.774 -2.09765,-3.172 -4.89843,-6.609 -8.1289,-9.047 -3.10156,-2.34 -7.8086,-4.593998 -11.98828,-6.468998 -1.90235,-0.850999 -3.8086,-0.577999 -5.73047,0.469 -1.42188,0.770001 -2.91797,1.977 -3.6211,3.343998 -0.71484,1.402 -0.70312,3.062 0.22266,3.859 3.14063,2.137 3.57422,-4.495998 6.24219,-2.648 3.52734,1.473 8.51172,4.684 10.4414,6.851 8.9336,11.602 12.33985,23.274 18.83985,34.93 2.10937,3.68 3.46094,11.61 4.26562,16.567 0.16797,3.961 0.33594,7.925 0.50391,11.886 1.19141,3.516 2.38281,7.032 3.57812,10.543 0.54297,4.414 -1.55078,9.344 -0.86718,12.059 0.10937,1.66 3.71093,1.82 5.51562,0.851 2.5586,-2.566 2.59766,-6.82 2.88672,-9.343"
     id="path20847" />
  <path
     fill-rule="nonzero"
     fill="#000000"
     fill-opacity="1"
     d="m 404.29469,47.213562 c -2.4375,-2.976 -6.59766,-5.945 -9.16406,-7.785 -1.4961,-1.074 -3.47266,-1.473 -5.25391,-1.629 -3.79297,-0.332 -8.30469,-0.547 -12.07422,0 -2.65234,1.238 -5.30078,2.48 -7.95312,3.719 -4.41016,0.09 -8.81641,0.179 -13.22266,0.269 -1.79688,0.489 -4.60156,2.332 -6.59375,4.047 -3.19141,2.75 -6.66406,8.516 -7.84766,12.055 -0.82422,2.465 -0.55859,5.66 -0.33203,8.164 0.35547,3.871 1.9375,7.199 4.17578,10.758 3.20703,5.086 6.125,8.48 11.82813,13.082 3.24219,2.613 6,5.14 9.27344,6.625 4.07421,1.851 9.6289,3.035 13.77343,2.883 2.96485,-0.106 10.14844,-1.793 12.50391,-3.563 3.70312,-2.781 8.80078,-8.891 12.4375,-13.738 3.26562,-4.469 2.89062,-8.937999 4.08594,-13.437999 0.50781,-3.289001 0.5625,-7.679001 0.0234,-10.234 -0.58203,-2.77 -2.6289,-7.512 -5.66015,-11.215 m -22.26953,-4.75 0.16015,-0.04 0.50391,0.02 0.5,0.07 0.14453,0.05 -0.37891,0.04 -0.54687,-0.08 -0.38281,-0.07 m 19.87109,29.832 c -1.13672,3.113 -1.87109,6.719 -4.88281,10.457 -1.33594,1.66 -3.17969,3.606 -4.88281,4.714999 -3.125,2.039001 -7.36719,4.168001 -10.375,4.285001 -3.5625,0.137 -8.01954,0.617 -11.52344,-0.152 -3.06641,-0.672001 -7.5586,-4.758001 -10.36719,-6.875 -3.55469,-2.684 -6.69531,-6.434 -8.82812,-9.824 -2.04688,-3.262 -4.14063,-8.637 -4.21875,-10.465 -0.0625,-1.512 -0.15625,-3.317 0.66406,-4.86 1.54687,-2.91 3.875,-7.121 5.11719,-8.761 0.89453,-1.188 2.91015,-2.086 4.53906,-2.946 3.51953,-1.851 9.125,-3.343 12.96094,-3.652 4.67187,-0.375 8.05078,2.906 11.76171,2.324 1.04688,-0.883 2.09375,-1.769 3.14454,-2.652 1.43359,-0.317 8.76171,3.448999 10.75,5.496 4.26171,6.437 7.46093,9.227 7.94531,14 0,2.773 -0.80469,6.168 -1.80469,8.91"
     id="path20848" />
  <path
     fill-rule="nonzero"
     fill="#000000"
     fill-opacity="1"
     d="m 419.73609,196.40856 c -0.73828,-0.418 -4.21484,-0.652 -6.27734,-0.937 -1.27344,-0.172 -2.69141,0.08 -3.03125,1.219 -0.20703,0.691 0.13281,1.582 0.69922,2.273 0.95312,1.16 2.14844,1.434 3.35156,1.477 1.42578,0.05 3.47656,-0.133 4.66016,-0.922 0.71484,-0.481 1.02344,-0.992 1.1289,-1.739 0.10547,-0.73 -0.125,-1.136 -0.53125,-1.371"
     id="path20849" />
  <path
     fill-rule="nonzero"
     fill="#000000"
     fill-opacity="1"
     d="m 1506.1424,71.291563 c -3.4141,-1.957 -11.5196,-4.301001 -14.1446,-4.472 -4.3398,-0.282 -9.2421,-0.508 -13.582,0.152 -4.6211,0.707 -8.3281,1.355 -12.043,2.883 -4.7734,1.965 -10.3632,6.687 -14.6601,10.445 -6.9453,7.727 -13.7109,18.742 -18.7383,26.386997 -3.6016,6.886 -5.375,15.699 -8.7461,21.054 -1.3164,3.399 -1.4101,8.954 -1.5937,11.747 0.5039,9.355 0.7656,16.984 0.8945,24.191 0.9453,1.262 1.9453,1.168 2.4336,0.05 0.7422,-1.707 1.0898,-4.824 1.4141,-6.774 0.6953,-4.144 -0.254,-7.691 -0.6993,-11.757 -0.035,-3.489 1.7032,-11.332 2.6719,-14.477 1.1445,-3.707 2.7734,-9.008 4.1563,-11.801 3.0507,-6.16 5.582,-11.308 9.1054,-17.078 2.9024,-4.761997 5.5821,-8.237997 9.9922,-13.081997 3.1485,-3.461 6.9805,-7.383 10.3828,-9.949 2.1094,-1.59 4.3086,-3.078 6.4844,-3.793 3.9102,-1.293 9.5469,-3.176 11.9414,-3.301 3.2852,-0.172 6.832,-0.18 10.1016,0.551 4.1953,0.933 7.5937,2.305 11.7304,3.996 2.9141,1.191 6.5079,4.398 8.2774,7.219 2.3515,3.734 5.168,8.246 6.6836,10.82 2.707,4.613 6.3476,12.577997 7.9336,19.272997 2.7148,11.438 3.75,21.926 5.6445,33.047 0.1445,4.84 0.2891,9.684 0.4336,14.524 0.3594,1.062 1.375,1.637 2.8984,1.387 1.0469,-0.172 1.7539,-0.579 2.543,-1.407 1.0977,-1.152 1.707,-2.742 1.918,-4.062 0.5937,-3.727 0.4101,-8.535 0.062,-12.129 -0.8438,-1.832 -1.6836,-3.66 -2.5235,-5.488 -0.059,-3.875 -0.1132,-7.75 -0.1718,-11.625 -1.6446,-7.024 -3.1641,-17.395 -6.4883,-26.547 -2.1524,-4.781997 -5.7891,-12.347997 -10.9492,-18.538997 -4.4571,-5.348 -10.336,-9.707 -13.3633,-11.442"
     id="path20850" />
  <path
     fill-rule="nonzero"
     fill="#000000"
     fill-opacity="1"
     d="m 1528.201,166.47956 c -0.7657,-1.075 -2.0586,-1.801 -3.3946,-2.09 -15.5781,-3.352 -31.4023,-5.809 -44.625,-6.61 -14.7773,-0.898 -30.6367,-0.968 -45.4179,-0.121 -1.3047,0.07 -2.7696,0.293 -4.1797,1.621 -0.8516,0.797 -1.5469,1.942 -1.4805,2.817 0.078,1 0.9141,1.41 1.7735,1.535 5.6875,0.84 11.6875,-1.281 17.246,-0.801 14.5079,1.383 29.0118,2.699 43.4415,3.949 11.2929,0.973 21.539,4.551 33.0351,4.981 1.9649,0.23 4.0977,-1.102 4.2383,-2.891 0.1406,-0.922 -0.1094,-1.648 -0.6367,-2.39"
     id="path20851" />
  <path
     fill-rule="nonzero"
     fill="#000000"
     fill-opacity="1"
     d="m 1519.3807,22.424563 c -1.4375,-2.871 -7.8594,-8.781 -11.086,-11.211 -3.5859,-2.6990005 -9.1094,-4.7150005 -13.9179,-5.9220005 -3.0352,-0.762 -6.5469,-0.863 -9.629,-0.605 -2.9804,0.25 -8.1132,3.035 -11.8828,5.7650005 -4.9961,3.61 -8.8515,7.668 -13.0507,11.903 -2.5821,2.597 -4.6993,5.886 -5.6368,8.062 -0.9961,2.317 -1.5156,5.203 -1.2968,7.918 0.3086,5.004 3.2929,9.906 6.3711,14.809 1.914,3.011 5.0859,5.258 8.2851,7.566 5.1758,4.028 9.7383,4.766 13.5,5.977 4.3828,1.183 8.8242,1.355 13.332,1.199 3.4883,-0.117 10.3555,-2.66 13.3399,-4.539 3.5898,-2.266 8.5664,-7.078 11.7969,-10.438 2.0976,-2.179 3.6054,-5.308 4.1132,-7.902 0.7305,-3.758 0.418,-8.637 0.2774,-11.309 -0.1328,-2.601 -3.0586,-8.371 -4.5156,-11.273 m -5.1055,27.246 c -1.4414,2.379 -4.4844,4.352 -7.1797,6.442 -4.5977,3.566 -8.2305,4.609 -11.7227,5.765 -2.0429,0.68 -4.2109,0.969 -6.3476,0.797 -6.7813,-0.906 -13.832,-5.172 -20.7539,-7.883 -3.1406,-2.539 -5.6133,-6.058 -7.0625,-8.847 -1.457,-2.805 -3.3555,-7.204 -3.1133,-9.821 0.1445,-1.566 2.4805,-6.226 4.5898,-9.254 1.5586,-2.242 3.3438,-3.715 5.5157,-4.672 3.5742,-1.574 7.9648,-3.109 11.5117,-3.07 2.4961,0.973 4.9883,1.942 7.4805,2.91 1.0234,-0.984 -0.6641,-4.746 -1.9141,-5.16 -3.1016,-0.672 -9.2969,0.512 -10.543,-1.012 0,-1.324 11.6485,-3.347 14.2774,-3.214 3.1133,0.16 7.3242,0.823999 10.2695,2.312 3.1914,1.609 7.5391,5.598 10.2305,8.156 2.25,2.141 3.4883,4.961 4.5351,7.5 1.4219,3.45 3.3907,7.375 2.9297,10.317 -0.3867,2.441 -1.5937,6.91 -2.7031,8.734"
     id="path20852" />
  <path
     fill-rule="nonzero"
     fill="#000000"
     fill-opacity="1"
     d="m 1460.9861,82.760562 c 0.5469,-0.508 0.6524,-1.445 0.3907,-1.952999 -0.4336,-0.844 -1.7969,-0.926001 -2.4766,0 -0.3906,0.531 -0.4063,1.426 0.1289,1.952999 0.5469,0.539001 1.4102,0.508001 1.957,0"
     id="path20853" />
  <path
     fill-rule="nonzero"
     fill="#000000"
     fill-opacity="1"
     d="m 1478.9236,163.85856 c 0.3789,-4.657 0.3086,-8.875 0.01,-12.289 -0.9062,-10.43 -2.7382,-22.918 -5.332,-33.145 -2.7344,-10.77 -6.6758,-24.968998 -11.8906,-36.956998 -0.4649,-1.07 -1.6328,-1.605 -3.0313,-1.336 -1.414,0.273 -1.5547,1.117 -1.3086,2.164001 2.2579,6.02 4.5118,12.039 6.7696,18.058997 3.2187,10.793 6.8906,26.875 8.4609,34.734 -0.7226,11.078 2.3984,19.285 1.9414,28.707 0.2266,1.172 1.2227,2.477 2.582,2.52 1.3399,0.04 1.6954,-1.145 1.8008,-2.457"
     id="path20854" />
  <path
     fill-rule="nonzero"
     fill="#000000"
     fill-opacity="1"
     d="m 1503.5447,85.807563 c -1.6445,0.851 -3.7656,2.191 -4.7969,3.515 -1.875,2.410999 -4.3671,5.579 -6.539,9.329 -2.4297,4.198997 -4.4961,8.131997 -5.5586,11.936997 -0.457,3.078 -0.9102,6.16 -1.3633,9.242 -1.2187,2.102 -2.5976,4.356 -3.1641,6.59 -1.457,5.734 -2.3242,12.692 -2.8359,18.609 -0.3789,4.344 -0.9922,10.454 0.078,14.754 0.3477,1.383 1.4532,3.008 2.9297,2.965 1.0196,-0.03 1.4297,-0.816 1.5586,-1.633 -0.2851,-4.445 -0.5664,-8.894 -0.8515,-13.343 0.1054,-3.457 0.9609,-7.211 1.539,-10.567 1.8438,-10.66 3.4453,-18.769 6.8477,-27.527 2.5,-6.43 4.0351,-9.316 8.8125,-15.499997 2.6797,-3.473 5.1758,-5.016 7.0859,-6.09 0.75,-0.961 0.3828,-2.238 -0.3633,-2.613 -0.7929,-0.399 -2.3047,-0.227 -3.3789,0.332"
     id="path20855" />
  <path
     fill-rule="nonzero"
     fill="#000000"
     fill-opacity="1"
     d="m 1453.076,95.940563 c 0.5508,-0.508 0.6523,-1.446 0.3906,-1.953 -0.4336,-0.844 -1.793,-0.926 -2.4766,0 -0.3867,0.527 -0.4062,1.425 0.1328,1.953 0.543,0.539 1.4063,0.507 1.9532,0"
     id="path20856" />
  <path
     fill-rule="nonzero"
     fill="#000000"
     fill-opacity="1"
     d="m 1444.3455,158.93256 c 3.5859,0.367 7.1719,0.734 10.7578,1.105 2.8281,-0.738 5.6524,-1.472 8.4805,-2.211 2.4297,0.03 0.2539,4.938 1.8945,7.149 0.543,0.695 1.5,1.195 2.2969,1.25 0.9805,0.06 1.3594,-0.321 1.6367,-1.074 -0.1523,-6.723 2.418,-14.633 1.6211,-21.192 -1.6484,-8.449 -3.2969,-16.898 -4.9453,-25.344 -0.1641,-5.285 -0.3281,-10.566 -0.4883,-15.847 -0.8984,-5.374997 -2.7656,-12.175997 -4.8242,-17.265997 -1.4024,-2.527 -2.0117,-6.312 -4.75,-6.734 -1.4531,-0.258 -2.4961,0.312 -2.8633,1.39 -0.3476,3.168 -0.2656,7.282 -2.1016,10.34 -3.6328,3.219 -7.2656,6.438 -10.8984,9.652997 -2.3516,3.644 -6.6445,10.734 -8.0117,14.437 -1.9375,8.274 -1.1484,11.332 -2.3125,18.727 -0.2305,2.847 2.6953,2.132 2.6172,2.953 -1.6446,1.933 -3.293,3.863 -4.9375,5.797 -1.7578,3.515 -1.8828,6.25 -2.8281,10.797 -0.012,0.05 4.5507,10.867 4.8398,10.917 5.0312,0.258 10.1055,-3.652 14.8164,-4.847 m -11.9727,-2.141 -0.375,0.309 -0.5937,-0.117 -0.4922,-0.473 -0.023,-0.574 0.3281,-0.336 0.5586,0.14 0.4531,0.497 0.1445,0.554 m 0.1954,-28.137 v -1.484 l 0.2031,0.332 0.2539,0.41 -0.457,0.742 m 6.3515,-17.179 -0.6953,-0.696 0.6953,-0.695 0.6953,0.695 -0.6953,0.696 m 0.625,-2.012 0.4531,-0.742 v 1.484 l -0.4531,-0.742 m 0.9297,-0.578 -0.2383,-0.742 0.7422,0.238 -0.5039,0.504 m 1.082,-1.363 -0.6953,-0.696 0.6953,-0.695 0.6954,0.695 -0.6954,0.696 m 1.3164,-1.321 -0.6953,-0.695 0.6953,-0.691 0.3086,0.308 0.3868,0.383 -0.6954,0.695 m 2.6368,34.196 0.2031,0.332 0.5391,0.125 h -1.4844 l 0.7422,-0.457 m 3.2578,-26.981 0.457,-0.742 v 1.484 l -0.457,-0.742 m -3.7539,-12.781 c 1.3593,-1.944997 3.6953,-3.562997 3.9843,-3.050997 0.3125,0.547 -0.1835,2.078 -1.457,3.601997 -1.418,1.695 -3.164,3.273 -3.5273,2.476 -0.25,-0.543 0.2812,-2 1,-3.027 m 4.8906,-4.792997 -0.4414,-0.879 0.7422,1.082 -0.3008,-0.203 m 0.1328,15.862997 0.094,-0.847 0.2851,-0.871 0.332,-0.516 0.3086,0.07 0.2383,0.532 0.035,0.781 -0.2227,0.777 -0.4531,0.492 -0.4297,0.08 -0.1875,-0.496 m 0.8438,41.321 0.2773,-0.286 0.5625,-0.175 0.4219,0.1 0.023,0.262 -0.4726,0.254 -0.5469,0.06 -0.2656,-0.214 m 1.8437,-1.391 0.4531,-0.742 v 1.484 l -0.4531,-0.742 m 0,-25.039 0.4531,-0.742 v 1.484 l -0.4531,-0.742 m 0.9297,24.465 -0.2383,-0.742 0.7422,0.238 -0.5039,0.504 m 1.082,-1.438 0.2032,0.332 0.539,0.125 h -1.4844 l 0.7422,-0.457 m -1.7851,-15.426 c -2.1055,2.168 -5.7617,6.075 -6.1875,5.04 1.0468,-1.977 7.8242,-9.129 8.1093,-8.711 0.4961,0.629 -0.2421,1.941 -1.9218,3.671 m 3.1015,15.497 -0.6953,-0.692 0.6953,-0.695 0.6953,0.695 -0.6953,0.692 m 0,-42.172 -0.6953,-0.696 0.6953,-0.695 0.6953,0.695 -0.6953,0.696 m 0,-17.136997 -0.6953,-0.691 0.6953,-0.696 0.6953,0.696 -0.6953,0.691 m 0.625,52.026997 0.4571,-0.742 v 0.328 0.496 0.657 l -0.4571,-0.739 m 0.9336,-0.578 v -1.484 l 0.2032,0.332 0.25,0.41 -0.4532,0.742 m 0.7188,11.102 0.023,-0.395 0.3985,-0.734 0.6328,-0.856 0.6757,-0.609 0.5313,-0.309 0.25,0.141 -0.098,0.481 -0.4414,0.707 -0.75,0.773 -0.7578,0.59 -0.4648,0.211"
     id="path20857" />
  <path
     fill-rule="nonzero"
     fill="#000000"
     fill-opacity="1"
     d="m 1532.783,168.90156 c 0.6797,-2.532 -0.25,-6.176 -0.3594,-7.469 0.6641,-2.805 1.3282,-5.61 1.9922,-8.414 -0.5703,-7.555 -1.1406,-15.114 -1.7148,-22.668 -2.2657,-4.024 -4.3242,-8.215 -4.8789,-10.879 0.3554,-6.578 -3.1797,-14.945 -4.9063,-21.886998 -2.2148,-4.043 -9.4297,-12.547 -11.7578,-14.344 -0.5586,-0.433 -1.5039,-0.464 -2.3086,-0.164 -2.375,0.883 -8.832,5.996 -10.6914,7.719 -5.75,6.277 -8.6602,11.823998 -11.9766,17.155998 -1.2148,2.993 -2.9218,8.075 -3.5273,11.985 -0.6328,2.476 2.6016,4.445 3.6523,5.785 0.6446,1.453 -0.3476,5.43 -0.5898,7.351 -2.1602,5.641 -4.3281,11.196 -7.6992,17.133 -0.6953,3.262 0.7617,5.641 1.3086,7.074 -0.3828,1.54 -3.0938,5.102 -1.8203,7.551 0.625,1.039 21.8125,-1.406 26.1562,-2.179 2.0117,-1.305 4.0274,-2.614 6.043,-3.918 0.582,-0.06 2.5976,3.328 2.5625,3.761 -0.625,1.121 -1.2461,2.243 -1.8711,3.364 0.082,0.136 5.5117,3.304 7.3906,4.214 4.4453,1.114 9.3789,0.411 13.6172,0.309 0.8555,-0.269 1.1328,-0.566 1.3789,-1.48 m -47.7344,-11.297 -0.6953,-0.696 0.6953,-0.695 0.6953,0.695 -0.6953,0.696 m 1.7578,-3.774 -0.4414,-0.875 0.7422,1.078 -0.3008,-0.203 m 0.8789,-0.179 -0.6953,-0.696 0.6953,-0.695 0.6954,0.695 -0.6954,0.696 m 1.8946,4.336 0.7383,-1.079 -0.4375,0.875 -0.3008,0.204 m 0.9804,-0.336 v -1.485 l 0.1993,0.328 0.2539,0.414 -0.4532,0.743 m 1.0782,-1.368 -0.6953,-0.695 0.6953,-0.691 0.3086,0.308 0.3867,0.383 -0.6953,0.695 m 1.0703,-1.773 h 0.9883 l -0.7422,0.457 -0.7422,-0.457 h 0.4961 m 0.8242,-0.477 0.7422,-1.078 -0.4414,0.875 -0.3008,0.203 m 1.1016,-1.511 v -0.606 l 0.2109,-0.578 0.3867,-0.16 0.332,0.223 0.07,0.554 -0.3164,0.571 -0.4141,0.293 -0.2656,-0.297 m 2.0273,-1.965 h 0.9883 l -0.7422,0.457 -0.7383,-0.457 h 0.4922 m 0.8242,-0.477 0.7422,-1.078 -0.4414,0.875 -0.3008,0.203 m 4.6953,-29.379 -0.6953,-0.695 0.6953,-0.695 0.6954,0.695 -0.6954,0.695 m 0.625,32.254 0.4532,-0.742 v 1.484 l -0.4532,-0.742 m 0.012,-42.238 h 0.1757 l -0.1328,0.453 -0.3515,0.59 -0.3008,0.312 -0.051,-0.265 0.3008,-0.57 0.3594,-0.524 m -13.8555,40.371 c 2.7344,-6.43 10.3125,-9.652 13.5625,-15.703 1.2187,-1.062 2.9961,-1.773 3.4141,-1.602 -2.3125,2.469 -13.4688,16.512 -16.9766,17.305 m 17.75,-18.14 0.7422,-1.082 -0.4414,0.878 -0.3008,0.204 m 1.8594,-17.082 0.2422,0.914 0.2265,0.941 0.207,1.012 0.067,0.949 -0.1641,0.73 -0.418,0.215 -0.4531,-0.324 -0.2891,-0.883 -0.2382,-1.019 -0.2735,-0.985 -0.3945,-0.773 -0.1875,-0.832 0.043,-0.934 0.2929,-0.812 0.3555,-0.332 0.3828,0.379 0.3242,0.793 0.2774,0.961 m 0.3047,30.718 0.164,-0.05 0.5039,0.02 0.4961,0.07 0.1445,0.06 -0.3789,0.04 -0.5468,-0.08 -0.3828,-0.06 m 0.5742,-6.14 c -3.1563,2.726 -7.1367,7.886 -10.3399,8.632 0.8985,-2.753 8.5508,-9.656 11.1211,-11.808 0.7188,0.414 0.375,1.992 -0.7812,3.176 m -0.7696,-10.239 -0.1132,-0.648 0.2968,-0.719 0.4883,-0.597 0.4961,-0.368 0.3828,0.1 0.2735,0.531 0.078,0.797 -0.211,0.789 -0.539,0.492 -0.668,0.05 -0.4844,-0.43 m 2.0313,22.75 0.457,-0.742 v 1.485 l -0.457,-0.743 m 0.9336,-0.578 v -1.484 l 0.2031,0.332 0.2539,0.41 -0.457,0.742 m 0.832,-1.82 h 0.9883 l -0.7422,0.457 -0.7422,-0.457 h 0.4961 m 3.6445,5.125 c 0.2696,-1.09 0.9375,-1.684 1.668,-1.379 0.9258,0.387 1.1133,1.957 0.875,2.68 -0.1758,0.539 -0.832,0.906 -1.6953,0.683 -0.8203,-0.211 -1.125,-0.875 -0.8477,-1.984 m 4.9883,-4.57 0.012,0.648 -0.2187,0.652 -0.3281,0.34 -0.3321,-0.324 -0.1836,-0.652 0.051,-0.657 0.3164,-0.328 h 0.3985 l 0.2851,0.321 m 6.9883,-9.782 v 10 l -0.055,1.106 -0.1289,0.695 -0.2344,0.03 -0.3007,-0.609 -0.1914,-1 -0.01,-1.148 0.2618,-1.207 0.2304,-1.258 0.1563,-1.289 0.016,-1.293 0.012,-1.297 0.016,-1.297 0.016,-1.293 -0.016,-1.297 -0.023,-1.152 -0.012,-0.863 0.062,-0.293 0.098,0.273 0.074,0.832 0.027,1.113 v 1.25"
     id="path20858" />
  <path
     fill-rule="nonzero"
     fill="#000000"
     fill-opacity="1"
     d="m 1479.8221,75.213562 c -2.3399,1.051001 -5.9844,4.457 -6.793,6.387 -0.7344,1.75 -1.4375,4.871 -1.2461,6.879 0.1719,1.773 1.2734,4.179001 2.6641,5.078 1.5625,1.008 4.9218,0.996 6.875,0.04 1.7773,-0.875 4.1172,-3.223 4.9961,-4.977 1.2773,-2.539 0.9179,-7.285 0.4648,-8.824 -0.3555,-1.211 -2.0742,-3.613 -4.1875,-4.539 -0.9883,-0.434 -1.9375,-0.418 -2.7734,-0.04"
     id="path20859" />
  <path
     fill-rule="nonzero"
     fill="#000000"
     fill-opacity="1"
     d="m 1474.6619,91.096562 c 1.5078,-1.652 3.0234,-9.481 2.6484,-10.488 -0.25,-0.676 -0.871,-1.204 -1.6093,-1.456999 -1.543,0.144 -3.086,0.289 -4.6289,0.437 -1.4375,-2.726 -2.875,-5.453 -4.3125,-8.176 -1.8672,-2.172001 -4.5508,-7.843 -8.1328,-8.308001 -1.5313,0.06 -2.6329,1.297001 -2.8907,2.746 2.0469,6.969 0.668,10.828 2.4922,16.351 -0.2656,3.371 -0.5273,6.743 -0.793,10.114 0.2227,0.828 0.75,3.187 1.4571,3.851 0.8984,0.84 3.3594,0.742 5.0976,0.34 3.0078,-0.695 8.6993,-3.25 10.6719,-5.41 m -10.1914,-7.828 c 0.6836,-0.141 1.9141,0.703 2.1953,1.269 0.2539,0.512 -0.1601,1.403 -0.9101,2.071 -0.7539,0.668 -1.6094,0.769 -2.0938,-0.07 -0.5664,-0.988 -0.082,-3.082 0.8086,-3.269"
     id="path20860" />
  <path
     fill-rule="nonzero"
     fill="#000000"
     fill-opacity="1"
     d="m 1501.9353,69.455563 c -8.2656,5.554999 -14.5703,11.679999 -22.5507,19.289 -1.5,1.125 -1.8243,3.508 -0.7891,4.68 1.1953,1.406 7.7734,6.215 10.2578,7.026997 3.1992,0.684 6.3945,0.547 9.6992,-1.432997 0.8907,-0.641001 1.7071,-1.539001 2.0586,-2.442 0.09,-3.859 0.1758,-7.714001 0.2657,-11.570001 1.8046,-4.483999 4.7812,-8.519 6.6523,-13.683999 0.5547,-1.531 0.2461,-2.617 -0.5625,-3.003 -1.1211,-0.54 -3.1602,-0.125 -5.0313,1.136 m -16.8867,20.929999 -0.6953,-0.691 0.6953,-0.696 0.6953,0.696 -0.6953,0.691 m 0.5742,-1.773 0.7422,-0.239 -0.2382,0.742 -0.504,-0.503 m 8.9415,3.070001 -0.1055,0.379 v -0.332 l 0.074,-0.809 0.098,-0.933 0.125,-0.704 0.125,-0.246 0.082,0.211 -0.047,0.68 -0.1562,0.926 -0.1953,0.828 m 2.9687,-9.899 0.457,-0.742 v 1.485 l -0.457,-0.743 m 0.9336,-1.894 -0.2383,-0.742 0.7422,0.242 -0.5039,0.5"
     id="path20861" />
  <path
     fill-rule="nonzero"
     fill="#000000"
     fill-opacity="1"
     d="m 1445.6893,102.61256 c -1.0899,0.304 -2.3516,1.605 -3.625,3.078 -5.7891,7.371 -5.4375,8.027 -7.3711,12.367 -1.6289,5.043 -3.2618,10.086 -4.8907,15.129 -0.2343,2.429 -0.2187,5.617 0.043,8.14 0.1602,1.567 0.3711,2.379 1.4375,2.879 0.707,0.332 2.4688,0.293 3.4492,-0.125 1.1602,-0.496 2.1641,-1.429 2.6524,-3.093 0.5625,-1.93 0.4101,-4.305 0.2226,-5.547 -0.9961,-3.36 -2.2695,-3.571 -1.5078,-6.114 4.582,-9.121 8.4492,-16.035 10.9063,-21.726 0.5507,-1.266 0.914,-3.692 0.012,-4.75 l -1.3281,-0.238"
     id="path20862" />
  <path
     fill-rule="nonzero"
     fill="#000000"
     fill-opacity="1"
     d="m 1521.615,163.53756 c 0.2539,-0.742 3.7071,-6.597 4.1094,-10.191 l -0.4414,-1.699 -1.7383,-0.563 c -1.6679,-0.07 -4.4726,1.348 -4.5664,1.629 -1.543,0.836 5.3828,-7.246 5.8633,-11.043 l -0.3984,-1.703 -1.4532,-0.01 c -2.1914,1.145 -4.3789,2.285 -6.5703,3.426 -0.5742,-0.312 4.7188,-6.691 4.2227,-9.418 l -0.3555,-1.371 c -0.8906,-0.344 -1.7773,-0.691 -2.6641,-1.039 -0.3437,-0.707 0.7852,-2.219 1.7422,-3.82 0.3672,-1.125 0.3711,-2.047 -0.6679,-2.375 -2.6524,-1.231 -8.5547,4.918 -8.7969,3.621 -2.6328,-0.282 6.207,-8.211 7.8281,-14.039 -0.1406,-1.547 -2.1758,-1.578 -3.125,-1.692 -0.4336,-1.437 -0.8633,-2.875 -1.2969,-4.312 -0.4531,-0.668 -1.3046,-1.063 -2.1523,-0.899 -1.5195,1.52 -3.043,3.043 -4.5664,4.567 -1.2656,0.379 -2.6445,-0.496 -3.3203,1.172 -0.5625,1.16 -1.6797,6.437 -1.2383,10.277 0.3008,2.586 1.1289,3.363 1.793,4.477 0.3672,1.628 0.1172,6.562 -0.1641,7.75 -0.5859,2.144 -3.4922,1.992 -6.8633,5.578 -1.1601,1.281 -1.6562,2.156 -1.6875,3.332 0.6563,2.957 3.7852,3.836 4.6133,5.773 0.3164,0.852 -0.4531,3.371 1.5977,4.258 2.9062,1.187 9.9492,-5.5 10.3632,-3.16 0.6563,1.914 -3.289,4.25 -3.6601,5.957 -0.168,0.644 -0.5195,3.164 0.016,4.32 0.4883,1.055 1.7031,2.176 4.1445,2.785 2.5704,0.641 5.6094,0.512 7.0157,0.227 1.9687,-0.403 2.1484,-1.039 2.4179,-1.813 m -8.2426,-12.82 -0.5273,0.527 -0.5273,-0.527 0.5273,-0.527 0.5273,0.527 m 2,-1 -0.5273,0.527 -0.5273,-0.527 0.5273,-0.527 0.5273,0.527 m 2,4 -0.5273,0.527 -0.5273,-0.527 0.5273,-0.527 0.5273,0.527"
     id="path20863" />
  <path
     fill-rule="nonzero"
     fill="#000000"
     fill-opacity="1"
     d="m 1501.2439,74.487562 c -2.0312,2.511 -4.2461,6.421001 -5.875,10.937001 -0.6445,1.793 -1.2421,3.929999 -1.2578,6.16 -0.012,1.473 0.2149,2.711 0.7305,3.317 0.957,1.011 2.6445,-0.668001 3.9961,-2.301001 1.6328,-2.149 3.1758,-6.035 4.0742,-8.077999 0.6836,-1.551001 1.8633,-4.532001 1.6836,-8.032001 -0.1016,-1.984 -0.4883,-2.757 -1.3359,-3.066 -0.8321,-0.301 -1.4532,0.367 -2.0157,1.063"
     id="path20864" />
  <path
     fill-rule="nonzero"
     fill="#000000"
     fill-opacity="1"
     d="m 1468.533,80.936563 c -1.6523,0.183 -4.5195,2.511 -5.543,4.164 -0.6289,1.015 -1.0156,2.332 -1.0351,3.89 -0.02,1.653 0.289,2.563 1.0976,3.008 2.4805,-0.332 5.7735,0.391 7.711,-1.492 0.9843,-1.012 2.4375,-3.211 2.6601,-4.715 0.25,-1.683 -0.6523,-2.949 -1.9804,-3.937 -0.8399,-0.625 -1.8008,-1.043 -2.9102,-0.918"
     id="path20865" />
  <path
     fill-rule="nonzero"
     fill="#000000"
     fill-opacity="1"
     d="m 1444.9353,158.88956 c 3.1055,-1.125 6.211,-2.25 9.3165,-3.375 1.9492,-0.317 4.0703,0.09 6.4609,1.351 l 2.3242,-0.98 1.582,-2.777 0.1172,-3.711 c -1.3086,-4.403 -2.9375,-5.535 -3.7695,-6.938 -0.7266,-0.574 -1.6289,-0.562 -2.75,-0.34 -2.9727,0.508 -8.5625,4.399 -9.5391,3.321 3.4414,-3.582 6.8828,-7.164 10.3282,-10.75 0.75,-1.051 1.0781,-2.618 -0.1172,-3.383 -1.2969,-0.762 -3.6328,-0.285 -4.8125,0.344 -2.625,1.402 -6.9453,5.664 -11.1758,9.113 0.4844,-0.06 -2.543,1.594 -2.043,0.328 -0.051,-2.906 -0.1054,-5.813 -0.1601,-8.719 -0.5118,-3.492 -2.1993,-3.367 -1.6016,-5.547 5.0664,-12.289 10.582,-21.148 14.3438,-27.741998 0.1835,-0.722 0.414,-2.551 0.2578,-3.742 -0.1758,-1.355 -0.6485,-2.945 -1.8008,-3.448999 -1.3633,-0.59 -2.7227,0.04 -4.3047,1.273 -1.2109,0.941999 -2.9258,2.992 -3.5469,3.945999 -0.7383,1.136 -1.7226,3.221998 -2.1719,4.807998 -0.5351,3.656 -1.0703,7.313 -1.6093,10.969 -3.2383,5.113 -5.5938,8.598 -8.5742,12.219 -0.793,1.414 -1.6329,4.55 -2.0352,6.019 -0.582,2.141 -1.1328,4.078 -0.8945,7.633 1.2539,4.121 1.0312,7.781 1.4882,18.422 l 1.1758,2.558 2.1094,0.86 c 3.1172,0.387 8.9063,-1.149 11.4023,-1.711 m 10.4375,-11.172 -0.5273,0.527 -0.5273,-0.527 0.5273,-0.527 0.5273,0.527 m 1,-1 -0.5273,0.527 -0.5273,-0.527 0.5273,-0.527 0.5273,0.527"
     id="path20866" />
  <path
     fill-rule="nonzero"
     fill="#000000"
     fill-opacity="1"
     d="m 1529.9275,154.13156 c -1.9062,0.398 -2.8867,1.234 -3.1132,2.906 -0.1915,1.477 0.1093,5.278 1.4296,7.762 0.9219,1.738 2.0938,2.602 3.6641,2.738 1.582,0.133 3.4805,-0.539 4.9805,-1.804 1.7734,-1.496 2.4375,-2.95 2.75,-4.817 0.3789,-2.258 -0.6875,-3.707 -1.2188,-4.496 -0.7148,-1.062 -1.5234,-1.879 -3.1758,-2.297 -1.4531,-0.371 -3.6171,-0.402 -5.3164,0"
     id="path20867" />
  <path
     fill-rule="nonzero"
     fill="#000000"
     fill-opacity="1"
     d="m 1510.6463,164.35456 c 9.9531,-2.59 10.4883,-0.66 14.6601,-2.571 1.3555,-0.742 3.7032,-2.261 4.7461,-4.609 1.1094,-2.496 0.4805,-3.988 0.3672,-4.816 0.5235,-0.387 1.9453,-1.758 2.086,-2.973 0.1289,-1.117 -3.1993,-5.695 -4.4297,-7.172 -1.6094,-1.226 -3.2149,-2.457 -4.8203,-3.687 0.1132,-3.43 0.2304,-6.864 0.3437,-10.293 -0.4141,-2.981 -3.0469,-2.645 -3.1797,-4.032 0.3906,-0.558 1.2696,-2.55 1.25,-5.054 -0.02,-3.133 -1.3203,-4.875 -1.9297,-6.098 0.6758,-0.973 2.6446,-4.234 1.2539,-7.219 -0.3632,-1.054 -1.6328,-2.699 -2.5312,-3.453 -1.0469,-0.879 -2.3008,-1.449 -3.707,-1.531 -1.2383,-0.07 -2.3164,0.41 -3.0704,0.984 -0.539,0.414 -1.3476,1.535 -1.8515,2.297 -2.1797,3.317 -6.5781,12.582 -6.8594,15.531 0.4141,1.114 0.832,2.223 1.25,3.336 -0.8594,2.274 -1.7187,4.543 -2.5781,6.817 l 0.6836,0.855 c 1.6562,0.192 5.5195,-2.379 6.8203,-1.73 l 0.4375,1.125 c -2.2539,3.023 -4.5078,6.051 -6.7656,9.074 -0.5625,1.25 -0.8789,2.465 -0.4063,3.445 0.6485,1.172 2.4297,1.02 3.4102,0.211 3.9648,-4.621 7.9297,-9.238 11.8945,-13.855 0.6211,0.136 0.1211,2.113 -1.1016,4.109 -1.1718,1.906 -3.5859,5.289 -6.9531,9.117 -1.4101,2.153 -1.9883,3.559 -1.5625,4.567 0.4141,0.996 1.7305,0.562 2.5274,0.125 2.3437,-1.289 7.2226,-6.895 7.2148,-7.016 -0.9844,-0.07 5.1914,5.43 6.1016,5.953 1.625,2.227 0.2109,9.379 -0.4375,10.41 -0.1133,0.832 0.1445,0.981 -2.043,1.461 -5.1484,1.125 -13.5352,2.973 -13.082,2.879 -2.0039,-0.101 -4.0078,-0.203 -6.0118,-0.304 0.078,-0.583 -1.5585,2.238 -0.4257,2.535 l 2.0625,1.242 c 1.8047,0.586 4.5429,0.531 6.6367,0.34 m -3.2735,-42.637 -0.5273,0.527 -0.5273,-0.527 0.5273,-0.527 0.5273,0.527 m 6,-7 -0.5273,0.527 -0.5273,-0.527 0.5273,-0.527 0.5273,0.527 m 1,-1 -0.5273,0.527 -0.5273,-0.527 0.5273,-0.527 0.5273,0.527 m 1,-2 -0.5273,0.527 -0.5273,-0.527 0.5273,-0.527 0.5273,0.527 m 1,-1 -0.5273,0.527 -0.5273,-0.527 0.5273,-0.527 0.5273,0.527 m -0.2031,12.316 c -0.5625,0.625 -1.289,1.036 -1.7461,0.774 -0.7226,-0.414 -0.6679,-1.172 -0.1953,-1.985 0.7344,-1.253 2.5156,-2.082 3.1328,-2.046 0.7891,0.05 0.043,1.878 -1.1914,3.257"
     id="path20868" />
  <path
     fill-rule="nonzero"
     fill="#000000"
     fill-opacity="1"
     d="m 1501.8689,87.358562 c 0.1329,1.086 0.461,1.929001 1.2305,2.527 0.8477,0.656001 1.7227,0.766001 3.1719,0.848 2.6055,-0.206999 4.8476,0.570001 6.7969,-0.835999 l 0.6914,-1.985 -0.961,-2.758001 -2.582,-2.675 c -1.9883,-1.426 -4.1836,-1.585999 -5.2383,-1.41 -1.0273,0.171 -1.875,1.16 -2.207,1.691 -0.707,1.133001 -1.1055,2.953 -0.9024,4.598"
     id="path20869" />
  <path
     fill-rule="nonzero"
     fill="#000000"
     fill-opacity="1"
     d="m 1473.6228,123.27256 0.9297,0.07 0.5977,-0.555 -0.082,-0.621 -0.9297,-0.07 -0.5977,0.555 0.082,0.621"
     id="path20870" />
  <path
     fill-rule="nonzero"
     fill="#000000"
     fill-opacity="1"
     d="m 1537.7908,157.35056 1.4297,-3.285 c 0,-4.352 -2.7969,-5.707 -3.207,-9.575 -1.2422,-6.925 -1.9727,-13.98 -3.5274,-17.347 -2.8086,-3.246 -4.9648,-8.137 -7.4687,-11.996 -1.3633,-2.469 -1.1797,-19.468997 -3.7149,-26.265998 l -1.6875,-2.246 c -2.8828,-1.702999 -3.9062,0.531001 -4.6836,-0.418 -1.039,-1.086 -2.5976,-3.023 -4.4843,-3.191 -0.9063,0.128 -1.5469,0.718 -2.0352,2.386 -0.4609,1.559 -0.4805,3.121 0.1016,4.481 1.6875,1.543 3.3789,3.086 5.0664,4.629 0.6094,1.066 1.1406,2.957 1.25,6.694998 0.3125,10.516 -0.7422,20.453 -1.0469,28.348 -0.1719,4.39 -0.7695,8.289 -1.5039,10.097 -0.3711,0.922 -0.8203,1.321 -1.1563,0.575 -0.8632,-1.926 -0.01,-11.11 0.4649,-14.84 -0.1563,-2.434 -2.582,-6.996 -4.2305,-12.418 -0.6719,-2.207 -0.9883,-2.719 -2.4765,-2.989 -1.0508,-0.187 -2.668,0.305 -3.6329,0.883 -1.9648,1.172 -3.0507,3.641 -3.8437,5.633 -0.9063,3.93 -1.8125,7.863 -2.7188,11.793 -1.3906,1.074 -1.8085,-5.816 -4.625,-5.965 l -1.4726,0.08 c -0.8008,0.36 -1.4883,1.5 -1.8828,2.977 -0.1719,8.801 -2.2227,19.976 -2.3516,29.164 0.5039,1.918 1.1797,2.535 2.0391,2.758 4.3867,-0.692 8.7695,-1.383 13.1562,-2.075 3.2539,0.477 6.5078,0.957 9.7578,1.434 2.9649,0.566 3.2383,-3.48 4.7813,-3.355 1.2344,1.382 2.4726,2.765 3.707,4.148 2.2149,0.426 2.5039,0.105 11.3633,2.598 l 4.9531,-0.477 3.6797,-2.238 m -40.418,-23.633 -0.5273,0.527 -0.5273,-0.527 0.5273,-0.527 0.5273,0.527 m 0.4063,17.922 -0.1406,-0.195 0.098,-0.379 0.1758,-0.27 0.1406,0.195 -0.098,0.379 -0.1758,0.27 m 8.9102,-3.328 c -0.4844,1.152 -1.6954,1.859 -2.8633,1.347 -1.1446,-0.504 -1.1914,-1.855 -0.8672,-3.148 0.4922,-1.957 2.0781,-5.668 2.8281,-5.313 0.8633,0.254 1.7149,5.364 0.9024,7.114 m 22.9882,8.769 c -2.4843,-0.883 -4.207,-1.562 -8.4726,-3.543 -3.6133,-2.207 -4.8906,-3.832 -6.0625,-5.758 -0.3438,-1.378 0.1679,-4.089 0.8437,-6.238 1.3047,-2.269 2.6094,-4.543 3.9141,-6.816 1.4258,-4.891 1.8476,-12.813 3.0859,-13.438 0.6875,-0.383 2,0.602 3.0625,4.305 0.7071,4.559 1.418,9.117 2.125,13.672 3.6797,5.348 4.7852,11.457 6.6992,15.156 0.086,1.043 -0.1601,2.004 -1.5117,2.684 -1.1914,0.593 -2.5117,0.394 -3.6836,-0.02"
     id="path20871" />
  <path
     fill-rule="nonzero"
     fill="#000000"
     fill-opacity="1"
     d="m 1454.0291,132.34256 1.3008,-3.23 c 0.9336,-3.411 1.3047,-6.075 1.3554,-13.032 0.047,-6.781 -0.7343,-17.085998 -1.3984,-21.624998 -0.6562,-4.484 -0.9766,-5.336 -1.9766,-6.09 -0.6171,-0.464 -1.2343,0.457 -1.5859,1.102 -0.5312,0.98 -1.1055,2.461 -1.4531,4.238 -0.2344,1.199 -0.3164,2.332 0.1172,3.074 1.4414,0.614 2.9765,0.649 2.5859,1.938 -0.9922,1.429998 -1.9844,2.862998 -2.9766,4.292998 -0.5703,2 -0.7617,8.637 -0.9257,14.129 -0.086,5.988 1.6445,14.324 2.9023,16.062 0.2031,0.141 1.4414,0.157 2.0547,-0.859"
     id="path20872" />
  <path
     fill-rule="nonzero"
     fill="#000000"
     fill-opacity="1"
     d="m 1453.8963,157.62356 c 2.3437,0 3.7461,-0.261 5.0273,-1.203 1.168,-0.863 2.1172,-2.461 2.2617,-3.785 l -0.3476,-1.543 c -1.293,-1.371 -6.3672,1.227 -10.3945,0.465 -8.9414,-2.524 -15.6836,-3.317 -17.4297,-5.199 -0.6602,-2.633 1.6758,-9.887 2.3437,-12.657 0.5938,-1.957 1.8906,5.231 3.2774,2.844 2.207,-5.019 3.5351,-8.07 5.3632,-12.113 1.8047,-4.703 3.3047,-9.512 4.9805,-16.059 0.6797,-1.863 1.4688,-2.855 2.7031,-4.461 0.8438,-1.82 1.3438,-5.042998 1.6797,-8.124997 0.3907,-2.847 0.2696,-4.933001 -0.6328,-4.441001 -5.418,10.382998 -8.4922,29.725998 -12.8633,36.940998 -0.7187,2.059 -3.3632,0.184 -4.6601,1.168 -0.6328,1.164 -1.4375,2.883 -2.6328,2.969 -1.0196,-0.344 -2.0391,-0.687 -3.0586,-1.031 -1.0938,0.375 -1.4961,1.019 -2.0899,3.176 -0.5898,2.144 -0.6328,3.183 -0.5351,6.082 0.1054,3.203 0.7265,6.57 1.2383,7.769 0.4375,1.02 1.4062,3.594 3.5312,5.324 l 2.2617,1.184 c 10.9961,0.73 10.7031,1.184 19.9766,2.695"
     id="path20873" />
  <path
     fill-rule="nonzero"
     fill="#000000"
     fill-opacity="1"
     d="m 1471.0369,150.39756 c -0.6211,-1.321 -2.2422,-1.61 -3.7891,-1.629 -7.9531,1.277 -15.0898,4.66 -22.9375,6.265 -3.7148,0.696 -6.6992,1.067 -7.3359,0.258 -1.0976,-0.254 2.7617,-9.961 1.207,-15.953 -0.4492,-1.117 -1.3906,-1.019 -2.0195,-0.48 -1.1055,2.703 -2.2148,5.406 -3.3203,8.109 -0.5078,0.227 -1.0898,-0.836 -1.1641,-3.34 -0.1015,-3.223 0.5508,-13.914 1.25,-16.742 0.7852,-1.488 1.5664,-2.981 2.3516,-4.473 -0.1836,-0.297 -1.1719,-0.519 -2.2461,-0.195 -0.9297,0.281 -2.2969,1.113 -2.8828,2.039 -0.8203,1.297 -1.7734,17.469 -1.8906,26.781 -0.035,2.758 0.3984,4.028 1.2578,4.711 1.7226,1.074 2.8633,0.531 3.3633,0.145 1.4101,0.679 7.6718,4.242 11.0507,5.129 1.7696,0.465 3.1446,0.832 6.2149,0.554 6.6328,-2.867 11.5234,-2.441 19.6758,-6.867 1.2148,-1.305 1.5859,-3.523 1.2148,-4.312"
     id="path20874" />
  <path
     fill-rule="nonzero"
     fill="#000000"
     fill-opacity="1"
     d="m 626.90406,198.87356 c -4.88281,-1.371 -11.21875,-2.277 -16.04297,-2.426 -31.05859,-0.964 -62.6914,-2.031 -94.10156,-1.113 -2.8789,0.77 -4.92187,1.461 -8.39453,1.231 -15.47266,-1.036 -39.54297,-2.02 -59.92578,-2.977 -7.36719,-0.348 -15.49219,1.047 -20.47656,1.527 -6.69141,0.356 -12.33985,-0.312 -19.70313,-1.589 -1.95703,0.539 -3.91797,1.074 -5.8789,1.613 -5.375,0.34 -9.41016,-0.797 -13.51954,-1.426 -29.76171,0 -59.52343,0 -89.28125,0 -17.18359,1 -35.54296,2.996 -53.99609,4.149 -17.17187,1.277 -32.90234,-1.809 -47.86328,-0.657 -0.33594,0.508 2.64844,3.028 5.10547,4.117 4.12109,1.829 11.3125,3.157 14.09765,3.336 10.88282,0.692 22.51954,0.68 33.41407,0.121 7.62109,-0.945 15.24218,-1.89 22.86328,-2.839 26,0.398 52.6289,-0.168 77.95703,-1.426 2.35156,0.476 4.70312,0.953 7.05859,1.426 76.62891,-1.075 149.35938,1.75 225.23828,1.425 13.8125,3.575 29.3086,-0.839 41.54688,2.668 1.63672,-0.1 3.29687,-0.664 4.13281,-1.742 0.48438,-0.629 0.71485,-1.711 0.71875,-2.445 0.0117,-1.82 -0.88672,-2.395 -2.94922,-2.973"
     id="path21129" />
  <path
     fill-rule="nonzero"
     fill="#000000"
     fill-opacity="1"
     d="m 451.25172,199.86256 c -9.60547,-1.157 -20.38281,-0.458 -30.45313,-0.454 -6.05078,0.36 -14.70703,2.266 -22.63281,2.711 -7.77344,0.434 -16.23437,0.563 -23.99219,-0.09 -5.1875,-0.438 -8.86328,-2.043 -12.88281,-3.989 -1.53515,-0.23 -2.88281,0.481 -3.01953,1.809 -0.0273,2.18 2.36719,4.398 4.30078,4.789 7.6211,1.762 16.83203,3.859 24.02735,4.316 6.95703,0.446 16.60546,-0.414 23.42578,-1.484 5.40234,-0.848 10.85156,-2.605 14.36718,-2.82 6.19141,-0.383 13.31641,0.457 18.04297,1.008 3.375,-0.497 9.6836,-0.137 10.4336,-2.715 0.17968,-1.145 -0.55078,-2.5 -1.61719,-3.078"
     id="path21130" />
  <path
     fill-rule="nonzero"
     fill="#000000"
     fill-opacity="1"
     d="m 479.88063,194.98756 c -17.69922,-0.735 -36.82813,-0.02 -54.45704,1.519 -8.99609,0.789 -20.4375,3.934 -27.46875,4.32 -12.88281,0.715 -24.93359,-0.871 -38.16406,-1.492 -3.77344,-0.121 -11.19922,0.535 -14.4375,1.547 -1.32031,0.41 -2.57422,1.711 -2.04687,3.211 0.375,1.07 1.24218,1.344 2.2539,1.406 4.00391,-0.754 7.5586,-0.918 11.32032,-0.703 2.35937,0.473 4.71484,0.945 7.07031,1.418 23.98828,1.051 47.97265,-2.117 71.95703,-1.566 5.96875,-0.36 14.625,-2.25 22.62891,-2.715 7.60546,-0.02 15.35546,0.199 22.86718,-0.246 1.73828,-0.496 3.10157,-2.5 2.66407,-4.461 -0.39844,-1.797 -2.30079,-2.156 -4.1875,-2.238"
     id="path21131" />
  <path
     fill-rule="nonzero"
     fill="#000000"
     fill-opacity="1"
     d="m 1022.0916,292.01456 c -0.7031,-1.035 -2.0781,-2.094 -3.4453,-3.031 -3.5938,-2.461 -7.2735,-4.016 -10.875,-5.688 -4.4258,-4.43 -10.38677,-7.957 -16.73052,-12.269 -1.80469,-0.836 -4.46875,-0.981 -5.4414,0.261 -0.83594,1.067 -0.27344,2.508 0.83203,3.403 5.39843,4.363 18.46879,11.39 24.14459,16.707 1.2148,1.882 2.4297,3.765 3.6484,5.648 2.1328,1.043 6.3242,0.469 8.0273,-1.445 0.8008,-1.129 0.5508,-2.539 -0.1601,-3.586"
     id="path21132" />
  <path
     fill-rule="nonzero"
     fill="#000000"
     fill-opacity="1"
     d="m 1096.4393,262.62756 c -1.4258,-0.652 -3.9063,-0.609 -5.7032,-0.48 -15.4023,1.105 -38.125,4.824 -53.6914,5.675 -16.8828,0.329 -33.3555,-0.734 -50.35157,0.641 -0.63282,0.578 -1.02344,1.723 -0.75782,2.484 7.6836,2.868 16.94929,1.204 22.52349,4.52 3.2109,0.645 7.8086,0.41 11.3242,0.254 13.0469,-0.586 28.0742,-3.606 38.7266,-4.227 8.5898,0 17.5664,0.203 25.9023,-0.156 1.7422,-0.355 10.0234,-1.562 12.1914,-3.254 1.0547,-0.82 1.6485,-2.465 1.3555,-3.73 -0.1797,-0.778 -0.7656,-1.387 -1.5195,-1.727"
     id="path21133" />
  <path
     fill-rule="nonzero"
     fill="#000000"
     fill-opacity="1"
     d="m 1104.4353,266.76056 c -8.9023,5.539 -13.8671,10.887 -22.1093,17.809 -4.2657,3.582 -8.4453,8.293 -11.0742,11.402 -1.004,1.187 -1.5625,2.523 -0.7071,3.844 0.5313,0.82 1.5313,1.367 2.4961,1.457 1.1485,0.105 1.9297,-0.254 2.9844,-1.004 11.7851,-12.742 23.8984,-22.512 29.3906,-29.715 1.5469,-0.852 3.0938,-1.703 4.6406,-2.559 0.4219,-0.632 0.4766,-1.597 0.2032,-2.136 -0.5899,-1.184 -3.4805,-0.555 -5.8243,0.902"
     id="path21134" />
  <path
     fill-rule="nonzero"
     fill="#000000"
     fill-opacity="1"
     d="m 1039.158,247.17856 c 1.1914,-0.754 1.5938,-1.789 1.5977,-3.051 0.4062,-2.156 -1.8711,-2.648 -3.1563,-3.887 0.3906,-1.8 0.9024,-3.988 -0.5273,-6.14 -2.2305,-2.403 -4.461,-4.809 -6.6914,-7.211 -0.2852,-4.117 -0.5664,-8.235 -0.8516,-12.352 -0.3164,-0.824 -0.7852,-1.242 -1.6406,-1.234 -1.3086,0.01 -1.7344,1.137 -1.8516,2.547 -0.3242,3.894 -0.6719,9.058 0.027,12.812 1.8671,2.672 3.7382,5.34 5.6093,8.012 -2.2148,0.531 -4.4297,1.063 -6.6445,1.594 -0.7422,0.59 -1.2422,1.472 -1.2852,2.551 -0.07,1.707 1.0625,2.777 2.4844,3.191 3.2188,0.324 6.4336,0.648 9.6524,0.973 -2.6094,0.546 -5.2149,1.097 -7.8243,1.648 -0.4101,0.59 -0.4023,1.578 0.055,2.141 0.4961,0.613 1.4141,0.781 2.3555,0.785 2.6172,0.01 6.582,-1.039 8.6914,-2.379"
     id="path21135" />
  <path
     fill-rule="nonzero"
     fill="#000000"
     fill-opacity="1"
     d="m 1073.6111,248.11956 c 1.4532,-0.699 2.336,-1.527 2.6524,-3.109 0.3086,-1.516 -0.094,-2.645 -0.711,-3.063 -2.664,-0.953 -5.3281,-1.902 -7.9882,-2.851 1.996,-0.984 3.9921,-1.965 5.9921,-2.949 0.7461,-0.61 1.0938,-1.153 1,-2.231 -0.414,-4.5 -7.3242,-2.336 -7.5468,-6.933 -0.3125,-1.496 -0.336,-3.645 0.023,-5.118 0.9805,-1.515 1.957,-3.027 2.9375,-4.543 0.2227,-0.738 -0.082,-1.191 -1.0156,-1.238 -1.3867,-0.07 -2.9531,1.012 -4.2227,2.41 -1.2539,1.379 -2.2656,2.93 -2.75,4.344 -0.7187,2.102 -0.7383,5.199 -0.2969,7.227 0.375,1.699 2.0547,3.621 2.6954,3.902 -0.4961,1.633 -6.2305,1.437 -6.6407,5.449 -0.3593,1.61 0.094,2.844 1.2383,3.567 1.8164,0.652 3.6289,1.3 5.4414,1.949 -1.6367,0.582 -3.2773,1.168 -4.914,1.75 -0.6016,0.691 -0.793,2.605 -0.4141,3.875 0.2891,0.961 0.6523,1.351 1.6211,1.551 4.3633,-0.02 8.7891,-2.551 12.8984,-3.989"
     id="path21136" />
  <path
     fill-rule="nonzero"
     fill="#000000"
     fill-opacity="1"
     d="m 1063.3611,300.17456 c -0.4843,-0.598 -1.207,-0.715 -2.0781,-0.754 -14.2969,0.07 -28.8477,-1.328 -42.9922,-1.527 -0.4922,0.168 -0.7305,0.394 -0.8516,1.015 -0.1718,0.895 0.1836,1.571 0.8907,1.836 2.6562,1.008 6.5234,0.879 9.1719,1.028 11.5585,-0.258 22.539,0.757 34.4726,1.355 0.9883,-0.137 1.668,-0.773 1.7813,-1.562 0.078,-0.52 -0.09,-1.012 -0.3946,-1.391"
     id="path21137" />
  <path
     fill-rule="nonzero"
     fill="#000000"
     fill-opacity="1"
     d="m 904.49391,304.90456 c -3.60547,-5.816 -10.65625,-14.546 -16.08203,-20.542 -3.6836,-4.067 -7.5586,-9.559 -11.14454,-12.129 -1.67578,-1.204 -4.12109,-2.032 -5.66796,-0.989 -1.30079,0.875 -1.32032,2.328 -0.40235,3.516 2.6875,2.109 6.26563,5.934 8.11719,8.176 0.64062,1.996 1.27734,3.988 1.91797,5.984 2.91406,4.07 7.70312,11.453 12.41406,16.219 0.79297,0.801 3.51953,3.449 5.28906,4.191 1.71875,0.719 4.35547,-0.01 5.39844,-1.386 0.85156,-1.122 0.57031,-2.375 0.16016,-3.04"
     id="path21138" />
  <path
     fill-rule="nonzero"
     fill="#000000"
     fill-opacity="1"
     d="m 952.15406,259.38156 c -0.8789,-0.871 -3.4414,-2.047 -4.9375,-2.355 -3.23437,-0.664 -7.94922,-0.36 -11.48047,-0.161 -17.98437,2.731 -38.05468,9.465 -57.57031,11.039 -1.33203,0.411 -2.49219,1.633 -2.09765,2.645 4.5625,1.766 13.25,0.625 19.0625,0.777 12.03515,-2.281 30.23437,-7.175 42.29296,-9.047 4.40235,-1.246 9.10938,1.012 13.7461,2.176 1.27344,-0.191 1.74609,-1.449 1.71484,-2.961 -0.0234,-1.007 -0.28125,-1.668 -0.73047,-2.113"
     id="path21139" />
  <path
     fill-rule="nonzero"
     fill="#000000"
     fill-opacity="1"
     d="m 952.64234,261.40156 c -1.25,2.656 -2.5,5.312 -3.75,7.972 -5.05468,7.074 -10.33593,13.578 -17.39453,20.418 -4.07812,3.953 -7.5,7.34 -10.99609,10.004 -4.35547,2.809 -8.70703,5.613 -13.05859,8.418 -0.96485,1.168 -1.04297,5.395 0.0391,6.488 1.48437,1.352 4.71875,0.504 6.88672,-1.047 6.80859,-4.23 12.98437,-9.335 19.25781,-16.16 6.96875,-8.273 13.93359,-16.547 20.90234,-24.82 1.45703,-2.414 2.46094,-11.023 1.90625,-12.371 -0.26953,-0.649 -2.55078,-0.199 -3.79297,1.098"
     id="path21140" />
  <path
     fill-rule="nonzero"
     fill="#000000"
     fill-opacity="1"
     d="m 893.69313,255.98756 c 0.4414,-2.77 -5.41016,-2.415 -3.39844,-3.637 3,-1.11 8.11328,-3.317 11.83203,-6.375 1.58594,-1.305 2.55859,-3.324 2.66797,-4.863 0.082,-1.165 -0.44531,-2.309 -1.39453,-3.024 -2.75,-1.121 -5.4961,-2.246 -8.2461,-3.367 -0.082,-2.52 5.90625,-4.996 7.97266,-8.789 1.91016,-4.524 -0.79688,-6.926 -1.44922,-9.625 -1.95703,-2.602 -8.14453,-7.59 -12.20312,-9.633 -1.08594,-0.03 -1.8086,0.379 -2.30469,1.184 -0.51563,0.836 -0.41016,1.531 0.0195,2.254 2.32422,1.789 4.64453,3.574 6.96484,5.359 1.76563,1.73 4.67578,5.492 4.85157,7.476 -0.875,3.555 -7.14844,6.493 -9.41407,8.497 -0.44531,0.562 -0.68359,1.48 -0.70312,2.484 -0.0273,1.601 0.39453,3.043 1.60156,4.238 2.54688,1.266 5.09375,2.528 7.64063,3.793 0.57031,0.496 0.60156,0.836 0.008,1.594 -3.84766,4.105 -9.95313,4.148 -14.56641,5.937 -0.82812,0.598 -1.26172,1.25 -1.25781,2.344 0,1.488 1.15625,3.219 2.62109,4.438 1.96875,1.644 4.02344,1.871 6.02344,1.703 1.50391,-0.125 2.66016,-0.629 2.73438,-1.988"
     id="path21141" />
  <path
     fill-rule="nonzero"
     fill="#000000"
     fill-opacity="1"
     d="m 921.30641,216.15156 c -0.38282,0.867 -0.23438,2.074 0.17187,2.914 3.23047,2.086 7.36328,7.847 10.09766,11.293 -0.23438,0.05 -6.66406,6.859 -7.03125,9.121 -0.26563,1.644 -0.32031,4.066 0.48437,5.664 1.19532,1.379 2.39063,2.754 3.58203,4.129 -1.42187,1.343 -2.84375,2.691 -4.26562,4.035 0.16406,0.844 2.02734,1.484 3.41797,1.461 2.57812,-0.75 5.85547,-0.637 8.17187,-2.977 0.42188,-0.758 0.44141,-1.836 0.0469,-2.82 -1.96875,-2.285 -3.9375,-4.57 -5.90625,-6.856 1.25781,-3.921 6.78515,-8.875 6.49609,-13.648 -0.008,-0.04 -7.46484,-11.445 -10.30859,-13.559 -0.625,-0.464 -1.59766,-0.664 -2.62891,-0.453 -1.02734,0.215 -1.89844,0.723 -2.32812,1.696"
     id="path21142" />
  <path
     fill-rule="nonzero"
     fill="#000000"
     fill-opacity="1"
     d="m 1416.0799,186.96356 c -1.4883,1.621 -2.9805,3.242 -4.4688,4.863 -6.7031,5.977 -22.3554,17.996 -28.6406,22.36 -17.3125,9.672 -34.8164,25.621 -50.2461,33.195 -17.875,7.731 -41.7266,15.266 -60.2969,24.582 -10.4101,4.227 -20.3632,6.082 -33.2265,10.594 -15.5508,5.453 -45.543,17.207 -59.3789,21.504 -7.2774,2.054 -11.043,3.801 -20.5782,5.347 -21.5429,0.883 -81.164,8.934 -140.957,12.391 -35.83987,0.03 -3.5547,-0.402 -96.26174,0.48 -20.07032,-1.914 -40.14063,-3.828 -60.21094,-5.742 -36.58984,-4.996 -78.78125,-11.25 -115.38281,-17.492 -7.26563,-1.238 -14.23438,-2.504 -20.78125,-3.992 -11.98828,-3.504 -23.97657,-7.008 -35.96485,-10.512 -7.15234,-1.332 -14.30078,-2.664 -21.45312,-4 -14.33594,-3.262 -29.92578,-7.465 -45.2461,-11.484 -10.59765,-3.172 -14.76171,-6.324 -22.50781,-9.5 -3.5,-1.254 -7.66797,-2.469 -11.70312,-3.504 -12.51172,-2.172 -25.02344,-4.34 -37.53907,-6.508 -20.1289,-5.363 -40.25781,-10.726 -60.38281,-16.086 -11.44531,-6.191 -12.98828,-7.101 -19.41015,-9.351 -0.95313,-0.188 -2.19532,-0.297 -3.11329,0.363 -0.8164,0.594 -1.21875,1.789 -0.82812,2.769 0.41406,1.043 1.58984,1.735 2.80078,2.336 7.34766,3.661 10.03125,4.883 16.64844,7.235 20.58984,5.523 41.18359,11.051 61.77344,16.574 12.61328,2.168 25.22656,4.336 37.83984,6.504 16.72656,4.308 19.62109,8.648 34.1875,12.996 15.4375,4.043 30.93359,8.23 45.30078,11.5 7.15234,1.332 14.30469,2.668 21.45703,4 11.98047,3.5 23.96094,7.004 35.9375,10.504 5.57422,1.265 12.1875,2.437 18.01953,3.5 40.53125,6.164 81.0586,12.332 121.58985,18.496 17.1289,2.09 33.75,3.754 56.60937,6.269 33.57813,-0.171 67.15625,-0.347 100.73832,-0.519 29.7461,-2.41 59.4883,-4.82 89.2344,-7.231 20.7461,-2.031 34.5859,-3.441 52.8476,-6.511 8.418,-1.414 12.0117,-2.969 18.6016,-5.012 13.8984,-4.312 43.9453,-16.094 59.3906,-21.508 6.336,-1.832 12.6758,-3.664 19.0117,-5.496 26.9102,-11.062 52.9649,-20.422 79.4414,-32.289 16.461,-10.324 32.5782,-21.984 57.0625,-39.66 3.8282,-2.965 7.3985,-5.75 9.9649,-8.27 2.332,-2.293 12.7734,-12.363 13.082,-14.097 0.4297,-0.926 -1.832,-0.864 -2.9609,0.402"
     id="path21143" />
  <path
     fill-rule="nonzero"
     fill="#000000"
     fill-opacity="1"
     d="m 495.26734,232.23356 c -0.38671,-1.664 -1.0625,-2.305 -2.52343,-3.047 -4.92969,-2.504 -10.71094,-4.782 -15.3125,-5.68 -7.33985,-1.434 -13.21485,-2.801 -18.30078,-3.449 -2.34766,-0.324 -4.63672,-0.129 -5.55469,1.387 -0.5625,0.851 -0.44141,1.945 0.082,3.175 0.96484,2.274 3.875,5.875 6.44531,8.313 5.42188,4.808 11.39063,5.637 17.6211,10.355 1.84765,0.953 7.23828,1.871 11.10156,0.953 l 2.3125,-1.074 c 1.16015,-0.816 2.125,-2.387 2.74219,-3.73 1,-2.168 1.90234,-4.992 1.38671,-7.203 m -20.8945,-1.516 -0.52734,0.527 -0.52734,-0.527 0.52734,-0.527 0.52734,0.527 m 4,1 -0.52734,0.527 -0.52734,-0.527 0.52734,-0.527 0.52734,0.527 m 9,8 -0.52734,0.527 -0.52734,-0.527 0.52734,-0.527 0.52734,0.527 m -3.94531,-6.191 -1.30469,-0.457 -0.35156,-0.426 0.84375,-0.223 1.80469,0.08 1.68359,0.324 1.01563,0.438 0.0547,0.387 -0.79687,0.218 -1.35547,-0.03 -1.59375,-0.304 m 5.33203,2.839 -0.11719,-0.214 0.11719,-0.614 0.17188,-0.469 0.11718,0.215 -0.11718,0.614 -0.17188,0.468"
     id="path21144" />
  <rect
     style="fill:none;stroke:none;stroke-width:2.42782"
     id="rect39017"
     width="1873.6722"
     height="329.19138"
     x="0"
     y="0"
     ry="0"
     inkscape:export-filename="06.svg"
     inkscape:export-xdpi="96"
     inkscape:export-ydpi="96" />
</svg>
