<?xml version="1.0" encoding="UTF-8" standalone="no"?>
<svg
   viewBox="0 0 1874.3632 173.03906"
   width="1874.3632"
   height="173.03906"
   version="1.1"
   id="svg39003"
   sodipodi:docname="slides.svg"
   inkscape:version="1.3.2 (091e20ef0f, 2023-11-25)"
   xmlns:inkscape="http://www.inkscape.org/namespaces/inkscape"
   xmlns:sodipodi="http://sodipodi.sourceforge.net/DTD/sodipodi-0.dtd"
   xmlns="http://www.w3.org/2000/svg"
   xmlns:svg="http://www.w3.org/2000/svg">
  <defs
     id="defs39003" />
  <sodipodi:namedview
     id="namedview39003"
     pagecolor="#ffffff"
     bordercolor="#666666"
     borderopacity="1.0"
     inkscape:showpageshadow="2"
     inkscape:pageopacity="0.0"
     inkscape:pagecheckerboard="0"
     inkscape:deskcolor="#d1d1d1"
     inkscape:zoom="0.28988424"
     inkscape:cx="903.80904"
     inkscape:cy="64180.791"
     inkscape:window-width="1680"
     inkscape:window-height="1050"
     inkscape:window-x="1920"
     inkscape:window-y="0"
     inkscape:window-maximized="1"
     inkscape:current-layer="svg39003" />
  <path
     fill-rule="nonzero"
     fill="#000000"
     fill-opacity="1"
     d="m 923.75304,124.56237 c -10.46875,-0.98 -25.21485,-1.625 -24.3711,-3.355 0.57813,-4.524 8.70313,-11.754 13.58203,-20.418 2.1211,-5.202995 2.67578,-4.503995 3.54297,-11.449995 0.11328,-2.91 -0.0898,-5.031 -0.625,-6.8 -0.89062,-2.77 -1.98828,-3.348 -4.57031,-4.996 -1.64063,-0.789 -3.66797,-1.352 -6.01953,-1.114 -1.83594,0.188 -4.45313,1.246 -6.0586,2.285 -1.60156,1.032 -3.55078,2.872 -4.4414,4.633 l -0.91016,3.074 c -0.30078,2.473 0.32422,4.208 1.10547,5.305 -0.45312,-0.03 2.13281,1.336 1.94531,0.211 0.94141,-1.238 0.45703,-3.547 0.38672,-5.308 0.17969,-0.969 0.60938,-1.938 1.57031,-2.895 0.89844,-0.902 2.53125,-2.07 3.90625,-2.363 1.8125,-0.379 3.31641,-0.157 5.07813,1.316 l 2.22656,2.617 c 1.17188,1.957 1.30469,4.094 1.19531,5.192 -0.23046,2.347 -1.21484,4.558 -3.08984,7.871 -4.66406,8.159995 -10.11719,12.550995 -15.625,22.456995 -0.80078,2.211 -0.61328,3.828 0.10547,4.683 0.78125,0.93 2.21094,1.258 5.15234,1.571 3.10157,0.328 9.14063,0.773 15.4961,0.648 -3.03125,0.426 17.53906,-1.086 12.97656,-1.73 l -2.55859,-1.434"
     id="path34612" />
  <path
     fill-rule="nonzero"
     fill="#000000"
     fill-opacity="1"
     d="m 980.65538,92.687375 c -2.41406,-2.91 -5.0625,-5.285 -6.64844,-6.387 -1.50781,-1.05 -2.8125,-1.609 -4.80078,-1.929 -1.3125,-0.207 -2.89844,-0.254 -4.75781,0.05 -3.50781,0.574 -7.89453,1.511 -10.38672,2.824 -1.40625,0.742 -3.22266,2.148 -4.66406,3.824 -1.80469,2.098 -2.64453,3.523 -3.3125,6.234 -0.83985,3.425995 -0.59766,7.749995 -0.13672,10.601995 0.49219,3.039 1.5625,5.152 3.5,7.621 1.90234,2.426 3.97656,4.434 6.17187,5.301 2.76953,1.086 9.01953,1.297 14.3125,0.492 2.83203,-0.426 4.52735,-0.949 6.51563,-1.91 3.60156,-1.793 5.92969,-4.402 6.96094,-6.082 0.79296,-1.289 1.28515,-2.621 1.60546,-4.957 0.30469,-2.262 0.40625,-5.442 -0.11718,-7.903 -0.54297,-2.534995 -1.82813,-4.862995 -4.24219,-7.776995 m -5.83984,21.851995 c -1.36719,0.644 -3.38672,1.476 -6.25782,1.965 -2.80078,0.476 -6.03515,0.503 -8.24218,0.168 -2.27735,-0.348 -3.60547,-1 -4.78907,-1.954 -1.55078,-1.25 -2.90234,-3.144 -3.73828,-4.968 -0.64453,-1.403 -1.17969,-3.211 -1.26953,-5.661 -0.0664,-1.707 0.0586,-3.324 0.41797,-5.006995 0.52344,-2.473 1.46094,-4.325 2.58594,-5.782 0.90234,-1.164 1.35156,-1.644 3.10156,-2.488 1.95312,-0.941 5.80859,-1.746 7.62891,-1.879 3.4414,-0.09 4.85937,0.735 7.26562,2.047 1.375,0.922 3.39063,2.703 5.22266,4.996 1.80859,2.266 2.86328,4.316995 3.3164,5.999995 0.45703,1.711 0.38672,3.371 0.082,4.90301 -0.40234,1.98799 -1.10546,3.63199 -1.76171,4.781 -0.71485,1.246 -1.71094,2.004 -3.5625,2.879"
     id="path34613" />
  <path
     fill-rule="nonzero"
     fill="#000000"
     fill-opacity="1"
     d="m 871.15147,120.07837 c -3.66406,-7.532 -7.32812,-15.06299 -10.99218,-22.597995 -3.08594,-5.297 -4.30079,-13.418 -8.21875,-19.445 -0.83985,-0.574 -2.04297,-0.805 -2.9961,-0.184 -4.8164,11.91 -7.80078,18.578 -11.15625,26.124995 -2.25781,5.88301 -5.37109,11.77801 -4.83203,15.973 0.41797,0.555 1.34375,0.883 2.00781,0.765 0.71485,-0.125 1.11328,-0.69899 1.45313,-1.35499 4.61719,-9.44501 9.07031,-21.527005 14.01953,-29.859005 5.73828,11.100995 11.58594,23.921005 15.43359,32.656005 0.64063,1.16 1.26172,2 2.4961,2.242 l 1.54687,-0.18701 c 1.40235,-0.81699 1.73438,-2.926 1.23828,-4.133"
     id="path34614" />
  <path
     fill-rule="nonzero"
     fill="#000000"
     fill-opacity="1"
     d="m 873.42882,97.316375 c -2.16016,-0.574 -11.26563,-0.332 -24.23438,-0.242 -9.7539,0.06 -17.79297,0.156 -22.13672,0.715 -2.86718,0.371 -4.95312,1.113 -4.26172,1.867 1.10938,1.214995 3.37891,1.522995 10.08594,1.929995 17.67188,1.074 30.95703,1.835 38.22266,1.378 2.02344,-0.125 2.90625,-0.515 3.52344,-1.128 0.52734,-0.524 0.85156,-1.559 0.71484,-2.417995 -0.13672,-0.852 -0.60547,-1.754 -1.91406,-2.102"
     id="path34615" />
  <path
     fill-rule="nonzero"
     fill="#000000"
     fill-opacity="1"
     d="m 873.99522,106.30438 c -6.44922,-0.304 -38.09765,-0.48 -44.13672,0.223 l -3.3789,0.973 -0.0937,1.21099 c 1.22656,0.843 3.78125,1.343 11.82422,1.765 14.8789,0.78501 30.98437,0.949 36.8789,0.14101 -0.77734,0.60099 4.76172,-2.254 3.38672,-2.55101 -0.1289,-1.125 -1.58594,-1.625 -4.48047,-1.762"
     id="path34616" />
  <path
     fill-rule="nonzero"
     fill="#000000"
     fill-opacity="1"
     d="m 965.95225,52.718375 c -20.76171,-0.687 -37.53125,-2.175 -59.32812,-3.691 -19.44922,0.207 -20.76953,-0.711 -53.19531,1.152 0.60156,-0.472 -4.14063,1.735 -2.625,1.961 l 0.38281,1.246 c 18.32031,0.172 36.64453,0.344 54.96484,0.52 11.04297,0.301 27.46485,2.027 36.10547,3.515 h 26.35938 l 0.47265,-1.761 c 0.72266,0.648 -1.43359,-3.266 -3.13672,-2.942"
     id="path34617" />
  <path
     fill-rule="nonzero"
     fill="#000000"
     fill-opacity="1"
     d="m 876.7335,41.707375 c -4.99609,-0.766 -6.14062,-1.528 -10.35546,-2.696 -7.20313,1.903 -12.95704,6.293 -18.10547,9.653 -1.0625,0.629 -2.3711,1.422 -2.51953,2.793 -0.10157,0.91 0.1914,1.679 1.61328,2.304 6.65625,1.899 26.30078,3.289 29.10547,4.114 -0.58204,0.57 3.1914,-1.246 2.61328,-2.457 0.35937,-1.586 0.36718,-5.301 0.0156,-7.825 -0.44922,-3.211 -1.0664,-4.859 -2.36719,-5.886 m -6.76951,0.277 -0.52734,0.527 -0.52734,-0.527 0.52734,-0.527 0.52734,0.527 m 2.60938,9.461 c -3.0625,0.832 -10.11328,-1.035 -8.51953,-1.516 0.47656,-0.742 6.96875,-3.222 8.15625,-3.047 0.66015,0.1 1.1875,0.727 1.38672,1.778 0.26171,1.359 0.19921,2.258 -1.02344,2.785"
     id="path34618" />
  <path
     fill-rule="nonzero"
     fill="#000000"
     fill-opacity="1"
     d="m 1001.4014,148.46437 -1.88665,-1.234 c -1.51171,-0.60499 -4.77734,-1.062 -5.96875,-1.148 -31.76171,-0.17999 -63.52734,-0.356 -95.28906,-0.53599 -12,1 -24,2 -36,3 h -36.64062 c -6.4961,-1.82001 -18.71094,-1.582 -19.91797,-3.68701 -1,-0.82799 -1.61719,-1.80899 -2.04688,-4.16 -0.47656,-2.58599 -0.69922,-5.70699 -0.91406,-13.363 -0.28125,-10.08199 -0.29687,-28.636995 0.004,-38.874995 0.90625,-12.422 1.8125,-24.844 2.71875,-37.266 -0.0274,-7.059 0.125,-21.027 -0.74219,-25.414 l -0.91406,-1.817 -0.82813,0.707 c -1.73047,13.875 -3.33984,45.579 -4.69922,53.122 -0.29687,5.175 -0.54297,12.296 -0.6289,22.651995 -0.17969,21.844 0.46875,39.734 1.29297,43.523 0.58984,2.7 1.5039,4.03201 2.9375,5.243 1.30078,1.093 2.8164,1.617 4.99218,2 4.03125,0.71001 12.1836,2.16001 15.38672,2.21001 h 42.35938 c 12,-1 24,-2 36,-3 138.07419,0.333 34.98437,0.829 89.59765,0.67999 5.63672,0.07 9.13282,-0.10099 10.97264,-1.35499 l 0.2148,-1.28201"
     id="path34619" />
  <path
     fill-rule="nonzero"
     fill="#000000"
     fill-opacity="1"
     d="m 993.421,24.464375 c -20.72656,-2.496 -24.51562,-3.105 -36.44531,-4.66 -7.46875,-0.976 -19.41015,-2.121 -37.03515,-3.031 -13.76563,-0.715 -37.44141,-1.578 -43.75,-1.742 -24.02735,-0.01 -48.0586,-0.02 -72.08594,-0.03 -1.57031,-0.317 -3.14063,-0.633 -4.71094,-0.95 -1.02344,0.02 -2.02734,0.403 -2.19531,1.211 -0.13672,0.649 0.45312,1.895 1.6289,2.485 1.36329,0.683 3.50782,1.144 8.24219,1.429 40.71094,1.047 73.375,0.305 109.64453,2.461 15.89063,0.782 25.70703,1.649 33.89453,2.528 11.10547,1.48 22.21485,2.961 33.32032,4.445 2.82422,0.16 8.70703,0.281 11.73047,-0.03 3.59375,-0.371 5.89061,-1.278 5.60541,-1.942 -0.4844,-1.144 -3.17182,-1.543 -7.8437,-2.175"
     id="path34620" />
  <path
     fill-rule="nonzero"
     fill="#000000"
     fill-opacity="1"
     d="m 1006.9132,29.836375 c -1.0977,5.468 -2.7579,16.363 -2.9141,21.964 -1.8203,65.981005 -1.793,87.907005 -1.1953,92.308995 l 0.9101,2.738 1.2735,0.09 c 0.9804,-0.894 1.6406,-2.984 2.0937,-7.472 0.6289,-6.20399 1.0235,-34.28999 1.793,-85.292995 -0.2773,3.253 1.3594,-13.047 1.2305,-14.301 0.207,-5.406 0.062,-10.442 -0.418,-12.563 l -1.0039,-1.449 c -0.707,-0.141 -1.3008,1.637 -1.7695,3.981"
     id="path34621" />
  <path
     fill-rule="nonzero"
     fill="#000000"
     fill-opacity="1"
     d="m 360.49522,29.445375 -0.63281,3.629 c 0.16797,8.137 0.33594,16.273 0.50391,24.41 -0.53907,24.051 -1.07422,48.101995 -1.61328,72.152005 -0.53516,-0.582 1.875,4.168 2.23046,2.55899 l 1.22657,-1.95299 c 1.29687,-3.78901 2.54687,-13.848 2.66406,-17.074 0.14453,-4 0.4375,-44.032005 0.40625,-42.133005 0.0547,-16.153 -0.25,-21.156 -0.6875,-26 -0.59375,-5.043 -1.05859,-13.364 -2.83203,-15.926 l -1.26563,0.336"
     id="path34622" />
  <path
     fill-rule="nonzero"
     fill="#000000"
     fill-opacity="1"
     d="m 430.08116,119.02738 c -16.41797,0.20299 -31.97266,0.531 -41.74609,1.375 -5.38282,0.465 -11.53516,0.94899 -17.92578,1.988 1.36328,-0.484 -8.96094,1.762 -5.80469,1.969 1.19531,0.816 4.54687,1.23799 15.33984,1.375 17.48828,-0.50801 34.98047,-1.02001 52.47266,-1.52701 -22.27344,0.16401 6.10937,0.79701 71.19922,0.21401 5.05859,-0.824 13.72265,-1.449 18.21484,-1.554 6.28906,-0.42201 34.34766,1.84699 43.84375,0.617 l 2.78125,-1.125 c 0.20313,0.86299 0.21484,-3.473 -0.83984,-3.813 -57.53516,-1.804 -74.88282,2.11 -137.53516,0.481"
     id="path34623" />
  <path
     fill-rule="nonzero"
     fill="#000000"
     fill-opacity="1"
     d="m 560.46397,11.414375 c -2.89453,-1.356 -7.55859,-1.68 -12.05078,-2.121 -11.98437,-1.18 -88.02734,-4.774 -83.79687,-4.747 h -32.35938 c -23.04687,2.442 -46.09375,4.883 -69.13672,7.325 -1.25781,-0.516 2.58203,2.453 5.62891,2.406 l 7.54297,0.519 c 18.4414,-1.503 36.8789,-3.007 55.3164,-4.515 12.33985,-0.629 34.48047,-0.52 36.88282,-0.453 13.49609,0.379 81.4414,4.035 69.11718,3.218 7.48829,0.961 14.97657,1.922 22.46485,2.883 1.39453,-0.04 2.58984,-0.472 2.78906,-1.441 0.20313,-0.988 -0.48047,-2.176 -2.39844,-3.074"
     id="path34624" />
  <path
     fill-rule="nonzero"
     fill="#000000"
     fill-opacity="1"
     d="m 574.82725,15.277375 c 0.50391,3.152 2.39844,9 2.64063,28.18 -1.23438,22.285 -3.67578,21.601 -4.92188,45.05 -0.16015,8.497 0.23047,19.977005 1.10938,25.250005 l 1.04297,3.56699 1.21094,0.211 c 0.96875,-1.25 1.17968,-3.496 1.36718,-9.981 0.082,-8.003995 0.16016,-19.534995 0.45313,-23.397995 1.375,-15.371 4.2539,-23.387 4.61328,-41.442 -0.65625,-11.363 -2.11328,-20.304 -3.30469,-25.765 -0.48828,-1.684 -1.0625,-2.848 -1.91015,-3.379 l -1.29688,-0.238 c -0.70703,0.16 -1.02734,1.089 -1.00391,1.945"
     id="path34625" />
  <path
     fill-rule="nonzero"
     fill="#000000"
     fill-opacity="1"
     d="m 527.18663,26.160375 c -0.73438,-0.664 -1.71094,-0.969 -2.75391,-1.098 0.81641,0.102 -15,1.192 -42.17578,1.484 -28.22265,-0.75 -51.80469,-0.835 -64.01562,-0.507 l -9.09766,0.652 c 2.08203,-0.855 -10.77734,2.953 -9.04297,3.625 25.48047,0.363 54.98438,0.734 88.51563,1.105 l 1,-1 38.09765,-0.05 0.3711,-1.653 c 0.10547,-1.183 -0.0781,-1.812 -0.89844,-2.554"
     id="path34626" />
  <path
     fill-rule="nonzero"
     fill="#000000"
     fill-opacity="1"
     d="m 544.48741,26.394375 c -6.60547,-2.332 -9.83594,-4.734 -18.76172,-6.293 -1.41406,0.04 -2.35156,0.36 -2.88281,1.676 -0.74219,1.824 -0.30078,5.25 -0.31641,7.23 -0.67187,2.016 -1.34765,4.036 -2.01953,6.051 0.0703,0.809 0.44141,1.477 1.34375,2.067 0.94141,0.617 1.63281,0.668 2.66406,0.5 2.44141,-1.637 12.44141,-2.496 22.69532,-4.86 1.47656,-0.711 1.92968,-1.738 1.74218,-2.679 -0.7539,-1.997 -2.9375,-2.977 -4.46484,-3.692 m -15.52344,-0.41 -0.52734,0.527 -0.52734,-0.527 0.52734,-0.527 0.52734,0.527 m 4,5 -0.52734,0.527 -0.52734,-0.527 0.52734,-0.527 0.52734,0.527"
     id="path34627" />
  <path
     fill-rule="nonzero"
     fill="#000000"
     fill-opacity="1"
     d="m 436.3546,97.265375 c 0.0508,-0.781 -0.41406,-1.816 -0.73047,-2.433 -3.16797,-5 -6.33594,-10 -9.50391,-15 -5.88281,-11.106 -8.1875,-21.434 -14.97265,-32.231 -0.67969,-0.859 -1.64453,-1.375 -2.42578,-0.965 -0.84766,0.446 -1.3711,1.723 -1.82813,3.285 -2.39453,13.762 -4.45312,20.903 -7.12109,30.676 -1.83985,4.871 -3.6836,9.742 -5.52344,14.614 -0.47266,1.48 -1.07422,3.386 -0.46875,4.527 0.44922,0.840005 1.26562,1.133005 2.19141,0.687005 1.10937,-0.535005 1.49218,-1.339005 2.07812,-2.914005 3.32422,-8.933 3.77344,-9.992 7.42578,-18.468 1.87891,-5.024 2.69141,-9.856 4.00391,-15.887 0.59375,-2.07 1.14453,-3.137 1.84375,-3.008 2.77734,4.824 6.80469,17.121 10.69922,23.258 3.02734,5.129 5.82812,9.808 8.72656,13.844 0.86719,1.648 2.73047,2.664 4.15234,2.164 0.94141,-0.336 1.39844,-1.328 1.45313,-2.149"
     id="path34628" />
  <path
     fill-rule="nonzero"
     fill="#000000"
     fill-opacity="1"
     d="m 435.47569,76.062375 c -4.86328,-0.664 -9.98437,-1.484 -23.86328,-1.98 -15.90625,-0.575 -15.25,-0.547 -23.94531,0.214 -1.60938,0.141 -2.56641,0.524 -2.4961,1.45 0.0859,1.039 2.30469,2.211 5.92579,2.578 19.74218,1.43 19.79296,-0.5 36.27343,2.289 2.51953,0.191 5.58594,0.254 7.625,-0.332 -0.65234,0.633 4.32422,-2.492 2.85938,-2.668 -0.0742,-1.109 -1.14844,-1.383 -2.37891,-1.551"
     id="path34629" />
  <path
     fill-rule="nonzero"
     fill="#000000"
     fill-opacity="1"
     d="m 439.37413,87.113375 c -10.89063,-1.063 -24.63672,-1.695 -31.57813,-1.93 -9.35156,-0.32 -18.51562,0.524 -23.55078,1.082 -2.22265,0.246 -3.01562,0.442 -3.28125,1.34 -0.16797,0.555 0.60547,1.16 1.77344,1.512 13.94141,1.738 16.48047,0 49.05859,2.734 l 7.02344,-0.297 4.01563,-1.078 1.0039,-1.484 c 1.01172,0.406 -3.02734,-2.485 -4.46484,-1.879"
     id="path34630" />
  <path
     fill-rule="nonzero"
     fill="#000000"
     fill-opacity="1"
     d="m 480.69444,96.113375 c 0.9961,-0.703 2.80469,-2.016 3.97266,-3.758 l 1.5039,-3.035 c 0.28907,1.43 0.0703,-6.715 -1.17187,-6.238 -1.15625,-1.668 -2.84375,-2.508 -4.07813,-3.024 -1.26171,-0.523 -2.67187,-0.801 -4.04687,-0.906 -3.4375,-0.891 -9.23047,2.551 -11.14453,1.199 -0.82813,-0.633 -1.25,-2.023 -1.33985,-4.324 -0.10546,-2.578 0.1875,-4.879 0.81641,-7.606 0.86328,-3.753 2.11328,-6.261 3.73438,-8.433 2.3789,-3.192 5.29687,-5.164 7.07031,-5.75 1.78125,-0.59 4.08984,1.047 4.48047,0.695 0.13672,-0.121 0.66406,-1.488 -0.60938,-2.929 -1.00781,-1.141 -2.88672,-1.668 -4.33203,-1.598 -3.07031,0.601 -4.44141,1.773 -6.73437,3.461 -3.67579,3.254 -5.75391,4.808 -7.80079,8.14 -0.68359,1.61 -1.78515,9.11 -1.58203,15.868 0.0859,2.863 0.42969,4.336 0.91016,5.394 0.64453,1.426 2.28516,4.793 5.125,8.004 0.89844,1.02 4.12109,3.703 5.53125,4.617 1.5625,1.016 3.88281,1.922 4.75,2.043 1.6875,0.235 3.35156,-0.695 4.94531,-1.82 m -3.15234,-4.602 -1.78516,0.106 c -0.98047,-0.211 -3.1289,-1.285 -3.92187,-2.973 v -1.984 c -1.17578,0.363 3.8789,-2.633 5.16406,-1.692 2.04297,0.02 3.57031,0.575 4.41406,1.133 0.73828,0.492 0.89063,1.231 0.71875,1.699 -0.24609,0.668 -2.875,3.18 -4.58984,3.711"
     id="path34631" />
  <path
     fill-rule="nonzero"
     fill="#000000"
     fill-opacity="1"
     d="m 516.81554,54.226375 c -3.59375,0.621 -6.8086,2.418 -8.95704,3.664 -1.84375,1.071 -3.39843,3.16 -4.75781,5.543 -1.38281,2.426 -2.25,4.696 -2.83594,6.684 -0.60546,2.058 -0.89062,4.375 -0.41015,8.387 0.48828,4.07 1.28515,7.089 2.15625,8.796 0.89453,1.766 2.5664,3.957 4.69531,5.922 2.57422,2.367 4.95703,3.852 6.64844,4.465 1.19922,0.438 2.35547,0.363 4.36328,-0.05 2.70703,-0.566 5.375,-0.726 8.04687,-2.492 1.95313,-1.293 6.41797,-5.633 9.02735,-8.91 1.98437,-2.496 2.63672,-3.699 3.21875,-5.402 0.26953,-0.797 1.0039,-4.074 1.07031,-5.899 0.0898,-2.508 -0.11328,-5.664 -1.43359,-8.695 -1.29297,-2.969 -3.67578,-5.574 -5.24219,-7.078 -3.26953,-3.145 -4.41016,-3.238 -6.05859,-3.828 -1.39844,-0.602 -5.88672,-1.602 -9.53125,-1.102 m 18.59375,18.301 c -0.008,2.766 -0.90625,6.406 -1.59375,8.348 -0.42969,1.211 -1.03125,2.363 -2.35938,3.898 -2.11328,2.445 -5.17578,4.977 -6.84766,6.102 -2.23828,1.492 -5.19531,2.324 -9.35546,1.996 -2.14063,-0.328 -3.5,-1.325 -4.59766,-2.168 -1.49609,-1.145 -2.99609,-2.754 -4.09766,-4.528 -0.8125,-1.304 -1.42968,-2.5 -1.78515,-5.175 -0.34375,-2.563 -0.35547,-6.668 -0.0156,-9.528 0.35547,-2.972 0.99219,-4.66 1.73047,-6.176 0.94531,-1.941 2.01172,-3.464 3.37109,-4.066 5.07422,0.625 6.37891,-2.574 11.42579,-2.012 2.67187,0.649 4.71093,1.926 7.21875,3.707 1.91796,1.36 4.48437,3.254 5.86718,5.602 0.82422,1.394 1.04297,2.289 1.03907,4"
     id="path34632" />
  <path
     fill-rule="nonzero"
     fill="#000000"
     fill-opacity="1"
     d="m 701.76866,82.187375 c -2.94922,-0.219 -6.15234,0.223 -8.4375,0.637 -4.28906,1.472 -17.25391,2.262 -20.78906,4.398 -0.81641,0.625 -1.1211,1.481 -0.83985,2.375 0.23438,0.739 0.85157,1.196 2.29297,1.219 14.52735,-0.805 22.6875,-4.422 28.94922,-3.969 1.26953,-0.218 2.35938,-0.707 2.77735,-1.832 l -0.082,-1.418 c -0.55859,-0.914 -1.86718,-1.261 -3.87109,-1.41"
     id="path34633" />
  <path
     fill-rule="nonzero"
     fill="#000000"
     fill-opacity="1"
     d="m 688.546,88.449375 c -0.0898,4.25 0.0781,9.14 0.41797,12.221995 0.39453,3.606 0.94141,5.633 1.75782,6.176 0.68359,0.457 1.84765,-0.82399 2.21093,-2.367 0.78516,-5.858995 0.28907,-14.882995 0.41797,-25.433995 -0.14844,-3.582 -0.66015,-8.242 -1.34765,-10.05 l -1.13282,-0.922 c -1.36328,1.48 -2.01172,12.722 -2.32422,20.375"
     id="path34634" />
  <path
     fill-rule="nonzero"
     fill="#000000"
     fill-opacity="1"
     d="m 1068.2569,85.546375 c -1.2773,0.02 -4.4765,0.372 -6.2109,0.723 -1.586,0.317 -1.9844,0.594 -2.1094,2.067 l 0.2109,2.019 31.0664,0.05 c 0.6563,1.07 1.3165,2.168 2.5586,2.133 0.7422,-0.106 1.6914,-0.848 2.0704,-2.11 0.1171,0.344 0.7148,-4.73 -0.1055,-4.808 l -27.4805,-0.07"
     id="path34635" />
  <path
     fill-rule="nonzero"
     fill="#000000"
     fill-opacity="1"
     d="m 1082.4796,107.19137 c -11.4844,0.414 -24.5703,0.266 -28.086,1.746 0.6289,1.086 2.2578,1.887 7.7188,2.793 2.4258,0.246 6.3789,0.465 13.1875,0.28901 4.1406,-0.105 11.5664,-0.57001 14.9492,-1.18301 -0.9414,0.57001 6.2969,-2.254 4.0508,-2.356 -1.4492,-1.129 -6.168,-1.519 -11.8203,-1.289"
     id="path34636" />
  <path
     fill-rule="nonzero"
     fill="#000000"
     fill-opacity="1"
     d="m 1153.4952,30.445375 -0.6328,3.629 c 0.168,8.137 0.3359,16.273 0.5039,24.41 -0.5391,24.051 -1.0742,48.101995 -1.6133,72.152005 -0.5351,-0.582 1.875,4.168 2.2305,2.55899 l 1.2265,-1.95299 c 1.2969,-3.79301 2.5469,-13.848 2.6641,-17.074 0.1445,-4 0.4375,-44.032005 0.4063,-42.133005 0.055,-16.153 -0.25,-21.156 -0.6875,-26 -0.5938,-5.043 -1.0586,-13.364 -2.8321,-15.926 l -1.2656,0.336"
     id="path34637" />
  <path
     fill-rule="nonzero"
     fill="#000000"
     fill-opacity="1"
     d="m 1353.4639,12.414375 c -2.8945,-1.356 -7.5585,-1.68 -12.0507,-2.121 -11.9844,-1.18 -88.0274,-4.774 -83.7969,-4.747 h -32.3594 c -23.0469,2.442 -46.0937,4.883 -69.1367,7.325 -1.2578,-0.516 2.582,2.453 5.6289,2.406 l 7.543,0.519 c 18.4414,-1.503 36.8789,-3.007 55.3164,-4.515 12.3398,-0.629 34.4804,-0.52 36.8828,-0.453 13.4922,0.379 81.4414,4.035 69.1172,3.218 7.4883,0.961 14.9765,1.922 22.4648,2.883 1.3946,-0.04 2.5899,-0.476 2.7891,-1.441 0.2031,-0.988 -0.4805,-2.176 -2.3985,-3.074"
     id="path34638" />
  <path
     fill-rule="nonzero"
     fill="#000000"
     fill-opacity="1"
     d="m 1367.8272,16.277375 c 0.5039,3.152 2.3985,9 2.6407,28.18 -1.2344,22.285 -3.6758,21.601 -4.9219,45.05 -0.1602,8.497 0.2304,19.977005 1.1094,25.250005 l 1.0429,3.56699 1.211,0.211 c 0.9687,-1.25 1.1796,-3.496 1.3671,-9.981 0.082,-8.004 0.1602,-19.534995 0.4532,-23.397995 1.3711,-15.371 4.2539,-23.387 4.6133,-41.442 -0.6563,-11.363 -2.1133,-20.304 -3.3047,-25.765 -0.4883,-1.684 -1.0625,-2.848 -1.9102,-3.379 l -1.2969,-0.238 c -0.707,0.16 -1.0273,1.089 -1.0039,1.945"
     id="path34639" />
  <path
     fill-rule="nonzero"
     fill="#000000"
     fill-opacity="1"
     d="m 1320.1866,27.160375 c -0.7344,-0.664 -1.7109,-0.969 -2.7539,-1.098 0.8164,0.102 -15,1.192 -42.1758,1.484 -28.2226,-0.75 -51.8047,-0.835 -64.0156,-0.507 l -9.0977,0.652 c 2.0821,-0.855 -10.7773,2.953 -9.0429,3.625 25.4804,0.363 54.9843,0.734 88.5156,1.105 l 1,-1 38.0976,-0.05 0.3711,-1.653 c 0.1055,-1.183 -0.078,-1.812 -0.8984,-2.554"
     id="path34640" />
  <path
     fill-rule="nonzero"
     fill="#000000"
     fill-opacity="1"
     d="m 1337.4874,27.394375 c -6.6055,-2.332 -9.836,-4.734 -18.7617,-6.293 -1.4141,0.04 -2.3516,0.36 -2.8828,1.676 -0.7422,1.824 -0.3008,5.25 -0.3165,7.23 -0.6718,2.016 -1.3476,4.036 -2.0195,6.051 0.07,0.809 0.4414,1.477 1.3438,2.067 0.9414,0.617 1.6328,0.668 2.664,0.5 2.4414,-1.637 12.4414,-2.496 22.6953,-4.86 1.4766,-0.711 1.9297,-1.738 1.7422,-2.679 -0.7539,-1.997 -2.9336,-2.977 -4.4648,-3.692 m -15.5235,-0.41 -0.5273,0.527 -0.5273,-0.527 0.5273,-0.527 0.5273,0.527 m 4,5 -0.5273,0.527 -0.5273,-0.527 0.5273,-0.527 0.5273,0.527"
     id="path34641" />
  <path
     fill-rule="nonzero"
     fill="#000000"
     fill-opacity="1"
     d="m 1229.3546,98.265375 c 0.051,-0.781 -0.4141,-1.816 -0.7305,-2.433 -3.168,-5 -6.3359,-10 -9.5039,-15 -5.8828,-11.106 -8.1875,-21.434 -14.9727,-32.231 -0.6796,-0.859 -1.6445,-1.375 -2.4257,-0.965 -0.8477,0.446 -1.3711,1.723 -1.8282,3.285 -2.3945,13.762 -4.4531,20.903 -7.1211,30.676 -1.8398,4.871 -3.6836,9.742 -5.5234,14.614 -0.4727,1.48 -1.0742,3.386 -0.4687,4.527005 0.4492,0.84 1.2656,1.133 2.1914,0.687 1.1093,-0.535 1.4921,-1.339 2.0781,-2.914005 3.3242,-8.937 3.7773,-9.992 7.4258,-18.468 1.8789,-5.024 2.6914,-9.856 4.0039,-15.887 0.5937,-2.07 1.1445,-3.137 1.8437,-3.008 2.7774,4.824 6.8047,17.121 10.6992,23.258 3.0274,5.129 5.8282,9.808 8.7266,13.844 0.8672,1.648 2.7305,2.664005 4.1523,2.164005 0.9415,-0.336 1.3985,-1.328005 1.4532,-2.149005"
     id="path34642" />
  <path
     fill-rule="nonzero"
     fill="#000000"
     fill-opacity="1"
     d="m 1228.4757,77.062375 c -4.8633,-0.664 -9.9844,-1.484 -23.8633,-1.98 -15.9063,-0.575 -15.25,-0.547 -23.9453,0.214 -1.6094,0.141 -2.5664,0.524 -2.4961,1.45 0.086,1.039 2.3047,2.211 5.9258,2.578 19.7421,1.43 19.7929,-0.5 36.2734,2.289 2.5195,0.191 5.5859,0.254 7.625,-0.332 -0.6523,0.633 4.3242,-2.492 2.8594,-2.668 -0.074,-1.109 -1.1485,-1.383 -2.3789,-1.551"
     id="path34643" />
  <path
     fill-rule="nonzero"
     fill="#000000"
     fill-opacity="1"
     d="m 1232.3741,88.113375 c -10.8906,-1.063 -24.6367,-1.695 -31.5781,-1.93 -9.3516,-0.32 -18.5156,0.524 -23.5508,1.082 -2.2227,0.246 -3.0156,0.442 -3.2813,1.34 -0.1679,0.555 0.6055,1.16 1.7735,1.512 13.9414,1.738 16.4805,0 49.0586,2.734 l 7.0234,-0.297 4.0156,-1.078 1.0039,-1.484 c 1.0118,0.406 -3.0273,-2.485 -4.4648,-1.879"
     id="path34644" />
  <path
     fill-rule="nonzero"
     fill="#000000"
     fill-opacity="1"
     d="m 1309.8155,55.226375 c -3.5937,0.621 -6.8086,2.418 -8.957,3.664 -1.8438,1.071 -3.4024,3.16 -4.7578,5.543 -1.3828,2.426 -2.25,4.696 -2.836,6.684 -0.6054,2.058 -0.8906,4.375 -0.4101,8.387 0.4883,4.07 1.2851,7.089 2.1562,8.796 0.8946,1.766 2.5664,3.957 4.6953,5.922 2.5743,2.367 4.9571,3.852 6.6485,4.465 1.1992,0.438 2.3554,0.363 4.3633,-0.05 2.707,-0.566 5.375,-0.726 8.0468,-2.492 1.9532,-1.293 6.418,-5.633 9.0274,-8.91 1.9843,-2.496 2.6367,-3.699 3.2148,-5.402 0.2735,-0.797 1.0078,-4.074 1.0742,-5.899 0.09,-2.508 -0.1132,-5.664 -1.4336,-8.695 -1.2968,-2.969 -3.6757,-5.574 -5.2421,-7.078 -3.2696,-3.145 -4.4102,-3.238 -6.0586,-3.828 -1.3985,-0.602 -5.8868,-1.602 -9.5313,-1.102 m 18.5938,18.301 c -0.01,2.766 -0.9063,6.406 -1.5938,8.348 -0.4297,1.211 -1.0312,2.363 -2.3594,3.898 -2.1132,2.445 -5.1757,4.977 -6.8476,6.102 -2.2383,1.492 -5.1953,2.324 -9.3555,1.996 -2.1406,-0.328 -3.5,-1.325 -4.5976,-2.168 -1.4961,-1.145 -2.9961,-2.754 -4.0977,-4.528 -0.8125,-1.304 -1.4297,-2.5 -1.7852,-5.175 -0.3437,-2.563 -0.3554,-6.668 -0.016,-9.528 0.3555,-2.972 0.9922,-4.66 1.7305,-6.176 0.9453,-1.941 2.0117,-3.464 3.3711,-4.066 5.0742,0.625 6.3789,-2.574 11.4258,-2.012 2.6718,0.649 4.7109,1.926 7.2187,3.707 1.918,1.36 4.4844,3.254 5.8672,5.602 0.8242,1.394 1.043,2.289 1.0391,4"
     id="path34645" />
  <path
     fill-rule="nonzero"
     fill="#000000"
     fill-opacity="1"
     d="m 1257.3155,82.839375 c 3.7539,0 5.7774,-0.265 6.9922,-1.332 l 0.3789,-1.496 -1.5273,-1.308 c -3.2032,-0.305 -6.4024,-0.606 -9.6055,-0.907 -1.1055,-0.308 -1.7813,-0.8 -1.9961,-1.539 0.9062,-6.023 10.2617,-14.468 10.832,-19.546 -0.059,-0.879 -0.5039,-1.778 -1.4492,-2.172 -1.4453,-0.559 -3.332,0.152 -3.9883,1.14 -1.2695,1.43 -6.7812,9.578 -9.8711,15.262 -0.914,1.688 -1.8203,4.293 -1.4375,7.313 0.2032,1.601 0.8321,2.714 1.8164,3.269 0.9961,0.559 5.1211,1.316 9.8555,1.316"
     id="path34646" />
  <path
     fill-rule="nonzero"
     fill="#000000"
     fill-opacity="1"
     d="m 1264.5577,87.152375 c -0.074,6.68 0.3477,11.668 1.1602,13.539005 l 1.1914,-0.121 c 0.8711,-1.996005 1.3711,-6.789005 1.3593,-13.172005 -0.012,-5.562 -0.5898,-11.496 -1.2617,-13.34 l -1.1367,-0.234 c -0.6641,1.562 -1.25,7.34 -1.3125,13.328"
     id="path34647" />
  <path
     fill-rule="nonzero"
     fill="#000000"
     fill-opacity="1"
     d="m 1148.8975,132.38238 c -2.1445,5.93399 -2.6562,14.84399 -3.3242,21.883 0,2.649 0.2422,4.141 1.1367,4.94899 0.7461,0.67601 1.8008,0.145 2.5,-1.023 0.668,-1.117 1.0899,-3.20299 1.4102,-5.09 0.9297,-5.45299 2.6914,-16.152 2.6445,-19.94899 -0.016,-1.262 -0.414,-2.336 -1.3476,-2.586 -0.9375,-0.254 -2.1797,0.25 -3.0196,1.816"
     id="path34648" />
  <path
     fill-rule="nonzero"
     fill="#000000"
     fill-opacity="1"
     d="m 1370.5694,165.66837 c 0.6328,-1 0.8008,-1.92999 0.75,-4.5 -0.9609,-12.42999 -2.707,-33.766 -4.289,-39.368 -0.6016,-1.925 -1.3125,-3.3 -2.5235,-3.921 l -1.5625,-0.09 c -1.418,0.644 -1.7305,3.078 -1.2226,5.055 1.5039,5.5 2.8984,17.726 4.6914,39.75 0.5234,3.105 1.2617,4.023 2.0156,4.277 0.6016,0.203 1.7812,-0.629 2.1406,-1.199"
     id="path34649" />
  <path
     fill-rule="nonzero"
     fill="#000000"
     fill-opacity="1"
     d="m 1229.3624,144.53138 -0.098,-1.43 c -1.6328,-2.289 -13.1054,-3.472 -14.0625,-4.586 -1.0664,-0.551 -1.7422,-2.039 -1.8867,-3.09 -0.1797,-1.355 0.1484,-2.918 1.3008,-4.402 2.9219,-3.207 6.2461,-5.051 8.0039,-5.836 1.457,-0.258 2.9141,-0.512 4.3711,-0.769 0.016,-0.497 -0.957,-1.516 -2.6367,-1.93 l -3.1055,-0.317 c -1.9062,0.05 -3.5703,0.715 -4.793,1.372 -2.3789,1.839 -5.5195,3.179 -7.6757,6.378 -0.7696,1.286 -1.1915,2.821 -1.3204,4.321 -0.2109,2.383 0.3907,3.988 1.1797,5.34 1.5782,2.234 2.5117,3.773 5.043,4.55 4.0664,0.75 10.5195,2.657 13.7305,1.403 l 1.9492,-1.004"
     id="path34650" />
  <path
     fill-rule="nonzero"
     fill="#000000"
     fill-opacity="1"
     d="m 1261.2569,137.50738 -2.043,-0.98 c -4.5117,-0.34 -9.0273,-0.68 -13.539,-1.02 l -2.4258,-1.55401 c -1.4766,-2.102 -1.168,-6.606 -1.1641,-9.36 l -0.9179,-1.82399 c -0.7617,-0.67201 -1.8047,-0.05 -2.5235,1.30899 -1.375,2.605 -2.0781,8.324 -2.0312,11.18701 0.027,1.57099 0.3047,3.121 1.1484,3.93799 1.3399,1.42601 4.6328,1.898 10.7383,1.66001 5.8164,-0.19501 11.1875,-0.992 12.582,-2.14501 l 0.1758,-1.21099"
     id="path34651" />
  <path
     fill-rule="nonzero"
     fill="#000000"
     fill-opacity="1"
     d="m 1288.6632,127.25038 c -1.5,-1.391 -2.8672,-2.137 -4.668,-2.68 -3.2891,-0.906 -5.9688,-0.258 -8.6563,0.269 -3.4179,0.829 -5.5468,1.61 -7.6601,3.891 -1.2656,1.586 -2.4024,4.379 -1.9063,7.891 l 0.7774,2.769 c 0.7734,1.785 1.75,2.696 3.1055,3.387 2.6093,1.394 7.664,1.512 9.5664,0.93 3.0937,-1.254 4.6757,-1.934 9.2695,-5.672 1.2226,-1.156 1.9766,-2.043 2.4883,-3.305 0.4648,-1.152 0.582,-2.359 0.2226,-3.609 -0.375,-1.301 -1.164,-2.598 -2.539,-3.871 m -5.1172,7.414 c -2.5196,2.8 -4.8672,3.656 -6.2617,4.144 -1.0352,0.363 -2.2344,0.629 -3.6719,-0.195 -0.8633,-0.492 -2.0274,-1.516 -2.543,-2.832 -0.5156,-1.324 -0.3008,-2.496 0.3789,-3.383 0.6133,-0.797 1.8711,-1.359 3.0625,-1.695 1.3516,-0.383 3.293,-0.739 5.4141,-0.688 2.3828,0.06 3.9414,0.34 4.6953,1.391 0.7148,0.992 0.023,2.043 -1.0742,3.258"
     id="path34652" />
  <path
     fill-rule="nonzero"
     fill="#000000"
     fill-opacity="1"
     d="m 1306.3897,140.65238 c 0.7617,-1.863 0.4844,-3.414 -0.1406,-4.56601 -2.5078,-1.96899 -5.0156,-3.94199 -7.5234,-5.91099 -3.8203,-2.902 0.066,-4 -2.9961,-5.535 -1.375,-0.394 -2.7969,-0.01 -3.5508,0.96499 -1.3008,1.711 -0.4336,4.03101 0.3281,5.375 2.0938,3.219 8.8828,5.65601 8.3242,7.27001 0.1993,1.785 -6.7734,3.007 -8.5742,5.214 l 0.3242,1.282 c 0.8828,0.695 3.2969,1.172 5.9961,0.859 2.336,-0.269 4.8438,-1.23 6.2344,-2.535 l 1.5781,-2.418"
     id="path34653" />
  <path
     fill-rule="nonzero"
     fill="#000000"
     fill-opacity="1"
     d="m 1325.0694,142.46437 c -1.7265,-0.152 -7.6328,-1.984 -8.9765,-4.683 -1.1133,-2.867 -2.2266,-5.738 -3.3399,-8.61 l -1.2773,-0.421 c -1.3243,0.55 -1.1211,4.211 -0.9297,9.332 l 1.8242,3.515 3.7656,2.297 c -1.9883,0.05 10.0274,1.086 8.6055,-0.148 l 0.3281,-1.282"
     id="path34654" />
  <path
     fill-rule="nonzero"
     fill="#000000"
     fill-opacity="1"
     d="m 1314.9405,133.30038 c -2.4219,0.446 -4.0195,0.793 -4.7148,1.633 l 0.09,0.996 c 1.0859,0.867 5.9336,1.352 9.7852,0.606 l 3.1523,-1.016 c 1.4883,-0.773 1.8789,-2.027 1.4531,-2.625 -0.8632,-1.258 -5.1836,-0.17601 -9.7656,0.406"
     id="path34655" />
  <path
     fill-rule="nonzero"
     fill="#000000"
     fill-opacity="1"
     d="m 1333.7686,121.61338 c -1.6562,-0.5 -3.1953,-0.51201 -5.3945,-0.41801 -6.7227,0.91801 -17.5352,1.699 -22.8828,4.242 l 0.125,1.227 2.3789,0.898 c 2.6992,0.477 6.0391,0.293 9.1445,0.05 7.3985,-0.58599 11.5,-1.32399 15.6719,-2.414 1.5234,-0.402 2.7188,-0.934 2.9414,-1.629 0.2813,-0.875 -0.4805,-1.5 -1.9844,-1.953"
     id="path34656" />
  <path
     fill-rule="nonzero"
     fill="#000000"
     fill-opacity="1"
     d="m 1360.585,162.05837 c -28.3398,0.426 -45.1445,1.488 -57.414,1.008 -58.3828,-1.266 -70.1836,-1.359 -152.0117,-2.012 -4.2696,0.121 -6.5469,0.36 -6.4454,1.242 -1.8203,-0.468 4.1602,2.395 8.1719,2.204 128.4727,3.714 60.7422,1.699 137.3711,2.921 l 1,1 h 38.3594 c 8.4687,-0.125 25.5156,-1.039 37.2969,-2.585 l 4.7226,-1.129 0.6797,-1.243 c -1.4453,-0.781 -7.25,-1.273 -11.7305,-1.406"
     id="path34657" />
  <path
     fill-rule="nonzero"
     fill="#000000"
     fill-opacity="1"
     d="m 1363.7999,104.04337 c -1.5117,-0.67999 -5.4258,-0.821 -9.1797,-0.715 -16,0.453 -29.4258,2.05101 -44.3633,2.218 h -54 c -12.6719,0.137 -72.6289,3.102 -89.3476,4.293 -7.1407,0.508 -13.0625,2.161 -13.8086,2.481 65.6484,0.5 67.6718,-2.20299 158.5156,-2.899 1.7969,-0.02 15.7422,-0.04 40.9141,-1.875 5.496,-0.195 10,-1.183 11.7187,-2.265 l -0.4492,-1.238"
     id="path34658" />
  <rect
     style="fill:none;stroke:none;stroke-width:1.76055"
     id="rect41544"
     width="1874.3632"
     height="173.04065"
     x="0"
     y="0"
     ry="0"
     inkscape:export-filename="17.svg"
     inkscape:export-xdpi="96"
     inkscape:export-ydpi="96" />
</svg>
