<?xml version="1.0" encoding="UTF-8" standalone="no"?>
<!-- Created with Inkscape (http://www.inkscape.org/) -->

<svg
   width="210mm"
   height="297mm"
   viewBox="0 0 150 212.14286"
   version="1.1"
   id="svg1"
   inkscape:version="1.3.2 (091e20ef0f, 2023-11-25)"
   sodipodi:docname="logos.svg"
   xmlns:inkscape="http://www.inkscape.org/namespaces/inkscape"
   xmlns:sodipodi="http://sodipodi.sourceforge.net/DTD/sodipodi-0.dtd"
   xmlns="http://www.w3.org/2000/svg"
   xmlns:svg="http://www.w3.org/2000/svg">
  <sodipodi:namedview
     id="namedview1"
     pagecolor="#ffffff"
     bordercolor="#666666"
     borderopacity="1.0"
     inkscape:showpageshadow="2"
     inkscape:pageopacity="0.0"
     inkscape:pagecheckerboard="0"
     inkscape:deskcolor="#d1d1d1"
     inkscape:document-units="mm"
     inkscape:zoom="0.17677669"
     inkscape:cx="-4338.8072"
     inkscape:cy="-3620.3867"
     inkscape:window-width="1680"
     inkscape:window-height="1050"
     inkscape:window-x="1920"
     inkscape:window-y="0"
     inkscape:window-maximized="1"
     inkscape:current-layer="layer1"
     showgrid="false" />
  <defs
     id="defs1" />
  <g
     inkscape:label="Layer 1"
     inkscape:groupmode="layer"
     id="layer1">
    <path
       d="m 99.836961,277.72505 -0.240221,-7.32597 h 1.21956 l 2.87735,3.81165 v -3.81165 h 0.63459 0.63458 v 5.92832 h -1.21956 l -2.86908,-3.80339 -0.24022,5.20104 z"
       id="text7"
       style="font-size:8.46667px;line-height:0.7;font-family:Trueno;-inkscape-font-specification:Trueno;stroke-width:0.264583"
       aria-label="N"
       sodipodi:nodetypes="cccccccccccc" />
    <rect
       style="fill:#ffffff;stroke:#ffffff;stroke-width:0.142928"
       id="rect1"
       width="294.30344"
       height="97.979393"
       x="-444.79288"
       y="-334.84058"
       inkscape:export-filename="logo-twitter.png"
       inkscape:export-xdpi="92.400002"
       inkscape:export-ydpi="92.400002" />
    <text
       xml:space="preserve"
       style="font-style:normal;font-variant:normal;font-weight:normal;font-stretch:normal;font-size:8.46667px;line-height:0.7;font-family:Trueno;-inkscape-font-specification:Trueno;stroke-width:0.264583"
       x="23.992697"
       y="109.48918"
       id="text1"
       inkscape:export-filename="CardanoLighthingNetwork-L.png"
       inkscape:export-xdpi="96"
       inkscape:export-ydpi="96"><tspan
         sodipodi:role="line"
         id="tspan1"
         style="font-style:normal;font-variant:normal;font-weight:normal;font-stretch:normal;font-family:Trueno;-inkscape-font-specification:Trueno;stroke-width:0.264583"
         x="23.992697"
         y="109.48918">CARDANO <tspan
   style="fill:none"
   id="tspan25">L</tspan>IGHTNING NETWORK</tspan></text>
    <text
       xml:space="preserve"
       style="font-style:normal;font-variant:normal;font-weight:normal;font-stretch:normal;font-size:8.46667px;line-height:0.7;font-family:Trueno;-inkscape-font-specification:Trueno;stroke-width:0.264583"
       x="24.875563"
       y="82.597534"
       id="text2"><tspan
         sodipodi:role="line"
         id="tspan2"
         style="font-style:normal;font-variant:normal;font-weight:normal;font-stretch:normal;font-family:Trueno;-inkscape-font-specification:Trueno;stroke-width:0.264583"
         x="24.875563"
         y="82.597534">CARDANO LIGHTNING <tspan
   style="fill:none;stroke:none"
   id="tspan19">N</tspan>ETWORK</tspan></text>
    <path
       d="m 67.595512,278.91282 h -0.0141 m 0,0 -0.66061,-2.17054 h -2.54248 v -1.16996 h 3.8778 l -0.66061,3.3405"
       id="text5"
       style="font-size:8.46667px;line-height:0.7;font-family:Trueno;-inkscape-font-specification:Trueno;stroke-width:0.264583"
       aria-label="L"
       sodipodi:nodetypes="cccccccc" />
    <path
       d="m 64.378322,276.74228 -0.19654,-5.92833 0.8642,0.82985 0.8642,-0.82985 -0.19654,4.75837 h 2.54248 l -0.22703,1.14802 z"
       id="text4"
       style="font-size:8.46667px;line-height:0.7;font-family:Trueno;-inkscape-font-specification:Trueno;stroke-width:0.264583"
       aria-label="L"
       sodipodi:nodetypes="cccccccc" />
    <path
       d="m 79.49687,274.38599 h -0.0141 m 0,0 -0.66061,-2.17054 h -2.54248 v -1.16996 h 3.8778 l -0.66061,3.3405"
       id="path20"
       style="font-size:8.46667px;line-height:0.7;font-family:Trueno;-inkscape-font-specification:Trueno;stroke-width:0.264583"
       aria-label="L"
       sodipodi:nodetypes="cccccccc" />
    <text
       xml:space="preserve"
       style="font-style:normal;font-variant:normal;font-weight:normal;font-stretch:normal;font-size:8.46667px;line-height:0.7;font-family:Trueno;-inkscape-font-specification:Trueno;stroke-width:0.264583"
       x="58.052551"
       y="276.7836"
       id="text6"><tspan
         sodipodi:role="line"
         id="tspan5"
         style="font-style:normal;font-variant:normal;font-weight:normal;font-stretch:normal;font-family:Trueno;-inkscape-font-specification:Trueno;stroke-width:0.264583"
         x="58.052551"
         y="276.7836">C  N</tspan></text>
    <path
       d="m 35.735654,91.635564 -0.289725,-0.47955 0.01129,-3.83634 v -2.1416 h 1.219564 l 2.877342,3.81165 v -3.81165 l 0.63459,0.93269 0.63459,-0.93269 v 5.92832 h -1.21957 l -2.869074,-3.80339 -0.01084,3.85301 -0.267594,0.47955 z"
       id="text8"
       style="font-size:8.46667px;line-height:0.7;font-family:Trueno;-inkscape-font-specification:Trueno;stroke-width:0.264583"
       aria-label="N"
       sodipodi:nodetypes="ccccccccccccccc" />
    <path
       d="m 99.924314,277.72505 -0.327574,-7.32597 h 1.21956 l 2.87735,3.81165 v -3.81165 h 0.63459 0.63458 v 5.92832 h -1.21956 l -2.86908,-3.80339 -0.15287,5.20104 z"
       id="path8"
       style="font-size:8.46667px;line-height:0.7;font-family:Trueno;-inkscape-font-specification:Trueno;stroke-width:0.264583"
       aria-label="N"
       sodipodi:nodetypes="cccccccccccc" />
    <text
       xml:space="preserve"
       style="font-style:normal;font-variant:normal;font-weight:normal;font-stretch:normal;font-size:8.46667px;line-height:0.7;font-family:Trueno;-inkscape-font-specification:Trueno;stroke-width:0.264583"
       x="112.35569"
       y="271.4129"
       id="text9"><tspan
         sodipodi:role="line"
         id="tspan9"
         style="font-style:normal;font-variant:normal;font-weight:normal;font-stretch:normal;font-family:Trueno;-inkscape-font-specification:Trueno;stroke-width:0.264583"
         x="112.35569"
         y="271.4129">N</tspan></text>
    <path
       d="m 35.25576,91.156014 0.807724,3.74065 0.850505,-3.74065 h -0.811448 z"
       id="path9"
       style="font-size:8.46667px;line-height:0.7;font-family:Trueno;-inkscape-font-specification:Trueno;stroke-width:0.264583"
       aria-label="N"
       sodipodi:nodetypes="ccccc" />
    <path
       d="m 112.7246,283.65337 -0.27844,-3.78672 v -2.1416 h 1.21956 l 2.87735,3.81165 v -3.81165 h 1.26917 v 5.92832 h -1.21956 l -2.86908,-3.80339 -0.27844,3.80339 z"
       id="path10"
       style="font-size:8.46667px;line-height:0.7;font-family:Trueno;-inkscape-font-specification:Trueno;stroke-width:0.264583"
       aria-label="N"
       sodipodi:nodetypes="cccccccccccc" />
    <text
       xml:space="preserve"
       style="font-size:8.46667px;line-height:0.7;font-family:Trueno;-inkscape-font-specification:Trueno;stroke-width:0.264583"
       x="24.413416"
       y="91.098129"
       id="text13"><tspan
         sodipodi:role="line"
         id="tspan13"
         style="stroke-width:0.264583"
         x="24.413416"
         y="91.098129">CL</tspan></text>
    <g
       id="g19"
       transform="translate(0.04025762,0.25560667)">
      <path
         d="m 122.14565,82.870386 -0.28973,-0.47955 0.0113,-3.83634 v -2.1416 h 1.21957 l 2.87734,3.81165 v -3.81165 l 0.63459,0.93269 0.63459,-0.93269 v 5.92832 h -1.21957 l -2.86907,-3.80339 -0.0108,3.85301 -0.2676,0.47955 z"
         id="path18"
         style="font-size:8.46667px;line-height:0.7;font-family:Trueno;-inkscape-font-specification:Trueno;stroke-width:0.264583"
         aria-label="N"
         sodipodi:nodetypes="ccccccccccccccc" />
      <path
         d="m 121.66575,82.390836 0.80773,3.74065 0.8505,-3.74065 h -0.81144 z"
         id="path19"
         style="font-size:8.46667px;line-height:0.7;font-family:Trueno;-inkscape-font-specification:Trueno;stroke-width:0.264583"
         aria-label="N"
         sodipodi:nodetypes="ccccc" />
    </g>
    <text
       xml:space="preserve"
       style="font-size:8.46667px;line-height:0.7;font-family:Trueno;-inkscape-font-specification:Trueno;stroke-width:0.264583"
       x="80.400925"
       y="281.50061"
       id="text20"><tspan
         sodipodi:role="line"
         id="tspan20"
         style="stroke-width:0.264583"
         x="80.400925"
         y="281.50061">L</tspan></text>
    <path
       d="m 89.520345,283.67119 h -0.0141 m 0,0 -0.66061,-2.17054 h -2.54248 v -1.16996 h 3.8778 l -0.66061,3.3405"
       id="path21"
       style="font-size:8.46667px;line-height:0.7;font-family:Trueno;-inkscape-font-specification:Trueno;stroke-width:0.264583"
       aria-label="L"
       sodipodi:nodetypes="cccccccc" />
    <path
       d="m 86.303155,281.50065 v -5.95313 l -0.19654,-1.03353 0.90672,1.05833 0.82168,-1.05833 -0.20926,1.07074 0.0125,4.74596 h 2.54248 l -0.22703,1.14802 z"
       id="path22"
       style="font-size:8.46667px;line-height:0.7;font-family:Trueno;-inkscape-font-specification:Trueno;stroke-width:0.264583"
       aria-label="L"
       sodipodi:nodetypes="cccccccccc" />
    <text
       xml:space="preserve"
       style="font-style:normal;font-variant:normal;font-weight:normal;font-stretch:normal;font-size:8.46667px;line-height:0.7;font-family:Trueno;-inkscape-font-specification:Trueno;stroke-width:0.264583"
       x="24.797407"
       y="120.19539"
       id="text22"
       inkscape:export-filename="CLN-L.png"
       inkscape:export-xdpi="96"
       inkscape:export-ydpi="96"><tspan
         sodipodi:role="line"
         id="tspan22"
         style="font-style:normal;font-variant:normal;font-weight:normal;font-stretch:normal;font-family:Trueno;-inkscape-font-specification:Trueno;stroke-width:0.264583"
         x="24.797407"
         y="120.19539">C  N</tspan></text>
    <path
       d="m 30.957239,120.20366 v -5.92833 l 0.66766,0.66948 0.66766,-0.66948 v 4.75837 h 2.54248 l -0.24276,1.13944 z"
       id="text23"
       style="font-size:8.46667px;line-height:0.7;font-family:Trueno;-inkscape-font-specification:Trueno;stroke-width:0.264583"
       aria-label="L"
       sodipodi:nodetypes="cccccccc" />
    <g
       id="g25"
       transform="translate(0.83199874,-5.9626723)">
      <path
         d="m 70.477985,115.41052 v -5.92833 l 0.66766,0.66948 0.66766,-0.66948 v 4.75837 h 2.54248 l -0.24276,1.13944 z"
         id="path24"
         style="font-size:8.46667px;line-height:0.7;font-family:Trueno;-inkscape-font-specification:Trueno;stroke-width:0.264583"
         aria-label="L"
         sodipodi:nodetypes="cccccccc" />
      <path
         d="m 73.695175,117.56622 h -0.0141 m 0,0 -0.66061,-2.17054 h -2.54248 v -1.16996 h 3.8778 l -0.66061,3.3405"
         id="path25"
         style="font-size:8.46667px;line-height:0.7;font-family:Trueno;-inkscape-font-specification:Trueno;stroke-width:0.264583"
         aria-label="L"
         sodipodi:nodetypes="cccccccc" />
    </g>
    <text
       xml:space="preserve"
       style="font-style:normal;font-variant:normal;font-weight:normal;font-stretch:normal;font-size:16.8411px;line-height:0.7;font-family:Trueno;-inkscape-font-specification:Trueno;stroke-width:0.526283"
       x="-439.21622"
       y="-278.84225"
       id="text10"
       inkscape:export-filename="CardanoLighthingNetwork-L.png"
       inkscape:export-xdpi="96"
       inkscape:export-ydpi="96"><tspan
         sodipodi:role="line"
         id="tspan4"
         style="font-style:normal;font-variant:normal;font-weight:normal;font-stretch:normal;font-family:Trueno;-inkscape-font-specification:Trueno;stroke-width:0.526283"
         x="-439.21622"
         y="-278.84225">CARDANO  <tspan
   style="fill:none;stroke-width:0.526283"
   id="tspan3">L</tspan>IGHTNING</tspan></text>
    <g
       id="g27"
       transform="translate(26.171448,100.95527)">
      <text
         xml:space="preserve"
         style="font-style:normal;font-variant:normal;font-weight:normal;font-stretch:normal;font-size:8.46667px;line-height:0.7;font-family:Trueno;-inkscape-font-specification:Trueno;stroke-width:0.264583"
         x="25.859098"
         y="144.01686"
         id="text11"
         inkscape:export-filename="CLN-L.png"
         inkscape:export-xdpi="96"
         inkscape:export-ydpi="96"><tspan
           sodipodi:role="line"
           id="tspan10"
           style="font-style:normal;font-variant:normal;font-weight:normal;font-stretch:normal;font-family:Trueno;-inkscape-font-specification:Trueno;stroke-width:0.264583"
           x="25.859098"
           y="144.01686">C  N</tspan></text>
      <g
         id="g26"
         transform="translate(0.2648036,-0.02695267)">
        <path
           d="m 35.281956,146.1807 h -0.0141 m -0.66061,-2.17054 -2.824311,-0.0145 0.450387,-1.11833 3.709244,-0.0372 -1.897123,5.29167 z"
           id="path23"
           style="font-size:8.46667px;line-height:0.7;font-family:Trueno;-inkscape-font-specification:Trueno;stroke-width:0.264583"
           aria-label="L"
           sodipodi:nodetypes="cccccccc" />
        <path
           d="m 31.783291,143.99356 0.561293,-5.93148 c 0.445126,0.007 1.871069,0.0321 2.316192,0.0295 l -1.306525,4.76449 h 2.54248 l -0.582435,1.04866 z"
           id="path26"
           style="font-size:8.46667px;line-height:0.7;font-family:Trueno;-inkscape-font-specification:Trueno;stroke-width:0.264583"
           aria-label="L"
           sodipodi:nodetypes="ccccccc" />
      </g>
    </g>
    <rect
       style="fill:#ffffff;stroke:#ffffff;stroke-width:0.0662802"
       id="rect30"
       width="78.755959"
       height="78.737038"
       x="-335.55673"
       y="-191.39003"
       inkscape:export-filename="logo-small-twitter.png"
       inkscape:export-xdpi="92.400002"
       inkscape:export-ydpi="92.400002" />
    <text
       xml:space="preserve"
       style="font-style:normal;font-variant:normal;font-weight:normal;font-stretch:normal;font-size:32.6813px;line-height:0.7;font-family:Trueno;-inkscape-font-specification:Trueno;stroke-width:1.02129"
       x="-327.43982"
       y="-139.81395"
       id="text28"
       inkscape:export-filename="CLN-L.png"
       inkscape:export-xdpi="96"
       inkscape:export-ydpi="96"><tspan
         sodipodi:role="line"
         id="tspan28"
         style="font-style:normal;font-variant:normal;font-weight:normal;font-stretch:normal;font-family:Trueno;-inkscape-font-specification:Trueno;stroke-width:1.02129"
         x="-327.43982"
         y="-139.81395">C  N</tspan></text>
    <g
       id="g29"
       transform="matrix(3.859995,0,0,3.859995,-426.23367,-695.82235)">
      <path
         d="m 35.281956,146.1807 h -0.0141 m -0.66061,-2.17054 -2.588801,0.29582 0.214877,-1.42865 3.709244,-0.0372 -1.897123,5.29167 z"
         id="path28"
         style="font-size:8.46667px;line-height:0.7;font-family:Trueno;-inkscape-font-specification:Trueno;stroke-width:0.264583"
         aria-label="L"
         sodipodi:nodetypes="cccccccc" />
      <path
         d="m 31.985207,144.34798 0.359377,-6.2859 c 0.445126,0.007 1.871069,0.0321 2.316192,0.0295 l -1.104609,5.11891 2.340564,-0.35442 -0.582435,1.04866 z"
         id="path29"
         style="font-size:8.46667px;line-height:0.7;font-family:Trueno;-inkscape-font-specification:Trueno;stroke-width:0.264583"
         aria-label="L"
         sodipodi:nodetypes="ccccccc" />
    </g>
    <g
       id="g32"
       transform="matrix(4.1213512,0.17001908,-0.49086708,2.8572961,-410.22939,-694.08611)"
       style="fill:#000000;fill-opacity:1;stroke:none">
      <path
         d="m 35.281956,146.1807 h -0.0141 m -0.66061,-2.17054 -2.588801,0.29582 0.214877,-1.42865 3.709244,-0.0372 -1.897123,5.29167 z"
         id="path31"
         style="font-size:8.46667px;line-height:0.7;font-family:Trueno;-inkscape-font-specification:Trueno;fill:#000000;fill-opacity:1;stroke:none;stroke-width:0.264583"
         aria-label="L"
         sodipodi:nodetypes="cccccccc" />
      <path
         d="m 31.985207,144.34798 0.359377,-6.2859 c 0.445126,0.007 1.871069,0.0321 2.316192,0.0295 l -1.104609,5.11891 2.340564,-0.35442 -0.582435,1.04866 z"
         id="path32"
         style="font-size:8.46667px;line-height:0.7;font-family:Trueno;-inkscape-font-specification:Trueno;fill:#000000;fill-opacity:1;stroke:none;stroke-width:0.264583"
         aria-label="L"
         sodipodi:nodetypes="ccccccc" />
    </g>
    <path
       id="path79"
       style="font-size:8.46667px;line-height:0.7;font-family:Trueno;-inkscape-font-specification:Trueno;fill:#000000;fill-opacity:1;stroke:#ffffff;stroke-width:0.295627;stroke-dasharray:none"
       d="m -378.19593,-458.45154 -2.16191,10.97212 5.69263,-1.46746 -2.7073,8.98437 6.13261,-11.09717 -5.32489,0.072 3.16778,-7.46388 c -1.03558,0.009 -3.76527,0.006 -4.79892,0 z m 4.74523,12.59235 -0.0329,2.2e-4 z"
       inkscape:export-filename="../public/logo-black.ico"
       inkscape:export-xdpi="96"
       inkscape:export-ydpi="96" />
    <text
       xml:space="preserve"
       style="font-style:normal;font-variant:normal;font-weight:normal;font-stretch:normal;font-size:20.6699px;line-height:0.7;font-family:Trueno;-inkscape-font-specification:Trueno;stroke:#ffffff;stroke-width:0.27142857;stroke-dasharray:none;fill:#000000"
       x="-384.46939"
       y="-444.98242"
       id="text12"
       inkscape:export-filename="CardanoLighthingNetwork-L.png"
       inkscape:export-xdpi="96"
       inkscape:export-ydpi="96"><tspan
         sodipodi:role="line"
         id="tspan7"
         style="font-style:normal;font-variant:normal;font-weight:normal;font-stretch:normal;font-family:Trueno;-inkscape-font-specification:Trueno;stroke:#ffffff;stroke-width:0.27142857;stroke-dasharray:none;fill:#000000"
         x="-384.46939"
         y="-444.98242">C </tspan></text>
    <g
       id="g13"
       transform="matrix(3.2101266,0.82632168,-0.79994163,2.5646362,-408.42798,-716.21408)"
       style="fill:#000000;fill-opacity:1;stroke:none">
      <path
         d="m 35.281956,146.1807 h -0.0141 m -0.66061,-2.17054 -2.588801,0.29582 0.214877,-1.42865 3.709244,-0.0372 -1.897123,5.29167 z"
         id="path12"
         style="font-size:8.46667px;line-height:0.7;font-family:Trueno;-inkscape-font-specification:Trueno;fill:#000000;fill-opacity:1;stroke:none;stroke-width:0.264583"
         aria-label="L"
         sodipodi:nodetypes="cccccccc" />
      <path
         d="m 31.985207,144.34798 0.359377,-6.2859 c 0.445126,0.007 1.871069,0.0321 2.316192,0.0295 l -1.104609,5.11891 2.340564,-0.35442 -0.582435,1.04866 z"
         id="path13"
         style="font-size:8.46667px;line-height:0.7;font-family:Trueno;-inkscape-font-specification:Trueno;fill:#000000;fill-opacity:1;stroke:none;stroke-width:0.264583"
         aria-label="L"
         sodipodi:nodetypes="ccccccc" />
    </g>
    <g
       id="g1"
       inkscape:export-filename="../public/full-white.svg"
       inkscape:export-xdpi="96"
       inkscape:export-ydpi="96"
       style="fill:#f3f4f6;fill-opacity:1">
      <path
         id="path14"
         style="font-size:8.46667px;line-height:0.7;font-family:Trueno;-inkscape-font-specification:Trueno;fill:#f3f4f6;fill-opacity:1;stroke:none;stroke-width:0.521942;stroke-dasharray:none"
         d="m -287.96483,-408.65628 -3.65648,17.75556 9.62806,-2.48194 -4.5789,15.19545 10.3722,-18.76888 -9.0061,0.12181 5.35774,-11.822 c -1.7515,0.0152 -6.36828,0.01 -8.11652,0 z m 8.02572,20.49589 -0.0557,3.7e-4 z"
         inkscape:export-filename="new-logo.svg"
         inkscape:export-xdpi="96"
         inkscape:export-ydpi="96"
         sodipodi:nodetypes="ccccccccccc" />
      <text
         xml:space="preserve"
         style="font-style:normal;font-variant:normal;font-weight:normal;font-stretch:normal;font-size:16.8411px;line-height:0.7;font-family:Trueno;-inkscape-font-specification:Trueno;fill:#f3f4f6;stroke:none;stroke-width:0.549379;stroke-dasharray:none;fill-opacity:1"
         x="-276.31183"
         y="-396.82678"
         id="text17"
         inkscape:export-filename="CardanoLighthingNetwork-L.png"
         inkscape:export-xdpi="96"
         inkscape:export-ydpi="96"><tspan
           sodipodi:role="line"
           id="tspan17"
           style="font-style:normal;font-variant:normal;font-weight:normal;font-stretch:normal;font-family:Trueno;-inkscape-font-specification:Trueno;fill:#f3f4f6;stroke:none;stroke-width:0.549379;stroke-dasharray:none;fill-opacity:1"
           x="-276.31183"
           y="-396.82678">IGHTNING</tspan></text>
    </g>
    <text
       xml:space="preserve"
       style="font-style:normal;font-variant:normal;font-weight:normal;font-stretch:normal;font-size:16.8411px;line-height:0.7;font-family:Trueno;-inkscape-font-specification:Trueno;fill:#f3f4f6;stroke:none;stroke-width:0.549379;stroke-dasharray:none;fill-opacity:1"
       x="-380.61697"
       y="-396.82678"
       id="text21"
       inkscape:export-filename="CardanoLighthingNetwork-L.png"
       inkscape:export-xdpi="96"
       inkscape:export-ydpi="96"><tspan
         sodipodi:role="line"
         id="tspan21"
         style="font-style:normal;font-variant:normal;font-weight:normal;font-stretch:normal;font-family:Trueno;-inkscape-font-specification:Trueno;fill:#f3f4f6;stroke:none;stroke-width:0.549379;stroke-dasharray:none;fill-opacity:1"
         x="-380.61697"
         y="-396.82678">CARDANO</tspan></text>
    <path
       id="path15"
       style="font-size:8.46667px;line-height:0.7;font-family:Trueno;-inkscape-font-specification:Trueno;fill:#000000;fill-opacity:1;stroke:#ffffff;stroke-width:0.295627;stroke-dasharray:none"
       d="m -378.19593,-458.45154 -2.16191,10.97212 2.73699,-0.70711 1.05606,-2.80115 3.16778,-7.46388 c -1.03558,0.009 -3.76527,0.006 -4.79892,0 z"
       inkscape:export-filename="lightning-icon.svg"
       inkscape:export-xdpi="96"
       inkscape:export-ydpi="96"
       sodipodi:nodetypes="cccccsc" />
    <path
       style="fill:#000000;stroke:none;stroke-width:0.188988px;stroke-linecap:butt;stroke-linejoin:miter;stroke-opacity:1"
       d="m -377.66813,-450.82685 4.06431,-0.0372 -0.67567,1.75694 -4.24898,1.00543 z"
       id="path16"
       sodipodi:nodetypes="ccccc" />
    <rect
       style="fill:#000000;stroke:#ffffff;stroke-width:0.28733;stroke-dasharray:none"
       id="rect31"
       width="20.042948"
       height="20.001663"
       x="-348.67499"
       y="-470.08163"
       ry="10.000832" />
    <g
       id="g31"
       transform="translate(-0.27994838,-0.20767979)">
      <path
         id="path17"
         style="font-size:8.46667px;line-height:0.7;font-family:Trueno;-inkscape-font-specification:Trueno;fill:#000000;fill-opacity:1;stroke:#ffffff;stroke-width:0.295627;stroke-dasharray:none"
         d="m -340.29826,-465.97688 -2.16191,10.97212 5.69263,-1.46746 -2.7073,8.98437 6.13261,-11.09717 -5.32489,0.072 3.16778,-7.46388 c -1.03558,0.009 -3.76527,0.006 -4.79892,0 z m 4.74523,12.59235 -0.0329,2.2e-4 z"
         inkscape:export-filename="../public/logo-black.ico"
         inkscape:export-xdpi="96"
         inkscape:export-ydpi="96" />
      <path
         id="path27"
         style="font-size:8.46667px;line-height:0.7;font-family:Trueno;-inkscape-font-specification:Trueno;fill:#000000;fill-opacity:1;stroke:#ffffff;stroke-width:0.295627;stroke-dasharray:none"
         d="m -340.29826,-465.97688 -2.16191,10.97212 2.73699,-0.70711 1.05606,-2.80115 3.16778,-7.46388 c -1.03558,0.009 -3.76527,0.006 -4.79892,0 z"
         inkscape:export-filename="lightning-icon.svg"
         inkscape:export-xdpi="96"
         inkscape:export-ydpi="96"
         sodipodi:nodetypes="cccccsc" />
      <path
         style="fill:#000000;stroke:none;stroke-width:0.188988px;stroke-linecap:butt;stroke-linejoin:miter;stroke-opacity:1"
         d="m -339.77046,-458.35219 4.06431,-0.0372 -0.67567,1.75694 -4.24898,1.00543 z"
         id="path30"
         sodipodi:nodetypes="ccccc" />
    </g>
    <rect
       style="fill:#ffffff;stroke:#ffffff;stroke-width:0.142928"
       id="rect2"
       width="294.30344"
       height="97.979393"
       x="-813.89771"
       y="-670.12787"
       inkscape:export-filename="logo-twitter.png"
       inkscape:export-xdpi="92.400002"
       inkscape:export-ydpi="92.400002" />
    <path
       d="m -809.06428,-616.19682 q 0,-1.92272 0.72887,-3.60665 0.74143,-1.69649 2.01069,-2.90291 1.2818,-1.2064 3.06626,-1.89758 1.78449,-0.70373 3.79518,-0.70373 1.94785,0 3.85797,0.81684 1.91017,0.80427 3.24221,2.17405 l -2.36253,2.87777 q -0.92995,-1.06817 -2.18662,-1.69652 -1.25667,-0.64091 -2.50078,-0.64091 -2.32484,0 -3.90825,1.596 -1.57083,1.58341 -1.57083,3.93339 0,2.34998 1.57083,3.9585 1.58341,1.596 3.90825,1.596 1.20642,0 2.46309,-0.56552 1.25666,-0.57806 2.22431,-1.54571 l 2.38768,2.60133 q -1.44517,1.48286 -3.39302,2.34998 -1.93526,0.86709 -3.88312,0.86709 -2.65158,0 -4.82562,-1.20641 -2.16148,-1.2064 -3.393,-3.3176 -1.23157,-2.11121 -1.23157,-4.68741 z m 16.91483,9.03548 7.8165,-18.02069 h 4.1973 l 7.70341,18.02069 h -4.34808 l -1.42006,-3.50613 h -8.3443 l -1.40748,3.50613 z m 6.94941,-6.77347 h 5.68017 l -2.82753,-6.99966 z m 14.64023,6.77347 v -18.02069 h 7.81651 q 3.53126,0 5.45398,1.63366 1.93525,1.6337 1.93525,4.62458 0,2.07351 -0.86709,3.55637 -0.85453,1.48289 -2.50078,2.26201 l 3.83287,5.94407 h -4.61199 l -2.85266,-5.15236 h -0.38958 -3.75745 v 5.15236 z m 4.05906,-8.54538 h 3.75745 q 1.69652,0 2.6139,-0.77912 0.91736,-0.77915 0.91736,-2.31229 0,-1.48289 -0.91736,-2.23686 -0.91738,-0.76657 -2.6139,-0.76657 h -3.75745 z m 14.56484,8.54538 v -18.02069 h 7.6406 q 2.76466,0 4.91359,1.14356 2.16145,1.13101 3.35533,3.19197 1.20639,2.04837 1.20639,4.67482 0,2.62644 -1.21899,4.67482 -1.20638,2.04838 -3.40556,3.19197 -2.18663,1.14355 -5.00156,1.14355 z m 4.05906,-3.41815 h 3.68206 q 2.27456,0 3.7449,-1.55828 1.48286,-1.55826 1.48286,-4.00877 0,-2.4631 -1.53314,-4.03392 -1.53314,-1.57086 -3.87056,-1.57086 h -3.50612 z m 13.16995,3.41815 7.81651,-18.02069 h 4.19728 l 7.70342,18.02069 h -4.3481 l -1.42003,-3.50613 h -8.34433 l -1.40747,3.50613 z m 6.94939,-6.77347 h 5.68019 l -2.82753,-6.99966 z m 14.64026,6.77347 v -18.02069 h 3.7072 l 8.74644,11.58652 v -11.58652 h 3.85797 v 18.02069 h -3.70717 l -8.72133,-11.56137 v 11.56137 z m 18.97575,-9.01034 q 0,-2.58875 1.2567,-4.67482 1.26923,-2.09866 3.48099,-3.27991 2.22428,-1.18128 4.9387,-1.18128 2.71442,0 4.92618,1.19383 2.22432,1.18129 3.48099,3.27991 1.26922,2.0861 1.26922,4.66227 0,2.56361 -1.26922,4.67482 -1.25667,2.09865 -3.48099,3.30505 -2.21176,1.20641 -4.92618,1.20641 -2.71442,0 -4.9387,-1.19383 -2.21176,-1.20642 -3.48099,-3.30505 -1.2567,-2.11123 -1.2567,-4.6874 z m 4.17217,0 q 0,1.16869 0.43982,2.22432 0.45241,1.04303 1.19387,1.79704 0.75398,0.74143 1.77191,1.18125 1.03045,0.43986 2.14889,0.43986 2.27461,0 3.87057,-1.63369 1.59596,-1.64625 1.59596,-4.00878 0,-2.36254 -1.59596,-3.97108 -1.59596,-1.60856 -3.87057,-1.60856 -2.29969,0 -3.93339,1.62111 -1.6211,1.60855 -1.6211,3.95853 z m 24.05273,9.01034 v -18.02069 h 4.05906 v 14.46432 h 7.72854 v 3.55637 z m 14.20041,0 v -18.02069 h 4.05906 v 18.02069 z m 6.76092,-9.01034 q 0,-2.56362 1.28181,-4.64968 1.28178,-2.09866 3.53123,-3.2925 2.26202,-1.19383 5.02671,-1.19383 1.98554,0 3.90825,0.71629 1.93526,0.70374 3.31762,1.91016 l -2.28714,2.90291 q -1.00534,-0.92995 -2.32488,-1.45774 -1.30691,-0.54039 -2.61385,-0.54039 -2.40026,0 -4.03392,1.62114 -1.63369,1.60852 -1.63369,3.98364 0,2.38768 1.64625,4.02136 1.64624,1.62111 4.0465,1.62111 1.59596,0 3.51867,-0.9802 v -4.73766 h 3.53127 v 6.92425 q -1.4452,1.05562 -3.44329,1.69653 -1.99814,0.64089 -3.87057,0.64089 -2.68927,0 -4.88846,-1.19383 -2.19917,-1.20642 -3.45584,-3.30505 -1.25667,-2.11123 -1.25667,-4.6874 z m 20.45864,9.01034 v -18.02069 h 4.05906 v 7.51491 h 8.15581 v -7.51491 h 4.0716 v 18.02069 h -4.0716 v -7.10018 h -8.15581 v 7.10018 z m 18.46052,-14.56484 v -3.45585 h 15.05494 v 3.45585 h -5.50422 v 14.56484 h -4.05905 v -14.56484 z m 17.24157,14.56484 v -18.02069 h 3.70716 l 8.74647,11.58652 v -11.58652 h 3.85798 v 18.02069 h -3.70718 l -8.72132,-11.56137 v 11.56137 z m 20.27014,0 v -18.02069 h 4.05906 v 18.02069 z m 8.05528,0 v -18.02069 h 3.70718 l 8.74646,11.58652 v -11.58652 h 3.85797 v 18.02069 h -3.70717 l -8.72133,-11.56137 v 11.56137 z m 18.97578,-9.01034 q 0,-2.56362 1.28182,-4.64968 1.2818,-2.09866 3.53123,-3.2925 2.26204,-1.19383 5.0267,-1.19383 1.98554,0 3.90826,0.71629 1.93526,0.70374 3.31763,1.91016 l -2.28716,2.90291 q -1.00534,-0.92995 -2.32483,-1.45774 -1.30696,-0.54039 -2.6139,-0.54039 -2.40026,0 -4.03392,1.62114 -1.63369,1.60852 -1.63369,3.98364 0,2.38768 1.64625,4.02136 1.64624,1.62111 4.0465,1.62111 1.59596,0 3.51868,-0.9802 v -4.73766 h 3.53126 v 6.92425 q -1.4452,1.05562 -3.44329,1.69653 -1.9981,0.64089 -3.87057,0.64089 -2.68927,0 -4.88845,-1.19383 -2.19918,-1.20642 -3.45585,-3.30505 -1.25667,-2.11123 -1.25667,-4.6874 z"
       id="text14"
       style="font-size:8.46667px;line-height:0.7;font-family:Trueno;-inkscape-font-specification:Trueno;stroke-width:0.80427"
       aria-label="CARDANO LIGHTNING" />
  </g>
</svg>
