<?xml version="1.0" encoding="UTF-8" standalone="no"?>
<svg
   width="1872"
   height="525.11304"
   viewBox="0 0 1872 525.11304"
   version="1.1"
   id="svg182"
   sodipodi:docname="6.svg"
   xmlns:inkscape="http://www.inkscape.org/namespaces/inkscape"
   xmlns:sodipodi="http://sodipodi.sourceforge.net/DTD/sodipodi-0.dtd"
   xmlns:xlink="http://www.w3.org/1999/xlink"
   xmlns="http://www.w3.org/2000/svg"
   xmlns:svg="http://www.w3.org/2000/svg">
  <sodipodi:namedview
     id="namedview182"
     pagecolor="#ffffff"
     bordercolor="#666666"
     borderopacity="1.0"
     inkscape:showpageshadow="2"
     inkscape:pageopacity="0.0"
     inkscape:pagecheckerboard="0"
     inkscape:deskcolor="#d1d1d1" />
  <use
     xlink:href="#source-5"
     transform="rotate(90,1077.1015,794.89848)"
     id="use1" />
  <path
     fill-rule="nonzero"
     fill="#000000"
     fill-opacity="1"
     d="m 1148.8008,490.96103 c -3.4883,-14.30078 -6.3985,-31.0664 -8.9024,-48.16406 -3.9296,-9.57031 -6.7421,-16.21094 -11.0859,-24.25391 -2.457,-3.4375 -4.9141,-6.8789 -7.3711,-10.3164 -4.5664,-6.27344 -14.6211,-13.33203 -19.2969,-15.88282 -4.6757,-1.96093 -10.957,-2.8789 -15.7226,-3.28906 -5.0391,-0.4375 -10.5625,-0.4375 -15.6016,0 -6.9375,1.48438 -13.9765,2.33985 -20.9648,5.91016 -7.0078,4.40234 -14.8633,10.23047 -18.8672,15.55469 -5.8164,7.74609 -14.9844,20.18359 -18.918,29.23828 -1.6406,3.78125 -4.3555,9.89453 -6.793,15.13281 -1.2812,9.53516 -6.62105,18.03125 -7.45699,31.31641 0.70313,9.87109 1.41016,19.74218 2.11328,29.61328 0.52731,1.40234 2.09371,2.10937 3.32811,1.14843 1.9219,-6.77343 1.6524,-18.47265 -0.1797,-25.30078 -0.2383,-5.85156 1.7735,-18.84765 3.5938,-25.0625 1.5351,-5.22656 4.9844,-13.47656 6.8789,-17.41015 3.7734,-7.83985 11.8594,-19.82813 19.3125,-31.16407 2,-3.03906 5.3828,-6.76953 9.25,-10.40625 3.4766,-3.26953 8.1016,-7.28906 11.8984,-8.71093 5.5977,-2.09375 12.6485,-4.17578 17.1524,-4.88672 6.2187,-0.98047 13.8906,-0.63281 20.1914,1.57812 4.4062,1.55078 9.4375,3.62891 13.5976,6.0625 3.3086,1.94141 7.1993,5.2461 9.4727,7.78125 4.5039,7.87891 9.0078,15.75782 13.5117,23.63672 1.8906,3.75 5.2266,11.71875 5.7891,15.44922 2.5195,20.29297 8.7695,37.01563 9,58.65234 0.5468,1.39844 2.1133,2.13282 3.9258,1.76563 1.2851,-0.25781 1.75,-0.76172 2.1015,-1.83594 1.4805,-4.5039 0.6641,-13.22265 0.043,-16.15625"
     id="path75" />
  <path
     fill-rule="nonzero"
     fill="#000000"
     fill-opacity="1"
     d="m 1136.1641,517.23447 c -1.3633,-1.13672 -5.5899,-2.21484 -7.9493,-2.37109 -29.9179,-3.51172 -51.8085,-4.5625 -81.5625,-6.56641 -10.1679,0.0469 -23.7734,-0.41797 -32.9961,1.61328 -1.4843,0.32813 -5.4843,2.07422 -6.1757,3.89453 -0.5664,1.49219 0.9414,2.07422 2.7265,2.23438 8.0899,0.72265 16.25,-1.15625 21.5625,-1.69922 13.3594,-0.7461 28.9297,1.05078 42.3008,1.85547 19.6445,2.66406 39.1016,3.89453 59.2969,6.67968 2.4453,0.2461 3.625,-1.16015 3.5508,-3.3125 0.01,-0.94921 -0.2461,-1.90234 -0.7539,-2.32812"
     id="path76" />
  <path
     fill-rule="nonzero"
     fill="#000000"
     fill-opacity="1"
     d="m 1115.8516,327.46884 c -3.7149,-4.91406 -9.0977,-9.6875 -13.586,-12.43359 -4.1797,-2.55859 -7.4179,-4.20703 -12.3203,-5 -6.1367,-0.99609 -13.3515,-0.61719 -19.5234,-0.19531 -4.586,0.3125 -11.0781,3.91015 -15.4922,7.375 -5.0039,3.92578 -9.1016,9.60156 -13.8359,14.14062 -2.043,1.95703 -5.5118,8.1836 -6.6563,11.60938 -0.9102,2.72656 -0.6562,6.09765 -0.4102,8.88281 0.4532,5.09766 2.9532,11.19531 5.6719,15.21094 2.7852,4.11719 9.543,10.5625 13.3477,12.8125 4.1679,2.45703 11.5234,5.80859 17.7109,6.80469 6.0156,0.96484 13.0899,0.74218 19.1289,0.21484 8.4063,-0.14453 9.4063,-4.89844 15.8086,-5.85156 6.1602,-4.1836 11.3906,-9.71875 14.586,-14.22657 1.7421,-2.43359 2.6406,-7.70703 2.9687,-11.46093 0.4063,-4.66016 0.5156,-9.48438 -0.016,-12.65235 -0.7774,-4.64062 -4.6406,-11.59765 -7.3828,-15.23047 m -1.5469,37.51172 c -2.3125,3.36328 -8.75,9.89063 -11.4336,11.23438 -4.8008,2.40625 -10.2734,3.86719 -16.5781,5.19531 -3.5742,0.75391 -8.0508,0.89453 -11.3047,0.40625 -3.5352,-0.53125 -7.6602,-1.92969 -12.2344,-3.69531 -4.6758,-1.80469 -11.6875,-6.05469 -16.3945,-11.11719 -2.7813,-2.99219 -4.8828,-7.34375 -6.3125,-11.96875 -1.1367,-3.67969 -1.6992,-8.03906 -0.9688,-11.56641 0.6133,-2.95703 5.4727,-8.12109 9.793,-11.47656 3.5391,-2.74609 7.5352,-5.10547 11.8945,-6.5 2.1094,-0.67578 4.4453,-0.67578 6.5547,-0.36719 2.7774,1.16797 5.5547,2.33594 8.332,3.50391 0.3868,-1.39844 -2.121,-3.72656 -4.1953,-4.38672 -4.7304,-1.50781 -15.4101,-2.07812 -15.0312,-2.32422 2.418,-1.54687 6.0273,-3.32812 8.2578,-3.85156 6.8867,-1.45703 15.5547,-2.30859 22.7266,-1.67187 3.0859,0.60546 7.4843,2.9414 12.3046,6.17578 2.6368,1.76953 5.9454,4.34765 8.1954,7.22656 2.8046,3.58594 6.6757,10.94531 8.2109,15.04687 1.1133,2.96094 0.9258,9.04688 0.1797,13.67969 -0.3399,2.14063 -0.7891,4.70313 -1.9961,6.45703"
     id="path77" />
  <path
     fill-rule="nonzero"
     fill="#000000"
     fill-opacity="1"
     d="m 1520.3164,361.47666 c -5.0234,1.45312 -12.0039,5.30859 -15.7656,7.3789 -5.4649,3.00391 -10.6719,7.79688 -15.1992,12 -7.4532,8.75391 -10.6719,9.59375 -18,20.51172 -2.6485,4.55469 -4.8164,8.28906 -6.1836,12.2461 -3.3789,9.7539 -4.4532,20.88281 -5.2266,31.21875 2.9063,18.8164 0.4453,27.96875 4.043,44.58984 1.1406,0.91797 3.4648,0.89844 4.5234,-0.008 0.707,-0.60157 0.8672,-1.66407 0.9531,-2.78907 1.0704,-14.0625 -2.1367,-31.65234 -2.3632,-42.37109 1.3945,-9.45312 2.5351,-17.80469 4.8632,-26.75391 0.8594,-3.3125 2.5782,-7.02343 4.1797,-10.0039 3.418,-6.35547 10.9219,-15.42578 19.3985,-23.83985 3.0351,-2.41406 6.0703,-4.82812 9.1054,-7.24609 4.5118,-3.61719 16.8946,-9.92578 24.7539,-12.84375 3.4766,-0.30859 6.9493,-0.62109 10.4258,-0.93359 1.5078,-0.64844 1.7266,-1.96094 0.8555,-2.50391 -4.8945,-0.875 -13.8281,-0.57031 -20.3633,1.34766"
     id="path78" />
  <path
     fill-rule="nonzero"
     fill="#000000"
     fill-opacity="1"
     d="m 1575.8242,490.76572 c -14.789,0 -29.5781,0 -44.3672,0 -2.3007,-0.57031 -4.6015,-1.14063 -6.9023,-1.71094 -13.4453,-0.35937 -22.5469,2.02344 -36.1797,1.67969 -5.7148,-0.14453 -15.3672,-4.32031 -21.3047,-4.95313 -1.8086,-0.1914 -3.3906,0.36719 -3.3633,2.21485 0.023,1.83984 1.4766,3.25781 2.9805,3.86328 8.8438,1.67578 17.6875,3.35156 26.5313,5.02734 18.3945,-0.55859 51.2968,0.6836 79.289,0.37891 2.3047,0.21094 5.1289,-1.58203 5.2891,-4.08984 0.2656,-1.91407 -0.7539,-2.29297 -1.9727,-2.41016"
     id="path79" />
  <path
     fill-rule="nonzero"
     fill="#000000"
     fill-opacity="1"
     d="m 1599.957,477.72275 c -1.5,-5.04687 -4.9257,-19.46484 -7.5,-26.47656 -0.2851,-9.84766 -2.5429,-16.03125 -4.2734,-25.79297 -3.4609,-10.36328 -13.4766,-30.11328 -19.4141,-39.28906 -2.0781,-3.21094 -4.2578,-7.19532 -8.0664,-10.6836 -8.7812,-4.59375 -11.664,-7.74609 -19.3359,-10.17968 -2.3672,-0.4336 -5.3359,0.45703 -7.4805,1.41015 -1.4414,0.64063 -2.6562,1.8711 -3.0937,3.94922 -0.2617,1.24219 -0.047,2.53516 0.4375,3.00781 2.7812,1.23438 2.5703,-5.36328 6.5781,-3.73828 6.9258,2.80469 11.043,6.20703 16.6484,9.45703 6.543,7.06641 8.1211,14.28125 13.2227,19.6875 5.8437,11.50391 10.9531,20.45313 14.25,30.99219 4.6641,14.90625 7.707,33.80859 10.2109,46.54297 0.1407,4.46484 0.2774,8.92969 0.418,13.39844 0.2617,1.90625 3.6211,2.34375 5.125,1.11328 1.6016,-1.41016 2.3711,-13.0625 2.2734,-13.39844"
     id="path80" />
  <path
     fill-rule="nonzero"
     fill="#000000"
     fill-opacity="1"
     d="m 1562.4922,308.12119 c -1.418,-2.60156 -3.7852,-5.36719 -6.9844,-8.29297 -4.1406,-3.78516 -7.6836,-6.6875 -11.1367,-8.25781 -3.1953,-1.45313 -8.0508,-4.12891 -13.6523,-4.24219 -5.1485,2.02734 -10.2969,4.05859 -15.4454,6.08984 -3.6015,-0.17578 -6.4687,-0.8125 -10.2734,0.42188 -4.168,1.34765 -8.8164,2.6289 -14.2227,6.38281 -4.746,3.29297 -8.7773,9.09375 -10.2187,12.00391 -1.8789,3.79297 -2.3203,9.35547 -2.1602,13.78906 0.9727,6.43359 4.1993,13.05469 8.2227,19.28125 3.7734,4.96875 9.4102,8.26953 14.4961,11.76562 5.0469,3.46875 10.5742,6.90625 15.7851,8.53125 5.8633,1.83204 13.3672,1.06641 19.3438,0.8086 3.5977,-0.15625 5.2539,-1.79297 8.8164,-4.34375 4.5039,-3.22656 10.2617,-7.19922 13.25,-11.52344 2.5508,-3.69141 4.1094,-8.32422 5.2852,-12.3125 1.5859,-5.39062 2.8945,-12.26562 2.3906,-17.17578 -0.3711,-3.61328 -1.6875,-9.59766 -3.4961,-12.92578 m -16.7188,44.67969 c -3.1132,2.92187 -6.6054,4.53125 -9.9765,5.91406 -2.6875,1.10156 -5.711,1.97265 -8.418,1.96484 -3.582,-0.0117 -8.2695,-0.7539 -11.7617,-1.78125 -4.9883,-1.47265 -10.3945,-5.42969 -15.2774,-8.85937 -2.8867,-2.02344 -5.3164,-4.42969 -7.3203,-7.31641 -3.1445,-4.52344 -7.3125,-11.39453 -7.9023,-13.96094 -0.6797,-2.96875 -0.6797,-9.63281 0.3867,-12.02734 0.7852,-1.75391 3.1953,-8.15625 5.2305,-10.35547 1.6875,-1.82031 5.4687,-4.44922 6.6914,-5.12109 2.9844,-1.64063 11.6562,-4.94532 14.7305,-5.42188 4.6484,-0.72656 10.5156,3.63672 15.3789,2.78906 0.9375,-0.16015 1.3554,-0.54296 1.0937,-1.21093 -0.1601,-0.40235 -2.1445,-2.23047 -3.0195,-2.6875 -1.1953,-0.25391 -2.3906,-0.50782 -3.5899,-0.76172 2.336,-0.69531 11.711,-0.78516 14.6524,0.40625 2.8437,1.14453 8.3086,5.42969 14.2929,11.45312 2.7891,2.8086 4.9922,5.58985 5.9375,8.38672 1.2149,3.60938 1.8399,7.13672 1.8633,10.14453 0.047,6.17969 -1.6289,11.85157 -2.9297,16.78516 -1.6132,4.78125 -6.3711,7.8125 -10.0625,11.66016"
     id="path81" />
  <path
     fill-rule="nonzero"
     fill="#000000"
     fill-opacity="1"
     d="m 1041.0234,410.94541 h 2.875 l -2.875,-2.875 v 2.875"
     id="path82" />
  <path
     fill-rule="nonzero"
     fill="#000000"
     fill-opacity="1"
     d="m 1066.0586,465.57431 c -3.3164,-9.92578 -7.0703,-21.32422 -10.332,-31 -1.3946,-4.14062 -6.4141,-14.59375 -9.8594,-20.875 -1.1719,-2.13281 -3.4336,-5.39843 -4.0625,-4.52734 5.4375,13.82812 10.6484,31.5625 16.2344,43.03906 4.4843,20.94141 5.5664,43.06641 9.5664,62.05078 -0.211,1.71485 2.8593,3.63282 4.5586,2.91016 0.9414,-13.59766 -6.0586,-36.39063 -6.1055,-51.59766"
     id="path83" />
  <path
     fill-rule="nonzero"
     fill="#000000"
     fill-opacity="1"
     d="m 1093.1211,420.32822 c -2.2148,3.54297 -4.4258,7.08594 -6.6367,10.62891 -2.3516,3.6914 -5.1953,13.34375 -5.9063,16.9414 -2.1797,13.56641 -6.8398,27.58203 -8.7265,43.22656 -0.3477,6.36329 0.5664,13.08594 1.8828,19.38282 0.3242,1.54297 1.1406,3.29687 2.6211,3.96093 1.539,0.69532 2.7461,-0.44921 3.0586,-2.27734 -0.8672,-6.33203 -1.7305,-12.66406 -2.5938,-18.99219 0.3399,-10.30859 1.7617,-19.80078 3.4375,-28.64843 1.3164,-6.95704 5.9297,-20.78125 9.9297,-29.77344 2.2188,-4.99219 4.9414,-11.14453 7.6836,-15.26953 1.9805,-1.72266 3.957,-3.44532 5.9336,-5.16797 0.3555,-0.9961 -0.3555,-2.50781 -1.9219,-2.44141 -1.3086,0.0508 -6.6445,5.64844 -8.7617,8.42969"
     id="path84" />
  <path
     fill-rule="nonzero"
     fill="#000000"
     fill-opacity="1"
     d="m 1032.4102,428.17588 h 2.875 l -2.875,-2.875 v 2.875"
     id="path85" />
  <path
     fill-rule="nonzero"
     fill="#000000"
     fill-opacity="1"
     d="m 1022.8867,511.6915 c 8.0352,-0.83594 16.0742,-1.66797 24.1094,-2.50391 2.1133,-1.22265 4.2305,-2.44531 6.3477,-3.66796 2.6093,0.5664 -0.01,7.0664 2.3046,10.125 0.9141,1.01953 2.0039,1.29296 3.2032,0.87109 1.3398,-0.47266 1.8164,-1.32422 2.1875,-2.6875 1.5273,-5.61719 0.9257,-21.92969 -0.082,-26.40234 -3.2304,-13.09766 -6.4609,-26.19532 -9.6914,-39.29297 -0.7695,-8.16407 -0.6875,-15.58203 -3.1718,-24.375 -1.3086,-2.36719 -2.6133,-4.73047 -3.9219,-7.09766 -0.3828,-3.07422 -0.6406,-7.32422 -2.0274,-10.15234 -0.5,-1.01172 -0.9843,-1.48438 -2.2968,-1.72657 -1.8594,-0.34375 -3.2344,0.37891 -3.7618,1.7461 -0.9218,5.01562 -1.8437,10.02734 -2.7656,15.04297 -3.1367,2.44922 -6.2734,4.89453 -9.4101,7.34375 -4.7657,7.75 -9.5977,16.47656 -14.8594,26.16406 -0.75,2.84766 -0.8203,9.48047 -0.5821,10.90234 0.7461,1.14453 1.4883,2.29297 2.2344,3.44141 -0.8164,1.89844 -2.9961,5.48437 -2.3047,8.19141 1.1719,0.71875 2.3438,1.4414 3.5118,2.16015 -1.1836,4.91406 -5.9571,8.96094 -9.7305,14.80469 -0.8867,2.47656 1.668,3.53906 2.7461,4.26562 -0.9844,1.59375 -1.9688,3.1836 -2.9531,4.77735 0.8828,1.3164 1.7656,2.6289 2.6484,3.94531 -0.062,2.35547 -0.7344,5.71875 0.9961,8.18359 0.7656,1.09375 1.793,1.67579 3.1015,1.95313 6.4571,0.89453 9.3438,-5.58984 14.168,-6.01172 m -16.7109,-14.86719 0.9687,-0.3125 -0.3125,0.96875 -0.6562,-0.65625 m 1.5469,-0.89062 -0.5782,-1.14453 0.9688,1.41015 -0.3906,-0.26562 m 0.6367,18.57422 0.5078,-0.10157 0.6367,0.0273 0.2539,0.15625 -0.2539,0.16406 -0.6367,0.0352 -0.5078,-0.0937 v -0.1875 m 2.5429,0.20312 v -1.9414 l 0.2657,0.42968 0.332,0.53907 -0.5977,0.97265 m 1.9883,-30.83594 -0.5781,-1.14453 0.9687,1.41016 -0.3906,-0.26563 m 0,-17.22656 -0.5781,-1.14844 0.9687,1.41016 -0.3906,-0.26172 m 0,-8.61719 -0.5781,-1.14453 0.9687,1.41016 -0.3906,-0.26563 m 1.1446,25.60547 -0.9063,-0.90625 0.9063,-0.91015 0.9101,0.91015 -0.9101,0.90625 m -0.3243,-17.82422 h 1.293 l -0.9687,0.59766 -0.9688,-0.59766 h 0.6445 m 0.4336,-12.76953 -0.3281,-0.0586 -0.4375,-0.16406 -0.168,-0.125 0.3282,0.0586 0.4375,0.16406 0.1679,0.125 m 0.7266,22.71485 h 0.2266 l -0.1719,0.59375 -0.461,0.77343 -0.3906,0.41016 -0.07,-0.35156 0.3945,-0.74219 0.4727,-0.68359 m -2.8281,32.44531 c -2.1368,0.89062 -3.8203,1.1875 -4.1328,-0.17578 -0.3204,-1.39063 0.4765,-4.15235 1.1445,-4.13281 0.8242,2.20312 6.5156,1.12109 6.9414,0.88281 0.1055,0.71094 -2.0742,2.64453 -3.9531,3.42578 m 4.0273,-33.11719 -0.3125,-0.97265 0.9727,0.3125 -0.6602,0.66015 m 2.1641,25.1836 0.9687,-0.3125 -0.3125,0.96875 -0.6562,-0.65625 m 1.2812,-35.52344 v -1.9375 l 0.2656,0.42969 0.3321,0.53906 -0.5977,0.96875 m 3.4453,27.5664 -0.3125,-0.96875 0.9727,0.3125 -0.6602,0.65625 m 0,-8.61328 v -1.9414 l 0.2657,0.43359 0.332,0.53906 -0.5977,0.96875 m 0.4414,14.22266 0.9688,-1.41016 -0.5742,1.14453 -0.3946,0.26563 m 0,-16.60547 0.9688,-0.30859 -0.3086,0.96875 -0.6602,-0.66016 m 1.2813,16.16406 -0.3125,-0.96875 0.9727,0.3125 -0.6602,0.65625 m 0.2656,-8.4375 -0.5781,-1.14453 0.9727,1.41016 -0.3946,-0.26563 m 1.1446,13.54297 -0.9063,-0.90625 0.9063,-0.90625 0.4062,0.40235 0.5039,0.5039 -0.9101,0.90625 m 0,-13.78125 -0.9063,-0.90625 0.9063,-0.91015 0.9101,0.91015 -0.9101,0.90625 m 1.7226,12.0586 -0.9062,-0.90625 0.9062,-0.90625 0.4063,0.40234 0.5039,0.50391 -0.9102,0.90625 m -1.6289,-22.71094 0.4141,-0.41016 0.7812,-0.42969 0.5547,-0.0898 v 0.24609 l -0.6641,0.45313 -0.7422,0.28125 -0.3398,-0.0508 m 2.4453,-2.31641 0.5977,-0.96875 v 1.94141 l -0.5977,-0.97266 m -1.9883,19.69531 -0.3359,-0.125 0.5859,-0.77734 1.0547,-0.92969 1.1289,-0.7539 0.5742,-0.0508 -0.07,0.55468 -0.7929,0.88282 -1.1563,0.82812 -0.9883,0.37109 m 3.2071,-20.44531 -0.3086,-0.97265 0.9687,0.3125 -0.6601,0.66015 m 0.2656,-13.60547 -0.5742,-1.14843 0.9687,1.41015 -0.3945,-0.26172 m 0.2383,29.86328 0.5976,-0.97265 v 1.9414 l -0.5976,-0.96875 m -0.062,-17.53906 0.9726,-1.41406 -0.5781,1.14844 -0.3945,0.26562 m 0.062,-13.47265 0.5976,-0.96875 v 1.9375 l -0.5976,-0.96875 m 1.2187,-0.75391 -0.3086,-0.96875 0.9688,0.3125 -0.6602,0.65625 m -8.5,-16.98828 c -2.2383,3.66797 -7.1875,9.28125 -7.582,8.77734 -0.2656,-0.33594 5.1211,-12.24609 7.5195,-16.34765 2.1211,-3.63672 8.3125,-9.2461 8.4571,-9.09375 1.4492,2.82031 -5.5313,11.35937 -8.3946,16.66406 m 10.6641,26.66797 0.9726,-0.3125 -0.3125,0.97265 -0.6601,-0.66015 m 0.4922,-31.51953 c 0.098,0.004 0.4258,5.54687 -0.3789,8.6289 -0.4649,1.77344 -2.5977,4.62891 -3.4414,4.89844 1.9531,-2.875 2.4804,-13.98047 3.8203,-13.52734 m -0.9492,19.96484 -0.5,-0.15625 0.098,-0.56641 0.543,-0.57031 0.7656,-0.38672 0.6172,-0.0469 0.2812,0.26953 -0.2695,0.54297 -0.7109,0.61328 -0.8242,0.30078 m 2.914,28.53906 0.2344,-0.35547 0.3906,-0.28906 0.2266,0.0703 -0.2344,0.35547 -0.3906,0.28906 -0.2266,-0.0703 m 0.9883,-2.10156 0.9727,-1.41016 -0.5782,1.14453 -0.3945,0.26563 m 1.2773,-65.40625 0.01,-0.39063 0.121,-0.82031 0.1758,-0.84765 0.1563,-0.30079 0.039,0.23438 -0.1328,0.82031 -0.2187,0.83985 -0.1485,0.46484 m 0.8594,64.43359 0.074,-0.48437 0.5039,-0.6211 0.4336,-0.0273 -0.074,0.48828 -0.5039,0.6211 -0.4336,0.0234 M 1040,474.01572 c -4.4805,5.76953 -11.6758,11.47656 -12.1992,11.875 2.7148,-3.87109 5.4297,-7.73828 8.1406,-11.60547 2.2344,-3.88281 -0.6758,-7.07031 1.7149,-6.88281 1.3671,0.6289 3.4804,3.80078 2.3437,6.61328 m 0.6328,6.67969 0.9688,-1.41407 -0.5782,1.14844 -0.3906,0.26563 m -0.8711,-32.08594 0.4922,-0.51953 0.5664,-0.28906 0.2695,0.21484 -0.07,0.47266 -0.4179,0.53906 -0.5625,0.21484 -0.3946,-0.11719 0.1172,-0.51562 m 1.2735,-6.60938 -0.059,0.86719 -0.3633,0.50781 -0.582,-0.14062 -0.4883,-0.6875 -0.1367,-1.11719 0.2304,-0.98828 0.4024,-0.53125 0.4375,0.26953 0.3437,0.78125 0.2149,1.03906 m 0.8789,38.25391 v -1.94141 l 0.2617,0.4336 0.332,0.53515 -0.5937,0.97266 m 0.4414,24.55859 0.9687,-1.41015 -0.5781,1.14844 -0.3906,0.26171 m -4.9688,-2.82421 c -2.082,1.41796 -6.8398,1.96484 -7.1445,0.93359 -0.3047,-1.03906 12.7812,-7.51172 12.4219,-8.19531 0.2382,0.44922 -3.086,5.77343 -5.2774,7.26172 m 4.9688,-74.07813 0.9687,-0.3125 -0.3125,0.97266 -0.6562,-0.66016 m 2.1133,33.57031 h -0.5704 l -0.5742,-1.14843 1.1446,0.57812 v 0.57031 m -1.7344,27.91797 -1.4805,1.52344 -1.4805,1.25391 -1.0664,0.6289 -0.2812,-0.33203 0.6797,-1.08203 1.2304,-1.49609 1.3282,-1.56641 1.1015,-1.38281 0.8985,-1.00391 0.8047,-0.52344 0.6093,-0.0742 0.25,0.33985 -0.3711,0.89453 -0.914,1.28906 -1.3086,1.53125 m 2.9922,-54.14062 -0.1289,0.1875 -0.5508,0.0625 -0.5508,-0.0625 -0.1289,-0.1875 0.3828,-0.12891 h 0.5938 l 0.3828,0.12891 m -0.1055,5.54687 v -0.57031 l 1.1484,-0.57422 -0.5781,1.14453 h -0.5703 m 3.2773,58.7461 c -0.7109,0.90234 -4.2968,3.71875 -4.6992,3.66796 -1.332,-0.16406 3.8555,-7.5664 4.5547,-7.91406 0.6406,-0.3125 0.8906,3.30078 0.1445,4.2461"
     id="path86" />
  <path
     fill-rule="nonzero"
     fill="#000000"
     fill-opacity="1"
     d="m 1142.5156,516.38681 c -1.4375,-2.02734 -4.9804,-1.375 -6.3593,-1.73828 1.6718,-0.42578 3.3437,-0.84765 5.0156,-1.27344 1.2969,-1.8164 -3.7891,-3.01953 -4.4336,-3.17187 0.2695,0.008 3.9648,0.73437 4.1406,-2.83594 1.4024,-4.70703 2.6719,-13.94922 2.3359,-17.48437 -2.9882,-18.1875 -10.7812,-38.70313 -14.5585,-59.19141 -1.2032,-3.20703 -5.9883,-9.20703 -9.629,-13.40625 -1.0078,-1.16406 -7.8359,-6.15625 -8.8437,-6.60937 -0.8477,-0.37891 -2.0898,-0.17969 -3.1641,0.29296 -1.9453,2.38672 -3.8906,4.77344 -5.832,7.16407 -1.3828,1.09375 -3.3164,-1.6875 -6.0781,1.83593 -5.2813,6.98829 -9.1328,10.66016 -14,19.40625 -1.25,6.44922 -2.5039,12.90235 -3.7578,19.35157 0.3125,2.47656 2.1953,4.12109 3.8047,5.63672 -0.1485,2.1875 -0.293,4.37109 -0.4415,6.55859 0.3086,1.49219 1.1993,2.27344 1.8711,2.60937 0.1368,0.99219 -4.4218,14.19922 -6.2343,17.13282 -1.875,1.97265 -3.75,3.94531 -5.6211,5.91406 -0.8086,3.18359 2.0508,7.38281 3.3633,8.01172 0.1367,1.52734 -5.0821,5.83984 -3.7305,9.23437 0.3555,1.19532 1.0508,1.8086 2.2695,1.90625 3.6211,-0.51172 6.5235,-0.35937 8.4063,-0.24609 2.4453,-1.17188 4.8867,-2.34375 7.3281,-3.51172 5.0039,-0.45312 12.3125,-0.008 17.125,-1.38281 2.6719,-1.6836 5.3398,-3.36719 8.0117,-5.05078 -0.3086,-0.0586 6.9024,7.34375 6.8555,5.88281 -1.4414,0.32422 -2.8828,0.64844 -4.3203,0.96875 -1.2383,0.75781 -2.3164,2 -1.7305,2.78125 0.2227,0.30078 7.168,4.21094 9.7148,5.43359 5.8164,1.4375 12.336,0.46875 17.8516,0.32422 2.0391,-0.30078 1.7656,-2.89844 0.6406,-4.54297 m -66.457,-7 0.2617,0.42969 0.707,0.16406 h -1.9414 l 0.9727,-0.59375 m 5.7422,-28.95703 -0.5742,-1.14844 0.9687,1.41407 -0.3945,-0.26563 m 1.1484,-2.05469 0.2656,0.42969 0.7032,0.16797 h -1.9375 l 0.9687,-0.59766 m 0.7539,-1.125 0.9688,-1.41406 -0.5781,1.14844 -0.3907,0.26562 m 1.543,30.7461 -0.5742,-1.14844 0.9687,1.41016 -0.3945,-0.26172 m -0.2617,-31.1875 v -1.94141 l 0.2656,0.42969 0.3281,0.53906 -0.5937,0.97266 m 0.2617,-4.99219 -0.5742,-1.14844 0.9687,1.41016 -0.3945,-0.26172 m 0.2383,35.03125 0.5976,-0.96875 v 1.9375 l -0.5976,-0.96875 m -0.059,-32.42187 0.9687,-0.3125 -0.3125,0.97265 -0.6562,-0.66015 m 0,-5.16797 0.9687,-0.3125 -0.3125,0.97265 -0.6562,-0.66015 m 0,-25.84375 0.9687,-0.3086 -0.3125,0.96875 -0.6562,-0.66015 m 1.2812,-1.0625 -0.3125,-0.96875 0.9688,0.30859 -0.6563,0.66016 m 2.1641,67.6289 0.9687,-1.41015 -0.5742,1.14843 -0.3945,0.26172 m 1.2812,-41.78515 -0.3125,-0.97266 0.9688,0.3125 -0.6563,0.66016 m 0,-18.95313 -0.3125,-0.96875 0.9688,0.3125 -0.6563,0.65625 m 0.4415,9.05469 0.9687,-1.41016 -0.5742,1.14453 -0.3945,0.26563 m 1.2812,-2.16406 -0.3125,-0.96875 0.9688,0.3125 -0.6563,0.65625 m 0.4414,-1.28125 0.9688,-1.41016 -0.5743,1.14453 -0.3945,0.26563 m 2.3672,23.01953 h 1.293 l -0.9688,0.59765 -0.9687,-0.59765 h 0.6445 m 0,-36.17969 h 1.293 l -0.9688,0.59766 -0.9687,-0.59766 h 0.6445 m 1.0781,35.55859 0.9688,-1.41406 -0.5742,1.14844 -0.3946,0.26562 m 0,-8.61718 0.9688,-1.41016 -0.5742,1.14844 -0.3946,0.26172 m 0,-6.89063 0.9688,-1.41015 -0.5742,1.14843 -0.3946,0.26172 m 0,-20.67187 0.9688,-1.41016 -0.5742,1.14453 -0.3946,0.26563 m 1.2813,35.73828 v -1.94141 l 0.2656,0.42969 0.332,0.53906 -0.5976,0.97266 m 0.2656,-53.23047 v -0.57031 l 1.1445,-0.57813 -0.5742,1.14844 h -0.5703 m 0.4922,36.23828 0.3281,-0.72656 0.4453,-0.66797 0.2071,-0.0352 -0.1407,0.55469 -0.4609,0.75781 -0.3711,0.44532 -0.01,-0.32813 m 1.1445,-39.32812 0.086,0.0976 0.1015,0.44531 0.1055,0.39844 -0.086,-0.0976 -0.1015,-0.44532 -0.1055,-0.39843 m 0.2617,82.60156 0.9688,-1.41016 -0.5742,1.14844 -0.3946,0.26172 m 1.2813,-0.44141 v -1.9375 l 0.2656,0.42969 0.332,0.53906 -0.5976,0.96875 m 0,-39.625 -0.3125,-0.96875 0.9726,0.3125 -0.6601,0.65625 m -0.6797,-6.60937 0.1328,-0.71875 0.3203,-0.65625 0.293,-0.0117 0.07,0.55859 -0.2695,0.75391 -0.3203,0.40625 -0.2266,-0.33203 m 1.7695,-2.66016 h 1.293 l -0.9727,0.59375 -0.9687,-0.59375 h 0.6484 m -3.375,-6.14844 c -0.3359,-0.72265 0.3516,-2.59765 1.1563,-3.55468 1.082,-1.28125 3.0195,-1.875 3.3633,-1.30469 0.6015,0.99609 -3.7813,6.45312 -4.5196,4.85937 m 5.9961,12.15235 -0.5781,-1.14844 0.9727,1.41016 -0.3946,-0.26172 m 0.1758,-0.83594 0.9688,-0.3125 -0.3086,0.96875 -0.6602,-0.65625 m 0,-17.23047 0.9688,-0.30859 -0.3086,0.96875 -0.6602,-0.66016 m 3.5,62.58203 -0.1523,0.12891 -0.4454,0.10547 -0.3398,0.0547 0.1523,-0.13281 0.4454,-0.10156 0.3398,-0.0547 m -2.7734,-38.34765 0.1484,-0.69532 0.625,-0.8789 0.793,-0.65625 0.6015,0.0351 0.25,0.52735 -0.2187,0.75 -0.75,0.66406 -0.875,0.34766 -0.5742,-0.0937 m 1.9648,-37.51172 0.2656,0.42968 0.7071,0.16407 h -1.9414 l 0.9687,-0.59375 m 0.7539,74.67578 0.9688,-1.41016 -0.5743,1.14844 -0.3945,0.26172 m 0,-40.72266 0.9688,-0.3125 -0.3086,0.96875 -0.6602,-0.65625 m 0,-34.45703 0.9688,-0.3125 -0.3086,0.97266 -0.6602,-0.66016 m 1.2813,-1.06641 v -1.9375 l 0.2656,0.42969 0.332,0.53906 -0.5976,0.96875 m 0.8203,9.27735 0.016,0.14062 -0.07,-0.32031 -0.066,-0.42969 -0.016,-0.14062 0.066,0.32031 0.07,0.42969 m -0.3789,-12.28125 0.9726,-1.41016 -0.5781,1.14844 -0.3945,0.26172 m 1.4336,31.07812 c -0.625,1.99219 -1.9688,3.31641 -3.3907,2.90235 -0.6875,-2.52344 -1.375,-5.04297 -2.0664,-7.56641 0.336,-1.66797 4.2149,-2.97656 5.125,-2.75781 1.4493,0.35156 1.2149,4.58984 0.3321,7.42187 m -0.1524,-31.51953 v -1.9375 l 0.2656,0.42969 0.3321,0.53906 -0.5977,0.96875 m -0.078,48.34375 c -12.0117,9.28516 -22.8672,27.04297 -32.6797,36.48047 0.4805,-0.19141 7.6602,-12.28125 11,-16.57812 6.9727,-7.7461 13.9414,-15.49219 20.9141,-23.23829 0.5078,-1.75 1.0117,-3.49609 1.5156,-5.24609 0.01,0 0.8203,6.28125 -0.75,8.58203 m 0.8984,-51.125 0.016,0.14063 -0.07,-0.32032 -0.066,-0.42968 -0.016,-0.14453 0.07,0.32031 0.066,0.43359 m -0.3632,62.57813 c -4.8516,5.44531 -22.2618,22.79687 -23.3633,21.94922 3.0781,-8.55079 18.9414,-23.27735 23.5078,-27.4336 1.3711,1.07031 0.7265,4.50391 -0.1445,5.48438 m -1.1641,9.91406 -1.418,1.41406 -1.3008,1.51172 -1.2382,1.49219 -1.3008,1.33203 -1.3399,0.91406 -1.0859,0.36328 -0.4727,-0.29687 0.3516,-0.75 0.9336,-1.11328 1.2812,-1.33203 1.418,-1.51172 1.5391,-1.57032 1.5976,-1.51171 1.6172,-1.33204 1.4805,-0.96875 1.2266,-0.49218 0.6093,0.0859 -0.09,0.52344 -0.9141,0.88672 -1.3594,1.08594 -1.5351,1.26953 m 4.5234,-63.02344 -0.1289,0.19141 -0.5508,0.0625 -0.5546,-0.0625 -0.125,-0.19141 0.3789,-0.125 h 0.5976 l 0.3828,0.125 m 2.1875,40.72656 v 4.73829 l -0.062,1.40234 -0.125,0.875 h -0.1914 l -0.1289,-0.875 -0.062,-1.40234 v -6.31641 l 0.027,-1.40234 0.094,-1.05469 0.1524,-0.35156 0.164,0.35156 0.098,1.05469 0.035,1.40234 v 1.57812 m 3.1133,15.36329 0.5977,-0.97266 v 1.94141 l -0.5977,-0.96875 m 1.8516,-53.41016 c 0.1679,1.16016 0.8515,11.42187 0.2148,11.69922 -0.707,-5.03125 -1.418,-10.0625 -2.1289,-15.09375 0.207,-0.67578 1.6758,1.77734 1.9141,3.39453 m 3.7148,83.46484 0.5117,-0.10156 0.6368,0.0312 0.2539,0.15234 -0.2539,0.16407 -0.6368,0.0351 -0.5117,-0.0937 v -0.1875 m 2.8555,-17.94531 c -1.2383,1.12109 -2.4805,2.24219 -3.7188,3.36328 0.2032,1.0625 0.4063,2.125 0.6094,3.1875 -1.3516,0.51172 -3.9375,1.01953 -5.2656,-0.0586 -1.8399,-0.39453 1.3789,-6.05078 -2.5938,-6.85156 -3.4101,-0.61719 -6.832,4.47265 -7.2265,3.83593 -0.1133,-0.55859 5.6992,-8.30078 6.8476,-8.1914 1.1641,1.74609 3.7071,4.94922 7.2305,4.89843 2.8984,0.4336 2.668,-6.66796 3.3164,-4.60546 0.2578,1.01953 1.0195,3.54296 0.8008,4.42187 m 1.414,-12.86328 -0.3125,-0.96875 0.9688,0.30859 -0.6563,0.66016 m 1.086,30.35156 h 1.293 l -0.9688,0.59766 -0.9687,-0.59766 h 0.6445 m 6.3945,-28.99609 c 0.1328,3.34375 -1.4414,13.05859 -1.7773,13.21875 -1.0977,0.51562 -3.3125,-1.86719 -3.4688,-3.6836 1.1172,-2.66406 2.2344,-5.32812 3.3477,-7.99218 -0.5196,-5.95313 -1.0391,-11.90235 -1.5586,-17.85547 1.1523,5.4375 2.3047,10.875 3.457,16.3125"
     id="path87" />
  <path
     fill-rule="nonzero"
     fill="#000000"
     fill-opacity="1"
     d="m 1069.2383,400.15244 c -2.3555,1.04297 -5.4414,4.48828 -6.3945,6.38281 -1.1602,2.30078 -2.4024,5.0625 -2.6055,7.02734 -0.211,2.01172 0.9219,7.38282 2.3203,8.67188 1.3086,1.21094 5.9727,1.25391 8.5,0.71875 2.457,-0.51953 5.1328,-2.66797 6.8828,-5.29688 1.9297,-2.88671 2.4922,-6.39453 2.0781,-8.71875 -0.7461,-2.21484 -1.8711,-6.53125 -5.4453,-8.30078 -1.7539,-0.875 -3.7578,-1.18359 -5.3359,-0.48437 m 1.7578,11.54297 -0.3281,-0.0586 -0.4375,-0.16406 -0.1641,-0.125 0.3242,0.0586 0.4375,0.16407 0.168,0.125"
     id="path88" />
  <path
     fill-rule="nonzero"
     fill="#000000"
     fill-opacity="1"
     d="m 1063.8945,418.95713 c 0.3047,-0.58594 2.3907,-12.65625 2,-13.38672 -1.2851,-2.94532 -6.3359,2.07422 -7.625,0.23828 -2,-3.76953 -7.8203,-13.22656 -13.2422,-18.19922 -1.4179,-1.30078 -3.4726,-2.25781 -5.1406,-1.90234 -1.6836,0.35546 -2.332,2.03125 -2.2265,3.89453 1.0351,1.93359 2.0742,3.86328 3.1093,5.79687 1.0352,9.71875 2.3868,20.92969 2.1758,30.84375 0.5899,1.84375 2.7852,2.34375 5.5586,1.90625 3.8906,-0.61719 13.9024,-6.34765 15.3906,-9.1914 m -15.4687,-17.58594 0.3633,0.38281 0.07,0.30859 -0.3047,-0.0547 -0.3633,-0.38282 -0.07,-0.30859 0.3047,0.0547 m 0.8203,1.79687 0.9687,-1.41015 -0.5742,1.14453 -0.3945,0.26562 m -0.6992,7.91797 c 0.9414,-1.65234 2.7383,-1.51953 4.4375,-0.77734 1.1367,0.5 1.3515,1.03125 0.4765,2.28125 -3.0625,4.36719 -6.4336,6.41797 -5.9336,8.41015 -0.3789,-1.51562 -0.4492,-7.34375 1.0196,-9.91406"
     id="path89" />
  <path
     fill-rule="nonzero"
     fill="#000000"
     fill-opacity="1"
     d="m 1099.0195,390.82431 c -2.6992,2.53907 -31.9257,30.05078 -31.1367,31.10547 1.2422,-0.39844 2.4883,-0.80078 3.7305,-1.19922 0.4726,0.91016 4.7305,5.9961 7.8398,8.01563 2.4297,1.57422 5.2657,1.8125 7.0664,2.37109 2,0.6211 6.0743,0.44922 8.7266,-1.73437 1.7266,-1.42188 2.1641,-3.14844 2.2266,-5.00391 -0.2852,-4.19922 -1.1407,-8.03516 -0.1993,-12.16797 1.168,-6.58203 6.0196,-14.16015 6.4141,-22.25 -0.7461,-1.41015 -2.9922,-0.71484 -4.668,0.86328 m -20.0781,25.85157 -1.3633,0.95703 -1.082,0.36718 -0.5469,-0.17187 0.25,-0.83203 0.8477,-1.05078 1.1992,-1.01953 1.2227,-0.65625 1.1054,-0.49219 0.7696,-0.2461 0.2578,0.0508 -0.4141,0.70312 -0.957,1.15234 -1.2891,1.23829 m 4.0078,4.9414 -0.9101,-0.91015 0.9101,-0.90625 0.9063,0.90625 -0.9063,0.91015 m 0,-10.43359 0.2656,0.43359 0.7032,0.16406 h -1.9375 l 0.9687,-0.59765 m 5.7813,7.625 c 0.098,-1.7461 1.2031,-4.48047 2.0898,-4.5586 0.2344,-0.0234 1.168,5.17969 0.8399,5.87891 -0.2579,0.54688 -0.9961,0.98047 -1.6133,1.01953 -1.0899,0.0703 -1.3985,-0.83203 -1.3164,-2.33984 m 2.5508,-7.11719 c -0.6485,-0.63281 -0.879,-2.91797 -0.2305,-4.47266 0.9336,-2.23437 3.4297,-4.20312 4.125,-3.82421 0.8594,0.46875 -3.5156,8.66796 -3.8945,8.29687 m 5.1718,-11.71484 0.066,0.0351 -0.027,0.59766 -0.098,0.74219 -0.078,0.36718 -0.055,-0.375 0.1016,-0.73046 0.09,-0.63672"
     id="path90" />
  <path
     fill-rule="nonzero"
     fill="#000000"
     fill-opacity="1"
     d="m 1793.1523,506.29697 c -8.8125,-2.10938 -20.3437,-3.46484 -27.9687,-3.46875 -3.9375,0.57422 -7.875,1.14844 -11.8125,1.72266 -2.1875,-0.57813 -4.3789,-1.15235 -6.5664,-1.72657 -48.8984,-0.0586 -97.7969,-0.11328 -146.6914,-0.17187 -2.875,-0.57422 -5.7461,-1.14844 -8.6211,-1.72656 -29.2891,0 -58.5742,0 -87.8633,0 -2.8789,-0.57422 -5.7617,-1.14844 -8.6406,-1.72266 -24.3672,-1.34375 -50.2891,-1.34375 -74.6524,0 -29.5156,1.62891 -57.8906,3.76953 -84.7031,5.33984 -20.0469,1.42188 -42.6055,-2.10156 -61.0625,-0.76562 -0.5508,0.94531 19.3047,5.51172 23.6406,5.53906 27.5196,0.17188 55.6094,1.52344 83.0782,0.008 14.5507,-0.80468 28.6054,-2.59765 43.0312,-3.45703 16.1445,-0.96484 35.5195,-0.082 49.3438,1.27735 6.2539,-0.47266 12.5078,-0.94922 18.7617,-1.42188 2.293,0.57031 4.5859,1.13672 6.8789,1.70703 29.3711,0.0547 58.7383,0.10938 88.1094,0.16406 2.8711,0.57422 5.7461,1.15235 8.6172,1.72657 48.7304,-0.0547 97.457,-0.11328 146.1875,-0.16797 16.371,0.94531 31.5664,3.99609 48.8671,3.5664 1.8516,-0.0469 3.5235,-0.26171 4.5586,-1.30468 0.6875,-0.69141 0.9414,-1.46094 0.7188,-2.44141 -0.3242,-1.43359 -1.5977,-2.28906 -3.211,-2.67578"
     id="path91" />
  <path
     fill-rule="nonzero"
     fill="#000000"
     fill-opacity="1"
     d="m 1579.5977,504.53134 c -8.125,-0.42187 -16.6836,-0.53906 -24.8086,-0.14062 -13.1524,1.71484 -26.3008,3.42578 -39.4493,5.14062 -7.8789,0.24219 -16.1875,0.58985 -24.0429,-0.0859 -6.4414,-0.55469 -12.086,-4.6211 -17.3867,-4.97266 -1.8008,-0.12109 -3.4219,0.72656 -3.4766,2.34766 -0.062,1.76562 6.9805,5.04687 10.1953,5.7539 6.9453,1.52735 17.5234,3.01563 24.082,2.98828 9.875,-0.0391 27.8672,-4.14062 36.918,-4.6914 8.1836,-0.5 17.0039,1.86719 23.2383,1.64062 3.7773,-0.13672 11.5664,-0.55078 16.2773,-1.8789 1.5118,-0.42578 2.0274,-1.51953 2.0274,-3.15625 0.082,-2.13282 -1.125,-2.97657 -3.5742,-2.94532"
     id="path92" />
  <path
     fill-rule="nonzero"
     fill="#000000"
     fill-opacity="1"
     d="m 1615.8008,501.09384 c -17.4805,-0.82812 -36.961,0.74219 -54.4258,1.74219 -15.0195,0.85938 -39.7578,4.30469 -55.1484,5.125 -9.1172,-0.61719 -18.2305,-1.23437 -27.3477,-1.85547 -7.6953,0.39453 -16.6836,0.65235 -24.1406,1.85157 -1.6719,0.26953 -3.8242,1.18359 -4.3203,2.51171 -0.3789,1.01563 0.2656,1.45313 1.1718,1.58594 7.6563,-1.66797 21.7735,-1.17578 31.4883,-1.08594 8.668,0.082 17.0313,2.25782 25.7227,1.79297 2.875,-0.57422 5.75,-1.14843 8.6289,-1.72656 27.4844,-1.57812 55.4414,-0.22656 82.9375,-1.88672 3.5351,-0.21484 12.3242,-0.51172 17.0391,-1.93359 1.4257,-0.42969 1.9218,-1.53516 1.9179,-3.17578 0.082,-2.14453 -1.0976,-2.98828 -3.5234,-2.94532"
     id="path93" />
  <path
     fill-rule="nonzero"
     fill="#000000"
     fill-opacity="1"
     d="m 1670.3438,491.16416 c -1.2774,-1.67578 -5.504,-4.71485 -7.3243,-6.10938 -4.3984,-3.375 -23.0703,-16.32812 -30.7422,-19.09765 -1.5898,-0.57032 -3.6992,-0.27344 -4.4335,1.26171 -0.5079,1.06641 9.4023,9.46875 13.0546,12.08204 6.0899,4.35937 14.5782,7.29687 19.9532,11.58984 1.5703,2.42578 3.1406,4.84766 4.707,7.27344 1.2812,0.875 3.4453,0.85156 4.5469,-0.14844 1.6054,-1.45703 1.2383,-5.54297 0.2383,-6.85156"
     id="path94" />
  <path
     fill-rule="nonzero"
     fill="#000000"
     fill-opacity="1"
     d="m 1759.9766,456.50791 c -5.2618,1.02343 -10.5235,2.05078 -15.7891,3.07812 -16.5508,0.92188 -33.4258,0.80469 -49.9609,1.72266 -10.0196,0.55469 -22.0586,3.17969 -29.4727,3.5625 -10.1797,0.53515 -18.8555,-3.30469 -27.2422,-3.59375 -2.1328,0.043 -4.8828,0.36719 -7.289,1.82031 -1.1368,0.6875 -2.0274,1.61719 -1.9571,2.53906 0.1172,1.64844 2.2266,2.19532 3.9492,2.33985 7.9024,0.65234 16.0196,1.27734 24.1758,1.72265 10.8555,0.59375 22.3946,0.59766 33.2461,0 20.1641,-2.55468 40.6563,-2.97265 60.4258,-3.8164 4.1133,-0.82813 8.8438,-1.69922 13.7852,-3.66407 1.7421,-0.6914 3.1484,-2.13671 3.0742,-3.38281 -0.1094,-1.78125 -4.2071,-2.68359 -6.9453,-2.32812"
     id="path95" />
  <path
     fill-rule="nonzero"
     fill="#000000"
     fill-opacity="1"
     d="m 1775.3867,461.26963 c -3.1679,1.24218 -9.3125,6.32421 -11.7773,8.54296 -6.3555,5.72266 -13.8242,11.4961 -19.3516,17.6875 -2.3906,3.76954 -8.582,8.33985 -7.832,12.42579 0.4883,1.17187 1.625,1.60937 2.8945,1.59375 1.3477,-0.0156 2.4414,-0.57813 3.4414,-1.37891 10.5196,-8.43359 39.5117,-39.69141 39.5703,-39.43359 -0.2812,-1.29688 -4.2226,-0.50391 -6.9453,0.5625"
     id="path96" />
  <path
     fill-rule="nonzero"
     fill="#000000"
     fill-opacity="1"
     d="m 1676.4922,457.84775 c -2.4922,-1.69141 -4.9844,-3.38281 -7.4766,-5.07422 -1.6562,-1.49219 -7.3711,-9.47265 -9.3359,-12.14844 -0.8867,-1.10156 -2.1758,-1.91796 -2.9961,-1.26171 -0.8125,0.64843 -0.8828,3.32031 -0.1523,4.99218 0.7265,1.65235 2.1953,3.71485 6.3281,8.08985 2.4765,2.625 6.1679,6.3125 9.1523,8.41015 -1.2851,-0.38281 6.9297,3.46485 5.4844,1.70703 0.8945,-1.3164 0.2539,-3.30468 -1.0039,-4.71484"
     id="path97" />
  <path
     fill-rule="nonzero"
     fill="#000000"
     fill-opacity="1"
     d="m 1742.793,419.02353 c -2.6524,-0.20312 -5.4375,0.1875 -7.6563,0.61328 2.2617,-0.43359 -75.332,17.51172 -75.2929,17.72657 0.3125,1.05468 5.7382,1.6289 10.3242,1.33984 7.1445,-0.28125 14.6093,-1.49609 18.1484,-2.23438 18.9531,-4.63671 37.9024,-9.27734 56.8555,-13.91796 1.1015,-0.67579 1.6211,-1.66407 1.1562,-2.34766 -0.4843,-0.71484 -1.914,-1.05859 -3.5351,-1.17969"
     id="path98" />
  <path
     fill-rule="nonzero"
     fill="#000000"
     fill-opacity="1"
     d="m 1744.082,425.08213 c -1.7461,5.30078 -3.4882,10.60546 -5.2343,15.90625 -1.8438,3.93359 -3.6875,7.86718 -5.5313,11.80078 -0.07,1.04687 0.457,2.10937 1.3828,2.51953 1.7539,0.6914 3.2149,-0.30078 4.1719,-1.55469 1.582,-1.96484 2.5117,-4.08203 3.2773,-6.36328 2.0196,-6.01953 3.5625,-13.01172 4.9414,-19.72266 0.4688,-2.28906 1.0274,-4.96484 0.2344,-5.90234 -0.6367,-0.73828 -2.3281,0.59375 -3.2422,3.31641"
     id="path99" />
  <path
     fill-rule="nonzero"
     fill="#000000"
     fill-opacity="1"
     d="m 1350.3711,498.65244 c 0.2617,-3.47266 0.4219,-7.66406 0.027,-11.04297 -0.4648,-1.21875 -0.9336,-2.4375 -1.3984,-3.65234 0.1367,-3.31641 0.2539,-6.67188 -0.039,-9.98047 -0.4023,-4.51953 -0.5312,-10.02735 -1.4765,-14.46094 -0.3516,-0.94922 -0.7031,-1.89844 -1.0586,-2.84375 0.2344,-0.70703 0.4687,-1.41406 0.7031,-2.125 0.055,-0.61719 -0.5039,-0.92969 -1.2891,-0.79688 -0.789,0.13282 -0.9414,0.6211 -0.996,1.36719 -0.4102,5.50391 0.3906,12.08985 0.6875,17.61328 0.4765,1.20703 0.957,2.41797 1.4335,3.625 -0.2617,7.72266 0.5547,16.26953 1.1563,23.46094 0.293,0.23828 0.8437,0.32031 1.2695,0.23828 0.7774,-0.15625 0.9258,-0.64453 0.9805,-1.40234"
     id="path100" />
  <path
     fill-rule="nonzero"
     fill="#000000"
     fill-opacity="1"
     d="m 1384.6797,502.52353 c -15.2695,-0.11719 -30.8164,0.19531 -46.1719,-0.0703 -1.5508,0.0859 -3.5937,0.47656 -5.0469,0.79687 -0.9804,0.21875 -1.9492,1.07813 -2.875,1.75782 -1.2031,0.21875 -2.4101,0.4375 -3.6132,0.65625 -0.9805,0.49218 -2.0079,1.67578 -1.8125,2.01953 0.086,0.14453 7.3789,-0.15625 8.5429,-0.41797 0.75,-0.42578 1.5,-0.84766 2.2461,-1.27344 1.3477,-0.39844 3.2891,-0.69922 4.8281,-0.74609 4.1407,-0.12891 7.8907,0.4375 12.1133,0.70703 10.6836,-1.25781 22.2266,-0.25391 32.3789,-1.18359 0.2344,-0.28516 0.3125,-0.85157 0.2852,-1.26563 -0.051,-0.78125 -0.3281,-0.92969 -0.875,-0.98047"
     id="path101" />
  <path
     fill-rule="nonzero"
     fill="#000000"
     fill-opacity="1"
     d="m 1325.6445,438.98056 c -0.2617,-0.54297 -0.8672,-1.03125 -1.2461,-0.6914 -0.2148,0.19531 -0.3242,0.76562 -0.1914,1.27734 0.2305,0.875 0.8907,1.42578 1.3164,1.14844 0.418,-0.27344 0.375,-1.21094 0.1211,-1.73438"
     id="path102" />
  <path
     fill-rule="nonzero"
     fill="#000000"
     fill-opacity="1"
     d="m 1379.5313,425.59775 c -0.7344,-0.0586 -2.293,-0.10937 -2.5782,0.36328 0.1719,1.12891 0.3438,2.25781 0.5157,3.38672 -0.879,2.65625 -1.4415,5.36719 -2.4258,7.76172 -0.7422,1.80469 -2.543,4.92187 -4.4492,7.23437 -1.211,1.46485 -3.2227,3.83204 -4.8008,4.60157 -2.4649,1.21093 -4.4219,2.63672 -7.0703,3.0625 -4.2461,0.67578 -10.0704,0.67968 -14.3204,-0.004 -4.2773,-0.68359 -9.207,-2.30859 -13.5625,-3.78125 -4.1132,-2.17969 -8.1445,-3.19141 -12.1484,-6.22266 -2.2851,-1.85546 -4.0742,-3.76171 -5.6016,-5.59375 -0.6171,-1.10156 -1.2343,-2.20703 -1.8515,-3.30859 -0.3789,-0.21875 -0.8985,-0.19922 -1.1953,0.0547 -0.4492,0.38281 -0.5196,1.35156 -0.3711,2.07031 0.3554,1.70703 2.957,5.89844 4.539,7.84766 0.7071,0.875 5.6875,4.89843 6.9961,5.32031 7.4961,2.20703 14.1836,4.8125 20.9883,6.39062 6.5156,0.27735 13.0117,0.12891 19.5235,0.0937 1.875,-0.27734 5.7304,-2.40234 7.289,-3.66015 2.1367,-1.72656 4.8477,-4.42578 6.2344,-6.48828 1.332,-1.98828 2.5781,-4.84766 3.1601,-6.50782 0.7266,-2.0625 1.6055,-4.7539 2.1563,-7.2539 0.2852,-1.28125 0.2852,-3.35547 0.043,-4.50391 -0.1407,-0.67969 -0.4141,-0.80859 -1.0703,-0.86328"
     id="path103" />
  <path
     fill-rule="nonzero"
     fill="#000000"
     fill-opacity="1"
     d="m 1375.2539,416.24228 c -2.4883,0.71875 -4.2812,2.26953 -7.1445,2.09766 -11.1836,0.33984 -23.1289,-0.77735 -34.5781,-0.70313 -4.75,0.0312 -9.754,0.46094 -14.4688,0.72657 -1.5508,-0.28907 -2.2852,1.78125 -3.6484,2.12109 -2.3828,0.28906 -4.7696,0.57422 -7.1524,0.85937 -0.4258,0.1836 -0.6445,0.45704 -0.6328,0.90625 0.012,0.46094 0.2383,0.70313 0.6914,0.86719 1.1133,0.40235 3.2149,0.19922 4.5117,0.13672 2.3868,-0.11328 5.043,-1.55859 7.9493,-2.03906 4.246,-0.70703 9.2695,-0.55469 13.6523,-0.80078 11.9492,-0.30469 23.8945,0.29297 35.8398,0.67578 1.4297,-0.125 3.8164,-0.375 5.0704,-0.98047 1.0937,-0.52734 1.8281,-1.71875 1.6484,-2.90625 -0.1016,-0.98047 -0.7266,-0.96875 -1.7383,-0.96094"
     id="path104" />
  <path
     fill-rule="nonzero"
     fill="#000000"
     fill-opacity="1"
     d="m 1334.4531,397.83603 c -2.6445,-0.29687 -5.289,-0.59765 -7.9336,-0.89453 -0.9765,-0.49609 -1.957,-0.99219 -2.9336,-1.49219 -0.6328,-0.14453 -1.6367,-0.14453 -2.2812,0.004 -1.3438,0.30859 -4.2109,1.50391 -5.8399,2.625 -0.8476,0.58203 -2.0351,1.96484 -2.6835,2.69531 -0.4766,0.53906 -1.4922,2.40625 -1.7032,3.40235 -0.078,4.60546 -0.1601,9.43359 0.1172,13.91015 0.1367,0.35547 0.3594,0.59766 0.6719,0.41406 1.0625,-3.65625 -0.1094,-9.15234 0.7305,-13.38671 0.07,-0.23438 4.2343,-5.84766 5.4062,-6.47266 1.1602,-0.61719 3.4649,-0.91016 4.7969,-0.89063 2.664,0.375 5.3086,0.55469 7.6289,1.88672 1.5195,1.42578 3.0469,2.69532 4.293,3.51563 1.5273,2.37109 3.0781,4.78125 4.1445,7.60547 -0.4024,0.96093 -0.8047,1.92187 -1.207,2.8789 -0.1055,0.82032 0.289,1.47266 0.9531,1.4961 1.1211,-0.41407 2.3047,-2.05078 2.4609,-3.53907 0.094,-1.62109 0.1641,-3.71484 -0.1289,-4.9375 -0.2383,-0.98828 -0.9492,-2.60937 -1.7617,-3.98046 -0.8672,-1.46485 -3.1328,-4.03907 -4.7305,-4.83985"
     id="path105" />
  <path
     fill-rule="nonzero"
     fill="#000000"
     fill-opacity="1"
     d="m 1362.7148,407.26181 c 0.9141,-2.35156 1.2422,-5.96875 1.3907,-8.66797 0.1406,-2.53125 -0.4414,-4.0039 -1.1992,-6.67968 -0.4297,-1.52344 -1.3399,-3.58594 -2.5196,-5.04688 -0.9804,-1.21094 -2.457,-2.3125 -3.6445,-3.05469 -0.8047,-0.5 -1.4375,-0.65234 -2.2149,-0.69531 -4.6132,-0.004 -9.3203,-0.14844 -13.8789,0.0781 -1.2812,0.34375 -4.2539,1.65234 -5.8203,2.92968 -1.0664,0.8711 -1.9414,1.97657 -2.3047,2.96875 -0.3867,1.39063 -0.9804,3.46094 -0.2343,4.23047 1.3164,0.23438 2.4179,-3.93359 3.7617,-5.03125 1.2969,-1.10156 3.9648,-2.80859 5.5312,-3.03515 3.3243,-0.48047 7.3438,-0.21485 10.6055,0.50781 1.3516,0.29687 4.6172,2.19922 5.3594,3.01172 1.3672,1.51172 3.7969,7.99609 3.8281,9.08984 0.016,0.45703 -0.9062,4.57422 -1.4062,6.3086 -0.5547,1.9414 -1.5157,3.47265 -3.5938,5.6289 -0.875,0.90625 -1.8711,2.03125 -2.8086,2.47656 -1.1172,0.2461 -2.2344,0.49219 -3.3516,0.73829 -0.25,0.3164 -0.332,0.88281 -0.246,1.3125 0.1093,0.53906 0.3164,0.73828 0.7617,0.89062 1.0508,0.35938 3.2773,0.30078 4.4922,0.082 0.957,-0.17578 2.164,-0.91015 2.9882,-1.72656 1.543,-1.52734 3.8477,-4.63281 4.5039,-6.31641"
     id="path106" />
  <path
     fill-rule="nonzero"
     fill="#000000"
     fill-opacity="1"
     d="m 1376.9805,423.75791 c -0.016,-1.25782 0.2109,-3.07813 -0.6602,-2.92969 -0.5351,0.0586 -1.0469,0.66406 -1.1015,1.39844 -0.059,0.85937 0.4023,2.44531 0.9062,2.71484 0.5234,0.28125 0.7813,-0.39453 0.8555,-1.18359"
     id="path107" />
  <path
     fill-rule="nonzero"
     fill="#000000"
     fill-opacity="1"
     d="m 1311.4141,433.48056 c -0.5703,-1.47265 -1.3243,-3.5 -1.6641,-5.5039 0.098,-1.46485 0.1953,-2.9336 0.293,-4.39844 -0.1289,-0.39453 -0.3907,-0.60547 -0.8399,-0.44531 -0.5781,0.21484 -1.2226,1.14453 -1.5234,1.89453 -0.3047,0.76562 -0.3516,1.5664 -0.3047,2.32812 0.098,1.64844 1.1719,4.14063 1.7656,5.92969 0.2383,0.72266 0.7071,1.28125 1.4375,1.28906 0.7383,0.004 0.9571,-0.54687 0.836,-1.09375"
     id="path108" />
  <path
     fill-rule="nonzero"
     fill="#000000"
     fill-opacity="1"
     d="m 1330.5195,394.15634 c -0.3359,1.16797 -0.2148,3.20313 -0.1093,4.52344 0.062,0.78516 0.2421,1.28906 1.0351,1.44922 0.7735,0.15234 1.375,-0.15625 1.582,-0.73047 0.3477,-0.97265 1.2696,-7.39062 1.043,-7.46094 -0.5273,-0.16796 -3.2773,1.26954 -3.5508,2.21875"
     id="path109" />
  <path
     fill-rule="nonzero"
     fill="#000000"
     fill-opacity="1"
     d="m 1383.6914,418.12119 c 0.6055,-0.94531 1.6328,-2.73047 1.8594,-3.65235 0.4414,-1.80468 0.9375,-5.47265 0.789,-7.35156 -0.094,-1.17187 -0.3085,-4.15234 -1.3398,-5.82422 -1.1211,-1.82031 -3.4687,-5.33984 -4.4922,-6.14453 -1.1601,-0.90625 -3.6289,-2.66797 -5.1328,-3.1875 -1.5156,-0.52734 -3.5977,-0.32812 -5.1367,-0.1875 -1.6641,0.15235 -4.4414,0.6211 -5.8985,1.42188 -0.8007,0.4375 -0.9101,1.35547 -0.8359,2.52343 0.055,0.82422 0.2188,1.375 0.9688,1.5586 3.1718,-0.51563 6.0976,-3.20313 7.8554,-3.40625 0.7617,0.17187 2.3946,1.28906 3.5157,2.16015 1.4882,1.14454 3.8281,3.33594 4.5742,4.8086 0.7343,1.45312 0.9609,3.97265 1.0078,5.57812 0.082,2.76563 0.1445,5.7461 -0.7305,8.4375 -0.3281,1.02344 -2.5156,2.49219 -4.1133,3.17969 -0.8828,0.23828 -1.7695,0.47656 -2.6523,0.71875 -0.2617,0.30078 -0.3633,0.81641 -0.2695,1.35938 0.1015,0.57031 0.3476,1.01562 0.8203,1.34765 0.414,0.28906 0.9726,0.36719 1.4804,0.38672 1.4336,0.0508 3.1485,-0.46875 4.5079,-1.25781 1.0703,-0.625 2.6835,-1.625 3.2226,-2.46875"
     id="path110" />
  <path
     fill-rule="nonzero"
     fill="#000000"
     fill-opacity="1"
     d="m 1332.2539,375.29697 c -1.1484,-0.25 -2.5625,-0.14453 -3.7305,-0.0898 -2.6992,0.33593 -5.5039,2.5625 -8.0781,4.08984 -1.0586,0.81641 -2.6172,3.69531 -2.8789,4.75 -0.5664,2.27734 -0.2344,5.69922 -0.1016,8.10547 0.043,0.75781 0.1836,1.47656 0.875,2.28125 0.418,0.48437 0.9727,0.92578 1.5274,1.09375 0.8281,0.25 1.707,-0.0625 2.1289,-0.63672 0.4258,-0.58203 0.4062,-1.47656 0.051,-1.98047 -0.7383,-0.52344 -1.5039,-0.78906 -1.7539,-1.75781 -0.3125,-1.22656 -0.2617,-3.46485 0.031,-4.75391 0.3633,-1.60547 2.6211,-4.17969 4.1328,-5.26953 1.3516,-0.97266 4.1797,-2.83984 5.5469,-2.86719 2.8633,0.82032 6.1133,2.44141 9.4258,2.55078 0.4883,-0.15234 0.6836,-0.36328 0.7734,-0.78515 0.1133,-0.51953 -0.1172,-1.32813 -0.4336,-1.82422 -1.6211,-1.82031 -5.0312,-1.125 -7.5156,-2.90625"
     id="path111" />
  <path
     fill-rule="nonzero"
     fill="#000000"
     fill-opacity="1"
     d="m 1363.4922,360.254 c -2.9844,4.51953 -5.9609,9.83984 -9.2813,15.86328 -0.6015,1.95703 -2.5742,5.13281 -1.7265,6.36719 0.2617,0.11328 4.875,-3.36328 5.1172,-3.89453 0.3203,-1.13672 0.6718,-2.39844 1.3164,-3.60547 2.4531,-4.59766 4.7109,-6.88672 7.0039,-10.91406 0.5078,-1.39453 0.625,-4.17188 -0.2656,-4.51172 -0.7149,-0.28125 -1.6915,-0.0234 -2.1641,0.69531"
     id="path112" />
  <path
     fill-rule="nonzero"
     fill="#000000"
     fill-opacity="1"
     d="m 1389.1953,373.379 c -0.074,-0.77734 -0.289,-1.18359 -0.8594,-1.73828 -3.332,-3.23047 -8.4648,-6.51953 -12.1406,-8.71484 -0.9883,-1.07813 -1.9726,-2.15235 -2.9609,-3.23047 -1.0391,-0.64844 -2.6172,-0.92969 -3.7774,-0.85547 -0.9297,0.0625 -2.2656,0.30469 -2.7187,0.98828 -0.2266,0.34375 -0.2305,0.84766 -0.016,1.17578 1.289,0.48047 2.5742,0.96094 3.8632,1.44141 2.0938,1.57031 7,7.20312 10.9844,9.97656 1.5742,1.09766 3.4141,2.67187 5.1602,3.23047 0.7968,0.2539 1.6523,0.25781 2.0898,-0.19922 0.4024,-0.41797 0.4414,-1.36719 0.375,-2.07422"
     id="path113" />
  <path
     fill-rule="nonzero"
     fill="#000000"
     fill-opacity="1"
     d="m 1382.3203,378.17978 c -4.3867,3.44922 -8.3008,8.04688 -12.2148,12.125 -1.1172,0.63672 -2.2344,1.27344 -3.3516,1.91016 -0.2226,0.30859 -0.2187,0.82031 0.012,1.11719 0.4649,0.59375 1.7969,0.48046 2.7266,0.41015 1.1445,-0.0898 2.793,-0.30469 3.668,-0.97265 0.7968,-1.11329 1.5898,-2.22266 2.3828,-3.33594 4.8984,-3.16016 5.1289,-5.72656 10.7578,-9.4336 0.7656,-0.99609 0.9609,-2.28515 0.5703,-2.90625 -0.5625,-0.60546 -2.9297,-0.043 -4.5508,1.08594"
     id="path114" />
  <path
     fill-rule="nonzero"
     fill="#000000"
     fill-opacity="1"
     d="m 1329.7656,381.76181 c -0.2109,-0.64453 -0.5312,-1.28906 -1.2109,-1.27343 -0.8711,-0.0274 -1.1406,1.21093 -0.9219,2.26562 0.2344,1.21875 1.7149,2.94141 2.2695,2.625 0.668,-0.38672 0.1368,-2.79297 -0.1367,-3.61719"
     id="path115" />
  <path
     fill-rule="nonzero"
     fill="#000000"
     fill-opacity="1"
     d="m 1346.3086,395.54306 c -0.5391,-0.91015 -2,-1.10156 -2.4023,-0.47265 -0.3282,0.57812 0.5195,1.97265 1.2734,2.91797 0.793,0.99609 2.0273,1.98437 2.625,1.79687 0.8476,-0.58594 -0.4922,-2.61719 -1.4961,-4.24219"
     id="path116" />
  <path
     fill-rule="nonzero"
     fill="#000000"
     fill-opacity="1"
     d="m 1352.1875,392.04697 c 0.6055,-0.68359 1.0039,-3.00781 0.7617,-3.44922 -0.2304,-0.41797 -1.1484,0.25 -2.1758,1.22266 -0.9843,0.93359 -2.1054,2.22656 -1.8437,2.77734 0.2969,0.625 2.6094,0.17188 3.2578,-0.55078"
     id="path117" />
  <path
     fill-rule="nonzero"
     fill="#000000"
     fill-opacity="1"
     d="m 1345.2109,388.59775 c -0.1289,-0.47656 -1.9726,-5.05859 -2.1054,-4.97266 -0.6797,0.4375 -0.6563,4.60157 -0.3125,5.66797 0.1953,0.59766 0.8047,0.94922 1.5664,0.75391 0.7461,-0.19141 1.0156,-0.83984 0.8515,-1.44922"
     id="path118" />
  <path
     fill-rule="nonzero"
     fill="#000000"
     fill-opacity="1"
     d="m 1355.8555,387.83603 c 0.9883,-0.91015 2.875,-4.33984 2.789,-4.97656 -0.078,-0.58203 -2.9492,1.53516 -4.3554,3.30859 -0.6446,0.81641 -0.9297,1.6836 -0.4414,2.1211 0.4765,0.42578 1.3945,0.10937 2.0078,-0.45313"
     id="path119" />
  <path
     fill-rule="nonzero"
     fill="#000000"
     fill-opacity="1"
     d="m 1362.3555,399.87119 c 0.8437,-0.51563 1.5078,-2.10547 1.3867,-2.57031 -0.078,-0.30469 -1.9063,-0.17969 -2.8984,0.60546 -0.6368,0.50391 -0.9375,1.37891 -0.5313,1.87891 0.3828,0.47266 1.3828,0.49219 2.043,0.0859"
     id="path120" />
  <path
     fill-rule="nonzero"
     fill="#000000"
     fill-opacity="1"
     d="m 1322.1797,400.66806 c -0.2774,0.40235 -0.3047,0.92188 -0.2578,1.44922 0.09,0.95703 0.457,2.29688 1.0664,3.04297 0.3672,0.45313 0.7422,0.67969 1.2344,0.66797 0.5039,-0.0117 0.7265,-0.25391 0.8906,-0.71484 0.4101,-1.16016 0.3633,-4.2461 -0.3828,-4.90235 -0.3242,-0.28515 -0.7266,-0.40234 -1.2813,-0.30859 -0.5,0.0859 -0.9883,0.34375 -1.2695,0.76562"
     id="path121" />
  <path
     fill-rule="nonzero"
     fill="#000000"
     fill-opacity="1"
     d="m 1311.2773,403.61728 c -1.0234,-0.47265 -3.3867,-0.61328 -4.1523,0.0937 -0.4531,0.67969 0.2305,2.03125 1.1953,2.33985 1.0469,0.5 2.961,0.95312 3.5899,0.35156 0.6015,-0.57422 0.1406,-2.26172 -0.6329,-2.78516"
     id="path122" />
  <path
     fill-rule="nonzero"
     fill="#000000"
     fill-opacity="1"
     d="m 1432.75,367.46884 c -0.7148,0.1875 -2.1133,1.64454 -2.9297,2.35157 -1.1289,0.97656 -2.5625,3.63672 -4.5,5.51562 -12.4414,10.96094 -29.5273,28.65625 -42.2109,40.42188 -0.6524,0.71484 -1.3906,2.24609 -1.1289,2.74218 0.8398,0.60547 3.4492,0.0859 4.957,-1.04687 2.875,-3.08203 5.75,-6.16797 8.625,-9.25 1.1563,-0.77344 2.3125,-1.54688 3.4727,-2.31641 5.7812,-5.96093 14.3359,-14.58593 22.3828,-22.13281 1.6523,-1.30078 3.3008,-2.60547 4.9492,-3.90625 2.4766,-1.96484 5.7851,-6.15234 8.0976,-9.22266 0.7657,-1.01562 0.9805,-2.23828 0.5782,-2.86718 -0.2696,-0.41797 -1.4063,-0.52344 -2.293,-0.28907"
     id="path123" />
  <path
     fill-rule="nonzero"
     fill="#000000"
     fill-opacity="1"
     d="m 1435.293,363.44931 c -0.7852,-1.08593 -1.5664,-2.16797 -2.3516,-3.2539 -0.6953,-0.74219 -1.457,-1.29297 -2.2617,-1.42578 -0.5274,-0.0859 -1.0547,-0.004 -1.5742,0.24218 -1.4961,0.69922 -3.2071,2.42578 -4.4375,3.4961 -9.3008,10.64843 -18.9141,23.74218 -27.3047,32.27734 -2.3477,4.20703 -5.2188,7.35156 -7.7227,10.875 -0.3515,0.79297 -0.3593,1.65234 0.1289,2.08984 0.5,0.44141 1.4336,0.38672 1.9063,0.0391 0.4922,-0.35938 2.5351,-2.17969 2.9883,-2.80469 0.2109,-0.59375 0.4218,-1.1875 0.6289,-1.78125 1.7929,-1.79297 3.5859,-3.58594 5.3789,-5.375 3.1953,-3.46094 8.5039,-10.89063 11.6562,-14.97656 5.8711,-6.40235 11.7422,-12.8086 17.6133,-19.21485 0.4727,-0.42187 0.9375,-0.79297 1.3867,-0.80859 0.6446,-0.0234 1.375,0.71484 1.875,1.37891 0.5117,0.67578 0.7539,1.28515 0.6328,1.8789 -0.3867,0.75391 -0.7695,1.50391 -1.1523,2.25391 0.047,0.67969 0.707,0.95312 1.543,0.96484 0.5273,0.004 1.0312,-0.12109 1.3164,-0.33594 0.4414,-0.33203 1.1914,-1.45703 1.5351,-2.09765 0.4063,-0.75391 0.4336,-2.17188 0.1289,-2.71875 -0.6367,-0.23438 -1.2773,-0.46875 -1.914,-0.70313"
     id="path124" />
  <path
     fill-rule="nonzero"
     fill="#000000"
     fill-opacity="1"
     d="m 1394.7266,402.18759 c -1.4532,1.07813 -4.8789,4.06641 -6.4805,6.35938 -0.5547,0.79297 -1.4531,1.90234 -1.6836,2.91016 -0.1641,0.71484 -0.094,1.66406 0.3711,2.05468 0.3008,0.25391 0.8164,0.26953 1.1836,0.0625 0.6172,-0.35156 2.5469,-2.28906 2.9414,-2.82812 0.3828,-0.91016 0.7656,-1.82031 1.1523,-2.73438 1.3047,-1.46484 2.6094,-2.92968 3.9141,-4.39843 0.2188,-0.50782 0.2383,-1.02344 0.07,-1.32813 -0.2578,-0.45312 -0.9726,-0.46484 -1.4687,-0.0977"
     id="path125" />
  <path
     fill-rule="nonzero"
     fill="#000000"
     fill-opacity="1"
     d="M 775.40625,8.6552734e-5 C 751.98828,2.0469666 748.42578,2.7071266 740.97266,3.5157166 710.85937,13.445407 686.99219,21.589937 666.80469,29.714937 c -5.35938,2.60937 -13.96485,6.35156 -21.8086,10.80859 -7.21875,4.10156 -13.41406,7.48438 -25.27734,16.12891 -5.52344,4.02734 -22.02734,17.19922 -33.80859,27.5039 -5.0625,4.42579 -20.37891,18.562503 -23.80079,22.796883 -2.12109,2.62891 -14.46484,17.39844 -17.79687,22.24219 -5.19141,8.07422 -5.95313,10.95312 -9.08203,17.54687 -2.65235,6.08594 -4.00781,10.33594 -5.39453,18.16016 -0.6211,4.78125 -2,9.11328 -1.73438,24.79687 0.20703,12.08203 1.23828,17.11328 1.72266,19.19922 0.92969,4.01953 2.05859,8.83985 3.00781,11.51563 1.46094,4.10937 3.29297,7.97656 5.09375,11.82422 3.30469,6.47265 4.23438,9.01953 10.9375,17.75781 3.35547,4.0625 10.86328,11.55859 14.96484,14.96094 4.76954,3.95703 8.32032,6.40234 11.08204,8.03515 2.86718,1.69141 5.85546,3.02344 8.35546,3.95703 4.32422,1.6211 13.58985,3.82422 25.01563,5.52344 7.76562,0.77344 13.18359,2.41406 38.53516,2.23047 26.63281,-0.47656 31.55078,-1.83984 38.89843,-2.73047 12.86328,-2.01172 15.64453,-3.94141 23.6211,-6.01562 6.71484,-2.10547 15.53906,-4.98047 21.875,-8.125 17.80468,-8.19141 42.57812,-24.67579 63.71484,-34.44141 0.57422,-0.71094 1.01172,-1.75781 0.34375,-2.89453 -0.53516,-0.91016 -1.84375,-1.44531 -3.05859,-1.375 -6.78907,3.05078 -9.86328,4.44922 -17.3711,8.1875 -10.66015,6.26562 -21.32422,12.53515 -31.98437,18.80078 -6.57031,3.04297 -16.29297,7.99219 -27.97656,12.51562 -7.04688,2.36719 -15.02735,4.97657 -23.17579,7 -3.14453,0.78125 -8.84765,1.73438 -15.76562,2.48438 -6.16406,0.66797 -12.14453,1.48828 -23.82422,1.73437 -10.04297,0.20704 -22.05859,-0.15625 -29.17187,-0.69921 -16.41407,-1.84375 -22.88672,-3.3125 -31,-5.00782 -5.21875,-1.30859 -7.76563,-2.21484 -11.86719,-4.48047 -5.03125,-2.77734 -7.88281,-4.74609 -14.01953,-9.67968 -6.08203,-4.89453 -7.56641,-6.52344 -10.29297,-9.64453 -3.96485,-4.53907 -7.41016,-10.0586 -9.4375,-13.55469 -3.08203,-5.3125 -5.10156,-9.66797 -7.67578,-16.56641 -1.46875,-3.9375 -3.22266,-8.82031 -4.46875,-15.87109 -0.3711,-2.09375 -1.07813,-7.97266 -1.21875,-14.86719 -0.1211,-5.95703 0.0156,-8.02734 0.33593,-11.88281 0.6211,-7.41406 1.55469,-11.80078 2.3711,-14.95313 1.23828,-4.76953 2.05469,-8.45703 4.08594,-13.38672 3.09375,-5.85937 6.1875,-11.72265 9.28515,-17.58203 2.8711,-4.17578 12.87891,-16.14843 17.86328,-21.54687 4.95313,-5.36719 11.6836,-11.953133 17.42188,-17.523443 5.97656,-5.80078 29.85937,-25.23437 35.86719,-29.625 14.85546,-10.14453 20.73828,-13.95703 30.27343,-19.36328 8.69532,-4.61328 14.45313,-7.24609 19.88282,-9.65234 5.15625,-2.28516 13.80468,-5.53516 19.30078,-7.50782 22.3164,-6.28906 28.73437,-11.01172 53.58593,-18.0312504 5.82813,-1.72265 24.5586,-4.30078 36.16407,-5.71093 2.95312,-0.11719 4.73047,0.79296 6.32812,1.42578 1.22266,0.28515 1.26953,-1.02344 0.65235,-2.00391 -1.53516,-1.12109 -4.35547,-2.14062005 -10.97266,-2.128910047266"
     id="path126" />
  <path
     fill-rule="nonzero"
     fill="#000000"
     fill-opacity="1"
     d="m 986.42578,316.54306 c -3.07031,-2.60547 -6.87109,-4.65625 -8.28516,-5.32031 -16.6289,-6.84766 -36.02734,-13.77344 -50.5625,-20.25 -15.71093,-9.25781 -27.73046,-13.79297 -40.46875,-20.32422 -12.84375,-5.17969 -25.6875,-10.35937 -38.53125,-15.53906 -16.20312,-7.90625 -32.40625,-15.81641 -48.60546,-23.72656 -0.78907,-0.26172 -1.48047,-0.19532 -1.58204,0.54687 -0.19531,1.44141 1.19532,3.14063 2.7461,4.17578 10.40234,3.59375 18.24609,10.35938 30.61719,16.14063 17.90625,8.40625 38.85156,15.66797 53.01562,22.19531 12.10547,5.57422 24.15234,12.63672 38.36328,19.17578 20.90235,9.12891 41.69922,17.9336 59.0586,25.33985 1.25,0.39843 4.32812,1.01953 5.41796,0.14843 0.27735,0.56641 0.21875,-2.27343 -1.18359,-2.5625"
     id="path127" />
  <path
     fill-rule="nonzero"
     fill="#000000"
     fill-opacity="1"
     d="m 855.93359,182.34775 c 25.32422,-21.94922 24.99219,-21.57031 50.65625,-45.17578 5.70313,-5.50781 11.66016,-12.51172 13.70703,-15.31641 4.05469,-5.55468 6.42188,-10.60156 8.34375,-15.0625 2.01172,-5.00781 4.02344,-9.453123 6.02735,-17.757813 0.5664,-2.71875 1.48047,-9.33203 1.23828,-15.29297 -0.26172,-6.45703 -1.41406,-11.26562 -2.25781,-14.05078 -0.85157,-2.80078 -2.10157,-4.82422 -3.78907,-7.39453 -2.9375,-4.46875 -7.23828,-10.375 -8.79687,-11.64453 -3.47656,-2.82813 -7.51953,-5.26953 -14.39844,-8.8711 -7.60937,-3.98437 -12.16015,-6.01562 -19.19531,-8.64062 -11.52734,-4.30469 -18.48047,-6.61328 -29.04688,-9.51172 -9.57031,-2.62891 -21.42578,-5.2031204 -30.73046,-7.0078104 -11.65235,-2.19141 -17.2461,-3.82813 -31.82422,-5.375 -5.75,-0.51953005 -14.33594,-0.36328005 -16.26953,0.92969 l -0.20704,0.90234 c 8.10157,0.78516 16.20313,1.57031 24.30469,2.35547 19.48438,5.4062504 32.20703,7.3593704 48.51563,11.0273404 11.41797,3.66406 22.83984,7.32813 34.26172,10.98828 5.82421,2.34766 10.14453,4.1211 16.38281,7.41797 4.76953,2.51953 8.51172,4.69141 13.27344,8.54688 2.59375,2.09765 6.33984,6.40234 8.60546,9.46875 2.73829,3.70703 4.10547,5.79687 5.08985,9.10547 0.77734,2.60546 1.95703,8.16406 2.21484,13.3164 0.17578,3.52735 -0.22656,7.19531 -0.72265,10.1211 -1.14063,6.7539 -2.53907,10.03515 -3.97266,13.78515 -2.35547,5.101563 -3.17188,7.355473 -6.70703,14.042973 -5.96094,7.99219 -17.5586,20.83594 -17.37891,20.15625 -1.32031,1.23828 -53.09375,45.77344 -61.64844,54.6875 -1.71875,1.79297 -3.34375,3.52734 -4.10546,5.55078 -0.39063,1.03125 -0.64454,2.28516 -0.46875,3.69922 0.16406,1.30859 0.70703,2.59766 1.36328,2.73047 1.09765,0.22266 8.62109,-9.50781 17.53515,-17.73047"
     id="path128" />
  <path
     fill-rule="nonzero"
     fill="#000000"
     fill-opacity="1"
     d="m 1000.8437,319.60556 c -6.8437,-5.625 -16.14448,-10.51953 -26.03511,-17.84765 -28.55468,-22.39844 -52.32031,-39.99219 -84.86718,-66.3711 -12.03125,-9.01953 -14.19532,-7.22265 -24.69922,-15.16015 -3.94141,-2.78516 -9.90625,-7.54297 -15.57813,-12.66407 -1.87109,-1.6875 -4.1875,-1.69921 -4.25781,-0.82812 -0.44531,1.03125 1.03125,3.21094 3.46875,5.86328 2.00391,2.17188 4.80469,4.66406 7.10547,6.51563 11.125,7.46484 22.25,14.92968 33.375,22.39843 34.34765,28.9336 65.3164,50.6875 82.58203,65.21094 5.25,3.89063 12.32812,9.27734 26.20703,16.36328 -0.82422,0.1875 4.64847,0.32422 3.56247,-0.73047 0.3828,-0.89062 -0.3515,-2.10937 -0.8633,-2.75"
     id="path129" />
  <path
     fill-rule="nonzero"
     fill="#000000"
     fill-opacity="1"
     d="m 659.05078,203.77353 c 17.69531,-0.99219 31.96484,-1.97656 49.0625,-1.65234 13.58984,2.33203 30.31641,-0.0703 45.64453,1.58984 1.40235,0.19922 2.24219,-1.59375 2.22656,-2.93359 0.0195,-1.03906 -0.38281,-1.23828 -1.14062,-1.3086 -25.16016,0.65625 -51.38672,-1.72656 -76.95703,-1.13671 -3.82813,0.20703 -8.33594,0.57812 -11.91406,1.36718 -2.57813,0.82813 -6.74219,1.17969 -8.60547,3.12891 -0.33594,0.83594 0.61328,1.05859 1.68359,0.94531"
     id="path130" />
  <path
     fill-rule="nonzero"
     fill="#000000"
     fill-opacity="1"
     d="m 752.46094,186.53916 c -0.40235,-0.9961 -0.89453,-1.90235 -1.51563,-1.44141 -1.125,3.81641 2.33203,7.19141 1.58985,10.90234 0.35156,0.98829 2.03515,1.42579 2.95703,0.76563 0.71093,-1.70703 -1.94532,-6.64844 -3.03125,-10.22656"
     id="path131" />
  <path
     fill-rule="nonzero"
     fill="#000000"
     fill-opacity="1"
     d="m 752.99219,192.20713 c -0.55078,-4.42188 -2.04297,-11.91407 -3.32422,-14.81641 -0.13281,-0.30078 -0.38672,-0.5625 -0.92188,-0.27734 -1.32812,0.70703 -1.625,3.15234 -1.21875,4.73828 0.89844,4.05859 1.88282,8.51953 1.9336,12.14062 0.29687,0.95703 1.15234,1.79297 2.15625,1.5 1.26562,-0.42578 1.55468,-2.28125 1.375,-3.28515"
     id="path132" />
  <path
     fill-rule="nonzero"
     fill="#000000"
     fill-opacity="1"
     d="m 752.96875,170.78916 c -0.5625,-3.5 -1.51953,-7.66797 -3.40625,-11.0625 -2.13281,-3.83985 -5.19922,-8.76953 -8.72656,-12.04688 -3.95313,-2.53125 -9.3125,-6.66797 -14.86328,-7.91015 -2.69141,-0.44141 -6.09375,-1.19532 -8.95313,-1.19532 -5.20312,0 -11.14062,0.22266 -17.12109,1.19532 -6.7461,2.60937 -13.36719,5.10156 -20.95703,7.52343 -2.06641,1.29297 -4.07813,1.88282 -5.5625,2.9961 -3.71094,2.78515 -11.21094,9.7539 -14.19922,13.41406 -3.98828,5.05078 -3.89844,8.70312 -5.25782,11.94531 -0.2539,9.25781 -0.97656,16.64453 -0.95703,23.09375 0.27344,1.02344 1.17578,1.4336 2.0586,0.87891 1.125,-0.71485 1.375,-2.5625 1.48047,-3.76953 0.043,-5.96875 0.082,-11.94141 0.125,-17.91407 0.14453,-1.66015 0.66406,-3.29296 1.29296,-4.92187 0.76172,-1.95703 1.4961,-4.01172 2.7461,-5.49219 2.73047,-3.23437 7.78125,-8.13281 10.86719,-11.07031 2.48828,-2.375 6.78906,-5.27734 8.8789,-6.19141 3.89453,-1.69922 8.30078,-3.30859 11.9336,-4.35156 6.91406,-2.50391 18.1875,-2.02344 24.74218,-3.36719 5.11719,1.14844 9.21094,1.04688 13.55469,3.78125 2.31641,1.35938 4.66797,2.85157 6.66406,4.61328 1.46094,1.28907 3.33594,3.21094 4.8711,5.26563 2.46484,3.29687 4.66015,7.40625 5.71875,10.83984 1.46484,9.20703 3.61718,18.48438 4.54297,27.92969 0.23046,0.60156 0.54687,0.89063 1.30078,1.03125 1.08593,0.20313 1.90625,-0.23828 2.19531,-1.04687 1.08594,-6.875 -3.09375,-16.12891 -2.96875,-24.16797"
     id="path133" />
  <path
     fill-rule="nonzero"
     fill="#000000"
     fill-opacity="1"
     d="m 736.10547,101.26181 c -3.3125,-3.019533 -7.4336,-5.722653 -11.11328,-7.480473 -2.71875,-1.30078 -6.27735,-1.70312 -9.14453,-1.93359 -3.66016,-0.29297 -8.66797,-0.58203 -12.09766,0.12891 -1.47656,0.30859 -4.96094,1.01562 -6.85938,2.13672 -2.67578,3.34375 -7.51562,4.27343 -10.04296,8.808593 -1.71875,2.59375 -2.63282,5.53125 -3.07032,8.14844 -0.51562,3.10156 -0.51562,6.98047 0,10.08203 0.44141,2.65234 1.71485,6.74219 3.23438,9.10937 3.23828,2.63282 6.47265,5.26953 9.71094,7.90625 3.32421,2.45703 6.02734,2.3711 10.09765,3.8711 2.61719,0.72656 5.42188,1.625 8.11719,1.20703 3.63281,-0.5586 7.57422,-1.92969 11.10937,-3.69922 3.25,-1.625 7.14063,-4.04688 9.88672,-7.21484 2.92578,-3.3711 4.96485,-6.57422 5.84375,-9.16016 0.69922,-2.05078 1.21485,-4.8125 1.40625,-7.03516 0.17969,-2.0625 0.12891,-4.02734 -0.34375,-5.49218 -0.82812,-2.5625 -4.09765,-6.98438 -6.73437,-9.38282 m 2.02344,20.16016 c -0.99219,1.91016 -2.86719,5.49609 -5.66797,8.28516 -2.83985,2.82812 -5.8711,4.88281 -8.83594,6.40234 -2.98828,1.53125 -7.40625,2.61328 -9.36719,3.15234 -3.42578,0.10547 -8.21094,-1.98047 -12.16406,-3.0664 -1.875,-0.64844 -4.10156,-1.69532 -5.67969,-2.9375 -2.33203,-1.83594 -4.77344,-4.38282 -6.24219,-6.60157 -1.24218,-1.875 -2.19531,-4.47656 -2.53125,-6.61328 -0.32031,-2.02343 -0.32421,-4.69922 -0.0625,-6.53515 0.17969,-1.2461 0.88672,-4.875 2.21875,-7.12891 1.35938,-2.29297 3.60547,-5.53125 4.66016,-6.589843 1.17578,-1.17969 3.1875,-2.73828 4.68359,-3.05469 5.11329,-1.07813 10.71875,-1.29688 14.90625,-1.12891 2.71094,0.10938 6,0.71485 8.66797,1.8125 3.17188,1.30078 6.78516,3.187503 9.7461,6.125003 3.4375,3.41797 6.70312,8.37891 6.91797,9.94922 0.26562,1.92969 -0.45704,6.39453 -1.25,7.92969"
     id="path134" />
  <path
     fill-rule="nonzero"
     fill="#000000"
     fill-opacity="1"
     d="m 707.86719,151.69541 c -1.33985,0.21484 -2.91797,0.6875 -4.14844,2.05078 -0.93359,1.03515 -1.19531,2.10156 -1.16406,3.20703 0.0351,1.33594 0.40625,3.0625 1.35547,4.0625 1.01562,1.07031 2.67968,1.47656 4.08984,0.89453 1.60937,-0.66797 3.97266,-2.625 5.15625,-3.92578 0.85937,-0.9375 1.1875,-1.96484 1.11719,-3.01953 -0.0664,-1.00781 -0.51172,-1.82422 -1.34766,-2.48047 -1.46875,-1.15234 -3.34375,-1.07031 -5.05859,-0.78906"
     id="path135" />
  <path
     fill-rule="nonzero"
     fill="#000000"
     fill-opacity="1"
     d="m 702.96484,166.75009 c -0.1914,1.94532 -0.3789,3.88672 -0.57031,5.83204 -1.80078,2.33593 -3.69141,6.48437 -4.50781,10.26562 0.63672,1.65234 1.27344,3.30469 1.91015,4.95703 -0.10546,1.52735 -1.55468,3.57031 0.0469,4.96875 2.64844,1.57031 5.81641,3.33594 9.18359,4.08203 1.19141,-0.13281 1.90625,-0.9375 2,-1.75781 -0.57812,-2.39453 -2.5039,-7.54687 -1.73047,-9.02734 0.57813,1.625 1.16016,3.24609 1.74219,4.87109 0.49219,0.63281 1.10547,0.92188 1.91406,0.88672 0.77735,-0.0352 1.38672,-0.40234 1.6875,-0.96094 -0.375,-2.6289 -0.75,-5.25781 -1.125,-7.89062 1.7461,-3.53125 2.9336,-7.41407 2.84766,-11.26563 -0.0352,-1.07031 -0.16406,-1.88672 -0.71484,-2.37109 -1.36328,-0.60938 -2.72657,-1.21485 -4.08594,-1.82031 -2.30469,-1.07032 -1.53906,-4.20313 -3.625,-4.76954 -1.88672,0.0664 -3.66016,2.35938 -4.97266,4 m 0.16016,13.65235 v -1.1211 l 0.15234,0.25 0.19141,0.3125 -0.34375,0.5586 m 0.58984,9.52344 -0.0508,-0.39844 0.44922,0.0312 0.67188,0.44922 0.51953,0.60547 v 0.41796 l -0.44532,-0.0312 -0.67187,-0.44921 -0.47266,-0.625"
     id="path136" />
  <path
     fill-rule="nonzero"
     fill="#000000"
     fill-opacity="1"
     d="m 706.76562,152.25009 c -1.51953,0.5 -2.6875,1.14844 -3.5,2.4961 -0.72265,1.20312 -1.51562,2.92187 -1.30468,4.2539 0.21484,1.33594 1.58984,3.26172 2.86718,3.82032 1.15625,0.5039 4.94141,0.41406 6.14063,0.28906 0.96094,-0.0977 1.71094,-0.82813 2.40234,-1.94922 1.09375,-1.77734 1.12891,-3.80469 0.81641,-4.97266 -0.12109,-0.45703 -1.23828,-3.21484 -3.16406,-4.18359 -1.30469,-0.66016 -2.89453,-0.20312 -4.25782,0.24609 m 2.15235,3.22266 -0.52344,-0.52344 0.52344,-0.52734 0.23437,0.23437 0.28907,0.29297 -0.52344,0.52344 m 1.03125,3.5 c -0.25391,0.3125 -0.96094,0.20313 -1.53516,-0.42969 -0.57031,-0.625 -0.71875,-1.4375 -0.21875,-1.64843 0.88281,-0.37891 2.14063,1.60546 1.75391,2.07812 m -0.0352,-3.55469 0.15235,0.25 0.40625,0.0977 h -1.1211 l 0.5625,-0.34766"
     id="path137" />
  <path
     fill-rule="nonzero"
     fill="#000000"
     fill-opacity="1"
     d="m 728.06641,188.96494 c 0.33593,-1.89453 0.625,-3.72656 -0.23047,-5.32422 -6.17969,-8.46484 -13.39844,-13.83594 -17.1211,-20.68359 -0.48828,-0.28907 -1.27734,-0.26954 -1.8164,0.10156 -1.69922,1.54687 -0.92969,3.91406 -0.82422,5.85937 -0.008,1.46875 0.8789,5.44532 0.89844,5.44141 0.10546,-0.26172 0.8164,-4.21094 2.1875,-4.16406 0.82421,0.004 2.33984,1.73437 2.97656,2.92187 1.10547,2.06641 1.75,7.67188 1.55469,7.92969 -0.34766,0.11328 -2.07032,0.38672 -2.4961,1.76562 -0.22656,0.72266 -0.0742,1.31641 0.48438,2.11719 1.35937,1.94922 7.49218,7.00391 9.27343,7.8086 0.82813,0.375 2.06641,0.16406 3.03516,-0.33985 1.35938,-0.70312 1.82031,-1.96875 2.07813,-3.43359 m -7.90625,-7.59766 -0.0703,0.28125 -0.22656,0.14063 -0.22266,-0.14063 -0.0625,-0.27734 0.16797,-0.21485 h 0.2461 l 0.16797,0.21094 m 0.51953,2.64063 h 0.75 l -0.5625,0.34375 -0.5586,-0.34375 h 0.3711"
     id="path138" />
  <path
     fill-rule="nonzero"
     fill="#000000"
     fill-opacity="1"
     d="m 690.42187,110.05088 c -0.58203,0.57031 -0.78125,1.01953 -0.94531,1.70703 -0.39453,1.67578 -0.40234,4.44531 0.004,6.125 0.21484,0.89453 0.83203,1.91015 1.89453,2.13672 1.06641,0.22656 1.71094,-0.50782 1.8125,-1.35547 0.30078,-2.52735 -0.78516,-9.59375 -0.46875,-9.51172 -0.51953,-0.13672 -1.51563,0.1289 -2.29688,0.89844"
     id="path139" />
  <path
     fill-rule="nonzero"
     fill="#000000"
     fill-opacity="1"
     d="m 707.39844,109.78916 c -4.03907,-1.30078 -9.33203,-1.91016 -13.67188,-2.27735 -0.875,-0.0703 -1.46484,0.10157 -1.65234,1 -0.17969,0.875 0.17578,1.70703 0.91406,2.17578 4.60547,1.60547 8.60938,1.45704 13.62891,2.19141 0.95703,-0.23437 1.60937,-0.95703 1.73437,-1.76953 0.13281,-0.86328 -0.32812,-1.11719 -0.95312,-1.32031"
     id="path140" />
  <path
     fill-rule="nonzero"
     fill="#000000"
     fill-opacity="1"
     d="m 707.40234,116.62119 c -4.27734,0.0859 -9.71875,-1.02344 -14.46484,-1.38672 -0.52734,0.0625 -0.75781,0.25391 -0.83984,0.83203 -0.17188,1.23047 0.625,2.37891 1.6289,2.76172 2.3086,0.87891 5.27344,1.24219 7.76563,1.66016 1.63672,0.27734 3.61328,0.38671 5.24218,-0.15235 0.90625,-0.29687 1.44922,-0.76172 1.64844,-1.72656 0.19922,-1.27734 -0.13672,-2.05469 -0.98047,-1.98828"
     id="path141" />
  <path
     fill-rule="nonzero"
     fill="#000000"
     fill-opacity="1"
     d="m 710.75391,116.46884 c -0.51172,-1.14062 -0.96485,-4.86718 -2.42188,-4.39062 -1.02734,0.67187 -1.15234,2.75781 -0.71094,4.08984 0.1875,0.85938 0.36328,1.875 0.92969,2.5586 0.36719,0.4414 0.82422,0.6875 1.28125,0.50781 0.91016,-0.44141 1.25,-2.04297 0.92188,-2.76563"
     id="path142" />
  <path
     fill-rule="nonzero"
     fill="#000000"
     fill-opacity="1"
     d="m 717.26172,110.88681 c -0.82422,0.80078 -1.00391,1.72266 -1.0586,2.625 -0.0625,1.08203 -0.1914,2.48438 0.42969,3.58985 0.52344,0.92968 1.48828,1.59765 2.51172,1.53515 1.02734,-0.0664 1.625,-0.79687 1.71094,-1.6289 0.1875,-1.75 0.125,-4.46875 0.10156,-6.08203 -0.008,-0.74219 -0.35156,-1.00391 -1.12891,-1.02735 -0.73828,-0.0195 -1.77343,0.22266 -2.5664,0.98828"
     id="path143" />
  <path
     fill-rule="nonzero"
     fill="#000000"
     fill-opacity="1"
     d="m 731.71484,109.07431 c -1.60156,0.0899 -3.8789,0.16797 -5.78515,-0.13672 -1.16797,-0.44921 -2.33203,-0.89453 -3.4961,-1.34375 -0.95312,-0.17187 -2.01172,0.16016 -2.27734,0.95704 -0.26563,0.79296 0.44922,1.58203 1.16406,2.1914 0.94922,0.8125 1.71094,1.30078 2.73828,1.44141 2.08594,0.28125 4.78516,0.16406 6.96875,-0.004 0.92188,-0.0703 1.44532,-0.25 1.65625,-1.15234 0.20703,-1.19141 -0.12109,-2.03906 -0.96875,-1.95313"
     id="path144" />
  <path
     fill-rule="nonzero"
     fill="#000000"
     fill-opacity="1"
     d="m 730.58203,118.44541 c -1.33594,-0.69532 -6.92187,-1.58985 -8.45703,-1.74219 -0.71484,-0.0742 -1.44922,0.13281 -1.46875,1.07031 -0.0898,1.21485 1.32031,2.60547 2.48828,2.79297 1.9375,0.59766 4.24219,1 6.18359,0.85547 0.92579,-0.0664 1.45704,-0.25781 1.67969,-1.15625 0.21094,-0.86328 -0.0391,-1.61719 -0.42578,-1.82031"
     id="path145" />
  <path
     fill-rule="nonzero"
     fill="#000000"
     fill-opacity="1"
     d="m 730.65234,112.73056 c 0.0195,1.11328 0.37891,2.51563 0.8086,3.57813 0.35156,0.85937 0.96484,1.58203 1.84375,1.55469 0.60156,-0.0156 0.86328,-0.30079 1.05078,-0.83594 0.3125,-0.89453 0.16406,-2.48828 0.082,-3.34375 -0.28516,-1.20313 -0.34375,-3.40235 -1.94531,-3.58203 -1.11328,-0.0469 -1.99219,1.4375 -1.83985,2.6289"
     id="path146" />
  <path
     fill-rule="nonzero"
     fill="#000000"
     fill-opacity="1"
     d="m 708.95312,117.92978 c 0.65235,0.20703 1.92188,0.21485 2.67969,0.0234 1.14453,-0.28906 1.97656,-1.58594 1.66797,-2.48047 -0.19141,-0.54687 -2.9375,-0.82031 -4.35156,-0.39453 -0.74219,0.22656 -1.125,0.92578 -0.9375,1.81641 0.13281,0.6289 0.38672,0.85937 0.9414,1.03515"
     id="path147" />
  <path
     fill-rule="nonzero"
     fill="#000000"
     fill-opacity="1"
     d="m 708.92969,115.32822 c 1.26953,0.16797 4.29687,-0.32031 5.28125,-0.71875 0.71875,-0.29297 1.03125,-1.06641 0.76953,-1.67578 -0.27344,-0.64844 -4.32031,-0.90235 -6.06641,-0.42578 -0.83203,0.22656 -1.5664,0.94531 -1.28125,1.86328 0.19922,0.64062 0.71094,0.8789 1.29688,0.95703"
     id="path148" />
  <path
     fill-rule="nonzero"
     fill="#000000"
     fill-opacity="1"
     d="m 718.71875,30.800877 c 0.0859,0.91796 0.17187,1.83984 0.26172,2.76171 -0.55078,4.2461 -1.29297,8.09766 -1.51172,12.34766 0.008,2.92578 -0.0781,5.91406 0.0937,8.80469 0.14062,0.5 0.54687,0.9414 1.1875,0.99219 0.45703,0.0351 0.76172,-0.10157 1.15625,-0.40235 1.12109,-1.42578 2.24609,-2.85156 3.36719,-4.27344 0.85937,-0.92187 2.35156,-2.57031 2.625,-2.10156 -0.54688,4.67969 -1.5625,10.07031 -1.44532,15.48047 0.043,0.55859 0.17579,1.07813 0.73438,1.37109 0.33984,0.17579 0.76953,0.23047 1.19141,0.0703 0.64843,-0.24219 1.02734,-0.875 1.21093,-1.42578 1.0625,-3.1875 2.01953,-6.5 3.02735,-9.76172 1.05468,-5.25 2.51562,-10.33203 2.92578,-15.76563 -0.0859,-0.53125 -0.28516,-0.80078 -0.76172,-0.98828 -0.63281,-0.25391 -1.44922,-0.25 -2.19922,0.14453 -1.29687,0.67578 -2.82812,1.58985 -3.80469,2.35938 -2.45703,1.89062 -4.35547,5.3789 -6.18359,6.05859 -0.57031,-3.73828 1.01953,-10.14844 1.13281,-15.15234 -0.0273,-0.36719 -0.082,-0.72657 -0.30078,-1.00782 -0.31641,-0.41406 -0.95703,-0.6914 -1.58203,-0.61718 -0.64844,0.082 -1.05469,0.52343 -1.125,1.10547 m 10.87109,14.90625 -0.125,0.18359 -0.10156,-0.11328 -0.0156,-0.32813 0.0508,-0.44531 0.10937,-0.39062 0.11328,-0.25391 0.0977,-0.0117 0.0625,0.19922 -0.004,0.36719 -0.0664,0.42578 -0.1211,0.36719 m 0.39453,-3.10547 0.0352,-0.22657 0.10156,-0.20703 0.0977,-0.004 0.0273,0.17578 -0.082,0.23828 -0.10547,0.125 -0.0742,-0.10156"
     id="path149" />
  <path
     fill-rule="nonzero"
     fill="#000000"
     fill-opacity="1"
     d="m 724.125,22.289157 c -1.61719,0.80078 -5.39453,3.64843 -6.50781,4.80468 -0.4961,0.51172 -2.11328,2.98438 -2.24219,3.79297 -0.0977,0.625 0.13281,1.11328 0.57422,1.44922 0.59375,0.45313 2.04297,1.91406 2.84765,1.88281 0.41016,-0.0117 0.73829,-0.19531 0.9961,-0.55078 0.71094,-0.97656 0.0156,-2.08984 0.86328,-3.16406 0.67187,-0.85547 1.78125,-1.91797 2.01172,-1.51953 -1.44922,5.86328 -2.89063,12.67578 -4.39063,19.20703 0.0117,0.59375 0.4375,1.08984 1.03125,1.10938 0.41797,0.0156 0.67578,-0.15625 0.98828,-0.48829 0.70313,-0.75 1.72266,-2.39062 1.90235,-3.29687 0.0859,-1.26953 0.17187,-2.53906 0.25781,-3.80859 0.97266,-3.76954 1.94531,-7.54297 2.91797,-11.3125 0.0547,-1.60157 0.10937,-3.19922 0.16406,-4.79688 0.3086,-0.72656 0.6211,-1.44922 0.92969,-2.17187 0.0625,-0.70704 -0.42188,-1.23047 -1.1875,-1.32813 -0.375,-0.043 -0.79297,0.008 -1.15625,0.19141"
     id="path150" />
  <path
     fill-rule="nonzero"
     fill="#000000"
     fill-opacity="1"
     d="m 720.33594,43.894627 c 0.42578,-0.61329 0.3164,-1.58985 0.26172,-2.13672 -0.34375,-1.48438 -0.6836,-2.96875 -1.02344,-4.45313 -0.0508,-2.53515 -0.0977,-5.07031 -0.14453,-7.60547 -0.14844,-0.4414 -0.55469,-0.66797 -1.16797,-0.57812 -0.87891,0.13281 -2.26563,1.51172 -2.71094,2.30078 -0.26562,0.47656 -0.25781,1.04687 -0.21094,1.61328 0.27344,3.15625 1.38672,6.82031 2.19532,9.82422 0.11328,0.72266 0.91796,1.64453 1.78906,1.59766 0.43359,-0.008 0.7539,-0.19922 1.01172,-0.5625"
     id="path151" />
  <path
     fill-rule="nonzero"
     fill="#000000"
     fill-opacity="1"
     d="m 718.86328,29.226657 c -0.37891,0.47265 -0.55469,1.50781 -0.62109,2.1875 -0.082,0.83984 0.41797,2.13281 0.85937,2.83203 0.21485,0.33594 0.41016,0.50781 0.75391,0.5 0.34375,-0.008 0.51953,-0.1875 0.63672,-0.52735 0.36328,-1.04296 0.58203,-3.27734 0.63672,-4.52343 0.0469,-0.78125 -0.16797,-1.21485 -0.8086,-1.12891 -0.48047,0.0312 -1.12109,0.23828 -1.45703,0.66016"
     id="path152" />
  <path
     fill-rule="nonzero"
     fill="#000000"
     fill-opacity="1"
     d="m 694.22266,82.714937 c 0.26171,-3.63281 0.57031,-7.73047 0.49218,-11.42578 -0.0469,-2.23438 0.0703,-6.98438 -0.55078,-9.77735 -0.21875,-0.99218 -1.96094,-4.97265 -2.3789,-5.20703 -0.46485,-0.26172 -1.07813,-0.0469 -1.56641,0.36328 -1.22266,1.03907 -2.87891,3.15235 -3.81641,4.32813 -0.79297,1.57812 -1.58593,3.15234 -2.375,4.73047 -0.41797,0.49609 -0.77343,0.75781 -0.98047,0.45703 -0.64062,-4.03516 -1.08593,-8.85156 -2.38281,-13.27735 -0.27734,-0.98437 -0.6875,-2.36328 -1.05469,-3.23437 -0.19531,-0.46094 -0.67187,-0.71875 -1.26953,-0.39063 -0.40625,0.21875 -0.57812,0.55469 -0.67968,0.9336 1.10546,7.84765 2.5,15.08594 3.78125,22.84765 0.16406,0.50782 0.54296,0.88282 1.17968,1.03125 0.39063,0.0899 0.81641,0.0625 1.16016,-0.10156 0.76172,-0.91797 1.52344,-1.83594 2.28906,-2.7539 0.38672,-0.26563 0.875,-0.27735 1.21485,-0.0195 1.60156,3.66797 2.13671,8.4375 4.05468,12.52344 0.42188,0.55469 1.45313,0.83985 2.14453,0.44531 0.57422,-0.32812 0.69922,-0.90625 0.73829,-1.47265 m -2.90235,-9.36719 c -0.33203,-0.0391 -0.78515,-1.38281 -0.79297,-2.07812 -0.0117,-1.07422 0.41797,-5.12891 0.73047,-5.36329 0.52735,-0.40625 0.46094,7.48438 0.0625,7.44141"
     id="path153" />
  <path
     fill-rule="nonzero"
     fill="#000000"
     fill-opacity="1"
     d="m 676.17969,46.558687 c -0.51172,0.40234 -1.04688,1.41015 -1.04297,2.09375 0.75781,1.47656 1.51172,2.95312 2.26562,4.43359 1.10547,2.83985 1.88282,5.69922 2.67969,8.57422 0.71875,2.59375 0.19531,5.23047 0.81641,7.59766 0.28125,0.98828 2.15625,1.90234 3.39843,2.17187 0.58594,-0.0312 1.06641,-0.49219 1.40625,-1.07031 0.35157,-0.58984 0.42188,-1.125 0.44532,-1.67188 -0.32422,-7.89843 -0.24219,-15.83203 -0.004,-23.73437 0.36719,-1.64453 0.73438,-3.28906 1.10156,-4.93359 0.004,-0.52344 -0.0508,-1.03125 -0.37109,-1.35157 -0.23828,-0.23437 -0.53906,-0.36328 -0.93359,-0.34765 -2.76172,1.65234 -6.5586,6.51172 -9.76172,8.23828 m 5.37109,8.3789 0.008,-0.30468 0.1836,-0.34766 0.23437,-0.21875 0.20313,0.008 0.0742,0.19141 -0.0625,0.33594 -0.21094,0.29687 -0.25781,0.15235 -0.17188,-0.11329 m 1.12109,-9.21093 -0.28515,-0.28516 0.28515,-0.28516 0.125,0.12891 0.16016,0.15625 -0.28516,0.28516"
     id="path154" />
  <path
     fill-rule="nonzero"
     fill="#000000"
     fill-opacity="1"
     d="m 688.92578,70.156337 c -0.3125,0.61329 -0.46875,1.55469 -0.52734,2.2461 -0.0469,0.52344 -0.0742,1.19922 0.26562,1.67187 0.26172,0.36328 0.6211,0.55078 0.98438,0.55078 0.61328,0 0.70312,-0.5039 0.71484,-1.07421 0.0195,-1.39844 0.60156,-3.5625 -0.38672,-3.97657 -0.40625,-0.11718 -0.80859,0.10938 -1.05078,0.58203"
     id="path155" />
  <path
     fill-rule="nonzero"
     fill="#000000"
     fill-opacity="1"
     d="m 756.71094,52.304777 c -1.86328,0.6836 -4.89844,2.75781 -6.20703,4.14453 -3.47266,5.54297 -5.23829,11.07813 -7.96875,15.61719 -0.83594,1.95313 -1.70704,4.39453 -2.58985,6.78516 -0.21875,0.58593 -0.26172,1.21093 0.0781,1.83203 0.33593,0.62109 0.98828,1.10547 1.64062,1.1289 1.26172,0.1211 2.38281,-1.96484 3.33594,-2.1875 0.28516,-0.043 0.53125,0.17188 0.57031,0.45704 -0.77734,4.05468 -2.27344,7.05859 -3.5,11.6875 -0.125,0.90234 -0.30859,2.11328 0.67188,2.74609 0.35156,0.19922 0.80859,0.21094 1.22656,0.0547 1.0625,-0.39844 2.76562,-1.85938 3.30469,-2.6875 3.34375,-6.15235 5.51562,-12.37891 9.35547,-18.51563 0.54296,-1.04687 0.63281,-2.625 0.13281,-3.34375 -1.42188,-0.11719 -2.84766,-0.23437 -4.27344,-0.35156 -0.51562,-0.10547 -0.86328,-0.36328 -0.69531,-0.875 1.47656,-2.01953 2.95703,-4.03516 4.4375,-6.05078 1.17578,-2.14063 2.36328,-4.83203 3.28906,-6.69141 0.76953,-0.80469 1.53906,-1.60547 2.30469,-2.40625 0.41015,-0.71094 0.19531,-1.57422 -0.17188,-1.75 -0.85547,-0.41015 -3.52734,-0.11328 -4.9414,0.40625"
     id="path156" />
  <path
     fill-rule="nonzero"
     fill="#000000"
     fill-opacity="1"
     d="m 785.14844,193.23447 c 0.26562,-0.89844 0.13672,-1.64063 -0.0937,-2.21875 -2.3711,-5.34766 -4.73828,-10.69141 -7.10547,-16.03906 -2.92969,-9.80078 -5.86328,-19.59766 -8.79297,-29.39844 -0.68359,-1.65625 -1.58203,-3.42969 -2.62891,-5.04688 -0.52343,-0.80859 -1.12109,-1.5039 -1.92578,-1.46093 -0.55078,0.0273 -0.82812,0.3164 -1,0.85937 -0.22265,0.71094 -0.0273,1.78125 0.20313,2.58594 0.93359,2.19922 1.86718,4.39453 2.80078,6.59375 2.54687,9.16406 4.15625,18.38672 7.3789,27.80859 1.9336,4.3125 3.86719,8.62891 5.80079,12.94141 0.17578,1.11719 0.35156,2.23047 0.52734,3.34766 0.37891,1.21484 2.03516,2.05468 3.13281,1.77734 0.89844,-0.17188 1.4375,-0.85156 1.70313,-1.75"
     id="path157" />
  <path
     fill-rule="nonzero"
     fill="#000000"
     fill-opacity="1"
     d="m 818.54687,123.38681 c -3.61328,0.26563 -7.3164,1.76172 -10.76562,2.71875 -10.07031,3.51953 -20.18359,6.60938 -30.24609,11.57813 -3.01954,0.69531 -6.03907,1.39062 -9.0586,2.08984 -0.48437,0.25391 -0.73047,0.54297 -0.71875,1.0625 0.0195,0.78516 0.69922,1.03516 1.53906,1.10547 2.46094,0.20703 5.21094,0.21875 7.61719,-0.5 10.62891,-3.71875 21.25781,-7.4375 31.88672,-11.15234 3.18359,-0.98438 6.49219,-1.9961 9.74609,-2.67188 1.63672,-0.0156 3.27344,-0.0312 4.91016,-0.0469 0.87891,-0.50391 1.18359,-2.20703 0.89453,-2.92578 -0.6875,-1.19141 -3.6914,-1.35547 -5.80469,-1.25782"
     id="path158" />
  <path
     fill-rule="nonzero"
     fill="#000000"
     fill-opacity="1"
     d="m 827.38672,179.23447 c -5.9961,2.60156 -11.99219,5.20312 -17.99219,7.80469 -5.19141,1.63281 -10.39844,2.96484 -15.58594,4.4414 -1.91406,0.81641 -3.83203,1.62891 -5.75,2.44532 -1.13281,0.73828 -1.96093,2.22265 -1.66406,3.27343 0.15625,0.54297 0.46484,0.64844 0.98438,0.57032 7.14453,-2.7461 13.72656,-3.56641 20.61328,-5.70704 6.78515,-2.05468 13.57422,-5.98046 20.39453,-8.58203 1.73047,-0.66015 3.29297,-0.66797 4.96094,-0.75781 0.80078,-0.20312 1.47265,-0.76953 2.00781,-1.69531 0.67187,-1.16797 0.84375,-2.66406 0.40234,-3.32813 -0.36328,-0.54687 -6.69922,1.03125 -8.37109,1.53516"
     id="path159" />
  <path
     fill-rule="nonzero"
     fill="#000000"
     fill-opacity="1"
     d="m 833.92578,185.85166 c 0.33203,-0.46875 0.40234,-1.08594 0.41016,-1.65625 -0.85547,-9.125 -0.57032,-18.19532 -1.7461,-27.91797 -1.04297,-6.03906 -3.5039,-13.10938 -5.86718,-18.85938 -1.19141,-2.89062 -2.2461,-6.79687 -3.85157,-9.05859 -0.28515,-0.40625 -0.60937,-0.64063 -1.10547,-0.41016 -0.9375,0.4336 -1.22656,2.03516 -0.9375,3.11328 2.97266,9.21094 5.60547,17.92579 7.78907,26.98438 1.1289,8.46094 0.97656,16.89844 1.01562,25.37891 0.125,0.80078 0.48828,1.78125 1.17188,2.5 0.50781,0.53125 0.92187,0.79296 1.60547,0.77343 0.62109,-0.0117 1.1289,-0.29687 1.51562,-0.84765"
     id="path160" />
  <path
     fill-rule="nonzero"
     fill="#000000"
     fill-opacity="1"
     d="m 789.65234,153.71494 0.17578,-0.45313 -0.3125,-0.30468 h -0.5625 l -0.41796,0.30468 0.0664,0.45313 0.5,0.15234 0.55078,-0.15234"
     id="path161" />
  <path
     fill-rule="nonzero"
     fill="#000000"
     fill-opacity="1"
     d="m 798.25391,166.14463 c 1.45312,-0.96875 3.92187,-2.21094 4.10937,-4.0625 0.0664,-0.60547 -0.11328,-0.98829 -0.44531,-1.29297 -0.44141,-0.41016 -1.33594,-0.64063 -2.17578,-0.60938 -2.04297,0 -3.98438,2.1875 -5.76953,3.28516 -0.8086,0.40625 -1.45704,0.41015 -1.73829,-0.14844 -0.0195,-3.25781 2.375,-7.33594 2.78516,-11.01953 0.37891,-2.375 0.30078,-5.10156 0.15625,-7.49219 -0.0508,-0.84765 -0.23437,-1.71875 -1.01953,-2.5 -0.78516,-0.77734 -1.67969,-0.96484 -2.5625,-1.01562 -1.42578,0.0469 -2.97266,-0.28516 -4.16797,0.94922 -1.12891,1.03906 -2.48047,2.80468 -3.33984,4.15625 -0.70703,1.11328 -0.9961,2.26171 -0.98828,3.3789 0.004,1.1836 0.33203,3.23047 1.17968,4.22266 0.59766,0.70312 1.61719,1.03125 2.04688,0.625 0.60156,-0.56641 -0.10547,-4.63672 0.82812,-6.26953 0.5586,-0.98438 1.23438,-1.96875 2.11719,-2.44922 0.69141,-0.37891 1.31641,-0.33203 1.66016,0.22265 0.69531,1.10938 0.28906,3.85157 -0.0469,5.33594 -1.51562,4.90625 -3.02734,9.8086 -4.54297,14.71485 -0.0234,0.8789 0.1875,1.78515 0.97657,2.57421 0.78515,0.78125 1.70312,1 2.58593,0.97266 2.92188,-0.32031 5.57813,-2.14453 8.35157,-3.57812 m -6.70313,-1.19922 -0.42969,-0.4336 0.42969,-0.42968 0.42969,0.42968 -0.42969,0.4336"
     id="path162" />
  <path
     fill-rule="nonzero"
     fill="#000000"
     fill-opacity="1"
     d="m 831.64844,104.07822 c -0.5625,-0.23828 -1.11719,-0.26953 -1.71485,-0.20313 -9.98828,2.98438 -19.61328,4.33594 -29.46484,7.0586 -6.53906,0.69922 -13.07813,1.39844 -19.61328,2.09765 -3.20313,0.71485 -6.75781,1.94141 -9.92578,3.32032 -1.11328,0.4414 -2.30469,1.26172 -2.20703,2.38672 1.82421,2.79687 3.65234,5.58984 5.48046,8.38281 0.94532,2.1914 1.89454,4.38281 2.84375,6.57422 0.71875,1.12109 1.92969,1.94531 3.08985,1.65625 0.55859,-0.13672 0.85547,-0.45703 0.99609,-1.00782 0.13281,-0.51953 0.0508,-1.15625 -0.17578,-1.76562 -2.51172,-4.23047 -3.58203,-8.39844 -6.47266,-12.17578 -0.17187,-0.7461 0.3086,-1.42969 1.03125,-1.80469 4.54297,-0.85937 9.08985,-1.72266 13.63282,-2.58594 4.35937,-0.37109 8.71875,-0.74609 13.07812,-1.11718 9.64063,-1.54688 20.11719,-3.70704 29.50781,-6.4961 1.03516,-0.30859 1.78907,-1.46484 1.5625,-2.5625 -0.14843,-0.70312 -0.82421,-1.41015 -1.64843,-1.75781"
     id="path163" />
  <path
     fill-rule="nonzero"
     fill="#000000"
     fill-opacity="1"
     d="m 843.88672,165.18759 c -2.13281,0.0195 -5.47656,0.3086 -7.53906,0.9961 -1.33985,0.44922 -2.92188,1.41015 -4.1875,2.48828 -0.8125,0.69141 -1.48047,1.5 -1.19532,2.27734 0.29688,0.79688 1.34375,1.07422 2.26953,0.83594 3.90235,-1.01562 7.44532,-1.81641 10.79688,-2.11719 0.55859,-0.17187 0.88672,-0.40234 1.21875,-0.96484 0.4375,-0.74219 0.57422,-1.79688 0.33594,-2.47656 -0.25782,-0.73438 -0.87891,-1.04688 -1.69922,-1.03907"
     id="path164" />
  <path
     fill-rule="nonzero"
     fill="#000000"
     fill-opacity="1"
     d="m 839.61719,101.49619 c -0.5625,0.53515 -0.75391,1.03125 -0.8125,1.67187 2.17578,10.92969 1.9414,21.31641 4.60937,31.97657 0.50391,5.83984 0.22266,12.05859 0.0391,17.91796 -0.4414,3.5586 -0.88671,7.11329 -1.33203,10.67188 -0.004,1.17187 0.21485,3.24609 0.67969,4.20312 0.21094,0.4336 0.50781,0.67969 0.99609,0.48829 0.40235,-0.15625 0.72266,-0.66016 0.89844,-1.19141 0.89453,-5.79688 1.79297,-11.59766 2.6875,-17.39453 0.46094,-5.3086 0.21875,-11.10156 0.043,-16.33985 -0.76562,-3.83984 -1.52734,-7.67578 -2.29297,-11.51562 -0.42187,-6.56641 -0.75781,-13.23047 -1.89062,-19.74219 -0.2461,-0.73437 -0.84766,-1.41797 -1.83594,-1.46094 -0.69531,-0.0312 -1.24219,0.19532 -1.78906,0.71485"
     id="path165" />
  <path
     fill-rule="nonzero"
     fill="#000000"
     fill-opacity="1"
     d="m 808.40234,119.43759 c -2.39062,0.21485 -4.78125,0.4336 -7.16797,0.64844 -2.21875,-0.25781 -4.4375,-0.51953 -6.65625,-0.77734 -0.84765,0.0586 -1.40234,0.23828 -1.57421,1.11719 -0.0977,0.48437 -0.008,1.10156 0.26562,1.45312 2.92969,1.85156 7.75391,0.89844 11.01953,1.62109 1.6836,0.79688 -0.58984,3.94922 0.54688,4.88672 0.82812,0.41797 2.36718,-0.91406 3.04687,-2.08593 0.91797,-1.57813 1.125,-3.63672 1.10156,-5.2461 -0.0117,-0.89844 -0.10546,-1.47656 -0.58203,-1.61719"
     id="path166" />
  <path
     fill-rule="nonzero"
     fill="#000000"
     fill-opacity="1"
     d="m 793.78906,94.152437 c -0.57812,3.85937 -1.16015,7.718753 -1.74609,11.578123 0.10156,1.33203 0.1914,3.34766 1.29687,3.82032 0.73438,0.22656 1.42969,-0.44922 1.67188,-1.22657 1.15625,-3.70703 1.73437,-9.500003 1.72265,-13.437503 0.0273,-1.16015 -0.20703,-1.72265 -1.23828,-1.69531 -0.80859,-0.008 -1.38672,0.23828 -1.70703,0.96094"
     id="path167" />
  <path
     fill-rule="nonzero"
     fill="#000000"
     fill-opacity="1"
     d="m 855.04687,92.207127 c -0.46875,-0.53907 -1.17968,-0.65235 -2.02343,-0.69141 -10.41797,-0.48438 -20.79297,0.53125 -31.10938,-0.043 -6.51562,-0.97656 -13.03906,-1.66797 -19.8164,-1.64453 -1.24219,-0.082 -3.26954,0.85547 -3.84375,2.03906 -0.1836,0.50391 0.0703,0.76563 0.51562,0.89063 1.39453,-0.0742 2.78906,-0.14453 4.18359,-0.21875 5.98438,0.96484 11.96875,1.93359 17.94922,2.89843 5.40235,0.16797 10.84766,0.3086 16.24219,0.0156 1.35938,0.27344 2.72266,0.54687 4.08594,0.82031 2.99609,-0.26953 5.98828,-0.54297 8.98437,-0.8164 1.11328,0.0586 2.26953,0.4414 3.41016,1.07812 0.62109,0.0664 1.15234,-0.14453 1.51953,-0.61328 0.33203,-0.42578 0.43359,-1.10938 0.44922,-1.60938 0.0234,-0.80078 -0.13281,-1.625 -0.54688,-2.10546"
     id="path168" />
  <path
     fill-rule="nonzero"
     fill="#000000"
     fill-opacity="1"
     d="m 855.87109,99.007907 c -0.67187,1.585933 -1.05468,4.007813 -1.46484,5.828123 -0.85156,3.73047 -0.54297,7.58985 -1.27734,11.4336 -1.30469,8.44531 -4.83594,16.73437 -6.04688,25.42968 -0.0859,0.91407 0.0352,1.86719 0.8125,2.19922 0.44141,0.19141 1.11719,0.0664 1.70703,-0.19531 0.97656,-0.42969 1.54297,-1.09766 1.82422,-1.87109 2.03125,-5.57422 3.72656,-12.98047 4.84766,-18.92188 1.19531,-6.33984 1.53906,-13.40625 1.71484,-19.84766 -0.16406,-1.71875 0.48047,-4.464843 -0.67187,-4.882813 -0.59375,-0.17187 -1.16407,0.16406 -1.44532,0.82813"
     id="path169" />
  <path
     fill-rule="nonzero"
     fill="#000000"
     fill-opacity="1"
     d="m 819.50391,99.464937 c -1.17969,-0.72656 -2.84766,-1.49219 -4.1875,-1.90235 -1.73829,-0.53125 -4.17579,-0.67968 -5.91797,-0.27734 -1.09766,0.25391 -2.47266,1.29688 -3.10938,2.55078 -0.64062,1.250003 -0.55469,3.058603 -0.32031,4.316413 0.15625,0.82812 0.60156,1.84765 1.26953,2.55859 0.69531,0.73438 1.53125,1.02344 2.09766,0.53125 1.48047,-1.42969 -0.65235,-4.13281 -0.42578,-5.53125 0.48046,-1.15234 1.83984,-2.058593 3.03515,-1.734373 1.375,0.351563 5.28906,2.566403 5.71094,3.593753 -0.26172,1.5664 -0.51953,3.13281 -0.77734,4.70312 0.0625,0.67578 0.68359,1.04297 1.57031,0.89453 1.57812,-0.23047 1.66015,-2.6289 2.47656,-4.19531 0.44922,-1.45312 0.4375,-2.70312 0.0312,-3.77734 -0.26953,-0.71485 -0.68359,-1.257823 -1.45312,-1.730473"
     id="path170" />
  <path
     fill-rule="nonzero"
     fill="#000000"
     fill-opacity="1"
     d="m 807.08984,143.78134 c -1.85937,0.16407 -4.0625,0.5586 -5.8789,1.1836 -0.87891,0.30078 -1.75391,0.76953 -2.28125,1.47265 -1.14844,1.54297 -1.5586,4.71485 -1.86719,6.61329 -0.25781,1.58593 -0.32813,3.42578 -0.10156,5.01562 0.35937,1.85938 1.66406,4.19531 3.39062,5.6875 1.375,1.01172 3.54688,1.62109 5.07031,1.73828 1.31641,0.10156 2.94141,-0.27734 4.23438,-0.67578 1.82812,-0.55469 4.24219,-3.14453 5.50781,-4.99609 0.94141,-1.37891 1.62891,-2.83985 1.89453,-4.22657 0.30078,-1.55859 0.31641,-3.53125 0.12891,-5.00781 -0.14844,-1.19531 -2.31641,-4.34765 -4.26953,-5.76172 -1.8711,-1.23047 -3.89063,-1.11328 -5.82813,-1.04297 m 4.25782,13.97657 c -0.75391,1.22656 -2.39454,2.48047 -3.58594,2.89062 -1.09375,0.37891 -2.72266,0.44531 -3.79688,-0.10547 -1.58593,-0.8125 -3.55468,-3.62109 -3.78906,-5.0625 -0.19141,-1.17968 0.12109,-2.66797 0.92188,-3.82812 1.20703,-1.75 3.625,-3.1875 5.2539,-3.69531 1.24219,-0.39063 2.51953,-0.37891 3.76563,0.62109 1.52343,1.21875 2.67968,2.89844 2.87109,3.88281 0.23828,1.23828 -0.80859,3.94531 -1.64062,5.29688"
     id="path171" />
  <path
     fill-rule="nonzero"
     fill="#000000"
     fill-opacity="1"
     d="m 816.68359,120.89853 0.23828,-0.48437 -0.0664,-0.60547 -0.3711,-0.24219 -0.38671,0.24219 -0.0859,0.60547 0.21875,0.48437 h 0.45312"
     id="path172" />
  <path
     fill-rule="nonzero"
     fill="#000000"
     fill-opacity="1"
     d="m 831.89453,128.57822 c -1.91406,-2.60547 -1.05859,-6.46094 -3.68359,-9.89453 -1.67969,-1.92578 -4.29297,-2.02735 -6.44141,-2.61328 -1.41016,-0.19532 -2.82031,-0.40625 -4.24609,0.83593 -1.33203,1.04688 -3.25782,2.83985 -3.92188,4.23047 -0.4414,0.92578 -0.42969,1.96094 0.13672,2.30469 2.42969,0.67969 4.11328,-3.46094 6.46875,-3.92578 1.23828,-0.23438 3.42969,0.58594 4.53125,1.42969 1.125,0.85937 1.88672,2.4375 2.19141,3.65625 0.30468,1.23047 0.24218,2.66015 0.17578,3.90234 0.65625,2.28516 -4.0625,3.8125 -3.49219,5.82813 0.46484,1.10937 2.01172,1.20312 3.10547,1.14453 1.26953,-0.0703 2.19531,-0.50782 3.10547,-1.73047 1.1914,-1.59766 2.20312,-3.53906 2.07031,-5.16797"
     id="path173" />
  <path
     fill-rule="nonzero"
     fill="#000000"
     fill-opacity="1"
     d="m 1019.8594,434.33603 c -3.1875,7.51563 -6.8438,18.27735 -8.9883,22.6875 -1.3086,1.67188 -2.6133,3.34375 -3.918,5.01563 -2.1406,5.64453 -4.4297,17.53125 -5.7812,30.3125 -0.09,3.94531 1.8906,4.30859 1.7695,5.80468 -0.062,1.28516 -0.4414,10.22657 0.2656,16.39844 0.293,2.55078 0.6367,3.34766 1.711,3.53516 0.7812,0.13672 11.3203,-6.29688 12.2851,-7.6211 0.836,-1.15234 1.125,-4.48437 0.7188,-8.125 -0.168,-4.3789 -2.9024,-5.88671 -2.1719,-6.19531 0.7852,-1.42187 3.4336,-7.08984 5.0078,-8.77344 1.875,-1.95703 5.8281,0.59766 8.7461,-1.26562 3.4961,-4.03906 3.4727,-10.51563 5.0039,-12.58594 0.8633,1.74219 1.7227,3.48828 2.586,5.23047 -0.586,0.38281 2.4414,-0.10156 2.6406,-1.62891 l 1.0703,-3.03515 c 0.8047,-3.08985 1.043,-4.90625 1.043,-10.08985 0,-4.49609 -0.2696,-7.99609 -0.9844,-11.30468 -1.8242,-6.44922 -2.8985,-5.37891 -5.5117,-9.69922 -1.3477,-3.07031 -2.461,-16.19141 -3.7696,-19.34766 l -1.2382,-1.21484 c -4.1172,2.875 -8.1915,9.07812 -10.4844,11.90234 m -13.9258,63.38281 -0.1406,-0.19531 0.098,-0.3789 0.1758,-0.26954 0.1406,0.19532 -0.098,0.3789 -0.1758,0.26953 m 1,-6 -0.1406,-0.19531 0.098,-0.3789 0.1758,-0.26954 0.1406,0.19532 -0.098,0.3789 -0.1758,0.26953 m 17.0234,-12.91796 -0.3945,1.01171 -0.4336,0.22657 -0.2773,-0.73438 -0.043,-1.35547 0.2383,-1.60547 0.3984,-1.15625 0.4336,-0.28515 0.2734,0.85156 0.047,1.48828 -0.2422,1.5586 m 0.9766,-7.08204 -0.1406,-0.19531 0.098,-0.3789 0.1758,-0.26954 0.1406,0.19532 -0.098,0.3789 -0.1758,0.26953 m 1.5936,-2.92187 -0.5273,0.52734 -0.5273,-0.52734 0.5273,-0.52734 0.5273,0.52734 m 3.668,-23.62891 c 0.1914,4.95313 -0.6484,8.41016 -1.3594,9.76172 -0.4296,0.82031 -1.8437,2.71875 -2.6093,3.28125 -1.8008,0.61328 -3.5977,1.22656 -5.3985,1.83985 -2.957,3.92968 -5.0781,8.3125 -8.7969,10.13281 -0.1171,-0.14063 4.8321,-12.42578 6.2422,-14.30078 5.5508,-4.94532 7.8282,-10.21094 10.7461,-13.90625 0.668,-0.28125 1.0821,0.70312 1.1758,3.1914 m 2.332,20.62891 -0.5273,0.52734 -0.5273,-0.52734 0.5273,-0.52734 0.5273,0.52734"
     id="path174" />
  <path
     fill-rule="nonzero"
     fill="#000000"
     fill-opacity="1"
     d="m 1059.4844,507.30088 c 0.5703,-3.08594 0.4414,-6.48047 -0.02,-7.72266 -0.4179,-1.12891 -7.4687,-14.66797 -9.9296,-18.51953 -0.7657,-1.73047 -2.9219,-0.81641 -3.8477,-1.76563 -0.9023,-1.61718 -1.8086,-3.23437 -2.7109,-4.84765 -0.9375,-0.80078 -3.3164,-2.34375 -5.6094,-2.73828 -6.4219,1.53515 -5.9649,3.66015 -8.9531,3.64843 -1.9336,4.51953 -2.3164,11.86719 -3.9922,22.29297 -0.2813,4.1836 0.012,7.23047 0.4922,8.41406 l 1.0898,0.88282 c 0.8242,-1.09375 4.3477,-3.125 6.1836,-3.47657 2.8555,0.3125 5.707,0.6211 8.5586,0.92969 1.6406,-0.52344 3.2812,-1.05078 4.9219,-1.57422 2.2343,-0.14843 3.1172,6.30078 6.2031,8.80469 1.9414,1.39844 4.6875,0.26563 6.1484,-0.43359 0.6016,-0.62891 1.0743,-1.76563 1.4649,-3.89453"
     id="path175" />
  <path
     fill-rule="nonzero"
     fill="#000000"
     fill-opacity="1"
     d="m 1041.5469,471.01572 c 0.6719,-1.03125 1.1211,-3.97656 1.2656,-7.64453 0.2266,-5.75 -0.2383,-11.82031 -0.6562,-15.63281 -0.3946,-3.63672 -0.8204,-6.78907 -1.4922,-9.4336 -1.0899,-4.30859 -3.8711,-12.55078 -4.6211,-14.95312 0.1445,-2.40235 0.289,-4.80469 0.4297,-7.20703 0.6093,0.62109 -1.8321,-3.81641 -2.5899,-2.75782 l -1.6523,0.44141 c -1.1719,0.76562 -1.7617,2.07812 -2.2774,3.78516 -0.5234,12.0039 -1.6484,11.58984 -1.9843,21.07812 0.6914,2.25781 1.0468,6.27734 1.7265,12.33984 1.2383,2.57422 2.6602,-0.95312 2.5156,1.11719 -0.01,1.39844 -0.4101,4.45703 0.066,6.04688 0.3008,1.01172 0.9961,1.40234 1.5977,1.22656 1.1289,-0.89844 1.9063,-2.97266 2.9336,-1.75 1.2031,4.51172 2.4023,9.02344 3.6016,13.53125 l 1.1367,-0.1875 m -6.0192,-40.21875 -0.5273,0.52734 -0.5273,-0.52734 0.5273,-0.52734 0.5273,0.52734 m 4.3711,26.10547 -0.1015,-0.25 0.1367,-1.08203 0.168,-0.87891 0.1015,0.25 -0.1367,1.08203 -0.168,0.87891"
     id="path176" />
  <path
     fill-rule="nonzero"
     fill="#000000"
     fill-opacity="1"
     d="m 1049.1914,398.59384 c 0.5977,2.71875 1.1953,5.4336 1.793,8.15235 -0.3985,1.5039 -2.1641,0.78515 -3.2774,1.76562 -0.6523,0.64063 -0.9765,1.36328 -1.289,3.31641 -0.1953,1.22266 -0.4219,4.25781 -0.2774,5.65625 0.1914,1.85156 0.7461,3.10547 1.5782,3.5625 l 1.4687,0.10937 c 1.207,-0.29296 6.7656,-4.38671 8.5234,-6.15625 0.8164,-0.82031 1.1875,-1.70703 1.2891,-3.10937 0.1328,-1.81641 -0.1641,-2.42969 -0.6914,-3.57422 -1.0195,-2.21484 -5.5586,-11.86719 -6.6797,-12.15625 -1.1094,-0.26172 -2.5273,0.80469 -2.4375,2.43359"
     id="path177" />
  <path
     fill-rule="nonzero"
     fill="#000000"
     fill-opacity="1"
     d="m 1085.6328,409.71494 c -1.4219,1.04297 -3.1719,1.51953 -4.3711,1.9375 -1.2304,0.67187 -3.1914,2.4414 -3.8828,3.96875 -0.3633,0.80469 -0.3125,1.5664 -0.047,2.27734 0.3633,0.97266 1.3125,1.9336 2.1524,2.65235 1.3789,1.17968 8.5625,5.73046 9.5586,5.94921 0.6836,0.15235 1.4258,-0.23828 1.9492,-1.20703 2.5625,-11.74609 4.4531,-18.32422 6.6172,-22.93359 0.3086,-1.44922 -0.031,-3.36328 -1.3008,-3.20313 -2.5508,1.9961 -6.6133,6.5586 -10.6758,10.5586"
     id="path178" />
  <path
     fill-rule="nonzero"
     fill="#000000"
     fill-opacity="1"
     d="m 1145.8594,514.64072 c 0.2617,-3.26563 -0.1758,-7.61719 -0.6485,-10.61328 -0.2734,-1.73047 -0.6836,-3.50391 -1.1171,-4.4336 -1.1719,-2.53125 -3.4102,-1.62109 -4.7461,-6.1875 -0.9336,-3.30078 -1.8125,-13.41015 -2.1993,-18.05078 -0.3711,-2.30859 -0.8789,-3.52343 -1.6445,-3.99218 -2.1328,-0.51954 -8.3633,4.3789 -11.0703,4.43359 -1.3516,-0.61719 -2.6992,-1.23438 -4.0469,-1.85156 -1.1367,0.0664 -2.2265,1.05078 -2.5976,1.46093 -1.711,0.59375 -4.4336,-9.35156 -7.5664,-11.09765 -0.9727,-0.35938 -2.0469,-0.2461 -2.7813,0.0977 -1.7656,0.82422 -2.9453,3.28125 -3.4531,4.23829 -0.336,0.46093 -2.4649,-2.69141 -4.7031,-1.69532 -1.6719,0.47266 -6.3477,4.28516 -7.9727,4.19532 -0.3594,-2.17579 -0.7187,-4.34766 -1.0781,-6.52344 l -1.4063,-1.21875 c -1.1211,-0.58594 -2.582,-0.60938 -3.9062,-0.34766 -1.3203,0.26172 -2.5703,0.8086 -3.5274,1.83985 -1.1367,1.22656 -1.5117,2.27734 -2.0429,4.64062 -3.1641,13.98438 -5.1797,25.44531 -5.9649,32.64453 -0.1875,1.71094 -0.2969,3.73438 0.4492,5.5 l 1.4727,2.0625 c 1.418,1.4961 2.6289,2.00391 4.1211,2.54297 1.4922,0.53906 2.2109,0.63672 3.2187,0.39453 2.625,-1.83984 5.25,-3.68359 7.8789,-5.52344 2.1915,-0.28906 6.4922,3.37891 9.2149,4.32422 1.3672,0.19532 2.7383,0.39453 4.1094,0.59375 1.125,0.83594 2.25,1.67188 3.3789,2.50782 1.5078,0.55859 6.2929,0.60546 8.2929,0.10156 1.3672,-0.34766 2.2657,-1.08985 2.5118,-1.51172 0.4765,0.32031 2.5234,2.63281 5.9726,2.57812 3.461,-0.13671 4.9102,-3.16406 8.25,-2.47656 1.957,-0.41015 2.7031,1.53906 4.2149,2.98047 1.9882,0.86719 7.5898,2.44922 8.1289,1.99219 0.6875,-0.58985 1.0976,-1.625 1.2578,-3.60547 m -56.3321,-39.8438 -0.5273,0.52734 -0.5273,-0.52734 0.5273,-0.52734 0.5273,0.52734 m 0.4063,-1.07813 -0.1406,-0.19531 0.098,-0.3789 0.1758,-0.26954 0.1406,0.19532 -0.098,0.3789 -0.1758,0.26953"
     id="path179" />
  <path
     fill-rule="nonzero"
     fill="#000000"
     fill-opacity="1"
     d="m 1105.043,405.73447 c -1.9766,1.75 -4.0977,6.67187 -6.7578,11.53906 -0.8125,1.48828 -1.4766,3.0625 -1.0039,4.25391 0.3046,0.76562 0.9687,0.98437 1.7109,0.79297 1.4258,-0.71094 4.2031,-2.36328 4.8047,-1.24219 0.4922,0.58984 0.3984,4.27734 -0.024,5.69141 -0.4921,1.64453 -1.789,4.98046 -3.5742,7.49609 -2.7539,3.17187 -4.6172,4.94531 -6.1914,7.87109 -2.6719,5.95703 -3.9375,6.66016 -5.6289,13.17969 -0.6445,4.49609 0.2774,10.47656 0.8906,12.08203 0.3125,0.8125 0.9844,1.22656 1.6016,1.14453 1.3867,-0.84765 2.7734,-1.69531 4.1602,-2.54297 0.9492,-0.16796 1.5429,0.004 1.8789,0.71485 0.9062,0.91015 -1.6797,6.58594 -0.1446,11.05859 1.3867,2.67578 3.8203,1.64844 3.2852,3.8125 -2.707,8.8711 -5.1797,13.89453 -9.3086,22.28906 -0.1367,-1.5 -0.5,5.90625 0.5391,6.61719 -1.2813,-1.08984 4.7343,5.82813 5.5429,4.8125 3.0547,1.26172 6.1367,1.4336 7,1.44531 1.086,0.0117 3.9961,-1.50781 5.1953,-3.33203 0.4883,-0.74609 0.4063,-1.67968 -0.1953,-2.33203 -1.0625,-1.15234 -5.2031,-3.52344 -5.8945,-3.82031 -0.8594,-0.37109 -3.9609,1.69141 -6.5547,1.52344 -1.2344,-0.0781 -2.125,-0.66016 -2.2656,-1.92188 2.6836,-6.80859 5.3711,-13.62109 8.0547,-20.42969 1.664,-6.38671 3.332,-12.77343 4.9961,-19.16015 0.2929,-0.51953 1.125,-1.57422 1.7734,-1.55469 l 1.2148,0.64063 c 1.8985,2.01562 0.8008,1.03515 2.1289,4.53906 -0.7421,-0.39063 2.8711,3.07422 3.1836,1.77734 1.3946,-0.60156 2.4414,-2.53906 3.0118,-4.02344 0.6914,-2.98828 1.3867,-5.97656 2.0781,-8.96484 1.668,-0.86719 3.3398,-1.73437 5.0078,-2.60156 0.8242,-2.10156 1.6484,-4.19922 2.4727,-6.29688 0.6289,1.5 1.2578,2.9961 1.8867,4.4961 -0.5782,-0.14063 2.3867,1.99218 2.4765,0.69531 0.9375,-0.96875 1.2578,-2.36719 1.3594,-5.71094 0.1289,-4.23437 -0.6094,-7.64453 -1.1523,-8.58594 -0.4102,-0.71484 -5.9688,-5.98437 -6.9297,-6.30859 -1.8672,-0.73437 -2.8477,2.94531 -3.2188,0.85156 -0.4297,-1.36328 -1.0234,-4.58203 -1.1015,-6.46875 0.1328,-4.94531 0.2656,-9.88672 0.3945,-14.83203 -0.5469,-2.62109 -2.8906,-6.96484 -3.8594,-8.07031 -0.8906,-1.01563 -2.582,-1.77734 -4.1015,-1.92188 -2.4258,-0.23437 -7.4961,-0.30859 -8.7422,0.79688 m -6.5152,58.0625 -0.5273,0.52734 -0.5273,-0.52734 0.5273,-0.52734 0.5273,0.52734 m 1,10 -0.5273,0.52734 -0.5273,-0.52734 0.5273,-0.52734 0.5273,0.52734 m 1.3399,-2.37891 -0.4102,0.73438 -0.3867,0.19531 -0.2383,-0.5 -0.02,-0.98047 0.2344,-1.21484 0.3945,-0.88281 0.4297,-0.22657 0.2656,0.63672 0.01,1.10156 -0.2773,1.13672 m 1.6584,-6.62109 -0.5273,0.52734 -0.5273,-0.52734 0.5273,-0.52734 0.5273,0.52734 m 7.2891,-25.44922 -0.5117,0.46875 -0.3594,-0.46484 -0.043,-0.875 0.2852,-1.25391 0.4531,-1.17187 0.4336,-0.35157 0.2227,0.78125 -0.09,1.63672 -0.3906,1.23047 m 2.711,-29.55078 -0.5273,0.52734 -0.5273,-0.52734 0.5273,-0.52734 0.5273,0.52734 m 1.379,35.37891 -0.1094,-0.23829 0.1289,-0.84375 0.168,-0.67578 0.1093,0.23828 -0.1289,0.84375 -0.1679,0.67579 m 2.0976,-23.76172 c -0.4062,-0.1875 -1.3359,-0.85157 -2.6211,0.23047 -0.7734,1.48828 -1.3828,2.71875 -1.9765,2.46875 -0.5821,-0.39844 -0.8985,-2.44141 0.5273,-3.86719 1.0625,-1.23047 2.6484,-2.20703 3.4961,-1.65235 0.9258,0.61329 0.8008,2.66016 0.5742,2.82032 m 6.7734,30.35547 -0.4765,0.0937 -0.2695,-0.47266 0.094,-0.60156 0.4844,-0.39844 0.3945,0.25391 0.1016,0.60546 -0.3282,0.51954 m 1.2227,-6.61329 -0.25,-1.00781 v -2.70312 l 0.25,-1.00782 0.25,1.00782 v 2.70312 l -0.25,1.00781"
     id="path180" />
  <path
     fill-rule="nonzero"
     fill="#000000"
     fill-opacity="1"
     d="m 1109.4375,409.004 c 0.2227,0.32422 0.9961,-0.008 1.1758,-0.51172 l -0.051,-0.90234 c -0.2227,-0.32422 -0.9961,0.008 -1.1758,0.51172 l 0.051,0.90234"
     id="path181" />
  <path
     fill-rule="nonzero"
     fill="#000000"
     fill-opacity="1"
     d="m 1108.7773,407.35166 0.9297,0.0664 0.5977,-0.55468 -0.082,-0.6211 -0.9297,-0.0664 -0.5977,0.55468 0.082,0.6211"
     id="path182" />
  <rect
     style="fill:none;stroke:none;stroke-width:13.474"
     id="rect182"
     width="1872"
     height="525.11298"
     x="0"
     y="0" />
</svg>
