<?xml version="1.0" encoding="UTF-8" standalone="no"?>
<svg
   width="1850.3484"
   height="586.664"
   viewBox="0 0 1850.3484 586.664"
   version="1.1"
   id="svg109"
   sodipodi:docname="8.svg"
   xmlns:inkscape="http://www.inkscape.org/namespaces/inkscape"
   xmlns:sodipodi="http://sodipodi.sourceforge.net/DTD/sodipodi-0.dtd"
   xmlns:xlink="http://www.w3.org/1999/xlink"
   xmlns="http://www.w3.org/2000/svg"
   xmlns:svg="http://www.w3.org/2000/svg">
  <sodipodi:namedview
     id="namedview109"
     pagecolor="#ffffff"
     bordercolor="#666666"
     borderopacity="1.0"
     inkscape:showpageshadow="2"
     inkscape:pageopacity="0.0"
     inkscape:pagecheckerboard="0"
     inkscape:deskcolor="#d1d1d1" />
  <use
     xlink:href="#source-5"
     transform="rotate(90,1030.7252,819.62321)"
     id="use1" />
  <path
     fill-rule="nonzero"
     fill="#000000"
     fill-opacity="1"
     d="m 1498.6648,432.5777 c -5.0234,1.45312 -12.0039,5.30859 -15.7656,7.3789 -5.4649,3.00391 -10.6719,7.79688 -15.1992,12 -7.4532,8.75391 -10.6719,9.59375 -18,20.51172 -2.6485,4.55469 -4.8164,8.28906 -6.1836,12.2461 -3.3789,9.7539 -4.4532,20.88281 -5.2266,31.21875 2.9063,18.8164 0.4453,27.96875 4.043,44.58984 1.1406,0.91797 3.4648,0.89844 4.5234,-0.008 0.707,-0.60157 0.8672,-1.66407 0.9531,-2.78907 1.0704,-14.0625 -2.1367,-31.65234 -2.3632,-42.37109 1.3945,-9.45312 2.5351,-17.80469 4.8632,-26.75391 0.8594,-3.3125 2.5782,-7.02343 4.1797,-10.0039 3.418,-6.35547 10.9219,-15.42578 19.3985,-23.83985 3.0351,-2.41406 6.0703,-4.82812 9.1054,-7.24609 4.5118,-3.61719 16.8946,-9.92578 24.7539,-12.84375 3.4766,-0.30859 6.9493,-0.62109 10.4258,-0.93359 1.5078,-0.64844 1.7266,-1.96094 0.8555,-2.50391 -4.8945,-0.875 -13.8281,-0.57031 -20.3633,1.34766"
     id="path75" />
  <path
     fill-rule="nonzero"
     fill="#000000"
     fill-opacity="1"
     d="m 1554.1726,561.86676 c -14.789,0 -29.5781,0 -44.3672,0 -2.3007,-0.57031 -4.6015,-1.14063 -6.9023,-1.71094 -13.4453,-0.35937 -22.5469,2.02344 -36.1797,1.67969 -5.7148,-0.14453 -15.3672,-4.32031 -21.3047,-4.95313 -1.8086,-0.1914 -3.3906,0.36719 -3.3633,2.21485 0.023,1.83984 1.4766,3.25781 2.9805,3.86328 8.8438,1.67578 17.6875,3.35156 26.5313,5.02734 18.3945,-0.55859 51.2968,0.6836 79.289,0.37891 2.3047,0.21094 5.1289,-1.58203 5.2891,-4.08984 0.2656,-1.91407 -0.7539,-2.29297 -1.9727,-2.41016"
     id="path76" />
  <path
     fill-rule="nonzero"
     fill="#000000"
     fill-opacity="1"
     d="m 1578.3054,548.82379 c -1.5,-5.04687 -4.9257,-19.46484 -7.5,-26.47656 -0.2851,-9.84766 -2.5429,-16.03125 -4.2734,-25.79297 -3.4609,-10.36328 -13.4766,-30.11328 -19.4141,-39.28906 -2.0781,-3.21094 -4.2578,-7.19532 -8.0664,-10.6836 -8.7812,-4.59375 -11.664,-7.74609 -19.3359,-10.17968 -2.3672,-0.4336 -5.3359,0.45703 -7.4805,1.41015 -1.4414,0.64063 -2.6562,1.8711 -3.0937,3.94922 -0.2617,1.24219 -0.047,2.53516 0.4375,3.00781 2.7812,1.23438 2.5703,-5.36328 6.5781,-3.73828 6.9258,2.80469 11.043,6.20703 16.6484,9.45703 6.543,7.06641 8.1211,14.28125 13.2227,19.6875 5.8437,11.50391 10.9531,20.45313 14.25,30.99219 4.6641,14.90625 7.707,33.80859 10.2109,46.54297 0.1407,4.46484 0.2774,8.92969 0.418,13.39844 0.2617,1.90625 3.6211,2.34375 5.125,1.11328 1.6016,-1.41016 2.3711,-13.0625 2.2734,-13.39844"
     id="path77" />
  <path
     fill-rule="nonzero"
     fill="#000000"
     fill-opacity="1"
     d="m 1540.8406,379.22223 c -1.418,-2.60156 -3.7852,-5.36719 -6.9844,-8.29297 -4.1406,-3.78516 -7.6836,-6.6875 -11.1367,-8.25781 -3.1953,-1.45313 -8.0508,-4.12891 -13.6523,-4.24219 -5.1485,2.02734 -10.2969,4.05859 -15.4454,6.08984 -3.6015,-0.17578 -6.4687,-0.8125 -10.2734,0.42188 -4.168,1.34765 -8.8164,2.6289 -14.2227,6.38281 -4.746,3.29297 -8.7773,9.09375 -10.2187,12.00391 -1.8789,3.79297 -2.3203,9.35547 -2.1602,13.78906 0.9727,6.43359 4.1993,13.05469 8.2227,19.28125 3.7734,4.96875 9.4102,8.26953 14.4961,11.76562 5.0469,3.46875 10.5742,6.90625 15.7851,8.53125 5.8633,1.83204 13.3672,1.06641 19.3438,0.8086 3.5977,-0.15625 5.2539,-1.79297 8.8164,-4.34375 4.5039,-3.22656 10.2617,-7.19922 13.25,-11.52344 2.5508,-3.69141 4.1094,-8.32422 5.2852,-12.3125 1.5859,-5.39062 2.8945,-12.26562 2.3906,-17.17578 -0.3711,-3.61328 -1.6875,-9.59766 -3.4961,-12.92578 m -16.7188,44.67969 c -3.1132,2.92187 -6.6054,4.53125 -9.9765,5.91406 -2.6875,1.10156 -5.711,1.97265 -8.418,1.96484 -3.582,-0.0117 -8.2695,-0.7539 -11.7617,-1.78125 -4.9883,-1.47265 -10.3945,-5.42969 -15.2774,-8.85937 -2.8867,-2.02344 -5.3164,-4.42969 -7.3203,-7.31641 -3.1445,-4.52344 -7.3125,-11.39453 -7.9023,-13.96094 -0.6797,-2.96875 -0.6797,-9.63281 0.3867,-12.02734 0.7852,-1.75391 3.1953,-8.15625 5.2305,-10.35547 1.6875,-1.82031 5.4687,-4.44922 6.6914,-5.12109 2.9844,-1.64063 11.6562,-4.94532 14.7305,-5.42188 4.6484,-0.72656 10.5156,3.63672 15.3789,2.78906 0.9375,-0.16015 1.3554,-0.54296 1.0937,-1.21093 -0.1601,-0.40235 -2.1445,-2.23047 -3.0195,-2.6875 -1.1953,-0.25391 -2.3906,-0.50782 -3.5899,-0.76172 2.336,-0.69531 11.711,-0.78516 14.6524,0.40625 2.8437,1.14453 8.3086,5.42969 14.2929,11.45312 2.7891,2.8086 4.9922,5.58985 5.9375,8.38672 1.2149,3.60938 1.8399,7.13672 1.8633,10.14453 0.047,6.17969 -1.6289,11.85157 -2.9297,16.78516 -1.6132,4.78125 -6.3711,7.8125 -10.0625,11.66016"
     id="path78" />
  <path
     fill-rule="nonzero"
     fill="#000000"
     fill-opacity="1"
     d="m 1771.5007,577.39801 c -8.8125,-2.10938 -20.3437,-3.46484 -27.9687,-3.46875 -3.9375,0.57422 -7.875,1.14844 -11.8125,1.72266 -2.1875,-0.57813 -4.3789,-1.15235 -6.5664,-1.72657 -48.8984,-0.0586 -97.7969,-0.11328 -146.6914,-0.17187 -2.875,-0.57422 -5.7461,-1.14844 -8.6211,-1.72656 -29.2891,0 -58.5742,0 -87.8633,0 -2.8789,-0.57422 -5.7617,-1.14844 -8.6406,-1.72266 -24.3672,-1.34375 -50.2891,-1.34375 -74.6524,0 -29.5156,1.62891 -57.8906,3.76953 -84.7031,5.33984 -20.0469,1.42188 -42.6055,-2.10156 -61.0625,-0.76562 -0.5508,0.94531 19.3047,5.51172 23.6406,5.53906 27.5196,0.17188 55.6094,1.52344 83.0782,0.008 14.5507,-0.80468 28.6054,-2.59765 43.0312,-3.45703 16.1445,-0.96484 35.5195,-0.082 49.3438,1.27735 6.2539,-0.47266 12.5078,-0.94922 18.7617,-1.42188 2.293,0.57031 4.5859,1.13672 6.8789,1.70703 29.3711,0.0547 58.7383,0.10938 88.1094,0.16406 2.8711,0.57422 5.7461,1.15235 8.6172,1.72657 48.7304,-0.0547 97.457,-0.11328 146.1875,-0.16797 16.371,0.94531 31.5664,3.99609 48.8671,3.5664 1.8516,-0.0469 3.5235,-0.26171 4.5586,-1.30468 0.6875,-0.69141 0.9414,-1.46094 0.7188,-2.44141 -0.3242,-1.43359 -1.5977,-2.28906 -3.211,-2.67578"
     id="path79" />
  <path
     fill-rule="nonzero"
     fill="#000000"
     fill-opacity="1"
     d="m 1557.9461,575.63238 c -8.125,-0.42187 -16.6836,-0.53906 -24.8086,-0.14062 -13.1524,1.71484 -26.3008,3.42578 -39.4493,5.14062 -7.8789,0.24219 -16.1875,0.58985 -24.0429,-0.0859 -6.4414,-0.55469 -12.086,-4.6211 -17.3867,-4.97266 -1.8008,-0.12109 -3.4219,0.72656 -3.4766,2.34766 -0.062,1.76562 6.9805,5.04687 10.1953,5.7539 6.9453,1.52735 17.5234,3.01563 24.082,2.98828 9.875,-0.0391 27.8672,-4.14062 36.918,-4.6914 8.1836,-0.5 17.0039,1.86719 23.2383,1.64062 3.7773,-0.13672 11.5664,-0.55078 16.2773,-1.8789 1.5118,-0.42578 2.0274,-1.51953 2.0274,-3.15625 0.082,-2.13282 -1.125,-2.97657 -3.5742,-2.94532"
     id="path80" />
  <path
     fill-rule="nonzero"
     fill="#000000"
     fill-opacity="1"
     d="m 1594.1492,572.19488 c -17.4805,-0.82812 -36.961,0.74219 -54.4258,1.74219 -15.0195,0.85938 -39.7578,4.30469 -55.1484,5.125 -9.1172,-0.61719 -18.2305,-1.23437 -27.3477,-1.85547 -7.6953,0.39453 -16.6836,0.65235 -24.1406,1.85157 -1.6719,0.26953 -3.8242,1.18359 -4.3203,2.51171 -0.3789,1.01563 0.2656,1.45313 1.1718,1.58594 7.6563,-1.66797 21.7735,-1.17578 31.4883,-1.08594 8.668,0.082 17.0313,2.25782 25.7227,1.79297 2.875,-0.57422 5.75,-1.14843 8.6289,-1.72656 27.4844,-1.57812 55.4414,-0.22656 82.9375,-1.88672 3.5351,-0.21484 12.3242,-0.51172 17.0391,-1.93359 1.4257,-0.42969 1.9218,-1.53516 1.9179,-3.17578 0.082,-2.14453 -1.0976,-2.98828 -3.5234,-2.94532"
     id="path81" />
  <path
     fill-rule="nonzero"
     fill="#000000"
     fill-opacity="1"
     d="m 1648.7312,563.69098 c -0.7031,-0.91797 -4.539,-4.12891 -8.207,-6.92188 -10.1563,-7.73437 -18.4649,-12.91406 -29.4258,-19.33203 -1.918,-1.12109 -3.8594,-1.74609 -5.0508,-0.51953 -1.1836,1.22266 -0.4414,3.02734 0.8985,4.35938 2.6757,2.66015 6.5117,5.5 8.9765,7.5039 5.8164,4.73047 17.1328,9.73438 22.0196,13.28516 1.9648,2.49609 3.9296,4.99609 5.8984,7.49609 1.3555,0.59766 3.5586,0.60156 4.6289,-0.48437 1.5312,-1.55469 0.8281,-4.65235 0.2617,-5.38672"
     id="path82" />
  <path
     fill-rule="nonzero"
     fill="#000000"
     fill-opacity="1"
     d="m 1740.532,527.52692 c -6.5781,1.05468 -13.1563,2.11328 -19.7344,3.16796 -18.0195,1.04297 -31.7734,0.75391 -50.1914,1.88282 -7.6445,0.46875 -18.8906,2.66797 -29.0195,3.27734 -9.918,0.66797 -16.8945,-3.14453 -27.7852,-3.32031 -3.0703,0.91406 -7.2578,1.01953 -8.289,4.0625 0.01,1.63672 1.3906,2.16406 3.1172,2.29687 20.4062,0.0508 37.9921,2.92578 59.6054,1.76172 18.3477,-2.70703 38.1055,-2.46875 58.2188,-3.64453 4.1015,-0.67578 12.2109,-2.07812 15.3867,-3.76172 1.5234,-0.80469 2.6523,-2.94922 2.2461,-4.24219 -0.3516,-1.1289 -1.668,-1.52734 -3.5547,-1.48046"
     id="path83" />
  <path
     fill-rule="nonzero"
     fill="#000000"
     fill-opacity="1"
     d="m 1752.1257,533.03473 c -9.4453,5.88672 -19.1562,14.73828 -29.125,23.72656 -2.5312,2.28125 -6.1718,6.17578 -9.0742,10.85156 -1.2031,1.94141 -1.4843,3.46485 0.168,4.58203 1.6211,1.09375 3.4492,0.67579 4.8828,-0.60546 16.3516,-17.41407 30.1367,-29.28125 39.9922,-40.10938 -0.074,-0.61719 -4.5273,0.10938 -6.8438,1.55469"
     id="path84" />
  <path
     fill-rule="nonzero"
     fill="#000000"
     fill-opacity="1"
     d="m 1422.239,58.81988 c -4.0351,-3.70312 -8.5234,-6.03906 -10.7851,-7.08203 -2.3125,-0.8164 -2.5508,-1.71484 -9.7891,-2.46484 -12.1523,-1.14844 -14.9531,0.78516 -15.9805,-0.20703 -3.4609,-3.84766 -1.4023,-5.82813 -9.2226,-14.01172 -9.1367,-9.32422 -15.168,-13.17188 -17.707,-14.58594 -8.6836,-4.15625 -19.7618,-7.44531 -33.6055,-11.2421897 -3.1524,-0.54687 -12.0781,-1.47265 -20.0547,-1.23437 -7.3164,0.86328 -14.6328,1.73047 -21.9492,2.5937497 -6.2383,-3.0507797 -9.5938,-6.7460897 -16.8242,-8.3476597 -2.543,-0.66406 -5.7969,-1.44531005 -10.7383,-1.97265005 -3.3672,-0.35547 -7.6485,-0.33985 -10.293,-0.0352 -3.293,0.37891 -4.7461,0.83203005 -6.1758,1.48047005 -8.707,4.70312 -8.4765,3.77734 -23.7265,14.1640597 -2.2461,0.89453 -4.1524,0.9375 -6.461,0.80469 -6.1133,-0.79297 -13.2226,-1.88281 -18.0429,-1.6875 -4.3125,0.17187 -11.2032,1.125 -14.5821,1.73047 -4.9609,0.89453 -8.6054,1.83984 -12.5976,3.39844 -6.1446,2.40234 -7.6719,3.39453 -12.0274,6.10156 -3.1953,1.98828 -9.6601,6.34375 -15.414,11.79297 -2.961,2.80468 -6.168,6.63672 -8.1289,9.24609 -2.2188,3.47656 -3.7344,4.05469 -4.5079,9.03906 l 0.2461,2.84375 c 0.3868,1.48438 1.293,2.15235 2.1602,1.62891 2.3281,-3.55469 4.6602,-7.11328 6.9883,-10.67188 1.8008,-2.35156 5.625,-6.45312 9.6992,-10.08984 5.1992,-4.64453 8.457,-6.92969 11.0391,-8.67578 4.539,-3.07813 5.8476,-3.57031 10.5234,-5.66406 2.7266,-1.21875 6.418,-2.32813 9.6641,-3.10547 2.1289,-0.50781 4.1796,-1.03516 9.3125,-1.36328 15.0273,-1.28516 26.9492,1.57422 31.582,1.20312 19.1523,-11.25 20.3984,-12.6445297 26.5703,-15.7929697 1.332,-0.62109 3.1055,-1.08984 5.8711,-1.48828 2.332,-0.33594 4.5391,-0.33203 6.9727,0.0195 4.5273,0.64453 9.1406,1.66407 11.3828,2.41016 5.3906,1.16016 6.9336,5.1679697 17.9687,9.1484397 2.0547,0.0391 3.4688,-0.83594 6.3164,-1.98828 4.1641,-0.95704 11.4063,-1.69141 17.3281,-1.89844 9.0313,-0.29297 14.3243,1.1914 18.0469,1.76953 10.6524,3.57422 23.5039,6.75 31.0274,10.63672 1.9765,0.86719 10.4843,7.22265 15.4492,12.35156 8.0156,9.33984 6.6914,12.26563 10.8867,17.60938 0.7656,0.54296 1.4297,0.6914 2.7148,0.61328 3.6641,-0.9336 4.0782,-2.4336 12.0469,-1.9375 5.0274,0.26562 7.3985,1.10156 8.9649,1.7539 2.6484,1.27344 6.4687,2.51953 11.0078,6.64453 6.1172,5.76954 9.7812,11.33985 10.3164,12.83594 1.4765,2.58985 2.9765,6.63672 4.4609,15.42969 0.5742,3.39844 1.4531,10.375 1.2149,16.05859 -0.2149,5.0625 -1.1016,7.98047 -1.711,9.89844 -1.6054,6.21484 -6.7031,9.87891 -9.4101,19.75781 l 0.8789,2.92969 c 2.7265,3.75 5.4531,7.5 8.1758,11.24609 1.4218,2.27735 2.1484,4.28907 2.8554,6.75782 1.8672,6.48437 3.8399,12.15625 4.8633,19.64453 0.8086,4.8164 -0.3672,9.84765 -1.3437,11.82422 -1.5157,3.6914 -4.1797,8.85156 -9.0196,15.05078 -3.2539,4.16797 -7.3476,7.90234 -12.6093,12.1289 -8.1602,6.5625 -11.5118,8.65625 -15.9024,10.91407 -3.8906,2.42968 -15.1094,4.23047 -20.7031,8.53125 -0.7461,0.85547 -1.0625,1.73437 -0.8906,3.22656 1.3711,3.28516 2.7421,6.57031 4.1171,9.85547 0.6329,2.0039 1.4219,4.72265 1.586,8.60547 0.1211,2.93359 -0.1875,5.76562 -0.6172,7.69531 -0.5625,2.50781 -1.2852,3.75391 -1.9531,5.07031 -0.8086,1.59766 -3.1563,5.1836 -6.5117,9.45703 -2.0625,2.625 -4.8125,5.63282 -7.375,7.76172 -2.4805,2.06641 -4.504,3.35156 -6.5235,4.47266 -4.9961,2.77734 -10.2383,5.1875 -14.2305,6.84375 -7.582,2.8164 -11.6796,5 -21.6054,7.47265 -4.5703,1.02344 -10.2383,2.09375 -21.6563,2.92188 -6.5664,0.47266 -16.125,0.32422 -22.0625,-0.40234 -6.5195,-0.80079 -9.8633,-2.41407 -14.3515,-3.91797 -1.7071,-0.36328 -2.8946,-0.21094 -3.711,0.35547 -2.8008,3.32812 -2.082,10.3164 -6.4375,14.78906 -1.9101,2.72265 -8.6406,10.27734 -14.0468,15.10156 -7.7422,6.48828 -8.3438,5.48438 -12.0782,7.67188 -2.2539,1.02343 -4.6953,2.125 -11.4218,2.98437 -5.0118,0.63672 -24.2344,2.08203 -35.9532,1.73828 -15.1133,-1.375 -25.4609,-3.67969 -31.5937,-4.73437 -9.1563,-2.53907 -14.4102,-4.45703 -20.7774,-7.21485 -6.0156,-3.10937 -8.8632,-8.51953 -12.3047,-10.69531 -1.1796,-0.31641 -2.4257,-0.0898 -3.8828,0.53906 -11.1093,7.28125 -12.9804,8.96094 -18.4726,10.86719 -1.8985,0.55859 -6.5664,1.25391 -12.7344,1.13281 -4.3906,-0.0859 -7.7461,-0.6289 -9.2187,-1.0625 -2.3516,-0.69531 -4.3477,-1.44922 -7.6915,-3.47265 -2.664,-1.60938 -6.039,-4.16797 -10.3125,-8.27735 -4.3046,-4.13672 -9.1953,-9.63672 -12.3164,-13.60547 -4.0742,-5.17578 -5.3867,-7.74609 -6.3711,-10.46484 -1.6054,-4.54687 -3.746,-12.55469 -4.6445,-24.14453 -0.6328,-7.95313 3.5,-10.72266 3.4141,-16.70313 -2.5352,-2.74609 -5.0742,-5.49218 -7.6094,-8.23828 -2.418,-3.77343 -3.6055,-5.08593 -4.7031,-10.01953 -0.4102,-2.10937 -0.9805,-6.76953 -1.1016,-14.10156 -0.125,-7.53125 0.2031,-15.4375 0.6289,-20 0.5508,-5.92188 1.2696,-8.35938 1.9688,-11.03125 2.1679,-8.29297 5.039,-18.375 8.0468,-27.62109 2.2774,-7 5.5196,-14.4961 8.3516,-19.39063 1.3789,-2.38281 2.8164,-4.69922 6.3789,-8.79687 3.7422,-4.30079 8.6172,-8.6836 10.4805,-9.58594 1.4883,-0.71875 2.4805,-0.33985 4.4297,-0.44141 1.2226,-0.18359 2.3828,-0.6289 2.9648,-1.74219 1.2539,-2.58984 -0.5156,-4.6289 -1.3437,-7.71875 -0.2852,-2.6914 0.2382,-6.16015 0.7031,-8.6289 0.7305,-3.875 1.5234,-6.89844 2.6836,-9.61328 0.9258,-2.17188 2.3281,-4.64453 4.082,-7.21485 1.543,-2.25781 5.3125,-6.78125 10.461,-11.74609 5.0078,-4.83203 7.3906,-6.35156 9.3554,-7.32813 5.3203,-2.63671 8.1016,-3.92578 15.0313,-5.32031 5.0547,-1.01562 12.3633,0.50781 13.2031,-0.0586 0.7852,-0.53125 -0.027,-2.72656 -1.293,-3.59766 -0.75,-0.51562 -1.8086,-0.90234 -3.6054,-1.01562 -5.2032,-0.22657 -11.1524,1.08203 -13.3399,1.80859 -7.1094,2.41797 -11.75,3.76953 -17.0625,7.24609 -3.9219,3.62891 -6.2226,4.88672 -14.625,15.30469 -5.789,9.46094 -5.8047,8.89063 -9.0469,16.41406 -1.0156,5.60938 -2.0312,11.21875 -3.0507,16.82813 -1.6094,2.32422 -8.7305,5.28125 -13.8672,12.03516 -5.1797,6.32812 -5.8008,8.25 -8.043,12.1289 -2.7773,5.55078 -4.7344,9.15625 -7.6602,18.13672 -3.0156,9.26953 -5.8945,19.38281 -8.0781,27.73828 -0.7851,3.69141 -1.7734,5.54688 -2.375,17.40625 -0.4375,9.58203 -0.1094,24.04688 0.3985,28.90235 0.9804,7.22656 1.957,7.66406 3.0664,10.27734 1.7461,3.26953 5.9922,6.82422 7.7734,10.99609 0.9727,3.09375 -1.4102,3.80469 -1.4766,11.38672 -0.1211,3.83203 0.1875,8.45313 0.6329,12.16406 0.871,7.20313 1.9375,10.875 2.9882,14.63282 1.3789,4.91797 2.3594,6.97265 4.2227,9.96875 0.7148,1.15234 11.9297,14.82031 16.4766,19.10547 2.8789,2.71484 8.2304,6.80078 11.6914,9.03515 2.6328,1.69922 4.5273,2.42188 7.7539,3.16406 1.8828,0.4375 5.5351,0.98829 10.8515,1.09766 5.4375,0.11719 10.7852,-0.22656 13.5078,-0.64844 5.625,-1.17187 5.6602,-1.87109 9.4258,-3.48828 3.1524,-0.72656 7.5078,-6.32422 10.5196,-6.09765 4.2929,1.40625 11.7851,9.24218 12.5664,8.5664 6.3398,2.50391 10.5468,5.02735 23.1718,7.53516 4.3008,0.82812 14.7227,2.48047 22.6563,3.04687 6.6953,0.47657 21.7265,0.47266 36.4492,-0.0742 15.1797,-0.58593 14.707,-1.27734 17.8164,-1.94531 6.3086,-2.21484 7.3281,-2.82031 13.125,-6.34375 3.9297,-2.87109 10.9961,-9.15625 13.9414,-12.6289 3.0235,-3.5586 5.5938,-7.08204 7.2891,-9.71875 1.4179,-2.84375 2.8398,-5.69141 4.2617,-8.53907 7.6172,0.82813 15.2344,1.65625 22.8516,2.48828 15.2187,0.19532 26.082,-1.52343 31.8945,-2.28125 14.4258,-2.67968 16.5937,-5.08203 25.4766,-8.02343 4.9804,-1.875 10.957,-4.45313 17.1523,-8.29297 3.0469,-1.89063 9.0273,-6.05469 11.7227,-9.03906 3.9726,-4.39063 9.5507,-13.85547 10.5351,-16.27735 0.8008,-1.50781 1.8789,-6.39062 1.6133,-13.48047 -0.5274,-10.19531 -2.6484,-12.7539 -3.4688,-16.43359 -0.1054,-0.875 0.016,-1.24609 0.7344,-1.99609 3.1836,-3.34375 12.2617,-3.89454 17.1367,-6.70313 4.9024,-2.50391 8.6563,-5.07812 15.2539,-10.55469 5.1055,-4.23047 13.7696,-13.35156 16.7032,-17.1875 4.1992,-5.88672 5.7148,-8.79687 7.5,-13.95703 0.7031,-2.39062 1.4609,-8.76953 0.8906,-14.14453 -1.4024,-9.16016 -3.1406,-13.5 -4.8984,-20.59375 -0.6875,-2.5 -1.2422,-4.30859 -2.254,-6.21875 -0.914,-2.66797 -6.4492,-7.66406 -8.0234,-12.13672 -0.3906,-1.6875 0.027,-2.82031 0.6875,-4.21875 3.1992,-5.32031 5.2422,-8.18359 7.1016,-13.34375 0.5937,-1.86719 1.4492,-5.60156 1.6172,-12.90625 0.2265,-9.60547 -0.8711,-16.60156 -1.6094,-20.4375 -1.7422,-9.23828 -3.2188,-11.35156 -5.168,-15.05469 -1.3672,-2.35937 -6.0976,-8.97656 -9.1172,-11.75"
     id="path85" />
  <path
     fill-rule="nonzero"
     fill="#000000"
     fill-opacity="1"
     d="m 1393.907,288.92926 c -1.4648,0.13281 -3.2852,0.63672 -5.2344,1.80859 -2.9883,1.88672 -6.664,5.02735 -9.3476,8.92969 l -2.1953,4.26172 c -1.1875,3.09766 -1.5586,6.25391 -1.4375,8.95703 0.2968,3.75 1.4765,5.125 2.7187,6.10938 1.1055,0.72265 2.8867,1.45312 5.4531,1.58203 3.3477,0.16797 5.543,-0.27735 7.9727,-1.16407 5.0625,-2.26171 6.7305,-4.76562 8.7109,-6.95312 1.5274,-2.07813 2.2383,-4.08594 2.9883,-6.76563 0.4531,-1.60937 0.8086,-3.375 0.5742,-5.42578 -0.2304,-2.02343 -1.0039,-4.18359 -2.1953,-6.125 -1.1562,-1.88281 -2.6523,-3.63281 -4.2031,-4.47265 -1.0547,-0.56641 -2.3047,-0.87891 -3.8047,-0.74219 m 4.4961,13.08984 c -0.582,4.86719 -1.7188,7.08203 -3.9258,10.47657 -1.2539,1.58984 -3.1875,3.28125 -5.6055,4.01562 -2.3984,0.71484 -4.7031,0.36719 -6.289,-0.73047 -2.1992,-1.57422 -3.5469,-3.63281 -4.0586,-6.1875 -0.2422,-1.23047 -0.3125,-2.8125 -0.086,-4.05859 0.2383,-1.32031 0.7383,-2.23438 1.4375,-2.94922 1.2461,-1.28125 8.4454,-5.9375 11.3399,-7.15234 1.6406,-0.85547 3.7851,-0.52344 5.2539,0.87109 1.5586,1.35937 2.1133,3.35937 1.9336,5.71484"
     id="path86" />
  <path
     fill-rule="nonzero"
     fill="#000000"
     fill-opacity="1"
     d="m 1411.9187,317.48785 c -1.289,-0.60937 -2.9961,-0.78125 -4.4961,-0.3125 -2.2031,0.8711 -4.0117,2.15625 -5.9765,5.02735 -0.9766,1.76172 -1.5039,3.68359 -0.4297,6.16406 l 1.8789,2.29297 3.5234,1.48047 4.3047,-0.17188 c -1.3398,0.99219 7.2578,-3.67969 5.8555,-4.22656 1.2968,-2.58203 0.8008,-4.41016 0.1289,-6.10938 -1.0156,-2.05468 -3.3281,-3.45312 -4.7891,-4.14453 m -0.7265,10.53516 c -0.8829,1.05078 -2.1094,1.71094 -2.6836,1.80859 -1.2696,0.22266 -2.918,-1.45703 -3.4493,-3.60547 -0.5234,-1.53515 0.8204,-2.92187 1.5352,-2.61718 1.082,-0.0391 2.1914,0.0547 3.8359,-0.28516 0.6914,0.0391 1.7227,0.31641 1.9805,1.43359 0.2109,0.90235 -0.3477,2.23047 -1.2187,3.26563"
     id="path87" />
  <path
     fill-rule="nonzero"
     fill="#000000"
     fill-opacity="1"
     d="m 1420.1804,336.3277 c -0.875,0.51562 -2.0898,1.16015 -2.4726,2.86718 -0.2578,1.15625 -0.3985,3.07032 0.9648,5.06641 -1.2226,-0.66797 4.7422,4.21484 5.2891,2.99219 l 2.332,-0.64453 c 1.3477,-0.80469 1.8438,-2.28125 1.8633,-3.55078 l -0.375,-2.09766 c -0.8242,-1.85547 -3.0742,-2.81641 -3.6367,-3.14844 -0.7696,-0.92187 3.1211,-2.1289 1.3711,-2.67578 -1.4492,-0.38672 -4.1602,0.49609 -5.336,1.19141 m 1.7969,5.3789 c -0.4375,-0.75 -0.4883,-1.80468 0.1289,-1.99218 0.8516,-0.25391 1.9766,1.8125 1.5313,2.625 -0.3516,0.63671 -1.0977,0.33593 -1.6602,-0.63282"
     id="path88" />
  <path
     fill-rule="nonzero"
     fill="#000000"
     fill-opacity="1"
     d="m 1434.7351,358.82379 c -0.4023,1.11328 -0.4453,3.30859 0.059,4.82031 l 1.2149,2.19532 2.0429,1.26953 c 1.668,0.46875 3.5821,-0.0469 4.8477,-0.9961 l 1.5781,-1.86328 c 0.6524,-1.23828 0.7031,-2.95312 -0.01,-4.19531 -0.6289,-1.09766 -2.2344,-1.90625 -3.3867,-2.30859 -0.6914,-0.24219 -3.2656,-0.72657 -3.7735,-0.70313 -1.2343,0.0508 -2.0781,0.41016 -2.5742,1.78125 m 4.2852,3.53906 c -0.7813,-0.70312 -0.8906,-1.32812 -0.6289,-1.87109 0.2734,-0.57813 0.7617,-0.51953 1.2773,-0.11328 0.543,0.42969 1.0664,1.72656 0.7695,2.15234 -0.2148,0.3086 -0.9062,0.28516 -1.4179,-0.16797"
     id="path89" />
  <path
     fill-rule="nonzero"
     fill="#000000"
     fill-opacity="1"
     d="m 1653.8406,528.94879 c -2.4922,-1.69141 -4.9844,-3.38281 -7.4766,-5.07422 -1.6562,-1.49219 -7.3711,-9.47265 -9.3359,-12.14844 -0.8867,-1.10156 -2.1758,-1.91796 -2.9961,-1.26171 -0.8125,0.64843 -0.8828,3.32031 -0.1523,4.99218 0.7265,1.65235 2.1953,3.71485 6.3281,8.08985 2.4765,2.625 6.1679,6.3125 9.1523,8.41015 -1.2851,-0.38281 6.9297,3.46485 5.4844,1.70703 0.8945,-1.3164 0.2539,-3.30468 -1.0039,-4.71484"
     id="path90" />
  <path
     fill-rule="nonzero"
     fill="#000000"
     fill-opacity="1"
     d="m 1720.1414,490.12457 c -2.6524,-0.20312 -5.4375,0.1875 -7.6563,0.61328 2.2617,-0.43359 -75.332,17.51172 -75.2929,17.72657 0.3125,1.05468 5.7382,1.6289 10.3242,1.33984 7.1445,-0.28125 14.6093,-1.49609 18.1484,-2.23438 18.9531,-4.63671 37.9024,-9.27734 56.8555,-13.91796 1.1015,-0.67579 1.6211,-1.66407 1.1562,-2.34766 -0.4843,-0.71484 -1.914,-1.05859 -3.5351,-1.17969"
     id="path91" />
  <path
     fill-rule="nonzero"
     fill="#000000"
     fill-opacity="1"
     d="m 1721.4304,496.18317 c -1.7461,5.30078 -3.4882,10.60546 -5.2343,15.90625 -1.8438,3.93359 -3.6875,7.86718 -5.5313,11.80078 -0.07,1.04687 0.457,2.10937 1.3828,2.51953 1.7539,0.6914 3.2149,-0.30078 4.1719,-1.55469 1.582,-1.96484 2.5117,-4.08203 3.2773,-6.36328 2.0196,-6.01953 3.5625,-13.01172 4.9414,-19.72266 0.4688,-2.28906 1.0274,-4.96484 0.2344,-5.90234 -0.6367,-0.73828 -2.3281,0.59375 -3.2422,3.31641"
     id="path92" />
  <path
     fill-rule="nonzero"
     fill="#000000"
     fill-opacity="1"
     d="m 1610.5047,566.8941 c 0.4921,-8.92578 -1.1758,-15.78515 -0.6836,-24.8164 -0.4493,-0.97657 -0.8985,-1.95313 -1.3477,-2.92969 -0.2305,-5.32031 -1.4727,-11.00781 -1.1016,-16.42578 -0.062,-0.58985 -0.6289,-0.91016 -1.4023,-0.75781 -0.5469,0.10937 -0.7422,0.3164 -0.8945,0.77343 -0.2539,0.75391 -0.1641,2.11328 -0.125,3.02735 0.4765,1.23828 0.9531,2.48047 1.4297,3.72265 0.023,12.7461 1.0273,26.33594 1.875,38.55469 0.2929,0.24219 0.8476,0.32031 1.2695,0.23828 0.7773,-0.15234 0.9258,-0.64062 0.9805,-1.38672"
     id="path93" />
  <path
     fill-rule="nonzero"
     fill="#000000"
     fill-opacity="1"
     d="m 1644.8132,570.74957 c -15.2734,-0.11719 -30.8164,0.19531 -46.1718,-0.0703 -1.5078,0.082 -3.668,0.45703 -5.0469,0.79687 -0.9844,0.67188 -1.9727,1.34375 -2.9609,2.01563 -1.5743,0.125 -3.5274,-0.14453 -4.9883,0.77344 -0.4258,0.26562 -0.6524,0.5625 -0.625,1.03125 0.035,0.66406 0.6875,1.03125 1.5078,0.93359 1.0039,-0.41797 2.0039,-0.83203 3.0039,-1.25 3.207,-0.71875 7.9727,-1.40625 11.3906,-1.51172 4.375,-0.13281 8.3555,0.45313 12.8164,0.71094 10.4492,-1.23047 21.75,-0.26953 31.6602,-1.18359 0.2383,-0.28516 0.3164,-0.85157 0.289,-1.26954 -0.051,-0.77734 -0.3281,-0.92578 -0.875,-0.97656"
     id="path94" />
  <path
     fill-rule="nonzero"
     fill="#000000"
     fill-opacity="1"
     d="m 1586.3757,507.37457 c -0.4335,-0.59765 -1.7226,-1.80469 -1.957,-1.5664 -0.2539,0.25781 -0.1719,1.86718 0.3086,2.69921 0.3984,0.69141 1.1172,0.97657 1.6445,0.51563 0.5313,-0.46875 0.3204,-1.20703 0,-1.64844"
     id="path95" />
  <path
     fill-rule="nonzero"
     fill="#000000"
     fill-opacity="1"
     d="m 1639.6257,493.81598 c -0.6484,-0.0469 -1.5585,-0.004 -1.8242,0.41797 -0.5508,0.86718 -0.1367,4.08984 -0.5742,5.47265 -1.9492,4.26563 -3.1992,8.77735 -5.7539,12.86719 -2.8633,3.00391 -6.0234,4.70703 -9.1328,6.76563 -1.1953,0.64062 -2.8945,0.86718 -4.1953,0.98046 -3.8985,0.34375 -8.2813,0.33594 -12.1797,0 -2.4688,-0.21093 -5.4375,-0.61718 -7.7109,-1.40234 -3.3204,-1.14453 -9.1407,-3.28906 -12.9297,-4.93359 -1.1485,-0.5 -2.3555,-1.35938 -3.6836,-2.26953 -3.6211,-2.48829 -7.1367,-5.39063 -8.9336,-7.89844 -0.4688,-1.07031 -0.9375,-2.14063 -1.4024,-3.21094 -0.5937,-0.37109 -1.2187,-0.0703 -1.4492,0.58984 -0.1953,0.5625 -0.1875,1.64844 -0.051,2.28125 0.293,1.34766 1.9102,3.63672 2.9453,5.14063 0.9766,1.42187 2.0704,2.58984 3.5743,3.67969 5.5625,3.9375 10.0312,5.18359 14.4218,7.7539 4.8633,0.125 7.9649,2.73828 12.9258,3.09375 5.6172,0.3125 11.7852,0.45703 17.3906,-0.0391 3.1368,0.0937 4.5743,-2.44922 7.3438,-3.13672 2.1758,-1.28515 5.6484,-4.875 7.0859,-7.02344 0.961,-1.43359 1.8555,-3.0625 2.4063,-4.33203 0.9609,-2.21484 1.1211,-4.88281 1.4648,-7.10937 0.4336,-0.77344 0.8672,-1.54297 1.3008,-2.31641 0.2891,-1.18359 0.2578,-3.36328 0.039,-4.49609 -0.1328,-0.67578 -0.3985,-0.82422 -1.0782,-0.875"
     id="path96" />
  <path
     fill-rule="nonzero"
     fill="#000000"
     fill-opacity="1"
     d="m 1636.1297,484.4527 c -2.9258,0.10547 -5.2813,2.03515 -7.8868,2.11328 -10.9453,0.33203 -22.6367,-0.78125 -33.8398,-0.71094 -4.7461,0.0273 -9.7461,0.46094 -14.4609,0.71875 -1.4961,0.0859 -2.8008,1.65234 -4.3438,2.13672 -2.1602,0.30859 -4.3164,0.61328 -6.4766,0.92187 -0.4296,0.16407 -0.6523,0.41016 -0.6406,0.85547 0.012,0.44532 0.2383,0.69141 0.6992,0.85547 0.9336,0.33594 2.668,0.1836 3.7696,0.13672 2.414,-0.11328 5.0507,-1.55859 7.9687,-2.03906 3.5938,-0.0508 7.1914,-0.10156 10.7891,-0.15625 0.9648,-0.46094 1.9297,-0.92578 2.8945,-1.38672 7.8555,-0.45703 16.2656,-0.45313 24.1211,0 1.207,0.47656 2.4141,0.95703 3.6211,1.4375 2.8984,0.16016 5.9922,0.16016 8.8945,0 1.2578,-0.0703 4.4805,-1.37891 5.793,-2.14063 0.5859,-0.33984 0.8242,-0.97656 0.7578,-1.73437 -0.066,-1.01563 -0.6562,-1.00391 -1.6601,-1.00781"
     id="path97" />
  <path
     fill-rule="nonzero"
     fill="#000000"
     fill-opacity="1"
     d="m 1637.7156,491.97223 c 0.3867,-1.15235 0.1016,-2.94531 -0.4805,-3.05469 -0.4492,-0.0859 -1.3398,0.26172 -1.6836,0.86328 -0.4375,0.76172 -0.094,2.25 0.6719,2.75781 0.6445,0.42969 1.2695,0.10938 1.4922,-0.5664"
     id="path98" />
  <path
     fill-rule="nonzero"
     fill="#000000"
     fill-opacity="1"
     d="m 1571.6765,501.29254 c -0.4453,-0.79687 -0.8906,-1.59375 -1.332,-2.39062 -0.5078,-1.92188 0.4492,-5.23438 -0.1758,-7.08985 -0.1328,-0.38281 -0.4101,-0.60547 -0.8125,-0.43359 -1.2148,0.89844 -1.1601,3.26172 -0.9687,4.83984 0.2617,1.71875 0.5195,3.60547 1.0468,5.26172 0.2266,0.72266 0.5899,1.34766 1.2813,1.30469 0.6758,-0.0391 0.9766,-0.74219 0.9609,-1.49219"
     id="path99" />
  <path
     fill-rule="nonzero"
     fill="#000000"
     fill-opacity="1"
     d="m 1187.0867,96.60504 c 0.9023,4.44531 1.8086,8.89063 2.7109,13.33594 0.1836,5.99609 0.012,11.86719 -1.5429,17.875 -1.7969,6.91797 -4.125,13.64844 -6.7188,20.21094 -3.0703,7.77343 -7.8008,15.97656 -11.4961,22.55078 -2.4101,5.24218 -4.3125,11.42968 -5.6758,16.95703 -1.3672,5.53515 -1.9062,11.5664 -1.5937,17.14062 3.0508,13.00782 2.5703,28.92188 6.2187,38.98438 0.6211,0.30078 1.0664,-0.0391 1.5,-0.6836 0.6563,-0.98437 0.9414,-2.41015 0.9102,-3.5039 -0.3711,-13.02344 -3.8516,-25.52344 -4.2461,-38.32031 -0.1836,-5.98829 1.3125,-13.11329 2.4453,-19.01563 3.7227,-8.13281 8.4766,-17.39844 13.9336,-26.95312 4.0273,-9.33204 7.0352,-17.65625 9.2852,-25.97266 0.7734,-2.85547 1.1093,-5.39453 1.2578,-7.71094 0.2773,-7.05469 -0.066,-15.11328 -0.5703,-21.33203 0.6054,-1.18359 2.164,-1.93359 3.4023,-1.42969 1,0.40625 1.6172,1.37891 1.8359,2.44141 0.3828,11.14062 1.7696,22.39844 1.2852,33.58203 0.4492,5.20313 1.5039,12.00781 3.7383,17.0625 2.8633,6.46094 5.9062,13.64063 10.1093,19.27344 0.8907,1.1914 2.1016,2.5 3.4297,2.73047 1.3789,0.23437 2.3243,-0.72657 2.5469,-1.69922 -4.793,-9.60156 -9.3242,-17.35156 -14.5703,-29.67578 -1.7383,-14.60157 -0.7578,-29.41797 -2.0977,-44.01172 0.062,-1.51953 -0.8984,-3.25391 -2.5781,-3.50391 -2.207,-0.55469 -12.5469,0.41797 -13.5195,1.66797"
     id="path100" />
  <path
     fill-rule="nonzero"
     fill="#000000"
     fill-opacity="1"
     d="m 1220.9851,181.93317 c -0.6367,-4.02344 -1.207,-8.65235 -3.0469,-12.52735 -2.8515,-4.73437 -5.2421,-9.71484 -8.5039,-12.39062 -1.0507,-0.0391 -1.1015,0.73828 -0.8046,1.58593 2.7031,5.52735 6.8476,13.58985 7.7343,18.46485 -0.3593,12.00781 1.9258,26.11328 1.6094,38.93359 0.3047,5.45313 0.7148,12.94922 2.4102,18.07813 0.3515,1.0664 1.3554,2.00781 2.1914,1.69922 0.2773,-15.19922 -0.5469,-35.84375 -1.5899,-53.84375"
     id="path101" />
  <path
     fill-rule="nonzero"
     fill="#000000"
     fill-opacity="1"
     d="m 1213.8953,236.94879 c -1.8906,0.60156 -3.7852,1.19922 -5.6797,1.79688 -10.4688,-0.0156 -20.8672,2.55468 -31.6406,3.7539 -0.9805,0.375 -1.4024,1.33985 -1.0508,2.44922 0.4609,1.44531 1.8594,1.69922 3.3555,1.75 5.8632,0.19141 13.6328,-0.42969 19.371,-1.35156 7.6758,-1.23047 16.3907,-3.08203 23.8594,-3.32813 1.5156,-0.3789 3.1719,-2.05859 3.125,-3.28906 -0.012,-0.23047 -8.6445,-2.30859 -11.3398,-1.78125"
     id="path102" />
  <path
     fill-rule="nonzero"
     fill="#000000"
     fill-opacity="1"
     d="m 1282.782,191.2066 c -0.2891,-0.45703 -0.7852,-0.61328 -1.457,-0.53515 -4.086,1.45703 -8.3321,5.83593 -12.2383,5.94531 -3.6524,0.17969 -7.3516,-1.1875 -11.0274,-2.07031 -2.1289,-0.71094 -4.6601,-1.26953 -6.5664,-2.96485 -3.1875,-3.67578 -6.375,-7.34765 -9.5625,-11.02343 -1.3164,-1.44922 -3.1797,-2.3125 -3.1875,-0.98438 0.3555,3.15234 1.7227,7.21484 4.2852,10.60938 1.5117,1.91015 3.6016,3.97656 5.4961,5.51953 2.2383,1.82422 4.6797,3.45312 6.9336,4.27734 4.9687,1.33594 9.8789,2.51563 14.8594,2.33594 2.3554,-0.45313 4.6601,-1.12891 7.0117,-2.67969 1.7773,-1.17187 4.3437,-3.03125 5.3164,-5.08984 0.5859,-1.2461 0.5742,-2.66016 0.1367,-3.33985"
     id="path103" />
  <path
     fill-rule="nonzero"
     fill="#000000"
     fill-opacity="1"
     d="m 1287.2156,169.21832 c -3.5313,-0.34765 -8.5508,-0.27734 -12.5586,-0.0859 -7.5547,0.35547 -15.293,1.19532 -22.5234,2.4375 -2.2579,0.64063 -4.5118,1.28125 -6.7657,1.92188 -2.0586,-0.34766 -5.4062,-1.45703 -6.2968,-0.1875 -0.4141,1.13672 1.4257,2.99219 2.8203,3.37891 5.75,0.35937 11.5156,0.16406 17.2734,0.17187 8.7774,-1.46484 17.2774,-1.96094 25.9844,-2.39453 1.6015,-0.39063 3.2265,-1.91406 3.4219,-3.67188 0.1367,-1.22656 -0.5196,-1.48437 -1.3555,-1.57031"
     id="path104" />
  <path
     fill-rule="nonzero"
     fill="#000000"
     fill-opacity="1"
     d="m 1287.3211,173.04645 c -1.1914,0.71875 -2.3868,3.09375 -2.8477,4.17968 -0.918,2.16016 -2.375,6.42579 -2.625,8.35157 -0.086,0.65625 0.2148,1.37109 0.832,1.65234 1.1993,0.54688 2.9141,-0.82422 3.4453,-1.85156 0.9883,-1.92578 3.7813,-7.27344 4.4532,-9.98828 0.2617,-1.04688 -0.1055,-2.00391 -1.1992,-2.45313 -0.6446,-0.26562 -1.4844,-0.23828 -2.0586,0.10938"
     id="path105" />
  <path
     fill-rule="nonzero"
     fill="#000000"
     fill-opacity="1"
     d="m 1270.6101,231.74567 c 0.4883,-1.76954 0.2383,-4.1875 0.086,-5.64454 -0.4766,-4.58984 -2.4805,-15.10156 -4.6133,-20.66015 -0.2735,-0.70703 -0.6172,-1.08203 -1.5,-1.07031 -0.7813,0.0117 -1.5117,0.38281 -2.0664,1.15234 -0.8946,1.24219 -0.7735,3.39844 -0.6719,4.81641 0.4453,6.08984 2.5625,16.14062 4.8477,22.61718 0.2382,0.67578 0.5429,1.03125 1.4101,1.01172 1.2227,-0.0273 2.1836,-1.04687 2.5078,-2.22265"
     id="path106" />
  <path
     fill-rule="nonzero"
     fill="#000000"
     fill-opacity="1"
     d="m 1283.9304,234.53473 c -4.1211,-0.6875 -9.4804,-0.39453 -13.7031,-0.0274 -6.8711,0.60157 -13.5976,1.95313 -19.2891,3.80469 -1.1914,0.38672 -2.2109,1.13281 -2.2109,2.23438 0,0.73828 0.3906,1.07422 1.082,1.1875 4.2149,-0.57813 8.4336,-1.16016 12.6485,-1.73828 7.457,-0.54688 15.457,0.82421 22.5625,-0.67579 0.8867,-0.70312 1.3711,-2.07421 1.1367,-3.11328 -0.2305,-1.03906 -1.1328,-1.49218 -2.2266,-1.67187"
     id="path107" />
  <path
     fill-rule="nonzero"
     fill="#000000"
     fill-opacity="1"
     d="m 1255.6297,189.01129 c 6.0429,-0.82031 12.0859,-1.64062 18.125,-2.46094 1.832,-0.41406 4.621,-0.74609 4.3945,-2.05468 -7.6836,-1.54688 -21.5391,1.29687 -31.7461,1.61718 -1.4805,0.23047 -3.4297,1.36328 -2.9375,2.33985 2.7461,1.08203 8.2656,0.64843 12.1641,0.55859"
     id="path108" />
  <path
     fill-rule="nonzero"
     fill="#000000"
     fill-opacity="1"
     d="m 1210.8992,164.78473 c -12.8008,0.55078 -23.9219,1.32422 -35.582,2.20312 -1.125,0.0859 -2.0508,0.41797 -2.043,1.50391 0.01,0.72266 0.3555,1.13672 1.0664,1.54297 1.1914,0.6875 3.2226,0.99219 4.6445,0.90234 3.4219,-0.63281 6.8438,-1.26953 10.2656,-1.90625 7.5157,-0.1875 15.0274,-0.375 22.543,-0.5625 1.0078,-0.0976 1.3555,-0.64453 1.375,-1.80078 0.074,-1.41016 -0.6836,-2.02344 -2.2695,-1.88281"
     id="path109" />
  <rect
     style="fill:none;stroke-width:13.474"
     id="rect109"
     width="1742.2188"
     height="550.27631"
     x="-21.651585"
     y="29.977203" />
  <rect
     style="fill:none;stroke-width:13.474"
     id="rect110"
     width="1850.3484"
     height="586.664"
     x="0"
     y="0" />
</svg>
