<?xml version="1.0" encoding="UTF-8" standalone="no"?>
<svg
   width="1872"
   height="330.34503"
   viewBox="0 0 1872 330.34503"
   version="1.1"
   id="svg126"
   sodipodi:docname="9.svg"
   xmlns:inkscape="http://www.inkscape.org/namespaces/inkscape"
   xmlns:sodipodi="http://sodipodi.sourceforge.net/DTD/sodipodi-0.dtd"
   xmlns:xlink="http://www.w3.org/1999/xlink"
   xmlns="http://www.w3.org/2000/svg"
   xmlns:svg="http://www.w3.org/2000/svg">
  <sodipodi:namedview
     id="namedview126"
     pagecolor="#ffffff"
     bordercolor="#666666"
     borderopacity="1.0"
     inkscape:showpageshadow="2"
     inkscape:pageopacity="0.0"
     inkscape:pagecheckerboard="0"
     inkscape:deskcolor="#d1d1d1" />
  <use
     xlink:href="#source-5"
     transform="rotate(90,1219.2069,652.79306)"
     id="use1" />
  <path
     fill-rule="nonzero"
     fill="#000000"
     fill-opacity="1"
     d="m 1148.8008,206.75018 c -3.4883,-14.30078 -6.3985,-31.0664 -8.9024,-48.16406 -3.9296,-9.57031 -6.7421,-16.21094 -11.0859,-24.25391 -2.457,-3.4375 -4.9141,-6.8789 -7.3711,-10.3164 -4.5664,-6.27344 -14.6211,-13.33203 -19.2969,-15.88282 -4.6757,-1.96093 -10.957,-2.8789 -15.7226,-3.28906 -5.0391,-0.4375 -10.5625,-0.4375 -15.6016,0 -6.9375,1.48438 -13.9765,2.33985 -20.9648,5.91016 -7.0078,4.40234 -14.8633,10.23047 -18.8672,15.55469 -5.8164,7.74609 -14.9844,20.18359 -18.918,29.23828 -1.6406,3.78125 -4.3555,9.89453 -6.793,15.13281 -1.2812,9.53516 -6.62105,18.03125 -7.45699,31.31641 0.70313,9.87109 1.41016,19.74218 2.11328,29.61328 0.52731,1.40234 2.09371,2.10937 3.32811,1.14843 1.9219,-6.77343 1.6524,-18.47265 -0.1797,-25.30078 -0.2383,-5.85156 1.7735,-18.84765 3.5938,-25.0625 1.5351,-5.22656 4.9844,-13.47656 6.8789,-17.41015 3.7734,-7.83985 11.8594,-19.82813 19.3125,-31.16407 2,-3.03906 5.3828,-6.76953 9.25,-10.40625 3.4766,-3.26953 8.1016,-7.28906 11.8984,-8.71093 5.5977,-2.09375 12.6485,-4.17578 17.1524,-4.88672 6.2187,-0.98047 13.8906,-0.63281 20.1914,1.57812 4.4062,1.55078 9.4375,3.62891 13.5976,6.0625 3.3086,1.94141 7.1993,5.2461 9.4727,7.78125 4.5039,7.87891 9.0078,15.75782 13.5117,23.63672 1.8906,3.75 5.2266,11.71875 5.7891,15.44922 2.5195,20.29297 8.7695,37.01563 9,58.65234 0.5468,1.39844 2.1133,2.13282 3.9258,1.76563 1.2851,-0.25781 1.75,-0.76172 2.1015,-1.83594 1.4805,-4.5039 0.6641,-13.22265 0.043,-16.15625"
     id="path75" />
  <path
     fill-rule="nonzero"
     fill="#000000"
     fill-opacity="1"
     d="m 1136.1641,233.02362 c -1.3633,-1.13672 -5.5899,-2.21484 -7.9493,-2.37109 -29.9179,-3.51172 -51.8085,-4.5625 -81.5625,-6.56641 -10.1679,0.0469 -23.7734,-0.41797 -32.9961,1.61328 -1.4843,0.32813 -5.4843,2.07422 -6.1757,3.89453 -0.5664,1.49219 0.9414,2.07422 2.7265,2.23438 8.0899,0.72265 16.25,-1.15625 21.5625,-1.69922 13.3594,-0.7461 28.9297,1.05078 42.3008,1.85547 19.6445,2.66406 39.1016,3.89453 59.2969,6.67968 2.4453,0.2461 3.625,-1.16015 3.5508,-3.3125 0.01,-0.94921 -0.2461,-1.90234 -0.7539,-2.32812"
     id="path76" />
  <path
     fill-rule="nonzero"
     fill="#000000"
     fill-opacity="1"
     d="m 1115.8516,43.257991 c -3.7149,-4.91406 -9.0977,-9.6875 -13.586,-12.43359 -4.1797,-2.55859 -7.4179,-4.20703 -12.3203,-5 -6.1367,-0.99609 -13.3515,-0.61719 -19.5234,-0.19531 -4.586,0.3125 -11.0781,3.91015 -15.4922,7.375 -5.0039,3.92578 -9.1016,9.60156 -13.8359,14.14062 -2.043,1.95703 -5.5118,8.1836 -6.6563,11.60938 -0.9102,2.72656 -0.6562,6.09765 -0.4102,8.88281 0.4532,5.09766 2.9532,11.19531 5.6719,15.21094 2.7852,4.11719 9.543,10.5625 13.3477,12.8125 4.1679,2.45703 11.5234,5.808589 17.7109,6.804689 6.0156,0.96484 13.0899,0.74218 19.1289,0.21484 8.4063,-0.14453 9.4063,-4.898439 15.8086,-5.851559 6.1602,-4.1836 11.3906,-9.71875 14.586,-14.22657 1.7421,-2.43359 2.6406,-7.70703 2.9687,-11.46093 0.4063,-4.66016 0.5156,-9.48438 -0.016,-12.65235 -0.7774,-4.64062 -4.6406,-11.59765 -7.3828,-15.23047 m -1.5469,37.51172 c -2.3125,3.36328 -8.75,9.89063 -11.4336,11.23438 -4.8008,2.40625 -10.2734,3.86719 -16.5781,5.19531 -3.5742,0.75391 -8.0508,0.89453 -11.3047,0.40625 -3.5352,-0.53125 -7.6602,-1.92969 -12.2344,-3.69531 -4.6758,-1.80469 -11.6875,-6.05469 -16.3945,-11.11719 -2.7813,-2.99219 -4.8828,-7.34375 -6.3125,-11.96875 -1.1367,-3.67969 -1.6992,-8.03906 -0.9688,-11.56641 0.6133,-2.95703 5.4727,-8.12109 9.793,-11.47656 3.5391,-2.74609 7.5352,-5.10547 11.8945,-6.5 2.1094,-0.67578 4.4453,-0.67578 6.5547,-0.36719 2.7774,1.16797 5.5547,2.33594 8.332,3.50391 0.3868,-1.39844 -2.121,-3.72656 -4.1953,-4.38672 -4.7304,-1.50781 -15.4101,-2.07812 -15.0312,-2.32422 2.418,-1.54687 6.0273,-3.32812 8.2578,-3.85156 6.8867,-1.45703 15.5547,-2.30859 22.7266,-1.67187 3.0859,0.60546 7.4843,2.9414 12.3046,6.17578 2.6368,1.76953 5.9454,4.34765 8.1954,7.22656 2.8046,3.58594 6.6757,10.94531 8.2109,15.04687 1.1133,2.96094 0.9258,9.04688 0.1797,13.67969 -0.3399,2.14063 -0.7891,4.70313 -1.9961,6.45703"
     id="path77" />
  <path
     fill-rule="nonzero"
     fill="#000000"
     fill-opacity="1"
     d="m 1520.3164,77.265811 c -5.0234,1.45312 -12.0039,5.30859 -15.7656,7.3789 -5.4649,3.00391 -10.6719,7.79688 -15.1992,12 -7.4532,8.753909 -10.6719,9.593749 -18,20.511719 -2.6485,4.55469 -4.8164,8.28906 -6.1836,12.2461 -3.3789,9.7539 -4.4532,20.88281 -5.2266,31.21875 2.9063,18.8164 0.4453,27.96875 4.043,44.58984 1.1406,0.91797 3.4648,0.89844 4.5234,-0.008 0.707,-0.60157 0.8672,-1.66407 0.9531,-2.78907 1.0704,-14.0625 -2.1367,-31.65234 -2.3632,-42.37109 1.3945,-9.45312 2.5351,-17.80469 4.8632,-26.75391 0.8594,-3.3125 2.5782,-7.02343 4.1797,-10.0039 3.418,-6.35547 10.9219,-15.42578 19.3985,-23.839849 3.0351,-2.41406 6.0703,-4.82812 9.1054,-7.24609 4.5118,-3.61719 16.8946,-9.92578 24.7539,-12.84375 3.4766,-0.30859 6.9493,-0.62109 10.4258,-0.93359 1.5078,-0.64844 1.7266,-1.96094 0.8555,-2.50391 -4.8945,-0.875 -13.8281,-0.57031 -20.3633,1.34766"
     id="path78" />
  <path
     fill-rule="nonzero"
     fill="#000000"
     fill-opacity="1"
     d="m 1575.8242,206.55487 c -14.789,0 -29.5781,0 -44.3672,0 -2.3007,-0.57031 -4.6015,-1.14063 -6.9023,-1.71094 -13.4453,-0.35937 -22.5469,2.02344 -36.1797,1.67969 -5.7148,-0.14453 -15.3672,-4.32031 -21.3047,-4.95313 -1.8086,-0.1914 -3.3906,0.36719 -3.3633,2.21485 0.023,1.83984 1.4766,3.25781 2.9805,3.86328 8.8438,1.67578 17.6875,3.35156 26.5313,5.02734 18.3945,-0.55859 51.2968,0.6836 79.289,0.37891 2.3047,0.21094 5.1289,-1.58203 5.2891,-4.08984 0.2656,-1.91407 -0.7539,-2.29297 -1.9727,-2.41016"
     id="path79" />
  <path
     fill-rule="nonzero"
     fill="#000000"
     fill-opacity="1"
     d="m 1599.957,193.5119 c -1.5,-5.04687 -4.9257,-19.46484 -7.5,-26.47656 -0.2851,-9.84766 -2.5429,-16.03125 -4.2734,-25.79297 -3.4609,-10.36328 -13.4766,-30.11328 -19.4141,-39.28906 -2.0781,-3.210939 -4.2578,-7.195319 -8.0664,-10.683599 -8.7812,-4.59375 -11.664,-7.74609 -19.3359,-10.17968 -2.3672,-0.4336 -5.3359,0.45703 -7.4805,1.41015 -1.4414,0.64063 -2.6562,1.8711 -3.0937,3.94922 -0.2617,1.24219 -0.047,2.53516 0.4375,3.00781 2.7812,1.23438 2.5703,-5.36328 6.5781,-3.73828 6.9258,2.80469 11.043,6.20703 16.6484,9.45703 6.543,7.066409 8.1211,14.281249 13.2227,19.687499 5.8437,11.50391 10.9531,20.45313 14.25,30.99219 4.6641,14.90625 7.707,33.80859 10.2109,46.54297 0.1407,4.46484 0.2774,8.92969 0.418,13.39844 0.2617,1.90625 3.6211,2.34375 5.125,1.11328 1.6016,-1.41016 2.3711,-13.0625 2.2734,-13.39844"
     id="path80" />
  <path
     fill-rule="nonzero"
     fill="#000000"
     fill-opacity="1"
     d="m 1562.4922,23.910341 c -1.418,-2.60156 -3.7852,-5.36719 -6.9844,-8.29297 -4.1406,-3.78516 -7.6836,-6.6875004 -11.1367,-8.2578104 -3.1953,-1.45313 -8.0508,-4.12891 -13.6523,-4.24219 -5.1485,2.02734 -10.2969,4.05859 -15.4454,6.08984 -3.6015,-0.17578 -6.4687,-0.8125 -10.2734,0.42188 -4.168,1.3476504 -8.8164,2.6289004 -14.2227,6.3828104 -4.746,3.29297 -8.7773,9.09375 -10.2187,12.00391 -1.8789,3.79297 -2.3203,9.35547 -2.1602,13.78906 0.9727,6.43359 4.1993,13.05469 8.2227,19.28125 3.7734,4.96875 9.4102,8.26953 14.4961,11.76562 5.0469,3.46875 10.5742,6.90625 15.7851,8.53125 5.8633,1.83204 13.3672,1.06641 19.3438,0.8086 3.5977,-0.15625 5.2539,-1.79297 8.8164,-4.34375 4.5039,-3.22656 10.2617,-7.19922 13.25,-11.52344 2.5508,-3.69141 4.1094,-8.32422 5.2852,-12.3125 1.5859,-5.39062 2.8945,-12.26562 2.3906,-17.17578 -0.3711,-3.61328 -1.6875,-9.59766 -3.4961,-12.92578 m -16.7188,44.67969 c -3.1132,2.92187 -6.6054,4.53125 -9.9765,5.91406 -2.6875,1.10156 -5.711,1.97265 -8.418,1.96484 -3.582,-0.0117 -8.2695,-0.7539 -11.7617,-1.78125 -4.9883,-1.47265 -10.3945,-5.42969 -15.2774,-8.85937 -2.8867,-2.02344 -5.3164,-4.42969 -7.3203,-7.31641 -3.1445,-4.52344 -7.3125,-11.39453 -7.9023,-13.96094 -0.6797,-2.96875 -0.6797,-9.63281 0.3867,-12.02734 0.7852,-1.75391 3.1953,-8.15625 5.2305,-10.35547 1.6875,-1.82031 5.4687,-4.44922 6.6914,-5.12109 2.9844,-1.64063 11.6562,-4.94532 14.7305,-5.42188 4.6484,-0.72656 10.5156,3.63672 15.3789,2.78906 0.9375,-0.16015 1.3554,-0.54296 1.0937,-1.21093 -0.1601,-0.40235 -2.1445,-2.23047 -3.0195,-2.6875 -1.1953,-0.25391 -2.3906,-0.50782 -3.5899,-0.7617204 2.336,-0.69531 11.711,-0.78516 14.6524,0.4062504 2.8437,1.14453 8.3086,5.42969 14.2929,11.45312 2.7891,2.8086 4.9922,5.58985 5.9375,8.38672 1.2149,3.60938 1.8399,7.13672 1.8633,10.14453 0.047,6.17969 -1.6289,11.85157 -2.9297,16.78516 -1.6132,4.78125 -6.3711,7.8125 -10.0625,11.66016"
     id="path81" />
  <path
     fill-rule="nonzero"
     fill="#000000"
     fill-opacity="1"
     d="m 1041.0234,126.73456 h 2.875 l -2.875,-2.875 v 2.875"
     id="path82" />
  <path
     fill-rule="nonzero"
     fill="#000000"
     fill-opacity="1"
     d="m 1066.0586,181.36346 c -3.3164,-9.92578 -7.0703,-21.32422 -10.332,-31 -1.3946,-4.14062 -6.4141,-14.59375 -9.8594,-20.875 -1.1719,-2.13281 -3.4336,-5.39843 -4.0625,-4.52734 5.4375,13.82812 10.6484,31.5625 16.2344,43.03906 4.4843,20.94141 5.5664,43.06641 9.5664,62.05078 -0.211,1.71485 2.8593,3.63282 4.5586,2.91016 0.9414,-13.59766 -6.0586,-36.39063 -6.1055,-51.59766"
     id="path83" />
  <path
     fill-rule="nonzero"
     fill="#000000"
     fill-opacity="1"
     d="m 1093.1211,136.11737 c -2.2148,3.54297 -4.4258,7.08594 -6.6367,10.62891 -2.3516,3.6914 -5.1953,13.34375 -5.9063,16.9414 -2.1797,13.56641 -6.8398,27.58203 -8.7265,43.22656 -0.3477,6.36329 0.5664,13.08594 1.8828,19.38282 0.3242,1.54297 1.1406,3.29687 2.6211,3.96093 1.539,0.69532 2.7461,-0.44921 3.0586,-2.27734 -0.8672,-6.33203 -1.7305,-12.66406 -2.5938,-18.99219 0.3399,-10.30859 1.7617,-19.80078 3.4375,-28.64843 1.3164,-6.95704 5.9297,-20.78125 9.9297,-29.77344 2.2188,-4.99219 4.9414,-11.14453 7.6836,-15.26953 1.9805,-1.72266 3.957,-3.44532 5.9336,-5.16797 0.3555,-0.9961 -0.3555,-2.50781 -1.9219,-2.44141 -1.3086,0.0508 -6.6445,5.64844 -8.7617,8.42969"
     id="path84" />
  <path
     fill-rule="nonzero"
     fill="#000000"
     fill-opacity="1"
     d="m 1032.4102,143.96503 h 2.875 l -2.875,-2.875 v 2.875"
     id="path85" />
  <path
     fill-rule="nonzero"
     fill="#000000"
     fill-opacity="1"
     d="m 1022.8867,227.48065 c 8.0352,-0.83594 16.0742,-1.66797 24.1094,-2.50391 2.1133,-1.22265 4.2305,-2.44531 6.3477,-3.66796 2.6093,0.5664 -0.01,7.0664 2.3046,10.125 0.9141,1.01953 2.0039,1.29296 3.2032,0.87109 1.3398,-0.47266 1.8164,-1.32422 2.1875,-2.6875 1.5273,-5.61719 0.9257,-21.92969 -0.082,-26.40234 -3.2304,-13.09766 -6.4609,-26.19532 -9.6914,-39.29297 -0.7695,-8.16407 -0.6875,-15.58203 -3.1718,-24.375 -1.3086,-2.36719 -2.6133,-4.73047 -3.9219,-7.09766 -0.3828,-3.07422 -0.6406,-7.32422 -2.0274,-10.15234 -0.5,-1.01172 -0.9843,-1.48438 -2.2968,-1.72657 -1.8594,-0.34375 -3.2344,0.37891 -3.7618,1.7461 -0.9218,5.01562 -1.8437,10.02734 -2.7656,15.04297 -3.1367,2.44922 -6.2734,4.89453 -9.4101,7.34375 -4.7657,7.75 -9.5977,16.47656 -14.8594,26.16406 -0.75,2.84766 -0.8203,9.48047 -0.5821,10.90234 0.7461,1.14453 1.4883,2.29297 2.2344,3.44141 -0.8164,1.89844 -2.9961,5.48437 -2.3047,8.19141 1.1719,0.71875 2.3438,1.4414 3.5118,2.16015 -1.1836,4.91406 -5.9571,8.96094 -9.7305,14.80469 -0.8867,2.47656 1.668,3.53906 2.7461,4.26562 -0.9844,1.59375 -1.9688,3.1836 -2.9531,4.77735 0.8828,1.3164 1.7656,2.6289 2.6484,3.94531 -0.062,2.35547 -0.7344,5.71875 0.9961,8.18359 0.7656,1.09375 1.793,1.67579 3.1015,1.95313 6.4571,0.89453 9.3438,-5.58984 14.168,-6.01172 m -16.7109,-14.86719 0.9687,-0.3125 -0.3125,0.96875 -0.6562,-0.65625 m 1.5469,-0.89062 -0.5782,-1.14453 0.9688,1.41015 -0.3906,-0.26562 m 0.6367,18.57422 0.5078,-0.10157 0.6367,0.0273 0.2539,0.15625 -0.2539,0.16406 -0.6367,0.0352 -0.5078,-0.0937 v -0.1875 m 2.5429,0.20312 v -1.9414 l 0.2657,0.42968 0.332,0.53907 -0.5977,0.97265 m 1.9883,-30.83594 -0.5781,-1.14453 0.9687,1.41016 -0.3906,-0.26563 m 0,-17.22656 -0.5781,-1.14844 0.9687,1.41016 -0.3906,-0.26172 m 0,-8.61719 -0.5781,-1.14453 0.9687,1.41016 -0.3906,-0.26563 m 1.1446,25.60547 -0.9063,-0.90625 0.9063,-0.91015 0.9101,0.91015 -0.9101,0.90625 m -0.3243,-17.82422 h 1.293 l -0.9687,0.59766 -0.9688,-0.59766 h 0.6445 m 0.4336,-12.76953 -0.3281,-0.0586 -0.4375,-0.16406 -0.168,-0.125 0.3282,0.0586 0.4375,0.16406 0.1679,0.125 m 0.7266,22.71485 h 0.2266 l -0.1719,0.59375 -0.461,0.77343 -0.3906,0.41016 -0.07,-0.35156 0.3945,-0.74219 0.4727,-0.68359 m -2.8281,32.44531 c -2.1368,0.89062 -3.8203,1.1875 -4.1328,-0.17578 -0.3204,-1.39063 0.4765,-4.15235 1.1445,-4.13281 0.8242,2.20312 6.5156,1.12109 6.9414,0.88281 0.1055,0.71094 -2.0742,2.64453 -3.9531,3.42578 m 4.0273,-33.11719 -0.3125,-0.97265 0.9727,0.3125 -0.6602,0.66015 m 2.1641,25.1836 0.9687,-0.3125 -0.3125,0.96875 -0.6562,-0.65625 m 1.2812,-35.52344 v -1.9375 l 0.2656,0.42969 0.3321,0.53906 -0.5977,0.96875 m 3.4453,27.5664 -0.3125,-0.96875 0.9727,0.3125 -0.6602,0.65625 m 0,-8.61328 v -1.9414 l 0.2657,0.43359 0.332,0.53906 -0.5977,0.96875 m 0.4414,14.22266 0.9688,-1.41016 -0.5742,1.14453 -0.3946,0.26563 m 0,-16.60547 0.9688,-0.30859 -0.3086,0.96875 -0.6602,-0.66016 m 1.2813,16.16406 -0.3125,-0.96875 0.9727,0.3125 -0.6602,0.65625 m 0.2656,-8.4375 -0.5781,-1.14453 0.9727,1.41016 -0.3946,-0.26563 m 1.1446,13.54297 -0.9063,-0.90625 0.9063,-0.90625 0.4062,0.40235 0.5039,0.5039 -0.9101,0.90625 m 0,-13.78125 -0.9063,-0.90625 0.9063,-0.91015 0.9101,0.91015 -0.9101,0.90625 m 1.7226,12.0586 -0.9062,-0.90625 0.9062,-0.90625 0.4063,0.40234 0.5039,0.50391 -0.9102,0.90625 m -1.6289,-22.71094 0.4141,-0.41016 0.7812,-0.42969 0.5547,-0.0898 v 0.24609 l -0.6641,0.45313 -0.7422,0.28125 -0.3398,-0.0508 m 2.4453,-2.31641 0.5977,-0.96875 v 1.94141 l -0.5977,-0.97266 m -1.9883,19.69531 -0.3359,-0.125 0.5859,-0.77734 1.0547,-0.92969 1.1289,-0.7539 0.5742,-0.0508 -0.07,0.55468 -0.7929,0.88282 -1.1563,0.82812 -0.9883,0.37109 m 3.2071,-20.44531 -0.3086,-0.97265 0.9687,0.3125 -0.6601,0.66015 m 0.2656,-13.60547 -0.5742,-1.14843 0.9687,1.41015 -0.3945,-0.26172 m 0.2383,29.86328 0.5976,-0.97265 v 1.9414 l -0.5976,-0.96875 m -0.062,-17.53906 0.9726,-1.41406 -0.5781,1.14844 -0.3945,0.26562 m 0.062,-13.47265 0.5976,-0.96875 v 1.9375 l -0.5976,-0.96875 m 1.2187,-0.75391 -0.3086,-0.96875 0.9688,0.3125 -0.6602,0.65625 m -8.5,-16.98828 c -2.2383,3.66797 -7.1875,9.28125 -7.582,8.77734 -0.2656,-0.33594 5.1211,-12.24609 7.5195,-16.34765 2.1211,-3.63672 8.3125,-9.2461 8.4571,-9.09375 1.4492,2.82031 -5.5313,11.35937 -8.3946,16.66406 m 10.6641,26.66797 0.9726,-0.3125 -0.3125,0.97265 -0.6601,-0.66015 m 0.4922,-31.51953 c 0.098,0.004 0.4258,5.54687 -0.3789,8.6289 -0.4649,1.77344 -2.5977,4.62891 -3.4414,4.89844 1.9531,-2.875 2.4804,-13.98047 3.8203,-13.52734 m -0.9492,19.96484 -0.5,-0.15625 0.098,-0.56641 0.543,-0.57031 0.7656,-0.38672 0.6172,-0.0469 0.2812,0.26953 -0.2695,0.54297 -0.7109,0.61328 -0.8242,0.30078 m 2.914,28.53906 0.2344,-0.35547 0.3906,-0.28906 0.2266,0.0703 -0.2344,0.35547 -0.3906,0.28906 -0.2266,-0.0703 m 0.9883,-2.10156 0.9727,-1.41016 -0.5782,1.14453 -0.3945,0.26563 m 1.2773,-65.40625 0.01,-0.39063 0.121,-0.82031 0.1758,-0.84765 0.1563,-0.30079 0.039,0.23438 -0.1328,0.82031 -0.2187,0.83985 -0.1485,0.46484 m 0.8594,64.43359 0.074,-0.48437 0.5039,-0.6211 0.4336,-0.0273 -0.074,0.48828 -0.5039,0.6211 -0.4336,0.0234 M 1040,189.80487 c -4.4805,5.76953 -11.6758,11.47656 -12.1992,11.875 2.7148,-3.87109 5.4297,-7.73828 8.1406,-11.60547 2.2344,-3.88281 -0.6758,-7.07031 1.7149,-6.88281 1.3671,0.6289 3.4804,3.80078 2.3437,6.61328 m 0.6328,6.67969 0.9688,-1.41407 -0.5782,1.14844 -0.3906,0.26563 m -0.8711,-32.08594 0.4922,-0.51953 0.5664,-0.28906 0.2695,0.21484 -0.07,0.47266 -0.4179,0.53906 -0.5625,0.21484 -0.3946,-0.11719 0.1172,-0.51562 m 1.2735,-6.60938 -0.059,0.86719 -0.3633,0.50781 -0.582,-0.14062 -0.4883,-0.6875 -0.1367,-1.11719 0.2304,-0.98828 0.4024,-0.53125 0.4375,0.26953 0.3437,0.78125 0.2149,1.03906 m 0.8789,38.25391 v -1.94141 l 0.2617,0.4336 0.332,0.53515 -0.5937,0.97266 m 0.4414,24.55859 0.9687,-1.41015 -0.5781,1.14844 -0.3906,0.26171 m -4.9688,-2.82421 c -2.082,1.41796 -6.8398,1.96484 -7.1445,0.93359 -0.3047,-1.03906 12.7812,-7.51172 12.4219,-8.19531 0.2382,0.44922 -3.086,5.77343 -5.2774,7.26172 m 4.9688,-74.07813 0.9687,-0.3125 -0.3125,0.97266 -0.6562,-0.66016 m 2.1133,33.57031 h -0.5704 l -0.5742,-1.14843 1.1446,0.57812 v 0.57031 m -1.7344,27.91797 -1.4805,1.52344 -1.4805,1.25391 -1.0664,0.6289 -0.2812,-0.33203 0.6797,-1.08203 1.2304,-1.49609 1.3282,-1.56641 1.1015,-1.38281 0.8985,-1.00391 0.8047,-0.52344 0.6093,-0.0742 0.25,0.33985 -0.3711,0.89453 -0.914,1.28906 -1.3086,1.53125 m 2.9922,-54.14062 -0.1289,0.1875 -0.5508,0.0625 -0.5508,-0.0625 -0.1289,-0.1875 0.3828,-0.12891 h 0.5938 l 0.3828,0.12891 m -0.1055,5.54687 v -0.57031 l 1.1484,-0.57422 -0.5781,1.14453 h -0.5703 m 3.2773,58.7461 c -0.7109,0.90234 -4.2968,3.71875 -4.6992,3.66796 -1.332,-0.16406 3.8555,-7.5664 4.5547,-7.91406 0.6406,-0.3125 0.8906,3.30078 0.1445,4.2461"
     id="path86" />
  <path
     fill-rule="nonzero"
     fill="#000000"
     fill-opacity="1"
     d="m 1142.5156,232.17596 c -1.4375,-2.02734 -4.9804,-1.375 -6.3593,-1.73828 1.6718,-0.42578 3.3437,-0.84765 5.0156,-1.27344 1.2969,-1.8164 -3.7891,-3.01953 -4.4336,-3.17187 0.2695,0.008 3.9648,0.73437 4.1406,-2.83594 1.4024,-4.70703 2.6719,-13.94922 2.3359,-17.48437 -2.9882,-18.1875 -10.7812,-38.70313 -14.5585,-59.19141 -1.2032,-3.20703 -5.9883,-9.20703 -9.629,-13.40625 -1.0078,-1.16406 -7.8359,-6.15625 -8.8437,-6.60937 -0.8477,-0.37891 -2.0898,-0.17969 -3.1641,0.29296 -1.9453,2.38672 -3.8906,4.77344 -5.832,7.16407 -1.3828,1.09375 -3.3164,-1.6875 -6.0781,1.83593 -5.2813,6.98829 -9.1328,10.66016 -14,19.40625 -1.25,6.44922 -2.5039,12.90235 -3.7578,19.35157 0.3125,2.47656 2.1953,4.12109 3.8047,5.63672 -0.1485,2.1875 -0.293,4.37109 -0.4415,6.55859 0.3086,1.49219 1.1993,2.27344 1.8711,2.60937 0.1368,0.99219 -4.4218,14.19922 -6.2343,17.13282 -1.875,1.97265 -3.75,3.94531 -5.6211,5.91406 -0.8086,3.18359 2.0508,7.38281 3.3633,8.01172 0.1367,1.52734 -5.0821,5.83984 -3.7305,9.23437 0.3555,1.19532 1.0508,1.8086 2.2695,1.90625 3.6211,-0.51172 6.5235,-0.35937 8.4063,-0.24609 2.4453,-1.17188 4.8867,-2.34375 7.3281,-3.51172 5.0039,-0.45312 12.3125,-0.008 17.125,-1.38281 2.6719,-1.6836 5.3398,-3.36719 8.0117,-5.05078 -0.3086,-0.0586 6.9024,7.34375 6.8555,5.88281 -1.4414,0.32422 -2.8828,0.64844 -4.3203,0.96875 -1.2383,0.75781 -2.3164,2 -1.7305,2.78125 0.2227,0.30078 7.168,4.21094 9.7148,5.43359 5.8164,1.4375 12.336,0.46875 17.8516,0.32422 2.0391,-0.30078 1.7656,-2.89844 0.6406,-4.54297 m -66.457,-7 0.2617,0.42969 0.707,0.16406 h -1.9414 l 0.9727,-0.59375 m 5.7422,-28.95703 -0.5742,-1.14844 0.9687,1.41407 -0.3945,-0.26563 m 1.1484,-2.05469 0.2656,0.42969 0.7032,0.16797 h -1.9375 l 0.9687,-0.59766 m 0.7539,-1.125 0.9688,-1.41406 -0.5781,1.14844 -0.3907,0.26562 m 1.543,30.7461 -0.5742,-1.14844 0.9687,1.41016 -0.3945,-0.26172 m -0.2617,-31.1875 v -1.94141 l 0.2656,0.42969 0.3281,0.53906 -0.5937,0.97266 m 0.2617,-4.99219 -0.5742,-1.14844 0.9687,1.41016 -0.3945,-0.26172 m 0.2383,35.03125 0.5976,-0.96875 v 1.9375 l -0.5976,-0.96875 m -0.059,-32.42187 0.9687,-0.3125 -0.3125,0.97265 -0.6562,-0.66015 m 0,-5.16797 0.9687,-0.3125 -0.3125,0.97265 -0.6562,-0.66015 m 0,-25.84375 0.9687,-0.3086 -0.3125,0.96875 -0.6562,-0.66015 m 1.2812,-1.0625 -0.3125,-0.96875 0.9688,0.30859 -0.6563,0.66016 m 2.1641,67.6289 0.9687,-1.41015 -0.5742,1.14843 -0.3945,0.26172 m 1.2812,-41.78515 -0.3125,-0.97266 0.9688,0.3125 -0.6563,0.66016 m 0,-18.95313 -0.3125,-0.96875 0.9688,0.3125 -0.6563,0.65625 m 0.4415,9.05469 0.9687,-1.41016 -0.5742,1.14453 -0.3945,0.26563 m 1.2812,-2.16406 -0.3125,-0.96875 0.9688,0.3125 -0.6563,0.65625 m 0.4414,-1.28125 0.9688,-1.41016 -0.5743,1.14453 -0.3945,0.26563 m 2.3672,23.01953 h 1.293 l -0.9688,0.59765 -0.9687,-0.59765 h 0.6445 m 0,-36.17969 h 1.293 l -0.9688,0.59766 -0.9687,-0.59766 h 0.6445 m 1.0781,35.55859 0.9688,-1.41406 -0.5742,1.14844 -0.3946,0.26562 m 0,-8.61718 0.9688,-1.41016 -0.5742,1.14844 -0.3946,0.26172 m 0,-6.89063 0.9688,-1.41015 -0.5742,1.14843 -0.3946,0.26172 m 0,-20.67187 0.9688,-1.41016 -0.5742,1.14453 -0.3946,0.26563 m 1.2813,35.73828 v -1.94141 l 0.2656,0.42969 0.332,0.53906 -0.5976,0.97266 m 0.2656,-53.23047 v -0.57031 l 1.1445,-0.57813 -0.5742,1.14844 h -0.5703 m 0.4922,36.23828 0.3281,-0.72656 0.4453,-0.66797 0.2071,-0.0352 -0.1407,0.55469 -0.4609,0.75781 -0.3711,0.44532 -0.01,-0.32813 m 1.1445,-39.32812 0.086,0.0976 0.1015,0.44531 0.1055,0.39844 -0.086,-0.0976 -0.1015,-0.44532 -0.1055,-0.39843 m 0.2617,82.60156 0.9688,-1.41016 -0.5742,1.14844 -0.3946,0.26172 m 1.2813,-0.44141 v -1.9375 l 0.2656,0.42969 0.332,0.53906 -0.5976,0.96875 m 0,-39.625 -0.3125,-0.96875 0.9726,0.3125 -0.6601,0.65625 m -0.6797,-6.60937 0.1328,-0.71875 0.3203,-0.65625 0.293,-0.0117 0.07,0.55859 -0.2695,0.75391 -0.3203,0.40625 -0.2266,-0.33203 m 1.7695,-2.66016 h 1.293 l -0.9727,0.59375 -0.9687,-0.59375 h 0.6484 m -3.375,-6.14844 c -0.3359,-0.72265 0.3516,-2.59765 1.1563,-3.55468 1.082,-1.28125 3.0195,-1.875 3.3633,-1.30469 0.6015,0.99609 -3.7813,6.45312 -4.5196,4.85937 m 5.9961,12.15235 -0.5781,-1.14844 0.9727,1.41016 -0.3946,-0.26172 m 0.1758,-0.83594 0.9688,-0.3125 -0.3086,0.96875 -0.6602,-0.65625 m 0,-17.23047 0.9688,-0.30859 -0.3086,0.96875 -0.6602,-0.66016 m 3.5,62.58203 -0.1523,0.12891 -0.4454,0.10547 -0.3398,0.0547 0.1523,-0.13281 0.4454,-0.10156 0.3398,-0.0547 m -2.7734,-38.34765 0.1484,-0.69532 0.625,-0.8789 0.793,-0.65625 0.6015,0.0351 0.25,0.52735 -0.2187,0.75 -0.75,0.66406 -0.875,0.34766 -0.5742,-0.0937 m 1.9648,-37.51172 0.2656,0.42968 0.7071,0.16407 h -1.9414 l 0.9687,-0.59375 m 0.7539,74.67578 0.9688,-1.41016 -0.5743,1.14844 -0.3945,0.26172 m 0,-40.72266 0.9688,-0.3125 -0.3086,0.96875 -0.6602,-0.65625 m 0,-34.45703 0.9688,-0.3125 -0.3086,0.97266 -0.6602,-0.66016 m 1.2813,-1.06641 v -1.9375 l 0.2656,0.42969 0.332,0.53906 -0.5976,0.96875 m 0.8203,9.27735 0.016,0.14062 -0.07,-0.32031 -0.066,-0.42969 -0.016,-0.14062 0.066,0.32031 0.07,0.42969 m -0.3789,-12.28125 0.9726,-1.41016 -0.5781,1.14844 -0.3945,0.26172 m 1.4336,31.07812 c -0.625,1.99219 -1.9688,3.31641 -3.3907,2.90235 -0.6875,-2.52344 -1.375,-5.04297 -2.0664,-7.56641 0.336,-1.66797 4.2149,-2.97656 5.125,-2.75781 1.4493,0.35156 1.2149,4.58984 0.3321,7.42187 m -0.1524,-31.51953 v -1.9375 l 0.2656,0.42969 0.3321,0.53906 -0.5977,0.96875 m -0.078,48.34375 c -12.0117,9.28516 -22.8672,27.04297 -32.6797,36.48047 0.4805,-0.19141 7.6602,-12.28125 11,-16.57812 6.9727,-7.7461 13.9414,-15.49219 20.9141,-23.23829 0.5078,-1.75 1.0117,-3.49609 1.5156,-5.24609 0.01,0 0.8203,6.28125 -0.75,8.58203 m 0.8984,-51.125 0.016,0.14063 -0.07,-0.32032 -0.066,-0.42968 -0.016,-0.14453 0.07,0.32031 0.066,0.43359 m -0.3632,62.57813 c -4.8516,5.44531 -22.2618,22.79687 -23.3633,21.94922 3.0781,-8.55079 18.9414,-23.27735 23.5078,-27.4336 1.3711,1.07031 0.7265,4.50391 -0.1445,5.48438 m -1.1641,9.91406 -1.418,1.41406 -1.3008,1.51172 -1.2382,1.49219 -1.3008,1.33203 -1.3399,0.91406 -1.0859,0.36328 -0.4727,-0.29687 0.3516,-0.75 0.9336,-1.11328 1.2812,-1.33203 1.418,-1.51172 1.5391,-1.57032 1.5976,-1.51171 1.6172,-1.33204 1.4805,-0.96875 1.2266,-0.49218 0.6093,0.0859 -0.09,0.52344 -0.9141,0.88672 -1.3594,1.08594 -1.5351,1.26953 m 4.5234,-63.02344 -0.1289,0.19141 -0.5508,0.0625 -0.5546,-0.0625 -0.125,-0.19141 0.3789,-0.125 h 0.5976 l 0.3828,0.125 m 2.1875,40.72656 v 4.73829 l -0.062,1.40234 -0.125,0.875 h -0.1914 l -0.1289,-0.875 -0.062,-1.40234 v -6.31641 l 0.027,-1.40234 0.094,-1.05469 0.1524,-0.35156 0.164,0.35156 0.098,1.05469 0.035,1.40234 v 1.57812 m 3.1133,15.36329 0.5977,-0.97266 v 1.94141 l -0.5977,-0.96875 m 1.8516,-53.41016 c 0.1679,1.16016 0.8515,11.42187 0.2148,11.69922 -0.707,-5.03125 -1.418,-10.0625 -2.1289,-15.09375 0.207,-0.67578 1.6758,1.77734 1.9141,3.39453 m 3.7148,83.46484 0.5117,-0.10156 0.6368,0.0312 0.2539,0.15234 -0.2539,0.16407 -0.6368,0.0351 -0.5117,-0.0937 v -0.1875 m 2.8555,-17.94531 c -1.2383,1.12109 -2.4805,2.24219 -3.7188,3.36328 0.2032,1.0625 0.4063,2.125 0.6094,3.1875 -1.3516,0.51172 -3.9375,1.01953 -5.2656,-0.0586 -1.8399,-0.39453 1.3789,-6.05078 -2.5938,-6.85156 -3.4101,-0.61719 -6.832,4.47265 -7.2265,3.83593 -0.1133,-0.55859 5.6992,-8.30078 6.8476,-8.1914 1.1641,1.74609 3.7071,4.94922 7.2305,4.89843 2.8984,0.4336 2.668,-6.66796 3.3164,-4.60546 0.2578,1.01953 1.0195,3.54296 0.8008,4.42187 m 1.414,-12.86328 -0.3125,-0.96875 0.9688,0.30859 -0.6563,0.66016 m 1.086,30.35156 h 1.293 l -0.9688,0.59766 -0.9687,-0.59766 h 0.6445 m 6.3945,-28.99609 c 0.1328,3.34375 -1.4414,13.05859 -1.7773,13.21875 -1.0977,0.51562 -3.3125,-1.86719 -3.4688,-3.6836 1.1172,-2.66406 2.2344,-5.32812 3.3477,-7.99218 -0.5196,-5.95313 -1.0391,-11.90235 -1.5586,-17.85547 1.1523,5.4375 2.3047,10.875 3.457,16.3125"
     id="path87" />
  <path
     fill-rule="nonzero"
     fill="#000000"
     fill-opacity="1"
     d="m 1069.2383,115.94159 c -2.3555,1.04297 -5.4414,4.48828 -6.3945,6.38281 -1.1602,2.30078 -2.4024,5.0625 -2.6055,7.02734 -0.211,2.01172 0.9219,7.38282 2.3203,8.67188 1.3086,1.21094 5.9727,1.25391 8.5,0.71875 2.457,-0.51953 5.1328,-2.66797 6.8828,-5.29688 1.9297,-2.88671 2.4922,-6.39453 2.0781,-8.71875 -0.7461,-2.21484 -1.8711,-6.53125 -5.4453,-8.30078 -1.7539,-0.875 -3.7578,-1.18359 -5.3359,-0.48437 m 1.7578,11.54297 -0.3281,-0.0586 -0.4375,-0.16406 -0.1641,-0.125 0.3242,0.0586 0.4375,0.16407 0.168,0.125"
     id="path88" />
  <path
     fill-rule="nonzero"
     fill="#000000"
     fill-opacity="1"
     d="m 1063.8945,134.74628 c 0.3047,-0.58594 2.3907,-12.65625 2,-13.38672 -1.2851,-2.94532 -6.3359,2.07422 -7.625,0.23828 -2,-3.76953 -7.8203,-13.22656 -13.2422,-18.19922 -1.4179,-1.30078 -3.4726,-2.25781 -5.1406,-1.90234 -1.6836,0.35546 -2.332,2.03125 -2.2265,3.89453 1.0351,1.93359 2.0742,3.86328 3.1093,5.79687 1.0352,9.71875 2.3868,20.92969 2.1758,30.84375 0.5899,1.84375 2.7852,2.34375 5.5586,1.90625 3.8906,-0.61719 13.9024,-6.34765 15.3906,-9.1914 m -15.4687,-17.58594 0.3633,0.38281 0.07,0.30859 -0.3047,-0.0547 -0.3633,-0.38282 -0.07,-0.30859 0.3047,0.0547 m 0.8203,1.79687 0.9687,-1.41015 -0.5742,1.14453 -0.3945,0.26562 m -0.6992,7.91797 c 0.9414,-1.65234 2.7383,-1.51953 4.4375,-0.77734 1.1367,0.5 1.3515,1.03125 0.4765,2.28125 -3.0625,4.36719 -6.4336,6.41797 -5.9336,8.41015 -0.3789,-1.51562 -0.4492,-7.34375 1.0196,-9.91406"
     id="path89" />
  <path
     fill-rule="nonzero"
     fill="#000000"
     fill-opacity="1"
     d="m 1099.0195,106.61346 c -2.6992,2.53907 -31.9257,30.05078 -31.1367,31.10547 1.2422,-0.39844 2.4883,-0.80078 3.7305,-1.19922 0.4726,0.91016 4.7305,5.9961 7.8398,8.01563 2.4297,1.57422 5.2657,1.8125 7.0664,2.37109 2,0.6211 6.0743,0.44922 8.7266,-1.73437 1.7266,-1.42188 2.1641,-3.14844 2.2266,-5.00391 -0.2852,-4.19922 -1.1407,-8.03516 -0.1993,-12.16797 1.168,-6.58203 6.0196,-14.16015 6.4141,-22.25 -0.7461,-1.41015 -2.9922,-0.71484 -4.668,0.86328 m -20.0781,25.85157 -1.3633,0.95703 -1.082,0.36718 -0.5469,-0.17187 0.25,-0.83203 0.8477,-1.05078 1.1992,-1.01953 1.2227,-0.65625 1.1054,-0.49219 0.7696,-0.2461 0.2578,0.0508 -0.4141,0.70312 -0.957,1.15234 -1.2891,1.23829 m 4.0078,4.9414 -0.9101,-0.91015 0.9101,-0.90625 0.9063,0.90625 -0.9063,0.91015 m 0,-10.43359 0.2656,0.43359 0.7032,0.16406 h -1.9375 l 0.9687,-0.59765 m 5.7813,7.625 c 0.098,-1.7461 1.2031,-4.48047 2.0898,-4.5586 0.2344,-0.0234 1.168,5.17969 0.8399,5.87891 -0.2579,0.54688 -0.9961,0.98047 -1.6133,1.01953 -1.0899,0.0703 -1.3985,-0.83203 -1.3164,-2.33984 m 2.5508,-7.11719 c -0.6485,-0.63281 -0.879,-2.91797 -0.2305,-4.47266 0.9336,-2.23437 3.4297,-4.20312 4.125,-3.82421 0.8594,0.46875 -3.5156,8.66796 -3.8945,8.29687 m 5.1718,-11.71484 0.066,0.0351 -0.027,0.59766 -0.098,0.74219 -0.078,0.36718 -0.055,-0.375 0.1016,-0.73046 0.09,-0.63672"
     id="path90" />
  <path
     fill-rule="nonzero"
     fill="#000000"
     fill-opacity="1"
     d="m 1793.1523,222.08612 c -8.8125,-2.10938 -20.3437,-3.46484 -27.9687,-3.46875 -3.9375,0.57422 -7.875,1.14844 -11.8125,1.72266 -2.1875,-0.57813 -4.3789,-1.15235 -6.5664,-1.72657 -48.8984,-0.0586 -97.7969,-0.11328 -146.6914,-0.17187 -2.875,-0.57422 -5.7461,-1.14844 -8.6211,-1.72656 -29.2891,0 -58.5742,0 -87.8633,0 -2.8789,-0.57422 -5.7617,-1.14844 -8.6406,-1.72266 -24.3672,-1.34375 -50.2891,-1.34375 -74.6524,0 -29.5156,1.62891 -57.8906,3.76953 -84.7031,5.33984 -20.0469,1.42188 -42.6055,-2.10156 -61.0625,-0.76562 -0.5508,0.94531 19.3047,5.51172 23.6406,5.53906 27.5196,0.17188 55.6094,1.52344 83.0782,0.008 14.5507,-0.80468 28.6054,-2.59765 43.0312,-3.45703 16.1445,-0.96484 35.5195,-0.082 49.3438,1.27735 6.2539,-0.47266 12.5078,-0.94922 18.7617,-1.42188 2.293,0.57031 4.5859,1.13672 6.8789,1.70703 29.3711,0.0547 58.7383,0.10938 88.1094,0.16406 2.8711,0.57422 5.7461,1.15235 8.6172,1.72657 48.7304,-0.0547 97.457,-0.11328 146.1875,-0.16797 16.371,0.94531 31.5664,3.99609 48.8671,3.5664 1.8516,-0.0469 3.5235,-0.26171 4.5586,-1.30468 0.6875,-0.69141 0.9414,-1.46094 0.7188,-2.44141 -0.3242,-1.43359 -1.5977,-2.28906 -3.211,-2.67578"
     id="path91" />
  <path
     fill-rule="nonzero"
     fill="#000000"
     fill-opacity="1"
     d="m 1579.5977,220.32049 c -8.125,-0.42187 -16.6836,-0.53906 -24.8086,-0.14062 -13.1524,1.71484 -26.3008,3.42578 -39.4493,5.14062 -7.8789,0.24219 -16.1875,0.58985 -24.0429,-0.0859 -6.4414,-0.55469 -12.086,-4.6211 -17.3867,-4.97266 -1.8008,-0.12109 -3.4219,0.72656 -3.4766,2.34766 -0.062,1.76562 6.9805,5.04687 10.1953,5.7539 6.9453,1.52735 17.5234,3.01563 24.082,2.98828 9.875,-0.0391 27.8672,-4.14062 36.918,-4.6914 8.1836,-0.5 17.0039,1.86719 23.2383,1.64062 3.7773,-0.13672 11.5664,-0.55078 16.2773,-1.8789 1.5118,-0.42578 2.0274,-1.51953 2.0274,-3.15625 0.082,-2.13282 -1.125,-2.97657 -3.5742,-2.94532"
     id="path92" />
  <path
     fill-rule="nonzero"
     fill="#000000"
     fill-opacity="1"
     d="m 1615.8008,216.88299 c -17.4805,-0.82812 -36.961,0.74219 -54.4258,1.74219 -15.0195,0.85938 -39.7578,4.30469 -55.1484,5.125 -9.1172,-0.61719 -18.2305,-1.23437 -27.3477,-1.85547 -7.6953,0.39453 -16.6836,0.65235 -24.1406,1.85157 -1.6719,0.26953 -3.8242,1.18359 -4.3203,2.51171 -0.3789,1.01563 0.2656,1.45313 1.1718,1.58594 7.6563,-1.66797 21.7735,-1.17578 31.4883,-1.08594 8.668,0.082 17.0313,2.25782 25.7227,1.79297 2.875,-0.57422 5.75,-1.14843 8.6289,-1.72656 27.4844,-1.57812 55.4414,-0.22656 82.9375,-1.88672 3.5351,-0.21484 12.3242,-0.51172 17.0391,-1.93359 1.4257,-0.42969 1.9218,-1.53516 1.9179,-3.17578 0.082,-2.14453 -1.0976,-2.98828 -3.5234,-2.94532"
     id="path93" />
  <path
     fill-rule="nonzero"
     fill="#000000"
     fill-opacity="1"
     d="m 1317.1406,269.05096 c -7.2226,10.07422 -14.4414,20.15235 -21.664,30.23047 -1.3789,1.55078 -3.9375,3.53906 -6.1719,5.16016 -5.7852,4.19922 -14.2617,8.78906 -19.4102,10.86719 -11.2343,4.03515 -16.0195,7.23046 -26.7695,8.21093 -6.6094,0.20313 -13.9805,0.78907 -20.5312,-0.29687 -12.9688,-3.78906 -25.9336,-7.57422 -38.9024,-11.36328 -6.6445,-4.02735 -19.3555,-9.70313 -27.5508,-17.72266 -3.3633,-3.35937 -8.5234,-8.86719 -11.4961,-13.38672 -1.7656,-3.22656 -3.5273,-6.45703 -5.289,-9.68359 -0.6797,-0.5 -1.8711,-0.48047 -2.5547,0.1289 -0.6992,0.6211 -1.0039,1.90625 -1.0195,3.125 -0.059,3.80079 3.2382,10.97657 5.8476,13.8711 7.6797,3.89062 15.9492,19.41406 25.3086,23.19531 11.2148,5.78516 25.3125,11.48047 32.8477,13.52734 8.8945,2.41016 19.5507,4.54688 26.2461,5.17969 4.3203,0.41016 9.2578,0.22656 13.7539,0.0859 6.0117,-0.18359 13.207,-1.40234 19.0781,-3.46875 7.289,-2.5625 16.0703,-5.55078 21.457,-8.07813 3.1758,-1.48828 9.5313,-4.76171 13.1719,-7.60156 7.8281,-6.8164 15.3867,-15.92578 18.7461,-21.47656 3.1211,-6.04688 9.2695,-17.55469 10.2617,-23.55078 -0.2578,-0.79297 -3.3555,0.85937 -5.3594,3.04687"
     id="path94" />
  <path
     fill-rule="nonzero"
     fill="#000000"
     fill-opacity="1"
     d="m 1324.6641,252.22284 c -0.6993,1.07812 3.6679,5.68359 3.2148,8.37109 -0.6445,3.82813 -3.3398,12.02735 -5.5625,13.5 -0.5937,0.39453 -3.9141,0.13672 -5.8437,-1.0625 -0.8204,-0.50781 -1.3125,-1.34765 -1.3594,-2.18359 0.3984,-3.5586 7.4883,-7.63281 9.9726,-11.74219 0.8282,-1.32031 0.8516,-2.11328 -0.3984,-2.08203 -4.5391,1.01562 -9.6328,4.64062 -14.3047,9.59375 -1.293,1.38281 -2.1914,2.47656 -2.3633,4.3125 -0.1054,1.10937 0.082,2.35547 0.7149,3.33203 1.5234,2.35547 7.2656,5.06641 10.2109,5.47266 2.8281,0.38672 6.6641,-1.53516 8.6563,-3.22657 1.9882,-1.6914 4.9257,-7.72656 5.5351,-10.55468 0.7852,-3.64453 0.8555,-11.14844 -0.6484,-12.67578 -1.5469,-1.57422 -6.8906,-2.4961 -7.8242,-1.05469"
     id="path95" />
  <path
     fill-rule="nonzero"
     fill="#000000"
     fill-opacity="1"
     d="m 1670.3438,206.95331 c -1.2774,-1.67578 -5.504,-4.71485 -7.3243,-6.10938 -4.3984,-3.375 -23.0703,-16.32812 -30.7422,-19.09765 -1.5898,-0.57032 -3.6992,-0.27344 -4.4335,1.26171 -0.5079,1.06641 9.4023,9.46875 13.0546,12.08204 6.0899,4.35937 14.5782,7.29687 19.9532,11.58984 1.5703,2.42578 3.1406,4.84766 4.707,7.27344 1.2812,0.875 3.4453,0.85156 4.5469,-0.14844 1.6054,-1.45703 1.2383,-5.54297 0.2383,-6.85156"
     id="path96" />
  <path
     fill-rule="nonzero"
     fill="#000000"
     fill-opacity="1"
     d="m 1759.9766,172.29706 c -5.2618,1.02343 -10.5235,2.05078 -15.7891,3.07812 -16.5508,0.92188 -33.4258,0.80469 -49.9609,1.72266 -10.0196,0.55469 -22.0586,3.17969 -29.4727,3.5625 -10.1797,0.53515 -18.8555,-3.30469 -27.2422,-3.59375 -2.1328,0.043 -4.8828,0.36719 -7.289,1.82031 -1.1368,0.6875 -2.0274,1.61719 -1.9571,2.53906 0.1172,1.64844 2.2266,2.19532 3.9492,2.33985 7.9024,0.65234 16.0196,1.27734 24.1758,1.72265 10.8555,0.59375 22.3946,0.59766 33.2461,0 20.1641,-2.55468 40.6563,-2.97265 60.4258,-3.8164 4.1133,-0.82813 8.8438,-1.69922 13.7852,-3.66407 1.7421,-0.6914 3.1484,-2.13671 3.0742,-3.38281 -0.1094,-1.78125 -4.2071,-2.68359 -6.9453,-2.32812"
     id="path97" />
  <path
     fill-rule="nonzero"
     fill="#000000"
     fill-opacity="1"
     d="m 1775.3867,177.05878 c -3.1679,1.24218 -9.3125,6.32421 -11.7773,8.54296 -6.3555,5.72266 -13.8242,11.4961 -19.3516,17.6875 -2.3906,3.76954 -8.582,8.33985 -7.832,12.42579 0.4883,1.17187 1.625,1.60937 2.8945,1.59375 1.3477,-0.0156 2.4414,-0.57813 3.4414,-1.37891 10.5196,-8.43359 39.5117,-39.69141 39.5703,-39.43359 -0.2812,-1.29688 -4.2226,-0.50391 -6.9453,0.5625"
     id="path98" />
  <path
     fill-rule="nonzero"
     fill="#000000"
     fill-opacity="1"
     d="m 1676.4922,173.6369 c -2.4922,-1.69141 -4.9844,-3.38281 -7.4766,-5.07422 -1.6562,-1.49219 -7.3711,-9.47265 -9.3359,-12.14844 -0.8867,-1.10156 -2.1758,-1.91796 -2.9961,-1.26171 -0.8125,0.64843 -0.8828,3.32031 -0.1523,4.99218 0.7265,1.65235 2.1953,3.71485 6.3281,8.08985 2.4765,2.625 6.1679,6.3125 9.1523,8.41015 -1.2851,-0.38281 6.9297,3.46485 5.4844,1.70703 0.8945,-1.3164 0.2539,-3.30468 -1.0039,-4.71484"
     id="path99" />
  <path
     fill-rule="nonzero"
     fill="#000000"
     fill-opacity="1"
     d="m 1742.793,134.81268 c -2.6524,-0.20312 -5.4375,0.1875 -7.6563,0.61328 2.2617,-0.43359 -75.332,17.51172 -75.2929,17.72657 0.3125,1.05468 5.7382,1.6289 10.3242,1.33984 7.1445,-0.28125 14.6093,-1.49609 18.1484,-2.23438 18.9531,-4.63671 37.9024,-9.27734 56.8555,-13.91796 1.1015,-0.67579 1.6211,-1.66407 1.1562,-2.34766 -0.4843,-0.71484 -1.914,-1.05859 -3.5351,-1.17969"
     id="path100" />
  <path
     fill-rule="nonzero"
     fill="#000000"
     fill-opacity="1"
     d="m 1744.082,140.87128 c -1.7461,5.30078 -3.4882,10.60546 -5.2343,15.90625 -1.8438,3.93359 -3.6875,7.86718 -5.5313,11.80078 -0.07,1.04687 0.457,2.10937 1.3828,2.51953 1.7539,0.6914 3.2149,-0.30078 4.1719,-1.55469 1.582,-1.96484 2.5117,-4.08203 3.2773,-6.36328 2.0196,-6.01953 3.5625,-13.01172 4.9414,-19.72266 0.4688,-2.28906 1.0274,-4.96484 0.2344,-5.90234 -0.6367,-0.73828 -2.3281,0.59375 -3.2422,3.31641"
     id="path101" />
  <path
     fill-rule="nonzero"
     fill="#000000"
     fill-opacity="1"
     d="m 1631.4375,211.56659 c 0.2617,-3.47266 0.4219,-7.66406 0.027,-11.04297 -0.4453,-0.98438 -0.8867,-1.96484 -1.3281,-2.94922 0.5469,-8.06641 -1.3047,-16.10547 -1.5117,-24.41797 -0.4531,-1.17187 -0.9023,-2.34375 -1.3555,-3.51562 0.2852,-0.89453 0.5664,-1.78907 0.8516,-2.6836 -0.1914,-0.22265 -0.7773,-0.33593 -1.2031,-0.27343 -0.8008,0.12109 -0.9532,0.59765 -1.0078,1.34765 -0.418,5.5 0.3906,12.08985 0.6836,17.61328 0.4804,1.20703 0.957,2.41797 1.4375,3.625 -0.2422,7.71875 0.6406,16.26953 1.1562,23.46094 0.293,0.23828 0.8438,0.32031 1.2695,0.23438 0.7735,-0.15235 0.9258,-0.64063 0.9805,-1.39844"
     id="path102" />
  <path
     fill-rule="nonzero"
     fill="#000000"
     fill-opacity="1"
     d="m 1665.0234,215.43768 c -15.0351,-0.10937 -30.332,0.19141 -45.4492,-0.0703 -1.5234,0.082 -4.4414,0.375 -5.7695,1.03906 -0.7266,0.50781 -1.4492,1.01172 -2.1758,1.51953 -1.6836,0.33985 -3.3672,0.67578 -5.0508,1.01563 -0.4258,0.26953 -0.6523,0.57422 -0.625,1.03906 0.039,0.66797 0.7266,1.02734 1.5039,0.92188 0.793,-0.41797 1.5821,-0.83985 2.375,-1.26172 3.1797,-0.8125 8.4649,-1.375 12.0157,-1.48438 4.1406,-0.125 7.8867,0.44141 12.1054,0.71094 10.4492,-1.23047 21.75,-0.26953 31.6602,-1.18359 0.2383,-0.28516 0.3164,-0.85157 0.289,-1.26954 -0.051,-0.77734 -0.3281,-0.92578 -0.8789,-0.97656"
     id="path103" />
  <path
     fill-rule="nonzero"
     fill="#000000"
     fill-opacity="1"
     d="m 1606.5039,151.5119 c -0.2226,-0.66406 -0.582,-1.34766 -1.0469,-1.02734 -0.3984,0.28125 -0.4765,1.25 -0.1601,1.99609 0.3281,0.77734 1.0078,1.32031 1.3359,1.19141 0.3945,-0.15235 0.1328,-1.375 -0.1289,-2.16016"
     id="path104" />
  <path
     fill-rule="nonzero"
     fill="#000000"
     fill-opacity="1"
     d="m 1660.3906,138.61346 c -0.4609,-0.17578 -2.0703,-0.18359 -2.3593,0.27344 0.207,0.88281 0.414,1.76953 0.621,2.65625 0.027,1.72266 -1.6796,5.53516 -2.2148,7.16797 -1.0625,3.25 -2.9375,6.20703 -4.7695,8.58594 -1.1367,1.47265 -3.3164,3.83593 -4.8008,4.5664 -1.8359,0.90235 -5.1797,2.73828 -7.1055,3.0586 -4.2187,0.69531 -10.0703,0.67578 -14.2969,-0.004 -4.0781,-0.65234 -8.7109,-2.15625 -12.7343,-3.48828 -1.7735,-0.58594 -5.168,-1.89063 -7.2852,-3.10547 -2.5859,-1.48437 -5.4375,-3.71094 -7.8281,-5.68359 -2.0352,-2.60938 -4.8203,-5.08594 -6.0859,-7.31641 -0.9141,-0.25781 -0.9688,1.62891 -0.8477,2.81641 0.4102,2.2539 2.5117,4.57031 4.0469,6.51562 1.5195,1.67188 3.8476,3.46094 6.1172,5.17969 3.6132,1.59375 7.2265,3.18359 10.8359,4.77734 4.0078,1.36719 7.9492,2.78907 12.3047,3.17188 6.0195,0.0273 12.0351,0.19922 18.0547,-0.0664 2.1601,-0.35937 5.2031,-1.84765 7.2656,-3.05469 2.2812,-1.33984 5.5703,-4.89843 6.9961,-7.02343 1.3281,-1.97657 2.5937,-4.85547 3.1601,-6.52735 0.7149,-3.80468 1.7344,-8.01562 1.4141,-11.75 -0.078,-0.45703 -0.1601,-0.62109 -0.4883,-0.75"
     id="path105" />
  <path
     fill-rule="nonzero"
     fill="#000000"
     fill-opacity="1"
     d="m 1656.3203,129.15253 c -2.4922,0.72265 -4.2851,2.27343 -7.1445,2.10156 -11.1836,0.33984 -23.1133,-0.78516 -34.5508,-0.71485 -4.7461,0.0273 -9.7461,0.45704 -14.457,0.71875 -1.668,0.0937 -3.4414,1.8711 -5.0196,2.40235 -1.9336,0.19531 -3.8632,0.39062 -5.7929,0.58594 -0.4375,0.18359 -0.6602,0.46093 -0.6563,0.91406 0.01,0.46484 0.2344,0.70312 0.6875,0.87109 1.1094,0.40235 3.2149,0.19531 4.5078,0.13672 2.3946,-0.11328 5.0391,-1.55859 7.9571,-2.03906 3.5937,-0.0508 7.1914,-0.10156 10.789,-0.15625 0.9649,-0.46094 1.9297,-0.92578 2.8946,-1.38672 7.8554,-0.45703 16.2656,-0.45313 24.1211,0 0.9726,0.45312 1.9492,0.90625 2.9218,1.35937 2.4844,0.61329 6.2032,0.23438 8.8282,0.0977 1.3359,-0.0703 4.8437,-1.34766 5.832,-2.01562 0.5976,-0.40235 0.8359,-1.13672 0.7695,-1.87891 -0.07,-1.01172 -0.6719,-1 -1.6875,-0.99609"
     id="path106" />
  <path
     fill-rule="nonzero"
     fill="#000000"
     fill-opacity="1"
     d="m 1658.0508,135.91815 c 0.1055,-1.14844 -0.027,-2.24219 -0.6641,-2.17187 -0.5351,0.0547 -1.0547,0.67187 -1.1015,1.42187 -0.039,0.73438 0.3593,1.73047 0.8437,1.96094 0.5859,0.28125 0.8516,-0.40235 0.9219,-1.21094"
     id="path107" />
  <path
     fill-rule="nonzero"
     fill="#000000"
     fill-opacity="1"
     d="m 1590.4492,136.10956 c -0.4726,0.14062 -1.3125,0.72265 -1.6367,1.24218 -0.4492,0.71485 -0.3945,1.94922 -0.3398,2.91797 0.098,1.69532 1.2578,4.0625 1.8945,5.92969 0.2422,0.71484 0.6406,1.28516 1.1328,1.02344 0.2773,-1.91016 -0.8789,-9.53906 -1.0508,-11.11328"
     id="path108" />
  <path
     fill-rule="nonzero"
     fill="#000000"
     fill-opacity="1"
     d="m 1334.4414,70.695491 c -1.2344,0.082 -1.9883,0.3086 -2.1836,1.34766 1.2149,8.06641 2.5586,15.98828 2.0742,23.52734 -0.1836,3.53516 -1.9023,10.699219 -3.5039,15.828129 -2.6562,8.48828 -4.582,13.77734 -8.3867,21.44531 -2.6601,4.50781 -5.3242,9.01563 -7.9883,13.52735 -2.3281,5.47265 -4.2851,11.39453 -5.664,17.0039 -1.4102,5.71485 -1.961,10.5586 -1.5938,17.13672 2.9883,13.13672 2.2188,26.53516 6.2266,38.97656 0.6367,0.3086 1.0508,-0.0547 1.4219,-0.68359 0.6992,-1.1875 1.1367,-3.5 1.0078,-4.72656 -0.8672,-13.57422 -3.3594,-26.55078 -4.0821,-41.56641 1.0586,-6.58203 1.6289,-11.87891 3.6563,-17.89062 4.75,-8.78125 8.6406,-16.37891 12.5586,-23.66407 3.6875,-8.76562 6.3086,-16.85156 9.1875,-25.92187 0.7695,-2.42578 1.2812,-6.300779 1.4336,-8.953129 0.2929,-6.5664 -0.1875,-13.80859 -0.6836,-19.9375 0.5234,-0.96093 2.3203,-1.88672 3.4531,-1.58984 0.9922,0.26172 1.5586,1.27734 1.7734,2.40625 0.375,11.17578 1.7657,22.42578 1.2852,33.628909 0.3203,3.57031 0.8945,7.89453 2.1016,11.40234 2.3281,6.77344 4.7773,11.52734 7.5,16.93359 1.7695,3.51563 3.4765,6.01172 5.9101,9.2461 0.5391,0.72265 1.1289,1.35156 1.9141,1.49609 1.1992,0.22656 2.1914,-0.73047 2.4219,-1.6875 -3.4805,-8.6875 -8.4336,-16.38281 -13.1602,-26.32812 -0.8477,-4.48047 -1.9102,-9.82813 -2.3359,-14.58594 -0.9922,-11.203129 -0.5704,-22.808599 -1.293,-34.074219 -0.078,-1.20313 -0.2813,-1.85938 -1.3242,-2.14844 -3.0782,-0.85156 -8.336,-0.375 -11.7266,-0.14844"
     id="path109" />
  <path
     fill-rule="nonzero"
     fill="#000000"
     fill-opacity="1"
     d="m 1368.6875,211.06659 c -0.5078,-16.08203 -2.6836,-35.375 -3.2812,-53.29297 -0.6368,-4.04688 -1.3047,-8.625 -2.9727,-12.49609 -2.1953,-3.75782 -5.1055,-9.48438 -8.543,-12.38282 -1.0039,0.0781 -0.9414,1.0586 -0.4804,2.23047 1.7382,3.14063 3.4765,6.28125 5.2109,9.42188 0.8867,2.08593 1.5273,4.41015 1.875,6.59375 0.7461,17.5664 1.7812,34.63281 3.1523,51.96093 0.3477,2.10157 0.5586,4.89844 1.1407,6.79688 0.3242,1.05469 1.3007,2.00391 2.4922,2.08203 0.8437,0.0547 1.1718,-0.28125 1.4062,-0.91406"
     id="path110" />
  <path
     fill-rule="nonzero"
     fill="#000000"
     fill-opacity="1"
     d="m 1368.6094,212.67596 c -3.1367,-0.30859 -7.7344,-0.32031 -11.3321,-0.0469 -12.2343,2.10156 -23.9765,4.13672 -36.2773,5.71484 -0.6953,0.28125 -1.0469,0.69531 -1.0469,1.45703 0,0.76953 0.3555,1.26953 1.0703,1.73828 0.9258,0.60547 2.3477,0.78907 3.4883,0.89844 5.4805,0.51953 12.043,-0.65625 17.0508,-1.10156 8.543,-1.60156 17.2734,-3.67969 26.0938,-3.46094 1.4453,-0.4375 2.375,-2.03515 2.3554,-3.69922 -0.016,-1.17578 -0.5195,-1.41015 -1.4023,-1.5"
     id="path111" />
  <path
     fill-rule="nonzero"
     fill="#000000"
     fill-opacity="1"
     d="m 1427.207,167.04315 c -0.2929,-0.45312 -0.7929,-0.61719 -1.4726,-0.51562 -4.1172,2 -8.2578,5.74609 -11.8086,5.95312 -2.0078,0.37109 -7.7813,-0.83203 -11.4727,-2.07812 -2.1523,-0.72266 -4.6133,-1.26954 -6.5195,-2.97266 -3.5547,-4.29688 -7.1055,-8.59766 -10.6563,-12.89844 -1.0351,-0.58594 -2,-0.0898 -2.1601,0.96875 0.2578,4.6211 2.3281,6.54297 4.2187,10.46094 3.918,3.42969 8.375,7.81641 12.5079,10.04297 4.9335,0.74219 9.0351,2.44531 14.914,2.1875 2.3125,-0.4375 4.7774,-1.04688 6.5235,-2.19922 1.3789,-0.90625 4.6093,-3.14453 5.789,-5.62109 0.5938,-1.24219 0.582,-2.64844 0.1367,-3.32813"
     id="path112" />
  <path
     fill-rule="nonzero"
     fill="#000000"
     fill-opacity="1"
     d="m 1431.6406,145.05878 c -3.5312,-0.34766 -8.5508,-0.28125 -12.5586,-0.0899 -11.4101,0.53906 -19.8437,3.72266 -29.2461,4.20703 -1.9101,-0.20703 -3.8164,-0.41797 -5.7265,-0.625 -0.6172,0.21094 -0.9571,0.65625 -0.6992,1.40625 0.8125,1.85157 3.582,2.8711 5.2617,2.75782 13.6601,-1.02735 27.3984,-1.35938 40.8906,-2.41407 1.6016,-0.39062 3.2344,-1.91797 3.4336,-3.67578 0.1367,-1.22656 -0.5195,-1.48437 -1.3555,-1.5664"
     id="path113" />
  <path
     fill-rule="nonzero"
     fill="#000000"
     fill-opacity="1"
     d="m 1431.0195,149.65253 c -1.5117,2.28906 -4.457,9.53515 -4.7539,11.74218 -0.09,0.66797 0.1992,1.4336 0.8789,1.82032 0.6993,0.40234 1.5821,0.3125 2.2696,-0.043 2.0547,-3.10938 3.625,-9.39844 5.4882,-12.08203 0.25,-0.75782 0.02,-1.75 -1.1093,-2.27344 -1.0938,-0.50391 -2.1563,-0.0977 -2.7735,0.83594"
     id="path114" />
  <path
     fill-rule="nonzero"
     fill="#000000"
     fill-opacity="1"
     d="m 1415.0234,207.58612 c 0.6172,-2.0625 0.2539,-5.12109 -0.047,-6.57813 -1.0391,-5.0625 -2.1602,-13.96484 -4.4375,-19.73828 -0.2735,-0.69922 -0.6368,-1.0664 -1.5196,-1.05468 -1.2617,0.0156 -2.2265,1.04687 -2.5468,2.23828 -0.1329,8.69531 4.164,16.70703 4.5468,25.1914 0.3243,1.0625 1.2774,2.01563 2.5313,1.64063 0.8633,-0.25781 1.2461,-0.9375 1.4726,-1.69922"
     id="path115" />
  <path
     fill-rule="nonzero"
     fill="#000000"
     fill-opacity="1"
     d="m 1429.5391,210.50018 c -4.211,-0.94531 -10.6016,-0.36719 -15.125,-0.10547 -2.5586,0.64844 -5.1172,1.30078 -7.6797,1.94922 -3.4102,0.0977 -6.8242,0.19922 -10.2383,0.29688 -1.0195,0.19531 -1.9063,0.70703 -2.5352,1.72265 -0.3671,0.59375 -0.6289,1.38672 -0.3242,1.9961 0.2891,0.58593 1.0899,0.9414 1.9063,0.99218 11.4258,-0.85937 20.8164,-3.30859 33.0234,-2.80468 1.6094,-0.11328 2.2813,-0.6875 2.2774,-2.23047 0,-1.06641 -0.3243,-1.59766 -1.3047,-1.81641"
     id="path116" />
  <path
     fill-rule="nonzero"
     fill="#000000"
     fill-opacity="1"
     d="m 1400.0547,164.84784 c 6.043,-0.82031 12.082,-1.64063 18.125,-2.46094 1.8281,-0.41406 4.6211,-0.74219 4.3984,-2.05078 -0.1445,-1.10938 -10.5312,-0.89063 -13.4961,-0.65625 -6.0234,0.48047 -12.2656,1.33203 -18.2461,2.26562 -1.4843,0.23047 -3.4336,1.36719 -2.9453,2.34375 2.7422,1.08204 8.2657,0.64844 12.1641,0.5586"
     id="path117" />
  <path
     fill-rule="nonzero"
     fill="#000000"
     fill-opacity="1"
     d="m 1355.0898,140.50409 c -9.7148,0.4375 -18.9648,0.875 -28.4414,1.07031 -2.0117,0.11328 -6.2421,0.58594 -7.9062,1.27734 -0.6875,0.28907 -1.0352,0.72266 -1.0352,1.44922 0,0.75782 0.3477,1.16407 1.0586,1.57032 1.1875,0.6875 3.2188,0.99218 4.6367,0.90234 3.7969,-0.63281 7.5938,-1.26953 11.3946,-1.90234 7.1523,-0.19922 14.3047,-0.39844 21.4609,-0.59766 1.0899,-0.11719 2.043,-0.77344 2.0352,-1.98828 -0.02,-1.44141 -1.6992,-1.89453 -3.2032,-1.78125"
     id="path118" />
  <path
     fill-rule="nonzero"
     fill="#000000"
     fill-opacity="1"
     d="m 1144.6875,231.81659 c 0.8438,-3.81641 1.4336,-8.27735 1.1367,-10.39063 -0.4687,-3.34375 -3.9844,-12.36718 -6.2031,-17.51953 -2.1836,-2.375 -3.375,-6.0664 -7.0977,-11.30469 -1.5586,-1.04296 -2.5898,-0.67578 -3.957,-0.10937 -1.3906,0.98437 -2.7851,1.96875 -4.1758,2.95312 -1.5156,-1.35546 -3.0273,-2.70703 -4.5429,-4.0625 -2.0743,0 -4.1524,0 -6.2305,0 -2.4336,-0.5039 -3.8711,-1.51953 -4.9844,-2.24218 -1.3515,0.0391 -2.6992,0.0781 -4.0508,0.11718 -0.9687,-1.39062 -1.9414,-2.77734 -2.914,-4.16796 -0.6524,-0.46875 -3.2461,-1.63672 -5.2735,-1.86719 l -1.875,0.21875 c -2.9922,3.71875 -6.7656,7.98828 -7.5273,7.46484 -0.957,-0.62109 -2.3008,-6.79297 -2.168,-9.05078 0.086,-1.44531 0.6485,-2.77734 1.168,-2.52344 0.8086,0.25391 1.7109,6.19922 2.6289,4.19141 0.25,-0.72656 0.293,-2.46875 -0.3086,-3.95703 -0.6914,-1.72656 -1.4727,-2.39453 -2.9766,-2.5 -1.2187,-0.082 -2.4921,0.66406 -3.332,1.39844 -1.6133,1.40625 -2.0976,3.55859 -2.6875,5.7539 -0.6094,2.28125 -1.8828,9.33594 -2.2461,13.59375 -0.4609,5.36719 -0.9609,7.80469 -0.9297,20.35938 0.012,4.4375 0.2266,6.52343 1.1407,7.94531 l 1.2304,0.48828 c 1.3946,-1.30859 1.7539,-2.82031 4.3399,-3.09766 0.9062,-0.10937 4.0586,0.32032 5.6836,0.86719 3.2382,2.1211 4.1992,3.39453 6.0898,3.0586 1.2227,-0.4961 1.7578,-1.14454 3.375,-0.92579 6.3359,0.84766 10.8047,1.83204 18.4492,1.86719 3.043,-0.1875 6.086,-0.37109 9.1328,-0.55859 3.3711,0.53125 9.4532,2.97265 12.4805,4.48047 1.8477,0.92187 2.3672,2.35547 3.1602,3.59765 0.582,0.48438 1.1289,0.76172 1.8515,0.0156 0.8086,-0.83203 1.1094,-1.81641 1.6133,-4.09375 m -58.1602,-36.23044 -0.5273,0.52734 -0.5273,-0.52734 0.5273,-0.52734 0.5273,0.52734"
     id="path119" />
  <path
     fill-rule="nonzero"
     fill="#000000"
     fill-opacity="1"
     d="m 1139.3164,223.17206 c -0.6797,0.90625 -1.0117,1.87109 -1.0976,3.875 -0.074,1.82031 0.1835,3.35937 0.6289,4.73828 0.3007,0.93359 0.8593,2.03906 1.7773,2.26562 -0.6758,0.46875 2.8477,-0.66406 3.0391,-2.02343 0.9179,-1.95313 1.1367,-4.97266 0.7031,-7.03907 0.6172,0.70703 -2.2227,-4.59765 -2.582,-3.09765 -0.8985,-0.11719 -1.8868,0.51172 -2.4688,1.28125"
     id="path120" />
  <path
     fill-rule="nonzero"
     fill="#000000"
     fill-opacity="1"
     d="m 1113.3047,232.81268 c 1.7422,0.50391 3.4883,1.00391 5.2305,1.50781 1.3632,0.0937 2.8437,-0.30078 3.4921,-1.13281 0.754,-0.97265 0.3321,-1.95312 -0.3984,-2.8164 -1.8633,-2.0586 -7.0273,-3.16797 -8.2695,-6.10547 -0.3242,-1.50391 8.2539,-0.19922 12.539,-1.34766 2.1329,-0.55078 3.3711,-1.70703 4.1602,-2.59375 2.1992,-4.54687 4.3984,-9.09766 6.6016,-13.64453 0.4218,-0.98828 1.1211,-2.86719 1.2265,-5.05078 -0.3125,-2.27735 -0.625,-4.55469 -0.9336,-6.83203 0.3946,-2.77735 0.9844,-5.91407 0.836,-8.91407 -0.2618,-5.21093 -2.0743,-17.26171 -3.5157,-21.76171 -0.8086,-2.51563 -3.3007,-5.49219 -4.7421,-7.53516 -1.4688,-1.25391 -2.9336,-2.50781 -4.3985,-3.75781 -1.4805,-2.48828 -2.4726,-5.59375 -3.3906,-10.02344 -0.3438,-4.05078 -0.6914,-8.10156 -1.0352,-12.14844 -0.3437,-1.30078 -1.0078,-2.28125 -1.625,-3.32031 -1.5781,-2.64844 -5.8398,-7.05078 -7.5742,-8.22266 -0.6445,-0.4375 -1.2695,-0.69531 -2.293,-0.55468 -1.7929,0.24218 -3.0937,1.72656 -4.4843,3.55468 -2.3711,3.73438 -3.8438,5.09766 -6.9805,11.34766 -0.4883,1.79687 -0.125,2.68359 0.6641,3.46484 1.7343,1.23828 4.1015,1.57032 4.3828,3.39844 0.4219,1.73828 -0.6953,3.60938 -1.7617,5.78906 0.1601,1.35547 0.3164,2.71094 0.4765,4.06641 -1.5351,1.91406 -3.0703,3.82812 -4.6015,5.74219 -2.5782,4.88281 -5.125,7.22656 -6.6524,13.73437 -0.4765,10.19531 3.5156,15.02735 3.7031,31.03516 -0.7421,-1.07031 2.9336,6.57422 3.125,4.63672 0.8282,0.20703 1.7344,-1.05469 1.8946,-1.3086 0.4883,-1.40625 1.2422,-4.16406 2.5117,-5.29297 0.8828,-1.29687 2.4101,1.01563 4.1797,2.49219 1.2148,0.41016 2.1992,0.0742 2.9414,-0.54687 1.457,-3.1836 2.914,-6.36719 4.3711,-9.55469 2.4101,-1.76953 6.3945,0.125 8.0547,-0.82031 1.8203,-0.0352 3.3125,-6.28516 4.6953,-7.78516 0.2031,-0.18359 5.332,1.27344 5.7031,1.68359 1.0508,-1.67968 0.5547,14.58204 0.2227,22.59766 -1.6289,4.27344 -1.9024,6.98828 -5.5664,11.35938 -1.1993,0.96093 -2.0118,1.28906 -4.0391,1.36328 -3.2734,-0.19922 -9.5938,-1.51953 -13.1641,-0.20313 -4.25,1.33203 -1.0898,4.87891 -4.2461,5.82422 -4.75,1.96484 -0.8086,0.80078 -7.8906,1.72266 0.9453,-0.79688 -5.8828,3.02734 -4.1172,3.36718 -0.7656,-0.48828 2.6172,2.94141 3.3242,2.19141 2.4024,-0.12891 5.1641,-0.004 6.6368,0.35938 2.2812,0.89062 4.5625,1.78125 6.8437,2.67187 1.9375,0.32031 2.875,-1.9375 3.8633,-2.63672 m -17.7774,-65.22656 -0.5273,0.52734 -0.5273,-0.52734 0.5273,-0.52734 0.5273,0.52734 m 1,-1 -0.5273,0.52734 -0.5273,-0.52734 0.5273,-0.52734 0.5273,0.52734 m 1,-2 -0.5273,0.52734 -0.5273,-0.52734 0.5273,-0.52734 0.5273,0.52734 m 0.3711,15.10547 -0.1015,-0.25 0.1367,-1.08203 0.168,-0.87891 0.1015,0.25 -0.1367,1.08203 -0.168,0.87891 m 1.6289,-5.10547 -0.5273,0.52734 -0.5273,-0.52734 0.5273,-0.52734 0.5273,0.52734 m 0.4063,17.97656 c -0.6328,2.74219 -2.0859,6.125 -4.0586,8.88672 -0.7617,0.46484 -1.4297,-2.55859 -0.9609,-7.57422 0.3281,-2.65234 1.0156,-3.89453 2.1172,-4.07031 1.5195,0.35937 3.0351,1.78516 2.9023,2.75781 m 6.5937,-34.97656 -0.5273,0.52734 -0.5273,-0.52734 0.5273,-0.52734 0.5273,0.52734 m 1,-4 -0.5273,0.52734 -0.5273,-0.52734 0.5273,-0.52734 0.5273,0.52734 m 7.586,-15.29688 c -0.1602,2.66797 -0.6172,5.95313 -1.1563,7.96485 -0.4179,1.5625 -0.7851,2.28125 -1.3086,1.86328 -1.625,-1.30859 -4.2343,-9.44141 -4.25,-8.05078 0.9961,-2.42188 3.8125,-7.6875 5.3907,-7.42188 0.8906,0.22657 1.6132,1.79297 1.3242,5.64453 m 0.7578,36.63672 c 0.1836,-4.01562 0.6289,-9.85156 1.1641,-7.89453 0.6211,2.27344 -0.25,13.14844 -0.625,13.96875 -0.3243,0.71094 -0.75,-1.5 -0.5391,-6.07422"
     id="path121" />
  <path
     fill-rule="nonzero"
     fill="#000000"
     fill-opacity="1"
     d="m 1038.6641,190.25018 v 2.67188 h 1.6718 v -2.67188 h -1.6718"
     id="path122" />
  <path
     fill-rule="nonzero"
     fill="#000000"
     fill-opacity="1"
     d="m 1061.6836,218.0744 c -3.293,-9.84766 -7.0156,-12.27734 -12.1328,-25.26172 0.5195,0.0703 -2.3945,-1.73047 -2.2344,-0.39062 -0.7891,1.35547 -1.582,2.71093 -2.3711,4.0664 -0.8476,-3.6289 -1.6992,-7.25781 -2.5469,-10.88672 -1.0742,-1.97656 -2.7812,-2.5625 -3.664,-2.79687 -1.2774,-0.33594 -2.8125,-0.88672 -4.3242,-0.97266 -1.0039,-0.0586 -2.1758,0.0742 -3.461,0.79297 -3.1992,1.78516 -4.0547,5.94531 -5.875,8.91016 -1.0508,2.55859 -1.4687,23.16797 -2.0742,22.67187 -0.4336,-0.35547 -1.1758,-6.08984 -1.5039,-9.74609 -0.5781,-2.63281 -1.0742,-3.38281 -2.0664,-3.08984 -1.8828,0.50781 -2.3867,5.85937 -3.1953,8.01562 -0.7657,1.47266 -2.0508,2.625 -2.8555,1.59766 -1.1211,-4.71485 1.3125,-7.875 0.9297,-16.12891 0.8476,-4.29297 1.6992,-8.58594 2.5469,-12.875 0.3945,-3.59375 -3.2344,-3.89062 -2.8516,-6.07031 0.2383,-2.73047 2.7695,-5.15625 2.5742,-9.41016 l -0.6406,-1.21094 c -0.8047,-0.64062 -1.8633,-0.32812 -2.5313,0.15625 -3.5468,5.71094 -4.3632,12.76954 -9.4609,21.20313 -0.8789,2.24219 -1.5898,4.71484 -1.7891,6.9375 -0.332,6.87109 -0.6679,13.73828 -1,20.60937 0.6211,1.98829 1.2422,3.97657 1.8633,5.96094 0.4024,5.73828 -0.6172,9.52344 0.9805,11.96485 0.582,0.89062 1.3945,1.1914 2.457,0.92968 2.6992,-0.66797 7.5508,-3.24218 9.168,-4.83203 1.125,-2.55469 2.25,-5.11328 3.375,-7.66797 0.9727,1.75 1.9453,3.5 2.918,5.2461 1.0039,1.05078 2.0039,1.55078 3.3242,1.36328 1.5273,-1.14063 3.0508,-2.28125 4.5781,-3.42578 1.5742,-0.16016 3.1445,-0.32032 4.7188,-0.48438 0.9414,-0.7539 1.8828,-1.50781 2.8242,-2.26562 2.3906,1.12109 4.7773,2.23828 7.164,3.35937 3.2735,1.02735 7.793,2.03516 10.7696,2.28125 1.8594,0.15625 5.1953,-1.95703 5.7969,-2.80859 0.8515,-1.20313 1.0859,-4.09766 0.5898,-5.74219 m -49.75,-4.56641 -0.1406,-0.19531 0.098,-0.3789 0.1758,-0.26954 0.1406,0.19532 -0.098,0.3789 -0.1758,0.26953"
     id="path123" />
  <path
     fill-rule="nonzero"
     fill="#000000"
     fill-opacity="1"
     d="m 1035.3867,129.35174 c -4.1015,4.86719 -5.2617,6.32422 -10.2226,13.10938 -2.6055,3.5625 -4.1329,7.48437 -5.3321,10.37891 -1.1328,3.17187 -2.3984,4.46484 -3.4258,10.74609 -0.1523,1.69141 -0.043,3.19531 0.7774,3.93359 4.9453,0.65625 9.1172,0.82813 9.7812,0.82032 2.0391,1.15234 1.418,7.09765 3.6485,9.80859 0.3359,0.0703 9.3906,0.11719 10.1601,-0.17578 l 1.4805,-1.25781 c 0.8203,-1.32422 1.5313,-4.26954 1.8945,-6.74219 0.6172,-4.1875 0.7422,-7.85547 0.6329,-11.26172 -0.1329,-4.25 -0.8165,-9.375 -1.5586,-14.28516 -2.6563,-6.9414 -2.6836,-10.5664 -5.1914,-16.83984 -0.9297,-0.26953 -1.8243,0.79297 -2.6446,1.76562 m 4.5469,28.15625 -0.1406,-0.19531 0.098,-0.3789 0.1758,-0.26954 0.1406,0.19532 -0.098,0.3789 -0.1758,0.26953 m -0.043,-7.38281 -1.4179,-1.53906 1.5273,-1.52734 c 1.4141,0.15625 0.2383,2.0625 -0.1094,3.0664"
     id="path124" />
  <path
     fill-rule="nonzero"
     fill="#000000"
     fill-opacity="1"
     d="m 1052.6172,135.64471 c 0.9766,-1.42578 4.3711,0.63672 6.9258,-2.13281 1.0234,-1.01953 1.3906,-1.95312 1.4375,-3.29297 -2.7617,-7.82422 -6.8242,-12.07422 -8.8633,-18.96094 -0.457,-0.69921 -1.1641,-1.35546 -2.3125,-1.4375 l -2.0234,0.23438 c -1.2149,0.44531 -2.125,1.52734 -2.254,2.65625 1.125,3.12109 2.254,6.23828 3.379,9.35937 -0.8868,1.83594 -1.7735,3.67579 -2.6602,5.51172 -0.2852,1.41407 -0.098,3.32422 0.1289,4.96485 0.3594,2.61328 0.8203,4.62109 1.6328,5.80468 0.5274,0.77344 1.2539,1.12891 1.8555,1.00391 1.3867,-0.28906 2.0156,-2.3125 2.7539,-3.71094"
     id="path125" />
  <path
     fill-rule="nonzero"
     fill="#000000"
     fill-opacity="1"
     d="m 1090.4531,118.66424 c -2.4375,2.33204 -4.875,4.66016 -7.3164,6.99219 -2.8047,1.38281 -5.6094,2.76953 -8.4179,4.15235 -1.1329,1.08593 -1.6094,2.79296 -0.5391,3.4414 0.2422,0.17578 5.8281,3.08594 6.5234,3.01563 1.1719,-0.125 2.8477,-1.58203 3.0078,-2.02735 1.1914,-0.45703 -0.6679,6.88282 1.3985,7.88672 1.039,0.76953 3.2344,0.25391 4.5273,-0.79687 0.9453,-0.76563 1.4297,-1.75391 1.8985,-3.02735 2.0195,-5.48828 3.2617,-11.07422 4.6132,-15.90234 0.5469,-1.64844 0.9571,-3.95313 0,-4.85547 -1.1406,-1.01562 -3.5976,0.082 -5.6953,1.12109 m -4.9258,12.92188 -0.5273,0.52734 -0.5273,-0.52734 0.5273,-0.52734 0.5273,0.52734"
     id="path126" />
  <rect
     style="fill:none;stroke-width:13.474"
     id="rect126"
     width="1872"
     height="330.345"
     x="0"
     y="0" />
</svg>
