<?xml version="1.0" encoding="UTF-8" standalone="no"?>
<!-- Created with Inkscape (http://www.inkscape.org/) -->

<svg
   width="210mm"
   height="297mm"
   viewBox="0 0 210 297"
   version="1.1"
   id="svg1"
   inkscape:version="1.3.2 (091e20ef0f, 2023-11-25)"
   sodipodi:docname="building-blocks.svg"
   inkscape:export-filename="qrs-logo-words-numbers.pdf"
   inkscape:export-xdpi="96"
   inkscape:export-ydpi="96"
   xmlns:inkscape="http://www.inkscape.org/namespaces/inkscape"
   xmlns:sodipodi="http://sodipodi.sourceforge.net/DTD/sodipodi-0.dtd"
   xmlns="http://www.w3.org/2000/svg"
   xmlns:svg="http://www.w3.org/2000/svg">
  <sodipodi:namedview
     id="namedview1"
     pagecolor="#ffffff"
     bordercolor="#666666"
     borderopacity="1.0"
     inkscape:showpageshadow="2"
     inkscape:pageopacity="0.0"
     inkscape:pagecheckerboard="0"
     inkscape:deskcolor="#d1d1d1"
     inkscape:document-units="mm"
     inkscape:zoom="0.1767767"
     inkscape:cx="509.11688"
     inkscape:cy="39.59798"
     inkscape:window-width="1680"
     inkscape:window-height="1050"
     inkscape:window-x="1920"
     inkscape:window-y="0"
     inkscape:window-maximized="1"
     inkscape:current-layer="layer1" />
  <defs
     id="defs1" />
  <g
     inkscape:label="Layer 1"
     inkscape:groupmode="layer"
     id="layer1">
    <g
       id="g9"
       transform="matrix(0.32100108,0,0,0.32100108,-206.85037,56.80077)">
      <g
         id="g8">
        <g
           id="g7">
          <path
             fill="#000000"
             d="M 10,54.3 V 98.6 H 54.3 98.6 V 54.3 10 H 54.3 10 Z m 73.8,0 V 83.8 H 54.3 24.8 V 54.3 24.8 h 29.5 29.5 z"
             id="path1" />
          <path
             fill="#000000"
             d="M 39.5,54.3 V 69 H 54.3 69 V 54.3 39.5 H 54.3 39.5 Z"
             id="path2" />
          <path
             fill="#000000"
             d="m 113.3,17.4 v 7.4 h 7.4 7.4 v 7.4 7.4 h -7.4 -7.4 v 22.1 22.1 h 7.4 7.4 v 7.4 7.4 h -7.4 -7.4 v 7.4 7.4 H 98.5 83.8 v 7.4 7.4 H 76.4 69 v -7.4 -7.4 h -7.4 -7.4 v 7.4 7.4 h -7.4 -7.4 v -7.4 -7.4 H 24.8 10 v 14.6 14.8 h 22.1 22.1 v -7.4 -7.4 h 7.4 7.4 v 7.4 7.4 h 14.8 14.8 v -7.4 -7.4 h 7.4 7.4 v -7.4 -7.4 h 7.4 7.4 v 14.8 14.8 h -7.4 -7.4 v 7.4 7.4 h 7.4 7.4 v 7.4 7.4 h -7.4 -7.4 v 7.4 7.4 h 7.4 7.4 v 14.8 14.8 h -7.4 -7.4 v 7.4 7.4 h 7.4 7.4 v 7.4 7.4 h 7.4 7.4 v -7.4 -7.4 h -7.4 -7.6 v -7.4 -7.4 h 7.4 7.4 V 187 157.5 h -7.4 -7.4 v -7.4 -7.4 h 14.8 14.8 v 36.9 36.9 h 7.4 7.4 v 7.4 7.4 h -7.4 -7.4 v 7.4 7.4 h 14.8 14.6 v -7.4 -7.4 h 7.4 7.4 v -7.4 -7.4 h 7.4 7.4 v 7.4 7.4 h -6.6 -6.5 v 7.4 7.4 h 21.2 21.3 v -14.8 -14.8 h -7.4 -7.4 V 201.7 187 h 7.4 7.4 v -7.4 -7.4 h -7.4 -7.4 v -14.8 -14.8 h 7.4 7.4 V 128 113.2 h -14.8 -14.8 v 7.4 7.4 h -7.4 -7.4 v -7.4 -7.4 h -7.4 -7.2 v 7.4 7.4 h -7.4 -7.4 v -7.4 -7.4 H 157.5 142.7 V 98.5 83.8 H 135.3 128 V 69 54.3 h 7.4 7.4 V 32.1 10 H 128 113.2 v 7.4 z m 118,118 v 7.4 h -7.4 -7.4 v 7.4 7.4 h -7.4 -7.4 v 7.4 7.4 h 7.4 7.4 v 14.6 14.8 h -7.4 -7.4 V 187 172.2 H 187 172.2 v -14.8 -14.8 h 7.4 7.4 v 7.4 7.4 h 7.4 7.4 v -7.4 -7.4 h 7.4 7.4 v -7.4 -7.2 h 7.4 7.4 z m -44.3,59 v 7.4 h -7.4 -7.4 v -7.4 -7.4 h 7.4 7.4 z"
             id="path3" />
          <path
             fill="#000000"
             d="M 157.5,54.3 V 98.6 H 201.8 246 V 54.3 10 h -44.3 -44.3 v 44.3 z m 73.8,0 V 83.8 H 201.8 172.3 V 54.3 24.8 h 29.5 29.5 z"
             id="path4" />
          <path
             fill="#000000"
             d="M 187,54.3 V 69 h 14.8 14.8 V 54.3 39.5 H 201.8 187 Z"
             id="path5" />
          <path
             fill="#000000"
             d="M 10,201.8 V 246 H 54.3 98.6 V 201.7 157.4 H 54.3 10 Z m 73.8,0 v 29.5 H 54.3 24.8 v -29.5 -29.5 h 29.5 29.5 z"
             id="path6" />
          <path
             fill="#000000"
             d="m 39.5,201.8 v 14.8 H 54.3 69 V 201.8 187 H 54.3 39.5 Z"
             id="path7" />
        </g>
      </g>
    </g>
    <rect
       x="-149.19131"
       y="156.79408"
       style="fill:none;stroke:#000000;stroke-width:7.08691;stroke-miterlimit:10"
       width="21.260723"
       height="21.260723"
       id="rect1" />
    <rect
       x="-198.79982"
       y="156.79408"
       style="fill:none;stroke:#000000;stroke-width:7.08691;stroke-miterlimit:10"
       width="21.260723"
       height="21.260723"
       id="rect2" />
    <rect
       x="-198.79982"
       y="206.40239"
       style="fill:none;stroke:#000000;stroke-width:7.08691;stroke-miterlimit:10"
       width="21.260723"
       height="21.260723"
       id="rect3" />
    <rect
       x="-191.7128"
       y="163.88089"
       width="7.0869079"
       height="7.0869079"
       id="rect4"
       style="stroke-width:3.54345" />
    <rect
       x="-142.10449"
       y="163.88089"
       width="7.0869079"
       height="7.0869079"
       id="rect5"
       style="stroke-width:3.54345" />
    <rect
       x="-191.7128"
       y="213.48918"
       width="7.0869079"
       height="7.0869079"
       id="rect6"
       style="stroke-width:3.54345" />
    <line
       style="fill:none;stroke:#000000;stroke-width:7.08691;stroke-miterlimit:10"
       x1="-163.36513"
       y1="153.25058"
       x2="-163.36513"
       y2="178.05473"
       id="line6" />
    <line
       style="fill:none;stroke:#000000;stroke-width:7.08691;stroke-miterlimit:10"
       x1="-159.82182"
       y1="209.94588"
       x2="-159.82182"
       y2="231.20653"
       id="line7" />
    <line
       style="fill:none;stroke:#000000;stroke-width:7.08691;stroke-miterlimit:10"
       x1="-145.64799"
       y1="224.11971"
       x2="-145.64799"
       y2="231.20653"
       id="line8" />
    <line
       style="fill:none;stroke:#000000;stroke-width:7.08691;stroke-miterlimit:10"
       x1="-138.561"
       y1="217.0327"
       x2="-138.561"
       y2="224.11971"
       id="line9" />
    <line
       style="fill:none;stroke:#000000;stroke-width:7.08691;stroke-miterlimit:10"
       x1="-127.93068"
       y1="224.11971"
       x2="-127.93068"
       y2="231.20653"
       id="line10" />
    <line
       style="fill:none;stroke:#000000;stroke-width:7.08691;stroke-miterlimit:10"
       x1="-163.36513"
       y1="163.88089"
       x2="-156.27832"
       y2="163.88089"
       id="line11" />
    <line
       style="fill:none;stroke:#000000;stroke-width:7.08691;stroke-miterlimit:10"
       x1="-173.99567"
       y1="185.14174"
       x2="-145.64799"
       y2="185.14174"
       id="line12" />
    <line
       style="fill:none;stroke:#000000;stroke-width:7.08691;stroke-miterlimit:10"
       x1="-202.34312"
       y1="192.22856"
       x2="-195.25632"
       y2="192.22856"
       id="line13" />
    <line
       style="fill:none;stroke:#000000;stroke-width:7.08691;stroke-miterlimit:10"
       x1="-195.25632"
       y1="185.14174"
       x2="-188.16951"
       y2="185.14174"
       id="line14" />
    <line
       style="fill:none;stroke:#000000;stroke-width:7.08691;stroke-miterlimit:10"
       x1="-188.16951"
       y1="192.22856"
       x2="-181.08247"
       y2="192.22856"
       id="line15" />
    <line
       style="fill:none;stroke:#000000;stroke-width:7.08691;stroke-miterlimit:10"
       x1="-145.64799"
       y1="192.22856"
       x2="-138.561"
       y2="192.22856"
       id="line16" />
    <line
       style="fill:none;stroke:#000000;stroke-width:7.08691;stroke-miterlimit:10"
       x1="-138.561"
       y1="185.14174"
       x2="-131.47418"
       y2="185.14174"
       id="line17" />
    <line
       style="fill:none;stroke:#000000;stroke-width:7.08691;stroke-miterlimit:10"
       x1="-131.47418"
       y1="192.22856"
       x2="-124.38716"
       y2="192.22856"
       id="line18" />
    <line
       style="fill:none;stroke:#000000;stroke-width:7.08691;stroke-miterlimit:10"
       x1="-145.64799"
       y1="206.40239"
       x2="-138.561"
       y2="206.40239"
       id="line19" />
    <line
       style="fill:none;stroke:#000000;stroke-width:7.08691;stroke-miterlimit:10"
       x1="-138.561"
       y1="199.31557"
       x2="-131.47418"
       y2="199.31557"
       id="line20" />
    <line
       style="fill:none;stroke:#000000;stroke-width:7.08691;stroke-miterlimit:10"
       x1="-131.47418"
       y1="206.40239"
       x2="-124.38716"
       y2="206.40239"
       id="line21" />
    <line
       style="fill:none;stroke:#000000;stroke-width:7.08691;stroke-miterlimit:10"
       x1="-181.08247"
       y1="199.31557"
       x2="-152.73482"
       y2="199.31557"
       id="line22" />
    <line
       style="fill:none;stroke:#000000;stroke-width:7.08691;stroke-miterlimit:10"
       x1="-159.82182"
       y1="213.48918"
       x2="-131.47418"
       y2="213.48918"
       id="line23" />
    <line
       style="fill:none;stroke:#000000;stroke-width:7.08691;stroke-miterlimit:10"
       x1="-166.90865"
       y1="192.22856"
       x2="-159.82182"
       y2="192.22856"
       id="line24" />
    <line
       style="fill:none;stroke:#000000;stroke-width:7.08691;stroke-miterlimit:10"
       x1="-170.45215"
       y1="170.96791"
       x2="-163.36513"
       y2="170.96791"
       id="line25" />
    <path
       d="m -246.31908,254.01037 q 0,-2.29082 0.86841,-4.29717 0.88339,-2.02131 2.39564,-3.45869 1.52722,-1.43738 3.65333,-2.26088 2.12613,-0.83847 4.52176,-0.83847 2.32077,0 4.59662,0.97322 2.27585,0.95826 3.86296,2.59028 l -2.81487,3.42875 q -1.10798,-1.27268 -2.60525,-2.02131 -1.49727,-0.76361 -2.97957,-0.76361 -2.76995,0 -4.65651,1.90153 -1.87159,1.88656 -1.87159,4.68646 0,2.79989 1.87159,4.7164 1.88656,1.90153 4.65651,1.90153 1.43738,0 2.93465,-0.67377 1.49727,-0.68874 2.65017,-1.84164 l 2.84481,3.09935 q -1.72186,1.76678 -4.04263,2.7999 -2.30579,1.03311 -4.62656,1.03311 -3.15924,0 -5.74952,-1.43738 -2.57531,-1.43738 -4.04263,-3.95279 -1.46733,-2.51542 -1.46732,-5.58482 z m 20.15325,10.76537 9.31303,-21.47085 h 5.00088 l 9.17827,21.47085 h -5.18056 l -1.69191,-4.17738 h -9.94188 l -1.67694,4.17738 z m 8.27991,-8.07028 h 6.76766 l -3.36885,-8.3398 z m 17.4432,8.07028 v -21.47085 h 9.31303 q 4.20733,0 6.49815,1.94645 2.3058,1.94645 2.3058,5.50995 0,2.4705 -1.03312,4.23728 -1.01813,1.76678 -2.97956,2.69509 l 4.56667,7.08208 h -5.49498 l -3.39881,-6.1388 h -0.46414 -4.47685 v 6.1388 z m 4.83619,-10.18143 h 4.47684 q 2.02131,0 3.11432,-0.92831 1.09301,-0.92831 1.09301,-2.75498 0,-1.76678 -1.09301,-2.66514 -1.09301,-0.91334 -3.11432,-0.91334 h -4.47684 z m 17.35336,10.18143 v -21.47085 h 9.1034 q 3.294,0 5.85433,1.36251 2.57531,1.34754 3.99771,3.80307 1.43738,2.44055 1.43738,5.56984 0,3.1293 -1.45235,5.56985 -1.43738,2.44055 -4.0576,3.80307 -2.60525,1.36251 -5.95914,1.36251 z m 4.83618,-4.07257 h 4.38701 q 2.71006,0 4.46186,-1.85662 1.76678,-1.85661 1.76678,-4.77629 0,-2.93465 -1.82667,-4.80624 -1.82667,-1.87159 -4.61159,-1.87159 h -4.17739 z m 15.6914,4.07257 9.31303,-21.47085 h 5.00088 l 9.17827,21.47085 h -5.18055 l -1.69192,-4.17738 h -9.94188 l -1.67694,4.17738 z m 8.27991,-8.07028 h 6.76767 l -3.36886,-8.3398 z m 17.4432,8.07028 v -21.47085 h 4.41695 l 10.421,13.80483 v -13.80483 h 4.59662 v 21.47085 h -4.41695 l -10.39105,-13.77488 v 13.77488 z m 22.60878,-10.73543 q 0,-3.08437 1.49727,-5.56984 1.51225,-2.50044 4.14744,-3.90788 2.65017,-1.40743 5.88428,-1.40743 3.2341,0 5.869296,1.42241 2.650169,1.40743 4.147439,3.90787 1.512244,2.48547 1.512244,5.55487 0,3.05444 -1.512244,5.56985 -1.49727,2.50044 -4.147439,3.93782 -2.635196,1.43738 -5.869296,1.43738 -3.23411,0 -5.88428,-1.4224 -2.63519,-1.43738 -4.14744,-3.93783 -1.49727,-2.51541 -1.49727,-5.58482 z m 4.97094,0 q 0,1.39247 0.52404,2.65017 0.53902,1.24274 1.42241,2.1411 0.89836,0.88339 2.11115,1.40743 1.22777,0.52405 2.56034,0.52405 2.710056,0 4.61159,-1.94645 1.901533,-1.96143 1.901533,-4.7763 0,-2.81486 -1.901533,-4.73137 -1.901534,-1.91651 -4.61159,-1.91651 -2.74001,0 -4.68646,1.93148 -1.93148,1.91651 -1.93148,4.7164 z"
       id="path47"
       style="font-size:30.6641px;line-height:0.7;font-family:trueno;-inkscape-font-specification:trueno;stroke-width:0.958254" />
    <path
       d="m -244.77689,307.70548 v -21.47085 h 4.83618 v 17.23358 h 9.20822 v 4.23727 z m 16.91916,0 v -21.47085 h 4.83618 v 21.47085 z m 8.05532,-10.73542 q 0,-3.05444 1.52721,-5.53991 1.52722,-2.50044 4.20733,-3.92284 2.69509,-1.42241 5.98908,-1.42241 2.36569,0 4.65652,0.85344 2.30579,0.83847 3.95279,2.27585 l -2.72503,3.4587 q -1.19782,-1.10798 -2.76995,-1.73684 -1.55716,-0.64382 -3.11433,-0.64382 -2.85978,0 -4.80623,1.93148 -1.94646,1.9165 -1.94646,4.74635 0,2.84481 1.96143,4.79126 1.96142,1.93148 4.82121,1.93148 1.90153,0 4.19236,-1.16787 v -5.64471 h 4.20733 v 8.24996 q -1.72186,1.25771 -4.10252,2.02131 -2.38066,0.76361 -4.6116,0.76361 -3.20416,0 -5.82438,-1.4224 -2.62022,-1.43738 -4.11749,-3.93783 -1.49727,-2.51541 -1.49727,-5.58481 z m 24.37556,10.73542 v -21.47085 h 4.83618 v 8.95367 h 9.71729 v -8.95367 h 4.85115 v 21.47085 h -4.85115 v -8.45957 h -9.71729 v 8.45957 z m 21.99491,-17.35336 v -4.11749 h 17.9373 v 4.11749 h -6.55805 v 17.35336 h -4.83618 v -17.35336 z m 20.54255,17.35336 v -21.47085 h 4.41694 l 10.42101,13.80483 v -13.80483 h 4.59662 v 21.47085 h -4.41695 l -10.39106,-13.77488 v 13.77488 z m 24.15096,0 v -21.47085 h 4.83619 v 21.47085 z m 9.59751,0 v -21.47085 h 4.41695 l 10.421,13.80483 v -13.80483 h 4.59662 v 21.47085 h -4.41695 l -10.39106,-13.77488 v 13.77488 z m 22.608779,-10.73542 q 0,-3.05444 1.527216,-5.53991 1.527216,-2.50044 4.207331,-3.92284 2.695087,-1.42241 5.989082,-1.42241 2.365687,0 4.656511,0.85344 2.305797,0.83847 3.952794,2.27585 l -2.725032,3.4587 q -1.197816,-1.10798 -2.769951,-1.73684 -1.557161,-0.64382 -3.114322,-0.64382 -2.859787,0 -4.806239,1.93148 -1.946451,1.9165 -1.946451,4.74635 0,2.84481 1.961424,4.79126 1.961424,1.93148 4.821211,1.93148 1.901534,0 4.192358,-1.16787 v -5.64471 h 4.20733 v 8.24996 q -1.721861,1.25771 -4.102521,2.02131 -2.380661,0.76361 -4.611594,0.76361 -3.204159,0 -5.824382,-1.4224 -2.620224,-1.43738 -4.117494,-3.93783 -1.497271,-2.51541 -1.497271,-5.58481 z"
       id="path48"
       style="font-size:30.6641px;line-height:0.7;font-family:trueno;-inkscape-font-specification:trueno;stroke-width:0.958254" />
    <g
       id="g2"
       transform="matrix(0.56836475,0,0,0.56836475,-115.06838,28.949682)">
      <path
         d="m 167.3,109.9 c -0.2,-3.8 -3.6,-6.7 -7.5,-6.7 h -21.2 v 0 l -5.8,-14.7 v 0 h 13.1 c 3.8,0 7.3,-2.8 7.5,-6.7 0.2,-4 -3,-7.3 -6.9,-7.3 h -19.2 v 0 L 103.3,14 c -1,-2.6 -3.6,-4.4 -6.5,-4.4 -2.8,0 -5.4,1.8 -6.5,4.4 l -23,60.4 v 0 H 48.5 c -3.8,0 -7.3,2.8 -7.5,6.7 -0.2,4 3,7.3 6.9,7.3 h 13.7 v 0 L 56,103 v 0 H 35 c -3.8,0 -7.3,2.8 -7.5,6.7 -0.2,4 3,7.3 6.9,7.3 h 16.1 v 0 l -18.8,48.8 c -1.4,3.6 0.4,7.7 4,9.1 0.8,0.4 1.6,0.4 2.4,0.4 2.8,0 5.4,-1.6 6.5,-4.4 l 20.8,-53.8 v 0 h 63.3 v 0 l 21.6,54.4 c 1,2.8 3.6,4.4 6.5,4.4 0.8,0 1.8,-0.2 2.6,-0.4 3.6,-1.4 5.2,-5.4 3.8,-9.1 l -19.6,-49.2 v 0 h 15.9 c 4.7,-0.1 8,-3.3 7.8,-7.3 z M 97.1,36.1 112.2,74.4 v 0 H 82.4 v 0 L 97.1,36.1 c -0.2,0 0,0 0,0 z m -26,67.1 5.6,-14.7 v 0 h 40.7 v 0 l 5.8,14.7 v 0 z"
         id="path1-0" />
    </g>
    <rect
       style="fill:#000000;stroke:#000000;stroke-width:3.565"
       id="rect7"
       width="67.391708"
       height="111.99273"
       x="74.89341"
       y="137.45317"
       ry="13.099681" />
    <rect
       style="fill:#ffffff;stroke:none;stroke-width:3.35451"
       id="rect8"
       width="63.412624"
       height="105.38022"
       x="76.750618"
       y="143.69054"
       ry="12.326222" />
    <circle
       style="fill:#ffffff;stroke:none;stroke-width:3.565"
       id="path8"
       cx="108.58926"
       cy="139.37579"
       r="1.2289577" />
    <text
       xml:space="preserve"
       style="font-size:8.46667px;line-height:0.7;font-family:trueno;-inkscape-font-specification:trueno;stroke-width:0.264583"
       x="-28.056686"
       y="474.5033"
       id="text54"><tspan
         sodipodi:role="line"
         id="tspan54"
         style="stroke-width:0.264583" /></text>
    <text
       xml:space="preserve"
       style="font-size:32.7997px;line-height:0.7;font-family:trueno;-inkscape-font-specification:trueno;stroke-width:1.02499"
       x="-198.87773"
       y="405.99258"
       id="text55"><tspan
         sodipodi:role="line"
         id="tspan55"
         style="stroke-width:1.02499"
         x="-198.87773"
         y="405.99258">3</tspan></text>
    <text
       xml:space="preserve"
       style="font-size:32.7997px;line-height:0.7;font-family:trueno;-inkscape-font-specification:trueno;stroke-width:1.02499"
       x="-203.75748"
       y="364.44809"
       id="text56"><tspan
         sodipodi:role="line"
         id="tspan56"
         style="stroke-width:1.02499"
         x="-203.75748"
         y="364.44809">4</tspan></text>
    <text
       xml:space="preserve"
       style="font-size:32.7997px;line-height:0.7;font-family:trueno;-inkscape-font-specification:trueno;stroke-width:1.02499"
       x="-164.38214"
       y="352.24258"
       id="text57"><tspan
         sodipodi:role="line"
         id="tspan57"
         style="stroke-width:1.02499"
         x="-164.38214"
         y="352.24258">5</tspan></text>
    <text
       xml:space="preserve"
       style="font-size:32.7997px;line-height:0.7;font-family:trueno;-inkscape-font-specification:trueno;stroke-width:1.02499"
       x="-113.60966"
       y="352.18991"
       id="text58"><tspan
         sodipodi:role="line"
         id="tspan58"
         style="stroke-width:1.02499"
         x="-113.60966"
         y="352.18991">6</tspan></text>
    <text
       xml:space="preserve"
       style="font-size:32.7997px;line-height:0.7;font-family:trueno;-inkscape-font-specification:trueno;stroke-width:1.02499"
       x="-169.62045"
       y="438.36307"
       id="text59"><tspan
         sodipodi:role="line"
         id="tspan59"
         style="stroke-width:1.02499"
         x="-169.62045"
         y="438.36307">7</tspan></text>
    <text
       xml:space="preserve"
       style="font-size:32.7997px;line-height:0.7;font-family:trueno;-inkscape-font-specification:trueno;stroke-width:1.02499"
       x="-141.82024"
       y="417.25955"
       id="text60"><tspan
         sodipodi:role="line"
         id="tspan60"
         style="stroke-width:1.02499"
         x="-141.82024"
         y="417.25955">8</tspan></text>
    <text
       xml:space="preserve"
       style="font-size:32.7997px;line-height:0.7;font-family:trueno;-inkscape-font-specification:trueno;stroke-width:1.02499"
       x="-90.285713"
       y="386.64218"
       id="text61"><tspan
         sodipodi:role="line"
         id="tspan61"
         style="stroke-width:1.02499"
         x="-90.285713"
         y="386.64218">9</tspan></text>
    <text
       xml:space="preserve"
       style="font-size:32.7997px;line-height:0.7;font-family:trueno;-inkscape-font-specification:trueno;stroke-width:1.02499"
       x="-168.98627"
       y="392.75479"
       id="text62"><tspan
         sodipodi:role="line"
         id="tspan62"
         style="stroke-width:1.02499"
         x="-168.98627"
         y="392.75479">0</tspan></text>
    <text
       xml:space="preserve"
       style="font-size:32.7997px;line-height:0.7;font-family:trueno;-inkscape-font-specification:trueno;stroke-width:1.02499"
       x="-108.88808"
       y="418.41769"
       id="text63"><tspan
         sodipodi:role="line"
         id="tspan63"
         style="stroke-width:1.02499"
         x="-108.88808"
         y="418.41769">1</tspan></text>
    <text
       xml:space="preserve"
       style="font-size:32.7997px;line-height:0.7;font-family:trueno;-inkscape-font-specification:trueno;stroke-width:1.02499"
       x="-129.95178"
       y="383.65829"
       id="text64"><tspan
         sodipodi:role="line"
         id="tspan64"
         style="stroke-width:1.02499"
         x="-129.95178"
         y="383.65829">2</tspan></text>
    <g
       id="g69"
       transform="matrix(0.28300651,0,0,0.28300651,83.318297,132.76949)">
      <path
         sodipodi:type="star"
         style="fill:#000000;stroke-width:0.264583"
         id="path2-6"
         inkscape:flatsided="true"
         sodipodi:sides="3"
         sodipodi:cx="79.731239"
         sodipodi:cy="42.26276"
         sodipodi:r1="38.590466"
         sodipodi:r2="19.295233"
         sodipodi:arg1="0.52051705"
         sodipodi:arg2="1.5677146"
         inkscape:rounded="0"
         inkscape:randomized="0"
         d="M 113.21087,61.454909 46.370537,61.660893 79.612314,3.6724779 Z"
         inkscape:transform-center-x="0.016357228"
         inkscape:transform-center-y="-9.2692482"
         transform="matrix(0.83206856,0.00296536,-0.00341198,0.9607843,22.596693,38.564473)"
         inkscape:label="path2"
         inkscape:export-filename="full-recursive.png"
         inkscape:export-xdpi="96"
         inkscape:export-ydpi="96" />
      <path
         id="path3-29"
         style="fill:#f9f9f9;stroke-width:0.403664"
         inkscape:transform-center-x="-0.037168878"
         inkscape:transform-center-y="-3.9340487"
         d="M 88.805907,80.229528 H 78.451143 L 88.805907,56.625249 Z"
         sodipodi:nodetypes="cccc" />
      <path
         id="path3-2"
         style="fill:#f9f9f9;stroke-width:0.403664"
         inkscape:transform-center-x="0.074314286"
         inkscape:transform-center-y="3.9341719"
         d="M 88.750188,74.32858 99.104841,74.28447 88.861614,97.93261 Z"
         sodipodi:nodetypes="cccc" />
    </g>
    <g
       id="g67"
       transform="translate(-1.775669e-6,17.842348)">
      <rect
         x="117.13238"
         y="154.22946"
         style="fill:none;stroke:#000000;stroke-width:4.34467;stroke-miterlimit:10"
         width="13.034005"
         height="13.034005"
         id="rect9" />
      <rect
         x="86.719612"
         y="154.22946"
         style="fill:none;stroke:#000000;stroke-width:4.34467;stroke-miterlimit:10"
         width="13.034005"
         height="13.034005"
         id="rect10" />
      <rect
         x="86.719612"
         y="184.64211"
         style="fill:none;stroke:#000000;stroke-width:4.34467;stroke-miterlimit:10"
         width="13.034005"
         height="13.034005"
         id="rect11" />
      <rect
         x="91.064346"
         y="158.57407"
         width="4.3446684"
         height="4.3446684"
         id="rect12"
         style="stroke-width:2.17233" />
      <rect
         x="121.477"
         y="158.57407"
         width="4.3446684"
         height="4.3446684"
         id="rect13"
         style="stroke-width:2.17233" />
      <rect
         x="91.064346"
         y="188.98671"
         width="4.3446684"
         height="4.3446684"
         id="rect14"
         style="stroke-width:2.17233" />
      <line
         style="fill:none;stroke:#000000;stroke-width:4.34467;stroke-miterlimit:10"
         x1="108.44305"
         y1="152.0571"
         x2="108.44305"
         y2="167.26343"
         id="line26" />
      <line
         style="fill:none;stroke:#000000;stroke-width:4.34467;stroke-miterlimit:10"
         x1="110.6153"
         y1="186.81447"
         x2="110.6153"
         y2="199.84843"
         id="line27" />
      <line
         style="fill:none;stroke:#000000;stroke-width:4.34467;stroke-miterlimit:10"
         x1="119.30463"
         y1="195.50381"
         x2="119.30463"
         y2="199.84843"
         id="line28" />
      <line
         style="fill:none;stroke:#000000;stroke-width:4.34467;stroke-miterlimit:10"
         x1="123.64935"
         y1="191.15909"
         x2="123.64935"
         y2="195.50381"
         id="line29" />
      <line
         style="fill:none;stroke:#000000;stroke-width:4.34467;stroke-miterlimit:10"
         x1="130.16632"
         y1="195.50381"
         x2="130.16632"
         y2="199.84843"
         id="line30" />
      <line
         style="fill:none;stroke:#000000;stroke-width:4.34467;stroke-miterlimit:10"
         x1="108.44305"
         y1="158.57407"
         x2="112.78765"
         y2="158.57407"
         id="line31" />
      <line
         style="fill:none;stroke:#000000;stroke-width:4.34467;stroke-miterlimit:10"
         x1="101.92593"
         y1="171.60815"
         x2="119.30463"
         y2="171.60815"
         id="line32" />
      <line
         style="fill:none;stroke:#000000;stroke-width:4.34467;stroke-miterlimit:10"
         x1="84.547363"
         y1="175.95277"
         x2="88.891975"
         y2="175.95277"
         id="line33" />
      <line
         style="fill:none;stroke:#000000;stroke-width:4.34467;stroke-miterlimit:10"
         x1="88.891975"
         y1="171.60815"
         x2="93.23658"
         y2="171.60815"
         id="line34" />
      <line
         style="fill:none;stroke:#000000;stroke-width:4.34467;stroke-miterlimit:10"
         x1="93.23658"
         y1="175.95277"
         x2="97.581329"
         y2="175.95277"
         id="line35" />
      <line
         style="fill:none;stroke:#000000;stroke-width:4.34467;stroke-miterlimit:10"
         x1="119.30463"
         y1="175.95277"
         x2="123.64935"
         y2="175.95277"
         id="line36" />
      <line
         style="fill:none;stroke:#000000;stroke-width:4.34467;stroke-miterlimit:10"
         x1="123.64935"
         y1="171.60815"
         x2="127.99396"
         y2="171.60815"
         id="line37" />
      <line
         style="fill:none;stroke:#000000;stroke-width:4.34467;stroke-miterlimit:10"
         x1="127.99396"
         y1="175.95277"
         x2="132.3387"
         y2="175.95277"
         id="line38" />
      <line
         style="fill:none;stroke:#000000;stroke-width:4.34467;stroke-miterlimit:10"
         x1="119.30463"
         y1="184.64211"
         x2="123.64935"
         y2="184.64211"
         id="line39" />
      <line
         style="fill:none;stroke:#000000;stroke-width:4.34467;stroke-miterlimit:10"
         x1="123.64935"
         y1="180.2975"
         x2="127.99396"
         y2="180.2975"
         id="line40" />
      <line
         style="fill:none;stroke:#000000;stroke-width:4.34467;stroke-miterlimit:10"
         x1="127.99396"
         y1="184.64211"
         x2="132.3387"
         y2="184.64211"
         id="line41" />
      <line
         style="fill:none;stroke:#000000;stroke-width:4.34467;stroke-miterlimit:10"
         x1="97.581329"
         y1="180.2975"
         x2="114.96001"
         y2="180.2975"
         id="line42" />
      <line
         style="fill:none;stroke:#000000;stroke-width:4.34467;stroke-miterlimit:10"
         x1="110.6153"
         y1="188.98671"
         x2="127.99396"
         y2="188.98671"
         id="line43" />
      <line
         style="fill:none;stroke:#000000;stroke-width:4.34467;stroke-miterlimit:10"
         x1="106.27067"
         y1="175.95277"
         x2="110.6153"
         y2="175.95277"
         id="line44" />
      <line
         style="fill:none;stroke:#000000;stroke-width:4.34467;stroke-miterlimit:10"
         x1="104.09831"
         y1="162.91881"
         x2="108.44305"
         y2="162.91881"
         id="line45" />
    </g>
    <text
       xml:space="preserve"
       style="font-size:23.6354px;line-height:0.7;font-family:trueno;-inkscape-font-specification:trueno;stroke-width:0.738604"
       x="102.53861"
       y="244.19856"
       id="text65"><tspan
         sodipodi:role="line"
         id="tspan65"
         style="stroke-width:0.738604"
         x="102.53861"
         y="244.19856">3</tspan></text>
    <text
       xml:space="preserve"
       style="font-size:23.6354px;line-height:0.7;font-family:trueno;-inkscape-font-specification:trueno;stroke-width:0.738604"
       x="114.69021"
       y="244.24316"
       id="text66"><tspan
         sodipodi:role="line"
         id="tspan66"
         style="stroke-width:0.738604"
         x="114.69021"
         y="244.24316">0</tspan></text>
    <g
       id="g66"
       transform="matrix(0.56836475,0,0,0.56836475,120.27038,308.65869)"
       style="stroke:#000000;stroke-width:1.52719;stroke-dasharray:none">
      <path
         d="m -34.989461,-125.74607 c -0.0334,-0.63459 -0.601192,-1.11888 -1.252484,-1.11888 h -3.540357 v 0 l -0.968588,-2.45487 v 0 h 2.187674 c 0.634592,0 1.219084,-0.46759 1.252484,-1.11888 0.0334,-0.668 -0.500994,-1.21909 -1.152286,-1.21909 h -3.206361 v 0 l -4.00795,-10.10338 c -0.166998,-0.43419 -0.601193,-0.73479 -1.085487,-0.73479 -0.467595,0 -0.901789,0.3006 -1.085487,0.73479 l -3.840953,10.08668 v 0 h -3.139561 c -0.634593,0 -1.219086,0.46759 -1.252485,1.11888 -0.0334,0.668 0.500994,1.21909 1.152286,1.21909 h 2.287872 v 0 l -0.935189,2.43817 v 0 h -3.506956 c -0.634593,0 -1.219086,0.4676 -1.252486,1.11889 -0.0334,0.66798 0.500995,1.21908 1.152286,1.21908 h 2.688667 v 0 l -3.139561,8.1495 c -0.233797,0.60119 0.0668,1.28588 0.667992,1.51968 0.133598,0.0668 0.267197,0.0668 0.400795,0.0668 0.467594,0 0.901789,-0.2672 1.085487,-0.73479 l 3.473557,-8.98449 v 0 h 10.570971 v 0 l 3.607155,9.08469 c 0.166998,0.4676 0.601193,0.73479 1.085487,0.73479 0.133598,0 0.300597,-0.0334 0.434195,-0.0668 0.601193,-0.2338 0.868389,-0.90179 0.634592,-1.51968 l -3.27316,-8.2163 v 0 h 2.655268 c 0.78489,-0.0167 1.335983,-0.55109 1.302583,-1.21909 z m -11.723256,-12.32445 2.521669,6.39603 v 0 h -4.976539 v 0 l 2.45487,-6.39603 c -0.0334,0 0,0 0,0 z m -4.341947,11.20557 0.935189,-2.45487 v 0 h 6.796817 v 0 l 0.968588,2.45487 v 0 z"
         id="path66"
         style="stroke:#000000;stroke-width:1.52719;stroke-dasharray:none" />
    </g>
    <path
       style="fill:none;stroke:#000000;stroke-width:0.965;stroke-linecap:butt;stroke-linejoin:miter;stroke-dasharray:none;stroke-opacity:1"
       d="m 74.891128,223.02683 c 1.989539,-0.20906 65.402162,-0.0448 65.402162,-0.0448"
       id="path67" />
    <path
       style="fill:none;stroke:#000000;stroke-width:0.965;stroke-linecap:butt;stroke-linejoin:miter;stroke-dasharray:none;stroke-opacity:1"
       d="m 75.786933,163.50467 c 1.989539,-0.20906 65.402167,-0.0448 65.402167,-0.0448"
       id="path70" />
  </g>
</svg>
