<?xml version="1.0" encoding="UTF-8" standalone="no"?>
<svg
   width="4385.666"
   height="924.45312"
   viewBox="0 0 4385.666 924.45312"
   version="1.1"
   id="svg31"
   sodipodi:docname="baby-steps.svg"
   inkscape:version="1.3.2 (091e20ef0f, 2023-11-25)"
   xmlns:inkscape="http://www.inkscape.org/namespaces/inkscape"
   xmlns:sodipodi="http://sodipodi.sourceforge.net/DTD/sodipodi-0.dtd"
   xmlns="http://www.w3.org/2000/svg"
   xmlns:svg="http://www.w3.org/2000/svg">
  <sodipodi:namedview
     id="namedview31"
     pagecolor="#ffffff"
     bordercolor="#666666"
     borderopacity="1.0"
     inkscape:showpageshadow="2"
     inkscape:pageopacity="0.0"
     inkscape:pagecheckerboard="0"
     inkscape:deskcolor="#d1d1d1"
     inkscape:zoom="0.23611111"
     inkscape:cx="936"
     inkscape:cy="700.94118"
     inkscape:window-width="1278"
     inkscape:window-height="1059"
     inkscape:window-x="0"
     inkscape:window-y="0"
     inkscape:window-maximized="1"
     inkscape:current-layer="svg31" />
  <defs
     id="defs1" />
  <path
     fill-rule="nonzero"
     fill="#000000"
     fill-opacity="1"
     d="m 3058.5551,265.08503 v -3.2963 h 2.1848 v 3.2963 h -2.1848"
     id="path7"
     style="stroke-width:1.08314" />
  <path
     fill-rule="nonzero"
     fill="#000000"
     fill-opacity="1"
     d="m 3017.4758,297.13293 c -3.3131,-0.7855 -7.0244,-2.3144 -11.6648,-5.232 -6.0238,-3.7873 -9.5922,-7.308 -10.8734,-8.9246 -2.0727,-3.5032 -3.645,-4.8568 -5.4112,-13.0696 -0.873,-5.8281 -0.8424,-23.2916 0,-28.2325 1.7254,-6.5822 3.3947,-6.9784 5.304,-10.8779 1.2966,-2.0269 2.629,-4.3027 6.8456,-7.9252 2.4658,-2.1145 6.2995,-4.7691 9.0612,-6.3927 3.8595,-2.2619 5.5798,-2.844 7.7953,-3.4401 1.5519,-0.4173 4.3188,-1.0029 7.5247,-1.1502 2.5218,-0.1157 3.8389,-0.032 5.5949,0.3857 2.7771,0.6593 5.5134,2.2128 8.8315,4.1239 6.7436,3.7452 17.8214,13.308 19.4191,15.5488 2.1339,2.8194 3.1549,3.9801 4.5384,9.917 1.1025,5.2706 2.4809,15.5278 3.1139,20.9772 0.5412,4.699 0.2247,8.5424 -0.5206,10.5693 -2.6035,5.3267 -4.8038,7.6762 -9.8884,14.4021 -2.4094,2.4862 -7.2745,5.8562 -11.2358,8.0058 -3.0323,1.6446 -5.3806,2.6791 -9.2042,2.9702 -6.9937,0.3191 -15.5956,-0.8241 -19.2353,-1.6552 m 24.4678,-5.2355 c 2.6903,-1.1081 4.9569,-2.7318 6.6313,-4.2431 4.9263,-5.3899 6.8968,-8.2549 11.4708,-15.1175 0.9699,-7.6938 -1.8071,-16.2326 -1.46,-25.9217 -0.6024,-4.5587 -1.6438,-6.9222 -2.4555,-8.3845 -1.5008,-2.6862 -1.9092,-3.8609 -5.8503,-7.3221 -2.3839,-2.09 -9.444,-7.7814 -15.6618,-10.983 -3.4663,-1.7849 -5.4419,-2.3635 -8.2087,-2.5213 -2.3636,-0.1333 -4.5229,0.3892 -6.5343,1.1291 -2.0931,0.775 -4.2728,1.9603 -6.57,3.4015 -3.5684,2.2338 -6.4169,4.5447 -7.8157,5.8738 -3.1038,2.9526 -4.0124,4.9269 -5.7635,7.5535 -1.3987,2.104 -2.9148,3.6434 -3.8593,8.7387 -0.6738,3.6365 -1.072,13.5114 -0.5104,19.7884 0.9903,8.9176 2.4758,10.3869 3.7214,13.1046 1.8838,2.588 1.4294,3.4892 9.2859,9.3034 4.6455,3.2893 8.7039,5.3512 11.4657,6.0561 2.4247,0.6908 9.4032,1.4658 15.8302,1.0134 2.8793,-0.2525 4.8242,-0.8697 6.2842,-1.4693"
     id="path8"
     style="stroke-width:1.08314" />
  <path
     fill-rule="nonzero"
     fill="#000000"
     fill-opacity="1"
     d="m 3078.112,306.95523 c 2.8791,1.2344 6.0034,3.8504 7.7289,5.5792 6.4985,7.578 8.908,20.076 15.3709,25.7674 0.7809,0.6417 1.0414,-0.1859 0.8678,-2.5108 -0.7351,-3.6821 -1.4651,-7.3641 -2.1951,-11.0462 0.04,-0.9433 0.3879,-1.2133 1.5519,-1.073 0.9341,0.1122 2.2512,0.6803 3.0987,1.3325 1.608,1.2414 2.338,2.9421 2.9965,5.5582 0.3931,1.5569 0.7351,3.5558 0.8424,6.5645 0.2807,7.7569 -1.1538,19.1327 -2.1033,23.2952 -1.8939,6.7539 -3.2263,9.1034 -5.5388,12.3997 -1.0313,1.1888 -2.7465,2.6511 -5.0386,4.1204 -3.0425,1.9498 -5.697,3.0789 -7.642,3.7557 -2.9608,0.9433 -6.5241,2.0655 -15.131,2.3951 -5.7482,0.1543 -10.2456,-0.3016 -12.8235,-1.315 -2.4556,-0.9644 -6.5701,-3.9521 -10.7306,-7.5254 -4.0993,-3.5103 -5.3959,-5.4109 -6.3046,-7.2589 -1.0363,-2.7423 -2.3483,-3.8644 -3.1191,-12.2174 -0.3931,-4.7937 -0.3727,-12.5927 0.035,-17.0427 0.4391,-4.8323 1.1435,-6.2665 1.797,-7.5815 3.7572,-5.9579 9.2093,-14.7493 14.5184,-22.0222 1.1333,-0.8311 3.0068,-1.827 6.0493,-2.3285 l 4.962,-0.3962 c 5.2682,-0.1368 8.7498,0.6697 10.8071,1.5499 m 6.5598,69.156 c 2.8128,-1.0625 6.9887,-3.6049 9.4339,-5.8913 3.2621,-3.177 3.6654,-5.6738 5.0232,-9.2261 0.5615,-2.2934 0.6075,-7.2379 0.2961,-10.5097 -4.5025,-10.9409 -13.6965,-22.173 -18.4492,-33.4856 -0.8371,-1.0065 -3.5122,-4.0433 -7.3409,-5.9334 -1.8633,-0.9188 -3.5682,-1.3852 -5.6969,-1.315 -2.1901,0.074 -3.9259,0.6768 -5.7125,1.6481 -1.6999,0.9223 -2.6444,1.9393 -3.405,2.8054 -5.5185,6.249 -8.0198,10.5026 -11.3635,16.9655 -0.9189,1.7744 -1.8837,2.9071 -2.4402,8.3039 -0.3982,3.8469 -0.4033,10.5027 0,14.8089 0.5667,6.0386 1.5519,8.0339 2.4351,10.0012 1.4191,3.1665 2.3431,5.218 4.8649,7.1432 1.9552,1.4903 7.8821,4.706 10.5213,5.6808 1.9348,0.7119 4.4055,1.0345 9.3777,0.8522 6.4015,-0.235 9.9188,-0.8907 12.456,-1.8481"
     id="path9"
     style="stroke-width:1.08314" />
  <path
     fill-rule="nonzero"
     fill="#000000"
     fill-opacity="1"
     d="m 3115.4646,405.06273 c 4.2167,3.0789 4.6302,4.1379 5.8503,6.3787 0.5819,1.3747 1.3222,4.1239 1.4753,7.9813 0.1583,3.9416 -0.2654,7.6482 -1.0363,9.7592 -1.9041,2.4933 -3.8082,4.9831 -5.7175,7.4763 -1.1588,2.6511 -2.3176,5.3057 -3.4764,7.9603 -2.1544,3.2507 -4.2218,6.5505 -7.785,9.5277 -1.4396,1.2029 -4.0891,3.1877 -7.055,4.2432 l -4.9262,1.1432 -5.3603,-0.3507 c -3.3284,-0.6873 -6.3402,-2.5845 -7.9636,-3.8328 -3.3131,-2.5424 -3.6194,-4.131 -4.3546,-5.8773 -0.7605,-1.806 -1.6896,-5.6528 -1.4651,-10.7165 0.2145,-4.9059 1.2865,-8.5424 2.1084,-10.8603 1.4345,-4.0538 3.1549,-7.5535 4.6251,-9.8048 1.7918,-2.4653 3.3896,-5.7511 7.7748,-9.0263 4.0992,-3.0509 9.0867,-5.6564 12.507,-6.491 1.9859,-0.4874 5.207,-0.7224 8.6886,0.021 2.6749,0.5716 4.0942,1.2063 6.1105,2.4688 m -15.5903,3.8538 c -3.4408,1.3116 -6.3302,3.7698 -8.0709,5.2321 -5.5083,5.7264 -6.0391,6.8977 -10.9551,15.7101 -0.9598,2.3495 -1.945,5.7755 -2.1544,9.675 -0.1633,2.9667 0.2451,5.5161 0.8066,7.2589 0.8781,2.7037 1.9195,3.9451 3.4969,5.4705 1.5315,1.4763 4.1401,3.0929 6.2535,3.4296 2.2105,0.5049 5.2989,-1.2695 8.1271,-2.9281 3.701,-2.3601 6.4475,-5.1198 8.1423,-8.2093 1.2303,-2.2443 3.0425,-5.2355 4.1298,-7.9848 0.7862,-1.9883 1.5519,-4.7621 1.5366,-7.4833 -0.016,-2.097 -0.2961,-3.0368 -1.2506,-3.896 -1.0516,-0.3261 -2.0982,-0.6522 -3.1498,-0.9818 -0.021,-0.491 2.1134,-1.3466 4.8803,-1.3501 3.4152,-0.3332 4.4565,2.2548 4.9415,1.7919 0.674,-1.1151 -0.8168,-9.0894 -1.6794,-10.8217 -0.3471,-0.6944 -1.2916,-2.1917 -2.2463,-3.0088 -1.174,-1.0029 -3.1088,-2.2653 -5.4417,-2.6932 -2.7414,-0.5014 -4.9109,-0.1437 -7.3664,0.789"
     id="path10"
     style="stroke-width:1.08314" />
  <path
     fill-rule="nonzero"
     fill="#000000"
     fill-opacity="1"
     d="m 2983.6608,289.36553 c 4.0023,2.9948 12.405,9.64 17.2086,14.4687 1.016,1.024 1.5009,1.9954 0.3165,2.4092 -1.7662,0.6522 -5.5643,-0.6383 -8.2801,-2.1111 -8.9846,-4.3764 -8.5814,-7.1712 -15.3658,-11.5336 -2.3585,-1.4342 -5.4521,-2.9421 -8.0249,-3.8188 -1.894,-0.6487 -3.405,-1.0134 -5.738,-1.3185 -4.7629,-0.6277 -8.6783,-0.1999 -10.46,0.3436 -5.401,2.2443 -13.7424,4.8428 -19.8479,8.6932 -3.114,3.4646 -11.8332,12.0806 -28.5262,25.5394 -3.2723,3.9977 -4.2013,6.3542 -6.4629,12.2209 -1.021,3.1456 -1.8378,8.2408 -1.1333,12.8066 1.6796,5.779 3.3642,11.5581 5.0437,17.3337 0.4748,2.7493 0.8066,5.758 0.9597,9.9556 0.2399,6.7434 -0.091,10.9795 -0.9138,13.9251 -0.3471,1.2379 -1.4293,3.0228 -2.3789,3.9942 -2.6341,2.7002 -11.1798,8.2162 -14.8195,10.1204 -6.2383,3.2577 -12.9563,5.8036 -21.6245,8.2303 -9.9801,2.9596 -48.0372,5.1759 -66.3587,7.8199 -6.9274,1.308 -10.4703,2.3075 -16.6268,4.8218 -2.6086,1.0695 -6.5854,3.2227 -10.6539,6.1683 -11.7772,9.2823 -17.0914,15.4436 -20.287,19.3992 -5.1815,6.2524 -9.7504,15.0017 -14.503,22.4254 -4.176,5.2496 -8.3467,10.5027 -12.5225,15.7522 -2.583,4.8147 -5.1865,9.2648 -7.8053,18.5681 -1.215,4.4605 -3.1447,11.0286 -3.5275,15.8679 -0.2605,6.1929 2.2972,18.6628 3.5224,21.8714 2.1951,6.7154 4.5382,13.0766 7.1877,17.3688 1.7918,2.7668 4.7272,5.7966 12.7571,12.4769 3.3846,2.602 8.7448,5.8843 11.3279,7.1397 4.5025,2.1881 5.7889,2.7036 10.6079,3.4576 6.2996,0.9854 16.979,1.9743 25.4992,2.6966 12.2211,1.038 40.9669,2.7072 51.1103,2.4337 11.4198,-0.3086 30.2468,-2.0549 35.9285,-2.8825 10.8174,-1.9252 15.9222,-3.7171 24.2943,-5.8106 8.9387,-2.304 16.3765,-4.3624 25.8564,-8.4337 8.8162,-3.7873 7.2745,-2.879 20.3738,-10.976 14.4111,-8.9141 31.1348,-20.076 38.3582,-25.2449 8.0251,-5.7405 12.2877,-10.0117 14.1254,-12.0351 2.777,-3.0508 6.7589,-7.0379 9.5973,-12.1823 2.8127,-5.0918 4.7526,-9.4436 7.157,-15.5488 1.991,-2.9246 3.9819,-5.8492 5.9727,-8.7703 1.2099,-4.2361 2.4198,-8.4757 3.6297,-12.7118 1.3681,-3.7382 2.9455,-5.9019 3.8593,-5.993 0.7045,-0.07 1.1282,0.4839 1.1486,1.5324 -0.9138,2.0795 -1.8326,4.159 -2.7464,6.2385 -0.2297,3.689 0.2603,7.045 -0.8984,10.2641 -5.2531,10.5728 -9.092,21.3524 -15.8866,31.2659 -5.4878,6.0702 -5.4419,7.806 -16.3561,17.211 -8.1015,6.5821 -22.3136,16.3343 -37.6233,26.4547 -11.0216,6.789 -22.191,12.4348 -27.8065,14.9526 -8.6019,3.8118 -13.8904,5.0567 -22.3952,7.3887 -9.3217,2.2899 -15.7743,4.5061 -27.7811,6.7469 -6.2127,0.9188 -23.0027,2.595 -37.1433,2.9036 -13.6098,0.2945 -36.051,-1.0696 -49.7474,-1.9988 -15.5344,-1.4308 -31.6811,-2.5003 -36.5615,-4.2221 -4.8343,-1.5675 -11.3227,-6.0877 -17.6528,-10.685 -6.7487,-5.5476 -11.0726,-10.3834 -13.3289,-13.4167 -2.9966,-4.4606 -6.2127,-12.1017 -8.5304,-20.6721 -0.8372,-3.107 -2.583,-13.2203 -2.9251,-18.5365 -0.2654,-8.0935 2.3432,-14.5599 3.5735,-20.4793 1.7305,-6.4839 3.3386,-9.7346 5.2478,-13.8866 5.5235,-12.27 18.0919,-21.7522 24.9325,-37.1081 7.3153,-8.5879 9.444,-12.3682 18.0408,-20.5493 4.9211,-4.2011 17.765,-12.4875 21.0526,-13.7289 6.5241,-2.4617 9.393,-3.2612 17.2036,-4.3658 21.4151,-2.1777 49.3645,-4.4781 61.0804,-6.6803 7.9177,-2.0059 13.0277,-4.5202 18.8525,-6.5927 3.4661,-1.4097 8.5557,-3.2998 12.9869,-6.6031 2.343,-1.7463 4.5127,-3.7873 5.4417,-5.1198 0.97,-1.3957 1.4855,-2.6406 1.9859,-6.4489 0.3879,-2.9141 0.4288,-8.7282 -0.021,-12.2665 -1.7101,-5.9474 -3.4152,-11.8913 -5.1252,-17.8386 -0.5718,-2.8826 -0.9905,-6.9995 -0.8271,-11.1163 0.2144,-5.453 1.2712,-8.7493 2.093,-10.9726 1.5008,-4.0362 2.5678,-6.4278 4.9824,-9.419 18.5564,-15.8574 26.0555,-23.8948 32.7226,-29.4109 6.7435,-2.1005 13.4157,-6.4804 19.7917,-7.6411 2.5678,-0.3928 7.0397,-0.6908 11.6444,-0.5716 6.1718,0.1613 9.5206,0.9223 12.3641,1.8691 3.7776,1.2519 6.6976,2.5599 9.3777,4.5657"
     id="path11"
     style="stroke-width:1.08314" />
  <path
     fill-rule="nonzero"
     fill="#000000"
     fill-opacity="1"
     d="m 3107.9298,499.28823 -0.086,-0.8346 0.725,-0.5365 0.8116,0.074 0.086,0.8346 -0.7249,0.5365 -0.8117,-0.074"
     id="path15"
     style="stroke-width:1.08314" />
  <g
     id="g2"
     transform="matrix(1.306859,0,0,0.89772002,929.04498,-44.005866)">
    <path
       fill-rule="nonzero"
       fill="#000000"
       fill-opacity="1"
       d="m 1373.4023,398.08644 c -3.371,0.10938 -5.4101,-0.0391 -7.1679,-0.54687 -2.7461,-0.78906 -5.6367,-3.57031 -9.0977,-6.56641 -5.9414,-4.95703 -7.625,-8.84375 -10.1562,-12.63672 -2.1055,-4.67578 -3.7539,-9.51953 -5.6524,-18.08984 -0.5234,-2.94922 -1.2929,-11.12496 -1.1133,-20.16796 0.2579,-11.1914 1.3204,-12.8945 2.1368,-15.3906 1.0429,-2.9414 2.8945,-6.9414 4.457,-9.9493 1.3711,-2.6445 3.5781,-5.6757 5.8047,-8.6289 1.8594,-2.4648 4.1094,-4.9765 6.1953,-6.6015 1.5664,-1.2149 2.8086,-2.0274 5.1367,-2.5352 3.8477,-0.8359 14.293,-0.7344 18.0117,-0.047 5.1055,1.4141 5.8672,2.3985 9.5157,4.2617 1.6601,1.1094 4.6445,3.7774 7.1328,6.7305 5.7695,6.8398 8.9414,11.7813 10.8945,16.0391 0.6484,1.4101 1.1914,3.1093 1.3242,5.0625 0.1367,1.9843 -0.1445,3.7148 -0.7656,5.332 -0.8906,2.2734 -3.8633,7.332 -4.6797,6.5234 0.2227,-3.5625 0.4453,-7.1289 0.668,-10.6914 -1.1289,-4.1601 -4.375,-8.0859 -6.1485,-11.3437 -1.4453,-2.2071 -6.7539,-8.7891 -11.082,-12.4063 -3.5078,-2.9336 -4.7617,-3.1836 -7.707,-4.1445 -1.6992,-0.5547 -5.2969,-1.3438 -9.8906,-1.1445 -2.1954,0.094 -4.129,0.3828 -5.7579,1.039 -1.5586,0.6211 -2.9609,1.7266 -4.0586,2.7227 -2.289,2.0781 -4.5,4.9609 -6.496,7.625 -3.5274,4.7148 -4.0313,6.25 -5.2657,8.7344 -1.1328,2.2773 -2.457,4.7148 -3.4648,9.039 -0.4297,1.8399 -0.9844,5.293 -1.1055,10.3516 -0.125,5.1953 0.1992,10.46874 0.625,13.85155 1.961,10.68359 3.2266,13.87891 5.832,20.12891 1.418,2.71875 3.6485,6.10156 5.7891,8.54296 3.1719,3.61719 4.5469,5.01563 8.1406,7.4961 1.8907,1.30469 3.0508,2.35156 5.6289,2.51562 2.875,0.17969 6.6719,-0.70703 8.3594,-1.27343 3.4297,-1.14844 5.4883,-1.96875 9.7031,-4.51172 5.9766,-3.61328 8.3086,-6.08594 10.5743,-8.14453 1.9414,-1.75782 5.6367,-7.02344 6.9336,-9.17579 2.8476,-4.73828 7,-12.49218 8.6835,-17.76171 0.8321,-2.59766 1.75,-6.78906 1.5508,-9.33596 0.2657,-4.207 -4.75,-9.4297 -3.3086,-11.9687 0.5938,-0.5039 1.9258,-0.7422 3.4961,0.1132 l 2.0469,1.6993 c 1.2227,1.4179 1.7305,3.0429 2.0938,4.7109 0.5156,2.3594 0.707,5.2148 0.5742,8.2852 -0.1328,3.0273 -0.6797,5.99606 -1.3125,8.20309 -3.7266,9.90625 -6.2852,14.21875 -10.4336,21.37109 -1.5508,2.32422 -4.8516,6.90625 -6.6758,8.51172 -2.8477,2.51172 -5.4922,4.63672 -10.6992,7.84375 -3.1172,1.92187 -4.3086,2.8125 -8.8789,4.57812 -1.9063,0.73829 -5.7617,1.60157 -10.3907,1.75"
       id="path1" />
    <path
       fill-rule="nonzero"
       fill="#000000"
       fill-opacity="1"
       d="m 1368.8984,263.00054 c -5.789,0.2304 -9.289,-0.625 -11.2617,-1.8633 -4.832,-2.6992 -6.8476,-4.0586 -10.75,-8.1875 -3.4179,-3.6211 -8.1836,-9.5547 -10.0273,-12.1406 -1.7617,-2.4688 -2.7656,-4.3165 -3.5196,-6.3555 -0.996,-2.5625 -2.3945,-7.6055 -2.1328,-16.3477 0.6016,-9.7617 2.4375,-18.2578 3.6289,-23.6797 1.3711,-4.5781 2.4649,-6.9453 5.1875,-10.3828 1.6875,-1.8828 4.586,-3.914 7.168,-5.0156 3.0586,-1.1601 6.8242,-2.3906 16.4219,-2.7539 8.2226,-0.2227 13.7344,0.8125 15.375,1.6133 2.3633,1.0898 4.0351,1.5937 8.8906,6.0898 5.8789,5.668 7.875,9.5508 9.2969,11.8946 0.5586,1.2656 1.0625,3.4023 0.8125,7.7148 -0.1524,2.6172 -0.5391,5.0781 -1.0742,5.7969 l -0.8282,-0.1485 c -0.9531,-3.0351 -1.9062,-6.0703 -2.8593,-9.1054 -1.5821,-2.5196 -4.6016,-8.4258 -8.6953,-12.2461 -4.4883,-3.8516 -5.8633,-4.3711 -9.3204,-5.6289 -2.082,-0.5977 -6.2421,-1.2617 -11.1015,-1.0977 -3.4688,0.1172 -6.7578,0.6367 -8.9297,1.1016 -3.7852,0.8047 -5.2266,1.4531 -7.0977,2.6523 -1.539,0.9883 -3.8945,3.0586 -5.3203,4.9922 -1.6836,2.2813 -2.2656,4.4141 -3.1054,7.5899 -1.2383,4.7109 -3.2891,13.9804 -3.5821,20.7148 -0.1211,2.7851 0.1758,5.3633 0.6211,7.5976 0.7188,3.6094 1.5703,5.8633 2.4805,8.3829 0.7383,2.0468 1.6601,4.2539 3.9531,7.4648 1.6172,2.2695 3.9922,5.1484 6.0039,7.2734 2.1445,2.2657 3.7344,3.5352 5.1367,4.4961 2.1914,1.5 4.3243,2.6446 6.6172,3.4375 1.375,0.4805 3.3789,1.0039 6.2031,1.1289 2.8672,0.1289 5.6446,-0.1796 7.3008,-0.6953 2.4297,-0.75 4.9492,-2.625 8.8594,-6.7226 2.9648,-3.1055 5.6289,-6.5703 7.1875,-8.7696 2.3438,-3.3046 2.918,-4.582 3.9141,-7.3828 0.789,-2.2226 1.7968,-5.7656 2.3437,-9.4883 -0.027,-3.1679 -0.059,-6.3359 -0.086,-9.5039 0.6562,-0.4609 2.4687,-0.1054 3.2929,1.2149 1.1329,1.7851 1.086,6.0937 0.6524,10.0039 -0.6524,6.168 -1.8125,11.8867 -3.2461,14.7617 -1.6875,3.375 -5.0625,8.0156 -8.6602,12.0547 -3.2461,3.2812 -4.2929,4.9727 -9.25,7.9336 -1.4961,0.6719 -5.0781,1.5 -10.5,1.6055"
       id="path2" />
    <path
       fill-rule="nonzero"
       fill="#000000"
       fill-opacity="1"
       d="m 1345.8984,96.328641 c 1.9141,0.7812 3.1172,1.6797 4.4571,3.1016 1.7461,1.855399 3.6445,4.613199 4.6054,6.203099 1.4414,2.3789 2.211,3.7656 3.2071,7.5429 0.4922,1.8829 0.9648,4.0469 0.8281,5.5664 0.2656,-2.9687 -2.3359,24.5157 -3.3281,29.961 -1.168,6.418 -2.7657,10 -4.5977,13.6015 -0.8008,1.7188 -3,4.8672 -6.4023,8.1329 -1.5,1.1914 -3.0664,2 -5.6836,2.3632 -4.0235,0.5586 -9.125,-0.07 -11.6367,-0.5429 -1.6016,-0.3008 -2.7461,-0.7383 -3.6641,-1.2539 -1.4609,-0.8282 -3.3164,-2.4297 -5.0273,-4.2852 -3.4258,-3.8711 -3.6719,-5.3047 -4.8282,-9.1328 -0.6054,-2.4961 -1.4531,-7.582 -1.6172,-15.2539 -0.2148,-9.9258 0.8555,-18.8438 1.6055,-23.2852 1.1602,-6.8359 2.0703,-9.5937 3.7656,-12.7929 1.0313,-1.9453 3.418,-5.2735 6.7461,-8.093799 2.3828,-2.0195 4.2657,-3.1172 6.2266,-3.582 2.5351,-0.6055 6.8398,-0.3516 10.6445,0.4062 1.7383,0.3477 3.5313,0.8711 4.6992,1.3438 m -6.0273,71.066399 c 1.5,-0.7656 3.1719,-2.2422 4.0703,-3.6524 2.9336,-4.5859 4.7461,-9.375 6.3828,-15.4687 0.5078,-1.9023 1.0391,-3.9687 1.3711,-8.6953 0.3125,-4.4024 0.3399,-11.3711 0.066,-15.3203 -0.1953,-2.8516 -0.4922,-4.3789 -0.8398,-5.4063 -0.6758,-2.6133 -3.0039,-1.1562 -2.668,-2.7851 0.2774,-3.5508 4.2031,-2.2813 3.8555,-4.043 -0.1797,-1.4141 -0.9453,-2.9219 -3.5196,-5.957 -1.0585,-1.2539 -2.746,-3.0703 -4.414,-4.2188 -3.3164,-2.320299 -6.7695,-2.304699 -9.4219,-2.433599 -2.6367,0.09 -4.2695,0.2071 -6.7851,2.070299 -3.3516,2.7422 -5.4961,6.7422 -6.2579,8.5938 -1.2929,2.9219 -2.4101,6.3437 -3.5351,14.5 -0.6406,4.6406 -1.4258,11.8398 -1.207,16.9375 0.1992,4.6719 1.0312,10.1289 1.7734,13.375 0.543,2.3828 1.3008,4.039 2.8476,6.039 2.0899,2.6915 5.1446,5.1954 7.9102,6.2305 2.1523,0.8086 5.0469,1.1758 7.2656,1.0469 1.3985,-0.082 2.3282,-0.418 3.1055,-0.8125"
       id="path3" />
    <path
       fill-rule="nonzero"
       fill="#000000"
       fill-opacity="1"
       d="m 1292.1602,105.45754 c -1.7149,-1.9297 -2.4102,-3.9648 -3.336,-7.124999 -0.625,-2.1406 -1.4414,-5.5703 -1.6094,-11.5508 -0.1757,-6.1445 0.5352,-11.5156 1.1172,-14.0547 1.2813,-5.6015 2.8868,-8.8047 4.5899,-11.9062 0.6445,-1.168 1.9726,-3.8828 5.6914,-7.3125 2.1758,-2.0039 3.4765,-2.9336 6.1992,-3.7774 3.4141,-1.0586 7.2617,-0.7343 8.9258,-0.3125 2.1133,0.5352 4.0469,2.1602 6.3086,4.6993 1.0898,1.2187 2.0859,2.5703 2.5351,4.0664 0.1758,2.2773 0.3516,4.5546 0.5274,6.832 0.5234,1.4844 1.875,2.7187 2.4922,7.4609 0.7031,7.2657 -0.3164,17.0157 -0.9102,19.211 -0.7305,3.5898 -1.5312,4.7929 -3.043,7.1601 -1.5546,2.429699 -3.7304,5.421899 -6.3906,7.449199 -2.25,1.711 -4.0625,2.7969 -7.7617,3.4024 -2.7852,0.457 -6.5586,0.4336 -8.1875,0.094 -2.5586,-0.5391 -5.168,-2.1055 -7.1484,-4.336 m 16.4804,-0.5703 c 1.2578,-0.5664 2.6875,-1.5039 4.4805,-3.1679 3.2266,-2.999999 5.3359,-6.152399 6.1719,-7.820299 0.7812,-1.5625 1.4336,-2.9688 2.0234,-7.0704 0.4688,-3.25 0.9492,-8.9101 0.6953,-12.8554 -0.414,-5.875 -1.8476,-5.3242 -2.9531,-6.9492 -0.082,-1.4063 -0.1641,-2.8125 -0.2461,-4.2188 -0.6484,-1.9961 -2.0625,-4.5195 -3.3867,-6.0391 -1.5195,-1.4804 -2.4649,-2.4336 -5.2305,-2.8086 -1.7578,-0.1367 -4.0195,0.1446 -6.0898,1.5196 -1.3555,0.8984 -2.6328,2.3281 -3.5899,3.5 -2.9726,3.6367 -3.3476,5.1133 -4.3672,7.4765 -1.2461,2.8946 -2.4453,5.0313 -3.4687,11.0313 -1.2149,8.0391 -0.8008,15.5156 -0.4766,17.7812 0.4766,2.0743 1.2032,4.4141 2.875,6.589899 2.2891,2.5234 4.2539,4.1133 6.7071,4.3476 2.3476,0.1914 5.2929,-0.6172 6.8554,-1.3164"
       id="path4" />
    <path
       fill-rule="nonzero"
       fill="#000000"
       fill-opacity="1"
       d="m 1321.4336,353.29738 c -1.375,2.69922 -2.9102,5.84375 -7.207,11.10547 -2.1133,2.58594 -5.1368,5.64063 -7.3594,7.53125 -3.7695,3.20703 -6.1524,4.26563 -8.5703,5.24609 -2.8086,1.13672 -12.7383,2.96485 -21.0039,4.07422 -4.3477,0.58203 -11.6719,1.5586 -20.211,1.78516 -24.2422,-0.81641 -30.539,-2.22656 -39.5507,-2.55859 -3.8438,-0.9336 -6.0352,-2.17188 -9.1368,-5.01172 -1.8672,-1.75 -3.4257,-3.6211 -4.2773,-5.00782 -0.8594,-1.39062 -1.3086,-2.51562 -1.7813,-4.79687 -0.5546,-2.67969 -1.2968,-10 -1.125,-17.41793 0.3907,-14.3047 2.9805,-10.9688 2.7696,-25.9805 -0.059,-2.5078 -0.3047,-5.625 -0.7852,-6.6094 l -1.2265,-0.8906 c -1.1641,-0.043 -2.4922,1.0859 -4.5157,3.0664 -4.5429,5.2031 -6.6953,7.7851 -8.9531,9.4726 -4.1484,3.1055 -8.5977,4.6641 -11.7383,5.9454 -2.1797,0.8867 -3.7773,1.7343 -7.9648,2.5039 -11.0078,1.3398 -22.0156,2.6797 -33.0196,4.0195 -5.832,1.75 -9.414,2.293 -14.207,5.1133 -7.1797,6.0078 -14.3633,12.0117 -21.5469,18.01952 -3.0546,2.29297 -4.8164,3.23437 -7.1836,4.27734 -2.1718,0.95313 -4.2148,1.88672 -10.3828,2.45313 -4.7617,0.4414 -11.3281,0.51953 -14.5039,-0.60938 -3.8242,-1.50781 -11.7539,-10.82031 -15.4804,-15.13672 -6.3946,-9.59769 -8.4922,-13.98829 -12.625,-22.07809 -0.8985,-2.3399 -1.7149,-4.3711 -2.5118,-8.3868 -1.1718,-8.9218 -2.3437,-17.8476 -3.5156,-26.7695 -1.3281,-6.0976 -2.6601,-12.1953 -3.9883,-18.2891 -0.4648,-2.8554 -1.0312,-7.1875 -0.5898,-10.7656 0.2656,-2.1523 0.9414,-3.5429 1.6914,-4.0039 0.707,-0.4336 1.5,0.2852 1.7812,1.1914 0.1954,3.3946 0.3946,6.7891 0.5899,10.1836 1.457,6.625 2.9101,13.2539 4.3672,19.8789 0.9961,7.9531 1.9961,15.9024 2.9961,23.8555 1.0586,6.5664 2.1992,8.9414 3.4882,12.0156 3.9219,7.1719 5.3438,11.0977 11.2149,19.8555 2.0625,2.60155 7.0117,7.88671 10.2656,10.6328 2.4805,2.09375 3.7305,2.6836 5.461,3.16016 2.7148,0.74609 7.6796,0.78516 12.3281,0.008 5.2148,-0.875 6.3242,-1.8789 8.3906,-2.9375 5.8789,-1.54687 23.8281,-21.44536 30.5352,-23.66016 4.3672,-1.4492 6.9843,-2.3203 13.164,-3.3672 10.7852,-1.332 21.5664,-2.6601 32.3516,-3.9922 5.543,-1.2265 6.8008,-2.4023 10.8086,-4.0351 1.9414,-0.793 4.3555,-1.9258 6.8203,-4.1094 2.9141,-3.0664 5.8281,-6.1328 8.7422,-9.1992 2.5273,-2.1328 4.0976,-3.0625 6.3984,-3.5391 l 2.543,-0.016 c 1.1133,0.2149 2.7422,1.3711 3.2266,2.2149 0.7656,1.3281 1.2929,3.4726 1.4882,7.2422 0.1953,3.8593 -0.02,9.1132 -0.2656,12.496 -0.8867,6.254 -1.7773,12.5079 -2.668,18.7618 -0.2539,8.16403 1.0938,12.6445 1.7071,15.31247 0.5156,1.67187 1.4414,3.48047 4.1992,6.19922 2.1484,2.11718 4.1133,3.15625 6.1406,3.73437 3.3789,0.96094 20.0352,2.30078 33.2383,2.63672 4.8008,0.125 6.2734,-0.0117 10.4805,-0.33203 14.9375,-1.12891 22.0273,-2.32031 29.4336,-3.87109 6.1523,-1.46094 7.4179,-2.28516 11.0039,-4.35547 3.3203,-2.14063 8.125,-6.99219 10.3906,-10.39063 4.625,-7.17578 6.0351,-10.49996 8.7891,-17.72656 0.8242,-2.3711 1.8242,-5.3438 2.3554,-10.5117 1.3242,-6.1758 -1.8672,-21.5156 0.4024,-23.2617 0.4492,-0.375 1.3632,-0.019 1.9765,0.8945 0.2305,0.3398 1.4961,3.2969 1.7969,4.5508 0.3633,1.5078 0.9766,6.0195 1.0664,8.3203 0.1914,9.7422 -1.0156,17.1211 -1.7734,19.4961 -1.3828,5.3554 -2.6563,8.2812 -4.7344,12.36326"
       id="path5" />
    <path
       fill-rule="nonzero"
       fill="#000000"
       fill-opacity="1"
       d="m 1321.7031,325.52394 c -1.3047,1.0234 -2.5742,0.9375 -2.9687,0.3359 0.012,-2.4531 0.023,-4.9062 0.035,-7.3593 -1.1093,-3.8711 -2.2148,-7.7422 -3.3242,-11.6133 -0.25,-9.1797 -0.5,-18.3633 -0.75,-27.543 -1.7226,-7.3633 -3.9453,-32.0312 -5.8672,-52.8437 -0.6367,-3.8204 -1.2695,-4.7969 -1.9961,-6.2461 -3.0859,-4.9297 -6.1718,-9.8555 -9.2578,-14.7813 -1.1562,-2.0039 -1.9219,-3.8476 -2.7383,-6.6367 -1.5,-10.1484 -3.0039,-20.3008 -4.5039,-30.4531 -1.0117,-5.7032 -2.0625,-9.711 -2.9922,-12.2266 -2.2343,-6.043 -5.2109,-11.1914 -8.0898,-16.9101 -4.5547,-7.5547 -5.082,-9.7579 -11.8594,-18.8946 -2.5273,-3.2734 -5.4804,-6.2539 -9.2617,-9.2461 -4.6172,-3.4687 -6.5469,-5.1328 -10.3437,-6.25 -2.1368,-0.5781 -4.836,-0.9414 -7.7735,-0.7851 -3.2929,0.1758 -8.4609,0.8437 -10.8633,1.7851 -2.9336,1.2149 -8.4726,11.3828 -15.2382,15.6485 -5.043,3.0625 -6.2032,3.8007 -13.5625,5.7343 -4.0743,0.6875 -13.9336,0.7696 -21.4727,0 -9.6992,-1.6953 -19.3984,-3.3906 -29.0977,-5.0859 -2.7851,-0.1211 -5.6054,0.1836 -7.7265,0.6211 -3.3945,0.7031 -5.6445,1.5898 -8.6836,3.4766 -5.5195,4.1289 -11.043,8.2539 -16.5664,12.3828 -7.6641,5.1601 -13.1563,6.2109 -23.2891,14.2968 -3.1054,2.4922 -8.789,7.5196 -13.2812,12.1719 -5.5664,5.7656 -8.2617,9.4453 -10.0782,12.375 -3.3593,5.4063 -4.1953,8.5742 -5.4961,12.2461 -1.5937,4.5117 -3.7226,16.0625 -5.082,18.5899 -5.2344,6.582 -10.4687,13.164 -15.707,19.7421 -2.6602,3.6875 -3.5352,5.6329 -4.7109,9.0235 -2.3594,9.2344 -4.7188,18.4687 -7.0782,27.7031 1.0117,4.2695 2.0274,8.5352 3.0391,12.8047 -0.5313,0.332 -1.2461,-0.1641 -1.9336,-1.1328 -0.875,-1.2266 -1.1563,-2.1211 -1.668,-3.9141 -0.8515,-2.9922 -1.4648,-6.9297 -1.3047,-10.7539 0.2735,-6.332 2.6407,-18.3164 5.1329,-26.9922 0.9453,-3.2968 2.0078,-5.8242 4.3671,-9.25 2.0508,-2.9765 14.8321,-17.7383 16.4024,-20.9101 3.0039,-10.4571 5.0937,-20.9766 7.7422,-25.3516 1.7773,-4.1328 2.5195,-6.1562 9.0742,-14.4648 4.0508,-4.9766 14.6016,-14.7149 18.582,-17.6016 7.6563,-5.5547 15.9492,-9.1406 20.7696,-12.2539 6.0078,-4.5078 12.0156,-9.0156 18.0234,-13.5195 2.9648,-1.7266 3.9453,-2.4805 8.9023,-3.5118 2.6016,-0.4296 6.9922,-0.7617 11.4688,-0.6367 14.543,1.0117 15.1406,3.5 30.2031,5.0899 6.8711,0.7851 13.7227,0.6797 17.0703,0 5.1992,-1.3907 7.0703,-2.1563 12.25,-5.4375 7.3828,-4.6992 10.6875,-12.9961 15.4063,-15.6914 2.8554,-1.257799 7.3125,-1.878899 14.0273,-2.167999 6.3242,-0.2773 9.7266,0.1836 11.5235,0.7461 2.75,0.863299 6.9257,3.605499 13.5273,9.191399 3.1992,2.7031 6.0469,6.0391 8.5547,9.4414 5.1562,6.9844 6.8203,10.7305 9.832,16.3438 3.2656,6.0859 7.4336,13.6445 9.586,19.9609 2.3476,1.9883 4.6953,32.1797 7.0039,41.1094 2.6953,9.1406 10.9414,15.8125 13.9921,27.3515 1.9766,20.4649 4.168,45.2618 5.9024,54.336 0.1992,9.2383 0.4023,18.4726 0.6055,27.707 1.3359,3.7109 2.6679,7.4219 4.0039,11.1367 0.3437,1.2578 0.7578,2.3594 0.3632,4.3438 -0.3867,1.9609 -1.082,3.3984 -2.8242,4.7617"
       id="path6" />
    <g
       id="g1">
      <path
         fill-rule="nonzero"
         fill="#000000"
         fill-opacity="1"
         d="m 736.32623,512.11232 c 1.56235,0.61261 2.70782,1.25785 4.42966,2.6027 2.33083,1.81608 5.51352,5.0169 7.48548,7.45647 2.0807,2.5737 2.82381,4.15417 3.41105,5.86875 1.06935,3.34944 2.06621,8.57658 1.31585,12.46975 -0.36975,2.62807 -1.00048,6.2965 -1.71097,9.06232 -0.86273,3.34218 -2.33807,7.36585 -3.81704,9.57705 -0.3625,0.54736 -0.88086,0.81923 -1.21436,0.15949 -0.80473,-2.62081 1.96109,-6.33999 2.29096,-11.05602 0.35886,-2.3707 0.39511,-5.92313 0.16674,-9.92142 -0.61261,-4.86828 -0.9461,-8.06909 -2.96156,-11.58889 -1.25785,-1.92121 -3.91492,-4.90452 -6.80761,-7.58334 -1.89584,-1.75447 -3.63943,-3.18631 -5.56789,-4.0418 -2.84557,-1.25785 -6.56112,-1.43909 -9.22544,-1.29772 -3.3458,0.17399 -4.44054,1.01497 -5.82888,1.72184 -1.43185,0.73223 -2.84194,1.50072 -4.98065,3.41468 -3.41105,3.04857 -9.90692,9.79455 -10.73703,10.96178 -3.79167,6.90186 -7.70297,12.54949 -11.33877,20.81433 -1.40285,3.58867 -2.29095,7.0396 -3.09206,12.21962 -0.4205,2.69695 -0.69237,5.57514 -0.57999,8.4207 0.14137,3.68655 0.86998,7.05049 1.47172,9.40668 0.76486,3.00145 1.48259,4.67617 2.33445,6.29288 0.73224,1.38109 2.31271,4.06354 8.98982,10.9364 6.92723,7.13386 11.25902,10.41804 12.95549,11.39314 1.64934,0.94249 3.72642,1.70735 7.92046,1.88135 3.11381,0.13049 6.17687,-0.15951 8.17058,-0.62712 2.56283,-0.60536 4.36442,-1.64934 5.77451,-2.73682 3.44006,-2.66432 5.12202,-4.6979 7.82622,-7.75734 1.79071,-2.02996 5.29601,-6.63724 7.27523,-9.96492 2.83469,-4.75591 3.26606,-6.24575 4.35353,-9.09494 1.30497,-3.41469 2.64619,-6.72424 3.68293,-12.419 0.75036,-4.12517 1.76896,-10.68991 1.63121,-14.96008 -0.11237,-3.47992 -0.82285,-6.36899 -1.54422,-7.21722 -0.75035,-1.34485 -2.22932,0.73948 -3.15368,1.38834 -0.88448,0.24287 -1.10923,-1.38471 -0.36612,-2.72594 0.92073,-1.44997 2.88906,-2.48308 4.8139,-2.2402 1.59135,0.24287 2.32358,1.3086 2.6027,2.74769 0.41324,1.4101 0.95698,3.87142 1.08023,7.63047 0.17037,5.12203 -0.45312,11.42576 -1.02586,14.96007 -1.00047,6.1805 -2.11696,8.99344 -3.25518,12.35375 -1.51884,4.48766 -2.00096,6.05 -4.8864,11.56714 -1.70734,3.26606 -5.13652,7.36585 -6.30374,8.7252 -2.5592,2.98694 -8.50046,9.26531 -11.44752,11.18652 -1.43547,0.93524 -2.73682,1.67835 -5.29965,2.16046 -3.48355,0.65974 -12.37187,1.01498 -15.7068,0.36974 -5.0314,-1.60947 -7.2861,-3.89317 -10.51954,-6.23125 -4.03454,-3.58142 -13.3216,-13.60072 -15.48569,-17.02265 -1.42822,-2.26196 -2.1097,-3.70105 -3.03406,-6.31463 -0.57999,-1.64209 -1.23247,-4.32453 -1.81609,-7.56884 -0.67786,-3.79167 -0.8881,-10.42529 -0.0471,-16.25417 0.94249,-6.51399 2.08071,-10.33829 3.84243,-14.27496 2.60995,-5.82888 5.15464,-10.32017 8.62369,-15.9823 0.75761,-1.2361 1.48623,-2.45408 4.06717,-5.33952 5.96301,-6.70248 14.11909,-13.83634 15.00358,-13.68409 1.08747,-0.55462 2.32357,-1.05123 4.99514,-1.34485 2.5592,-0.28275 6.64812,-0.26462 9.85617,0.18487 2.25471,0.31536 3.87505,0.72498 5.38302,1.31585"
         id="path19"
         style="stroke-width:0.927981" />
      <path
         fill-rule="nonzero"
         fill="#000000"
         fill-opacity="1"
         d="m 704.80025,464.34304 c -6.22038,-1.02585 -6.19138,-1.69284 -9.57344,-3.57055 -2.31995,-1.6856 -7.62321,-6.96349 -9.32693,-9.76918 -2.35983,-3.87867 -2.92894,-7.67759 -4.16504,-11.40402 -0.73223,-3.05944 -1.66021,-2.23658 -2.20395,-14.043 -0.38787,-9.55162 -0.13051,-26.21185 0.44223,-31.23956 0.54012,-4.19048 1.18535,-5.12932 2.91082,-7.36585 1.71821,-2.1351 4.11429,-4.30277 6.35087,-5.23075 3.6213,-1.32312 8.67083,-1.48988 12.26312,-1.01503 6.72425,1.32312 10.33467,3.03042 14.38009,4.58915 1.92484,0.82646 4.58916,2.22576 7.75009,5.17637 3.89317,3.7663 5.36852,6.22044 6.24575,8.50773 0.64887,1.84872 2.68244,15.88082 3.00507,26.17556 0.21387,6.95263 -0.6525,13.4594 -1.14911,15.89173 -1.60221,6.48862 -2.34533,9.83805 -4.62902,13.16935 -1.00049,1.38835 -3.05945,3.87867 -5.60415,6.0935 -1.67471,1.44998 -3.22618,2.5592 -4.92627,3.23344 -3.14281,1.26147 -8.15608,1.18535 -11.77013,0.80111 m 14.38008,-7.44197 c 1.42822,-1.31585 2.6027,-2.75495 3.65029,-4.29554 2.23296,-3.35306 5.29965,-9.02607 6.24213,-13.61885 0.48937,-2.21846 1.62759,-15.44578 1.07298,-17.6244 -0.33711,-1.31588 -4.04542,7.75736 -4.64716,9.25447 -0.60899,1.00046 -1.39922,1.56959 -1.56597,1.15998 0.88812,-4.79943 1.77984,-9.60247 2.66795,-14.4019 0.39512,-8.85201 0.0399,-12.47698 -0.32261,-14.03209 -0.64162,-2.74404 -2.02634,-5.27789 -4.54204,-8.05089 -1.91034,-2.10252 -4.71965,-3.99106 -6.82211,-5.00608 -3.97654,-1.9212 -8.93544,-3.94031 -14.6882,-5.03504 -2.35258,-0.44581 -5.45914,-0.0761 -8.16696,0.76855 -1.93571,0.60532 -3.48356,1.42454 -4.82115,3.03765 -1.28685,2.00463 -2.06259,2.407 -2.77308,7.94584 -0.48573,4.658 -0.81923,15.59445 -0.76848,24.20722 0.0725,12.41175 -0.004,11.34968 0.78299,14.48885 1.12373,4.46957 2.43232,9.40309 5.00239,14.04662 1.13098,2.04084 3.00507,4.15416 5.16915,5.92313 3.97654,3.08481 5.42289,3.59955 9.20369,4.72327 2.79844,0.67787 7.1556,0.75762 9.80542,-0.0616 1.97921,-0.61262 3.65756,-1.71097 5.52077,-3.42918"
         id="path20"
         style="stroke-width:0.927981" />
      <path
         fill-rule="nonzero"
         fill="#000000"
         fill-opacity="1"
         d="m 642.48776,312.37163 c 1.20347,1.0657 3.08482,2.93985 4.55654,4.716 2.3852,2.87823 3.85692,5.33951 4.51303,8.49326 0.86998,4.17591 0.41324,9.75466 -0.0616,13.33973 -0.74311,5.65845 -1.71821,9.93589 -3.74817,20.64396 -0.55099,2.9108 -1.3086,4.08525 -3.61043,6.5611 -2.3127,2.49033 -5.29602,5.01324 -7.37673,6.06083 -1.2361,0.61628 -2.27282,0.94246 -4.15416,1.19626 -2.55195,0.34076 -6.29287,0.37333 -8.69258,-0.0575 -2.51569,-0.44951 -4.05629,-1.42464 -6.02462,-3.24432 -2.72594,-2.52299 -4.44054,-5.16189 -5.20902,-7.20994 -0.92436,-2.47586 -1.84509,-6.01741 -2.02271,-13.2963 -0.14499,-5.93036 0.51112,-10.81674 1.0476,-13.25993 1.52972,-6.95262 2.97245,-10.60654 5.4374,-15.79748 0.81198,-1.71092 2.1967,-3.92212 4.6689,-6.35083 4.26291,-3.8823 5.45914,-4.29191 7.96033,-5.06408 2.14596,-0.47485 5.88688,-0.14496 8.05459,0.49665 1.58048,0.46761 2.62807,0.97512 4.66166,2.77309 m -4.61453,53.07569 -0.48937,-0.48932 -0.48936,0.48932 0.48936,0.48933 0.48937,-0.48933 m 0.92798,-0.92798 -0.48936,-0.48932 -0.48937,0.48932 0.48937,0.48933 0.48936,-0.48933 m 0.92798,-0.92798 -0.48936,-0.48932 -0.48936,0.48932 0.48936,0.48933 0.48936,-0.48933 m 0.92798,-0.92798 -0.48936,-0.48932 -0.48936,0.48932 0.48936,0.48932 0.48936,-0.48932 M 628.03158,315.3477 c -2.00821,1.1854 -3.3603,2.59909 -4.57465,4.52753 -2.30546,3.64668 -3.32768,5.89054 -4.95165,10.6754 -1.10561,3.26612 -2.45408,6.12616 -3.11019,12.33565 -0.28637,2.70423 -0.28999,6.39435 0,9.28343 0.39512,3.92945 0.72861,6.40521 1.96109,8.79411 0.95335,1.84872 3.19355,4.64714 6.03912,6.4813 2.06621,1.33035 3.38569,1.70377 5.14377,1.7871 1.33398,0.0575 2.30908,-0.41685 2.89995,-0.80474 1.77259,-1.15998 3.21893,-2.65338 5.93763,-6.68072 4.48403,-7.55795 5.36489,-10.91464 6.59374,-14.56133 0.18124,-2.64623 -0.80474,-6.78948 -1.79072,-9.06229 -1.29772,-2.99422 -6.89461,-8.51859 -6.84024,-8.5403 1.04761,-0.44228 4.13967,-0.065 5.86151,0.95331 3.5778,2.581 4.21579,5.12199 4.8719,6.40521 0.55099,0.38427 1.02586,-0.31895 1.31222,-2.62081 0.26825,-2.17853 0.19212,-5.01323 -0.28273,-7.21357 -0.48938,-2.24386 -1.32311,-3.80259 -2.35983,-5.35398 -1.3811,-2.05901 -3.51981,-4.39344 -5.25252,-5.71655 -1.92121,-1.46445 -3.9548,-2.46862 -5.76001,-2.64623 -1.71821,-0.16667 -3.8243,0.85188 -5.69839,1.95748"
         id="path21"
         style="stroke-width:0.927981" />
      <path
         fill-rule="nonzero"
         fill="#000000"
         fill-opacity="1"
         d="m 598.37241,268.21272 c 4.13604,4.91543 5.47726,6.77501 6.70974,9.89247 0.67423,1.46444 1.71097,5.83616 1.47897,12.0348 -0.31899,7.10119 -1.59497,9.89237 -2.43233,12.40803 -1.23973,3.41832 -2.50483,7.14119 -3.88229,8.93554 -0.89537,1.17083 -2.88545,4.18315 -6.21675,7.27518 -1.51522,1.40283 -2.90357,2.33443 -4.12517,3.07032 -1.91396,1.01855 -2.5592,1.88853 -9.00069,2.45767 -4.59641,0.38789 -11.26265,0.28637 -13.64423,-0.38419 -3.43281,-1.09474 -4.07079,-3.4365 -5.67301,-5.13294 -0.86998,-1.60216 -1.32309,-3.97287 -1.15635,-8.81582 0.145,-4.33906 0.78299,-8.05822 1.1636,-9.99028 1.81972,-9.29428 4.33542,-21.61546 6.04638,-26.12851 1.19623,-3.14641 2.31995,-5.24885 4.8719,-9.04782 1.47534,-2.193 2.69332,-3.64297 4.35716,-4.39334 1.13461,-0.51113 2.99782,-0.88455 6.39075,-0.67789 3.11381,0.18847 5.56789,0.74675 6.77137,1.25064 1.83421,0.76484 5.50263,3.87135 8.34095,7.24614 m -18.933,52.47808 c 5.81076,-0.77208 5.51352,-1.28321 7.89872,-2.55195 2.00459,-1.3774 6.18775,-5.53522 8.01108,-8.00022 1.8741,-2.84918 3.05945,-4.49848 4.2158,-8.89191 0.61261,-2.88547 0.81924,-8.17784 0.40962,-12.78508 -0.50024,-5.69483 -1.36661,-9.15657 -2.25471,-11.45843 -0.68874,-1.77987 -1.89584,-3.78802 -4.94802,-6.77139 -3.14282,-3.07393 -6.24213,-4.99875 -8.08359,-5.56065 -1.39922,-0.4277 -2.81295,-0.49656 -4.11429,-0.0649 -1.02586,0.34075 -1.63122,0.76493 -2.50845,1.66387 -2.3272,2.38881 -3.47268,4.87552 -4.70153,7.25709 -1.13098,2.17862 -1.91034,4.54571 -2.64257,7.09766 -1.86321,8.36631 -4.31004,17.06613 -5.77089,30.66681 -0.087,2.66433 0.0327,4.03458 0.56187,5.51351 0.90261,1.90672 1.55147,2.73689 3.74817,3.5923 1.96471,0.61628 6.74237,0.65256 10.17879,0.29362"
         id="path22"
         style="stroke-width:0.927981" />
      <path
         fill-rule="nonzero"
         fill="#000000"
         fill-opacity="1"
         d="m 645.88794,441.24501 c 2.40333,7.54347 4.57466,16.30854 6.50674,27.37544 1.00049,5.73101 2.00821,11.0814 2.7767,18.55962 0.57999,5.63314 1.42822,15.3262 1.61309,21.85468 0.20663,7.18824 -0.54374,15.56181 -1.14185,20.35034 -0.72136,5.76726 -1.01498,8.62007 -2.62082,13.11861 -2.38883,5.33589 -3.42555,7.06135 -4.34629,10.82403 -2.78394,12.36825 -5.57151,24.7365 -8.35546,37.10837 -1.88858,6.94536 -3.83517,12.78149 -5.57876,17.01541 -1.22885,2.97969 -2.83831,5.82888 -5.24889,9.34143 -2.80932,4.09617 -6.13337,8.50045 -9.21819,12.47337 -3.2733,4.21942 -8.35183,9.74018 -12.41899,12.54225 -2.00096,1.3811 -3.50893,2.0952 -4.8719,2.62444 -6.37263,2.15322 -8.72158,3.47631 -16.83054,5.15828 -4.60003,0.64886 -15.22469,0.59086 -19.59998,-0.0399 -6.91636,-1.22522 -9.43206,-2.43233 -11.99488,-3.78079 -7.98933,-5.04953 -15.97505,-10.10268 -23.96439,-15.1522 -2.70056,-1.55509 -4.66891,-2.62082 -7.96396,-3.80254 -3.99104,-1.43185 -7.01786,-2.6897 -14.53958,-3.67931 -3.30955,-0.43499 -8.48595,-0.93523 -12.40812,-0.56911 -2.46495,0.23199 -4.09255,0.83736 -5.41926,1.57322 -5.00603,4.32092 -10.01206,8.6382 -15.01808,12.95911 -2.06621,1.5116 -3.20081,2.08433 -5.08939,2.51932 -2.41783,0.55825 -5.96663,0.42775 -8.90282,0.12326 -4.55654,-1.01498 -9.10944,-2.02634 -13.66235,-3.04132 -3.66117,-0.40237 -9.11669,-0.13775 -11.51277,0.36611 -19.05986,7.7791 -38.63809,15.47119 -54.07302,21.30732 -2.24383,0.77936 -4.81028,1.64934 -8.6817,2.31271 -2.42871,0.42049 -5.34314,0.69236 -8.39896,0.59086 -6.50311,-0.2175 -15.6488,-0.14862 -27.99167,-1.51522 -6.26388,-0.69599 -8.27934,-1.42097 -11.31702,-2.50482 -5.88688,-2.10246 -11.33877,-5.21989 -15.44944,-8.08722 -2.08434,-1.45359 -4.60366,-3.25518 -6.73149,-5.21626 -1.71097,-1.57322 -3.58505,-3.67931 -5.10752,-5.98838 -2.8202,-4.27379 -3.56693,-5.77813 -4.45866,-8.7252 -2.14234,-9.41031 -4.36804,-15.87355 -6.47774,-28.53179 -0.3915,-3.51981 -0.70687,-9.7728 -0.58724,-17.34165 0.11237,-7.23173 0.62348,-13.72398 1.0331,-17.3779 0.84823,-7.53985 1.85234,-11.76289 2.79482,-15.06519 3.77717,-13.24911 7.63047,-24.22539 12.10363,-36.49938 3.34943,-6.61913 6.69887,-13.23461 10.04829,-19.85372 1.31222,-2.0771 3.7373,-5.1039 6.99611,-8.22134 3.13556,-2.99419 5.42652,-4.83566 7.71384,-5.84338 7.20998,-1.4391 14.41634,-2.88182 21.62269,-4.32091 8.25758,-2.07709 15.50743,-4.18679 24.96849,-7.40211 3.49443,-1.36659 4.79578,-1.95745 12.62562,-8.4497 4.97702,-4.24116 9.47919,-8.88469 11.05965,-11.05964 9.89243,-15.45303 19.78847,-30.90615 29.68452,-46.35917 1.18898,-1.75082 3.59956,-4.93714 6.58287,-8.33011 6.81486,-7.94946 12.71262,-10.8095 24.42476,-22.12651 9.87066,-9.98675 17.36339,-19.08161 21.62268,-21.56832 1.15635,-0.68513 2.43595,-1.10922 4.67253,-1.38835 3.39293,-0.42047 10.56304,-0.68875 17.95426,-0.56552 17.87813,0.55466 25.13161,2.25472 36.17314,3.3567 5.54977,0.78294 8.3482,1.56597 10.61379,2.33805 6.09349,2.07348 9.27981,3.39659 17.59901,7.34051 4.24842,1.26874 8.49321,2.53747 12.74162,3.8025 3.44368,1.48625 7.15922,3.41107 13.27085,7.96764 3.24794,2.42139 11.42215,9.18915 15.95693,13.52821 8.63095,8.73248 26.73745,29.64825 27.0927,31.3846 4.00917,7.57975 6.38712,14.29313 9.7293,22.59055 m -42.60013,-52.12643 c -6.77499,-6.57196 -11.0379,-9.63504 -15.01082,-12.60022 -5.58601,-4.1723 -7.4021,-4.90457 -10.61742,-6.2893 -4.24478,-1.26874 -8.48595,-2.53385 -12.73074,-3.79888 -8.82669,-3.99106 -12.25587,-5.56788 -19.11786,-7.79003 -1.84871,-0.6017 -4.51303,-1.23245 -8.99706,-1.85234 -11.52364,-1.58768 -25.92548,-3.35298 -30.66325,-3.45088 -3.44731,-0.0724 -11.43302,-0.29724 -17.00091,0.3697 -3.38205,0.406 -5.45551,1.17455 -7.3586,2.29462 -6.20587,3.77355 -11.96588,14.15534 -20.17271,21.04272 -7.31873,7.43109 -14.54683,10.92187 -24.83075,22.41288 -9.20731,11.71576 -11.21189,15.6452 -17.99776,26.21908 -5.52439,8.92458 -11.04877,17.84916 -16.57316,26.77735 -1.3231,1.89946 -7.42022,8.01834 -13.58985,13.13311 -7.91684,6.34362 -8.11984,5.76725 -12.38638,7.65222 -9.4973,3.20444 -16.31216,5.54976 -24.5335,7.44198 -6.80399,1.56597 -18.6865,3.29143 -20.91219,4.15053 -3.21169,1.4246 -11.64327,7.03598 -12.89387,9.38856 -4.61453,7.17735 -7.55798,14.43083 -11.63964,22.3658 -4.41153,12.129 -8.30833,23.19591 -12.07101,36.38701 -0.93523,3.28056 -1.92483,7.5181 -2.77668,14.94194 -0.41325,3.59231 -0.91711,9.70393 -1.02949,16.2433 -0.116,6.85836 0.19575,12.40812 0.58362,15.69956 1.96471,11.7665 3.82429,17.28365 6.0065,26.55258 1.15272,4.07805 2.63894,6.58649 4.40429,9.12394 1.73271,2.48671 7.39847,7.82622 10.81678,10.36729 4.83202,3.59592 7.01785,4.59278 11.51638,6.56112 2.43595,1.06935 4.42242,2.03721 8.61646,2.81294 3.98379,0.73587 11.36414,1.73271 17.39964,1.70371 4.22304,-0.0253 10.79141,0.13775 15.70681,-0.10512 4.44054,-0.21749 7.37672,-1.00772 9.7148,-1.59859 21.92355,-7.52172 39.06945,-15.15219 58.74919,-22.71379 2.78031,-0.47849 10.49778,-0.77211 15.23555,-0.36612 4.53117,1.02224 9.0587,2.04808 13.58986,3.07394 2.50482,0.36612 4.91903,0.54737 6.47412,-0.10512 1.85596,-0.004 13.51372,-12.47337 19.59997,-15.6633 2.20396,-1.03311 4.62541,-1.32673 7.81172,-1.46085 4.85378,-0.20299 10.31654,0.20662 13.60435,0.60173 7.94584,1.22523 10.68628,2.42146 14.85132,3.76268 2.98694,1.09836 6.43425,2.62082 8.88832,4.06716 9.93592,5.83976 17.28727,11.57802 22.85516,14.44534 2.6752,1.40285 5.32502,2.79119 12.37188,4.13604 3.82429,0.64161 11.21914,0.67423 15.06882,-0.004 7.44559,-2.35621 14.19883,-3.80618 19.90447,-6.833 2.55557,-1.84146 10.36004,-9.98666 13.3651,-13.81458 7.27522,-9.46469 10.53403,-14.1191 12.71262,-19.12149 2.91443,-6.89824 5.62588,-15.97868 8.3917,-27.99531 2.92894,-12.72712 5.35764,-24.635 8.32645,-45.57258 0.37338,-2.62444 2.21121,-30.11226 2.52658,-42.42614 0.15224,-5.963 -0.1595,-8.69982 -0.66699,-12.69811 -2.13508,-14.62295 -4.33178,-20.88682 -6.47049,-29.94552 -3.92942,-11.16841 -5.60051,-15.6307 -11.26265,-26.34238 -2.48307,-3.7264 -15.51831,-18.97286 -27.78868,-31.18156"
         id="path23"
         style="stroke-width:0.927981" />
    </g>
  </g>
  <g
     id="g4"
     transform="matrix(1.2166255,0,0,0.85239549,1038.6589,-174.26207)">
    <path
       fill-rule="nonzero"
       fill="#000000"
       fill-opacity="1"
       d="m 1112.6641,642.42238 v -6.67187 h 1.6718 v 6.67187 h -1.6718"
       id="path12" />
    <path
       fill-rule="nonzero"
       fill="#000000"
       fill-opacity="1"
       d="m 1120.6016,637.15676 c -0.4297,1.15234 -1.668,1.98437 -2.1328,1.51172 -0.375,-0.38672 -0.2891,-1.20313 0.1718,-2.04297 0.4649,-0.85157 1.0508,-1.32813 1.6641,-1.11328 0.4101,0.14843 0.5625,0.9414 0.2969,1.64453"
       id="path13" />
    <path
       fill-rule="nonzero"
       fill="#000000"
       fill-opacity="1"
       d="m 1123.7109,615.26613 c 2.8438,4.13672 3.6329,4.78125 4.4805,9.83594 0.4688,3.58984 0.8789,11.5 0.3789,18.31641 -2.4101,17.05078 -3.6094,22.28125 -5.418,26.45312 -1.8007,4.41016 -4.3515,8.80078 -8.125,14.03906 -1.789,2.52344 -6.957,8.80469 -11.4882,12.21485 -2.3086,1.59765 -3.375,1.91797 -6.4102,2.54687 -3.543,0.73438 -7.9726,1.19141 -10.0078,1.32031 -3.6797,0.23438 -7.8711,-0.93359 -10.0586,-1.7539 -2.2227,-0.83203 -5.0898,-2.44141 -7.957,-5.07422 -1.8047,-1.65625 -3.8321,-4.24609 -5.1875,-6.35156 -1.0313,-1.60157 -1.5899,-2.69141 -2.0743,-4.79297 -0.6406,-2.78125 -1.5546,-8.03906 -1.75,-11.29297 -0.3046,-5.10156 1.375,-14.15625 2.2422,-17.49609 1.9571,-7.53907 4.1328,-13.39844 7.2071,-20.69532 3.2578,-6.23828 2.4843,-6.60547 8.3515,-14.07422 4.0196,-4.73437 7.9258,-7.40625 9.8399,-8.45312 1.8359,-1.00391 3.0312,-1.80078 5.9297,-2.58203 1.6445,-0.44531 4.9804,-1.10547 8.1718,-1.2461 6.6172,-0.16796 11.0039,1.42188 13.4063,2.28516 1.8125,0.72656 5.5742,3.09375 8.4687,6.80078 m -21.7148,-4.0664 c -3.9766,0.23828 -7.8555,1.62109 -9.8125,2.59375 -2.8008,1.39453 -11.1406,8.03906 -12.7773,9.90234 -2.0899,2.38672 -3.2461,5.07422 -5.3868,9.63281 -3.7304,7.95313 -5.7617,13.77735 -7.8437,22.10938 -0.6641,2.65625 -1.9922,11.18359 -1.9922,14.57031 0,4.79297 1.7695,11.42187 2.6484,13.01562 0.9024,1.63672 2.8789,4.35157 4.7461,6.35938 1.8711,2.00781 3.2149,2.99609 5.1563,3.88672 1.4804,0.67969 3.9765,1.44531 7.8476,1.67187 2.6172,0.15235 5.0977,0.0508 7.1485,-0.16015 4.914,-0.60157 5.8828,-1.48828 8.7226,-3.1211 1.5508,-1.01562 2.875,-2.08593 4.2422,-3.57031 2.211,-2.40234 4.9024,-5.96094 6.5274,-8.62109 4.0273,-6.60547 5.2656,-10.60157 7.6015,-15.54297 1.6328,-4.35156 3.4649,-9.72656 4.8711,-18.86328 0.3125,-3.14844 0.418,-7.71094 0.062,-10.41407 -0.3906,-2.96484 -1.2148,-3.77343 -1.5586,-4.53125 0.2774,-1.36328 0.5547,-2.72656 0.8321,-4.08984 -0.1602,-1.96875 -0.5508,-3.75781 -2.7774,-6.41406 -2.6445,-3.15235 -6.1484,-5.60156 -7.582,-6.28906 -2.3281,-1.11329 -6.9258,-2.35157 -10.6758,-2.125"
       id="path14" />
    <path
       fill-rule="nonzero"
       fill="#000000"
       fill-opacity="1"
       d="m 1139.0664,800.1841 c -3.7578,-0.87891 -5.4805,-2.69531 -8.4531,-4.75781 -3.2031,-2.52735 -6.2539,-6.91797 -8.043,-9.94141 -1.3789,-2.66406 -2.1797,-3.19531 -3.2383,-9.67969 -0.582,-3.99609 -1.289,-13.47265 -1.1211,-22.80078 0.3477,-14.0039 1.7227,-16.5 2.6289,-19.57422 1.4805,-3.65234 3.3711,-7.44531 8.6055,-12.77343 1.6875,-1.57422 3.5391,-3.05078 5.2695,-3.85547 1.3594,-0.63281 2.543,-0.9961 5.2383,-1.33985 5.5196,-0.69921 10.875,-0.14453 12.2657,0.44532 2.3164,1.24609 8.3554,4.95312 12.5664,10.23828 2.7539,3.4375 3.1679,4.90625 4.3711,8.60937 1.5117,5.00782 3.0273,10.40235 4.4335,20.11328 0.375,3.46094 0.1875,7.95313 -0.5195,8.45704 -0.2851,0.20703 -9.9453,-29.46875 -10.2695,-30.0625 -0.7539,-1.37891 -2.5781,-3.88282 -5.5664,-6.69141 -2.8828,-2.70313 -5.1953,-4.37891 -7.6524,-5.33594 -1.9218,-0.74609 -4.3359,-1.1289 -6.5468,-1.03515 -2.1993,0.0898 -3.6758,0.57031 -4.8321,1.14843 -1.4218,0.70703 -3.9258,2.5 -6.7304,5.58985 -2,2.19922 -3.5,4.44531 -4.4727,6.30859 -1.6523,3.17188 -2.8477,5.53906 -4.0117,11.51953 -1.0742,5.50781 -1.1563,16.51953 -0.6875,21.69922 0.6367,7.05859 1.5351,11.54688 2.414,13.94531 1.5118,3.42188 2.7735,5.9961 6.8399,9.96875 3.3945,3.16016 6.1523,5.07422 9.3398,5.96094 1.8047,0.5 4.6289,0.82422 7.3047,0.67578 1.7422,-0.0977 3.211,-0.36328 4.4141,-0.8789 2.2461,-0.96875 4.8594,-3.63672 6.8515,-6.04297 2.4571,-2.96875 3.0391,-4.42578 3.8868,-6.625 0.9882,-2.57032 2.3867,-5.44532 2.5703,-10.21875 0.1211,-3.16016 -0.5781,-7.0625 -1.2461,-8.66016 l 0.5742,-0.67578 c 0.6836,0.30469 2.3672,2.21875 3.418,5.46484 1.1484,3.5625 1.2265,6.98047 1.0898,8.81641 -1.1289,4.77734 -1.9844,6.76172 -3.3359,10.09375 -1.2735,2.54687 -4.375,6.96094 -7.461,9.8125 -0.625,0.57812 -2.207,1.84766 -2.6484,2.05859 -0.9805,0.46485 -2.4102,0.82422 -4.9648,0.91407 -4.2188,0.14843 -9.6758,-0.34375 -12.2813,-0.89063"
       id="path16" />
    <path
       fill-rule="nonzero"
       fill="#000000"
       fill-opacity="1"
       d="m 1161.0117,804.53176 c 9.1289,8.79687 7.5586,8.21875 13.4336,15.4414 0.8867,1.61719 1.2656,3.28125 1.3945,5.42969 0.1875,3.10547 -0.2421,6.85547 -0.6875,9.85938 -1.3203,7.89062 -2.6093,10.49218 -4.0585,14.17187 -4.5391,8.48828 -4.0547,9.89063 -10.8633,19.15234 -3.5157,4.3125 -7.3867,7.05079 -9.1172,7.65235 -1.1406,0.63672 -6.1016,2.27344 -12.6836,1.51953 -2.3594,-0.44141 -4.0664,-1.41797 -5.6719,-2.8125 -2.3828,-2.0625 -3.4609,-4.19531 -3.9765,-6.5 -0.6915,-3.09766 -1.4961,-9.95703 -1.6875,-13.71484 -0.1719,-3.28125 0.2109,-6.21094 0.7421,-9.56641 0.6563,-4.18359 1.3399,-6.80078 1.9961,-8.875 2.0977,-6.66406 6.3672,-19.83594 9.7344,-26.41406 1.0234,-2.00782 2.5391,-5.14063 5.9961,-8.28125 2.0391,-2.09375 4.1563,-2.4961 5.9453,-2.15625 2.9492,0.77343 4.9883,1.28515 9.5039,5.09375 m -13.8008,68.19922 c 3.2969,-1.3125 5.6407,-2.5625 8,-5.16016 3.5313,-3.89844 5.5743,-7.89453 7.0743,-10.69141 1.25,-2.65625 4.8476,-8.42578 5.8125,-12.52343 0.4179,-2.26172 -2.1485,0.89062 -2.6485,-0.16407 0.8321,-2.70312 1.6641,-5.41015 2.4961,-8.11328 0.1602,-1.57812 0.2695,-5.84765 -0.25,-9.17187 -0.4297,-2.75782 -1.207,-4.875 -1.8476,-6.4375 -1.0235,-2.50391 -1.1993,-3.65625 -4.125,-7.17969 -2.8399,-3.42188 -7.2579,-7.29297 -9.0508,-7.92578 -1.3985,-0.4961 -2.5469,-0.17578 -4.1094,1.34765 -2.5391,2.48047 -3.6836,5.11329 -4.4102,6.57032 -3.496,8.6289 -7.0078,16.89062 -10.4531,29.51953 -0.6836,4.77344 -0.664,17.85937 0,22.33594 0.5,3.39843 1.0156,4.86718 2.168,6.52343 0.8789,1.26172 2.0898,2.21875 3.8945,2.45703 2.4805,0.32813 5.4805,-0.59765 7.4531,-1.38671 m 21.7071,-32.29297 -0.1211,0.21484 0.1172,0.61328 0.1679,0.46875 0.1211,-0.21484 -0.1172,-0.61328 -0.1679,-0.46875"
       id="path17" />
    <path
       fill-rule="nonzero"
       fill="#000000"
       fill-opacity="1"
       d="m 1152.4688,892.55519 c 0.9453,1.24219 1.457,2.45704 1.5898,3.70313 0.4062,3.79297 -1.5352,24.35937 -1.8047,24.95703 -1.582,3.50391 -4.8008,10.32813 -8.1172,15.11719 -1.2383,1.79297 -3.4883,4.28515 -5.7929,6.13281 -2.4375,1.81641 -3.254,2.58594 -6.9454,3.22656 -2.75,0.42578 -6.4648,0.41407 -8.4804,-0.3789 -2.7071,-1.1836 -3.8946,-3.42969 -4.9532,-4.87891 -1.0468,-2.125 -1.9023,-2.65625 -2.539,-7.89453 -0.4297,-4.27344 -0.125,-10.71484 0.4219,-13.83984 0.8125,-4.63282 1.9687,-6.86329 3.0039,-9.40235 1.8515,-4.55469 3.1054,-7.41797 5.9179,-11.82422 1.4766,-2.3125 3.918,-5.40234 6.2461,-7.11328 1.8789,-1.38281 3.8282,-2.4375 6.4102,-2.97656 2.6406,-0.55859 6.8203,-0.44922 9.457,0.65234 1.9453,0.8125 4.1055,2.5625 5.586,4.51953 m -12.8633,-0.1914 c -2.086,0.67578 -5.586,2.37109 -8.125,4.55859 -2.0235,1.7461 -3.2578,3.66016 -4.168,5.21094 -2.0898,3.55078 -3.3945,6.74609 -5.1523,11.23047 -1.0157,2.60156 -2.2539,4.96484 -2.8555,9.65625 -0.3125,2.42187 -0.3281,5.70312 0.016,8.11719 0.3516,2.47656 0.9727,4.125 1.7891,5.69531 1.0469,2.01562 2.5078,4.01562 4.1328,4.82031 1.6094,0.79688 4.582,0.55469 6.7305,-0.20703 1.1796,-0.41406 2.3046,-1.01563 3.8867,-2.39844 3.4844,-3.04687 6.8633,-7.53906 7.8086,-8.98828 2.2929,-3.52734 4.1445,-7.64453 5.1679,-10.36328 0.7618,-1.48438 1.961,-7.72266 0.8711,-7.92578 -1.1484,0.28906 -3.7343,5.26953 -5.0429,4.69531 1.3632,-3.30078 2.7265,-6.60156 4.0898,-9.90234 0.3711,-1.57813 0.3281,-3.26563 0.3359,-5.92188 0.01,-2.1289 -0.3164,-3.82812 -1.3437,-5.36328 -0.9648,-1.44531 -2.1367,-2.13281 -3.3047,-2.62891 -1.668,-0.71093 -3.0391,-0.86328 -4.8359,-0.28515"
       id="path18" />
    <path
       fill-rule="nonzero"
       fill="#000000"
       fill-opacity="1"
       d="m 1061.6641,979.42238 v -2.67187 h 1.6718 v 2.67187 h -1.6718"
       id="path24" />
    <path
       fill-rule="nonzero"
       fill="#000000"
       fill-opacity="1"
       d="m 1056.6641,985.42238 v -1.67187 h 1.6718 v 1.67187 h -1.6718"
       id="path25" />
    <path
       fill-rule="nonzero"
       fill="#000000"
       fill-opacity="1"
       d="m 1039.1055,668.17238 c 3.0703,3.28906 5.1679,6.48438 6.3711,8.76563 4.7734,9.84765 6.582,18.53906 9.6718,27.82422 1.9375,5.07421 2.9297,8.18359 6.0352,12.6289 1.6601,2.375 5.2695,6.01953 8.1601,8.16016 6.4922,4.90234 7.7266,3.64844 14.668,9.58203 2.0703,1.94141 3.8477,4.05469 4.7891,5.42187 1.7031,2.47657 2.3555,4.13672 3.3476,6.47266 2.1329,5.03125 4.6016,13.69531 6.0274,18.90625 0.5,1.83203 1.043,4.12891 1.375,9.00781 0.4375,6.40625 0.1367,15.82422 -0.3985,19.80078 -1.2812,7.72657 -2.6835,9.3125 -3.9765,12.67969 -0.3516,1.35547 -0.4141,3.76953 0.094,5.98438 0.5078,2.22265 1.4453,3.90234 2.8985,5.91406 3.2226,3.71484 6.4453,7.42578 9.6718,11.13672 0.8868,1.36719 1.3321,2.39844 1.6563,4.0664 0.4297,2.23438 0.375,5.51172 0.055,8.76563 -0.5508,5.61328 -1.5625,10.08984 -2.3828,13.15234 -4.293,12.79688 -8.0391,14.60157 -10.8282,27.0586 -0.3164,1.73437 -0.3085,3.24609 0,4.66797 0.4532,3.44921 2.3321,3.07031 3.4414,9.86328 0.2383,2.47656 0.09,5.48828 -0.1484,7.64453 -1.6562,5.66797 -3.3086,11.33594 -4.9609,17.0039 -1.8321,10.82032 -3.668,21.64063 -5.5,32.46094 -2.1485,6.97266 -3.6446,13.72656 -6.3321,20.32422 -1.2929,2.14453 -4.5586,5.69141 -7.2695,7.07813 -6.0625,3.17187 -11.1602,2.48046 -23.8398,6.46484 -7.086,5.67187 -20.0157,19.96878 -21.5547,19.53518 -13.9571,4.8984 -27.9102,9.7968 -41.86721,14.6914 -6.39063,2.5 -12.92188,5.2265 -19.45703,9.3554 -4.91407,3.1055 -21.52735,16.4415 -34.5586,28.4297 -8.95703,9.2149 -17.91406,18.4258 -26.87109,27.6368 -5.19141,4.7031 -9.00781,6.9335 -12.57031,8.5234 -3.70313,1.4531 -6.91016,2.7422 -14.84375,4.0586 -4.48829,0.5117 -17.35547,0.832 -25.39063,0.3984 -14.23828,-1.2773 -19.85156,-2.8554 -28.86719,-4.4687 -7.34765,-2.0938 -12.98437,-4.0586 -16.87109,-6.25 -2.75391,-1.5508 -7.32031,-5.1289 -10.19531,-8.1836 -5.32813,-5.6641 -12.00391,-14.875 -14.1211,-18.2461 -2.42578,-3.8594 -5.46484,-7.9531 -7.61718,-12.2383 -4.48047,-8.9336 -6.82813,-13.8945 -11.58204,-23.0312 -1.14062,-2.3399 -2.34375,-6.2071 -3.53515,-12.4336 -0.90235,-5.7891 -2.26953,-10.0508 -2.61328,-22.57816 -0.21875,-11.17578 0.92968,-21.54297 1.61328,-25.46875 1.17969,-6.80078 2.72265,-13.65625 4.01562,-17.29297 2.54297,-7.16016 7.44532,-16.02734 11.10157,-22.64844 1.24609,-2.25781 10.19531,-13.91406 15.28515,-19.66797 2.3086,-2.60937 6.23047,-6.55468 8.78906,-8.77734 2.75782,-2.39844 4.17969,-3.17969 5.72657,-3.98438 4.7539,-2.21093 9.5039,-4.42187 14.25781,-6.63281 2.24609,-1.39453 8.28516,-5.96094 12.48828,-10.39062 4.49219,-4.73438 8.0625,-9.80078 9.44531,-12.03125 2.25391,-5.40235 4.50391,-10.8086 6.75782,-16.21094 1.08203,-2.03125 4.16406,-7.40234 6.98828,-9.91016 2.05078,-1.82031 5.14453,-2.71093 8.67578,-3.77734 16.76172,-4.72266 30.67969,-7.93359 40.99609,-11.96094 1.75,-0.68359 3.10938,-1.3125 5.31641,-2.9375 2.23437,-1.64844 5.0664,-4.29687 6.63281,-6.27344 3.03125,-3.82812 4.30859,-6.80468 5.50391,-9.41015 0.78125,-1.69922 1.69531,-4.32422 2.52734,-8.41016 1.01953,-5.01562 2.76953,-31.6875 4.99609,-45.73437 1.04688,-6.59766 2.64844,-14.20313 4.01563,-18.38282 1.17578,-3.59375 3.41016,-7.47265 6.33203,-11.74218 1.60156,-2.33594 4.5,-6.40235 9.9375,-12.0586 3.22266,-3.34765 6.03125,-5.8164 7.63281,-7 5.23828,-3.64843 6.25391,-2.17968 12.91797,-7.83593 7.44141,-7.0625 5.78125,-8.86329 14.51563,-17.23047 7.10547,-6.63282 11.35547,-9.29688 13.93359,-10.78907 4.47262,-2.36718 10.83982,-4.27734 19.18362,-6.11328 2.4765,-0.3125 5.9648,-0.3164 8.3867,-0.004 3.3125,0.43359 4.625,1.16797 6.0508,1.92968 1.3984,0.7461 3.3984,2.0625 5.8711,4.71094 m -14.4102,-1.82812 c -1.5391,-0.39844 -2.7578,-0.46485 -4.3828,-0.0664 -4.2656,1.05469 -9.7305,2.94922 -13.7031,4.47266 -2.5703,0.98828 -4.4336,1.97656 -7.81643,4.39062 -2.63672,1.87891 -7.80469,6.00391 -11.44531,9.85156 -5.00782,5.29297 -5.19922,8.46875 -13.1211,15.45313 -7.875,6.66406 -6.87109,2.76953 -16.42187,11.14844 -6.54688,6.08984 -11.72657,12.9375 -13.64844,15.6875 -2.64063,3.78125 -3.35938,5.24609 -4.50391,8.46484 -1.24218,3.5 -2.75,10.64844 -3.98047,16.90625 -2.07812,15.12891 -4.39062,50.42969 -6.50781,52.79688 -1.02344,3.85156 -1.95312,5.79296 -3.08984,7.90625 -1.14453,2.125 -2.76953,5.15625 -6.26953,8.89453 -1.78907,1.91406 -3.89063,3.70703 -5.6211,4.98047 -2.82422,2.08203 -4.1289,2.66015 -6.40234,3.5 -11.4375,4.23046 -24.77734,6.57812 -40.67969,11.52734 -2.73828,0.85156 -5.52344,1.9375 -7.48828,3.57812 -2.1875,1.82813 -4.92187,5.96094 -6.26953,8.27344 -2.09375,5.08594 -4.1875,10.17578 -6.28125,15.26172 -1.10156,2.04297 -1.50781,3.36719 -6.33984,8.72266 -5.27344,5.84765 -14.0586,13.71484 -16.00782,15.1289 -5.32812,4.09766 -11.67578,5.29688 -15.45312,7.45703 -1.07422,0.56641 -2.14844,1.10938 -4.98047,3.60938 -3.71094,3.27734 -9.45313,9.30859 -12.39453,12.78906 -5.90625,6.98438 -10.45703,13.01953 -12.14063,16.48047 -2.69922,5.54297 -7.3164,13.15234 -10.02734,20.91797 -1.77344,5.07812 -3.27344,10.26562 -4.53906,19.70312 -0.59375,4.41797 -1.44141,13.85157 -1.21094,20.28907 0.78125,9.76173 2.08594,16.64063 3.19922,22.10933 0.86719,4.043 1.68359,6.5196 2.48437,8.293 5.01563,9.6719 10.6836,22.3945 17.46485,33.4922 3.64843,5.125 7.07422,10.7969 14.44922,19.039 4.72656,4.9727 9.88671,8.5665 11.60156,9.4961 4.23437,2.2852 10.69922,4.543 17.64844,6.0157 8.11328,1.2695 13.17578,2.7929 25.53125,3.8672 7.21875,0.4335 17.48828,0.1093 21.1875,-0.3946 5.60546,-0.7617 9.83593,-2.0625 13.64843,-3.6484 3.78125,-1.8789 5.20703,-2.293 10.22657,-6.543 13.18359,-12.8008 26.36718,-25.6015 39.55078,-38.4062 12.49609,-11.4414 19.21875,-16.3868 24.23828,-19.7461 7.46484,-4.461 12.87109,-6.586 21.08594,-10.1094 14.26954,-4.9219 26.24214,-9.0273 40.45314,-14.1523 3.4531,-1.9922 28.9531,-27.58988 27.5586,-26.58988 1.164,-0.83203 2.8789,-1.99218 3.7031,-1.64062 0.8437,0.043 0.4531,2.7539 0.086,4.18359 0.027,1.07813 0.5274,1.26953 1.5821,1.25781 2.7851,-0.0195 6.664,-1.23437 9.2578,-2.14843 1.7226,-0.60938 3.6484,-1.49219 5.6719,-3.30078 2.0429,-1.82422 3.5703,-4.09766 4.4648,-6.08985 2.75,-8.625 4.3945,-13.60547 6.7305,-24.18359 1.6797,-10.07422 3.3593,-20.14844 5.039,-30.22266 1.4063,-3.9414 2.8164,-7.88281 4.2227,-11.82812 0.055,-7.85157 -2.6797,-7.50782 -3.6094,-13.39453 -0.4258,-3.01172 -0.1797,-7.90235 0.4024,-10.81641 3.3086,-12.17188 6.6836,-14.59766 9.9843,-24.06641 0.8868,-3.48437 3.6758,-13.57422 2.9102,-17.95703 -1.3399,-4.64453 -9.3008,-10.42969 -11.8281,-15.13281 -1.4532,-2.16406 -2.1328,-2.41016 -2.6641,-5.64063 -0.3516,-2.14062 -0.3398,-8.16796 0.1719,-10.88671 1.2929,-4.45704 2.5859,-8.91407 3.8828,-13.3711 0.4297,-2.70703 0.75,-6.74219 0.625,-11.08984 -0.168,-5.76953 -0.9766,-9.4961 -1.6016,-11.92578 -1.7695,-6.91407 -3.6406,-14.32032 -6.6562,-20.64063 -1.2461,-2.60547 -2.7188,-5.27344 -6.2149,-8.5039 -5.5,-3.67188 -11,-7.34375 -16.5,-11.01563 -2.582,-2.15234 -5.4414,-5.25 -7.1015,-7.49609 -3.9493,-5.66016 -4.5664,-9.375 -7.0078,-14.54297 -3.2227,-9.01563 -5.5469,-19.55078 -8,-24.45313 -0.9883,-1.98047 -2.3321,-4.55859 -5.1133,-7.98437 -2.4531,-3.01563 -5.25,-5.15625 -6.8946,-6.01172 -1.3593,-0.70703 -3.1601,-1.42969 -5.1445,-1.94531"
       id="path26" />
  </g>
  <g
     id="g3"
     transform="matrix(1.2731404,0.20260822,-0.29494762,0.87455768,1225.3186,-274.15077)">
    <path
       fill-rule="nonzero"
       fill="#000000"
       fill-opacity="1"
       d="m 538.33203,950.03957 0.32813,0.67578 -0.0937,0.83984 -0.51563,0.33985 -0.53516,-0.33985 -0.11718,-0.83984 0.30468,-0.67578 h 0.62891"
       id="path27" />
    <path
       fill-rule="nonzero"
       fill="#000000"
       fill-opacity="1"
       d="m 536.39062,883.57082 c 3.22266,3.99219 7.6211,11.67969 10.16016,17.02344 0.99219,2.08984 2.02344,6.34375 2.62109,9.04297 0.91797,4.13281 1.61719,9.625 1.19532,13.65234 -1.01953,9.71875 -3.75782,23.51172 -5.85938,34.38281 -0.55078,5.0625 -6.32422,8.64063 -7.63281,12.00391 -2.5625,3.03515 -7.46484,8.4414 -11.60938,11.88281 -4.23828,3.83984 -8.17968,4.32422 -12.67578,6.17969 -1.95703,0.79687 -3.87109,1.09375 -5.86328,0.74219 -3.83984,-0.6836 -9.20703,-3.26954 -12.62109,-4.78125 -1.79688,-0.79297 -4.40235,-2.58204 -5.79688,-3.76954 -3.16797,-2.69531 -7.89062,-10.03125 -9,-13.39453 -1.26953,-3.84375 -2.49609,-10.3125 -2.52343,-14.65234 -0.0234,-4.14844 -0.28516,-8.43359 0.0703,-12.57031 0.35937,-4.16016 1.39844,-9.79688 2.33984,-13.78907 1.28125,-5.4375 5.55078,-16.0664 8.31641,-21.57812 5.13672,-5.69141 9.54687,-11.57813 15.55469,-17.16016 4.38671,-3.97656 8.0664,-4.42187 11.35546,-6.13672 2.96094,-0.87109 6.44532,-1.6289 9.41797,-1.89453 1.89063,-0.16797 3.91797,-0.14843 5.80078,0.3711 2.0586,0.57031 5.21485,2.54297 6.75,4.44531 m -19.1875,2.89844 c -3.17968,1.14062 -7.55078,3.60156 -9.95703,5.04687 -2.03125,1.21875 -6.44922,6.89453 -8.9414,9.62891 -3.20703,3.50781 -6.3086,8.41797 -8.04297,12.3125 -2.92969,6.59765 -5.36719,15.39453 -6.61328,22.58203 -0.7461,5.25391 -1.95703,10.50391 -1.125,15.75781 0.87109,5.4336 3.01562,11.54688 5.69922,16.82031 1.68359,4.12891 6.02734,5.88672 8.8164,8.14454 2.16406,1.63671 7.03125,4.64062 9.82031,5.08984 2.41797,0.39062 7.6875,-1.3125 9.83985,-2.57813 5.99609,-5.82421 11.95312,-10.60546 19,-18.58203 2.07031,-15.23047 7.33594,-28.18359 9.02734,-40.65625 -0.0117,-2.71093 -0.8789,-6.2539 -1.90625,-8.92187 -2.07031,-5.35938 -4.78125,-11.67969 -7.85156,-16.91016 -2.67969,-3.66015 -5.11719,-8.65234 -7.86719,-9.69922 -3.19531,-0.3125 -6.58594,1.09375 -9.89844,1.96485"
       id="path28" />
    <path
       fill-rule="nonzero"
       fill="#000000"
       fill-opacity="1"
       d="m 538.91406,1007.1607 c 2.88281,3.2265 2.69141,7.1953 4.19141,9.3828 0.70703,1.7109 1.28515,5.3047 1.5,7.6797 0.0664,4.9843 0.13281,9.9687 0.19922,14.9531 0.27343,3.0742 1.4414,8.6797 2.25781,10.4219 -0.17969,-0.3829 2.30859,-12.1758 3.64844,-15.0821 0.28906,-0.625 0.68359,-0.8476 1.55078,-0.7617 1.25,0.125 2.19531,0.918 2.5039,1.9297 0.26563,5.4961 0.30079,9.0039 0.0312,14.0078 -1.51953,6.4375 -5.21484,17.6758 -8.18359,24.9297 -3.35547,5.9883 -7.5625,12.4766 -11.12109,18.1445 -1.98828,1.8672 -5.05469,4.1094 -6.89844,4.9102 -1.6875,0.7305 -3.96094,1.3398 -5.82031,1.8008 -5.39063,0.7226 -10.70703,0.7187 -16.08203,0 -3.40625,-1.0313 -7.0586,-2.1485 -10.39454,-5.4922 -2.10546,-2.4258 -4.22656,-7.8438 -6.02343,-11.3594 -1.13282,-2.2109 -1.8711,-4.7539 -2.0625,-6.9688 -0.40625,-4.6523 -0.66016,-10.2812 0.36718,-14.8906 1.81641,-8.1875 4.25,-17.1484 6.91797,-25.0469 0.58985,-1.746 1.3711,-3.0429 2.4375,-4.707 5.6211,-8.75 18.17578,-20.4648 23.74219,-30.2695 1.26953,-1.02345 6.14453,-0.79688 7.72266,-0.3086 2.08593,0.6484 6.58203,3.418 9.51562,6.7226 m -20.78901,86.0235 c 2.76562,-0.2305 6.19531,-0.8633 8.80859,-2.6524 2.75,-1.8867 6.44922,-6.2695 8.57422,-9.5039 2.46485,-3.7539 4.86328,-12.6875 5.70313,-15.8945 0.36328,-9.3086 -3.19141,-20.25 -3.9336,-31.4492 -0.0273,-5.457 0.67578,-10.5391 -0.33203,-15.5039 -0.33594,-1.6407 -1.6875,-4.5157 -3.73047,-6.8907 -1.60547,-1.8632 -3.89453,-3.3476 -5.98437,-3.6445 -1.16016,-0.164 -2.02735,0.336 -3.26172,1.4766 -6.10547,5.6523 -13.27344,13.7031 -17.41016,19.1679 -3.58984,6.1055 -7.58203,11.8477 -9.37109,19.0782 -1.44141,5.7031 -2.94922,12.2226 -3.45313,18.0508 -0.24609,2.8632 -0.33593,6.1132 0.13672,8.9609 0.59375,3.5664 2.3711,7.7148 4.75391,11.1602 1.81641,2.3046 4.73047,5.9374 7.23828,6.496 3.96484,0.9922 8.27344,1.4844 12.26172,1.1485"
       id="path29" />
    <path
       fill-rule="nonzero"
       fill="#000000"
       fill-opacity="1"
       d="m 536.32422,1134.5161 c 1.03906,1.543 1.39453,4.0313 1.54297,5.7539 0.38672,4.4336 0.6289,10.6953 -0.14453,14.4336 -0.73047,3.5156 -2.55079,8.1797 -4.77344,11.9727 -3.15235,3.7812 -6.30469,7.5625 -9.45703,11.3476 -0.65625,1.8477 -1.3125,3.6953 -1.96875,5.543 -1.34766,2.1016 -6,5.8203 -8.75391,8.0313 -3.25,2.6132 -6.84766,3.9335 -9.17187,4.6562 -3.28516,0.7227 -7.13672,2.0859 -10.61329,0.7891 -2.80859,-1.9532 -4.57031,-4.4375 -5.65625,-6.6563 -0.71875,-6.0117 -0.23828,-12.2578 -0.27734,-18.3633 1.67578,-9.5507 8.50781,-15.75 11.07422,-25.1953 1.36328,-2.7734 4.99609,-7.0625 6.41016,-8.8476 1.47265,-1.8555 5.29296,-3.5196 7.69531,-4.8555 3.48437,-1.9375 7.71484,-3.8906 10.30469,-4.4219 1.78515,-0.3672 5.41796,-0.5664 6.99609,0.3281 1.58203,0.9024 5.56641,3.6641 6.79297,5.4844 m -14.0625,0.9766 c -2.28516,0.9922 -7.29688,2.6797 -10.59766,5.4258 -6.5,7.2382 -9.98047,14.3125 -14.94922,20.2304 -1.74218,6.1407 -5.05859,12.6758 -5.26953,18.8828 0.0117,2.2266 0.64844,4.3829 1.53516,6.5469 0.6289,1.543 1.67969,4.2266 2.92187,4.7227 1.35157,0.5429 5.55078,-0.6641 7.21094,-1.3906 2.17188,-0.9493 5.91016,-3.1758 7.9375,-4.7266 2.67188,-1.7774 3.08984,-4.4102 3.73047,-6.3516 1.71875,-1.6015 3.4375,-3.2031 5.16016,-4.8047 1.88671,-2.9336 4.96093,-8.2539 5.52734,-11.0976 0.24219,-1.1992 0.28125,-3.0313 -0.34375,-3.918 -0.77734,-1.2695 -4.13672,-1.2578 -3.26953,-2.582 0.42187,-0.5586 1.92969,-0.7852 3.14844,-0.5664 1.39843,0.4648 2.80078,0.9336 4.20312,1.3984 0.55859,-0.1875 0.73438,-0.6719 0.88281,-1.375 0.73828,-3.4922 1.55078,-7.539 1.11719,-12.1523 -0.54687,-2.7149 -1.44141,-6.3985 -3.19922,-7.7852 -1.55859,-0.8672 -4.5664,-0.9687 -5.74609,-0.457"
       id="path30" />
    <path
       fill-rule="nonzero"
       fill="#000000"
       fill-opacity="1"
       d="m 467.69922,966.37941 c 1.8164,7.67578 6.15234,14.70313 8.5,22.72657 -0.26953,0.64062 -2.12891,0.88281 -3.46875,0.13281 -1.91797,-1.07422 -4.29688,-4.82031 -5.83594,-6.56641 -2.14844,-2.4375 -3.55859,-6.21094 -4.35547,-8.09375 -0.32031,-2.09375 -0.63672,-4.1875 -0.95703,-6.28125 -1.14062,-1.91406 -3.78906,-5.57812 -6.28906,-8.05469 -2.06641,-2.05078 -4.41016,-3.26562 -6.63281,-4.4414 -2.58985,-1.3711 -5.08204,-1.92188 -7.69532,-1.49219 -6.3789,2.07031 -12.82031,2.86719 -19.10156,4.96484 -4.50781,4.57032 -8.88672,8.38672 -13.53906,12.07032 -6.16016,4.875 -15.19531,9.48047 -20.20313,13.23828 -1.92187,1.4414 -5.72656,7.58984 -7.15234,9.74219 -2.06641,3.125 -3.94922,6.31637 -5.03906,9.90627 -1.37891,4.5351 -3.03516,10.6914 -3.73047,13.9687 0.28906,10.2422 -0.72656,20.9883 -1.47266,31.4609 -2.67187,5.6758 -5.34765,11.3477 -8.02344,17.0196 -2.65234,3.2148 -7.77734,6.332 -11.23828,8.3672 -11.0039,3.3398 -19.82812,6.0156 -29.77734,7.8203 -2.90625,0.066 -6.57813,0.3594 -9.24219,-0.1914 -11.14062,-2.293 -27.45312,-5.3711 -40.69922,-6.5157 -5.42578,-0.4687 -11.49609,-0.4687 -16.92187,0 -2.56641,0.2227 -5.32813,1.1797 -7.82813,2.2344 -4.49218,1.8906 -10.96484,5.1094 -14.73047,8.0313 -7.60546,5.9023 -13.24609,12.2383 -17.13671,16.414 -10.75,13.3711 -24.35157,28.5196 -36.65235,41.3594 -4.88672,8.668 -10.97265,18.5274 -15.21875,26.9922 -1.76172,4.5938 -4.02343,9.8281 -5.21875,14.6602 -1.33593,5.414 -2.89453,13.0859 -3.82422,17.3945 -0.78906,8.4531 -1.71484,17.9023 -0.92578,27.8203 1.28516,6.7539 4.21485,12.6758 6.35547,18.1914 2.19531,4.1992 2.80078,8.3672 6.625,12.5352 1.76172,1.9336 3.75391,3.664 5.60547,4.75 6.64453,3.8945 14.02734,6.9179 22.70703,10.7226 16.28516,5.211 29.42578,11.2696 45.41406,16.1055 3.02735,0.1406 6.05469,0.2812 9.08203,0.4219 4.91797,1.0625 9.83985,2.1289 14.75782,3.1953 4.4414,0.2617 9.18359,0.2461 13.625,0 10.39843,-0.5781 21.57031,-2.0391 31.78906,-3.4922 9.16016,-3.1172 16.51562,-7.2695 25.90234,-9.8945 5.88282,-2.8985 12.34375,-8.5352 18.62891,-11.2539 5.01562,-0.2149 11.45312,-4.8243 16.60937,-5.3711 3.89454,-2.4805 9.375,-5.5274 13.6211,-8.8985 5.14844,-4.0859 12.02734,-10.125 17.96484,-16.9922 5.46875,-6.3242 7.53906,-10.7539 11.59766,-17.0547 2.39062,-3.3281 5.97265,-5.6718 6.69922,-7.0273 1.88281,-3.5039 5.74609,-7.4922 7.26172,-11.0742 0.67968,-2.6524 1.35937,-5.3047 2.03515,-7.957 1.6211,-2.6875 5.77735,-7.336 6.86719,-7.4454 0.86328,-0.086 1.0625,0.8594 0.5,2.0313 -2.19141,3.1719 -4.38672,6.3398 -6.57813,9.5078 -0.51171,2.9023 -0.0469,6.6758 -1.82421,9.9727 -9.05079,11.1992 -13.8086,21.8437 -22.79688,32.7226 -3.26953,3.375 -6.76172,7.1211 -10.20312,10.0078 -5.62891,4.7266 -11.25,8.2969 -17.03125,12.4336 -7.19141,3.1797 -14.37891,7.1758 -21.57032,9.7813 -4.54297,3.1211 -9.08203,6.2422 -13.625,9.3633 -11.4414,5.0156 -22.34375,8.9414 -32.92187,12.1406 -6.13281,1.8515 -12.98438,2.7344 -18.16797,3.039 -12.19141,0.7188 -25.26953,0.7188 -37.46484,0 -6.67969,-0.3906 -18.16797,-3.2812 -24.97657,-5.2421 -5.67578,-1.6329 -15.78515,-6.8047 -21.64062,-8.7461 -3.76172,-0.9414 -7.52344,-1.8868 -11.28516,-2.8282 -4.16015,-2.2461 -8.32422,-4.4882 -12.48828,-6.7304 -3.40625,-1.1328 -6.8125,-2.2696 -10.21484,-3.4063 -3.58985,-1.8594 -8.4336,-4.7656 -10.92188,-7.3281 -2.6289,-2.1484 -2.67187,-5.3789 -3.03906,-7.4727 -1.43359,-1.9765 -2.87109,-3.9531 -4.30469,-5.9297 -2.91797,-8.1015 -5.38672,-14.789 -7.10547,-21.2265 -0.5,-7.8086 -0.66406,-16.4063 -0.0195,-24.207 2.39844,-9.5586 1.91407,-18.9258 4.98047,-28.5274 2.38672,-7.0391 5.69922,-12.9101 7.84766,-18.168 2.17578,-5.3281 5.88672,-11.5312 9.1914,-15.9882 2.65625,-3.5821 5.07032,-7.0743 7.74219,-10.2657 7.53906,-7.6289 14.85547,-14.4922 22.12891,-22.8789 1.1289,-1.9687 2.25781,-3.9336 3.38672,-5.8984 5.68359,-6.6523 14.54687,-15.8633 20.89062,-22.375 3.64844,-3.7383 7.36328,-6.6484 11.44922,-8.7109 4.06641,-2.0547 8.80859,-4.1797 12.58984,-4.8125 6.9961,-1.1719 14.67578,-1.8907 21.69922,-1.2852 10.17969,0.8828 20.72266,4.0469 29.55469,5.4063 4.77344,0.7382 11.97266,1.5156 16.80469,1.1328 5.99609,-0.4805 12.19531,-0.875 18.22265,-2.4961 5.20313,-1.4024 13.32813,-4.5352 18.02344,-6.8789 2.92969,-1.9063 4.76172,-5.5743 6.3125,-8.2891 1.78906,-3.6328 3.24219,-8.2539 4.15625,-11.4648 1.4375,-5.0508 2.64063,-10.6719 2.92188,-15.7969 -0.15235,-5.2227 -0.62891,-10.625 0.19921,-15.8164 0.8086,-5.0391 1.98047,-10.9531 3.51563,-15.93361 3.71094,-6.11328 7.42187,-12.22656 11.13281,-18.33985 1.81641,-1.91796 3.83985,-4.16796 5.82031,-5.6914 4.8125,-3.69922 9.24219,-4.29688 14.72266,-8.42578 4.17188,-3.63672 8.34766,-7.27735 12.51953,-10.91407 4.66016,-3.01953 9.125,-4.23437 13.76953,-5.7539 6.41016,-1.23828 9.98828,-2.51953 16.03516,-2.07813 2.63281,0.42578 5.55469,0.83203 8.13281,1.89063 2.59375,1.0625 5.625,3.15234 8.03125,5.25781 2.7461,2.40625 5.51953,7.51172 7.16016,11.07031"
       id="path31" />
  </g>
  <rect
     style="fill:none;stroke:none;stroke-width:13.474"
     id="rect4"
     width="4385.666"
     height="924.45319"
     x="0"
     y="0"
     inkscape:export-filename="steps2.svg"
     inkscape:export-xdpi="96"
     inkscape:export-ydpi="96" />
</svg>
